<svg id="Layer_1" data-name="Layer 1" xmlns="http://www.w3.org/2000/svg" viewBox="0 0 110.37 87.13"><defs><style>.cls-1{fill:#ff7c6c;}.cls-2{fill:#c4c4c4;}</style></defs><title>ssmentor_1</title><path class="cls-1" d="M105.52,48A31.27,31.27,0,0,0,57,9.16h0a31.07,31.07,0,0,0-6.72,10c.46.21.92.43,1.37.66a29.45,29.45,0,0,1,6.41-9.56,29.77,29.77,0,0,1,46,37.23l-.16.26,2.27,10.65L95.55,56.09l-.26.17a29.8,29.8,0,0,1-25,3.37c-.11.5-.24,1-.37,1.47a31.44,31.44,0,0,0,9.28,1.4,31.05,31.05,0,0,0,16.68-4.82l10.5,2.24a1.19,1.19,0,0,0,1.42-1.42Z"/><path class="cls-2" d="M35.85,82.77A31.13,31.13,0,0,1,19.17,78L8.68,80.2a1.22,1.22,0,0,1-1.11-.33,1.18,1.18,0,0,1-.32-1.1L9.49,68.28A31.27,31.27,0,0,1,58,29.43h0A31.23,31.23,0,0,1,35.85,82.77ZM19.46,76.36l.26.17a29.78,29.78,0,1,0-8.8-8.81l.17.26L8.81,78.63Z"/><path class="cls-1" d="M42.27,57.28a.74.74,0,0,1-.53-.22.75.75,0,0,1,0-1.06l5-5-5-5.06a.75.75,0,1,1,1.06-1.06L48.91,51,42.8,57.06A.74.74,0,0,1,42.27,57.28Z"/><path class="cls-1" d="M27.54,57.28a.74.74,0,0,1-.53-.22L20.9,51,27,44.83a.75.75,0,0,1,1.06,0,.74.74,0,0,1,0,1.06L23,51l5.05,5a.74.74,0,0,1,0,1.06A.71.71,0,0,1,27.54,57.28Z"/><path class="cls-1" d="M31.94,61a1,1,0,0,1-.23,0,.75.75,0,0,1-.48-1l5.84-17.87a.75.75,0,0,1,1.43.47L32.66,60.48A.77.77,0,0,1,31.94,61Z"/></svg>