<svg viewBox="0 0 94.26 94.39" xmlns="http://www.w3.org/2000/svg"><path d="m76.44 94.39a17.82 17.82 0 1 1 17.82-17.82 17.84 17.84 0 0 1 -17.82 17.82zm0-34.14a16.32 16.32 0 1 0 16.32 16.32 16.34 16.34 0 0 0 -16.32-16.32z" fill="#c4c4c4"/><path d="m76.44 82.36a6 6 0 1 1 6-6 6 6 0 0 1 -6 6zm0-10.51a4.51 4.51 0 1 0 4.5 4.5 4.51 4.51 0 0 0 -4.5-4.5z" fill="#ff7c6c"/><path d="m87.57 90.26a.75.75 0 0 1 -.71-.5 11.08 11.08 0 0 0 -20.85 0 .75.75 0 1 1 -1.41-.51 12.58 12.58 0 0 1 23.67 0 .75.75 0 0 1 -.45 1 .74.74 0 0 1 -.25.01z" fill="#ff7c6c"/><path d="m76.44 94.39a17.82 17.82 0 1 1 17.82-17.82 17.84 17.84 0 0 1 -17.82 17.82zm0-34.14a16.32 16.32 0 1 0 16.32 16.32 16.34 16.34 0 0 0 -16.32-16.32z" fill="#c4c4c4"/><path d="m17.82 94.39a17.82 17.82 0 1 1 17.82-17.82 17.84 17.84 0 0 1 -17.82 17.82zm0-34.14a16.32 16.32 0 1 0 16.32 16.32 16.34 16.34 0 0 0 -16.32-16.32z" fill="#c4c4c4"/><path d="m17.82 82.36a6 6 0 1 1 6-6 6 6 0 0 1 -6 6zm0-10.51a4.51 4.51 0 1 0 4.5 4.5 4.51 4.51 0 0 0 -4.5-4.5z" fill="#ff7c6c"/><path d="m29 90.26a.75.75 0 0 1 -.7-.5 11.08 11.08 0 0 0 -20.85 0 .75.75 0 0 1 -1.45-.51 12.59 12.59 0 0 1 23.68 0 .75.75 0 0 1 -.45 1 .8.8 0 0 1 -.23.01z" fill="#ff7c6c"/><path d="m17.82 94.39a17.82 17.82 0 1 1 17.82-17.82 17.84 17.84 0 0 1 -17.82 17.82zm0-34.14a16.32 16.32 0 1 0 16.32 16.32 16.34 16.34 0 0 0 -16.32-16.32z" fill="#c4c4c4"/><path d="m46.54 35.64a17.82 17.82 0 1 1 17.82-17.82 17.84 17.84 0 0 1 -17.82 17.82zm0-34.14a16.32 16.32 0 1 0 16.32 16.32 16.34 16.34 0 0 0 -16.32-16.32z" fill="#c4c4c4"/><path d="m46.54 23.61a6 6 0 1 1 6-6 6 6 0 0 1 -6 6zm0-10.51a4.51 4.51 0 1 0 4.46 4.5 4.51 4.51 0 0 0 -4.46-4.5z" fill="#ff7c6c"/><path d="m57.67 31.51a.75.75 0 0 1 -.67-.51 11.08 11.08 0 0 0 -20.85 0 .75.75 0 1 1 -1.41-.51 12.59 12.59 0 0 1 23.68 0 .75.75 0 0 1 -.46 1 .74.74 0 0 1 -.29.02z" fill="#ff7c6c"/><path d="m46.54 35.64a17.82 17.82 0 1 1 17.82-17.82 17.84 17.84 0 0 1 -17.82 17.82zm0-34.14a16.32 16.32 0 1 0 16.32 16.32 16.34 16.34 0 0 0 -16.32-16.32z" fill="#c4c4c4"/><g fill="#ff7c6c"><path d="m56.42 64a.73.73 0 0 1 -.53-.22l-9.89-9.85a.75.75 0 0 1 1.06-1.06l9.94 9.88a.75.75 0 0 1 0 1.06.74.74 0 0 1 -.58.19z"/><path d="m36.66 64a.74.74 0 0 1 -.53-.22.75.75 0 0 1 0-1.06l9.66-9.66v-11.89a.75.75 0 0 1 1.5 0v12.54l-10.1 10.1a.74.74 0 0 1 -.53.19z"/></g></svg>