<svg viewBox="0 0 490.4 224.17" xmlns="http://www.w3.org/2000/svg" xmlns:xlink="http://www.w3.org/1999/xlink"><linearGradient id="a" gradientUnits="userSpaceOnUse" x1="42.88" x2="42.55" y1="145.45" y2="162.61"><stop offset="0" stop-color="#c5d2d5"/><stop offset="1" stop-color="#c5d2d5"/></linearGradient><linearGradient id="b" x1="111.84" x2="31.43" xlink:href="#a" y1="51.48" y2="125.49"/><linearGradient id="c" x1="107.78" x2="83.07" xlink:href="#a" y1="51.37" y2="84.42"/><path d="m367.59 128.77-34.52 1.94 11.97 22 17.73-11.29z" fill="#13253e"/><path d="m241.73 177.4-26.45-27.08-2.27-15.55 40.47-15.26 15.87 6.07v38.32z" fill="#13253e"/><path d="m367.59 143.85v-15.08h-67.1v-8.29l-1.81 1.81c-4.87 4.8-12.21 7.46-20.63 7.46-12.9-.1-23.91-4.6-31.86-13l-3.6-3.81.2-.19.51-.51.49-.48.24-.24.51-.51.49-.47.75-.73.25-.25.48-.48.26-.26.5-.49.5-.49.24-.25.5-.49.24-.25.24-.23.51-.5.5-.49.25-.25.49-.49.5-.49 1.8-1.77 6.42-6.32c-7.63-4.92-11.5-10.89-11.5-17.76a20.5 20.5 0 0 1 5.82-14.79l8.41-8.4a21.41 21.41 0 0 1 4.22-3.41c6.19-3.86 13.36-4.43 17.07-4.43a46.56 46.56 0 0 1 19.79 4.39v-.1h.24v-.25h.25v-.24h.24v-.32h.24v-.25h.25v-.24h.25v-.25h.25v-.26h.24v-.24h.25v-.25h.25v-.25h.24v-.26h.25v-.24h.25v-.25h.24v-.25h.25v-.26h.25v-.25h.25v-.25h.24v-.2h.25v-.25h.25v-.25h.24v-.24h.25v-.25h.25v-.25h.24v-.25h25.21v21.81a21 21 0 0 1 4.61-.62 24.61 24.61 0 0 1 6.38.79 11.57 11.57 0 0 1 3.85-8.6 2.83 2.83 0 0 1 .24-.25l.25-.25a2.61 2.61 0 0 1 .24-.23 1.34 1.34 0 0 1 .2-.21c.13-.14.21-.21.29-.29l.21-.21c.13-.13.2-.21.28-.28s.17-.18.26-.26l.25-.24a3 3 0 0 1 .25-.25 2.83 2.83 0 0 1 .24-.25l.24-.24.21-.21.28-.28.26-.26.25-.24a2.77 2.77 0 0 1 .24-.25l.25-.25.25-.25.2-.2c.12-.13.2-.2.28-.28l.26-.25a1.75 1.75 0 0 1 .23-.24l.21-.21c.13-.14.22-.22.3-.3a2.89 2.89 0 0 1 .25-.24 2.83 2.83 0 0 1 .24-.25c.08-.08.16-.17.25-.25l.2-.2.28-.28.21-.21a4.18 4.18 0 0 1 .3-.3l.25-.24a2.77 2.77 0 0 1 .24-.25 13 13 0 0 1 9.17-3.68c7.16 0 12.77 5.29 12.77 12a11.71 11.71 0 0 1 -3.39 8.27h26.22v.76a25.7 25.7 0 0 1 8.22-1.14 22.06 22.06 0 0 1 15.51 6.13c4.88 4.77 7.45 11.87 7.45 20.69 0 8.52-2.82 15.91-7.94 20.8l-8.39 8.4a21.26 21.26 0 0 1 -14.82 6.15v6h-.25v.25h-.25v.24h-.25v.34h-.24v.25h-.25v.24h-.25v.25h-.24v.25h-.25v.25h-.25v.24h-.19v.25h-.25v.25h-.25v.24h-.24v.25h-.26v.25h-.25v.24h-.25v.25h-.24v.25h-.26v.24h-.25v.25h-.24v.25h-.25v.25h-.26v.24h-.24v.25h-.25v.25h-.25v.24h-.26v.25h-.24v.25h-.25v.24h-.25v.25h-.26v.25h-.25v.25h-.25v.24h-.24v.25h-.26v.25h-.25v.24z" fill="#13253e"/><path d="m359.74 151.7v-15.09h-67.09v-8.28l-1.81 1.8c-4.87 4.8-12.22 7.46-20.64 7.46-12.9-.1-23.9-4.6-31.86-13l-3.6-3.81.2-.2.51-.5.48-.48.25-.25.51-.5.49-.48.75-.74.25-.25.49-.48.26-.26.5-.49.5-.49.25-.24.5-.49.25-.24.24-.24.51-.51.49-.49.25-.24.5-.5.5-.49 1.79-1.77 6.43-6.33c-7.63-4.92-11.5-10.88-11.5-17.75a20.48 20.48 0 0 1 5.82-14.8l8.4-8.4a22 22 0 0 1 4.22-3.4c6.2-3.86 13.36-4.44 17.08-4.44a46.56 46.56 0 0 1 19.78 4.4v-.11h.25v-.24h.25v-.25h.24v-.25h.25v-.28h.25v-.25h.24v-.25h.25v-.24h.25v-.25h.25v-.25h.24v-.25h.25v-.24h.25v-.25h.24v-.25h.25v-.24h.25v-.25h.24v-.25h.25v-.24h.25v-.25h.24v-.25h.25v-.24h.25v-.25h.25v-.25h.12v-.25h.25v-.24h25.25v21.81a21 21 0 0 1 4.68-.6 24.13 24.13 0 0 1 6.38.79 11.62 11.62 0 0 1 3.85-8.6c.08-.08.16-.17.25-.25a2.89 2.89 0 0 1 .25-.24l.23-.24.21-.21.29-.28a2 2 0 0 1 .2-.21l.29-.29.26-.25a2.83 2.83 0 0 1 .24-.25l.25-.25.25-.25a2.5 2.5 0 0 1 .23-.23l.21-.21c.13-.14.21-.21.29-.29l.26-.25.24-.25.25-.25.25-.24a2.83 2.83 0 0 1 .24-.25l.2-.2.29-.29.25-.25.24-.24.21-.21.3-.29a2.77 2.77 0 0 1 .24-.25l.25-.25.25-.24a1.8 1.8 0 0 1 .19-.2l.29-.29.21-.21.29-.29.25-.25.25-.25a13 13 0 0 1 9.19-3.66c7.15 0 12.76 5.28 12.76 12a11.68 11.68 0 0 1 -3.38 8.27h26.21v.73a25.75 25.75 0 0 1 8.2-1.17 22 22 0 0 1 15.49 6.17c4.87 4.74 7.45 11.89 7.45 20.66 0 8.53-2.82 15.91-7.94 20.8l-8.4 8.4a21.15 21.15 0 0 1 -14.82 6.14v6h-.25v.25h-.24v.25h-.25v.24h-.25v.26h-.24v.25h-.25v.25h-.25v.24h-.24v.26h-.25v.25h-.25v.24h-.25v.25h-.24v.26h-.25v.24h-.25v.25h-.24v.25h-.25v.26h-.25v.25h-.24v.25h-.25v.25h-.25v.25h-.24v.25h-.25v.25h-.25v.24h-.25v.26h-.24v.25h-.25v.24h-.25v.25h-.24v.26h-.25v.25h-.25v.24h-.24v.25h-.25v.26h-.25v.24h-.24v.25h-.25v.25z" fill="#13253e"/><path d="m373.53 216.18v-15.08h-22.83v-.1a25.8 25.8 0 0 1 -5.5.53 21.28 21.28 0 0 1 -10.29-2.38h-.14v.25h-.25v.24h-.24v.25h-.28v.25h-.24v.24h-.26v.25h-.25v.25h-.24v.25h-49.49v-8.29l-1.81 1.81c-4.87 4.8-12.21 7.46-20.64 7.46-12.89-.1-23.89-4.6-31.85-13l-3.61-3.81.47-.45.48-.47.52-.51.25-.25.48-.47.48-.47.75-.73.26-.26.25-.24.52-.5.48-.47.51-.51.24-.23.49-.47.53-.52 1-1 .25-.24.51-.5 8.45-8.32c-7.63-4.93-11.5-10.89-11.5-17.76a20.5 20.5 0 0 1 5.72-14.93l8.34-8.34a22.64 22.64 0 0 1 4.28-3.47c6.2-3.86 13.36-4.43 17.08-4.43a46.59 46.59 0 0 1 19.79 4.39v-.1h.24v-.25h.25v-.24h.27v-.25h.24v-.25h.25v-.24h.25v-.25h.26v-.25h.25v-.24h.25v-.25h.24v-.25h.26v-.25h.25v-.24h.25v-.25h.24v-.25h.25v-.24h.25v-.25h.24v-.25h.25v-.24h.25v-.25h.24v-.25h.25v-.24h.25v-.25h.25v-.25h.24v-.25h25.21v21.88a21 21 0 0 1 4.68-.6c8.36 0 14.25 3.42 17.25 10l1-1a30.47 30.47 0 0 1 22.17-9c6.32 0 11.6 1.67 15.48 4.85v-.25h.25v-.25h.25v-.25h.24v-.24h.26v-.26h.25v-.25h.25v-.24h.24v-.25h.26v-.26h.25v-.25h.24v-.24h.25v-.25h.25v-.26h.24v-.24h.25v-.25h.25v-.25h.25v-.26h.24v-.25h26.19v.76a25.7 25.7 0 0 1 8.19-1.17 21.58 21.58 0 0 1 19 10.64c.06-.07 2.57-2.58 2.65-2.65 4.78-5.16 11.66-8 19.39-8 15.78 0 26.8 11.05 26.8 26.88v9.83h-.25v.25h-.25v.24h-.24v.26h-.25v.25h-.25v.25h-.25v.26h-.24v.25h-.25v.2h-.25v.25h-.21l2.67 2.43-.49.47-.25.25-.25.24-.24.24-.51.49-.6.59-.14.14-.25.24-.25.24-.25.25-.25.25-.51.5-.5.49-.25.25-.25.24-.36.35-.39.38-.62.59-.14.13-.25.25-.61.6-.15.14-.49.48-.62.59-.13.13-4.11 4c-5.77 5.59-12.68 8.19-21.74 8.19-9.23 0-17.34-4-22.29-10.9l-.19.19-.24.23-.25.26-.24.23-.27.27-.22.23-.26.25-.25.26-.24.24-.26.25-.23.24-1.13 1.35-.26.25c-.09.09-.16.17-.24.24l-.24.25-.24.23a21.2 21.2 0 0 1 -14.69 6v6h-.25v.25h-.25v.29h-.24v.25h-.25v.25h-.25v.24h-.24v.26h-.25v.25h-.25v.24h-.24v.25h-.25v.26h-.25v.25h-.25v.24h-.24v.25h-.25v.26h-.25v.24h-.24v.25h-.25v.25h-.25v.26h-.24v.25h-.25v.25h-.25v.25h-.24v.25h-.25v.25h-.25v.25h-.25v.24h-.24v.26h-.25v.25h-.25v.24h-.24v.25h-.17v.26h-.25v.24h-.24v.25h-.25v.25h-.26v.25h-.24v.24z" fill="#13253e"/><path d="m373.3 138.14v-15.09h-67.1v-8.28l-1.81 1.81c-4.87 4.79-12.21 7.45-20.63 7.45-12.9-.09-23.9-4.59-31.86-13l-3.6-3.81.2-.19.51-.5.49-.48.24-.25.51-.5.49-.48.74-.73.25-.24.48-.48.26-.25.5-.49.5-.49.25-.25.49-.49.25-.25.23-.23.51-.5.49-.49.25-.25.49-.49.49-.49 1.8-1.77 6.42-6.32c-7.63-4.92-11.49-10.89-11.49-17.76a20.46 20.46 0 0 1 5.79-14.85l8.4-8.41a21.37 21.37 0 0 1 4.22-3.4c6.19-3.86 13.36-4.44 17.08-4.44a46.56 46.56 0 0 1 19.78 4.4v-.15h.25v-.25h.24v-.25h.25v-.24h.25v-.26h.24v-.25h.25v-.24h.25v-.21h.24v-.25h.25v-.24h.25v-.25h.24v-.25h.25v-.24h.25v-.25h.25v-.25h.24v-.25h.25v-.24h.25v-.25h.24v-.25h.25v-.24h.25v-.25h.24v-.25h.25v-.24h.25v-.25h.25v-.25h25.2v21.81a21 21 0 0 1 4.69-.6 24.61 24.61 0 0 1 6.38.79 11.59 11.59 0 0 1 3.85-8.6 2.83 2.83 0 0 1 .24-.25l.25-.25.24-.24a2.08 2.08 0 0 1 .21-.21 3.63 3.63 0 0 1 .28-.28l.21-.21.29-.28a3.13 3.13 0 0 1 .25-.26l.25-.25a2.89 2.89 0 0 1 .25-.24 2.83 2.83 0 0 1 .24-.25l.24-.24.21-.21c.13-.13.2-.21.28-.28s.17-.18.26-.26.16-.17.25-.25l.25-.24.24-.25c.08-.08.16-.17.25-.25l.2-.2.28-.28.26-.26a1.75 1.75 0 0 1 .24-.23 2.18 2.18 0 0 1 .21-.22l.29-.29a2.89 2.89 0 0 1 .25-.24 2 2 0 0 1 .25-.25 2.77 2.77 0 0 1 .24-.25l.2-.2a3.46 3.46 0 0 1 .29-.28 1.34 1.34 0 0 1 .2-.21l.3-.3a2.89 2.89 0 0 1 .25-.24 2.83 2.83 0 0 1 .24-.25 13 13 0 0 1 9.17-3.68c7.16 0 12.77 5.29 12.77 12a11.74 11.74 0 0 1 -3.38 8.27h26.21v.76a25.7 25.7 0 0 1 8.19-1.17 22 22 0 0 1 15.51 6.13c4.88 4.75 7.45 11.89 7.45 20.67 0 8.52-2.82 15.91-7.93 20.8l-8.4 8.4a21.24 21.24 0 0 1 -14.82 6.15v6h-.25v.24h-.25v.33h-.24v.25h-.25v.25h-.25v.24h-.24v.26h-.25v.25h-.25v.24h-.25v.25h-.24v.26h-.25v.24h-.25v.25h-.24v.25h-.25v.26h-.25v.25h-.24v.25h-.25v.25h-.25v.24h-.24v.25h-.25v.25h-.25v.24h-.25v.25h-.24v.25h-.25v.25h-.2v.24h-.24v.25h-.25v.25h-.25v.24h-.26v.25h-.25v.25h-.25v.24h-.25v.25h-.25v.25h-.25v.24h-.25v.25z" fill="#13253e"/><path d="m436.78 88.11c0-17.94-11-24.3-20.46-24.3a21 21 0 0 0 -10.69 2.5v-2.09h-21.19v.25h-.25v.24h-.19v.29h-.25v.25h-.25v.24h-.24v.25h-.26v.26h-.08v-1.78h-7l.2-.21.24-.24c.09-.08.17-.17.25-.25s.16-.16.25-.25l.24-.24.25-.25.25-.25.24-.25a2.83 2.83 0 0 0 .25-.24l.25-.25.25-.25.24-.24.25-.25.25-.25.24-.24c.09-.08.17-.17.25-.25a9.29 9.29 0 0 0 3-6.87c0-5.34-4.51-9.53-10.27-9.53a10.62 10.62 0 0 0 -7.47 3 3 3 0 0 0 -.25.25c-.09.07-.16.16-.25.24l-.24.25a3 3 0 0 0 -.25.25l-.25.24-.24.25-.25.25-.25.24c-.08.08-.16.17-.25.25l-.24.25-.25.24c-.09.08-.16.17-.25.25l-.24.25a3 3 0 0 0 -.25.25l-.25.24-.24.25a3 3 0 0 0 -.25.25l-.25.24-.24.25c-.09.08-.17.17-.25.25l-.25.24-.25.25-.24.25a3 3 0 0 0 -.25.25c-.09.07-.16.16-.25.24l-.24.25-.25.25-.25.24-.24.25-.25.25-.25.24c-.08.08-.16.17-.25.25l-.24.25-.25.24a9.11 9.11 0 0 0 -2 11 17.84 17.84 0 0 0 -9.93-2.55 19.6 19.6 0 0 0 -7.19 1.54v-22.69h-20.2v.25h-.25v.25h-.25v.24h-.25v.25h-.24v.25h-.25v.24h-.25v.25h-.24v.25h-.25v.24h-.25v.25h-.24v.25h-.25v.25h-.25v.24h-.25v.25h-.24v.25h-.25v.24h-.25v.25h-.24v.25h-.25v.24h-.25v.25h-.24v.25h-.25v.21h-.25v.25h-.24v.25h-.25v.25h-.25v.25h-.25v.25h-.24v.25h-.25v.22a43.59 43.59 0 0 0 -21.29-5.51c-3.46 0-10.09.53-15.76 4.06a19.72 19.72 0 0 0 -3.77 3.05 3 3 0 0 0 -.25.25c-.08.08-.17.16-.25.25l-.24.24c-.09.08-.17.17-.25.25s-.17.16-.25.25l-.25.24-.24.25c-.08.08-.17.16-.25.25l-.25.24-.24.25-.25.25-.25.24-.24.25-.25.25-.25.25-.25.24-.24.25c-.08.08-.17.16-.25.25l-.25.24-.24.25a3 3 0 0 0 -.25.25l-.25.24-.24.25a3 3 0 0 0 -.25.25c-.08.08-.17.16-.25.25l-.24.24-.25.25c-.08.08-.17.16-.25.25l-.25.24-.24.25c-.08.08-.17.16-.25.25l-.25.24-.24.25-.25.25a17.92 17.92 0 0 0 -5.09 13c0 8.56 7 13.94 13.06 17.27l-8.74 8.59-.25.25-.25.25-.25.24-.25.24-.25.25-.25.24-.25.24-.24.25-.25.25-.25.24-.25.25-.25.25-.25.24-.25.24-.25.25-.25.24-.25.24-.25.25-.25.24-.25.24-.24.25-.25.25-.25.24-.25.24-.25.25-.25.24-.25.24-.25.25-.25.24-.22.33-.24.25-.25.25-.25.24-.24.25-.25.25 1.91 2c7.48 7.91 17.87 12.14 30 12.23 8 0 14.56-2.49 18.91-6.77l.25-.25.25-.24c.08-.08.16-.17.25-.25l.24-.25.25-.24c.08-.08.16-.17.25-.25l.24-.25.25-.24.25-.25.24-.25.25-.24c.09-.08.16-.17.25-.25l.24-.25a3 3 0 0 0 .25-.25l.25-.24.25-.25.24-.25.25-.24c.08-.08.16-.17.25-.25l.24-.25.25-.24c.09-.08.16-.17.25-.25l.24-.25.25-.25.1-.09v11.81h20.21v-.24h.24v-.25h.25v-.25h.25v-.24h.25v-.25h.24v-.25h.25v-.24h.25v-.25h.24v-.25h.25v-.24h.25v-.25h.24v-.25h.25v-.25h.25v-.24h.25v-.25h.24v-.25h.25v-.24h.22v4.19h41.24v-.24h.25v-.25h.24v-.25h.27v-.24h.25v-.25h.24v-.25h.25v-.24h.08v16.81h21.18v-.25h.25v-.24h.25v-.25h.24v-.25h.26v-.24h.25v-.25h.25v-.25h.24v-.24h.26v-.25h.25v-.25h.24v-.24h.25v-.25h.26v-.25h.24v-.25h.25v-.24h.25v-.25h.25v-.25h.24v-.24h.25v-.14h.25v-.25h.24v-.24h.25v-.25h.25v-.26h.24v-.25h.25v-.24h.25v-.25h.24v-.26h.25v-.24h.25v-.25h.25v-.25h.24v-.26h.25v-.25h.25v-.25h.24v-.25h.25v-.25h.25v-6.08h2.05a18.84 18.84 0 0 0 13.54-5.46l.25-.25.25-.25.24-.24c.09-.08.17-.17.25-.25l.25-.25.24-.24c.09-.08.17-.17.25-.25l.25-.25.24-.25.25-.24.25-.25.25-.25.24-.24.25-.25c.08-.08.16-.17.25-.25l.24-.24.25-.25c.08-.08.16-.17.25-.25l.24-.25.25-.24.25-.25.25-.25.24-.24c.09-.08.17-.17.25-.25l.25-.25.24-.24c.09-.08.17-.17.25-.25l.25-.25.24-.24c.09-.08.17-.17.25-.25l.25-.25.24-.25.25-.24.25-.25c4.44-4.25 7.11-10.92 7.11-18.95zm-132.91-15.64.23-.25.24-.26.23-.26.23-.25.24-.25.24-.26.23-.26.24-.25.24-.26 2.59-2.83v8.41a37.54 37.54 0 0 0 -5.05-3.12z" fill="#13253e"/><path d="m314.25 91.77c0 12.08-10 18.28-21.85 18.28-11.18-.09-20.88-3.84-28-11.34l10.3-10.12c3.34 2.61 9.14 8.32 16.31 8.32 4 .08 7.59-1.71 7.59-5.54 0-5.47-6.85-6.53-14-9.79-5.87-2.69-17-7.75-17-17.45 0-13 12.24-17 21.54-17 10.76 0 20.39 4.24 25.69 9.46l-9.05 9.87c-2.12-1.63-9.22-6.28-16.07-6.28.16 0-6.45-1-6.45 4.16 0 1.22-.48 3.35 8.9 6.69 13.94 4.97 22.09 10.06 22.09 20.74z" fill="#fff"/><path d="m344.49 109.07v-25.07c0-4.89-1.63-6.86-4.89-6.86-3.51 0-4.89 2-4.89 6.86v25h-14.52v-63.55h14.52v25.37c2.52-3.18 7.66-4.16 10-4.16 10.44 0 14.19 6.11 14.19 17.69l.08 24.72z" fill="#fff"/><path d="m364.7 109.07v-42h15.3v42zm7.83-48.86c-4.08 0-7.42-2.93-7.42-6.77 0-3.67 3.34-6.68 7.42-6.68 4.24 0 7.42 3 7.42 6.68.05 3.84-3.18 6.77-7.42 6.77z" fill="#fff"/><path d="m402.78 103.6v20.55h-15.49v-57.09h15.49v5.55c4.24-5.71 10.44-6 13.54-6 9.54 0 17.62 6.85 17.62 21.45 0 13.78-8.08 21.36-17.62 21.36-3.1.05-9.32-.11-13.54-5.82zm0-15.49c0 5.54 2.77 9.38 7.83 9.38s7.83-3.84 7.83-9.38-2.78-9.38-7.83-9.38-7.83 3.91-7.83 9.38z" fill="#fff"/><path d="m379.24 210.47v-15.09h-22.82v-.12a26 26 0 0 1 -5.51.53 21.28 21.28 0 0 1 -10.29-2.38h-.14v.25h-.25v.24h-.23v.25h-.24v.25h-.25v.24h-.25v.25h-.26v.25h-.24v.24h-49.53v-8.28l-1.81 1.81c-4.87 4.79-12.21 7.45-20.63 7.45-12.9-.09-23.9-4.59-31.86-13l-3.61-3.81.47-.45.49-.47.51-.51.24-.25.48-.48.48-.47.74-.73.26-.26.25-.24.51-.5.48-.47.51-.51.23-.23.49-.47.53-.52 1-1 .25-.25.51-.51 8.45-8.32c-7.63-4.93-11.5-10.89-11.5-17.76a20.5 20.5 0 0 1 5.82-14.79l8.28-8.36a22 22 0 0 1 4.29-3.47c6.19-3.86 13.36-4.44 17.07-4.44a46.57 46.57 0 0 1 19.79 4.4v-.1h.24v-.25h.25v-.25h.25v-.24h.24v-.25h.25v-.25h.25v-.24h.25v-.25h.24v-.25h.25v-.24h.25v-.25h.24v-.25h.25v-.24h.25v-.25h.24v-.25h.25v-.25h.25v-.24h.25v-.25h.24v-.25h.25v-.24h.25v-.25h.24v-.25h.25v-.24h.25v-.25h.24v-.25h25.21v21.81a21 21 0 0 1 4.69-.6c8.36 0 14.24 3.42 17.24 10l1-1a30.51 30.51 0 0 1 22.17-8.94c6.32 0 11.6 1.66 15.49 4.85v-.24h.24v-.34h.25v-.25h.25v-.25h.24v-.24h.25v-.26h.25v-.25h.24v-.24h.25v-.25h.25v-.26h.25v-.24h.24v-.25h.25v-.25h.25v-.26h.24v-.24h.25v-.25h.25v-.25h.24v-.24h26.19v.76a25.7 25.7 0 0 1 8.19-1.17 21.58 21.58 0 0 1 19 10.64l2.65-2.65c4.79-5.16 11.66-8 19.39-8 15.78 0 26.8 11.05 26.8 26.88v9.83h-.25v.25h-.25v.24h-.24v.26h-.25v.25h-.25v.24h-.24v.26h-.25v.25h-.25v.25h-.24v.25h-.19l2.73 2.44-.49.47-.25.25-.25.24-.24.24-.51.49-.6.59-.14.13-.25.24-.25.24-.25.25-.25.24-.51.5-.5.49-.25.25-.24.24-.37.35-.39.37-.61.6-.13.13-.25.24-.61.6-.14.14-.5.48-.62.6-.14.14-4.11 4c-5.77 5.59-12.68 8.19-21.74 8.19-9.23 0-17.34-4-22.29-10.9l-.19.18-.23.24-.26.25a2.68 2.68 0 0 1 -.24.24l-.27.27-.22.22-.26.26a2.94 2.94 0 0 1 -.25.25l-.24.25-.26.25-.23.23-1.24 1.24-.25.26-.25.24-.24.25-.24.23a21.24 21.24 0 0 1 -14.69 6v6h-.25v.24h-.24v.25h-.25v.25h-.25v.25h-.25v.24h-.24v.25h-.25v.25h-.25v.24h-.24v.25h-.25v.25h-.25v.24h-.24v.25h-.25v.38h-.25v.24h-.24v.25h-.25v.25h-.25v.26h-.24v.24h-.25v.25h-.25v.25h-.25v.26h-.24v.25h-.25v.25h-.25v.24h-.24v.26h-.25v.25h-.25v.24h-.24v.25h-.25v.26h-.25v.25h-.25v.24h-.24v.25h-.25v.26h-.25v.24h-.24v.25z" fill="#13253e"/><path d="m487.64 160.52c0-14.36-10-24.38-24.3-24.38-7.24 0-13.35 2.65-17.54 7.17a2.83 2.83 0 0 0 -.24.25l-.25.24-.25.25c-.08.09-.17.16-.25.25l-.24.25-.25.24c-.08.09-.17.16-.25.25l-.24.25-.25.24c-.08.09-.17.16-.25.25l-.24.25-.25.24c-.08.09-.17.17-.25.25a2.83 2.83 0 0 0 -.24.25l-.25.24-.25.25c-.08.09-.17.16-.25.25l-.24.25-.25.24c-.08.09-.17.16-.25.25l-.24.25a19.33 19.33 0 0 0 -18.36-12.36 21 21 0 0 0 -10.69 2.5v-2.09h-21.19v.24h-.24v.21h-.25v.25h-.25v.25h-.24v.24h-.25v.26h-.25v.25h-.24v.24h-.25v.25h-.25v.26h-.25v.24h-.24v.25h-.25v.25h-.25v.26h-.24v.25h-.25v.25h-.25v.25h-.24v.25h-.25v.25h-.25v.25h-.25v.24h-.24v.26h-.2v.25h-.25v.24h-.24v.25h-.09c-3.46-4.3-8.92-6.58-16.17-6.58a28 28 0 0 0 -20.38 8.19l-.1.1-.15.15-.1.1-.15.15-.1.1-.14.14-.1.11a1 1 0 0 0 -.15.14l-.1.1-.15.15-.1.1-.15.14-.1.11-.14.14-.1.1-.15.15-.1.1-.15.15-.1.1-.14.14-.1.1-.15.15-.1.1-.15.15-.1.1-.14.14-.1.11a1 1 0 0 0 -.15.14l-.1.1-.15.15-.1.1s0 0-.05.05c-1.45-5.84-5.4-12.05-16.19-12.05a19.56 19.56 0 0 0 -7.19 1.54v-22.77h-20.26v.25h-.24v.25h-.25v.24h-.25v.25h-.24v.25h-.25v.24h-.25v.25h-.24v.25h-.25v.24h-.25v.25h-.25v.25h-.24v.25h-.25v.24h-.25v.25h-.24v.25h-.25v.24h-.25v.25h-.24v.25h-.25v.24h-.25v.25h-.25v.25h-.24v.25h-.25v.24h-.25v.25h-.24v.25h-.25v.24h-.2v.25h-.24v.25h-.25v.22a43.6 43.6 0 0 0 -21.3-5.51c-3.45 0-10.08.53-15.75 4.06a20.1 20.1 0 0 0 -3.78 3l-.24.25-.25.25-.25.24-.24.25a3 3 0 0 0 -.25.25l-.25.24-.24.25a3 3 0 0 0 -.25.25l-.25.24c-.08.09-.17.17-.25.25l-.24.25-.25.24c-.08.09-.17.17-.25.25l-.24.25c-.08.08-.17.16-.25.25l-.25.24-.24.25a3 3 0 0 0 -.25.25l-.25.24-.24.25-.25.25-.25.24c-.08.09-.17.17-.25.25l-.24.25c-.08.08-.17.16-.25.25l-.25.24-.24.25a3 3 0 0 0 -.25.25l-.25.24-.24.25a3 3 0 0 0 -.25.25l-.25.24-.24.25a3 3 0 0 0 -.25.25 17.89 17.89 0 0 0 -5.1 13c0 8.56 7 13.94 13.07 17.27l-8.79 8.71-.25.24-.24.25-.25.24-.25.24-.25.25-.25.25-.25.24-.25.24-.25.25-.25.24-.25.24-.24.25-.25.24-.25.24-.24.25-.25.25-.25.24-.25.25-.25.25-.25.24-.25.25-.25.25-.25.24-.25.24-.24.25-.25.24-.25.24-.25.25-.25.25-.25.24-.25.25-.25.25-.25.24-.25.24-.25.25 1.91 2c7.48 7.91 17.86 12.14 30 12.23 8 0 14.56-2.49 18.91-6.77a3 3 0 0 0 .25-.25l.25-.24.24-.25a3 3 0 0 0 .25-.25l.25-.24.24-.25.25-.25.25-.24c.08-.08.16-.17.25-.25l.24-.25.25-.25.25-.24.24-.25.25-.25.25-.24.24-.25c.09-.08.17-.17.25-.25l.25-.24.25-.25.24-.25.25-.24.25-.25.24-.25.25-.24.1-.11v11.82h20.21v-.24h.24v-.25h.25v-.25h.25v-.24h.24v-.25h.25v-.25h.25v-.24h.25v-.25h.24v-.25h.25v-.25h.25v-.24h.24v-.25h.25v-.25h.25v-.24h.24v-.25h.25v-.25h.25v-.24h.23v4.19h20.22v-.24h.25v-.25h.25v-.25h.28v-.24h.25v-.25h.24v-.25h.25v-.24h.26v-.25h.24v-.25h.25v-.25h.25v-.24h.26v-.25h.25v-.25h.25v-.1c2.74 2.41 6.62 3.72 11.45 3.72a19.11 19.11 0 0 0 8-1.46v1h21.15v-.24h.25v-.25h.25v-.25h.24v-.24h.25v-.25h.25v-.25h.24v-.24h.16v16.95h21.19v-.25h.24v-.24h.25v-.25h.25v-.26h.24v-.24h.25v-.25h.25v-.25h.25v-.26h.24v-.24h.25v-.25h.25v-.25h.24v-.26h.25v-.25h.25v-.25h.24v-.24h.25v-.26h.25v-.25h.24v-.24h.25v-.25h.25v-.26h.25v-.25h.24v-.24h.25v-.25h.25v-.26h.24v-.24h.25v-.25h.25v-.25h.24v-.24h.25v-.25h.25v-.25h.25v-.24h.24v-.25h.25v-.25h.25v-.25h.24v-.24h.25v-6.08h2.05a18.85 18.85 0 0 0 13.38-5.27l.25-.25c.08-.08.16-.17.25-.25l.24-.24c.09-.08.17-.17.25-.25l.25-.25.24-.24c.09-.08.17-.17.25-.25l.27-.21.24-.25.25-.24c.09-.08.17-.17.25-.25l.26-.26.24-.24.25-.25.25-.25.26-.26.25-.25c.08-.08.16-.17.25-.25l.24-.25a2.83 2.83 0 0 0 .26-.25c.09-.08.16-.17.25-.25l.24-.25.25-.24.26-.26c.08-.08.16-.17.25-.25l.24-.24c.09-.08.17-.17.25-.25l.26-.26.12-.12c4.09 7.58 12.05 12.39 21.84 12.39 8.37 0 14.73-2.38 20-7.49l2.18-2.1.25-.24.25-.25.25-.24.25-.24.25-.25.25-.24.25-.24.26-.24.25-.25.25-.24.25-.24.25-.25.25-.24.25-.24.25-.25.25-.24.25-.24.26-.24.25-.24.25-.24.26-.24.25-.25.25-.24.25-.24.25-.25.25-.24.25-.24.25-.25.25-.24.25-.24.26-.24.25-.25.25-.24.25-.24.25-.25-3.34-3v-.25h.25v-.25h.24v-.25h.25v-.43h.25v-.25h.24v-.25h.25v-.25h.25v-.25h.25v-.25h.24v-.25h.25v-.25h.25v-.25h.24v-.25h.25v-.25h.25v-.25h.24v-.25h.25v-.25h.25zm-200.74-15.72.24-.25.24-.25.23-.26.24-.26.24-.25.23-.26.23-.26.24-.25.23-.26 2.59-2.83v8.41a36.55 36.55 0 0 0 -5.05-3.12z" fill="#13253e"/><path d="m297.28 164.1c0 12.08-10 18.28-21.85 18.28-11.18-.09-20.88-3.84-28-11.34l10.28-10.12c3.34 2.61 9.14 8.32 16.31 8.32 4 .08 7.58-1.71 7.58-5.54 0-5.47-6.84-6.53-13.94-9.79-5.88-2.69-17.05-7.75-17.05-17.45 0-13.05 12.24-17.05 21.53-17.05 10.77 0 20.4 4.24 25.7 9.46l-9.06 9.87c-2.12-1.63-9.21-6.28-16.06-6.28.16 0-6.45-1-6.45 4.16 0 1.22-.48 3.35 8.89 6.69 13.97 4.97 22.12 10.11 22.12 20.79z" fill="#fff"/><path d="m327.52 181.4v-25c0-4.9-1.63-6.86-4.89-6.86-3.51 0-4.9 2-4.9 6.86v25h-14.51v-63.62h14.51v25.36c2.53-3.17 7.67-4.15 10-4.15 10.44 0 14.19 6.11 14.19 17.69l.08 24.72z" fill="#fff"/><path d="m385.9 157.42v24h-15.5v-4.57c-1.14 2-3.26 5-10.84 5-9.22 0-13.21-5.05-13.21-12.23 0-10.28 7.34-13.62 18.51-13.62h5.54c0-4.24-2.93-4.89-4.81-4.89a11.17 11.17 0 0 0 -7.18 2.93l-8.56-7.67a25.34 25.34 0 0 1 18.35-7.37c11.99 0 17.7 6.59 17.7 18.42zm-15.5 8.72h-3.17c-4.09 0-5.39.74-5.39 3.18 0 2.12 1.47 3.18 4 3.18 3.75 0 4.56-2.28 4.56-5.05z" fill="#fff"/><path d="m408.72 175.93v20.55h-15.49v-57.09h15.49v5.55c4.24-5.71 10.44-5.95 13.54-5.95 9.54 0 17.62 6.85 17.62 21.45 0 13.78-8.08 21.36-17.62 21.36-3.1 0-9.26-.16-13.54-5.87zm0-15.49c0 5.54 2.78 9.38 7.83 9.38s7.83-3.84 7.83-9.38-2.77-9.38-7.83-9.38-7.83 3.94-7.83 9.38z" fill="#fff"/><path d="m458.12 164.51c0 3.51 3.75 5.31 7.5 5.31 2.37 0 6-1 7.75-3.1l9.22 8.4c-5 4.81-10.85 6.68-18 6.68-13.78 0-22-10-22-21.86s7.7-20.94 20.75-20.94c13.38 0 21.45 9.21 21.45 21.53v4.4zm5.22-13.45c-3.26 0-5.3 1.79-5.3 5.3h11.26c0-3.18-2.53-5.3-5.96-5.3z" fill="#fff"/><path d="m12.71 127.59h9.75c-7.59-30.37 11.54-50.51 17.97-56.26l-.58-1.45c-.79-2-1.88-9 17.23-16.65a53.69 53.69 0 0 1 13.52-3.62 24.25 24.25 0 0 1 2.58-.15c5 0 7 2.09 7.79 3.89l.27.55v.1l1.83 4.52a13.48 13.48 0 0 1 4.32-.7 13.73 13.73 0 0 1 10.83 22.18 17 17 0 0 1 -3.5 7.32l1.55 3.83c.8 2 1.89 9.06-17.22 16.67-6 2.38-11.83 3.75-16 3.75-5.23 0-7.2-2.18-7.93-4l-.49-1.22a27.81 27.81 0 0 0 3 13.73l5.8 7.5h39.57c-2.6-7.88-1.43-13.63.25-17.29a18.41 18.41 0 0 1 4.12-5.75c-1.86-10.47-6.37-46.46 13.79-73.54 14.05-18.78 36.91-29.22 67.94-31h1.37c5.77 0 35.61 1 56.32 20.88 14.21 13.6 21.32 32.91 21.21 57.38.05 2.23.23 43.42-39.64 64.51 1 .12 1.92.28 2.87.47a31.8 31.8 0 0 1 10.87 4.32 25.78 25.78 0 0 1 4.46 3.64l1.76.94.35 1.57a21.38 21.38 0 0 1 1.77 2.8 18 18 0 0 1 1.28 3.11 10.13 10.13 0 0 1 .42 2.14v.12a5.8 5.8 0 0 1 0 1.17v.11.11a3.5 3.5 0 0 1 -.18.65 5.67 5.67 0 0 1 -.24.55 4.54 4.54 0 0 1 -.89 1.17 4.32 4.32 0 0 1 -2 1.06 4.43 4.43 0 0 1 -1 .11 4.25 4.25 0 0 1 -1-.13h-.1-.1a4.42 4.42 0 0 1 -1.45-.75l-.23-.16-.24-.27c-.22-.25-.38-.45-.52-.63s-.37-.25-.85-.51a13.11 13.11 0 0 0 -1.76-.75 19.88 19.88 0 0 0 -6.42-1.07c-.61 0-1.23 0-1.84.09a17.52 17.52 0 0 0 -2.74.49 121.91 121.91 0 0 1 12 15.6 66.69 66.69 0 0 1 6 11.55c2 5.18 2.78 9.56 2.43 13.8a18.36 18.36 0 0 1 -2.32 7.55 18.71 18.71 0 0 1 -5.17 5.79 32.64 32.64 0 0 1 -12.8 5.44 57.27 57.27 0 0 1 -12.44 1.37h-.67a51.61 51.61 0 0 1 -13.16-2c-8.48-2.39-15.88-6.68-23-10.83-3.52-2.07-6.51-3.79-9.5-5.37h-90.54a6.47 6.47 0 0 1 -5.18 2.61h-.34a9.07 9.07 0 0 1 -1.78-.31 2.14 2.14 0 0 0 -.27-.06l-1.45-.34c-.85-.19-1.74-.36-2.63-.52-1.82-.31-3.61-.54-5.34-.67-1-.08-2.05-.12-3-.12a28.28 28.28 0 0 0 -7.07.83 19.67 19.67 0 0 0 -2.17.75l-.11.05-1 .43c-.58.25-1.17.51-1.74.72a60.14 60.14 0 0 1 -5.82 1.93 75.5 75.5 0 0 1 -12 2.34 61.43 61.43 0 0 1 -6.7.38 46.74 46.74 0 0 1 -5.77-.34c-5.34-.71-9.48-2.29-12.69-4.85a16.28 16.28 0 0 1 -4.68-6 19.23 19.23 0 0 1 -1.64-7 22 22 0 0 1 3.82-13.35 36.3 36.3 0 0 1 9.05-9.18 54.21 54.21 0 0 1 6.85-4.32l-14.32-28.74a8.43 8.43 0 0 1 7.28-12.67z" fill="#13253e"/><path d="m83.92 63.61a8.72 8.72 0 0 1 11.47 4.56 8.7 8.7 0 0 1 -.2 7.24 10.53 10.53 0 0 0 -.8-2.24 13.58 13.58 0 0 0 -4.17-5.12c.55-.37 1.09-.76 1.61-1.18a34 34 0 0 0 -4 1.07c-1.22.41-2.45.83-3.63 1.35l-2-4.93z" fill="#fff"/><path d="m78.46 56.52 14.69 37.76-3.36 3.35-6.45 3.85-7.29 3.67-9.02 1.89h-6.94l-16.82-39.38 4.32-4.5 11.86-5.24 11.98-5.33z" fill="#fff"/><path d="m30.45 188.23s34.55-17.45 48.55 12.28a2.37 2.37 0 0 1 -2.76 3.28c-6.26-1.61-17.56-3.6-25.71.16-11.83 5.46-42.32 10.85-45.66-6.71s22.76-27.18 22.76-27.18l15.77-10.21 3.56 10.21s-1.05 16.58-16.51 18.17z" fill="url(#a)"/><path d="m137.41 202.39h45.19v-8.86h-46.66z" fill="#81a0a5"/><path d="m183.62 203h-47.07l-1.82-10.9h48.89zm-45.34-2h43.3v-6.81h-44.44z" fill="#13253e"/><path d="m140.18 193.13-28.37-58-1.69-4.13s-10.63-14.64 2.21-24.8c0 0-20.74-90.32 67.08-101.17 0 0 65.8-10.9 83 51.83 0 0 12.25 43-22.89 74.14l-26.22 14 5.9.29 9.44 1.65 10.23 3.29 7.35 3.92 1.87 8.2-5.88-3.35-8.3-1-9.43 2.47s38.31 41 17.25 53.65c0 0-17 9.37-44.66 0 0-.03-41.98-25.71-56.89-20.99z" fill="#bfced1"/><path d="m206.19 188.26s1.67-4.1 7.41-4.29c0 0-8-2.27-10.44 1.05z" fill="#fff"/><path d="m118.16 104.24s-12.17 5.85-6.35 30.91c0 0-14.81-26.09 6.35-30.91z" fill="#dfe6e8"/><path d="m129.15 186.69a80.18 80.18 0 0 1 42.85 2.81c23.12 8 34.5 31.94 69.71 24.59 0 0-8.58 9.87-38.19 3.31l-35.36-18.63s-19.09-7.63-28-5.64z" fill="#fff"/><path d="m68.69 93.16s12.45 4.33 24.46 1.12l-2.61-7.79s-12.31 7.38-21.85 6.67z" fill="#13253e" opacity=".3"/><path d="m64.35 135.07s-22.1-15.32-9.55-41.83l-7.8-17.6s-.28-2.8-3.84-.84c0 0-30.27 27.77-13.55 60.27z" fill="url(#b)"/><path d="m51.12 85.78s-22.7 20.33-3.25 49.29h16.48s-21.35-19.38-9.42-39.89z" fill="#fff"/><path d="m55.3 123.21-29.28-2.53 3.8 14.39 34.24-.73z" fill="#13253e" opacity=".2"/><path d="m47.87 69.84c3.52.08 9-1.13 14.94-3.48s10.74-5.25 13.24-7.73c-3.53-.09-9 1.13-14.94 3.47s-10.74 5.26-13.24 7.74z" fill="#13253e" opacity=".3"/><path d="m28.68 135.46c-15.97-39.46 15.88-63.29 16.2-63.52l1.21 1.65c-.31.23-30.87 23.16-15.51 61.1z" fill="#13253e"/><path d="m63.64 135.81c-22.76-22-9.84-42.91-9.7-43.12l1.72 1.1c-.5.8-12.12 19.75 9.4 40.55z" fill="#13253e"/><path d="m48.2 70.91c-2.8 0-4.49-.72-5.06-2.14-1.48-3.72 6.7-9.23 15.55-12.75a50.8 50.8 0 0 1 12.74-3.43c4.15-.44 6.61.23 7.32 2s-.62 4-3.94 6.49a51.18 51.18 0 0 1 -11.61 6.27 51.23 51.23 0 0 1 -12.74 3.43c-.82.08-1.58.13-2.26.13zm25.46-16.4a19.81 19.81 0 0 0 -2 .11 48.66 48.66 0 0 0 -12.19 3.3c-10.31 4.08-14.94 8.81-14.47 10.08.17.43 1.48 1.13 5.2.73a48.77 48.77 0 0 0 12.2-3.29 49 49 0 0 0 11.13-6c3-2.27 3.45-3.68 3.28-4.11s-.95-.82-3.15-.82z" fill="#13253e"/><path d="m63.54 108.59c-2.65 0-4.56-.63-5.15-2.12l-15.25-37.7 1.86-.77 15.25 37.7c.51 1.28 7.11 1.54 17.4-2.56s14.95-8.81 14.45-10.08l-15.25-37.7 1.9-.77 15.25 37.7c1.49 3.73-6.7 9.24-15.54 12.76-5.32 2.11-10.95 3.54-14.92 3.54z" fill="#13253e"/><path d="m69.37 72.12a3.46 3.46 0 0 0 -3.61 3s0 0 0 0a3.46 3.46 0 0 0 -4.71.19c-1.32 1.37-1.35 3.57.79 5.32 1.48 1.22 3.48 1.81 6.93 2.84a.39.39 0 0 0 .42-.17c1.86-3.09 2.94-4.87 3.22-6.76.36-2.69-1.15-4.3-3.04-4.42z" fill="#ed727e"/><path d="m85.28 71s-2.48 12.8-16.85 19.91a1.4 1.4 0 0 0 .69 2.65c6.06-.18 15-1.45 21.85-6.67 0 0 11-10.26-.59-19.12" fill="url(#c)"/><path d="m68.26 91.86s24-6.67 21.65-23l-2 .59-2.43.59-.4 2.9-3 6.21-8.13 8.23s-8.25 4.21-5.69 4.48z" fill="#fff"/><path d="m68.65 94.18a2.4 2.4 0 0 1 -2.36-1.85 2.36 2.36 0 0 1 1.26-2.74 31.49 31.49 0 0 0 16.66-19.5l2 .43c-.12.55-3.11 13.67-17.75 20.9a.34.34 0 0 0 -.19.41c0 .12.08.28.39.3 6.09-.18 14.72-1.44 21.26-6.45s4.15-3.68 4-8.34c-.09-2.87-1.79-5.57-5-8l1.24-1.63c3.77 2.87 5.74 6.11 5.86 9.62.18 5.65-4.54 9.81-4.75 10-7 5.37-16.1 6.72-22.48 6.91z" fill="#13253e"/><path d="m84.47 69.37a39.41 39.41 0 0 1 3.85-1.43 33.45 33.45 0 0 1 4-1.07 36.56 36.56 0 0 1 -3.42 2.36 40.85 40.85 0 0 1 -3.59 2z" fill="#13253e"/><path d="m224.69 161.81-.26.53c0-.61 0-1 0-1s-12 6.34-15.51 6.31-10.67-.41-10.67-.41l-9.06-3.38-12-16.39s7.89 29.36 28.07 29.63c6.75.09 11.13-1.65 14-4s29 25.78 16.3 42.77c-.06.02 28.87-9.95-10.87-54.06z" fill="#809fa4" opacity=".3"/><path d="m134.15 179.59s-12.4-23.51-9.41-56.95c0 0-7.54 17.77 1.71 42.43z" fill="#dfe6e8"/><path d="m157.71 171.18s-11.43-18.07-10.91-47.12c-1.34.9-3.92 33.72 2.62 44.38z" fill="#dfe6e8"/><path d="m123.73 152.28s7.4 12.79 23.31 3.6c0 0 11.09 9.19 23.61 1l4.95 16.12-19.15-1.83-7-1.51-17.45 5.87-5.51-10.46z" fill="#809fa4" opacity=".6"/><path d="m182.6 172.82a131.9 131.9 0 0 1 -14-28.73 167.68 167.68 0 0 0 5.84 27.9z" fill="#dfe6e8"/><path d="m202.17 4.81s-95.71 0-88.93 96.67c0 0-16-52 27-82.66-.03 0 29.67-18.46 61.93-14.01z" fill="#dfe6e8"/><path d="m255.7 39.86s23.85 68.14-50.35 91.14l-.13 2.64 2.35 7.33 4.61 3.57 7-.42 5-3.15 13.72-8.73 12.1-10.74 12.62-25.5 1.89-13.26-1.12-20.43z" fill="#809fa4" opacity=".5"/><path d="m124.73 122.64a38.34 38.34 0 0 0 -2.2 10.94 64.74 64.74 0 0 0 .25 11.14l.32 2.76.46 2.74c.26 1.84.75 3.63 1.13 5.44s1 3.58 1.45 5.36l1.74 5.27-3.26 1-1.37-5.55c-.35-1.87-.77-3.72-1.07-5.6s-.6-3.76-.73-5.66l-.26-2.83-.11-2.85a66.13 66.13 0 0 1 .6-11.34 39.13 39.13 0 0 1 3.05-10.82z" fill="#13253e"/><path d="m213.62 146-.62-2c51.67-16.92 50.51-65.21 50.49-65.7.09-23.09-6.53-41.17-19.66-53.78-21.55-20.66-53.63-19.52-53.95-19.46-29.45 1.67-51 11.42-64.16 29-22 29.5-12.49 71.49-12.39 71.91l.17.74-.66.38c-.46.27-11.14 6.79-2.35 24.08l3.7 8.83-1.89.79-3.67-8.79c-5-9.82-3.91-16.55-2.12-20.45a15.26 15.26 0 0 1 4.67-5.84c-1.18-5.71-8.13-44.71 12.89-72.88 13.5-18.08 35.6-28.11 65.71-29.83.32 0 33.27-1.25 55.44 20 13.56 13 20.39 31.6 20.31 55.24.01.51 1.22 50.33-51.91 67.76z" fill="#13253e"/><path d="m147.15 123.17a58.17 58.17 0 0 0 -1.57 12 85.62 85.62 0 0 0 .43 12 93.39 93.39 0 0 0 2.1 11.78c.41 1.94 1.06 3.83 1.59 5.75s1.28 3.76 1.92 5.64l-3.23 1.08c-.52-2-1.11-4-1.57-5.94s-.93-4-1.21-6a95.73 95.73 0 0 1 -1.3-12.16 87 87 0 0 1 .42-12.19 58.39 58.39 0 0 1 2.42-11.96z" fill="#13253e"/><circle cx="126.93" cy="97.77" fill="#13253e" r="7.09"/><circle cx="125.17" cy="96.03" fill="#fff" r="1.98"/><circle cx="192.93" cy="105.2" fill="#13253e" r="7.09"/><circle cx="191.18" cy="103.46" fill="#fff" r="1.98"/><ellipse cx="240.5" cy="71.42" fill="#dfe6e8" rx="8.87" ry="14.52"/><ellipse cx="236.98" cy="41.62" fill="#dfe6e8" rx="4.73" ry="7.75"/><ellipse cx="224.06" cy="54.26" fill="#dfe6e8" opacity=".4" rx="4.73" ry="7.75"/><circle cx="143.89" cy="111.34" fill="#baccd3" opacity=".3" r="1.55"/><circle cx="151.18" cy="104.76" fill="#baccd3" opacity=".3" r="1.55"/><circle cx="157.65" cy="111.34" fill="#baccd3" opacity=".3" r="1.55"/><circle cx="164.14" cy="104.76" fill="#baccd3" opacity=".3" r="1.55"/><circle cx="170.6" cy="111.34" fill="#baccd3" opacity=".3" r="1.55"/><path d="m221.44 142.92s-2.48 2.07.95 2.36h-5.39l-1-.53z" fill="#13253e"/><path d="m168.18 147.49c2.66 8.57 5.82 16.95 9.3 25.17l-3.22 1.13c-2.44-8.69-4.52-17.46-6.08-26.3z" fill="#13253e"/><path d="m225.1 161.11a124.51 124.51 0 0 1 15.45 19.19 63.35 63.35 0 0 1 5.77 11 28.36 28.36 0 0 1 2.24 12.46 15.52 15.52 0 0 1 -1.93 6.29 15.76 15.76 0 0 1 -4.36 4.89 30.17 30.17 0 0 1 -11.66 4.92 54.07 54.07 0 0 1 -12.43 1.3 48.92 48.92 0 0 1 -12.38-1.85c-8.08-2.27-15.32-6.46-22.35-10.53s-14-8.15-21.59-10.82a67.33 67.33 0 0 0 -23.54-3.96 96.77 96.77 0 0 0 -23.81 3.48l-.66-2.31a1.11 1.11 0 0 0 -.76.68v-.12l.09-.22.18-.43.37-.84c.27-.55.54-1.1.82-1.63.58-1.08 1.2-2.12 1.85-3.14a44.92 44.92 0 0 1 4.45-5.74 42.22 42.22 0 0 1 11.51-8.79 43.16 43.16 0 0 1 6.7-2.81c.57-.2 1.18-.35 1.76-.53.32-.09.55-.17.93-.26l.9-.16c1.19-.21 2.37-.38 3.55-.54a100.44 100.44 0 0 1 14.29-.79 77.43 77.43 0 0 1 28.1 5.3c8.89 3.6 16.92 9.87 21.7 18.09a57.19 57.19 0 0 0 -10.39-9.24 59.05 59.05 0 0 0 -12.23-6.38c-8.6-3.37-17.91-4.67-27.17-4.92a105.94 105.94 0 0 0 -13.91.64c-1.15.13-2.3.29-3.44.47l-.84.14c-.19 0-.52.14-.77.21-.54.16-1.08.28-1.63.47a41 41 0 0 0 -6.34 2.56 39.33 39.33 0 0 0 -10.87 8.22 40 40 0 0 0 -4.23 5.39c-.63.95-1.21 1.94-1.74 2.94-.27.51-.52 1-.76 1.53l-.34.77-.16.39-.07.19v.09a1.32 1.32 0 0 1 -.79.78l-.67-2.31a98.63 98.63 0 0 1 24.42-3.68 69.73 69.73 0 0 1 24.44 4c7.84 2.74 15.06 6.85 22.08 10.95s14 8.18 21.7 10.36a46 46 0 0 0 11.71 1.8 50.66 50.66 0 0 0 11.83-1.19 27.78 27.78 0 0 0 10.66-4.42 13 13 0 0 0 5.38-9.44 26 26 0 0 0 -2-11.39 63.43 63.43 0 0 0 -5.49-10.64 121.64 121.64 0 0 0 -15-19z" fill="#13253e"/><ellipse cx="190.07" cy="121.5" fill="#dfe6e8" rx="9.95" ry="4.09"/><ellipse cx="120.28" cy="114.18" fill="#dfe6e8" rx="9.95" ry="4.09"/><path d="m247.58 160.5s-8.67-12.19-27.11-5.58c0 0-15.29 5.84-28.36 1.73-18-5.66-17.17-19.89-17.17-19.89l3.17 13.24s2.78 11.1 16.22 16.45c0 0 13.17 4.72 30.9-4.68 0 0 10.57-6.86 20.38-1.34 0 .04 3.39 2.33 1.97.07z" fill="#d5dfe2"/><path d="m174.8 133.38a50.09 50.09 0 0 0 1.73 10 40.81 40.81 0 0 0 3.76 9.25 29.12 29.12 0 0 0 6.16 7.65 25.83 25.83 0 0 0 8.43 4.89c.78.26 1.55.54 2.36.73l1.2.31c.37.09.76.15 1.16.21a29.47 29.47 0 0 0 4.89.2 36.56 36.56 0 0 0 9.71-1.78 43.52 43.52 0 0 0 9-4.11 26.18 26.18 0 0 1 4.78-2.34 23.66 23.66 0 0 1 5.24-1.18 25.34 25.34 0 0 1 10.58 1.18 17.26 17.26 0 0 1 2.52 1.06 8.38 8.38 0 0 1 2.43 1.75c.14.14.58.76.27.39a1.05 1.05 0 0 0 -.44-.23 1.24 1.24 0 0 0 -.55 0 1.11 1.11 0 0 0 -.52.27 1.34 1.34 0 0 0 -.24.29l-.06.14a.93.93 0 0 0 0 .13 4.26 4.26 0 0 0 -.2-1 12.08 12.08 0 0 0 -.87-2.13 18.74 18.74 0 0 0 -6.44-7 26.82 26.82 0 0 0 -9-3.62 38.06 38.06 0 0 0 -4.9-.72c-1.64-.14-3.29-.14-5.07-.24a23.62 23.62 0 0 1 -10.25-2.73 12.23 12.23 0 0 1 -4-3.74 12.05 12.05 0 0 1 -1.94-5.12 15.8 15.8 0 0 1 2.16-10.17 28.61 28.61 0 0 0 -.3 9.86 10.3 10.3 0 0 0 5.1 7.42 21.48 21.48 0 0 0 9.34 2.31c1.62.07 3.38.05 5.12.18a41.6 41.6 0 0 1 5.2.69 28.93 28.93 0 0 1 9.84 3.9 21.16 21.16 0 0 1 7.31 7.83 14.6 14.6 0 0 1 1.06 2.57 7 7 0 0 1 .31 1.52 2.65 2.65 0 0 1 0 .61 2.83 2.83 0 0 1 -.08.29l-.09.21a1.61 1.61 0 0 1 -.28.36 1.44 1.44 0 0 1 -.59.31 1.29 1.29 0 0 1 -.63 0 1.45 1.45 0 0 1 -.58-.31c-.6-.68-.34-.47-.5-.62a6.88 6.88 0 0 0 -1.71-1.18 15.7 15.7 0 0 0 -2.18-.93 22.66 22.66 0 0 0 -9.53-1.14 21 21 0 0 0 -4.7 1 23.41 23.41 0 0 0 -4.38 2.1 45.81 45.81 0 0 1 -9.53 4.27 38.74 38.74 0 0 1 -10.31 1.81 30.23 30.23 0 0 1 -5.28-.25c-.44-.07-.89-.14-1.35-.26l-1.27-.34a24.21 24.21 0 0 1 -2.51-.79 27.53 27.53 0 0 1 -9-5.37 28.89 28.89 0 0 1 -6.32-8.35 39.78 39.78 0 0 1 -4.06-20.04z" fill="#13253e"/><path d="m181.82 15.47s-33.6 14.4-26.75 46.81c0 0 4.51-33.82 26.75-46.81z" fill="#d5dfe2"/><path d="m179.41 16.13a48.56 48.56 0 0 0 -5.41 3.79c-.89.65-1.7 1.4-2.55 2.09s-1.6 1.5-2.4 2.24a52.55 52.55 0 0 0 -8.05 10.24 50.36 50.36 0 0 0 -3 5.79 50 50 0 0 0 -2.06 6.2 54.26 54.26 0 0 0 -1.65 13.05c-.08-1.1-.14-2.21-.19-3.32a21.78 21.78 0 0 1 0-3.33l.28-3.34a31.09 31.09 0 0 1 .59-3.29 39.62 39.62 0 0 1 1.88-6.45 46.25 46.25 0 0 1 3-6 45.5 45.5 0 0 1 19.62-17.66z" fill="#13253e"/><path d="m111.16 105.67a14.06 14.06 0 0 1 7-1.43s-5.3 1.92-8.27 5.64z" fill="#13253e"/><path d="m146.7 164.46s.47 5.76-3.63 6.72l5.33-.59v-1.16z" fill="#13253e"/><path d="m149.85 165.07a7.34 7.34 0 0 0 7 4.82l-5.73.33z" fill="#13253e"/><path d="m228 160.84a2.53 2.53 0 0 0 -.87 3.68l-1.72-.94v-3z" fill="#13253e"/><path d="m16.43 176.33 14.02 11.9 4.32-1.24-7.41-17.47z" fill="#baccd3" opacity=".3"/><path d="m144.59 202h-96.28l-35-70.37h91.63a7.5 7.5 0 0 1 6.72 4.16z" fill="#81a0a5"/><path d="m146.24 203h-98.56l-36-72.42h91.48a11.39 11.39 0 0 1 10.24 6.35zm-97.24-2h94l-31.4-63.11a9.36 9.36 0 0 0 -8.41-5.21h-88.19z" fill="#13253e"/><path d="m137.41 202h-96.27l-32.31-64.94a3.77 3.77 0 0 1 3.37-5.44h85.31a7.88 7.88 0 0 1 7.07 4.38z" fill="#c5d2d5"/><path d="m139.06 203h-98.56l-31.88-64.08a5.76 5.76 0 0 1 5.15-8.33h82.85a10.32 10.32 0 0 1 9.28 5.75zm-97.29-2h94l-31.7-63.71a8.26 8.26 0 0 0 -7.44-4.61h-82.86a3.72 3.72 0 0 0 -3.32 5.32z" fill="#13253e"/><path d="m64.75 145.8-7.17 1.29-3.11 2.17-.98 4.89 2.71 7.67 2.89 4.06.81 5.36.81 1.6 1.25-.03.98 1.94-1.11.82-.49 1.49 2.29 3.59 1.37 3.12 1.39.35 3.39-.76.58-1.7.84-5.59 3.35 6.19 3.19 1.65 2.24-.88-.89-4.22 1.72-.37-.65-3.08-1.08-1.33-1.84.24-.33-1.54 1.08-.64 1.06-.34-.42-2.01-1.66-3.4-.01-10.15-2.83-7.5z" fill="#fff"/><path d="m77.1 154a13.37 13.37 0 0 0 -3-5.31 11.6 11.6 0 0 0 -4.87-3.08 17.48 17.48 0 0 0 -7-.67c-5.09.42-8.2 2.25-9.27 5.43-1.82 5.63 3.59 13.63 5.84 16.57a7.7 7.7 0 0 1 -.08 1.45 7.49 7.49 0 0 0 1.12 4.61 2.34 2.34 0 0 0 1.31.94 1.58 1.58 0 0 0 1.1-.09c0 .12 0 .27.08.43a1.42 1.42 0 0 0 -1 .37 2.7 2.7 0 0 0 -.69 1.82 5.08 5.08 0 0 0 .36 2.11 4.1 4.1 0 0 0 2.39 2.35 4.44 4.44 0 0 0 6.2 3.88 4.3 4.3 0 0 0 1.92-3.52 11.74 11.74 0 0 0 -.15-3.12 14 14 0 0 0 1.57 3 7.37 7.37 0 0 0 3.8 3.05 4.28 4.28 0 0 0 1.65.2 3 3 0 0 0 2.34-1.42 3.16 3.16 0 0 0 -.16-3.57 2.55 2.55 0 0 0 .92-2.58 5.48 5.48 0 0 0 -.79-2.07 4.37 4.37 0 0 0 -1.69-1.62 1.91 1.91 0 0 0 -1.16-.2c-.06-.16-.11-.3-.16-.42a1.58 1.58 0 0 0 1.1-.09 1.37 1.37 0 0 0 .75-1.11 7.71 7.71 0 0 0 -1.42-4.56 10.13 10.13 0 0 1 -.68-1.07 30.89 30.89 0 0 0 .46-6.26 21.13 21.13 0 0 0 -.79-5.45zm-1.28 11.7a13.62 13.62 0 0 0 1.11 1.82c.88 1.19 1.31 3.39 1 3.55s-.88-2-2.23-3.45a5.88 5.88 0 0 1 -.52-.6c.57 1.27 1.23 3.12.88 4.25-.41 1.4 2.2 5.59 2.64 5.62.61 0-.75-2.69-.14-2.39.89.45 2.21 3.05.75 3.76s-5.26-3.38-5.36-6.82c.07-1.4-1.51-4.19-2.06-5.33a27.21 27.21 0 0 1 2.11 7.89c.62 5.34 2.82 7.06 3.3 6.8.67-.36-.14-1.62-.2-1.84.17-.65 3.53 1.07 2.24 3.08-1.11 1.82-5.6 1.08-7.48-7.43a17 17 0 0 0 -3.35-6.93 12.66 12.66 0 0 0 .46 7.17c2.8 8.44-.91 9.85-3 8.3-2.32-1.71-.17-3.89.35-3.29 0 0-.09 1.56.75 1.79.6.17 1.81-1.6-.47-6.8a25.61 25.61 0 0 1 -2.25-8.13c.06 1.18 0 4.11.82 5.44 1.76 3.29.25 7.77-1.37 7.37-1.78-.44-1.91-3.14-1.31-3.71.41-.39.59 2.43 1.16 2.3.4-.1.62-4.52-.52-5.79a7.88 7.88 0 0 1 -1.46-4.21 4.55 4.55 0 0 1 -.17.66c-.49 1.64.12 3.75-.27 3.65s-1.18-2.26-1-3.54a11.25 11.25 0 0 0 .05-2.25c-2.15-2.77-14-18.84 2.36-20.2 17.21-1.44 13.5 17.75 13.18 19.26zm-15.82-2.23a1.31 1.31 0 0 1 1.15-1.74 2.06 2.06 0 0 1 2 1.48 1.31 1.31 0 0 1 -1.15 1.79 2.06 2.06 0 0 1 -2-1.53zm13.27.53a1.31 1.31 0 0 0 1.15-1.74 2.06 2.06 0 0 0 -2-1.47 1.3 1.3 0 0 0 -1.15 1.74 2.05 2.05 0 0 0 2 1.47z" fill="#13253e"/><path d="m23.39 173s2.06-.63 3.3 1.92v-.38l-.47-2.89-2.06-.27z" fill="#13253e"/><path d="m141.97 194.15h-4.6l5.54 6.81h4.02z" fill="#81a0a5"/><path d="m172.64 167.73a2.47 2.47 0 0 1 -2.8 2.7l3.5 1.14.48-.39z" fill="#13253e"/><path d="m201.23 184a7.42 7.42 0 0 1 1.77-1 10.77 10.77 0 0 1 1.77-.52 12.47 12.47 0 0 1 3.54-.18 15.42 15.42 0 0 1 3.34.74c.54.18 1 .41 1.56.62l1.49.74-1.59-.42c-.55-.09-1.07-.21-1.61-.27a13.56 13.56 0 0 0 -3.18 0 10.58 10.58 0 0 0 -2.95.76 8 8 0 0 0 -1.29.7 4.79 4.79 0 0 0 -1 .82z" fill="#13253e"/><path d="m58.28 185.49s18.94 3.32 25.53 15.58h-10.36z" fill="#baccd3" opacity=".3"/><path d="m51.31 183.97-9.99.69-18.6 5.97 10.22 18.61 10.47-2.81 9.51-4.08 12.18.6 8.28 1.58 1.98-.35 1.03-2.14-4.41-8.47-6.51-5.22z" fill="#c5d2d4"/><path d="m78.88 201.11s-18.3-11.47-37.06-3-34.58 8.25-37-.12c0 0 2.72 19.07 37.38 8.85 0 0 17.24-8.08 33.9-2.32z" fill="#fdfdfd"/><path d="m21.48 191.68c6.62-4.16 14.33-6.16 22.05-7.2a47.86 47.86 0 0 1 11.78-.11 33.9 33.9 0 0 1 11.39 3.31 29.15 29.15 0 0 1 9.32 7.4 33.5 33.5 0 0 1 3.38 4.92l.37.64a4.1 4.1 0 0 1 .36 1 3.25 3.25 0 0 1 -.27 2 3.5 3.5 0 0 1 -3.3 2 10.3 10.3 0 0 1 -1.56-.34l-1.43-.3c-.93-.2-1.86-.39-2.79-.55a56.6 56.6 0 0 0 -5.63-.71 34.2 34.2 0 0 0 -11.12.81 20.85 20.85 0 0 0 -2.59.9c-.83.34-1.79.8-2.69 1.13a58.79 58.79 0 0 1 -5.58 1.85 73.39 73.39 0 0 1 -11.49 2.25 50.82 50.82 0 0 1 -11.76 0c-3.9-.51-7.93-1.61-11.2-4.22a13.39 13.39 0 0 1 -3.82-4.87 16.44 16.44 0 0 1 -1.37-6 19 19 0 0 1 3.32-11.51 33.38 33.38 0 0 1 8.33-8.43 51.78 51.78 0 0 1 10.26-5.81l.75 1.9a49.74 49.74 0 0 0 -9.8 5.56 31.59 31.59 0 0 0 -7.83 7.9 16.86 16.86 0 0 0 -3 10.29 14.16 14.16 0 0 0 1.18 5.22 11.38 11.38 0 0 0 3.26 4.18c2.79 2.25 6.48 3.3 10.17 3.78a48.93 48.93 0 0 0 11.28 0 70.55 70.55 0 0 0 11.16-2.18c1.82-.51 3.63-1.1 5.38-1.78.9-.34 1.68-.72 2.64-1.11a22.9 22.9 0 0 1 2.85-1 36 36 0 0 1 11.81-.88c2 .15 3.9.4 5.83.73q1.44.26 2.88.57l1.42.33a10.3 10.3 0 0 0 1.22.27 1.48 1.48 0 0 0 1.36-.83 1.23 1.23 0 0 0 .11-.77 2 2 0 0 0 -.14-.38l-.35-.61a31 31 0 0 0 -3.21-4.57 26.87 26.87 0 0 0 -8.68-6.81c-6.69-3.33-14.49-3.83-22-3.07a76.53 76.53 0 0 0 -11.19 2.09c-3.66.89-7.32 1.94-11.06 3.01z" fill="#13253e"/><path d="m207.87 139.46s5 5.4 11.33 2.23l-5.67 3.45-4.53-2.84z" fill="#13253e"/><path d="m42.83 74.77 6.52 9.17-4.16-12.24z" fill="#13253e"/><path d="m243.75 153.33 3.14 3.13v-2.63z" fill="#13253e"/><path d="m373.53 201.1h-52.45l19.54-7.69z" fill="#13253e"/><g fill="#ed727e"><path d="m272.1 29.37h-9v-12h8.69v2.53h-5.59v2h4.57v2.58h-4.58v2.33h5.86z"/><path d="m278.71 29.39.05-.07v-3.22c0-1.66-.06-2.68-1.3-2.69s-1.3 1-1.3 2.68v3.29h-3.05v-8.26h3.05v1.27a2.55 2.55 0 0 1 2.33-1.39 2.22 2.22 0 0 1 2.42 1.9 3.39 3.39 0 0 1 3.21-1.89 3 3 0 0 1 3.3 3.17v5.19h-3.05v-3.26c0-1.65.07-2.68-1.3-2.68-1.15 0-1.3 1-1.3 2.67v3.29z"/><path d="m297.76 25.29c0 2.87-1.59 4.21-3.47 4.21a3.09 3.09 0 0 1 -2.66-1.18v1.09h-3.05v-12.52h3v5.34a3.08 3.08 0 0 1 2.67-1.17c1.93.02 3.52 1.53 3.51 4.23zm-3.05 0c0-1.08-.54-1.85-1.53-1.85s-1.54.77-1.55 1.84.54 1.87 1.54 1.87 1.54-.79 1.54-1.87z"/><path d="m301.61 26.11c0 .69.74 1.05 1.47 1.05a2.16 2.16 0 0 0 1.53-.61l1.81 1.66a4.78 4.78 0 0 1 -3.55 1.31 4.14 4.14 0 0 1 -4.32-4.31 3.9 3.9 0 0 1 4.1-4.12 4 4 0 0 1 4.21 4.25v.87zm1-2.64a.94.94 0 0 0 -1 1h2.21a1.06 1.06 0 0 0 -1.18-1z"/><path d="m312.33 23.49c-1.36 0-1.68.88-1.69 3v3h-3.05v-8.31h3v1.35a1.81 1.81 0 0 1 2-1.43 1.64 1.64 0 0 1 1.29.57l-.31 2.33a1.74 1.74 0 0 0 -1.24-.51z"/><path d="m321.1 29.56a6.32 6.32 0 0 1 -6.38-6.11 6.31 6.31 0 0 1 6.4-6.09 5.59 5.59 0 0 1 5.1 3l-2.17 1.34a3.31 3.31 0 0 0 -6.23 1.75 3.22 3.22 0 0 0 3.33 3.55 3.32 3.32 0 0 0 2.85-1.75l2.17 1.37a5.75 5.75 0 0 1 -5.07 2.94z"/><path d="m335.53 25.4c0 2.89-2.13 4.19-4.41 4.18s-4.37-1.31-4.37-4.2a4.39 4.39 0 0 1 8.78 0zm-5.75 0c0 1 .26 1.83 1.35 1.83s1.35-.86 1.35-1.83-.24-1.86-1.34-1.86-1.35.87-1.36 1.85z"/><path d="m341.15 29.52v-4.92c0-1-.32-1.35-1-1.36s-1 .39-1 1.35v4.93h-2.85v-8.26h2.85v.74a2.83 2.83 0 0 1 2-.81c2 0 2.78 1.21 2.77 3.49v4.86z"/><path d="m349.56 19.78c-.5 0-.9.35-.9 1.08v.41h1.91v2.37h-1.91v5.89h-3.05v-5.89h-.83v-2.37h.84v-.27c0-2.76 1.39-3.54 2.9-3.54a2.78 2.78 0 0 1 2.07.82v1.91a1.63 1.63 0 0 0 -1.03-.41z"/><path d="m364.87 27v2.56h-8.12v-1.48c0-2.07.73-2.76 2.92-4.15a3.75 3.75 0 0 0 2.12-3 .82.82 0 0 0 -.73-.9c-.2 0-1.13-.18-1.13 1.84l-3.1-.36a4 4 0 0 1 4.17-4.06 3.51 3.51 0 0 1 3.84 3.47 3.89 3.89 0 0 1 -1.69 3.4c-1.26 1-2.89 1.46-2.9 2.68z"/><path d="m370.64 29.67c-2.35 0-4.77-1.49-4.76-4.27v-3.69c0-2.76 2.43-4.25 4.77-4.24 2.52 0 4.72 1.31 4.78 4.26v3.69c-.04 2.78-2.43 4.25-4.79 4.25zm0-9.63a1.65 1.65 0 0 0 -1.64 1.68v3.66a1.68 1.68 0 1 0 3.35 0v-3.65a1.64 1.64 0 0 0 -1.69-1.73z"/><path d="m381.13 29.61h-3.08v-9.47h-1.62v-2.58h4.7z"/><path d="m382.17 21.94a4.25 4.25 0 0 1 4.57-4.44c2.73 0 4.5 1.78 4.5 4.19 0 2.76-2.61 6.17-3.82 7.93h-3.52l2.92-4.23a2.74 2.74 0 0 1 -1.77.54c-1.6-.01-2.88-1.61-2.88-3.99zm3.1-.27c0 1 .49 1.67 1.46 1.68s1.41-.63 1.41-1.67a1.44 1.44 0 1 0 -2.87 0z"/></g><path d="m399.71 216.18 19.57-19.56-15.49 6.76z" fill="#13253e"/></svg>