<svg xmlns="http://www.w3.org/2000/svg" xmlns:xlink="http://www.w3.org/1999/xlink" viewBox="0 0 490.4 224.17"><defs><style>.cls-1abcd654{isolation:isolate;}.cls-2abcd654{fill:#13253e;}.cls-3abcd654{fill:#fff;}.cls-4abcd654{fill:url(#linear-gradient);}.cls-5abcd654{fill:#81a0a5;}.cls-6abcd654{fill:#bfced1;}.cls-7abcd6543{fill:#dfe6e8;}.cls-8abcd6543{opacity:0.3;mix-blend-mode:multiply;}.cls-9abcd6543{fill:url(#linear-gradient-2);}.cls-1abcd6540{opacity:0.2;}.cls-1abcd6541{fill:#ed727e;}.cls-1abcd6542{fill:url(#linear-gradient-3);}.cls-1abcd6543{fill:#809fa4;}.cls-1abcd6544{opacity:0.6;}.cls-1abcd6545{opacity:0.5;}.cls-1abcd6546{opacity:0.4;}.cls-1abcd6547{fill:#baccd3;}.cls-1abcd6548{fill:#d5dfe2;}.cls-1abcd6549{fill:#c5d2d5;}.cls-2abcd6540{fill:#c5d2d4;}.cls-2abcd6541{fill:#fdfdfd;}</style><linearGradient id="linear-gradient" x1="42.88" y1="145.45" x2="42.55" y2="162.61" gradientUnits="userSpaceOnUse"><stop offset="0" stop-color="#c5d2d5"/><stop offset="1" stop-color="#c5d2d5"/></linearGradient><linearGradient id="linear-gradient-2" x1="111.84" y1="51.48" x2="31.43" y2="125.49" xlink:href="#linear-gradient"/><linearGradient id="linear-gradient-3" x1="107.78" y1="51.37" x2="83.07" y2="84.42" xlink:href="#linear-gradient"/></defs><title>ship-shape-ember-conf-sticker</title><g class="cls-1abcd654"><g id="Layer_1" data-name="Layer 1"><polygon class="cls-2abcd654" points="367.59 128.77 333.07 130.71 345.04 152.71 362.77 141.42 367.59 128.77"/><polygon class="cls-2abcd654" points="241.73 177.4 215.28 150.32 213.01 134.77 253.48 119.51 269.35 125.58 269.35 163.9 241.73 177.4"/><path class="cls-2abcd654" d="M367.59,143.85V128.77h-67.1v-8.29l-1.81,1.81c-4.87,4.8-12.21,7.46-20.63,7.46-12.9-.1-23.91-4.6-31.86-13l-3.6-3.81.2-.19h0l.51-.51h0l.49-.48.24-.24.51-.51h0l.49-.47h0l.75-.73h0l.25-.25.48-.48h0l.26-.26h0l.5-.49h0l.5-.49.24-.25.5-.49h0l.24-.25.24-.23h0l.51-.5.5-.49.25-.25.49-.49h0l.5-.49,1.8-1.77,6.42-6.32c-7.63-4.92-11.5-10.89-11.5-17.76a20.5,20.5,0,0,1,5.82-14.79l8.41-8.4a21.41,21.41,0,0,1,4.22-3.41c6.19-3.86,13.36-4.43,17.07-4.43a46.56,46.56,0,0,1,19.79,4.39v-.1h.24v-.25h.25v-.24H304V51h.24v-.25h.25v-.24h.25v-.25h.25V50h.24v-.24h.25v-.25h.25v-.25h.24V49h.25v-.24h.25v-.25h.24v-.25h.25V48h.25v-.25h.25v-.25h.24V47.3h.25v-.25h.25V46.8h.24v-.24h.25v-.25h.25v-.25h.24v-.25h25.21V67.62A21,21,0,0,1,339,67a24.61,24.61,0,0,1,6.38.79h0a11.57,11.57,0,0,1,3.85-8.6,2.83,2.83,0,0,1,.24-.25l.25-.25a2.61,2.61,0,0,1,.24-.23,1.34,1.34,0,0,1,.2-.21c.13-.14.21-.21.29-.29l.21-.21c.13-.13.2-.21.28-.28s.17-.18.26-.26l.25-.24a3,3,0,0,1,.25-.25,2.83,2.83,0,0,1,.24-.25l.24-.24.21-.21.28-.28.26-.26.25-.24a2.77,2.77,0,0,1,.24-.25l.25-.25.25-.25.2-.2c.12-.13.2-.2.28-.28l.26-.25a1.75,1.75,0,0,1,.23-.24l.21-.21c.13-.14.22-.22.3-.3a2.89,2.89,0,0,1,.25-.24,2.83,2.83,0,0,1,.24-.25c.08-.08.16-.17.25-.25l.2-.2.28-.28.21-.21a4.18,4.18,0,0,1,.3-.3l.25-.24a2.77,2.77,0,0,1,.24-.25,13,13,0,0,1,9.17-3.68c7.16,0,12.77,5.29,12.77,12a11.71,11.71,0,0,1-3.39,8.27h26.22v.76A25.7,25.7,0,0,1,410.61,67a22.06,22.06,0,0,1,15.51,6.13C431,77.9,433.57,85,433.57,93.82c0,8.52-2.82,15.91-7.94,20.8l-8.39,8.4a21.26,21.26,0,0,1-14.82,6.15v6h-.25v.25h-.25v.24h-.25V136h-.24v.25h-.25v.24h-.25v.25h-.24v.25h-.25v.25h-.25v.24H400v.25h-.25v.25h-.25v.24h-.24v.25H399v.25h-.25v.24h-.25v.25h-.24v.25H398v.24h-.25v.25h-.24v.25h-.25v.25H397v.24h-.24v.25h-.25v.25h-.25v.24H396v.25h-.24v.25h-.25v.24h-.25v.25H395v.25h-.25v.25h-.25v.24h-.24v.25H394v.25h-.25v.24Z"/><path class="cls-2abcd654" d="M359.74,151.7V136.61H292.65v-8.28l-1.81,1.8c-4.87,4.8-12.22,7.46-20.64,7.46-12.9-.1-23.9-4.6-31.86-13l-3.6-3.81.2-.2h0l.51-.5h0l.48-.48.25-.25.51-.5h0l.49-.48h0l.75-.74h0l.25-.25.49-.48h0l.26-.26h0l.5-.49h0l.5-.49.25-.24.5-.49h0l.25-.24.24-.24h0l.51-.51.49-.49.25-.24.5-.5h0l.5-.49,1.79-1.77,6.43-6.33c-7.63-4.92-11.5-10.88-11.5-17.75a20.48,20.48,0,0,1,5.82-14.8l8.4-8.4a22,22,0,0,1,4.22-3.4c6.2-3.86,13.36-4.44,17.08-4.44a46.56,46.56,0,0,1,19.78,4.4v-.11h.25v-.24h.25v-.25h.24v-.25h.25V58.6h.25v-.25h.24V58.1h.25v-.24h.25v-.25h.25v-.25h.24v-.25h.25v-.24h.25v-.25h.24v-.25h.25v-.24h.25v-.25h.24v-.25h.25v-.24h.25v-.25h.24v-.25h.25v-.24h.25V54.4h.25v-.25H301V53.9h.25v-.24H326.5V75.47a21,21,0,0,1,4.68-.6,24.13,24.13,0,0,1,6.38.79v0a11.62,11.62,0,0,1,3.85-8.6c.08-.08.16-.17.25-.25a2.89,2.89,0,0,1,.25-.24l.23-.24.21-.21.29-.28a2,2,0,0,1,.2-.21l.29-.29.26-.25a2.83,2.83,0,0,1,.24-.25l.25-.25.25-.25a2.5,2.5,0,0,1,.23-.23l.21-.21c.13-.14.21-.21.29-.29l.26-.25.24-.25.25-.25.25-.24a2.83,2.83,0,0,1,.24-.25l.2-.2.29-.29.25-.25.24-.24.21-.21.3-.29a2.77,2.77,0,0,1,.24-.25l.25-.25.25-.24a1.8,1.8,0,0,1,.19-.2l.29-.29.21-.21.29-.29.25-.25.25-.25A13,13,0,0,1,359,55c7.15,0,12.76,5.28,12.76,12a11.68,11.68,0,0,1-3.38,8.27h26.21V76a25.75,25.75,0,0,1,8.2-1.17A22,22,0,0,1,418.28,81c4.87,4.74,7.45,11.89,7.45,20.66,0,8.53-2.82,15.91-7.94,20.8l-8.4,8.4A21.15,21.15,0,0,1,394.57,137v6h-.25v.25h-.24v.25h-.25v.24h-.25V144h-.24v.25h-.25v.25h-.25v.24h-.24V145h-.25v.25h-.25v.24h-.25v.25h-.24V146h-.25v.24h-.25v.25h-.24v.25h-.25V147h-.25v.25h-.24v.25h-.25v.25h-.25V148h-.24v.25h-.25v.25h-.25v.24h-.25V149h-.24v.25h-.25v.24h-.25v.25h-.24V150h-.25v.25h-.25v.24h-.24v.25h-.25V151h-.25v.24h-.24v.25h-.25v.25Z"/><path class="cls-2abcd654" d="M373.53,216.18V201.1H350.7V201a25.8,25.8,0,0,1-5.5.53,21.28,21.28,0,0,1-10.29-2.38h-.14v.25h-.25v.24h-.24v.25H334v.25h-.24v.24h-.26v.25h-.25v.25h-.24v.25H283.52v-8.29l-1.81,1.81c-4.87,4.8-12.21,7.46-20.64,7.46-12.89-.1-23.89-4.6-31.85-13l-3.61-3.81.47-.45h0l.48-.47.52-.51h0l.25-.25h0l.48-.47h0l.48-.47h0l.75-.73h0l.26-.26.25-.24h0l.52-.5h0l.48-.47.51-.51h0l.24-.23h0l.49-.47h0l.53-.52h0l1-1h0l.25-.24h0l.51-.5h0l8.45-8.32c-7.63-4.93-11.5-10.89-11.5-17.76A20.5,20.5,0,0,1,236.75,136l8.34-8.34a22.64,22.64,0,0,1,4.28-3.47c6.2-3.86,13.36-4.43,17.08-4.43a46.59,46.59,0,0,1,19.79,4.39v-.1h.24v-.25h.25v-.24H287v-.25h.24v-.25h.25v-.24h.25v-.25H288v-.25h.25v-.24h.25v-.25h.24v-.25H289v-.25h.25v-.24h.25v-.25h.24v-.25h.25v-.24h.25v-.25h.24v-.25h.25v-.24h.25v-.25h.24v-.25h.25v-.24h.25v-.25h.25v-.25h.24v-.25h25.21V140a21,21,0,0,1,4.68-.6c8.36,0,14.25,3.42,17.25,10l1-1a30.47,30.47,0,0,1,22.17-9c6.32,0,11.6,1.67,15.48,4.85V144h.25v-.25h.25v-.25h.24v-.24H379V143h.25v-.25h.25v-.24h.24v-.25H380V142h.25v-.25h.24v-.24h.25v-.25h.25V141h.24v-.24h.25v-.25h.25v-.25h.25V140h.24v-.25h26.19v.76a25.7,25.7,0,0,1,8.19-1.17,21.58,21.58,0,0,1,19,10.64c.06-.07,2.57-2.58,2.65-2.65,4.78-5.16,11.66-8,19.39-8,15.78,0,26.8,11.05,26.8,26.88v9.83h-.25v.25h-.25v.24h-.24v.26h-.25v.25h-.25v.25h-.25v.26h-.24v.25h-.25V178h-.25v.25H482l2.67,2.43-.49.47h0l-.25.25h0l-.25.24-.24.24h0l-.51.49h0l-.6.59h0l-.14.14h0l-.25.24h0l-.25.24-.25.25h0l-.25.25h0l-.51.5h0l-.5.49h0l-.25.25h0l-.25.24-.36.35h0l-.39.38h0l-.62.59h0l-.14.13-.25.25h0l-.61.6h0l-.15.14h0l-.49.48h0l-.62.59h0l-.13.13h0l-4.11,4c-5.77,5.59-12.68,8.19-21.74,8.19-9.23,0-17.34-4-22.29-10.9l-.19.19-.24.23-.25.26-.24.23-.27.27-.22.23-.26.25-.25.26-.24.24-.26.25-.23.24L424,194.49l-.26.25c-.09.09-.16.17-.24.24l-.24.25-.24.23a21.2,21.2,0,0,1-14.69,6v6h-.25v.25h-.25V208h-.24v.25h-.25v.25h-.25v.24h-.24V209h-.25v.25h-.25v.24h-.24v.25h-.25V210h-.25v.25h-.25v.24h-.24v.25h-.25V211h-.25v.24h-.24v.25h-.25v.25h-.25V212h-.24v.25h-.25v.25h-.25v.25h-.24V213h-.25v.25h-.25v.25h-.25v.24h-.24V214h-.25v.25h-.25v.24h-.24v.25H401V215h-.25v.24h-.24v.25h-.25v.25H400v.25h-.24v.24Z"/><path class="cls-2abcd654" d="M373.3,138.14V123.05H306.2v-8.28l-1.81,1.81c-4.87,4.79-12.21,7.45-20.63,7.45-12.9-.09-23.9-4.59-31.86-13l-3.6-3.81.2-.19h0l.51-.5h0l.49-.48.24-.25.51-.5h0l.49-.48h0l.74-.73h0l.25-.24.48-.48h0l.26-.25h0l.5-.49h0l.5-.49.25-.25.49-.49h0l.25-.25.23-.23h0l.51-.5.49-.49.25-.25.49-.49h0l.49-.49,1.8-1.77,6.42-6.32c-7.63-4.92-11.49-10.89-11.49-17.76A20.46,20.46,0,0,1,259.44,58l8.4-8.41a21.37,21.37,0,0,1,4.22-3.4c6.19-3.86,13.36-4.44,17.08-4.44a46.56,46.56,0,0,1,19.78,4.4V46h.25v-.25h.24v-.25h.25v-.24h.25V45h.24v-.25h.25v-.24h.25V44.3h.24v-.25h.25v-.24h.25v-.25h.24v-.25h.25v-.24h.25v-.25h.25v-.25h.24v-.25h.25v-.24h.25v-.25h.24v-.25h.25v-.24h.25v-.25h.24v-.25h.25V40.6h.25v-.25h.25V40.1h25.2V61.91a21,21,0,0,1,4.69-.6,24.61,24.61,0,0,1,6.38.79h0a11.59,11.59,0,0,1,3.85-8.6,2.83,2.83,0,0,1,.24-.25l.25-.25.24-.24a2.08,2.08,0,0,1,.21-.21,3.63,3.63,0,0,1,.28-.28l.21-.21.29-.28a3.13,3.13,0,0,1,.25-.26l.25-.25a2.89,2.89,0,0,1,.25-.24,2.83,2.83,0,0,1,.24-.25l.24-.24.21-.21c.13-.13.2-.21.28-.28s.17-.18.26-.26.16-.17.25-.25l.25-.24.24-.25c.08-.08.16-.17.25-.25l.2-.2.28-.28.26-.26a1.75,1.75,0,0,1,.24-.23,2.18,2.18,0,0,1,.21-.22l.29-.29a2.89,2.89,0,0,1,.25-.24,2,2,0,0,1,.25-.25,2.77,2.77,0,0,1,.24-.25l.2-.2a3.46,3.46,0,0,1,.29-.28,1.34,1.34,0,0,1,.2-.21l.3-.3a2.89,2.89,0,0,1,.25-.24,2.83,2.83,0,0,1,.24-.25,13,13,0,0,1,9.17-3.68c7.16,0,12.77,5.29,12.77,12a11.74,11.74,0,0,1-3.38,8.27h26.21v.76a25.7,25.7,0,0,1,8.19-1.17,22,22,0,0,1,15.51,6.13c4.88,4.75,7.45,11.89,7.45,20.67,0,8.52-2.82,15.91-7.93,20.8l-8.4,8.4a21.24,21.24,0,0,1-14.82,6.15v6h-.25v.24h-.25V130h-.24v.25h-.25v.25h-.25v.24h-.24V131h-.25v.25h-.25v.24h-.25v.25h-.24V132h-.25v.24h-.25v.25h-.24v.25h-.25V133h-.25v.25h-.24v.25h-.25v.25h-.25v.24h-.24v.25h-.25v.25h-.25v.24h-.25v.25h-.24v.25h-.25v.25H402v.24h-.24v.25h-.25v.25h-.25v.24H401v.25h-.25v.25h-.25v.24h-.25v.25H400v.25h-.25v.24h-.25v.25Z"/><path class="cls-2abcd654" d="M436.78,88.11c0-17.94-11-24.3-20.46-24.3a21,21,0,0,0-10.69,2.5V64.22H384.44v.25h-.25v.24H384V65h-.25v.25h-.25v.24h-.24v.25H383V66h-.08V64.22h-7l.2-.21.24-.24c.09-.08.17-.17.25-.25s.16-.16.25-.25l.24-.24.25-.25.25-.25.24-.25a2.83,2.83,0,0,0,.25-.24l.25-.25.25-.25.24-.24.25-.25.25-.25.24-.24c.09-.08.17-.17.25-.25a9.29,9.29,0,0,0,3-6.87c0-5.34-4.51-9.53-10.27-9.53a10.62,10.62,0,0,0-7.47,3,3,3,0,0,0-.25.25c-.09.07-.16.16-.25.24l-.24.25a3,3,0,0,0-.25.25l-.25.24-.24.25-.25.25-.25.24c-.08.08-.16.17-.25.25l-.24.25-.25.24c-.09.08-.16.17-.25.25l-.24.25a3,3,0,0,0-.25.25l-.25.24-.24.25a3,3,0,0,0-.25.25l-.25.24-.24.25c-.09.08-.17.17-.25.25l-.25.24-.25.25-.24.25a3,3,0,0,0-.25.25c-.09.07-.16.16-.25.24l-.24.25-.25.25-.25.24-.24.25-.25.25-.25.24c-.08.08-.16.17-.25.25l-.24.25-.25.24a9.11,9.11,0,0,0-2,11,17.84,17.84,0,0,0-9.93-2.55,19.6,19.6,0,0,0-7.19,1.54V42.6h-20.2v.25h-.25v.25h-.25v.24h-.25v.25h-.24v.25h-.25v.24h-.25v.25h-.24v.25h-.25v.24h-.25v.25h-.24v.25h-.25v.25h-.25v.24h-.25v.25h-.24v.25h-.25v.24h-.25v.25h-.24v.25h-.25v.24h-.25v.25h-.24v.25h-.25V48h-.25v.25h-.24v.25h-.25v.25h-.25V49h-.25v.25h-.24v.25h-.25v.22a43.59,43.59,0,0,0-21.29-5.51c-3.46,0-10.09.53-15.76,4.06a19.72,19.72,0,0,0-3.77,3.05,3,3,0,0,0-.25.25c-.08.08-.17.16-.25.25l-.24.24c-.09.08-.17.17-.25.25s-.17.16-.25.25l-.25.24-.24.25c-.08.08-.17.16-.25.25l-.25.24-.24.25-.25.25-.25.24-.24.25-.25.25-.25.25-.25.24-.24.25c-.08.08-.17.16-.25.25l-.25.24-.24.25a3,3,0,0,0-.25.25l-.25.24-.24.25a3,3,0,0,0-.25.25c-.08.08-.17.16-.25.25l-.24.24-.25.25c-.08.08-.17.16-.25.25l-.25.24-.24.25c-.08.08-.17.16-.25.25l-.25.24-.24.25-.25.25a17.92,17.92,0,0,0-5.09,13c0,8.56,7,13.94,13.06,17.27l-8.74,8.59h0l-.25.25h0l-.25.25h0l-.25.24h0l-.25.24h0l-.25.25h0l-.25.24h0l-.25.24h0l-.24.25h0l-.25.25h0l-.25.24h0l-.25.25h0l-.25.25h0l-.25.24h0l-.25.24h0l-.25.25h0l-.25.24h0l-.25.24h0l-.25.25h0l-.25.24h0l-.25.24h0l-.24.25h0l-.25.25h0l-.25.24h0l-.25.24h0l-.25.25h0l-.25.24h0l-.25.24h0l-.25.25h0l-.25.24h0L253,106h0l-.24.25h0l-.25.25h0l-.25.24h0l-.24.25h0l-.25.25,1.91,2c7.48,7.91,17.87,12.14,30,12.23h0c8,0,14.56-2.49,18.91-6.77l.25-.25.25-.24c.08-.08.16-.17.25-.25l.24-.25.25-.24c.08-.08.16-.17.25-.25l.24-.25.25-.24.25-.25.24-.25.25-.24c.09-.08.16-.17.25-.25l.24-.25a3,3,0,0,0,.25-.25l.25-.24.25-.25.24-.25.25-.24c.08-.08.16-.17.25-.25l.24-.25.25-.24c.09-.08.16-.17.25-.25l.24-.25.25-.25.1-.09v11.81h20.21v-.24h.24v-.25h.25v-.25h.25v-.24h.25v-.25h.24v-.25h.25v-.24h.25v-.25h.24v-.25h.25v-.24h.25v-.25h.24v-.25h.25v-.25h.25v-.24h.25v-.25h.24v-.25h.25v-.24H333v4.19h41.24v-.24h.25v-.25h.24v-.25H375v-.24h.25v-.25h.24v-.25h.25v-.24h.08v16.81H397v-.25h.25v-.24h.25v-.25h.24v-.25H398v-.24h.25v-.25h.25v-.25h.24v-.24H399v-.25h.25v-.25h.24v-.24h.25v-.25H400v-.25h.24v-.25h.25v-.24h.25v-.25h.25v-.25h.24v-.24h.25V131h.25v-.25h.24v-.24h.25v-.25h.25V130h.24v-.25h.25v-.24h.25v-.25h.24V129h.25v-.24h.25v-.25h.25v-.25h.24V128h.25v-.25h.25v-.25h.24v-.25h.25V127h.25v-6.08c.81,0,1.51,0,2.05,0a18.84,18.84,0,0,0,13.54-5.46l.25-.25.25-.25.24-.24c.09-.08.17-.17.25-.25l.25-.25.24-.24c.09-.08.17-.17.25-.25l.25-.25.24-.25.25-.24.25-.25.25-.25.24-.24.25-.25c.08-.08.16-.17.25-.25l.24-.24.25-.25c.08-.08.16-.17.25-.25l.24-.25.25-.24.25-.25.25-.25.24-.24c.09-.08.17-.17.25-.25l.25-.25.24-.24c.09-.08.17-.17.25-.25l.25-.25.24-.24c.09-.08.17-.17.25-.25l.25-.25.24-.25.25-.24.25-.25C434.11,102.81,436.78,96.14,436.78,88.11ZM303.87,72.47h0l.23-.25h0l.24-.26h0l.23-.26h0l.23-.25h0l.24-.25h0l.24-.26h0l.23-.26h0l.24-.25h0l.24-.26h0l2.59-2.83v8.41a37.54,37.54,0,0,0-5.05-3.12Z"/><path class="cls-3abcd654" d="M314.25,91.77c0,12.08-10,18.28-21.85,18.28-11.18-.09-20.88-3.84-28-11.34L274.7,88.59c3.34,2.61,9.14,8.32,16.31,8.32,4,.08,7.59-1.71,7.59-5.54,0-5.47-6.85-6.53-14-9.79-5.87-2.69-17-7.75-17-17.45,0-13,12.24-17,21.54-17,10.76,0,20.39,4.24,25.69,9.46l-9.05,9.87c-2.12-1.63-9.22-6.28-16.07-6.28.16,0-6.45-1-6.45,4.16,0,1.22-.48,3.35,8.9,6.69C306.1,76,314.25,81.09,314.25,91.77Z"/><path class="cls-3abcd654" d="M344.49,109.07V84c0-4.89-1.63-6.86-4.89-6.86-3.51,0-4.89,2-4.89,6.86v25H320.19V45.45h14.52V70.82c2.52-3.18,7.66-4.16,10-4.16,10.44,0,14.19,6.11,14.19,17.69l.08,24.72Z"/><path class="cls-3abcd654" d="M364.7,109.07v-42H380v42Zm7.83-48.86c-4.08,0-7.42-2.93-7.42-6.77,0-3.67,3.34-6.68,7.42-6.68,4.24,0,7.42,3,7.42,6.68C380,57.28,376.77,60.21,372.53,60.21Z"/><path class="cls-3abcd654" d="M402.78,103.6v20.55H387.29V67.06h15.49v5.55c4.24-5.71,10.44-6,13.54-6,9.54,0,17.62,6.85,17.62,21.45,0,13.78-8.08,21.36-17.62,21.36C413.22,109.47,407,109.31,402.78,103.6Zm0-15.49c0,5.54,2.77,9.38,7.83,9.38s7.83-3.84,7.83-9.38-2.78-9.38-7.83-9.38S402.78,82.64,402.78,88.11Z"/><path class="cls-2abcd654" d="M379.24,210.47V195.38H356.42v-.12a26,26,0,0,1-5.51.53,21.28,21.28,0,0,1-10.29-2.38h-.14v.25h-.25v.24H340v.25h-.24v.25h-.25v.24h-.25v.25H339v.25h-.24v.24H289.23V187.1l-1.81,1.81c-4.87,4.79-12.21,7.45-20.63,7.45-12.9-.09-23.9-4.59-31.86-13l-3.61-3.81.47-.45h0l.49-.47.51-.51h0l.24-.25h0l.48-.48h0l.48-.47h0l.74-.73h0l.26-.26.25-.24h0l.51-.5h0l.48-.47.51-.51h0l.23-.23h0l.49-.47h0l.53-.52h0l1-1h0l.25-.25h0l.51-.51h0l8.45-8.32c-7.63-4.93-11.5-10.89-11.5-17.76a20.5,20.5,0,0,1,5.82-14.79L250.8,122a22,22,0,0,1,4.29-3.47c6.19-3.86,13.36-4.44,17.07-4.44a46.57,46.57,0,0,1,19.79,4.4v-.1h.24v-.25h.25v-.25h.25v-.24h.24v-.25h.25v-.25h.25v-.24h.25v-.25h.24v-.25h.25v-.24h.25v-.25h.24v-.25h.25v-.24h.25v-.25h.24v-.25h.25v-.25h.25v-.24h.25v-.25h.24v-.25h.25v-.24h.25v-.25h.24v-.25h.25v-.24h.25v-.25h.24v-.25h25.21v21.81a21,21,0,0,1,4.69-.6c8.36,0,14.24,3.42,17.24,10l1-1a30.51,30.51,0,0,1,22.17-8.94c6.32,0,11.6,1.66,15.49,4.85v-.24h.24V138h.25v-.25h.25v-.25h.24v-.24h.25V137h.25v-.25h.24v-.24h.25v-.25h.25V136h.25v-.24h.24v-.25h.25v-.25h.25V135h.24v-.24h.25v-.25h.25v-.25h.24v-.24h26.19v.76a25.7,25.7,0,0,1,8.19-1.17,21.58,21.58,0,0,1,19,10.64l2.65-2.65c4.79-5.16,11.66-8,19.39-8,15.78,0,26.8,11.05,26.8,26.88v9.83h-.25v.25h-.25v.24h-.24v.26h-.25v.25h-.25v.24h-.24v.26h-.25v.25h-.25v.25h-.24v.25h-.19L490.4,175l-.49.47h0l-.25.25h0l-.25.24-.24.24h0l-.51.49h0l-.6.59h0l-.14.13h0l-.25.24h0l-.25.24-.25.25h0l-.25.24h0l-.51.5h0l-.5.49h0l-.25.25h0l-.24.24-.37.35h0l-.39.37h0l-.61.6h0l-.13.13-.25.24h0l-.61.6h0l-.14.14h0l-.5.48h0l-.62.6h0l-.14.14h0l-4.11,4c-5.77,5.59-12.68,8.19-21.74,8.19-9.23,0-17.34-4-22.29-10.9l-.19.18-.23.24-.26.25a2.68,2.68,0,0,1-.24.24l-.27.27-.22.22-.26.26a2.94,2.94,0,0,1-.25.25l-.24.25-.26.25-.23.23-1.24,1.24-.25.26-.25.24-.24.25-.24.23a21.24,21.24,0,0,1-14.69,6v6h-.25v.24h-.24v.25h-.25v.25h-.25v.25h-.25v.24h-.24v.25h-.25v.25h-.25v.24h-.24v.25h-.25v.25h-.25v.24h-.24v.25h-.25V205h-.25v.24h-.24v.25h-.25v.25h-.25V206h-.24v.24h-.25v.25h-.25v.25h-.25V207h-.24v.25h-.25v.25h-.25v.24h-.24V208h-.25v.25h-.25v.24h-.24v.25h-.25V209h-.25v.25h-.25v.24h-.24v.25h-.25V210h-.25v.24h-.24v.25Z"/><path class="cls-2abcd654" d="M487.64,160.52c0-14.36-10-24.38-24.3-24.38-7.24,0-13.35,2.65-17.54,7.17a2.83,2.83,0,0,0-.24.25l-.25.24-.25.25c-.08.09-.17.16-.25.25l-.24.25-.25.24c-.08.09-.17.16-.25.25l-.24.25-.25.24c-.08.09-.17.16-.25.25l-.24.25-.25.24c-.08.09-.17.17-.25.25a2.83,2.83,0,0,0-.24.25l-.25.24-.25.25c-.08.09-.17.16-.25.25l-.24.25-.25.24c-.08.09-.17.16-.25.25l-.24.25h0a19.33,19.33,0,0,0-18.36-12.36,21,21,0,0,0-10.69,2.5v-2.09H390.38v.24h-.24V137h-.25v.25h-.25v.25h-.24v.24h-.25V138h-.25v.25h-.24v.24h-.25v.25h-.25V139h-.25v.24h-.24v.25h-.25v.25h-.25V140h-.24v.25h-.25v.25h-.25v.25h-.24V141h-.25v.25h-.25v.25h-.25v.24h-.24V142H385v.25h-.25v.24h-.24v.25h-.09c-3.46-4.3-8.92-6.58-16.17-6.58a28,28,0,0,0-20.38,8.19l-.1.1-.15.15-.1.1-.15.15-.1.1-.14.14-.1.11a1,1,0,0,0-.15.14l-.1.1-.15.15-.1.1-.15.14-.1.11-.14.14-.1.1-.15.15-.1.1-.15.15-.1.1-.14.14-.1.1-.15.15-.1.1-.15.15-.1.1-.14.14-.1.11a1,1,0,0,0-.15.14l-.1.1-.15.15-.1.1s0,0-.05.05c-1.45-5.84-5.4-12.05-16.19-12.05a19.56,19.56,0,0,0-7.19,1.54V114.93H300.37v.25h-.24v.25h-.25v.24h-.25v.25h-.24v.25h-.25v.24h-.25v.25h-.24v.25h-.25v.24h-.25v.25h-.25v.25h-.24v.25h-.25v.24h-.25v.25h-.24v.25h-.25v.24h-.25v.25h-.24v.25h-.25v.24h-.25v.25h-.25v.25h-.24v.25h-.25v.24h-.25v.25h-.24v.25h-.25v.24H294v.25h-.24v.25h-.25v.22a43.6,43.6,0,0,0-21.3-5.51c-3.45,0-10.08.53-15.75,4.06a20.1,20.1,0,0,0-3.78,3l-.24.25-.25.25-.25.24-.24.25a3,3,0,0,0-.25.25l-.25.24-.24.25a3,3,0,0,0-.25.25l-.25.24c-.08.09-.17.17-.25.25l-.24.25-.25.24c-.08.09-.17.17-.25.25l-.24.25c-.08.08-.17.16-.25.25l-.25.24-.24.25a3,3,0,0,0-.25.25l-.25.24-.24.25-.25.25-.25.24c-.08.09-.17.17-.25.25l-.24.25c-.08.08-.17.16-.25.25l-.25.24-.24.25a3,3,0,0,0-.25.25l-.25.24-.24.25a3,3,0,0,0-.25.25l-.25.24-.24.25a3,3,0,0,0-.25.25,17.89,17.89,0,0,0-5.1,13c0,8.56,7,13.94,13.07,17.27L243.47,171h0l-.25.24h0l-.24.25h0l-.25.24h0l-.25.24h0l-.25.25h0l-.25.25h0l-.25.24h0l-.25.24h0l-.25.25h0l-.25.24h0l-.25.24h0l-.24.25h0l-.25.24h0l-.25.24h0l-.24.25h0l-.25.25h0l-.25.24h0l-.25.25h0l-.25.25h0l-.25.24h0l-.25.25h0l-.25.25h0l-.25.24h0l-.25.24h0l-.24.25h0l-.25.24h0l-.25.24h0l-.25.25h0l-.25.25h0l-.25.24h0l-.25.25h0l-.25.25h0l-.25.24h0l-.25.24h0l-.25.25,1.91,2c7.48,7.91,17.86,12.14,30,12.23h0c8,0,14.56-2.49,18.91-6.77a3,3,0,0,0,.25-.25l.25-.24.24-.25a3,3,0,0,0,.25-.25l.25-.24.24-.25.25-.25.25-.24c.08-.08.16-.17.25-.25l.24-.25.25-.25.25-.24.24-.25.25-.25.25-.24.24-.25c.09-.08.17-.17.25-.25l.25-.24.25-.25.24-.25.25-.24.25-.25.24-.25.25-.24.1-.11v11.82h20.21v-.24h.24v-.25h.25v-.25h.25v-.24h.24v-.25h.25v-.25h.25v-.24h.25v-.25h.24v-.25h.25v-.25h.25v-.24h.24v-.25h.25v-.25h.25v-.24h.24v-.25h.25v-.25h.25v-.24H316v4.19h20.22v-.24h.25v-.25h.25v-.25H337v-.24h.25v-.25h.24v-.25h.25v-.24H338v-.25h.24v-.25h.25v-.25h.25v-.24H339v-.25h.25v-.25h.25v-.1c2.74,2.41,6.62,3.72,11.45,3.72a19.11,19.11,0,0,0,8-1.46v1H380.1v-.24h.25v-.25h.25v-.25h.24v-.24h.25v-.25h.25v-.25h.24v-.24h.16V208h21.19v-.25h.24v-.24h.25v-.25h.25V207h.24v-.24h.25v-.25h.25v-.25h.25V206h.24v-.24h.25v-.25h.25v-.25h.24V205h.25v-.25h.25v-.25h.24v-.24h.25V204h.25v-.25h.24v-.24h.25v-.25h.25V203h.25v-.25h.24v-.24h.25v-.25h.25V202h.24v-.24h.25v-.25h.25v-.25h.24v-.24h.25v-.25h.25v-.25h.25v-.24h.24v-.25h.25v-.25h.25v-.25h.24v-.24h.25v-6.08c.82,0,1.52,0,2.05,0A18.85,18.85,0,0,0,427,187.94l.25-.25c.08-.08.16-.17.25-.25l.24-.24c.09-.08.17-.17.25-.25l.25-.25.24-.24c.09-.08.17-.17.25-.25L429,186l.24-.25.25-.24c.09-.08.17-.17.25-.25L430,185l.24-.24.25-.25.25-.25L431,184l.25-.25c.08-.08.16-.17.25-.25l.24-.25A2.83,2.83,0,0,0,432,183c.09-.08.16-.17.25-.25l.24-.25.25-.24L433,182c.08-.08.16-.17.25-.25l.24-.24c.09-.08.17-.17.25-.25L434,181l.12-.12c4.09,7.58,12.05,12.39,21.84,12.39,8.37,0,14.73-2.38,20-7.49l2.18-2.1h0l.25-.24h0l.25-.25h0l.25-.24h0l.25-.24h0l.25-.25h0l.25-.24h0l.25-.24h0l.26-.24h0l.25-.25h0l.25-.24h0l.25-.24h0l.25-.25h0l.25-.24h0l.25-.24h0l.25-.25h0l.25-.24h0l.25-.24h0l.26-.24h0l.25-.24h0l.25-.24h0l.26-.24h0l.25-.25h0l.25-.24h0l.25-.24h0l.25-.25h0l.25-.24h0l.25-.24h0l.25-.25h0l.25-.24h0l.25-.24h0l.26-.24h0l.25-.25h0l.25-.24h0l.25-.24h0l.25-.25-3.34-3h0v-.25h.25v-.25h.24v-.25h.25V171h.25v-.25h.24v-.25h.25v-.25h.25V170h.25v-.25h.24v-.25h.25v-.25h.25V169h.24v-.25h.25v-.25h.25v-.25h.24v-.25h.25v-.25h.25ZM286.9,144.8h0l.24-.25h0l.24-.25h0l.23-.26h0l.24-.26h0l.24-.25h0l.23-.26h0l.23-.26h0l.24-.25h0l.23-.26h0l2.59-2.83v8.41a36.55,36.55,0,0,0-5.05-3.12Z"/><path class="cls-3abcd654" d="M297.28,164.1c0,12.08-10,18.28-21.85,18.28-11.18-.09-20.88-3.84-28-11.34l10.28-10.12c3.34,2.61,9.14,8.32,16.31,8.32,4,.08,7.58-1.71,7.58-5.54,0-5.47-6.84-6.53-13.94-9.79-5.88-2.69-17.05-7.75-17.05-17.45,0-13.05,12.24-17.05,21.53-17.05,10.77,0,20.4,4.24,25.7,9.46l-9.06,9.87c-2.12-1.63-9.21-6.28-16.06-6.28.16,0-6.45-1-6.45,4.16,0,1.22-.48,3.35,8.89,6.69C289.13,148.28,297.28,153.42,297.28,164.1Z"/><path class="cls-3abcd654" d="M327.52,181.4v-25c0-4.9-1.63-6.86-4.89-6.86-3.51,0-4.9,2-4.9,6.86v25H303.22V117.78h14.51v25.36c2.53-3.17,7.67-4.15,10-4.15,10.44,0,14.19,6.11,14.19,17.69L342,181.4Z"/><path class="cls-3abcd654" d="M385.9,157.42v24H370.4v-4.57c-1.14,2-3.26,5-10.84,5-9.22,0-13.21-5.05-13.21-12.23,0-10.28,7.34-13.62,18.51-13.62h5.54c0-4.24-2.93-4.89-4.81-4.89a11.17,11.17,0,0,0-7.18,2.93l-8.56-7.67A25.34,25.34,0,0,1,368.2,139C380.19,139,385.9,145.59,385.9,157.42Zm-15.5,8.72h-3.17c-4.09,0-5.39.74-5.39,3.18,0,2.12,1.47,3.18,4,3.18,3.75,0,4.56-2.28,4.56-5.05Z"/><path class="cls-3abcd654" d="M408.72,175.93v20.55H393.23V139.39h15.49v5.55c4.24-5.71,10.44-5.95,13.54-5.95,9.54,0,17.62,6.85,17.62,21.45,0,13.78-8.08,21.36-17.62,21.36C419.16,181.8,413,181.64,408.72,175.93Zm0-15.49c0,5.54,2.78,9.38,7.83,9.38s7.83-3.84,7.83-9.38-2.77-9.38-7.83-9.38S408.72,155,408.72,160.44Z"/><path class="cls-3abcd654" d="M458.12,164.51c0,3.51,3.75,5.31,7.5,5.31,2.37,0,6-1,7.75-3.1l9.22,8.4c-5,4.81-10.85,6.68-18,6.68-13.78,0-22-10-22-21.86S450.29,139,463.34,139c13.38,0,21.45,9.21,21.45,21.53v4.4Zm5.22-13.45c-3.26,0-5.3,1.79-5.3,5.3H469.3C469.3,153.18,466.77,151.06,463.34,151.06Z"/><path class="cls-2abcd654" d="M12.71,127.59h9.75C14.87,97.22,34,77.08,40.43,71.33l-.58-1.45c-.79-2-1.88-9,17.23-16.65A53.69,53.69,0,0,1,70.6,49.61a24.25,24.25,0,0,1,2.58-.15c5,0,7,2.09,7.79,3.89l.27.55V54l1.83,4.52a13.48,13.48,0,0,1,4.32-.7A13.73,13.73,0,0,1,98.22,80a17,17,0,0,1-3.5,7.32l1.55,3.83c.8,2,1.89,9.06-17.22,16.67-6,2.38-11.83,3.75-16,3.75-5.23,0-7.2-2.18-7.93-4l-.49-1.22a27.81,27.81,0,0,0,3,13.73l5.8,7.5H103c-2.6-7.88-1.43-13.63.25-17.29a18.41,18.41,0,0,1,4.12-5.75C105.51,94.07,101,58.08,121.16,31,135.21,12.22,158.07,1.78,189.1,0c.06,0,.53,0,1.37,0,5.77,0,35.61,1,56.32,20.88C261,34.48,268.11,53.79,268,78.26c.05,2.23.23,43.42-39.64,64.51,1,.12,1.92.28,2.87.47a31.8,31.8,0,0,1,10.87,4.32,25.78,25.78,0,0,1,4.46,3.64l1.76.94.35,1.57a21.38,21.38,0,0,1,1.77,2.8,18,18,0,0,1,1.28,3.11,10.13,10.13,0,0,1,.42,2.14v.12a5.8,5.8,0,0,1,0,1.17l0,.11,0,.11a3.5,3.5,0,0,1-.18.65,5.67,5.67,0,0,1-.24.55,4.54,4.54,0,0,1-.89,1.17,4.32,4.32,0,0,1-2,1.06,4.43,4.43,0,0,1-1,.11,4.25,4.25,0,0,1-1-.13l-.1,0-.1,0a4.42,4.42,0,0,1-1.45-.75l-.23-.16-.24-.27c-.22-.25-.38-.45-.52-.63s-.37-.25-.85-.51a13.11,13.11,0,0,0-1.76-.75,19.88,19.88,0,0,0-6.42-1.07c-.61,0-1.23,0-1.84.09a17.52,17.52,0,0,0-2.74.49,121.91,121.91,0,0,1,12,15.6,66.69,66.69,0,0,1,6,11.55c2,5.18,2.78,9.56,2.43,13.8a18.36,18.36,0,0,1-2.32,7.55,18.71,18.71,0,0,1-5.17,5.79,32.64,32.64,0,0,1-12.8,5.44,57.27,57.27,0,0,1-12.44,1.37h-.67a51.61,51.61,0,0,1-13.16-2c-8.48-2.39-15.88-6.68-23-10.83-3.52-2.07-6.51-3.79-9.5-5.37H81.41a6.47,6.47,0,0,1-5.18,2.61h-.34a9.07,9.07,0,0,1-1.78-.31,2.14,2.14,0,0,0-.27-.06l-1.45-.34c-.85-.19-1.74-.36-2.63-.52-1.82-.31-3.61-.54-5.34-.67-1-.08-2.05-.12-3-.12a28.28,28.28,0,0,0-7.07.83,19.67,19.67,0,0,0-2.17.75l-.11.05-1,.43c-.58.25-1.17.51-1.74.72a60.14,60.14,0,0,1-5.82,1.93,75.5,75.5,0,0,1-12,2.34,61.43,61.43,0,0,1-6.7.38,46.74,46.74,0,0,1-5.77-.34c-5.34-.71-9.48-2.29-12.69-4.85a16.28,16.28,0,0,1-4.68-6,19.23,19.23,0,0,1-1.64-7,22,22,0,0,1,3.82-13.35,36.3,36.3,0,0,1,9.05-9.18A54.21,54.21,0,0,1,19.75,169L5.43,140.26h0A8.43,8.43,0,0,1,12.71,127.59Z"/><path class="cls-3abcd654" d="M83.92,63.61a8.72,8.72,0,0,1,11.47,4.56,8.7,8.7,0,0,1-.2,7.24,10.53,10.53,0,0,0-.8-2.24,13.58,13.58,0,0,0-4.17-5.12c.55-.37,1.09-.76,1.61-1.18a34,34,0,0,0-4,1.07c-1.22.41-2.45.83-3.63,1.35l-2-4.93Z"/><polygon class="cls-3abcd654" points="78.46 56.52 93.15 94.28 89.79 97.63 83.34 101.48 76.05 105.15 67.03 107.04 60.09 107.04 43.27 67.66 47.59 63.16 59.45 57.92 71.43 52.59 78.46 56.52"/><path class="cls-4abcd654" d="M30.45,188.23S65,170.78,79,200.51a2.37,2.37,0,0,1-2.76,3.28c-6.26-1.61-17.56-3.6-25.71.16-11.83,5.46-42.32,10.85-45.66-6.71s22.76-27.18,22.76-27.18l15.77-10.21,3.56,10.21S45.91,186.64,30.45,188.23Z"/><polygon class="cls-5abcd654" points="137.41 202.39 182.6 202.39 182.6 193.53 135.94 193.53 137.41 202.39"/><path class="cls-2abcd654" d="M183.62,203H136.55l-1.82-10.9h48.89Zm-45.34-2h43.3v-6.81H137.14Z"/><path class="cls-6abcd654" d="M140.18,193.13l-28.37-58L110.12,131s-10.63-14.64,2.21-24.8c0,0-20.74-90.32,67.08-101.17,0,0,65.8-10.9,83,51.83,0,0,12.25,43-22.89,74.14L213.3,145l5.9.29,9.44,1.65,10.23,3.29,7.35,3.92,1.87,8.2L242.21,159l-8.3-1-9.43,2.47s38.31,41,17.25,53.65c0,0-17,9.37-44.66,0C197.07,214.09,155.09,188.41,140.18,193.13Z"/><path class="cls-3abcd654" d="M206.19,188.26s1.67-4.1,7.41-4.29c0,0-8-2.27-10.44,1.05Z"/><path class="cls-7abcd6543" d="M118.16,104.24s-12.17,5.85-6.35,30.91C111.81,135.15,97,109.06,118.16,104.24Z"/><path class="cls-3abcd654" d="M129.15,186.69A80.18,80.18,0,0,1,172,189.5c23.12,8,34.5,31.94,69.71,24.59,0,0-8.58,9.87-38.19,3.31l-35.36-18.63s-19.09-7.63-28-5.64Z"/><g class="cls-8abcd6543"><path class="cls-2abcd654" d="M68.69,93.16s12.45,4.33,24.46,1.12l-2.61-7.79S78.23,93.87,68.69,93.16Z"/></g><path class="cls-9abcd6543" d="M64.35,135.07s-22.1-15.32-9.55-41.83L47,75.64s-.28-2.8-3.84-.84c0,0-30.27,27.77-13.55,60.27Z"/><path class="cls-3abcd654" d="M51.12,85.78s-22.7,20.33-3.25,49.29H64.35S43,115.69,54.93,95.18Z"/><g class="cls-1abcd6540"><polygon class="cls-2abcd654" points="55.3 123.21 26.02 120.68 29.82 135.07 64.06 134.34 55.3 123.21"/></g><g class="cls-8abcd6543"><path class="cls-2abcd654" d="M47.87,69.84c3.52.08,9-1.13,14.94-3.48s10.74-5.25,13.24-7.73c-3.53-.09-9,1.13-14.94,3.47S50.37,67.36,47.87,69.84Z"/></g><path class="cls-2abcd654" d="M28.68,135.46C12.71,96,44.56,72.17,44.88,71.94l1.21,1.65c-.31.23-30.87,23.16-15.51,61.1Z"/><path class="cls-2abcd654" d="M63.64,135.81c-22.76-22-9.84-42.91-9.7-43.12l1.72,1.1c-.5.8-12.12,19.75,9.4,40.55Z"/><path class="cls-2abcd654" d="M48.2,70.91c-2.8,0-4.49-.72-5.06-2.14-1.48-3.72,6.7-9.23,15.55-12.75a50.8,50.8,0,0,1,12.74-3.43c4.15-.44,6.61.23,7.32,2s-.62,4-3.94,6.49A51.18,51.18,0,0,1,63.2,67.35a51.23,51.23,0,0,1-12.74,3.43C49.64,70.86,48.88,70.91,48.2,70.91Zm25.46-16.4a19.81,19.81,0,0,0-2,.11,48.66,48.66,0,0,0-12.19,3.3C49.16,62,44.53,66.73,45,68c.17.43,1.48,1.13,5.2.73a48.77,48.77,0,0,0,12.2-3.29,49,49,0,0,0,11.13-6c3-2.27,3.45-3.68,3.28-4.11S75.86,54.51,73.66,54.51Z"/><path class="cls-2abcd654" d="M63.54,108.59c-2.65,0-4.56-.63-5.15-2.12L43.14,68.77,45,68l15.25,37.7c.51,1.28,7.11,1.54,17.4-2.56S92.6,94.33,92.1,93.06L76.85,55.36l1.9-.77L94,92.29c1.49,3.73-6.7,9.24-15.54,12.76C73.14,107.16,67.51,108.59,63.54,108.59Z"/><path class="cls-1abcd6541" d="M69.37,72.12a3.46,3.46,0,0,0-3.61,3s0,0,0,0a3.46,3.46,0,0,0-4.71.19c-1.32,1.37-1.35,3.57.79,5.32,1.48,1.22,3.48,1.81,6.93,2.84a.39.39,0,0,0,.42-.17c1.86-3.09,2.94-4.87,3.22-6.76C72.77,73.85,71.26,72.24,69.37,72.12Z"/><path class="cls-1abcd6542" d="M85.28,71S82.8,83.8,68.43,90.91a1.4,1.4,0,0,0,.69,2.65c6.06-.18,15-1.45,21.85-6.67,0,0,11-10.26-.59-19.12"/><path class="cls-3abcd654" d="M68.26,91.86s24-6.67,21.65-23l-2,.59-2.43.59-.4,2.9-3,6.21-8.13,8.23S65.7,91.59,68.26,91.86Z"/><path class="cls-2abcd654" d="M68.65,94.18a2.4,2.4,0,0,1-2.36-1.85,2.36,2.36,0,0,1,1.26-2.74,31.49,31.49,0,0,0,16.66-19.5l2,.43c-.12.55-3.11,13.67-17.75,20.9a.34.34,0,0,0-.19.41c0,.12.08.28.39.3,6.09-.18,14.72-1.44,21.26-6.45h0s4.15-3.68,4-8.34c-.09-2.87-1.79-5.57-5-8l1.24-1.63c3.77,2.87,5.74,6.11,5.86,9.62.18,5.65-4.54,9.81-4.75,10-7,5.37-16.1,6.72-22.48,6.91Z"/><path class="cls-2abcd654" d="M84.47,69.37a39.41,39.41,0,0,1,3.85-1.43,33.45,33.45,0,0,1,4-1.07,36.56,36.56,0,0,1-3.42,2.36,40.85,40.85,0,0,1-3.59,2Z"/><g class="cls-8abcd6543"><path class="cls-1abcd6543" d="M224.69,161.81l-.26.53c0-.61,0-1,0-1s-12,6.34-15.51,6.31-10.67-.41-10.67-.41l-9.06-3.38-12-16.39s7.89,29.36,28.07,29.63c6.75.09,11.13-1.65,14-4h0s29,25.78,16.3,42.77C235.5,215.89,264.43,205.92,224.69,161.81Z"/></g><path class="cls-7abcd6543" d="M134.15,179.59s-12.4-23.51-9.41-56.95c0,0-7.54,17.77,1.71,42.43Z"/><path class="cls-7abcd6543" d="M157.71,171.18s-11.43-18.07-10.91-47.12c-1.34.9-3.92,33.72,2.62,44.38Z"/><g class="cls-1abcd6544"><path class="cls-1abcd6543" d="M123.73,152.28s7.4,12.79,23.31,3.6c0,0,11.09,9.19,23.61,1L175.6,173l-19.15-1.83-7-1.51L132,175.53l-5.51-10.46Z"/></g><path class="cls-7abcd6543" d="M182.6,172.82a131.9,131.9,0,0,1-14-28.73,167.68,167.68,0,0,0,5.84,27.9Z"/><path class="cls-7abcd6543" d="M202.17,4.81s-95.71,0-88.93,96.67c0,0-16-52,27-82.66C140.21,18.82,169.91.36,202.17,4.81Z"/><g class="cls-1abcd6545"><path class="cls-1abcd6543" d="M255.7,39.86S279.55,108,205.35,131l-.13,2.64,2.35,7.33,4.61,3.57,7-.42,5-3.15,13.72-8.73L250,121.5,262.62,96l1.89-13.26-1.12-20.43Z"/></g><path class="cls-2abcd654" d="M124.73,122.64a38.34,38.34,0,0,0-2.2,10.94,64.74,64.74,0,0,0,.25,11.14l.32,2.76.46,2.74c.26,1.84.75,3.63,1.13,5.44s1,3.58,1.45,5.36l1.74,5.27-3.26,1-1.37-5.55c-.35-1.87-.77-3.72-1.07-5.6s-.6-3.76-.73-5.66l-.26-2.83-.11-2.85a66.13,66.13,0,0,1,.6-11.34A39.13,39.13,0,0,1,124.73,122.64Z"/><path class="cls-2abcd654" d="M213.62,146,213,144c51.67-16.92,50.51-65.21,50.49-65.7.09-23.09-6.53-41.17-19.66-53.78C222.28,3.86,190.2,5,189.88,5.06c-29.45,1.67-51,11.42-64.16,29-22,29.5-12.49,71.49-12.39,71.91l.17.74-.66.38c-.46.27-11.14,6.79-2.35,24.08l3.7,8.83-1.89.79L108.63,132c-5-9.82-3.91-16.55-2.12-20.45a15.26,15.26,0,0,1,4.67-5.84C110,100,103.05,61,124.07,32.83,137.57,14.75,159.67,4.72,189.78,3c.32,0,33.27-1.25,55.44,20,13.56,13,20.39,31.6,20.31,55.24C265.54,78.75,266.75,128.57,213.62,146Z"/><path class="cls-2abcd654" d="M147.15,123.17a58.17,58.17,0,0,0-1.57,12,85.62,85.62,0,0,0,.43,12,93.39,93.39,0,0,0,2.1,11.78c.41,1.94,1.06,3.83,1.59,5.75s1.28,3.76,1.92,5.64l-3.23,1.08c-.52-2-1.11-4-1.57-5.94s-.93-4-1.21-6a95.73,95.73,0,0,1-1.3-12.16,87,87,0,0,1,.42-12.19A58.39,58.39,0,0,1,147.15,123.17Z"/><circle class="cls-2abcd654" cx="126.93" cy="97.77" r="7.09"/><circle class="cls-3abcd654" cx="125.17" cy="96.03" r="1.98"/><circle class="cls-2abcd654" cx="192.93" cy="105.2" r="7.09"/><circle class="cls-3abcd654" cx="191.18" cy="103.46" r="1.98"/><ellipse class="cls-7abcd6543" cx="240.5" cy="71.42" rx="8.87" ry="14.52"/><ellipse class="cls-7abcd6543" cx="236.98" cy="41.62" rx="4.73" ry="7.75"/><g class="cls-1abcd6546"><ellipse class="cls-7abcd6543" cx="224.06" cy="54.26" rx="4.73" ry="7.75"/></g><g class="cls-8abcd6543"><circle class="cls-1abcd6547" cx="143.89" cy="111.34" r="1.55"/></g><g class="cls-8abcd6543"><circle class="cls-1abcd6547" cx="151.18" cy="104.76" r="1.55"/></g><g class="cls-8abcd6543"><circle class="cls-1abcd6547" cx="157.65" cy="111.34" r="1.55"/></g><g class="cls-8abcd6543"><circle class="cls-1abcd6547" cx="164.14" cy="104.76" r="1.55"/></g><g class="cls-8abcd6543"><circle class="cls-1abcd6547" cx="170.6" cy="111.34" r="1.55"/></g><path class="cls-2abcd654" d="M221.44,142.92s-2.48,2.07.95,2.36H217l-1-.53Z"/><path class="cls-2abcd654" d="M168.18,147.49c2.66,8.57,5.82,16.95,9.3,25.17l-3.22,1.13C171.82,165.1,169.74,156.33,168.18,147.49Z"/><path class="cls-2abcd654" d="M225.1,161.11a124.51,124.51,0,0,1,15.45,19.19,63.35,63.35,0,0,1,5.77,11,28.36,28.36,0,0,1,2.24,12.46,15.52,15.52,0,0,1-1.93,6.29,15.76,15.76,0,0,1-4.36,4.89,30.17,30.17,0,0,1-11.66,4.92,54.07,54.07,0,0,1-12.43,1.3,48.92,48.92,0,0,1-12.38-1.85c-8.08-2.27-15.32-6.46-22.35-10.53s-14-8.15-21.59-10.82A67.33,67.33,0,0,0,138.32,194a96.77,96.77,0,0,0-23.81,3.48l-.66-2.31a1.11,1.11,0,0,0-.76.68l0,0,0-.12.09-.22.18-.43.37-.84c.27-.55.54-1.1.82-1.63.58-1.08,1.2-2.12,1.85-3.14a44.92,44.92,0,0,1,4.45-5.74,42.22,42.22,0,0,1,11.51-8.79,43.16,43.16,0,0,1,6.7-2.81c.57-.2,1.18-.35,1.76-.53.32-.09.55-.17.93-.26l.9-.16c1.19-.21,2.37-.38,3.55-.54a100.44,100.44,0,0,1,14.29-.79,77.43,77.43,0,0,1,28.1,5.3c8.89,3.6,16.92,9.87,21.7,18.09A57.19,57.19,0,0,0,199.9,184a59.05,59.05,0,0,0-12.23-6.38c-8.6-3.37-17.91-4.67-27.17-4.92a105.94,105.94,0,0,0-13.91.64c-1.15.13-2.3.29-3.44.47l-.84.14c-.19,0-.52.14-.77.21-.54.16-1.08.28-1.63.47a41,41,0,0,0-6.34,2.56,39.33,39.33,0,0,0-10.87,8.22,40,40,0,0,0-4.23,5.39c-.63.95-1.21,1.94-1.74,2.94-.27.51-.52,1-.76,1.53l-.34.77-.16.39-.07.19,0,.09,0,0a1.32,1.32,0,0,1-.79.78l-.67-2.31a98.63,98.63,0,0,1,24.42-3.68,69.73,69.73,0,0,1,24.44,4c7.84,2.74,15.06,6.85,22.08,10.95s14,8.18,21.7,10.36a46,46,0,0,0,11.71,1.8,50.66,50.66,0,0,0,11.83-1.19A27.78,27.78,0,0,0,240.78,213a13,13,0,0,0,5.38-9.44,26,26,0,0,0-2-11.39,63.43,63.43,0,0,0-5.49-10.64,121.64,121.64,0,0,0-15-19Z"/><ellipse class="cls-7abcd6543" cx="190.07" cy="121.5" rx="9.95" ry="4.09"/><ellipse class="cls-7abcd6543" cx="120.28" cy="114.18" rx="9.95" ry="4.09"/><path class="cls-1abcd6548" d="M247.58,160.5s-8.67-12.19-27.11-5.58c0,0-15.29,5.84-28.36,1.73-18-5.66-17.17-19.89-17.17-19.89L178.11,150s2.78,11.1,16.22,16.45c0,0,13.17,4.72,30.9-4.68,0,0,10.57-6.86,20.38-1.34C245.61,160.47,249,162.76,247.58,160.5Z"/><path class="cls-2abcd654" d="M174.8,133.38a50.09,50.09,0,0,0,1.73,10,40.81,40.81,0,0,0,3.76,9.25,29.12,29.12,0,0,0,6.16,7.65,25.83,25.83,0,0,0,8.43,4.89c.78.26,1.55.54,2.36.73l1.2.31c.37.09.76.15,1.16.21a29.47,29.47,0,0,0,4.89.2,36.56,36.56,0,0,0,9.71-1.78,43.52,43.52,0,0,0,9-4.11,26.18,26.18,0,0,1,4.78-2.34,23.66,23.66,0,0,1,5.24-1.18,25.34,25.34,0,0,1,10.58,1.18,17.26,17.26,0,0,1,2.52,1.06,8.38,8.38,0,0,1,2.43,1.75c.14.14.58.76.27.39a1.05,1.05,0,0,0-.44-.23,1.24,1.24,0,0,0-.55,0,1.11,1.11,0,0,0-.52.27,1.34,1.34,0,0,0-.24.29l-.06.14a.93.93,0,0,0,0,.13c0,.09,0,0,0,0a4.26,4.26,0,0,0-.2-1,12.08,12.08,0,0,0-.87-2.13,18.74,18.74,0,0,0-6.44-7,26.82,26.82,0,0,0-9-3.62,38.06,38.06,0,0,0-4.9-.72c-1.64-.14-3.29-.14-5.07-.24a23.62,23.62,0,0,1-10.25-2.73,12.23,12.23,0,0,1-4-3.74,12.05,12.05,0,0,1-1.94-5.12,15.8,15.8,0,0,1,2.16-10.17,28.61,28.61,0,0,0-.3,9.86A10.3,10.3,0,0,0,211.5,143a21.48,21.48,0,0,0,9.34,2.31c1.62.07,3.38.05,5.12.18a41.6,41.6,0,0,1,5.2.69,28.93,28.93,0,0,1,9.84,3.9,21.16,21.16,0,0,1,7.31,7.83,14.6,14.6,0,0,1,1.06,2.57,7,7,0,0,1,.31,1.52,2.65,2.65,0,0,1,0,.61,2.83,2.83,0,0,1-.08.29l-.09.21a1.61,1.61,0,0,1-.28.36,1.44,1.44,0,0,1-.59.31,1.29,1.29,0,0,1-.63,0,1.45,1.45,0,0,1-.58-.31c-.6-.68-.34-.47-.5-.62a6.88,6.88,0,0,0-1.71-1.18,15.7,15.7,0,0,0-2.18-.93,22.66,22.66,0,0,0-9.53-1.14,21,21,0,0,0-4.7,1,23.41,23.41,0,0,0-4.38,2.1,45.81,45.81,0,0,1-9.53,4.27,38.74,38.74,0,0,1-10.31,1.81,30.23,30.23,0,0,1-5.28-.25c-.44-.07-.89-.14-1.35-.26l-1.27-.34a24.21,24.21,0,0,1-2.51-.79,27.53,27.53,0,0,1-9-5.37,28.89,28.89,0,0,1-6.32-8.35A39.78,39.78,0,0,1,174.8,133.38Z"/><path class="cls-1abcd6548" d="M181.82,15.47s-33.6,14.4-26.75,46.81C155.07,62.28,159.58,28.46,181.82,15.47Z"/><path class="cls-2abcd654" d="M179.41,16.13A48.56,48.56,0,0,0,174,19.92c-.89.65-1.7,1.4-2.55,2.09s-1.6,1.5-2.4,2.24A52.55,52.55,0,0,0,161,34.49a50.36,50.36,0,0,0-3,5.79,50,50,0,0,0-2.06,6.2,54.26,54.26,0,0,0-1.65,13.05c-.08-1.1-.14-2.21-.19-3.32a21.78,21.78,0,0,1,0-3.33l.28-3.34a31.09,31.09,0,0,1,.59-3.29,39.62,39.62,0,0,1,1.88-6.45,46.25,46.25,0,0,1,3-6,45.5,45.5,0,0,1,19.62-17.66Z"/><path class="cls-2abcd654" d="M111.16,105.67a14.06,14.06,0,0,1,7-1.43s-5.3,1.92-8.27,5.64Z"/><path class="cls-2abcd654" d="M146.7,164.46s.47,5.76-3.63,6.72l5.33-.59v-1.16Z"/><path class="cls-2abcd654" d="M149.85,165.07a7.34,7.34,0,0,0,7,4.82l-5.73.33Z"/><path class="cls-2abcd654" d="M228,160.84a2.53,2.53,0,0,0-.87,3.68l-1.72-.94v-3Z"/><g class="cls-8abcd6543"><polygon class="cls-1abcd6547" points="16.43 176.33 30.45 188.23 34.77 186.99 27.36 169.52 16.43 176.33"/></g><path class="cls-5abcd654" d="M144.59,202H48.31l-35-70.37h91.63a7.5,7.5,0,0,1,6.72,4.16Z"/><path class="cls-2abcd654" d="M146.24,203H47.68l-36-72.42h91.48a11.39,11.39,0,0,1,10.24,6.35ZM49,201h94l-31.4-63.11a9.36,9.36,0,0,0-8.41-5.21H15Z"/><path class="cls-1abcd6549" d="M137.41,202H41.14L8.83,137.06a3.77,3.77,0,0,1,3.37-5.44H97.51a7.88,7.88,0,0,1,7.07,4.38Z"/><path class="cls-2abcd654" d="M139.06,203H40.5L8.62,138.92a5.76,5.76,0,0,1,5.15-8.33H96.62a10.32,10.32,0,0,1,9.28,5.75Zm-97.29-2h94l-31.7-63.71a8.26,8.26,0,0,0-7.44-4.61H13.77A3.72,3.72,0,0,0,10.45,138Z"/><polygon class="cls-3abcd654" points="64.75 145.8 57.58 147.09 54.47 149.26 53.49 154.15 56.2 161.82 59.09 165.88 59.9 171.24 60.71 172.84 61.96 172.81 62.94 174.75 61.83 175.57 61.34 177.06 63.63 180.65 65 183.77 66.39 184.12 69.78 183.36 70.36 181.66 71.2 176.07 74.55 182.26 77.74 183.91 79.98 183.03 79.09 178.81 80.81 178.44 80.16 175.36 79.08 174.03 77.24 174.27 76.91 172.73 77.99 172.09 79.05 171.75 78.63 169.74 76.97 166.34 76.96 156.19 74.13 148.69 64.75 145.8"/><path class="cls-2abcd654" d="M77.1,154a13.37,13.37,0,0,0-3-5.31,11.6,11.6,0,0,0-4.87-3.08,17.48,17.48,0,0,0-7-.67c-5.09.42-8.2,2.25-9.27,5.43C51.14,156,56.55,164,58.8,166.94a7.7,7.7,0,0,1-.08,1.45A7.49,7.49,0,0,0,59.84,173a2.34,2.34,0,0,0,1.31.94,1.58,1.58,0,0,0,1.1-.09c0,.12,0,.27.08.43a1.42,1.42,0,0,0-1,.37,2.7,2.7,0,0,0-.69,1.82,5.08,5.08,0,0,0,.36,2.11,4.1,4.1,0,0,0,2.39,2.35,4.44,4.44,0,0,0,6.2,3.88,4.3,4.3,0,0,0,1.92-3.52,11.74,11.74,0,0,0-.15-3.12,14,14,0,0,0,1.57,3,7.37,7.37,0,0,0,3.8,3.05,4.28,4.28,0,0,0,1.65.2A3,3,0,0,0,80.72,183a3.16,3.16,0,0,0-.16-3.57h0a2.55,2.55,0,0,0,.92-2.58,5.48,5.48,0,0,0-.79-2.07A4.37,4.37,0,0,0,79,173.16a1.91,1.91,0,0,0-1.16-.2c-.06-.16-.11-.3-.16-.42a1.58,1.58,0,0,0,1.1-.09,1.37,1.37,0,0,0,.75-1.11,7.71,7.71,0,0,0-1.42-4.56,10.13,10.13,0,0,1-.68-1.07,30.89,30.89,0,0,0,.46-6.26A21.13,21.13,0,0,0,77.1,154Zm-1.28,11.7a13.62,13.62,0,0,0,1.11,1.82c.88,1.19,1.31,3.39,1,3.55s-.88-2-2.23-3.45a5.88,5.88,0,0,1-.52-.6c.57,1.27,1.23,3.12.88,4.25-.41,1.4,2.2,5.59,2.64,5.62.61,0-.75-2.69-.14-2.39.89.45,2.21,3.05.75,3.76s-5.26-3.38-5.36-6.82c.07-1.4-1.51-4.19-2.06-5.33A27.21,27.21,0,0,1,74,174c.62,5.34,2.82,7.06,3.3,6.8.67-.36-.14-1.62-.2-1.84.17-.65,3.53,1.07,2.24,3.08-1.11,1.82-5.6,1.08-7.48-7.43a17,17,0,0,0-3.35-6.93,12.66,12.66,0,0,0,.46,7.17c2.8,8.44-.91,9.85-3,8.3-2.32-1.71-.17-3.89.35-3.29,0,0-.09,1.56.75,1.79.6.17,1.81-1.6-.47-6.8a25.61,25.61,0,0,1-2.25-8.13c.06,1.18,0,4.11.82,5.44,1.76,3.29.25,7.77-1.37,7.37-1.78-.44-1.91-3.14-1.31-3.71.41-.39.59,2.43,1.16,2.3.4-.1.62-4.52-.52-5.79a7.88,7.88,0,0,1-1.46-4.21,4.55,4.55,0,0,1-.17.66c-.49,1.64.12,3.75-.27,3.65s-1.18-2.26-1-3.54a11.25,11.25,0,0,0,.05-2.25c-2.15-2.77-14-18.84,2.36-20.2C79.85,145,76.14,164.19,75.82,165.7ZM60,163.47a1.31,1.31,0,0,1,1.15-1.74,2.06,2.06,0,0,1,2,1.48A1.31,1.31,0,0,1,62,165h0A2.06,2.06,0,0,1,60,163.47Zm13.27.53a1.31,1.31,0,0,0,1.15-1.74,2.06,2.06,0,0,0-2-1.47,1.3,1.3,0,0,0-1.15,1.74h0a2.05,2.05,0,0,0,2,1.47Z"/><path class="cls-2abcd654" d="M23.39,173s2.06-.63,3.3,1.92v-.38l-.47-2.89-2.06-.27Z"/><polygon class="cls-5abcd654" points="141.97 194.15 137.37 194.15 142.91 200.96 146.93 200.96 141.97 194.15"/><path class="cls-2abcd654" d="M172.64,167.73a2.47,2.47,0,0,1-2.8,2.7l3.5,1.14.48-.39Z"/><path class="cls-2abcd654" d="M201.23,184a7.42,7.42,0,0,1,1.77-1,10.77,10.77,0,0,1,1.77-.52,12.47,12.47,0,0,1,3.54-.18,15.42,15.42,0,0,1,3.34.74c.54.18,1,.41,1.56.62l1.49.74-1.59-.42c-.55-.09-1.07-.21-1.61-.27a13.56,13.56,0,0,0-3.18,0,10.58,10.58,0,0,0-2.95.76,8,8,0,0,0-1.29.7,4.79,4.79,0,0,0-1,.82Z"/><g class="cls-8abcd6543"><path class="cls-1abcd6547" d="M58.28,185.49s18.94,3.32,25.53,15.58H73.45Z"/></g><polygon class="cls-2abcd6540" points="51.31 183.97 41.32 184.66 22.72 190.63 32.94 209.24 43.41 206.43 52.92 202.35 65.1 202.95 73.38 204.53 75.36 204.18 76.39 202.04 71.98 193.57 65.47 188.35 51.31 183.97"/><path class="cls-2abcd6541" d="M78.88,201.11s-18.3-11.47-37.06-3-34.58,8.25-37-.12c0,0,2.72,19.07,37.38,8.85,0,0,17.24-8.08,33.9-2.32Z"/><path class="cls-2abcd654" d="M21.48,191.68c6.62-4.16,14.33-6.16,22.05-7.2a47.86,47.86,0,0,1,11.78-.11,33.9,33.9,0,0,1,11.39,3.31,29.15,29.15,0,0,1,9.32,7.4A33.5,33.5,0,0,1,79.4,200l.37.64a4.1,4.1,0,0,1,.36,1,3.25,3.25,0,0,1-.27,2,3.5,3.5,0,0,1-3.3,2A10.3,10.3,0,0,1,75,205.3L73.57,205c-.93-.2-1.86-.39-2.79-.55a56.6,56.6,0,0,0-5.63-.71,34.2,34.2,0,0,0-11.12.81,20.85,20.85,0,0,0-2.59.9c-.83.34-1.79.8-2.69,1.13a58.79,58.79,0,0,1-5.58,1.85,73.39,73.39,0,0,1-11.49,2.25,50.82,50.82,0,0,1-11.76,0c-3.9-.51-7.93-1.61-11.2-4.22a13.39,13.39,0,0,1-3.82-4.87,16.44,16.44,0,0,1-1.37-6,19,19,0,0,1,3.32-11.51,33.38,33.38,0,0,1,8.33-8.43,51.78,51.78,0,0,1,10.26-5.81l.75,1.9a49.74,49.74,0,0,0-9.8,5.56,31.59,31.59,0,0,0-7.83,7.9,16.86,16.86,0,0,0-3,10.29,14.16,14.16,0,0,0,1.18,5.22A11.38,11.38,0,0,0,10,204.89c2.79,2.25,6.48,3.3,10.17,3.78a48.93,48.93,0,0,0,11.28,0,70.55,70.55,0,0,0,11.16-2.18c1.82-.51,3.63-1.1,5.38-1.78.9-.34,1.68-.72,2.64-1.11a22.9,22.9,0,0,1,2.85-1,36,36,0,0,1,11.81-.88c2,.15,3.9.4,5.83.73q1.44.26,2.88.57l1.42.33a10.3,10.3,0,0,0,1.22.27,1.48,1.48,0,0,0,1.36-.83,1.23,1.23,0,0,0,.11-.77,2,2,0,0,0-.14-.38l-.35-.61a31,31,0,0,0-3.21-4.57,26.87,26.87,0,0,0-8.68-6.81c-6.69-3.33-14.49-3.83-22-3.07a76.53,76.53,0,0,0-11.19,2.09C28.88,189.56,25.22,190.61,21.48,191.68Z"/><path class="cls-2abcd654" d="M207.87,139.46s5,5.4,11.33,2.23l-5.67,3.45L209,142.3Z"/><polygon class="cls-2abcd654" points="42.83 74.77 49.35 83.94 45.19 71.7 42.83 74.77"/><polygon class="cls-2abcd654" points="243.75 153.33 246.89 156.46 246.89 153.83 243.75 153.33"/><polygon class="cls-2abcd654" points="373.53 201.1 321.08 201.1 340.62 193.41 373.53 201.1"/><path class="cls-1abcd6541" d="M272.1,29.37l-9,0,0-12,8.69,0V19.9h-5.59v2h4.57v2.58h-4.58v2.33h5.86Z"/><path class="cls-1abcd6541" d="M278.71,29.39l.05-.07V26.1c0-1.66-.06-2.68-1.3-2.69s-1.3,1-1.3,2.68v3.29h-3.05l0-8.26h3.05v1.27A2.55,2.55,0,0,1,278.49,21a2.22,2.22,0,0,1,2.42,1.9,3.39,3.39,0,0,1,3.21-1.89,3,3,0,0,1,3.3,3.17v5.19h-3.05V26.11c0-1.65.07-2.68-1.3-2.68-1.15,0-1.3,1-1.3,2.67v3.29Z"/><path class="cls-1abcd6541" d="M297.76,25.29c0,2.87-1.59,4.21-3.47,4.21a3.09,3.09,0,0,1-2.66-1.18v1.09h-3.05l0-12.52h3v5.34a3.08,3.08,0,0,1,2.67-1.17C296.18,21.08,297.77,22.59,297.76,25.29Zm-3.05,0c0-1.08-.54-1.85-1.53-1.85s-1.54.77-1.55,1.84.54,1.87,1.54,1.87S294.71,26.36,294.71,25.28Z"/><path class="cls-1abcd6541" d="M301.61,26.11c0,.69.74,1.05,1.47,1.05a2.16,2.16,0,0,0,1.53-.61l1.81,1.66a4.78,4.78,0,0,1-3.55,1.31,4.14,4.14,0,0,1-4.32-4.31,3.9,3.9,0,0,1,4.1-4.12,4,4,0,0,1,4.21,4.25v.87Zm1-2.64a.94.94,0,0,0-1,1h2.21A1.06,1.06,0,0,0,302.64,23.47Z"/><path class="cls-1abcd6541" d="M312.33,23.49c-1.36,0-1.68.88-1.69,3v3h-3.05V21.18h3v1.35a1.81,1.81,0,0,1,2-1.43,1.64,1.64,0,0,1,1.29.57L313.57,24A1.74,1.74,0,0,0,312.33,23.49Z"/><path class="cls-1abcd6541" d="M321.1,29.56a6.32,6.32,0,0,1-6.38-6.11,6.31,6.31,0,0,1,6.4-6.09,5.59,5.59,0,0,1,5.1,3l-2.17,1.34a3.31,3.31,0,0,0-6.23,1.75A3.22,3.22,0,0,0,321.15,27,3.32,3.32,0,0,0,324,25.25l2.17,1.37A5.75,5.75,0,0,1,321.1,29.56Z"/><path class="cls-1abcd6541" d="M335.53,25.4c0,2.89-2.13,4.19-4.41,4.18s-4.37-1.31-4.37-4.2a4.39,4.39,0,0,1,8.78,0Zm-5.75,0c0,1,.26,1.83,1.35,1.83s1.35-.86,1.35-1.83-.24-1.86-1.34-1.86S329.79,24.41,329.78,25.39Z"/><path class="cls-1abcd6541" d="M341.15,29.52V24.6c0-1-.32-1.35-1-1.36s-1,.39-1,1.35v4.93h-2.85l0-8.26h2.85V22a2.83,2.83,0,0,1,2-.81c2,0,2.78,1.21,2.77,3.49v4.86Z"/><path class="cls-1abcd6541" d="M349.56,19.78c-.5,0-.9.35-.9,1.08v.41h1.91v2.37h-1.91v5.89h-3.05V23.64h-.83V21.27h.84V21c0-2.76,1.39-3.54,2.9-3.54a2.78,2.78,0,0,1,2.07.82v1.91A1.63,1.63,0,0,0,349.56,19.78Z"/><path class="cls-1abcd6541" d="M364.87,27v2.56h-8.12V28.08c0-2.07.73-2.76,2.92-4.15a3.75,3.75,0,0,0,2.12-3,.82.82,0,0,0-.73-.9c-.2,0-1.13-.18-1.13,1.84l-3.1-.36A4,4,0,0,1,361,17.45a3.51,3.51,0,0,1,3.84,3.47,3.89,3.89,0,0,1-1.69,3.4c-1.26,1-2.89,1.46-2.9,2.68Z"/><path class="cls-1abcd6541" d="M370.64,29.67c-2.35,0-4.77-1.49-4.76-4.27V21.71c0-2.76,2.43-4.25,4.77-4.24,2.52,0,4.72,1.31,4.78,4.26l0,3.69C375.39,28.2,373,29.67,370.64,29.67Zm0-9.63A1.65,1.65,0,0,0,369,21.72v3.66a1.68,1.68,0,1,0,3.35,0V21.73A1.64,1.64,0,0,0,370.66,20Z"/><path class="cls-1abcd6541" d="M381.13,29.61h-3.08l0-9.47h-1.62V17.56h4.7Z"/><path class="cls-1abcd6541" d="M382.17,21.94a4.25,4.25,0,0,1,4.57-4.44c2.73,0,4.5,1.78,4.5,4.19,0,2.76-2.61,6.17-3.82,7.93H383.9l2.92-4.23a2.74,2.74,0,0,1-1.77.54C383.45,25.92,382.17,24.32,382.17,21.94Zm3.1-.27c0,1,.49,1.67,1.46,1.68s1.41-.63,1.41-1.67a1.44,1.44,0,1,0-2.87,0Z"/><polygon class="cls-2abcd654" points="399.71 216.18 419.28 196.62 403.79 203.38 399.71 216.18"/></g></g></svg>