<svg id="Layer_1" data-name="Layer 1" xmlns="http://www.w3.org/2000/svg" viewBox="0 0 928.19 615.77"><defs><style>.cls-1{fill:#f1f6f8;}.cls-11,.cls-2{fill:#fff;}.cls-12,.cls-13,.cls-14,.cls-3,.cls-5,.cls-8,.cls-9{fill:none;}.cls-13,.cls-3{stroke:#ff8288;}.cls-10,.cls-12,.cls-13,.cls-14,.cls-3,.cls-5,.cls-8,.cls-9{stroke-miterlimit:10;}.cls-10,.cls-3{stroke-width:1.83px;}.cls-10,.cls-4{fill:#ecf3f6;}.cls-5{stroke:#fff;}.cls-5,.cls-9{stroke-linecap:round;}.cls-5,.cls-8,.cls-9{stroke-width:3.17px;}.cls-6{fill:#baccd3;opacity:0.4;}.cls-7{fill:#aac6ca;}.cls-10,.cls-12,.cls-14,.cls-8,.cls-9{stroke:#aac6ca;}.cls-11{fill-rule:evenodd;}.cls-12{stroke-width:3.87px;}.cls-13{stroke-width:2.72px;}.cls-14{stroke-width:4.4px;}</style></defs><title>ssmentor</title><path class="cls-1" d="M40.18,398.91H306a0,0,0,0,1,0,0V442.1a32,32,0,0,1-32,32H40.18a0,0,0,0,1,0,0V398.91A0,0,0,0,1,40.18,398.91Z" transform="translate(346.22 872.99) rotate(-180)"/><path class="cls-1" d="M0,439.44H176.23a0,0,0,0,1,0,0V455.1a19,19,0,0,1-19,19H0a0,0,0,0,1,0,0V439.44A0,0,0,0,1,0,439.44Z" transform="translate(176.23 913.52) rotate(-180)"/><path class="cls-1" d="M156.43,398.91H856a32,32,0,0,1,32,32v43.19a0,0,0,0,1,0,0H156.43a0,0,0,0,1,0,0V398.91A0,0,0,0,1,156.43,398.91Z"/><path class="cls-1" d="M752,439.44H909.2a19,19,0,0,1,19,19v15.66a0,0,0,0,1,0,0H752a0,0,0,0,1,0,0V439.44A0,0,0,0,1,752,439.44Z"/><path class="cls-1" d="M243.64,366.12H633.19a19,19,0,0,1,19,19v15.66a0,0,0,0,1,0,0H243.64a0,0,0,0,1,0,0V366.12a0,0,0,0,1,0,0Z"/><polygon class="cls-1" points="235.41 474.09 119.58 474.09 145.73 251.52 212.26 251.52 235.41 474.09"/><polygon class="cls-1" points="135.76 219.41 179.7 171.11 223.63 219.41 135.76 219.41"/><rect class="cls-1" x="145.87" y="219.41" width="66.39" height="32.11" transform="translate(358.13 470.94) rotate(-180)"/><circle class="cls-2" cx="179.7" cy="237.49" r="12.45"/><path class="cls-3" d="M308.26,105.27a12.86,12.86,0,0,0-12.86,12.86"/><path class="cls-3" d="M282,105.27a12.86,12.86,0,0,1,12.86,12.86"/><path class="cls-3" d="M269.42,72.3a12.86,12.86,0,0,0-12.86,12.86"/><path class="cls-3" d="M243.15,72.3A12.86,12.86,0,0,1,256,85.16"/><path class="cls-4" d="M239.32,430.5s-91.23-104.94-7.68-172c0,0,69.87-64,164.73-20.93,0,0,61.19,31.57,66.32,108,0,0,1.38,41.48-21.24,72.84,0,0-.29,10.93,23.82,9.85,0,0,34.2-.14,39.59-52.61,0,0-11-75.29,44.61-80.25,0,0-16.26,9.6-14.29,37S557,460.5,508.7,482.87c0,0-27.17,16.38-59.95,7.66,0,0-15.19,19.57-46,25S340,521.61,340,521.61l-21.24-3-25.8-5.85-7.72-1.75s-32.83,55-66.92,52.15-58.4-17-46.64-60.06,67.25-66.1,67.25-66.1Z"/><path class="cls-2" d="M249.16,438.37s-72,33.76-78.25,89.26C170.91,527.63,161,461.3,249.16,438.37Z"/><path class="cls-2" d="M334,223.23s86.14,2.41,113.39,88.4c0,0,21.12,63.55-18.57,107.4l12.68,2.91,12.7-27.79,9-26.49v-26.3s-.31-32.13-26.91-71.41S334,223.23,334,223.23Z"/><path class="cls-2" d="M541.14,297s-29.61,14.21-29.61,40.14,13.94,96.83-48.4,101.28c0,0-19.46.37-26.91-10.4l5.25-6s4.85,5.76,14.33,6,33.94.66,41-21.77,7-15.65,7-15.65l.83-17,.78-33.62S506.56,305.32,541.14,297Z"/><path class="cls-4" d="M508.7,482.87s32.81,60.38-58.89,89.53c0,0,13.19-36.44-26.05-64.64,0,0,20.93-12.18,25-17.23C448.75,490.53,490.2,499.7,508.7,482.87Z"/><path class="cls-5" d="M498.42,503.15s-2,18.65-26.57,35.46"/><path class="cls-6" d="M439.27,499.51s31.56-3.17,71.07,24.27c0,0,5.72-18.26.77-34,0,0,1.95-11.45-14.36-1.56l-37.06,4.08S450.37,482.93,439.27,499.51Z"/><path class="cls-6" d="M323.58,494.32s25.45,16.2,48.64-1.88c0,0,26.3,11.33,43.7-9.57,0,0,20.61,6,29.1-13.63,0,0,1.06,16.44-1.37,24.37l-4.38,5.9-14.47,8.95L409.73,514,381,521.55l-48.29-.95Z"/><path class="cls-4" d="M325.48,519.59s-30.28,24-16.12,71c0,0-57-6.65-81.07-27.19,0,0,30.72-9.15,59.11-52.63Z"/><path class="cls-5" d="M262.8,558.19s10.52,7.42,30.3,10"/><path class="cls-6" d="M249.23,574.69s36-18.75,43.7-61.88l-7.72-1.75s-33.18,47-56.47,52.15Z"/><path class="cls-7" d="M444,490.48c.92-4,.21-1.12.46-2l.09,0,.21.06.43.1.88.19,1.79.34c1.19.22,2.4.4,3.6.58,2.41.35,4.84.63,7.26.82a110.94,110.94,0,0,0,14.58.3,79.59,79.59,0,0,0,28.19-6.18,57.86,57.86,0,0,0,22.56-17.37,72.56,72.56,0,0,0,12.46-25.82,123.37,123.37,0,0,0,3.91-28.81A206,206,0,0,0,539,383.47c-1.11-9.72-2.75-19.41-4.76-29a62.1,62.1,0,0,1-1.34-15.12,72.85,72.85,0,0,1,1.93-15A68.61,68.61,0,0,1,548,297.29l.59-.74.29-.37L549,296l-.05.07a.6.6,0,0,0,0,.5.78.78,0,0,0,.54.47.52.52,0,0,0,.17,0s.13,0,0,0l-.46.06-.89.12-1.79.27a57,57,0,0,0-7,1.63,45.29,45.29,0,0,0-12.79,6.17,42,42,0,0,0-10.08,10A50.89,50.89,0,0,0,510.08,328c-3.22,9.06-4.35,18.84-4.36,28.56,0,2.43.06,4.87.2,7.3s.37,4.82.49,7.4a53.54,53.54,0,0,1-.26,7.6c-.28,2.54-.75,5-1.23,7.43a91.43,91.43,0,0,1-4.11,14.45,57.32,57.32,0,0,1-7.07,13.37,38.34,38.34,0,0,1-11.14,10.42,35.8,35.8,0,0,1-14.46,4.89,47.45,47.45,0,0,1-15.14-.78,55.92,55.92,0,0,1-14.22-5l1-1.84a53.91,53.91,0,0,0,6.75,2.54,62.94,62.94,0,0,0,7,1.74,46.72,46.72,0,0,0,14.29.6,33,33,0,0,0,13.32-4.55,35.51,35.51,0,0,0,10.27-9.69,54.49,54.49,0,0,0,6.66-12.72,87.14,87.14,0,0,0,3.92-14c.46-2.39.92-4.79,1.16-7.15a49.05,49.05,0,0,0,.22-7.17c-.11-2.34-.41-4.88-.52-7.35s-.22-5-.22-7.47c0-10,1.08-20.08,4.43-29.64A54.58,54.58,0,0,1,514,313.38a45.54,45.54,0,0,1,10.82-10.77,48.42,48.42,0,0,1,13.71-6.67,59.37,59.37,0,0,1,7.4-1.76l1.87-.29.94-.13.46-.06a3.09,3.09,0,0,1,.47,0,2.73,2.73,0,0,1,.62.09,2.63,2.63,0,0,1,1.84,1.67,2.91,2.91,0,0,1-.48,2.75l-.15.18-.28.36-.56.71a65,65,0,0,0-12.38,25.75,68.56,68.56,0,0,0-1.79,14.27,58.74,58.74,0,0,0,1.32,14.27c2.06,9.7,3.77,19.47,4.91,29.33a210,210,0,0,1,1.41,29.78A126.23,126.23,0,0,1,540,442.47a85.05,85.05,0,0,1-5.22,14.16,67.77,67.77,0,0,1-8,12.84,61.08,61.08,0,0,1-24,18.15,82.35,82.35,0,0,1-29.31,6.19,106.7,106.7,0,0,1-15-.55c-2.48-.28-4.95-.63-7.4-1.08-1.23-.22-2.45-.48-3.67-.76l-1.82-.45-.92-.25-.46-.13-.24-.07-.13,0c.2-.9-.63,1.93.27-2.07Z"/><ellipse class="cls-7" cx="318.73" cy="399.73" rx="15.71" ry="10.2" transform="translate(-105.16 685.55) rotate(-85.42)"/><ellipse class="cls-7" cx="430.04" cy="403.38" rx="15.71" ry="10.2" transform="translate(-6.36 799.86) rotate(-85.42)"/><path class="cls-7" d="M329.82,520a83.86,83.86,0,0,0-7.89-20.51,52.21,52.21,0,0,0-6.24-8.85,39.75,39.75,0,0,0-8.08-7,39.31,39.31,0,0,0-20.27-6.23,51.77,51.77,0,0,0-10.82.75c-1.79.31-3.57.7-5.32,1.17q-1.32.36-2.61.78c-.42.15-.85.29-1.26.45l-.62.24-.28.11-.12.06-.05,0,.13-.08-.49.23c-.32.1-.85.3-1.29.48l-1.39.6c-.93.41-1.85.86-2.78,1.31-1.85.91-3.67,1.9-5.51,2.85s-3.72,1.87-5.62,2.75a59.78,59.78,0,0,1-5.88,2.4,47.37,47.37,0,0,1,4.83-4.16q2.52-1.91,5.21-3.57c1.79-1.11,3.64-2.13,5.51-3.13.93-.5,1.88-1,2.84-1.45.49-.24,1-.47,1.48-.69s.95-.42,1.63-.66l-.49.24.29-.17.11-.05.2-.1.36-.15.69-.29,1.38-.51c.92-.33,1.84-.62,2.77-.9a57.75,57.75,0,0,1,5.64-1.34,55.47,55.47,0,0,1,11.59-.93,42.27,42.27,0,0,1,22.25,6.74,47.35,47.35,0,0,1,15.43,17.32,81.56,81.56,0,0,1,7.75,21.57Z"/><path class="cls-7" d="M228.94,562.45a106.76,106.76,0,0,0,9.32,5.58q4.8,2.58,9.79,4.85a200.75,200.75,0,0,0,20.37,8,230,230,0,0,0,42.65,9.64,254.39,254.39,0,0,0,43.71,1.8,283.18,283.18,0,0,0,43.43-5.36,321.78,321.78,0,0,0,42.25-11.6l2.6-.91,1.33-.46,1.28-.41c1.71-.57,3.41-1.2,5.1-1.85,3.39-1.3,6.73-2.74,10-4.27a142.5,142.5,0,0,0,18.95-10.66,95.15,95.15,0,0,0,16.55-13.9,69,69,0,0,0,6.71-8.38,55.77,55.77,0,0,0,5.1-9.39,48.49,48.49,0,0,0,3.84-20.8,69.58,69.58,0,0,0-4.28-21l2.08-.83a59.15,59.15,0,0,1,5.33,21.73,50.89,50.89,0,0,1-4,22.15,58.7,58.7,0,0,1-5.39,9.92,71.75,71.75,0,0,1-7,8.79,99,99,0,0,1-17.09,14.37,155,155,0,0,1-40.1,18.83,322.66,322.66,0,0,1-42.65,11.53A286.44,286.44,0,0,1,354.89,595a257.57,257.57,0,0,1-44.15-2,233,233,0,0,1-43.08-9.9A206.52,206.52,0,0,1,247.08,575c-3.35-1.55-6.66-3.19-9.91-5a107.89,107.89,0,0,1-9.54-5.76Z"/><path class="cls-7" d="M294.2,420.56a31,31,0,0,1,9.8-5.37,33.77,33.77,0,0,1,11.18-1.92,28.41,28.41,0,0,1,11.19,2.2,25.37,25.37,0,0,1,9.18,6.47,55.85,55.85,0,0,0-10-4.06,41.46,41.46,0,0,0-10.37-1.46,50.69,50.69,0,0,0-10.52,1.07A71.18,71.18,0,0,0,294.2,420.56Z"/><path class="cls-7" d="M408,423a31.07,31.07,0,0,1,10.23-4.49,33.81,33.81,0,0,1,11.31-.94,28.39,28.39,0,0,1,11,3.17,25.37,25.37,0,0,1,8.57,7.24,55.64,55.64,0,0,0-9.62-4.91,41,41,0,0,0-10.2-2.36,50,50,0,0,0-10.58.15A71.23,71.23,0,0,0,408,423Z"/><path class="cls-7" d="M285.48,510.2a217.12,217.12,0,0,0,21.2,5.08c7.13,1.39,14.32,2.51,21.54,3.3a227.81,227.81,0,0,0,43.45.77,189.55,189.55,0,0,0,21.48-3.08A156.86,156.86,0,0,0,414,510.33l5.06-1.93c1.67-.69,3.31-1.46,5-2.18.82-.38,1.67-.71,2.47-1.13l2.41-1.24,2.41-1.25c.8-.4,1.6-.82,2.37-1.3a136,136,0,0,0,17.95-12.2l1.16,1.38L448.54,494c-.72.57-1.41,1.18-2.15,1.73l-2.25,1.61c-1.51,1.05-3,2.19-4.52,3.17l-4.69,2.94c-.78.5-1.59.95-2.4,1.37l-2.44,1.32-2.43,1.31c-.82.44-1.67.79-2.5,1.19-1.67.77-3.33,1.58-5,2.32L415,513l-1.29.51-1.3.45-2.62.89-2.63.88c-.87.3-1.77.52-2.65.78-1.78.48-3.55,1-5.34,1.47l-5.38,1.25a185.53,185.53,0,0,1-21.86,3.24,220.45,220.45,0,0,1-44-1.11,231.81,231.81,0,0,1-42.95-9.46Z"/><path class="cls-8" d="M423.76,507.76s35.52,23,26.52,65.79"/><path class="cls-7" d="M326.87,352.42a71.17,71.17,0,0,0-10.11.65,43.83,43.83,0,0,0-9.5,2.41,35.85,35.85,0,0,0-4.39,2.07,38.7,38.7,0,0,0-4.05,2.72,47.06,47.06,0,0,0-7.08,7.16,23.77,23.77,0,0,1,5.45-9,25,25,0,0,1,8.92-5.93,28.4,28.4,0,0,1,10.46-2A26.28,26.28,0,0,1,326.87,352.42Z"/><path class="cls-7" d="M422,348.9a26.71,26.71,0,0,1,20.81,5.16,22.72,22.72,0,0,1,6.76,8.83,24.57,24.57,0,0,1,1.93,10.67,47.23,47.23,0,0,0-4.09-9.57,31.53,31.53,0,0,0-3-4,29.08,29.08,0,0,0-3.6-3.42,35.17,35.17,0,0,0-8.77-4.86A58.82,58.82,0,0,0,422,348.9Z"/><path class="cls-7" d="M294.48,500.67a97.84,97.84,0,0,1-11,17.26c-4.17,5.4-8.55,10.65-13.18,15.68a162.15,162.15,0,0,1-14.8,14.26,100.63,100.63,0,0,1-17,11.84,59.24,59.24,0,0,1-19.75,7,40.26,40.26,0,0,1-10.69.15,40.79,40.79,0,0,1-5.24-1c-1.69-.42-3.38-.92-5-1.49a48.27,48.27,0,0,1-18.11-10.8,41.71,41.71,0,0,1-10.84-18.16A50.71,50.71,0,0,1,167,525a51.54,51.54,0,0,1,.21-10.6,85.84,85.84,0,0,1,5.47-20.07,86.88,86.88,0,0,1,24.58-33.09,120.71,120.71,0,0,1,35.63-20.45c3.22-1.19,6.48-2.27,9.8-3.18a43,43,0,0,1,10.3-1.67,34.24,34.24,0,0,1,10.37,1.14,22.49,22.49,0,0,1,9.09,4.82c-6-3.41-12.77-4.1-19.31-3.52-1.64.17-3.28.37-4.89.7-.82.16-1.57.33-2.4.56s-1.6.42-2.4.66c-3.21.93-6.38,2-9.5,3.26A119,119,0,0,0,199.58,464a84.05,84.05,0,0,0-23.24,31.85,82.3,82.3,0,0,0-5.18,19.11,48,48,0,0,0,1.62,19.28,37.61,37.61,0,0,0,9.82,16.4,44,44,0,0,0,16.6,9.83,51.14,51.14,0,0,0,9.44,2.36,36.39,36.39,0,0,0,9.61-.09,55.25,55.25,0,0,0,18.45-6.44c11.63-6.38,21.89-15.29,31.29-24.88,4.7-4.82,9.18-9.87,13.47-15.09S290,505.81,294.48,500.67Z"/><path class="cls-8" d="M309.36,590.55c-9.83-52.17,16.12-71,16.12-71"/><path class="cls-9" d="M496.75,569.71S457.9,609.4,356.62,614"/><path class="cls-9" d="M215.15,574.69s25.59,21,60.55,28.58"/><path class="cls-9" d="M331.51,613.88a63.64,63.64,0,0,0,11.38.12"/><circle class="cls-7" cx="351.65" cy="417.34" r="2.91"/><circle class="cls-7" cx="367.25" cy="409.11" r="2.91"/><circle class="cls-7" cx="397.83" cy="409.11" r="2.91"/><circle class="cls-7" cx="383" cy="418.96" r="2.91"/><path class="cls-7" d="M441.13,497.56a36.84,36.84,0,0,0,3.25-18.35,43.63,43.63,0,0,0-.9-6.21,55.37,55.37,0,0,0-4.06-11.9,61.21,61.21,0,0,0-6.4-10.77h0l-.2-.26-.09-.28a32.82,32.82,0,0,1-1.81-10.06,21.37,21.37,0,0,1,.68-5.23,28.54,28.54,0,0,1,1.77-4.85,93.35,93.35,0,0,1,4.78-8.67c1.68-2.77,3.35-5.52,5-8.3,3.24-5.54,6.27-11.2,9-17,.7-1.44,1.37-2.9,2-4.35s1.27-2.87,1.83-4.35a72.27,72.27,0,0,0,2.73-9c2.86-12.32,2.94-25.25,1.32-37.87a148.58,148.58,0,0,0-9.87-36.84,142.09,142.09,0,0,0-19-33.05,116.71,116.71,0,0,0-27.69-25.95,102,102,0,0,0-16.74-8.95c-2.92-1.25-5.91-2.29-8.93-3.26s-6.12-1.79-9.21-2.54a157.45,157.45,0,0,0-38-4.22c-25.52.3-51.11,6.34-73.64,18.33a126.06,126.06,0,0,0-30.59,22.59,100.73,100.73,0,0,0-21.16,31.32,90.34,90.34,0,0,0-3.26,8.91,67.59,67.59,0,0,0-2.24,9.16,79.76,79.76,0,0,0-1,18.85c.76,12.65,4.07,25.11,8.64,37a229.23,229.23,0,0,0,17.1,34.37q4.92,8.26,10.4,16.22c3.64,5.3,7.43,10.53,11.41,15.54l-1.49,1.32a226.41,226.41,0,0,1-23.5-31.13,203.88,203.88,0,0,1-17.72-34.85c-4.68-12.2-8.11-25-8.91-38.25a83.76,83.76,0,0,1,1-19.8,70.52,70.52,0,0,1,2.36-9.66,93.14,93.14,0,0,1,3.4-9.3,104.76,104.76,0,0,1,22-32.59A130,130,0,0,1,255.12,240a157.23,157.23,0,0,1,36.65-13.92,171,171,0,0,1,38.88-4.91,161.87,161.87,0,0,1,39,4.33q4.77,1.16,9.48,2.61c3.13,1,6.26,2.09,9.29,3.39a104.37,104.37,0,0,1,17.41,9.32,120.48,120.48,0,0,1,28.69,26.85,146.22,146.22,0,0,1,19.56,34,148.8,148.8,0,0,1,10,37.9,125.44,125.44,0,0,1,1,19.67,97.08,97.08,0,0,1-2.52,19.6,76,76,0,0,1-2.92,9.5c-.59,1.55-1.26,3.1-1.95,4.58s-1.38,2.95-2.1,4.41c-2.84,5.86-5.95,11.61-9.25,17.21-1.65,2.81-3.36,5.57-5,8.32a87.79,87.79,0,0,0-4.63,8.29,20.07,20.07,0,0,0-2.16,8.6,29.19,29.19,0,0,0,1.6,8.95l-.29-.54h0a62.84,62.84,0,0,1,6.51,11.62,58.11,58.11,0,0,1,3.94,12.66,44.44,44.44,0,0,1,.76,6.62,39,39,0,0,1-.26,6.66,38.14,38.14,0,0,1-3.83,12.7Z"/><path class="cls-7" d="M230.89,422.55s9.08,13-5.52,20.29,18.25-4.08,18.25-4.08S244.71,430.23,230.89,422.55Z"/><path class="cls-7" d="M445.23,417.3s-3.48,5.46,4.47,7.41-3.72.68-3.72.68S435.05,420.37,445.23,417.3Z"/><path class="cls-7" d="M448.75,490.53s-4.8-1.93-5.88,6.36C442.87,496.89,452.75,490.63,448.75,490.53Z"/><ellipse class="cls-2" cx="307.48" cy="440.02" rx="16.1" ry="7.3"/><ellipse class="cls-6" cx="240.66" cy="298.17" rx="21.85" ry="14.97" transform="translate(-75.75 514.27) rotate(-85.42)"/><ellipse class="cls-6" cx="225.64" cy="345.85" rx="15.94" ry="11.13" transform="translate(-137.1 543.17) rotate(-85.42)"/><ellipse class="cls-2" cx="317.47" cy="394.15" rx="3.09" ry="3.6"/><ellipse class="cls-2" cx="428.56" cy="397.75" rx="3.09" ry="3.6"/><path class="cls-7" d="M405.7,441.85a49.91,49.91,0,0,1,8.86,16.68,68.35,68.35,0,0,1,3.2,18.8,69.52,69.52,0,0,1-2,19c-.43,1.54-.81,3.09-1.33,4.6-.25.75-.5,1.51-.77,2.26l-.87,2.23c-.55,1.49-1.27,2.91-1.9,4.37s-1.46,2.82-2.18,4.23l-2.5-1.28c.62-1.41,1.26-2.8,1.85-4.21s1.18-2.82,1.65-4.28l.74-2.16.66-2.19c.48-1.45.8-2.94,1.18-4.41a74.23,74.23,0,0,0,1.54-9,70.92,70.92,0,0,0,.44-9.1,76.91,76.91,0,0,0-.68-9.1,88.5,88.5,0,0,0-1.77-9c-.73-3-1.6-5.92-2.62-8.83A87.1,87.1,0,0,0,405.7,441.85Z"/><path class="cls-7" d="M362.51,520.8l2-4.23c.6-1.43,1.28-2.84,1.81-4.3s1.13-2.9,1.58-4.39l.71-2.22.63-2.24c.46-1.48.73-3,1.11-4.51s.61-3,.77-4.58a68.33,68.33,0,0,0,.68-9.26,62.4,62.4,0,0,0-.56-9.26,67.48,67.48,0,0,0-1.81-9.12,76.43,76.43,0,0,0-3.05-8.81l-3.6-8.78a26.82,26.82,0,0,1,5.84,7.75,58,58,0,0,1,3.59,9,66,66,0,0,1,3,19.2,64.64,64.64,0,0,1-.63,9.73c-.17,1.62-.52,3.21-.79,4.81s-.66,3.19-1.13,4.74L372,506.7c-.24.77-.52,1.54-.78,2.3-.5,1.55-1.13,3-1.72,4.55s-1.32,3-2,4.44-1.49,2.86-2.23,4.3Z"/><path class="cls-7" d="M341.47,237.59a35.89,35.89,0,0,1,9.7,3.35c1.53.78,3,1.63,4.5,2.56s2.84,2,4.21,3a52.17,52.17,0,0,1,7.41,7.3,60,60,0,0,1,5.88,8.61,65.9,65.9,0,0,1,4.26,9.47c.52,1.65,1.12,3.27,1.53,4.95.23.83.44,1.67.65,2.5l.5,2.53a77,77,0,0,1,1.2,20.42,138.65,138.65,0,0,0-3.65-19.85l-.67-2.41-.77-2.37c-.46-1.6-1.12-3.13-1.68-4.69a79.53,79.53,0,0,0-4.26-8.94,64.39,64.39,0,0,0-12.15-15.5A59,59,0,0,0,341.47,237.59Z"/><path class="cls-9" d="M838.41,558.19c0-28.89-40.61-52.32-90.71-52.32-42.45,0-78.1,16.83-88,39.55A31.77,31.77,0,0,0,657,558.19"/><path class="cls-10" d="M676.86,237.59s-17.09-109.73,90.76-114.31c0,0,70.56,1.24,89.21,79.2,0,0,18.57,64.22-73.67,124.66,0,0-6.5,118.57,28.74,221.52l-.13,12.75S793.89,576.58,785,579.13s-69.11,20.62-93-17.56c0,0-24.88-143-11.26-207.23,0,0-81.34-9.21-89.15-50.19S587.46,220.31,676.86,237.59Z"/><path class="cls-11" d="M783.16,327.14s-29.5,66.94,23.69,236.18l4.92-1.91.13-12.75S767.34,364.37,783.16,327.14Z"/><path class="cls-9" d="M723.62,608.64a153.61,153.61,0,0,0,24.08,1.87,147.14,147.14,0,0,0,39.88-5.32A97.13,97.13,0,0,0,820.7,589"/><path class="cls-9" d="M711.87,606.57a18.71,18.71,0,0,1-8.35-2.69"/><path class="cls-2" d="M692,171.11s22.33-48.91,93-36.93c0,0,44,8.48,60.73,59.39s-11.38,90-15,93.42c0,0,26.2-21,30-68.53l-5-20.88s-28.09-81.77-88.12-74.3S690.56,161,692,171.11Z"/><path class="cls-2" d="M592.49,258.07s49.3-42,110.29,12.4c0,0-2-33.22-55.14-37.24C647.64,233.23,596.06,238.9,592.49,258.07Z"/><ellipse class="cls-2" cx="802.32" cy="248.2" rx="16.1" ry="7.3"/><path class="cls-7" d="M797,266.73A104.16,104.16,0,0,1,791,279c-2.23,4-4.67,7.81-7.23,11.58a163.22,163.22,0,0,1-17.4,21.1C753.6,324.72,738.7,336,721.86,343.47A111.75,111.75,0,0,1,668,353a120.65,120.65,0,0,1-13.68-1.75A117.28,117.28,0,0,1,640.88,348a94.16,94.16,0,0,1-25.06-11.64,71,71,0,0,1-19.69-19.51,64.93,64.93,0,0,1-10.2-25.81,58.49,58.49,0,0,1,2-27.72,38.93,38.93,0,0,1,6.76-12.49c.37-.47.8-.9,1.2-1.36l1.23-1.26c.82-.83,1.68-1.63,2.55-2.4a55,55,0,0,1,5.54-4.33,61.07,61.07,0,0,1,26-10.07,77,77,0,0,1,53.3,12.34,50.75,50.75,0,0,1,10.35,9.33A27.54,27.54,0,0,1,701,265.36a32.53,32.53,0,0,0-7.95-10.6,59.72,59.72,0,0,0-10.69-7.66,88.48,88.48,0,0,0-24.51-9.31,79.8,79.8,0,0,0-26-1.54,55.21,55.21,0,0,0-24.39,8.58,49.73,49.73,0,0,0-5.19,4q-1.23,1.07-2.4,2.22l-1.15,1.15c-.34.4-.71.77-1,1.19a34.94,34.94,0,0,0-6,11.23,54.75,54.75,0,0,0-1.83,25.85,60.89,60.89,0,0,0,9.6,24.23A67.32,67.32,0,0,0,618.1,333a90.06,90.06,0,0,0,24,11A115,115,0,0,0,655.06,347a117.72,117.72,0,0,0,13.21,1.66,108.73,108.73,0,0,0,26.48-1.41,113.51,113.51,0,0,0,25.37-7.73c16.28-7.14,30.86-17.95,43.41-30.64a239.57,239.57,0,0,0,17.71-20.18Q789.58,278.15,797,266.73Z"/><path class="cls-7" d="M785,265a10.19,10.19,0,0,1,2.87-1.09,13.43,13.43,0,0,1,3.11-.37,12.23,12.23,0,0,1,6.24,1.69,10.58,10.58,0,0,1,4.43,4.84l.34.75c.09.25.14.52.21.78.13.52.23,1,.32,1.56a11.69,11.69,0,0,1-.19,3.18,24.17,24.17,0,0,1-1.77-2.48q-.43-.57-.81-1.14l-.37-.57-.42-.51-.78-1c-.31-.3-.58-.62-.86-.94a7.32,7.32,0,0,0-.9-.86l-.46-.42-.53-.35a14.55,14.55,0,0,0-4.74-2.14A28.8,28.8,0,0,0,785,265Z"/><ellipse class="cls-7" cx="625.38" cy="274.83" rx="4.72" ry="9.47"/><path class="cls-7" d="M679.76,369.64c1.19.13,2.56.24,3.86.31s2.66.1,4,.11a79.57,79.57,0,0,0,8-.41,66,66,0,0,0,8-1.25c2.67-.51,5.27-1.27,8-2a35.73,35.73,0,0,1-7.33,4.09,51,51,0,0,1-8,2.57,60.62,60.62,0,0,1-8.37,1.38c-1.41.13-2.83.24-4.26.26a43.09,43.09,0,0,1-4.36-.11Z"/><ellipse class="cls-7" cx="757.01" cy="237.59" rx="15.09" ry="7.9" transform="translate(459.77 973.23) rotate(-85.42)"/><ellipse class="cls-7" cx="696.45" cy="220.71" rx="15.09" ry="7.9" transform="translate(420.87 897.33) rotate(-85.42)"/><path class="cls-12" d="M681.36,351s-13.94,65.52,10,208.72h0c4.36,14.56,22.73,25.72,53.49,25.72,33.81,0,68.53-13.51,68.53-30.17a15.86,15.86,0,0,0-1.48-6.59c-41.68-142.88-28.74-221.52-28.74-221.52h0C925.13,236.3,834,123.45,771,123.25c-107.51-.33-93.54,120-93.54,120"/><path class="cls-7" d="M757,193.57a17.54,17.54,0,0,1,5.74-.4,23.07,23.07,0,0,1,5.72,1.21,23.9,23.9,0,0,1,9.89,6.51,25.73,25.73,0,0,1,5.74,10.27,27.32,27.32,0,0,1,.89,11.38,93.16,93.16,0,0,0-4.3-10,35.92,35.92,0,0,0-5.84-8.37,35.13,35.13,0,0,0-8-6.22A54,54,0,0,0,757,193.57Z"/><path class="cls-7" d="M680,181.65a17,17,0,0,1,3-5,22,22,0,0,1,4.37-4,23.52,23.52,0,0,1,11.23-4.15,25.41,25.41,0,0,1,11.79,1.64,26.15,26.15,0,0,1,9.57,6.37c-3.73-.91-7.23-1.79-10.68-2.27A37.55,37.55,0,0,0,699.2,174a37.11,37.11,0,0,0-9.64,2.57A60.85,60.85,0,0,0,680,181.65Z"/><ellipse class="cls-6" cx="830.71" cy="202.59" rx="9.7" ry="13.89" transform="translate(-20.69 123.58) rotate(-8.4)"/><ellipse class="cls-6" cx="809.5" cy="173.82" rx="11.44" ry="16.38" transform="translate(-16.71 120.17) rotate(-8.4)"/><ellipse class="cls-7" cx="598.83" cy="267.2" rx="8.59" ry="4.15" transform="translate(68.01 652.2) rotate(-60)"/><ellipse class="cls-2" cx="756.36" cy="231.9" rx="3.09" ry="3.6"/><ellipse class="cls-2" cx="695.75" cy="214.61" rx="3.09" ry="3.6"/><polyline class="cls-13" points="489.89 88.43 472.47 105.85 489.89 123.26"/><polyline class="cls-13" points="535.7 123.26 553.12 105.85 535.7 88.43"/><line class="cls-13" x1="524.76" y1="81.61" x2="500.34" y2="130.91"/><path class="cls-14" d="M600.55,159.59a104.07,104.07,0,1,0-177.34,2.21l-7.37,39,33.9-10.54a104,104,0,0,0,123.44-.38l35.15,10.92Z"/></svg>