<svg xmlns="http://www.w3.org/2000/svg" viewBox="0 0 928.07 626.08"><defs><style>.cls-1{isolation:isolate;}.cls-12,.cls-ayw261,.cls-7{fill:#ecf3f6;}.cls-13,.cls-3,.cls-6{fill:none;}.cls-11,.cls-12,.cls-3,.cls-6,.cls-7,.cls-9{stroke:#aac6ca;}.cls-11,.cls-12,.cls-13,.cls-3,.cls-6,.cls-7,.cls-9{stroke-miterlimit:10;}.cls-11,.cls-12,.cls-3{stroke-width:1.86px;}.cls-11,.cls-4,.cls-9{fill:#fff;}.cls-5{fill:#f1f6f8;}.cls-13,.cls-6,.cls-7,.cls-9{stroke-width:2.35px;}.cls-14,.cls-8{fill:#baccd3;mix-blend-mode:multiply;}.cls-8{opacity:0.4;}.cls-10{fill:#ff8288;}.cls-13{stroke:#ff8288;}.cls-14{opacity:0.3;}.cls-15{fill:#aac6ca;fill-rule:evenodd;}</style></defs><title>framework</title><g class="cls-1"><g id="Layer_1" data-name="Layer 1"><rect class="cls-ayw261" x="538.93" y="374.33" width="39.33" height="39.33"/><rect class="cls-ayw261" x="499.6" y="374.33" width="39.33" height="39.33"/><rect class="cls-ayw261" x="460.27" y="374.33" width="39.33" height="39.33"/><rect class="cls-ayw261" x="420.94" y="374.33" width="39.33" height="39.33"/><rect class="cls-ayw261" x="381.61" y="374.33" width="39.33" height="39.33"/><rect class="cls-ayw261" x="342.28" y="374.33" width="39.33" height="39.33"/><rect class="cls-ayw261" x="302.96" y="374.33" width="39.33" height="39.33"/><rect class="cls-ayw261" x="263.63" y="374.33" width="39.33" height="39.33"/><line class="cls-3" x1="309.97" y1="368.7" x2="40.17" y2="190.13"/><rect class="cls-ayw261" x="263.63" y="335" width="39.33" height="39.33"/><polygon class="cls-ayw261" points="420.46 295.67 420.46 256.34 381.13 256.34 381.13 295.67 341.81 295.67 341.81 335 381.13 335 420.46 335 459.79 335 459.79 295.67 420.46 295.67"/><rect class="cls-4" x="381.13" y="256.34" width="39.33" height="4.97"/><rect class="cls-4" x="263.63" y="335" width="39.33" height="4.97"/><rect class="cls-4" x="341.8" y="295.67" width="117.99" height="4.97"/><circle class="cls-5" cx="664.03" cy="226.06" r="198.92"/><path class="cls-4" d="M436.67,161.11a69.43,69.43,0,0,1,128.68-24.54,39.06,39.06,0,0,1,55.4,24.54Z"/><path class="cls-4" d="M928.07,250.57c-4.52-32.85-30.57-58-62-58-23.14,0-43.34,13.65-54.21,33.93a32.94,32.94,0,0,0-16-4.17c-16.29,0-30,12-34.08,28.29Z"/><rect class="cls-3" x="0.93" y="302.89" width="63.96" height="63.96"/><rect class="cls-ayw261" x="338.08" y="155.13" width="39.33" height="39.33"/><rect class="cls-ayw261" x="298.76" y="155.13" width="39.33" height="39.33"/><rect class="cls-ayw261" x="259.43" y="155.13" width="39.33" height="39.33"/><rect class="cls-4" x="263.63" y="374.33" width="311.09" height="4.41"/><rect class="cls-ayw261" x="259.43" y="194.46" width="39.33" height="39.33"/><rect class="cls-4" x="260.77" y="155.13" width="116.64" height="4.97"/><rect class="cls-4" x="222.92" y="192.31" width="77.99" height="4.97" transform="translate(456.71 -67.11) rotate(90)"/><rect class="cls-6" x="338.08" y="155.13" width="39.33" height="39.33"/><rect class="cls-6" x="298.76" y="155.13" width="39.33" height="39.33"/><rect class="cls-6" x="259.43" y="155.13" width="39.33" height="39.33"/><rect class="cls-6" x="259.43" y="194.46" width="39.33" height="39.33"/><rect class="cls-7" x="538.93" y="335" width="39.33" height="39.33"/><polygon class="cls-8" points="539.62 335.67 539.62 374.92 539.62 376.3 539.62 415.54 578.95 415.54 578.95 376.3 578.95 374.92 578.95 335.67 539.62 335.67"/><rect class="cls-ayw261" x="499.6" y="335" width="39.33" height="39.33"/><rect class="cls-9" x="499.6" y="414.05" width="39.33" height="39.33" transform="translate(1038.53 867.43) rotate(180)"/><rect class="cls-9" x="538.93" y="414.05" width="39.33" height="39.33" transform="translate(1117.19 867.43) rotate(180)"/><rect class="cls-ayw261" x="460.27" y="335" width="39.33" height="39.33"/><rect class="cls-6" x="341.8" y="295.67" width="39.33" height="39.33" transform="translate(722.94 630.67) rotate(180)"/><rect class="cls-6" x="381.13" y="295.67" width="39.33" height="39.33" transform="translate(801.6 630.67) rotate(180)"/><rect class="cls-6" x="381.13" y="256.34" width="39.33" height="39.33" transform="translate(801.6 552.02) rotate(180)"/><rect class="cls-6" x="420.46" y="295.67" width="39.33" height="39.33" transform="translate(880.25 630.67) rotate(180)"/><rect class="cls-ayw261" x="420.94" y="335" width="39.33" height="39.33"/><rect class="cls-9" x="381.61" y="335" width="39.33" height="39.33"/><rect class="cls-9" x="342.28" y="335" width="39.33" height="39.33"/><rect class="cls-9" x="302.48" y="295.67" width="39.33" height="39.33"/><rect class="cls-9" x="302.96" y="335" width="39.33" height="39.33"/><rect class="cls-7" x="420.94" y="413.66" width="39.33" height="39.33"/><rect class="cls-7" x="460.27" y="413.66" width="39.33" height="39.33"/><rect class="cls-6" x="538.93" y="374.33" width="39.33" height="39.33"/><rect class="cls-6" x="499.6" y="374.33" width="39.33" height="39.33"/><rect class="cls-6" x="460.27" y="374.33" width="39.33" height="39.33"/><rect class="cls-6" x="420.94" y="374.33" width="39.33" height="39.33"/><polygon class="cls-8" points="460.27 374.33 420.94 374.33 420.94 413.66 420.94 452.99 460.27 452.99 499.6 452.99 499.6 413.66 499.6 374.33 460.27 374.33"/><rect class="cls-7" x="342.28" y="413.66" width="39.33" height="39.33"/><rect class="cls-7" x="381.61" y="413.66" width="39.33" height="39.33"/><rect class="cls-7" x="302.96" y="413.66" width="39.33" height="39.33"/><rect class="cls-6" x="302.96" y="374.33" width="39.33" height="39.33"/><rect class="cls-6" x="263.63" y="374.33" width="39.33" height="39.33"/><rect class="cls-6" x="263.63" y="335" width="39.33" height="39.33"/><polygon class="cls-8" points="302.95 374.33 302.95 335 263.63 335 263.63 374.33 263.63 413.66 302.95 413.66 302.95 452.99 342.28 452.99 342.28 413.66 342.28 374.33 302.95 374.33"/><path class="cls-10" d="M33.75,330.49l-.9,1.54-3.05-5.29L20.41,343h6.36a1.54,1.54,0,0,0,1.54,1.55h-7.9a1.55,1.55,0,0,1-1.34-2.32L28.46,326a1.55,1.55,0,0,1,1.34-.77,1.57,1.57,0,0,1,1.34.77Z"/><path class="cls-10" d="M40.52,342.22,34.64,332l-.89-1.54-.9,1.54L27,342.22a1.55,1.55,0,0,0,1.34,2.32H39.18a1.56,1.56,0,0,0,1.34-.78,1.52,1.52,0,0,0,0-1.54ZM28.31,343l5.44-9.41L39.18,343Z"/><path class="cls-10" d="M44.73,343.76a1.56,1.56,0,0,1-1.34.78H39.18A1.55,1.55,0,0,0,40.73,343h2.65l-7.53-13.05L34.64,332l-.89-1.54.76-1.32a1.54,1.54,0,0,1,2.68,0l7.54,13.05A1.57,1.57,0,0,1,44.73,343.76Z"/><polygon class="cls-11" points="262.34 411.14 42.61 192.8 33.3 201.07 230.91 450.98 262.54 450.98 262.34 411.14"/><polygon class="cls-12" points="38.59 196.55 262.54 450.98 230.91 450.98 33.3 201.07 38.59 196.55"/><line class="cls-3" x1="33.3" y1="201.07" x2="33.3" y2="288"/><polyline class="cls-3" points="48.53 303.37 33.16 288 17.79 303.37"/><rect class="cls-3" x="6.78" y="308.73" width="52.26" height="52.26"/><polygon class="cls-7" points="722.88 362.6 722.88 303.39 702.83 303.39 681.52 362.6 722.88 362.6"/><polygon class="cls-ayw261" points="576.51 362.6 576.51 286.87 565.95 261.74 565.95 251.62 656.62 251.62 656.62 286.87 697.25 362.6 576.51 362.6"/><polygon class="cls-4" points="620.53 261.74 580.91 261.74 565.95 261.74 576.51 286.87 656.62 286.87 656.62 261.74 620.53 261.74"/><polygon class="cls-7" points="722.88 437.15 722.88 485.4 702.83 496.37 681.46 431.37 722.88 437.15"/><path class="cls-7" d="M704,442.92h0a42.47,42.47,0,0,0-42.48,42.48h-525L182.9,463a19.86,19.86,0,0,0,11.24-17.89h0a23.53,23.53,0,0,0-12.63-20.85l-34.39-18a50.94,50.94,0,0,1-24.76-43.68h136.8a4.7,4.7,0,0,1,4.7,4.69v13.83a32.45,32.45,0,0,0,32.45,32.45H544.06a32.45,32.45,0,0,0,32.45-32.45V362.6H761.87v23.13A57.18,57.18,0,0,1,704,442.92Z"/><polygon class="cls-6" points="576.51 362.6 576.51 286.87 565.95 261.74 565.95 251.62 656.62 251.62 656.62 286.87 697.25 362.6 576.51 362.6"/><line class="cls-7" x1="686.03" y1="446.88" x2="193.59" y2="446.88"/><line class="cls-7" x1="565.95" y1="261.74" x2="656.62" y2="261.74"/><line class="cls-7" x1="656.62" y1="286.87" x2="575.71" y2="286.87"/><path class="cls-4" d="M129.8,468.79c38.75,0,38.75,14,77.49,14s38.74-14,77.48-14,38.75,14,77.49,14,38.74-14,77.49-14,38.74,14,77.49,14,38.75-14,77.5-14V626.08H108.54Z"/><path class="cls-6" d="M129.8,468.79c38.75,0,38.75,14,77.49,14s38.74-14,77.48-14,38.75,14,77.49,14,38.74-14,77.49-14,38.74,14,77.49,14,38.75-14,77.5-14"/><path class="cls-4" d="M749.71,468.79c-38.75,0-38.75,14-77.49,14s-38.74-14-77.48-14l.91,157.29"/><path class="cls-6" d="M749.71,468.79c-38.75,0-38.75,14-77.49,14s-38.74-14-77.48-14"/><line class="cls-7" x1="597.11" y1="261.74" x2="597.11" y2="286.87"/><line class="cls-7" x1="629.63" y1="261.74" x2="629.63" y2="286.87"/><line class="cls-7" x1="575.71" y1="375.99" x2="761.87" y2="375.99"/><line class="cls-7" x1="124.22" y1="375.99" x2="263.86" y2="375.99"/><circle class="cls-4" cx="599.45" cy="312.7" r="7.45"/><circle class="cls-4" cx="626.43" cy="312.7" r="7.45"/><circle class="cls-4" cx="599.45" cy="339.19" r="7.45"/><circle class="cls-4" cx="626.43" cy="339.19" r="7.45"/><circle class="cls-4" cx="652.38" cy="339.19" r="7.45"/><line class="cls-13" x1="629.63" y1="251.62" x2="629.63" y2="225.44"/><line class="cls-13" x1="618.98" y1="251.62" x2="618.98" y2="236.66"/><line class="cls-13" x1="700.33" y1="310.98" x2="722.88" y2="310.98"/><path class="cls-14" d="M307.11,543.65a5.37,5.37,0,0,0,1.39,1,5.88,5.88,0,0,0-1.39,1,5.6,5.6,0,0,0-1,6.48l7.26-7.26,4.13,3.07a22.11,22.11,0,0,0,26.32,0l4.43-3.3-4.43-3.29a22.08,22.08,0,0,0-26.32,0l-4.13,3.07-7.26-7.26A5.59,5.59,0,0,0,307.11,543.65Z"/><path class="cls-14" d="M622.53,543.64a5.75,5.75,0,0,0,1.38,1,5.75,5.75,0,0,0-1.38,1,5.6,5.6,0,0,0-1,6.48l7.26-7.26,4.13,3.06a22.07,22.07,0,0,0,26.31,0l4.44-3.29-4.44-3.29a22.07,22.07,0,0,0-26.31,0l-4.13,3.07-7.26-7.26A5.59,5.59,0,0,0,622.53,543.64Z"/><path class="cls-14" d="M247.4,516.17a5.32,5.32,0,0,0,1.38,1,5.82,5.82,0,0,0-1.38,1,5.59,5.59,0,0,0-1,6.48l7.25-7.26,4.14,3.07a22.1,22.1,0,0,0,26.31,0l4.44-3.3-4.44-3.29a22.07,22.07,0,0,0-26.31,0L253.62,517l-7.25-7.26A5.57,5.57,0,0,0,247.4,516.17Z"/><path class="cls-13" d="M115.87,139.78A13.1,13.1,0,0,1,129,152.88"/><path class="cls-13" d="M142.64,139.78a13.1,13.1,0,0,0-13.1,13.1"/><path class="cls-13" d="M144.76,110.88A13.11,13.11,0,0,1,157.87,124"/><path class="cls-13" d="M171.54,110.88A13.11,13.11,0,0,0,158.43,124"/><circle class="cls-13" cx="143.7" cy="400.36" r="3.71"/><line class="cls-13" x1="143.7" y1="404.27" x2="143.7" y2="444.13"/><line class="cls-13" x1="153.12" y1="418.51" x2="134.29" y2="418.51"/><path class="cls-13" d="M122.36,434a27.82,27.82,0,0,0,42.29.74"/><path class="cls-15" d="M618.9,393.45a1.24,1.24,0,0,1,.34.89v17.25a1.48,1.48,0,0,1-.38,1,1.31,1.31,0,0,1-1,.4,2.37,2.37,0,0,1-.64-.1,1,1,0,0,1-.44-.3L605.63,398v13.67a1.19,1.19,0,0,1-1.16,1.25h-.11a1.16,1.16,0,0,1-.84-.36,1.23,1.23,0,0,1-.36-.87V394.44a1.33,1.33,0,0,1,.42-1,1.3,1.3,0,0,1,.91-.38,1.56,1.56,0,0,1,.64.13,1,1,0,0,1,.5.36l11.11,14.58V394.34a1.21,1.21,0,0,1,1.17-1.25h.1a1.09,1.09,0,0,1,.85.36Zm23,0a1.47,1.47,0,0,1,.36,1v10.91a8.11,8.11,0,0,1-1,4,7.08,7.08,0,0,1-2.75,2.81,7.52,7.52,0,0,1-3.94,1,8.18,8.18,0,0,1-4-1,7.25,7.25,0,0,1-2.76-2.79,8.25,8.25,0,0,1-1-4V394.49a1.3,1.3,0,0,1,.42-1,1.42,1.42,0,0,1,2,0,1.4,1.4,0,0,1,.4,1v10.87a5.16,5.16,0,0,0,.68,2.67,4.91,4.91,0,0,0,4.25,2.48,5.08,5.08,0,0,0,5.1-5.06v-11a1.57,1.57,0,0,1,.34-1,1.23,1.23,0,0,1,1-.4,1.31,1.31,0,0,1,.94.4Zm22,17.31a1.31,1.31,0,0,1,.24.81,1.22,1.22,0,0,1-.41,1,1.36,1.36,0,0,1-2-.21l-5.5-7.37-5.42,7.37a1.3,1.3,0,0,1-1.1.59,1.23,1.23,0,0,1-.87-.36,1.17,1.17,0,0,1-.35-.8,1.47,1.47,0,0,1,.33-.93l5.84-7.94-5.86-7.87a1.35,1.35,0,0,1,1.67-2,1.23,1.23,0,0,1,.51.42l5.46,7.32,5.38-7.26a1.42,1.42,0,0,1,1.08-.63,1.42,1.42,0,0,1,1.31,1.27,1.35,1.35,0,0,1-.3.84L658,402.87l5.92,7.93Zm20.42-17.35a1.21,1.21,0,0,1,.41.95,1.19,1.19,0,0,1-.43.93,1.3,1.3,0,0,1-1,.34h-5v16a1.23,1.23,0,0,1-.4.95,1.57,1.57,0,0,1-2.07,0,1.34,1.34,0,0,1-.43-.95v-16h-5a1.39,1.39,0,0,1-1-.36,1.25,1.25,0,0,1-.4-.95,1.24,1.24,0,0,1,.38-.91,1.38,1.38,0,0,1,1-.36h13A1.44,1.44,0,0,1,684.31,393.45Z"/><path class="cls-15" d="M690.49,412.47a5.88,5.88,0,0,1-2.22-2.18,1.49,1.49,0,0,1-.25-.76,1.21,1.21,0,0,1,.42-.93,1.41,1.41,0,0,1,.89-.42,1.85,1.85,0,0,1,1.27.72,3.36,3.36,0,0,0,3,1.65,3.64,3.64,0,0,0,3.75-3.53V394.47a1.29,1.29,0,0,1,.42-1,1.53,1.53,0,0,1,1-.4,1.47,1.47,0,0,1,1,.38,1.31,1.31,0,0,1,.38,1v12.49a6.12,6.12,0,0,1-3.17,5.5,6.59,6.59,0,0,1-6.45,0Zm19.58.09a9,9,0,0,1-3.05-1.91,1.53,1.53,0,0,1-.59-1.14,1.41,1.41,0,0,1,1.33-1.33,1.17,1.17,0,0,1,.83.32,8.5,8.5,0,0,0,2.33,1.54,7.66,7.66,0,0,0,2.75.51,5.37,5.37,0,0,0,3-.85,2.39,2.39,0,0,0,1.23-2.07,2.66,2.66,0,0,0-1.23-2.29A11,11,0,0,0,713,404a10.09,10.09,0,0,1-4.51-2,4.72,4.72,0,0,1-1.56-3.79,4.92,4.92,0,0,1,.89-3,5.83,5.83,0,0,1,2.41-2,9.63,9.63,0,0,1,6.85-.1,6.82,6.82,0,0,1,2.54,1.5,1.55,1.55,0,0,1,.64,1.21,1.3,1.3,0,0,1-.38.91,1.23,1.23,0,0,1-.93.42,1,1,0,0,1-.64-.23,6.75,6.75,0,0,0-4.53-1.74,5.28,5.28,0,0,0-3,.76,2.53,2.53,0,0,0-.7,3.5,2.42,2.42,0,0,0,.7.69,10.5,10.5,0,0,0,3.34,1.27,18.11,18.11,0,0,1,3.62,1.13,5.08,5.08,0,0,1,2.18,1.81,5.55,5.55,0,0,1,.76,3,4.8,4.8,0,0,1-.91,2.92,5.8,5.8,0,0,1-2.54,2,10.52,10.52,0,0,1-7.17.13Z"/><circle class="cls-12" cx="38.68" cy="196.13" r="10.13"/><polygon class="cls-7" points="400.1 21.47 415.37 6.21 421.36 6.21 421.36 34.55 400.1 21.47"/><polygon class="cls-7" points="400.1 42.69 415.37 57.95 421.36 57.95 421.36 29.61 400.1 42.69"/><polyline class="cls-7" points="298.54 59.67 302.48 73.69 336.51 73.69 340.45 59.67"/><path class="cls-ayw261" d="M318.7,59.67h0c-24.47,0-44.66-2.69-58.38-7.77-17-6.3-20.56-14.65-20.56-20.55,0-14.59,20.34-30.18,77.43-30.18,4,0,8.1.08,12.3.24,38.42,1.41,93,17.14,93,30,0,11.66-50.49,26.92-93.14,28.15q-5.5.16-10.67.16"/><line class="cls-6" x1="319.5" y1="73.69" x2="319.5" y2="140.97"/><polyline class="cls-6" points="334.39 155.86 319.5 140.97 304.6 155.86"/><path class="cls-4" d="M317.79,7.94c4,0,8.1.08,12.3.24,35,1.28,83.35,14.44,91.74,26.44a5.71,5.71,0,0,0,1.28-3.35c0-12.81-54.6-28.54-93-29.95-4.2-.15-8.34-.23-12.3-.23-57.09,0-77.43,15.58-77.43,30.17a14.17,14.17,0,0,0,.41,3.38C243.83,21.16,265.22,7.94,317.79,7.94Z"/><path class="cls-6" d="M319.31,59.67h0c-24.47,0-44.66-2.69-58.38-7.77-17-6.3-20.56-14.65-20.56-20.55,0-14.59,20.34-30.18,77.43-30.18,4,0,8.1.08,12.3.24,38.42,1.41,93,17.14,93,30,0,11.66-50.49,26.92-93.14,28.15-3.67.11-7.23.16-10.66.16"/><line class="cls-7" x1="422.51" y1="31.36" x2="239.76" y2="31.36"/><polygon class="cls-8" points="420.46 295.69 420.46 256.36 381.13 256.36 381.13 295.69 341.81 295.69 341.81 335.01 381.13 335.01 420.46 335.01 459.79 335.01 459.79 295.69 420.46 295.69"/><rect class="cls-4" x="420.94" y="335" width="117.99" height="4.97"/><rect class="cls-6" x="499.6" y="335" width="39.33" height="39.33"/><rect class="cls-6" x="460.27" y="335" width="39.33" height="39.33"/><rect class="cls-6" x="420.94" y="335" width="39.33" height="39.33"/><rect class="cls-6" x="381.61" y="374.33" width="39.33" height="39.33"/><rect class="cls-6" x="342.28" y="374.33" width="39.33" height="39.33"/><line class="cls-13" x1="328.03" y1="208.65" x2="328.03" y2="268.08"/><polygon class="cls-10" points="328.03 273.14 332.61 265.21 323.45 265.21 328.03 273.14"/></g></g></svg>