<svg xmlns="http://www.w3.org/2000/svg" viewBox="0 0 743.93 682.34"><defs><style>.cls-1wlp43{isolation:isolate;}.cls-2wlp43{fill:#f1f6f8;}.cls-1wlp435,.cls-3wlp43,.cls-4wlp43,.cls-8wlp43{fill:#fff;}.cls-1wlp435,.cls-4wlp43,.cls-5wlp43,.cls-6wlp43{stroke:#aac6ca;}.cls-1wlp430,.cls-1wlp434,.cls-1wlp435,.cls-4wlp43,.cls-5wlp43,.cls-6wlp43,.cls-7wlp43,.cls-8wlp43{stroke-miterlimit:10;}.cls-1wlp434,.cls-4wlp43{stroke-width:2.17px;}.cls-1wlp430,.cls-1wlp434,.cls-5wlp43,.cls-7wlp43{fill:none;}.cls-5wlp43,.cls-6wlp43{stroke-width:2.35px;}.cls-1wlp432,.cls-6wlp43{fill:#ecf3f6;}.cls-1wlp430,.cls-7wlp43,.cls-8wlp43{stroke:#ff8288;}.cls-7wlp43,.cls-8wlp43{stroke-width:1.83px;}.cls-9wlp43{fill:#ff8288;}.cls-1wlp430{stroke-width:2.72px;}.cls-1wlp431,.cls-1wlp437,.cls-1wlp438{fill:#baccd3;}.cls-1wlp431,.cls-1wlp436{opacity:0.4;}.cls-1wlp433{fill:#aac6ca;}.cls-1wlp434{stroke:#fff;}.cls-1wlp435{stroke-width:2.5px;}.cls-1wlp438{opacity:0.3;mix-blend-mode:multiply;}</style></defs><title>Services</title><g class="cls-1wlp43"><g id="Layer_1" data-name="Layer 1"><circle class="cls-2wlp43" cx="223.89" cy="149.98" r="149.98"/><path class="cls-3wlp43" d="M397.34,91.22a52.07,52.07,0,0,0-96.49-18.4,29.29,29.29,0,0,0-41.55,18.4Z"/><path class="cls-3wlp43" d="M10.89,162.06a52.07,52.07,0,0,1,96.49-18.4,29.29,29.29,0,0,1,41.55,18.4Z"/><path class="cls-4wlp43" d="M31.62,179h468.5a0,0,0,0,1,0,0V451a8.82,8.82,0,0,1-8.82,8.82H40.44A8.82,8.82,0,0,1,31.62,451V179a0,0,0,0,1,0,0Z" transform="translate(531.74 638.87) rotate(-180)"/><path class="cls-3wlp43" d="M464.93,436.54c-38.74,0-38.74,14-77.48,14s-38.74-14-77.48-14-38.75,14-77.49,14-38.74-14-77.49-14-38.75,14-77.49,14-38.75-14-77.5-14V593.82H486.2Z"/><path class="cls-5wlp43" d="M464.93,436.54c-38.74,0-38.74,14-77.48,14s-38.74-14-77.48-14-38.75,14-77.49,14-38.74-14-77.49-14-38.75,14-77.49,14-38.75-14-77.5-14"/><path class="cls-4wlp43" d="M305.21,236.67H695.92a0,0,0,0,1,0,0V545.4a8.82,8.82,0,0,1-8.82,8.82H314a8.82,8.82,0,0,1-8.82-8.82V236.67A0,0,0,0,1,305.21,236.67Z" transform="translate(1001.14 790.89) rotate(-180)"/><path class="cls-6wlp43" d="M314,235.15H687.1a8.82,8.82,0,0,1,8.82,8.82v19.91H305.21V244A8.83,8.83,0,0,1,314,235.15Z"/><path class="cls-6wlp43" d="M40.79,177.39H491a8.82,8.82,0,0,1,8.82,8.83v19.91H32V186.22A8.82,8.82,0,0,1,40.79,177.39Z"/><rect class="cls-6wlp43" x="352.09" y="285.24" width="300.41" height="192.53" rx="5.92" transform="translate(1004.58 763.02) rotate(-180)"/><polyline class="cls-7wlp43" points="244.8 150.49 7.74 150.49 7.74 393.99"/><rect class="cls-8wlp43" x="4.84" y="147.58" width="5.81" height="5.81" transform="translate(-142.75 158.22) rotate(-90)"/><polygon class="cls-9wlp43" points="7.74 399.7 11.04 393.99 4.44 393.99 7.74 399.7"/><polygon class="cls-9wlp43" points="250.51 150.49 244.8 147.19 244.8 153.79 250.51 150.49"/><path class="cls-1wlp430" d="M437.55,61.57A10.85,10.85,0,0,1,448.4,72.42"/><path class="cls-1wlp430" d="M459.71,61.57a10.85,10.85,0,0,0-10.85,10.85"/><path class="cls-1wlp430" d="M476.47,100.5a10.84,10.84,0,0,1,10.85,10.84"/><path class="cls-1wlp430" d="M498.63,100.5a10.84,10.84,0,0,0-10.85,10.84"/><path class="cls-1wlp431" d="M652.49,303H620.36s5.23,71.14-28.07,94.81c0,0,49,19.81,49.54,79.09H623l-61.76-45.1-25.8,45.1-178.16.81a5.17,5.17,0,0,1-5.2-5.18V291.29a5.18,5.18,0,0,1,5.16-5.18l292.83-.87,2.41,5.93Z"/><path class="cls-3wlp43" d="M483.62,215.79S408,217.9,384,293.43c0,0-18.55,55.81,16.31,94.32l-11.14,2.55-11.15-24.4-7.87-23.27V319.54s.27-28.23,23.64-62.72S483.62,215.79,483.62,215.79Z"/><path class="cls-1wlp432" d="M574.41,247.58a139.41,139.41,0,0,0-17.87-12.48c-19.17-11.49-51.53-25.61-85.9-17.65,0,0-85.42,4.26-100.45,102.09,0,0-6.84,33.61,14.26,60.14,0,0,24.07,25.37,3.41,49.14,0,0-11.57,32.66,10,49l137.61-.84s29.06,35.77,55.73,31.58c0,0,29-5.89,31.83-31.58,0,0,7.86-53.88-61.12-72.91,0,0,27.18-32.81,34-56.22S614.37,274,574.41,247.58Z"/><path class="cls-3wlp43" d="M507.36,219.83s-77.77-11.49-114,55.91,4.17,103.25,7.2,126.64l-5.14,11.9,1.1-11.9-12.06-25.9-11.83-23.37-2.43-38.67,12.33-38.7,15.32-21.15,29.69-26.19,34.74-13.28,27.58,0Z"/><path class="cls-1wlp432" d="M292.55,364.35s5.37,66.26,92.78,73.4l2.53-8.93,7.55-14.54L396.79,404l-9.46-22.44-10.54-1.74s-44.2-5.66-55-59.37S286.08,342.67,292.55,364.35Z"/><path class="cls-3wlp43" d="M322.45,347.81s21.61,43.15,66.42,39.37l-3.4-6.34s-45.55-5.92-57.35-43.86Z"/><path class="cls-1wlp433" d="M317.41,289.94c.6,2.53,1,5.08,1.35,7.64s.89,5.08,1.32,7.62c.21,1.27.48,2.53.77,3.79l.84,3.76c.26,1.26.59,2.51.93,3.74l1,3.73a119.13,119.13,0,0,0,11.57,28.29c5.21,8.7,12,16.54,20.52,22a51.37,51.37,0,0,0,13.73,6.21,55.92,55.92,0,0,0,14.89,1.95l.29,2.06a26.42,26.42,0,0,1-8.07.26,48.94,48.94,0,0,1-7.88-1.42A54.27,54.27,0,0,1,354,373.26a58.24,58.24,0,0,1-12.35-10.14,80,80,0,0,1-9.56-12.74,109.69,109.69,0,0,1-11.93-29.22c-1.33-5.09-2.32-10.25-3.16-15.41-.35-2.6-.79-5.18-1.08-7.78s-.5-5.2-.53-7.82Z"/><path class="cls-1wlp433" d="M385.28,436.72c.13,4.15,0,1.15,0,2.08h-.16l-.2,0-.42,0-.82,0-1.63,0c-1.09,0-2.18,0-3.26-.07-2.18-.11-4.34-.29-6.5-.56a111.42,111.42,0,0,1-12.81-2.36,99.8,99.8,0,0,1-24.38-9.29,86.87,86.87,0,0,1-20.86-15.81,85.75,85.75,0,0,1-15-21.47,105.85,105.85,0,0,1-8.46-24.69,140.61,140.61,0,0,1-2.93-25.84A199.56,199.56,0,0,1,289,313q.67-6.45,1.69-12.83a123.36,123.36,0,0,1,2.56-12.66l2,.4c-.53,4.25-1.23,8.45-1.84,12.68s-1.12,8.45-1.51,12.7a197.32,197.32,0,0,0-.78,25.49,144.67,144.67,0,0,0,3.1,25.19,101.61,101.61,0,0,0,8.28,23.82,83.16,83.16,0,0,0,34.33,35.76,102.54,102.54,0,0,0,23.43,9.37,111.11,111.11,0,0,0,12.42,2.54c2.1.31,4.2.58,6.3.78,1.05.12,2.11.22,3.16.29l1.58.13.79.05.39,0,.19,0h.15c0,.93,0-2.07.11,2.08Z"/><ellipse class="cls-1wlp433" cx="497" cy="370.79" rx="8.95" ry="13.79" transform="translate(-28 40.84) rotate(-4.58)"/><ellipse class="cls-1wlp433" cx="399.25" cy="374" rx="8.95" ry="13.79" transform="translate(-28.57 33.05) rotate(-4.58)"/><path class="cls-1wlp433" d="M518.55,389.08a67.89,67.89,0,0,0-9.2-2.54,45.77,45.77,0,0,0-9.21-.89,37.58,37.58,0,0,0-9.05,1.23,52.83,52.83,0,0,0-8.85,3.42,21.7,21.7,0,0,1,8-5.83,24.85,24.85,0,0,1,9.89-2,29.26,29.26,0,0,1,9.85,1.74A26.61,26.61,0,0,1,518.55,389.08Z"/><path class="cls-1wlp433" d="M418.59,391.22a69.09,69.09,0,0,0-9.4-1.74,46.07,46.07,0,0,0-9.24-.08,37.59,37.59,0,0,0-8.91,2,53.22,53.22,0,0,0-8.52,4.18,21.72,21.72,0,0,1,7.46-6.51,24.84,24.84,0,0,1,9.68-2.83,29,29,0,0,1,10,.87A26.54,26.54,0,0,1,418.59,391.22Z"/><path class="cls-1wlp433" d="M489.85,329.25a22.24,22.24,0,0,1,9.06-1.79,24.62,24.62,0,0,1,9.25,1.71,21.72,21.72,0,0,1,7.86,5.28,20.22,20.22,0,0,1,4.69,8,44.23,44.23,0,0,0-6.31-6.18,36.33,36.33,0,0,0-3.56-2.34,32.54,32.54,0,0,0-3.83-1.8,40.93,40.93,0,0,0-8.28-2.14A70.61,70.61,0,0,0,489.85,329.25Z"/><path class="cls-1wlp433" d="M406.3,326.16a54.81,54.81,0,0,0-8.8,2.58,31.6,31.6,0,0,0-7.63,4.27,26.63,26.63,0,0,0-3.14,3,29.59,29.59,0,0,0-2.61,3.51,44.45,44.45,0,0,0-3.73,8.33,21,21,0,0,1,1.57-9.43,20.4,20.4,0,0,1,2.47-4.29,20.93,20.93,0,0,1,3.48-3.56,22.19,22.19,0,0,1,8.85-4.2A21.5,21.5,0,0,1,406.3,326.16Z"/><circle class="cls-1wlp433" cx="468.09" cy="386.26" r="2.55"/><circle class="cls-1wlp433" cx="454.4" cy="379.03" r="2.55"/><circle class="cls-1wlp433" cx="427.53" cy="379.03" r="2.55"/><circle class="cls-1wlp433" cx="440.56" cy="387.68" r="2.55"/><path class="cls-1wlp433" d="M395.06,478.42a49.69,49.69,0,0,1-9.13-14.88,45.56,45.56,0,0,1-3-17.3A56.35,56.35,0,0,1,386.12,429a67.57,67.57,0,0,1,3.39-8.1,59.09,59.09,0,0,1,4.49-7.66h0l-.27.52a25.58,25.58,0,0,0,1.38-7.79,17.26,17.26,0,0,0-1.87-7.46,74,74,0,0,0-4.06-7.25c-1.47-2.42-3-4.85-4.42-7.31-2.91-4.93-5.64-10-8.14-15.13-.63-1.29-1.24-2.58-1.85-3.88s-1.2-2.67-1.71-4a65.84,65.84,0,0,1-2.58-8.38,97.86,97.86,0,0,1-1.38-34.57,131.36,131.36,0,0,1,8.82-33.36,128.29,128.29,0,0,1,17.2-29.94A105.8,105.8,0,0,1,420.37,231a91.55,91.55,0,0,1,15.34-8.22c2.67-1.15,5.43-2.11,8.19-3s5.54-1.62,8.34-2.31a142.11,142.11,0,0,1,34.31-3.83A145.42,145.42,0,0,1,553,230.22a114.44,114.44,0,0,1,27.8,20.56,92.66,92.66,0,0,1,19.37,28.73,82.85,82.85,0,0,1,3,8.2,64.56,64.56,0,0,1,2.08,8.52,74.61,74.61,0,0,1,.9,17.46c-.71,11.63-3.74,22.93-7.86,33.66A178.34,178.34,0,0,1,582.7,378,195.63,195.63,0,0,1,562,405.28l-1.5-1.31c3.47-4.42,6.78-9,10-13.68s6.22-9.41,9.09-14.26a200.94,200.94,0,0,0,15-30.15c4-10.45,6.9-21.37,7.55-32.44a69.92,69.92,0,0,0-.86-16.49,60.39,60.39,0,0,0-2-8,80.93,80.93,0,0,0-2.86-7.8,88.32,88.32,0,0,0-18.54-27.39A110.22,110.22,0,0,0,551,234a141.31,141.31,0,0,0-64.51-16,137.75,137.75,0,0,0-33.25,3.66c-2.71.66-5.41,1.4-8.07,2.22s-5.26,1.75-7.81,2.84a88.93,88.93,0,0,0-14.66,7.83,102.2,102.2,0,0,0-24.26,22.7,123.82,123.82,0,0,0-16.67,28.94,128.89,128.89,0,0,0-8.67,32.29c-1.43,11.05-1.36,22.39,1.14,33.17a61.48,61.48,0,0,0,2.39,7.9c.48,1.3,1,2.53,1.6,3.81s1.17,2.56,1.79,3.82c2.43,5.08,5.09,10,7.93,14.91,1.41,2.43,2.88,4.84,4.36,7.29a79.37,79.37,0,0,1,4.21,7.63,21.14,21.14,0,0,1,2.16,8.94,28.93,28.93,0,0,1-1.6,8.9l-.09.28-.18.24h0a55.76,55.76,0,0,0-4.32,7.05,65.18,65.18,0,0,0-3.39,7.65,53.33,53.33,0,0,0-3.35,16.29,43,43,0,0,0,2.44,16.37,47.62,47.62,0,0,0,8.37,14.43Z"/><ellipse class="cls-3wlp43" cx="506.88" cy="406.18" rx="14.14" ry="6.41"/><ellipse class="cls-1wlp431" cx="565.57" cy="281.6" rx="13.14" ry="19.19" transform="translate(-20.67 46.03) rotate(-4.58)"/><ellipse class="cls-1wlp431" cx="578.76" cy="323.47" rx="9.78" ry="14" transform="translate(-23.97 47.21) rotate(-4.58)"/><ellipse class="cls-3wlp43" cx="498.12" cy="365.9" rx="2.71" ry="3.16"/><ellipse class="cls-3wlp43" cx="400.55" cy="369.06" rx="2.71" ry="3.16"/><path class="cls-1wlp433" d="M477,228.4a54.42,54.42,0,0,0-20.34,16.16,60.61,60.61,0,0,0-4.78,7.19,70.23,70.23,0,0,0-3.75,7.82c-.49,1.36-1.06,2.7-1.47,4.1q-.33,1-.69,2.07l-.59,2.11a127.83,127.83,0,0,0-3.36,17.39,65.33,65.33,0,0,1,.9-18,59.15,59.15,0,0,1,2.33-8.8,57.71,57.71,0,0,1,3.74-8.35,52.86,52.86,0,0,1,5.18-7.58,45.68,45.68,0,0,1,6.56-6.41c1.21-.94,2.44-1.84,3.73-2.66s2.62-1.55,4-2.23A30.81,30.81,0,0,1,477,228.4Z"/><rect class="cls-6wlp43" x="66.49" y="288.72" width="180.46" height="116.12" rx="5.2" transform="translate(313.44 693.56) rotate(-180)"/><line class="cls-1wlp434" x1="80.49" y1="303.71" x2="236.59" y2="393.99"/><line class="cls-1wlp434" x1="236.59" y1="303.71" x2="80.49" y2="393.99"/><path class="cls-1wlp431" d="M241.75,290H71.69a5.2,5.2,0,0,0-5.2,5.2v14a5.2,5.2,0,0,1,5.2-5.2h58.95l-6.45,21.57a4.06,4.06,0,0,0,2.73,5.05l120,36.75V295.15h0A5.19,5.19,0,0,0,241.75,290Z"/><path class="cls-1wlp435" d="M313.77,370.85,146.26,319.56a4.06,4.06,0,0,1-2.73-5.05l34-113.77a4,4,0,0,1,5-2.73L350.09,249.3a4.05,4.05,0,0,1,2.73,5l-34,113.78A4.07,4.07,0,0,1,313.77,370.85Z"/><path class="cls-1wlp432" d="M282.42,208.44S242,189.8,227.56,236.82h3.34L255,224.22l8.12-1.55,28.09,8.05S292.17,215.26,282.42,208.44Z"/><path class="cls-3wlp43" d="M722.66,525.06c-38.74,0-38.74,14-77.48,14s-38.74-14-77.48-14-38.75,14-77.49,14-38.74-14-77.49-14-38.75,14-77.49,14-38.75-14-77.5-14V682.34h486.2Z"/><path class="cls-5wlp43" d="M722.66,525.06c-38.74,0-38.74,14-77.48,14s-38.74-14-77.48-14-38.75,14-77.49,14-38.74-14-77.49-14-38.75,14-77.49,14-38.75-14-77.5-14"/><polyline class="cls-1wlp430" points="230 265.06 211.37 275.56 221.87 294.18"/><polyline class="cls-1wlp430" points="260.19 304.87 278.82 294.37 268.32 275.74"/><line class="cls-1wlp430" x1="260.76" y1="267.48" x2="228.83" y2="303.02"/><path class="cls-3wlp43" d="M283.94,227.55s5.2-15.92-19.22-16.79-37.16,26.06-37.16,26.06,1.79-29.11,38.33-33.91c0,0,23.88-3,25.31,27.81Z"/><path class="cls-1wlp433" d="M289.51,230.56a43.79,43.79,0,0,0-1.79-8.8,31.12,31.12,0,0,0-3.71-8,17.1,17.1,0,0,0-6.08-5.77,14.29,14.29,0,0,0-3.87-1.43,37.44,37.44,0,0,0-4.41-.61A41.14,41.14,0,0,0,252,208.5a34.26,34.26,0,0,0-14.4,10.22,38.93,38.93,0,0,0-7.67,16.09c-.18.74-.36,1.47-.48,2.23l-.2,1.12-.1.56c0,.06,0,.3,0,0a1.25,1.25,0,0,0-1-1.23,1.26,1.26,0,0,0-1.13.36l.92-.88c.63-.56,1.25-1.12,1.9-1.61a69.51,69.51,0,0,1,8.06-5.4,72.64,72.64,0,0,1,17.76-7.32,49.28,49.28,0,0,1,19-1.67,109.41,109.41,0,0,0-18.19,4.24,90,90,0,0,0-8.59,3.45c-1.38.68-2.78,1.33-4.12,2.09s-2.7,1.48-4,2.24a67.57,67.57,0,0,0-7.52,5.23c-.59.47-1.13,1-1.67,1.47l-.77.76a2.48,2.48,0,0,1-4-.6,2.45,2.45,0,0,1-.27-1.14,2.93,2.93,0,0,1,.06-.57l.11-.61.2-1.2c.13-.8.31-1.59.5-2.39a42.71,42.71,0,0,1,8.34-17.71,38.18,38.18,0,0,1,16-11.49A45.25,45.25,0,0,1,270,201.93a40,40,0,0,1,4.93.69,18.8,18.8,0,0,1,4.95,1.83,20.84,20.84,0,0,1,7.45,7.11,35.39,35.39,0,0,1,4.1,9.08,47.22,47.22,0,0,1,1.86,9.68Z"/><path class="cls-1wlp433" d="M483.22,476.58a68.56,68.56,0,0,1,7-19,45.62,45.62,0,0,1,13.65-15.31A44.43,44.43,0,0,1,523,434.85a54.13,54.13,0,0,1,10.25-.46,48.35,48.35,0,0,1,5.1.49c.85.13,1.7.28,2.54.45.43.09.85.18,1.28.29l.65.17.35.11.21.06.12.05a2.24,2.24,0,0,1,.44.22l-.49-.23a13.3,13.3,0,0,1,1.39.56c.41.19.83.38,1.23.58.81.39,1.59.8,2.37,1.22,1.56.84,3.09,1.69,4.58,2.62s2.92,2,4.3,3a33.18,33.18,0,0,1,3.92,3.6,42,42,0,0,1-5-1.85c-1.6-.69-3.17-1.44-4.71-2.21s-3.05-1.6-4.59-2.35c-.76-.37-1.53-.74-2.3-1.08l-1.15-.49c-.36-.15-.81-.31-1-.38L542,439a1.26,1.26,0,0,0,.29.16h0l-.09,0-.24-.07-.55-.13-1.15-.23c-.78-.14-1.57-.26-2.36-.36-1.58-.19-3.18-.32-4.77-.37a49.81,49.81,0,0,0-9.54.55,41.85,41.85,0,0,0-17.51,6.86,43.51,43.51,0,0,0-12.65,14,70.28,70.28,0,0,0-7.11,17.92Z"/><line class="cls-6wlp43" x1="310.83" y1="237.28" x2="263.11" y2="222.67"/><path class="cls-6wlp43" d="M534.6,97.05h91.61a3.4,3.4,0,0,1,3.4,3.4v61.09a3.4,3.4,0,0,1-3.4,3.4H564.45l-15.31,15.31a.14.14,0,0,1-.23-.1V164.94H534.6a3.41,3.41,0,0,1-3.41-3.4V100.45A3.41,3.41,0,0,1,534.6,97.05Z"/><path class="cls-1wlp435" d="M675.42,73.47H583.81a3.41,3.41,0,0,0-3.41,3.41V138a3.41,3.41,0,0,0,3.41,3.4h61.75l15.31,15.3a.13.13,0,0,0,.23-.09V141.37h14.32a3.4,3.4,0,0,0,3.4-3.4V76.88A3.41,3.41,0,0,0,675.42,73.47Z"/><g class="cls-1wlp436"><rect class="cls-1wlp437" x="604.92" y="85.74" width="14.82" height="4.83" rx="2.24"/><rect class="cls-1wlp437" x="604.92" y="122.84" width="14.82" height="4.83" rx="2.24"/><rect class="cls-1wlp437" x="611.41" y="95.02" width="29.26" height="4.83" rx="2.24"/><rect class="cls-1wlp437" x="611.41" y="113.57" width="29.26" height="4.83" rx="2.24"/><rect class="cls-1wlp437" x="625.05" y="104.3" width="29.26" height="4.83" rx="2.24"/></g><path class="cls-1wlp438" d="M147.38,537.79a5.63,5.63,0,0,0,1.38,1,5.16,5.16,0,0,0-1.38,1,5.57,5.57,0,0,0-1,6.47L153.6,539l4.14,3.07a22.07,22.07,0,0,0,26.31,0l4.44-3.29-4.44-3.3a22.1,22.1,0,0,0-26.31,0l-4.14,3.07-7.26-7.26A5.59,5.59,0,0,0,147.38,537.79Z"/><path class="cls-1wlp438" d="M87.66,510.31a5.75,5.75,0,0,0,1.38,1,5.75,5.75,0,0,0-1.38,1,5.59,5.59,0,0,0-1,6.47l7.26-7.26L98,514.61a22.07,22.07,0,0,0,26.31,0l4.44-3.29L124.33,508A22.07,22.07,0,0,0,98,508l-4.13,3.06-7.26-7.26A5.6,5.6,0,0,0,87.66,510.31Z"/><path class="cls-1wlp431" d="M540.68,485.73s20,43.61,63.58,35.55c33-6.1,22.69-43,22.69-43L623,476.94l-6.77,15.75-10.13,11.69-12.66,3.71-13.06.38Z"/><path class="cls-3wlp43" d="M542.31,406.18s37.49-2.46,64.6,39.79c0,0,21,34.55-5.58,51.86s-59-14.23-59-14.23l28.75,21.78,22.39,2.71,21.32-9.69,8.51-14.22-1.18-22.31-10.52-24.12-19.67-20.47-24.22-12.12-16.92-2.78S544.43,402.39,542.31,406.18Z"/><path class="cls-1wlp433" d="M518.8,455.29c3.9,4.18,7.43,8.52,11,12.85s7.3,8.51,11.22,12.5c7.82,7.95,16.36,15.31,26,20.59a45.73,45.73,0,0,0,15.23,5.31,29.87,29.87,0,0,0,7.9.07,42.7,42.7,0,0,0,7.79-1.95,36.55,36.55,0,0,0,13.68-8.09,31.06,31.06,0,0,0,8.07-13.49,39.59,39.59,0,0,0,1.34-15.9,67.69,67.69,0,0,0-4.28-15.8A69.58,69.58,0,0,0,597.52,425a98.62,98.62,0,0,0-28.44-17c-2.58-1-5.21-1.94-7.87-2.73-1.33-.37-2.66-.75-4-1s-2.68-.44-4-.59c-5.41-.51-11,0-16.05,2.72a18.46,18.46,0,0,1,7.54-4.14,28.43,28.43,0,0,1,8.66-1A35.17,35.17,0,0,1,562,402.6c2.77.75,5.49,1.65,8.17,2.64a100.19,100.19,0,0,1,29.74,17A70,70,0,0,1,625,466.64a44.07,44.07,0,0,1-1.44,17.6,35.18,35.18,0,0,1-9.11,15.26,40.56,40.56,0,0,1-15.19,9.06c-1.39.48-2.8.89-4.21,1.25a36.58,36.58,0,0,1-4.41.85,34.08,34.08,0,0,1-9-.13,49.77,49.77,0,0,1-16.54-5.85,84.11,84.11,0,0,1-14.16-9.9,134.38,134.38,0,0,1-12.3-11.91c-3.85-4.2-7.48-8.58-10.93-13.09A72.59,72.59,0,0,1,518.8,455.29Z"/><path class="cls-3wlp43" d="M420.62,411.66s-8.42,41.91,5.13,65.28l-5.13.7S399.38,444.41,420.62,411.66Z"/><path class="cls-3wlp43" d="M458.32,414.15s-9.24,39.42,4.3,62.79l-5.12.7S437.08,446.9,458.32,414.15Z"/><path class="cls-1wlp433" d="M420.62,407.78a157.84,157.84,0,0,0-5,17.33,94.12,94.12,0,0,0-2.38,17.63,75.85,75.85,0,0,0,1.39,17.61,73.75,73.75,0,0,0,5.52,16.79l-2.49,1.28a62.51,62.51,0,0,1-3.89-8.43c-.58-1.44-1-2.92-1.5-4.4s-.83-3-1.14-4.52a68,68,0,0,1-1.33-9.2,75.81,75.81,0,0,1-.1-9.29,76.64,76.64,0,0,1,1.05-9.2,74.73,74.73,0,0,1,2.07-9A58.31,58.31,0,0,1,420.62,407.78Z"/><path class="cls-1wlp433" d="M455.93,478.52c-.66-1.26-1.35-2.5-2-3.78s-1.21-2.58-1.73-3.91-1.08-2.64-1.52-4c-.23-.68-.48-1.35-.69-2l-.59-2.06c-.42-1.37-.67-2.79-1-4.18s-.55-2.81-.7-4.24a58.76,58.76,0,0,1,2.16-25.49,51.83,51.83,0,0,1,3.19-7.94,22.17,22.17,0,0,1,5.26-6.74l-3,7.78a68.25,68.25,0,0,0-2.65,7.72,60.23,60.23,0,0,0-1.42,24.19c.15,1.35.46,2.67.68,4s.56,2.65.95,3.95l.55,2,.62,1.95c.39,1.3.9,2.57,1.37,3.84s1.06,2.51,1.58,3.77l1.75,3.72Z"/><line class="cls-6wlp43" x1="375.23" y1="477.78" x2="535.45" y2="477.78"/><circle class="cls-6wlp43" cx="50.82" cy="192.38" r="5.46"/></g></g></svg>