<svg viewBox="0 0 20 20" xmlns="http://www.w3.org/2000/svg"><path d="m3.83 9.84.62 1.36h-1.24zm14.67 1.5a8.66 8.66 0 0 1 -8.5 8.66c-5 0-8.5-4.53-8.5-8.66 0-7.1 7.26-8.34 8-11.34 1.03 3.11 9 3.75 9 11.34zm-13.1.78-1.4-3.06a.22.22 0 0 0 -.2-.13.21.21 0 0 0 -.2.13l-1.36 3.06h.55l.2-.44h1.67l.2.44zm.42-1.26a.91.91 0 0 1 .89-.86.86.86 0 0 1 .6.24 2 2 0 0 1 .25-.45 1.4 1.4 0 1 0 -.86 2.5 1.44 1.44 0 0 0 .86-.29 2 2 0 0 1 -.25-.45.87.87 0 0 1 -.6.24.89.89 0 0 1 -.89-.93zm5.18 1.26-.7-.66a1.52 1.52 0 0 0 .13-.62 1.39 1.39 0 0 0 -1.34-1.4s0 0 0 0a1.54 1.54 0 0 0 .4.53 1 1 0 0 1 .46.83.88.88 0 1 1 -1.76 0 1 1 0 0 1 .43-.8 1.4 1.4 0 0 0 .38-.53s0 0 0 0a1.4 1.4 0 0 0 -1.36 1.4 1.38 1.38 0 0 0 1.36 1.31 1.54 1.54 0 0 0 1-.31l.27.25zm2.31-2.62h-.53v1.32c0 .54-.28.87-.72.87s-.71-.34-.71-.87v-1.32h-.54v1.32a1.26 1.26 0 1 0 2.5 0zm1 0h-.51v2.62h.53zm3 2.61v-2.62h-.52v.41l-.1-.1a1.13 1.13 0 0 0 -1.7 0 1.41 1.41 0 0 0 -.35 1 1.49 1.49 0 0 0 .35 1 1.17 1.17 0 0 0 .9.39 1.16 1.16 0 0 0 .8-.35l.1-.09v.36zm-1.26-2.24a.76.76 0 0 0 -.59.27 1 1 0 0 0 -.23.66 1 1 0 0 0 .23.67.74.74 0 0 0 .59.27.8.8 0 0 0 .61-.26 1 1 0 0 0 .23-.66 1 1 0 0 0 -.23-.68.78.78 0 0 0 -.61-.27z" fill="#26a4dd"/></svg>