<svg enable-background="new 0 0 503.777 166.444" height="166.444" viewBox="0 0 503.777 166.444" width="503.777" xmlns="http://www.w3.org/2000/svg"><g fill="#647982"><path d="m450.735 10.365c-.023.012-.043.019-.067.035.243.031.265.022.067-.035z"/><path d="m490.845 73.686c-1.874-10.129 1.344 7.281 0 0-1.86-10.065-11.433-18.023-21.566-18.544.76.039 2.805-2.955 3.26-3.565.831-1.106 1.554-2.295 2.121-3.559 1.024-2.299 1.47-4.795 1.326-7.307-.138-2.347-.613-5.146-1.942-7.108-1.8-2.654-4.205-4.877-6.331-7.262-5.427-6.099-4.003-17.435-11.993-21.51-9.808-4.995-20.217 19.61-20.195 19.619-6.238-3.202-30.15-18.332-25.856.358 1.659 7.22 3.843 14.482 6.137 21.52 1.272 3.904 2.729 7.76 4.562 11.434-5.722.429 1.689 9.227 2.936 10.259 5.053 4.18 10.818 6.962 15.726 11.366 1.337 1.201 4.028 3.23 5.3.972 3.674 1.657 7.512 2.941 11.411 3.96 9.882 2.588 38.797 9.345 35.104-10.633zm-50.223-50.243c.437-.964.878-1.921 1.428-2.825 1.377-2.256 2.865-4.481 4.424-6.59 1.324-1.795 3.28-3.595 5.633-3.679 3.17-.117 7.531 13.521 9.092 15.995 3.289 5.202 10.886 10.648 9.794 17.489-.678 4.224-5.707 9.225-8.649 12.066-5.857 1.04-11.284 3.824-15.864 7.569-5.829 4.767-6.68 9.256-12.729 2.476-.788-.882-.609-4.615-.727-5.82-.194-1.994-.327-3.995-.382-5.999-.107-4 .102-8.013.769-11.959.667-3.95 1.797-7.822 3.428-11.484.752-1.685 1.729-3.159 2.601-4.767.435-.803.807-1.639 1.182-2.472zm-26.348-3.059c2.104-2.944 17.044 6.024 19.826 7.358-4.815 10.843-6.293 22.554-4.475 34.268-4.438-3.337-7.025-9.689-8.994-14.699-.998-2.537-2.172-5.252-2.859-7.901-.914-3.51-2.307-6.766-3.372-10.214-.803-2.593-1.876-6.357-.126-8.812.099-.133-.366.517 0 0zm69.744 54.283c.366 11.861-36.329.346-41.422-2.219 5.373-6.801 15.644-15.119 25.089-13.223 5.679 1.14 16.129 8.781 16.333 15.442.031.988-.077-2.556 0 0z"/><path d="m12.595 82.02c0-1.177.943-2.239 2.239-2.239h33.709c14.144 0 25.692 11.315 25.692 25.341 0 10.843-7.189 19.683-17.441 23.806l16.145 29.938c.825 1.531 0 3.417-2.004 3.417h-12.374c-1.061 0-1.65-.589-1.886-1.06l-15.675-31.232h-13.083v30.052c0 1.18-1.062 2.24-2.239 2.24h-10.844c-1.296 0-2.239-1.06-2.239-2.24zm34.651 35.358c6.247 0 11.668-5.42 11.668-12.022 0-6.247-5.421-11.431-11.668-11.431h-19.21v23.453z"/><path d="m83.219 159.219 36.655-79.32c.353-.707.942-1.296 2.002-1.296h1.18c1.179 0 1.65.589 2.003 1.296l36.302 79.32c.707 1.531-.236 3.063-2.005 3.063h-10.253c-1.768 0-2.594-.707-3.418-2.357l-5.775-12.729h-35.24l-5.774 12.729c-.472 1.178-1.533 2.357-3.418 2.357h-10.256c-1.768.001-2.709-1.532-2.003-3.063zm50.914-25.105-11.783-25.929h-.354l-11.551 25.929z"/><path d="m172.087 82.02c0-1.177.943-2.239 2.239-2.239h26.991c14.024 0 24.867 9.429 24.867 21.805 0 9.076-7.425 16.146-12.964 18.739 6.245 2.003 15.322 8.369 15.322 19.212 0 13.199-11.315 22.746-25.694 22.746h-28.522c-1.296 0-2.239-1.06-2.239-2.24zm27.815 32.412c6.012 0 10.137-4.713 10.137-10.606 0-5.894-4.125-10.019-10.137-10.019h-12.611v20.625zm1.65 33.944c5.893 0 10.608-4.597 10.608-10.726 0-5.893-5.894-10.254-12.022-10.254h-12.847v20.979h14.261z"/><path d="m242.906 82.02c0-1.177.943-2.239 2.24-2.239h26.99c14.025 0 24.868 9.429 24.868 21.805 0 9.076-7.426 16.146-12.966 18.739 6.247 2.003 15.322 8.369 15.322 19.212 0 13.199-11.316 22.746-25.694 22.746h-28.521c-1.297 0-2.24-1.06-2.24-2.24v-78.023zm27.817 32.412c6.01 0 10.134-4.713 10.134-10.606 0-5.894-4.124-10.019-10.134-10.019h-12.613v20.625zm1.65 33.944c5.892 0 10.605-4.597 10.605-10.726 0-5.893-5.893-10.254-12.022-10.254h-12.846v20.979h14.263z"/><path d="m313.728 82.02c0-1.177.943-2.239 2.24-2.239h10.842c1.179 0 2.238 1.063 2.238 2.239v66.12h30.055c1.297 0 2.239 1.061 2.239 2.24v9.664c0 1.18-.942 2.24-2.239 2.24h-43.135c-1.297 0-2.24-1.06-2.24-2.24z"/><path d="m374.198 82.02c0-1.177.944-2.239 2.24-2.239h47.968c1.297 0 2.24 1.063 2.24 2.239v9.666c0 1.177-.943 2.239-2.24 2.239h-34.888v19.327h29.112c1.179 0 2.24 1.063 2.24 2.24v9.782c0 1.296-1.062 2.24-2.24 2.24h-29.112v20.625h34.888c1.297 0 2.24 1.061 2.24 2.24v9.664c0 1.18-.943 2.24-2.24 2.24h-47.968c-1.296 0-2.24-1.06-2.24-2.24z"/></g></svg>