<svg viewBox="-.453 5.666 612.453 79.334" xmlns="http://www.w3.org/2000/svg"><path d="m40.573 10.88s-.227.68-3.626 10.2c-9.52-7.933-25.84-7.253-25.84 4.987 0 14.28 34 12.467 32.867 38.307-.907 20.4-25.387 25.16-44.427 15.188 1.586-3.627 3.4-7.025 4.533-9.975 14.28 8.84 26.747 4.762 28.56-2.268 5.667-19.267-32.867-13.374-32.867-40.574 0-11.56 12.92-29.24 40.8-15.866zm39.214-3.173h47.374s-.226 4.08 0 9.974h-35.361v20.4h25.16v9.293h-25.16v25.612h35.36v9.748h-47.372v-75.027zm107.893 36.719h-7.706v-27.2h6.573c3.173 0 21.08-1.36 21.76 12.693.453 13.826-13.6 14.506-20.626 14.506zm.68-36.72c-4.08 0-12.92-.227-20.4-.227v75.253h11.786v-28.562c2.947 0 9.067-.226 14.054-.452 6.8-.227 24.707-3.627 24.707-24.026-.227-23.12-26.067-21.76-30.148-21.985zm290.133 34.68h-7.253v-25.386h6.12c2.945 0 18.358-.908 19.72 11.332 1.587 14.508-15.413 14.054-18.587 14.054zm25.387 40.347h14.28l-23.8-33.773c6.346-2.268 13.824-7.707 12.92-20.174-1.587-22.213-23.346-20.626-28.106-20.853-3.854-.227-12.468-.227-19.722-.227v75.027h11.787v-31.733c3.853 0 5.212 0 11.332-.228l21.308 31.96zm-202.187-45.107v-29.466h11.56v74.8h-11.56v-35.587h-38.533v35.587h-11.56v-74.8h11.56v29.466m123.08-31.96c-24.025 0-39.667 17.68-39.667 39.667 0 21.986 15.642 39.667 39.44 39.667 24.025 0 39.438-17.68 39.438-39.667.23-21.986-15.41-39.667-39.21-39.667zm179.746 51.228 24.48-.228-12.467-36.946h-.227l-11.787 37.174zm5.44-48.96h13.602l26.972 75.252h-12.014s-2.72-7.707-6.12-17.68l-30.373.227s-1.133 3.854-4.76 17.453h-11.56l24.254-75.254z" fill="#fff"/><path d="m413.667 45.337c0 15.86-9.75 28.78-27.43 28.78-17.45 0-27.42-12.92-27.42-28.78 0-15.87 9.97-28.79 27.42-28.79 17.46 0 27.43 12.92 27.43 28.79z" fill="#1b3b5d"/></svg>