<svg id="Layer_1" data-name="Layer 1" xmlns="http://www.w3.org/2000/svg" viewBox="0 0 92.37 58.52"><defs><style>.cls-1{fill:#ff7c6c;}.cls-2{fill:#c4c4c4;}</style></defs><path class="cls-1" d="M74.65,46.93a5,5,0,0,1-3.19-1.14L53.94,30l1-1.12,17.5,15.81a3.53,3.53,0,0,0,4.46-5.46L49.59,14.72l1-1.12L77.88,38.05a5,5,0,0,1-3.23,8.88Z"/><path class="cls-1" d="M66.38,51a5,5,0,0,1-3.18-1.14l-1.3-1.09,1-1.15,1.29,1.08a3.51,3.51,0,0,0,5-.48,3.53,3.53,0,0,0-.48-5L58.4,34l1-1.11,10.2,9.21A5,5,0,0,1,66.88,51,4.18,4.18,0,0,1,66.38,51Z"/><path class="cls-1" d="M58.56,55.12A5.07,5.07,0,0,1,55.37,54L41.53,41.47l1-1.11L56.35,52.84a3.53,3.53,0,0,0,4.46-5.47L49.35,36.86l1-1.11L61.79,46.24a5,5,0,0,1,1.78,3.37,5,5,0,0,1-5,5.51Z"/><path class="cls-1" d="M49.65,58.46a5,5,0,0,1-3.18-1.14l-3.2-2.75,1-1.14,3.18,2.74A3.5,3.5,0,0,0,50,57a3.53,3.53,0,0,0,1.9-6.24L41.67,41.48l1-1.11,10.2,9.21a5,5,0,0,1-2.73,8.86A4.18,4.18,0,0,1,49.65,58.46Z"/><path class="cls-2" d="M24.28,51.88a4.45,4.45,0,0,1-2.48-.75h0a4.49,4.49,0,0,1-1.25-6.22l3.09-4.5a4.48,4.48,0,0,1,6.21-1.24,4.48,4.48,0,0,1,1.25,6.21L28,49.89A4.46,4.46,0,0,1,24.28,51.88Zm-1.65-2a3,3,0,0,0,4.14-.83l3.09-4.51a3,3,0,0,0-5-3.29l-3.09,4.5a3,3,0,0,0,.84,4.13Z"/><path class="cls-2" d="M31.53,55.92a4.48,4.48,0,0,1-3.73-7l3.09-4.51A4.49,4.49,0,0,1,37.1,43.2a4.49,4.49,0,0,1,1.25,6.22l-3.09,4.5a4.45,4.45,0,0,1-2.84,1.91A4.56,4.56,0,0,1,31.53,55.92Zm3.09-12a3,3,0,0,0-2.49,1.33L29,49.79a3,3,0,0,0,3.08,4.57A2.94,2.94,0,0,0,34,53.08l3.09-4.5A3,3,0,0,0,34.62,44Z"/><path class="cls-2" d="M39.1,58.52A3.82,3.82,0,0,1,37,57.88a3.8,3.8,0,0,1-1.06-5.29l2.53-3.7a3.82,3.82,0,0,1,6.92,1.37,3.82,3.82,0,0,1-.56,2.87l-2.54,3.7a3.79,3.79,0,0,1-2.42,1.62A3.91,3.91,0,0,1,39.1,58.52Zm2.54-9.82a2.38,2.38,0,0,0-.46,0,2.3,2.3,0,0,0-1.47,1l-2.54,3.7a2.32,2.32,0,0,0,.65,3.2,2.28,2.28,0,0,0,1.74.35A2.38,2.38,0,0,0,41,56l2.53-3.7a2.33,2.33,0,0,0-.65-3.21A2.36,2.36,0,0,0,41.64,48.7Z"/><path class="cls-2" d="M15.64,48.69A4.48,4.48,0,0,1,13.17,48h0a4.5,4.5,0,0,1-1.25-6.22L15,37.22a4.49,4.49,0,0,1,7.47,5l-3.09,4.5A4.48,4.48,0,0,1,15.64,48.69ZM14,46.7a3,3,0,0,0,4.14-.84l3.08-4.5a3,3,0,0,0-5-3.3l-3.08,4.51A3,3,0,0,0,14,46.7Z"/><path class="cls-1" d="M13.85,39.08C8.67,35,.85,31.77.78,31.74L0,31.42,15.35,3l.64.28A43.62,43.62,0,0,0,31.56,6.94l2.23.11-.07,1.5-2.23-.11A45.22,45.22,0,0,1,16,4.92L2.11,30.67a62.48,62.48,0,0,1,12.67,7.24Z"/><path class="cls-2" d="M78.23,38.86a.75.75,0,0,1-.38-1.4l12.58-7.28L78.59,5,76.32,6.14a12.14,12.14,0,0,1-10.78.64L54.45,2.08a7.28,7.28,0,0,0-5.7,0L36,7.53a6.16,6.16,0,0,0-3,2.71L25.15,21.31a.26.26,0,0,0,0,.25.25.25,0,0,0,.17.17c2.64.83,7.06,2.22,14.08-6l.16-.19L52,12.83a.75.75,0,0,1,.32,1.47l-12,2.61c-7.57,8.74-12.72,7.12-15.5,6.25a1.77,1.77,0,0,1-.91-2.72l7.83-11a7.57,7.57,0,0,1,3.66-3.3L48.16.71A8.79,8.79,0,0,1,55,.7L66.13,5.4a10.64,10.64,0,0,0,9.47-.58l3.68-1.88L92.37,30.78l-13.77,8A.69.69,0,0,1,78.23,38.86Z"/></svg>