<svg width="1440" height="393" viewBox="0 0 1440 393" fill="none" xmlns="http://www.w3.org/2000/svg">
<path d="M-185 38.5623C-185 38.5623 -120.896 2.07118 -2.11459 0.0716802C116.667 -1.92782 139.236 63 277.5 63C415.764 63 445.278 7 576 7C706.722 7 737.188 51.5 839 51.5C940.812 51.5 1023.55 0.0716802 1162.44 0.0716802C1301.34 0.0716802 1338.69 63 1440.5 63C1542.31 63 1625 0.0716802 1625 0.0716802V290H-185V38.5623Z" fill="url(#paint0_linear)" fill-opacity="0.5"/>
<path d="M1512 0.5C1512 0.5 1430.52 44.9995 1326.5 43C1222.48 41.0005 1245.58 31 1124.5 31C1003.42 31 967.472 16.5 853 16.5C738.528 16.5 668.156 73.5 579 73.5C489.844 73.5 454.127 31 332.5 31C210.873 31 173.156 71.5 84 71.5C-5.15625 71.5 -73 23 -73 23V339H1512V0.5Z" fill="url(#paint1_linear)" fill-opacity="0.5"/>
<path d="M0 120.5C0 120.5 49 96 143.5 94C238 92 276.5 140.572 386.5 140.572C496.5 140.572 516 94 620 94C724 94 815 140.572 896 140.572C977 140.572 1066 102.072 1175.5 102.072C1262.34 102.072 1364.5 140.572 1440 102.072V392.072H0V120.5Z" fill="url(#paint2_linear)"/>
<defs>
<linearGradient id="paint0_linear" x1="720" y1="3.05187e-05" x2="720" y2="290" gradientUnits="userSpaceOnUse">
<stop stop-color="#BAD8DB"/>
<stop offset="1" stop-color="#BAD8DB"/>
</linearGradient>
<linearGradient id="paint1_linear" x1="719.5" y1="49" x2="719.5" y2="339" gradientUnits="userSpaceOnUse">
<stop stop-color="#BAD8DB"/>
<stop offset="1" stop-color="#BAD8DB"/>
</linearGradient>
<linearGradient id="paint2_linear" x1="720" y1="102" x2="720" y2="392.072" gradientUnits="userSpaceOnUse">
<stop stop-color="#BAD8DB"/>
<stop offset="1" stop-color="#BAD8DB"/>
</linearGradient>
</defs>
</svg>
