<svg enable-background="new 0 0 1075.551 644.858" viewBox="0 0 1075.551 644.858" xmlns="http://www.w3.org/2000/svg"><g fill="#647982" transform="matrix(1.25 0 0 -1.25 0 644.85786)"><path d="m164.415 500.684c-79.067 0-142.791-60.437-142.791-143.746 0-83.313 63.724-143.711 142.791-143.711 57.432 0 106.206 31.615 129.414 80.579l-43.669 11.82c-15.734-29.216-48.771-48.942-85.745-48.942-55.466 0-97.954 39.85-97.954 100.254 0 59.616 40.915 100.679 97.954 100.679 33.043 0 64.126-15.773 80.649-41.439l44.412 11.82c-24.781 43.825-71.171 72.686-125.061 72.686zm266.613 0c-19.825 0-35.919-16.133-35.919-36.025 0-10.155 4.204-19.32 10.935-25.869 2.421 11.613 12.693 20.313 24.984 20.313 12.281-.003 22.526-8.7 24.949-20.313 6.731 6.549 10.935 15.713 10.935 25.869 0 19.893-16.062 36.025-35.884 36.025zm276.487-.955c-69.794 0-120.708-34.357-120.708-77.394 0-48.175 53.848-63.581 93.601-74.633 47.985-13.029 100.325-20.148 100.325-54.498 0-23.686-25.226-41.829-68.37-41.829-48.952 0-78.528 25.643-84.825 54.462l-51.383-11.43c14.55-48.175 62.043-82.136 134.262-82.136 75.617 0 126.548 34.75 126.548 82.525 0 51.724-60.588 71.052-109.066 83.693-43.622 11.056-86.311 19.759-86.311 46.217 0 22.109 25.718 37.122 63.521 37.122 36.367 0 68.366-17.402 76.12-48.198l51.383 11.466c-12.615 44.221-62.08 74.633-125.097 74.633zm-353.668-30.611c-9.184 0-18.398-3.511-25.409-10.546-14.017-14.062-14.014-36.855 0-50.923 7.154-7.176 16.566-10.692 25.939-10.546.176.002.355.03.531.035.387.012.782.011 1.168.035.562.035 1.103.08 1.663.142.513.056 1.047.099 1.557.177.048.008.094.028.142.035.082.013.166.022.248.035.474.078.944.186 1.416.283.254.052.49.119.743.177.175.04.357.064.531.106 1.075.263 2.133.591 3.185.955.655.227 1.303.442 1.946.708.024.01.046.025.071.035.446.186.905.397 1.345.602.081.038.167.068.248.106.712.338 1.394.71 2.088 1.097.316.176.644.344.955.531.238.143.472.311.708.46.215.136.425.248.637.389.43.284.854.58 1.274.885.102.074.217.137.319.212.533.396 1.042.81 1.557 1.239.865.719 1.703 1.487 2.513 2.3.507.509.98 1.026 1.451 1.557.327.369.646.718.955 1.097.016.02.019.051.035.071.357.439.729.893 1.062 1.345.025.034.046.072.071.106.016.021.02.049.035.071.653.897 1.245 1.82 1.805 2.76.191.321.386.63.566.955.099.179.223.351.318.531.271.51.498 1.037.743 1.557s.489 1.064.708 1.592.409 1.056.602 1.592c.164.457.351.919.495 1.38.026.082.046.166.071.248.141.461.267.915.389 1.38.022.084.049.164.071.248.003.011-.002.024 0 .035.137.538.242 1.085.354 1.628.097.472.205.94.283 1.416.014.083.022.165.035.248.088.558.151 1.102.212 1.663.123 1.122.194 2.27.212 3.397.008-.006.027.006.035 0 .149 9.408-3.354 18.868-10.51 26.046-7.006 7.037-16.189 10.548-25.373 10.548zm151.709 0c-9.186 0-18.364-3.511-25.373-10.546-7.151-7.18-10.624-16.638-10.475-26.046.006-.384.017-.749.035-1.132.009-.18.024-.351.035-.531.035-.563.08-1.137.142-1.699.056-.516.099-1.044.177-1.557.127-.834.31-1.653.495-2.477.072-.319.132-.638.212-.955.024-.095.046-.188.071-.283.107-.407.233-.8.354-1.203.117-.389.224-.782.354-1.168.039-.116.066-.238.106-.354.141-.404.304-.803.46-1.203.055-.14.12-.285.177-.425.034-.083.072-.165.106-.248.192-.466.353-.921.566-1.38.138-.299.278-.589.425-.885.112-.226.237-.448.354-.672.032-.062.074-.115.106-.177.245-.461.512-.927.779-1.38.104-.176.211-.356.318-.531.493-.806 1.03-1.598 1.592-2.371.016-.021.02-.049.035-.071.025-.035.045-.072.071-.106.333-.452.705-.906 1.062-1.345.323-.397.649-.781.991-1.168.062-.07.114-.143.177-.212.413-.459.833-.902 1.274-1.345.429-.43.864-.87 1.309-1.274.007-.006.029.006.035 0 .438-.397.892-.796 1.345-1.168.174-.142.355-.286.531-.425.286-.226.558-.457.849-.672.033-.025.073-.046.106-.071.021-.016.05-.02.071-.035.77-.564 1.568-1.098 2.371-1.592.129-.08.259-.17.389-.248.045-.027.096-.044.142-.071.453-.268.883-.532 1.345-.779.069-.037.143-.07.212-.106.441-.231.897-.461 1.345-.672.072-.034.14-.073.212-.106.447-.208.891-.378 1.345-.566.4-.166.799-.345 1.203-.495.219-.082.452-.135.672-.212.12-.042.234-.101.354-.142.384-.13.78-.237 1.168-.354.402-.122.798-.247 1.203-.354.083-.022.164-.049.248-.071.131-.034.258-.074.389-.106.419-.102.852-.196 1.274-.283 1.105-.228 2.208-.408 3.326-.531.559-.061 1.138-.106 1.699-.142.561-.035 1.101-.026 1.663-.035-.006-.008.006-.027 0-.035 9.372-.149 18.789 3.37 25.939 10.546 14.01 14.069 14.017 36.858 0 50.923-7.003 7.035-16.185 10.546-25.371 10.546zm-183.169-76.155c-19.821 0-35.883-16.133-35.883-36.025 0-19.895 16.062-35.99 35.883-35.99 10.099 0 19.205 4.2 25.727 10.935-11.555 2.446-20.207 12.731-20.207 25.055 0 12.343 8.67 22.626 20.242 25.055-6.523 6.762-15.645 10.97-25.762 10.97zm214.629 0c-10.118 0-19.273-4.204-25.798-10.97 11.57-2.43 20.27-12.721 20.277-25.055-.007-12.331-8.688-22.613-20.242-25.055 6.522-6.738 15.662-10.935 25.762-10.935 19.821 0 35.883 16.094 35.883 35.99.001 19.893-16.061 36.025-35.882 36.025zm-183.169-76.155c-9.184 0-18.398-3.513-25.409-10.546-14.017-14.07-14.017-36.889 0-50.959 14.021-14.061 36.768-14.061 50.782 0 7.163 7.187 10.665 16.661 10.51 26.081-.008-.006-.027.006-.035 0-.018 1.129-.09 2.239-.212 3.362-.056.515-.134 1.044-.212 1.557-.007.046.007.095 0 .142-.013.082-.022.165-.035.248-.078.476-.186.943-.283 1.415-.111.544-.217 1.089-.354 1.628-.002.011.002.024 0 .035-.125.491-.279.964-.425 1.451-.017.057-.018.12-.035.177-.025.081-.045.167-.071.248-.145.462-.332.923-.495 1.38-.149.417-.295.826-.46 1.239-.047.118-.093.237-.142.354-.048.116-.092.239-.142.354-.175.412-.375.832-.566 1.239-.489 1.041-1.033 2.044-1.628 3.043-.56.941-1.152 1.863-1.805 2.76-.04.055-.066.122-.106.177-.335.454-.703.903-1.062 1.345-.016.02-.019.051-.035.071-.753.922-1.548 1.793-2.406 2.654-.432.433-.862.867-1.309 1.274-.007.006-.029-.006-.035 0-.386.35-.771.696-1.168 1.026-.234.195-.47.379-.708.566-.279.221-.565.461-.849.672-.034.025-.072.045-.106.071-.021.016-.049.02-.071.035-.77.564-1.568 1.098-2.371 1.592-.131.081-.257.169-.389.248-.046.027-.095.043-.142.071-.442.262-.894.537-1.345.779-1.017.543-2.06 1.013-3.114 1.451-.4.166-.799.345-1.203.495-.13.049-.259.094-.389.142-.21.076-.426.141-.637.212-.327.111-.661.217-.991.318-.459.141-.916.267-1.38.389-.083.022-.164.049-.248.071-.548.14-1.111.276-1.663.389-1.105.227-2.208.408-3.326.531-.559.061-1.137.107-1.699.142-.179.011-.351.027-.531.035-.382.018-.75.029-1.132.035-.193.005-.377.001-.568.001zm151.142 0c-.562-.009-1.138-.035-1.699-.071-.561-.035-1.14-.08-1.699-.142-1.118-.123-2.222-.303-3.326-.531-.975-.203-1.943-.458-2.902-.743-.127-.038-.263-.067-.389-.106-.425-.132-.853-.277-1.274-.425-.237-.083-.473-.16-.708-.248-.404-.151-.804-.329-1.203-.495-.442-.185-.908-.363-1.345-.566-.073-.034-.14-.072-.212-.106-.457-.217-.895-.435-1.345-.672-.07-.037-.143-.069-.212-.106-.743-.398-1.475-.855-2.194-1.309-.696-.439-1.382-.889-2.053-1.38-.021-.016-.049-.02-.071-.035-.326-.24-.636-.491-.955-.743-.163-.128-.335-.258-.495-.389-.013-.01-.022-.025-.035-.035-.058-.048-.119-.094-.177-.142-.858-.713-1.709-1.494-2.513-2.3-.429-.431-.836-.863-1.239-1.309-.074-.082-.139-.165-.212-.248-.325-.367-.648-.72-.955-1.097-.016-.02-.019-.051-.035-.071-.359-.442-.727-.89-1.062-1.345-.025-.034-.046-.073-.071-.106-.016-.021-.02-.049-.035-.071-.563-.774-1.099-1.565-1.592-2.371-.079-.13-.17-.259-.248-.389-.027-.045-.044-.096-.071-.142-.268-.456-.532-.915-.779-1.38-.032-.06-.075-.117-.106-.177-.236-.452-.456-.921-.672-1.38-.033-.071-.073-.141-.106-.212-.207-.449-.378-.889-.566-1.345-.092-.224-.195-.447-.283-.672-.156-.401-.319-.798-.46-1.203-.04-.116-.067-.238-.106-.354-.126-.374-.24-.755-.354-1.132-.021-.071-.05-.141-.071-.212-.126-.429-.244-.877-.354-1.309-.107-.421-.192-.85-.283-1.274-.048-.224-.097-.447-.142-.672-.007-.036-.028-.07-.035-.106-.082-.426-.146-.846-.212-1.274-.022-.143-.05-.282-.071-.425-.06-.416-.096-.821-.142-1.239-.061-.562-.107-1.135-.142-1.699s-.062-1.134-.071-1.699c-.145-9.41 3.331-18.869 10.475-26.046 14.025-14.065 36.737-14.065 50.746 0 14.017 14.066 14.017 36.893 0 50.959-7.005 7.031-16.188 10.546-25.373 10.546-.191-.002-.374.002-.566-.002zm-52.445-47.844c-4.184-8.42-12.864-14.191-22.861-14.191-9.324 0-17.49 5.029-21.941 12.527-5.396-5.742-8.705-13.498-8.705-22.011 0-17.711 14.338-32.062 31.991-32.062 17.645 0 31.92 14.351 31.92 32.062 0 9.376-4.02 17.81-10.404 23.675zm-213.956-103.015c-11.36 0-20.525-8.662-20.525-20.631s9.165-20.631 20.525-20.631c8.251 0 15.244 4.538 18.579 11.572l-6.264 1.663c-2.261-4.254-7.003-7.007-12.315-7.007-7.969 0-14.014 5.724-14.014 14.403 0 8.565 5.819 14.474 14.014 14.474 4.747 0 9.142-2.258 11.572-5.945l6.37 1.699c-3.56 6.296-10.199 10.403-17.942 10.403zm338.274 0c-11.36 0-20.525-8.662-20.525-20.631s9.165-20.631 20.525-20.631 20.596 8.662 20.596 20.631-9.236 20.631-20.596 20.631zm-306-.778v-39.705h27.532v5.91h-21.268v11.855h16.668v5.733h-16.668v10.333h20.879v5.874zm44.412 0v-39.705h6.264v27.072l-.106 1.522.779-1.309 20.702-27.284h5.874v39.705h-6.264v-26.824l.106-1.628-.743 1.416-20.737 27.036h-5.875zm46.889 0v-5.874h12.74v-33.831h6.264v33.831h12.81v5.874zm45.722 0v-39.705h27.532v5.91h-21.233v11.855h16.668v5.733h-16.668v10.333h20.914v5.874zm44.058 0v-39.705h6.228v14.191h6.688 1.062l8.776-14.191h7.007l-9.555 15.394c5.03 1.929 7.927 5.977 7.927 11.536 0 7.828-5.722 12.775-15.217 12.775zm66.565 0v-39.705h6.264v16.632h16.102v5.662h-16.102v11.536h20.348v5.874h-26.612zm93.53 0v-39.705h6.264v14.191h6.688 1.062l8.776-14.191h7.007l-9.59 15.394c5.03 1.929 7.927 5.977 7.927 11.536 0 7.828-5.687 12.775-15.181 12.775zm-35.176-5.379c8.082 0 14.084-5.795 14.084-14.474 0-8.565-6.003-14.474-14.084-14.474-8.138 0-13.978 5.908-13.978 14.474 0 8.679 5.84 14.474 13.978 14.474zm-118.691-.496h7.431c5.199 0 7.962-2.816 7.962-6.901 0-3.914-2.593-6.865-7.962-6.865h-7.431zm160.131 0h7.432c5.199 0 7.927-2.816 7.927-6.901 0-3.914-2.558-6.865-7.927-6.865h-7.432zm-594.271-10.262v-5.874h124.212v5.874zm687.978 0v-5.874h124.212v5.874zm-647.565-56.904c-22.088 0-39.882-16.892-39.882-40.165s17.794-40.13 39.882-40.13 40.024 16.857 40.024 40.13c0 23.272-17.936 40.165-40.024 40.165zm325.393 0c-15.934 0-27.461-9.6-27.461-21.622 0-13.236 11.758-17.649 20.879-20.737 10.769-3.53 23.285-6.31 23.285-15.465 0-6.508-6.049-11.466-15.5-11.466-10.879 0-18.007 7.059-19.216 15.111l-11.89-3.185c3.297-13.456 14.095-22.931 30.469-22.931 17.143 0 28.664 9.691 28.664 23.038 0 15.442-13.747 19.862-24.736 23.391-10.11 3.309-19.57 5.61-19.57 12.669 0 6.838 6.154 10.616 14.615 10.616 8.242 0 15.299-4.88 17.057-13.483l11.643 3.22c-2.857 12.354-14.063 20.844-28.239 20.844zm77.252 0c-22.088 0-39.882-16.892-39.882-40.165s17.794-40.13 39.882-40.13c16.044 0 29.683 8.794 36.167 22.471l-12.209 3.326c-4.396-8.272-13.628-13.66-23.958-13.66-15.495 0-27.249 11.116-27.249 27.992 0 16.655 11.314 28.133 27.249 28.133 9.231 0 17.817-4.402 22.542-11.572l12.386 3.291c-6.923 12.244-19.873 20.314-34.928 20.314zm267.71 0c-22.088 0-39.918-16.892-39.918-40.165s17.829-40.13 39.918-40.13c16.044 0 29.683 8.794 36.167 22.471l-12.209 3.326c-4.396-8.272-13.628-13.66-23.958-13.66-15.495 0-27.249 11.116-27.249 27.992 0 16.655 11.315 28.133 27.249 28.133 9.231 0 17.781-4.402 22.507-11.572l12.421 3.291c-6.923 12.244-19.873 20.314-34.928 20.314zm-617.273-1.557v-77.182h12.209v26.647h13.412c18.132 0 29.124 9.53 29.124 25.302s-10.992 25.232-29.124 25.232h-25.621zm66.494 0v-77.182h53.507v11.466h-41.333v23.038h32.451v11.147h-32.451v20.065h40.696v11.466zm71.095 0v-77.182h12.209v52.587l-.248 2.973 1.557-2.548 40.201-53.011h11.466v77.181h-12.21v-52.162l.212-3.185-1.415 2.725-40.342 52.622zm259.465 0v-77.182h12.174v77.181h-12.174zm31.636 0v-77.182h53.507v11.466h-41.298v23.038h32.38v11.147h-32.38v20.065h40.625v11.466zm70.989 0v-77.182h12.209v52.587l-.248 2.973 1.557-2.548 40.201-53.011h11.466v77.181h-12.209v-52.162l.212-3.185-1.416 2.725-40.342 52.622zm165.05 0v-77.182h53.507v11.466h-41.298v23.038h32.415v11.147h-32.415v20.065h40.661v11.466zm-717.811-10.475c15.714 0 27.355-11.258 27.355-28.133 0-16.655-11.64-28.098-27.355-28.098-15.824 0-27.249 11.443-27.249 28.098 0 16.875 11.425 28.133 27.249 28.133zm65.291-.991h13.164c10.33 0 16.739-4.832 16.739-13.766 0-8.603-5.969-13.801-16.739-13.801h-13.164z"/><path d="m431.014 459.117c-14.091 0-25.513-11.468-25.513-25.608 0-14.146 11.422-25.608 25.513-25.608 14.08 0 25.513 11.462 25.513 25.608 0 14.14-11.433 25.604-25.513 25.608zm38.684-26.579c-1.459-.953-2.841-2.056-4.122-3.34-9.96-9.998-9.968-26.219 0-36.221 9.972-9.998 26.115-9.998 36.079 0 1.28 1.285 2.389 2.682 3.34 4.146-8.989.143-17.936 3.635-24.803 10.518-6.86 6.889-10.353 15.871-10.494 24.897zm-79.999-.024c-.147-9.018-3.634-17.99-10.494-24.874-6.867-6.893-15.823-10.404-24.826-10.542.949-1.457 2.065-2.843 3.34-4.122 9.961-9.998 26.118-9.998 36.079 0 9.968 9.998 9.968 26.212 0 36.221-1.271 1.276-2.65 2.368-4.099 3.317zm-36.292-49.961c-14.091 0-25.513-11.457-25.513-25.608 0-14.143 11.422-25.601 25.513-25.608 14.084 0 25.513 11.466 25.513 25.608.001 14.151-11.429 25.608-25.513 25.608zm152.56 0c-14.088-.004-25.513-11.468-25.513-25.608 0-14.15 11.426-25.616 25.513-25.608 14.091 0 25.506 11.458 25.513 25.608-.008 14.139-11.422 25.608-25.513 25.608zm-130.221-54.13c-6.529 0-13.047-2.509-18.028-7.51-1.271-1.276-2.37-2.67-3.316-4.122 8.994-.141 17.94-3.63 24.803-10.518 6.865-6.888 10.351-15.869 10.494-24.897 1.448.951 2.827 2.064 4.098 3.34 9.961 9.99 9.961 26.192 0 36.197-4.981 5.003-11.522 7.51-18.051 7.51zm107.882 0c-6.528 0-13.065-2.509-18.051-7.51-9.964-10.005-9.964-26.207 0-36.197 1.281-1.285 2.664-2.409 4.122-3.364.136 9.038 3.629 18.029 10.494 24.921 6.862 6.88 15.792 10.371 24.779 10.518-.947 1.452-2.045 2.846-3.316 4.122-4.982 5.001-11.5 7.51-18.028 7.51zm-53.941-22.434c-14.095 0-25.513-11.449-25.513-25.584 0-14.146 11.418-25.632 25.513-25.632 14.081 0 25.513 11.492 25.513 25.632.001 14.135-11.432 25.584-25.513 25.584z"/></g></svg>