<svg fill="none" height="21" viewBox="0 0 115 21" width="115" xmlns="http://www.w3.org/2000/svg"><path d="m106.454.153481-.06-.153481h-.463l-8.2049 20.5956h2.3399l1.343-3.4077h8.22l-.821-2.1716h-6.558l3.925-9.9763c1.005 2.55318 5.993 15.4 5.993 15.4l.058.1556h2.399zm-14.6993-.0954069-8.7882 11.2871259-5.889-7.51853v3.39526l5.5894 7.32977.0724.0954h.3438l6.9505-9.01392v14.96032h2.2117v-20.5333519zm-18.0952 0v20.5333259h2.2116v-14.95822-3.33718l-1.7532-2.2379259zm-42.1316.4023699.0603 18.515256v.0373l1.6084 1.987h.5208v-20.533333zm-12.4656-.4023699h-.5208v20.5333259h2.1896v-15.01007l9.6507 11.94877v-3.4637l-11.2592-13.921215zm-8.1308 11.9466259v-2.14248h-7.48336v2.14248zm-8.62135 6.8237v-15.79196h9.65075v-2.173625h-11.9609v20.135085h12.351v-2.1695zm57.06825-6.8734v2.1819h5.7402v2.7253c-1.4215 1.1947-3.2391 1.7754-5.5553 1.7754-4.5157 0-7.795-3.4056-7.795-8.0889 0-2.24411.756-4.29951 2.1252-5.7887 1.3913-1.49748 3.3235-2.33333 5.3341-2.30844 2.4891 0 4.2101.75288 5.7563 2.51792l.1628.18667 1.6406-1.58045-.1588-.18251c-1.8578-2.11349-4.2604-3.142227-7.3446-3.142227-2.6138-.031111-5.135 1.010077-7.0049 2.893337-1.8859 1.95792-2.9294 4.61688-2.8952 7.3775-.0322 2.773 1.0354 5.4382 2.9535 7.3795 1.8839 1.8833 4.4494 2.9183 7.226 2.9183 3.1969 0 5.5693-.8649 7.6905-2.8042l.0804-.0747v-5.9857zm-16.0364 8.6406h-2.3282v-20.135156h2.3282z" fill="#647982"/></svg>