<svg height=".92in" viewBox="0 0 205.72 66.14" width="2.86in" xmlns="http://www.w3.org/2000/svg"><g fill="#647982"><path d="m20.31 14.13a10.5 10.5 0 0 1 6.42 2.33l2.89 2.33a10.2 10.2 0 0 1 3.61 7.71v8c0 1.93-1.52 3.37-3.77 3.37h-22.72v1.77a3.25 3.25 0 0 0 1.2 2.49l2.89 2.41a3 3 0 0 0 2.09.72h16.54c2.33 0 3.77 1.44 3.77 3.37s-1.52 3.37-3.77 3.37h-16.62a10.14 10.14 0 0 1 -6.34-2.31l-2.89-2.41a10 10 0 0 1 -3.61-7.63v-13.16a10.2 10.2 0 0 1 3.61-7.71l2.89-2.32a10.14 10.14 0 0 1 6.34-2.33zm-9.47 7.47-2.84 2.4a3.25 3.25 0 0 0 -1.2 2.49v4.58h19.69v-4.58a3.38 3.38 0 0 0 -1.2-2.49l-2.89-2.41a3.63 3.63 0 0 0 -2.09-.8h-7.39a3.6 3.6 0 0 0 -2.08.8z"/><path d="m85.08 6.51h-41a1.56 1.56 0 0 0 -1.56 1.56v49.46a1.56 1.56 0 0 0 1.56 1.56h41a1.56 1.56 0 0 0 1.56-1.56v-49.46a1.56 1.56 0 0 0 -1.56-1.56zm-7.43 45.43a3.91 3.91 0 0 1 -2.89-1.44l-10.35-12.61-10.41 12.6a3.66 3.66 0 0 1 -2.89 1.44 3.19 3.19 0 0 1 -3.29-3.09v-.12a3.72 3.72 0 0 1 1-2.49l11.25-13.56-10.6-12.76a3.93 3.93 0 0 1 -1-2.73 3.37 3.37 0 0 1 3.21-3 3.78 3.78 0 0 1 3 1.44l9.79 11.8 9.53-11.85a3.76 3.76 0 0 1 2.89-1.44 3.31 3.31 0 0 1 3.29 3.29 3.91 3.91 0 0 1 -1 2.49l-10.36 12.68 11.18 13.65a3.41 3.41 0 0 1 1 2.41 3.25 3.25 0 0 1 -3.21 3.29z"/><path d="m102.28 17.82 1.61-1.61a10.58 10.58 0 0 1 7.63-3.53h1.48a10.07 10.07 0 0 1 6.42 2.41l5.7 4.74a10.17 10.17 0 0 1 3.61 7.63v11.15a10.17 10.17 0 0 1 -3.61 7.63l-5.66 4.76a10.11 10.11 0 0 1 -6.46 2.38h-1.52a10.58 10.58 0 0 1 -7.63-3.53l-1.61-1.61v14.13c0 2.33-1.45 3.77-3.37 3.77a3.45 3.45 0 0 1 -3.37-3.77v-45.91c0-2.41 1.45-3.77 3.37-3.77a3.45 3.45 0 0 1 3.37 3.77zm6.9 2.65-6 5.94a3.22 3.22 0 0 0 -1 2.33v8.59a3.22 3.22 0 0 0 1 2.33l6 5.94a3.41 3.41 0 0 0 2.25 1h1.57a4 4 0 0 0 2.41-1l5.59-4.66a3.44 3.44 0 0 0 1-2.33v-11.16a3.66 3.66 0 0 0 -1-2.45l-5.62-4.74a3.64 3.64 0 0 0 -2.41-.8h-1.52a3.17 3.17 0 0 0 -2.27 1.01z"/><path d="m157.19 14.13a10.5 10.5 0 0 1 6.42 2.33l2.89 2.33a10.2 10.2 0 0 1 3.61 7.71v8c0 1.93-1.52 3.37-3.77 3.37h-22.71v1.77a3.25 3.25 0 0 0 1.2 2.49l2.89 2.41a3 3 0 0 0 2.09.72h16.54c2.33 0 3.77 1.44 3.77 3.37s-1.53 3.37-3.78 3.37h-16.61a10.14 10.14 0 0 1 -6.34-2.33l-2.89-2.41a10 10 0 0 1 -3.61-7.63v-13.14a10.2 10.2 0 0 1 3.61-7.71l2.89-2.33a10.14 10.14 0 0 1 6.34-2.33zm-9.47 7.47-2.89 2.4a3.25 3.25 0 0 0 -1.2 2.49v4.58h19.75v-4.58a3.38 3.38 0 0 0 -1.2-2.49l-2.89-2.41a3.63 3.63 0 0 0 -2.09-.8h-7.38a3.52 3.52 0 0 0 -2.1.8z"/><path d="m191.9 0c2.33 0 3.77 1.44 3.77 3.37v41.9h6.18c2.33 0 3.77 1.44 3.77 3.37s-1.52 3.36-3.77 3.36h-19.11c-2.33 0-3.77-1.44-3.77-3.37a3.45 3.45 0 0 1 3.77-3.37h6.1v-38.52h-6.1c-2.41 0-3.77-1.45-3.77-3.37a3.46 3.46 0 0 1 3.77-3.37z"/><path d="m202 .41a3.72 3.72 0 0 1 0 7.44 3.69 3.69 0 0 1 -3.72-3.72 3.69 3.69 0 0 1 3.72-3.72zm0 6.9a3.09 3.09 0 0 0 3.06-3.18 3.06 3.06 0 1 0 -6.12 0 3.08 3.08 0 0 0 3.06 3.18zm-1.42-5.31h1.64c1 0 1.52.41 1.52 1.24a1.12 1.12 0 0 1 -1.15 1.19l1.25 1.92h-.71l-1.13-1.92h-.71v1.87h-.66zm.66 1.94h.68c.59 0 1.16 0 1.16-.73s-.52-.67-1-.67h-.87z"/></g></svg>