<?xml version="1.0" encoding="UTF-8"?>
<svg width="613px" height="80px" viewBox="0 0 613 80" version="1.1" xmlns="http://www.w3.org/2000/svg" xmlns:xlink="http://www.w3.org/1999/xlink">
    <title>Combined Shape</title>
    <g id="Page-1" stroke="none" stroke-width="1" fill="none" fill-rule="evenodd">
        <g id="sephora" fill="#8E9BA0" fill-rule="nonzero">
            <path d="M387.241,0.666 C411.041,0.666 426.681,18.347 426.451,40.333 C426.451,62.32 411.038,80 387.013,80 C363.215,80 347.573,62.319 347.573,40.333 C347.573,18.346 363.215,0.666 387.24,0.666 Z M41.573,5.879 L41.5724283,5.88169905 C41.5385995,5.98106211 41.1597534,7.08164384 37.947,16.08 C28.427,8.147 12.107,8.827 12.107,21.067 C12.107,35.347 46.107,33.534 44.974,59.374 C44.067,79.774 19.587,84.534 0.547,74.562 C2.133,70.935 3.947,67.537 5.08,64.587 C19.36,73.427 31.827,69.349 33.64,62.319 C39.307,43.052 0.773,48.945 0.773,21.745 C0.773,10.185 13.693,-7.495 41.573,5.879 Z M586.028,2.934 L613,78.186 L600.986,78.186 C600.986,78.186 598.266,70.479 594.866,60.506 L564.493,60.733 C564.493,60.733 563.36,64.587 559.733,78.186 L548.173,78.186 L572.426,2.934 L586.028,2.934 Z M264.16,3.16 L264.16,32.626 L302.693,32.626 L302.693,3.16 L314.253,3.16 L314.253,77.96 L302.693,77.96 L302.693,42.373 L264.16,42.373 L264.16,77.96 L252.6,77.96 L252.6,3.16 L264.16,3.16 Z M128.161,2.707 C128.161,2.707 127.935,6.787 128.161,12.681 L92.8,12.681 L92.8,33.081 L117.96,33.081 L117.96,42.374 L92.8,42.374 L92.8,67.986 L128.16,67.986 L128.16,77.734 L80.788,77.734 L80.788,2.707 L128.161,2.707 Z M460.452,2.706 C460.620698,2.706 460.790131,2.706 460.960223,2.70600286 L464.076372,2.7069793 C470.384414,2.71201568 476.947395,2.74295349 480.174,2.933 C484.934,3.16 506.693,1.573 508.28,23.786 C509.184,36.253 501.706,41.692 495.36,43.96 L495.36,43.96 L519.16,77.733 L504.88,77.733 L504.879,77.732 L483.571,45.772 C479.544684,45.922 477.579051,45.9733158 475.608212,45.9908712 L475.134053,45.9944695 C474.737074,45.9969834 474.333276,45.9983546 473.906132,45.9991025 L472.239,46 L472.239,77.733 L460.452,77.733 Z M168.96,2.479 C176.44,2.479 185.28,2.706 189.36,2.706 L189.36,2.706 C193.44,2.932 219.28,1.572 219.507,24.692 C219.507,45.091 201.6,48.491 194.8,48.718 C193.834774,48.7617419 192.827105,48.8054839 191.808213,48.8475872 L190.786737,48.8890836 L190.786737,48.8890836 L189.764717,48.9291235 C186.19479,49.0662893 182.742355,49.17 180.746,49.17 L180.746,49.17 L180.746,77.732 L168.96,77.732 Z M387.237,11.547 C369.787,11.547 359.817,24.467 359.817,40.337 C359.817,56.197 369.787,69.117 387.237,69.117 C404.917,69.117 414.667,56.197 414.667,40.337 C414.667,24.467 404.697,11.547 387.237,11.547 Z M578.999,14.72 L578.772,14.72 L566.985,51.894 L566.986,51.894 L591.466,51.666 L578.999,14.72 Z M190.285643,12.1904937 L189.861527,12.1908089 C188.830415,12.1954 188.02295,12.226 187.547,12.226 L187.547,12.226 L180.974,12.226 L180.974,39.426 L188.68,39.426 C195.707,39.425 209.76,38.745 209.307,24.919 C208.7426,13.25501 196.31052,12.2090357 190.285643,12.1904937 Z M498.08,23.332 C496.718,11.092 481.305,12 478.36,12 L478.36,12 L472.24,12 L472.24,37.386 L479.815115,37.3868096 C479.854859,37.3869432 479.895888,37.387076 479.93817,37.3871926 L480.351665,37.3873861 C484.955924,37.3762462 499.55591,36.82444 498.08,23.332 Z" id="Combined-Shape"></path>
        </g>
    </g>
</svg>