<svg xmlns="http://www.w3.org/2000/svg" width="122" height="32" viewBox="0 0 122 32"><path fill="#647982" d="M24.436 3.24c0-.393-.257-.733-.77-1.018-.513-.288-1.564-.698-2.058-.698-.531 0-.872.187-1.019.565L14.11 19.2l-2.032-6.653c-.148-.465-.55-.698-1.211-.698-.66 0-1.063.233-1.208.698l-2.063 6.627-2.747-7.62c-.147-.374-.487-.561-1.019-.561-.512 0-1.026.138-1.538.414-.513.276-.768.614-.768 1.004 0 .165.044.333.136.511L5.893 23.52c.164.429.623.644 1.373.644.845 0 1.348-.215 1.513-.644l2.088-5.821 2.117 5.85c.164.409.65.615 1.456.615.77 0 1.237-.206 1.403-.618l8.483-19.822a.95.95 0 00.11-.482zm3.944 8.023c-.824 0-1.541.2-2.145.597-.604.398-1.045.883-1.318 1.461V6.317s.01-.526-.277-.552c0 0-.243-.037-.454.506l-2.491 5.812c-.312.695-.324 1.376-.324 1.376v9.608c0 .286.169.543.509.763.337.225.754.338 1.25.338.475 0 .895-.118 1.25-.35.359-.231.537-.482.537-.749v-6.338c0-.715.225-1.293.672-1.74.45-.445.976-.667 1.58-.667.642 0 1.202.248 1.677.749.477.498.717 1.05.717 1.658v6.338c0 .34.178.606.536.803.355.197.763.296 1.222.296.476 0 .892-.099 1.25-.296.359-.197.536-.466.536-.805V16.71c0-1.485-.472-2.763-1.416-3.836-.944-1.072-2.047-1.611-3.31-1.611zm8.977.457c-.325-.197-.735-.295-1.228-.295s-.9.098-1.216.295c-.316.199-.475.456-.475.777v10.57c0 .286.164.54.487.763.327.225.728.338 1.204.338.458 0 .858-.118 1.2-.35.345-.234.518-.484.518-.751v-10.57c0-.32-.164-.578-.49-.777zm-1.214-5.766c-.942 0-1.705.745-1.705 1.66 0 .92.763 1.666 1.705 1.666.941 0 1.704-.745 1.704-1.666 0-.915-.763-1.66-1.704-1.66zm9.356 15.153h-1.07c-.569 0-.967-.1-1.196-.304-.23-.204-.344-.555-.344-1.047v-5.595h3.243c.277 0 .496-.135.66-.407.164-.271.249-.592.249-.96 0-.37-.085-.69-.249-.962-.164-.272-.383-.407-.66-.407h-3.243v-4.44c0-.293-.178-.536-.537-.735-.356-.2-.775-.296-1.25-.296-.44 0-.843.101-1.208.305-.368.202-.55.454-.55.754V19.87c0 2.864 1.695 4.297 5.086 4.297h1.07c.475 0 .847-.15 1.114-.45.265-.3.398-.663.398-1.093 0-.413-.133-.769-.398-1.066-.267-.3-.64-.452-1.115-.452zm10.472-2.412c.384 0 .696-.018.934-.054.239-.035.502-.124.785-.266.283-.141.494-.384.633-.729.135-.347.205-.784.205-1.316 0-1.456-.555-2.662-1.662-3.625-1.11-.96-2.442-1.44-4.002-1.44-1.665 0-3.086.527-4.26 1.583-1.172 1.054-1.758 2.314-1.758 3.782v2.278c0 1.646.618 2.974 1.855 3.986 1.238 1.009 2.835 1.515 4.795 1.515 1.377 0 2.527-.246 3.452-.738.925-.492 1.389-.988 1.389-1.49 0-.322-.13-.657-.387-1.006-.257-.35-.576-.522-.963-.522-.2 0-.641.17-1.318.508a4.523 4.523 0 01-2.06.51c-.975 0-1.752-.236-2.337-.709-.588-.473-.88-1.096-.88-1.864v-.403h5.58zm-5.58-2.74c0-.585.24-1.056.714-1.417.478-.357 1.038-.538 1.68-.538.676 0 1.25.185 1.716.55.468.368.702.846.702 1.43 0 .266-.06.446-.18.538-.12.09-.325.137-.618.137h-4.013v-.7zm15.502-4.53c-1.246 0-2.389.36-3.41 1.072a1.631 1.631 0 00-.344-.484c-.642-.624-1.767-.624-2.405 0a1.593 1.593 0 00-.487 1.16v15.484c0 .271.162.515.485.728.323.213.719.318 1.192.318.454 0 .852-.11 1.192-.33.342-.22.51-.46.51-.714v-5.105a5.819 5.819 0 003.255.974c1.64 0 3.075-.571 4.264-1.7 1.283-1.236 1.934-2.868 1.934-4.852 0-1.95-.648-3.573-1.929-4.823-1.176-1.145-2.606-1.728-4.257-1.728zm27.943 8.48c-.89.85-1.78 1.281-2.647 1.281-.596 0-1.1-.07-1.499-.208-1.315-.46-1.929-1.451-1.929-3.114 0-1.138.3-1.965.911-2.524a2.996 2.996 0 011.016-.588c.403-.138.907-.209 1.5-.209.551 0 1.039.134 1.488.408.424.257.813.553 1.16.876v4.079zm-15.458-8.48c-1.454 0-2.88.288-4.235.854-.862.358-.989.981-.989 1.321 0 .506.15.904.452 1.185.478.442.993.47 1.536.332 2.227-.695 4.002-.641 4.735-.024.281.238.452.642.508 1.202h-2.098c-1.862 0-3.332.389-4.372 1.155-1.02.747-1.54 1.788-1.54 3.095 0 1.199.444 2.185 1.32 2.934.82.696 1.85 1.05 3.058 1.05 1.169 0 2.162-.207 2.946-.61.256-.131.49-.269.712-.41.016.256.176.483.48.682.323.213.721.32 1.194.32.452 0 .85-.11 1.192-.33.34-.222.508-.46.508-.716V16.46c0-1.366-.44-2.524-1.311-3.44-.98-1.059-2.356-1.594-4.096-1.594zm2.03 8.757a5.578 5.578 0 01-1.194.862 3.362 3.362 0 01-1.683.433c-1.778 0-1.778-.78-1.778-1.154 0-.394.155-.62.534-.787.522-.23 1.288-.347 2.274-.347h1.848v.993zm13.907-8.151c-.135.138-.243.29-.323.454a5.702 5.702 0 00-3.365-1.06c-1.65 0-3.074.54-4.226 1.599-1.34 1.206-2.016 2.835-2.016 4.84 0 2.007.676 3.636 2.01 4.838 1.156 1.065 2.56 1.604 4.176 1.604 1.209 0 2.302-.321 3.265-.958v.124c0 2.08-.881 3.641-2.853 3.641a7.987 7.987 0 01-3.535-.803 2.078 2.078 0 00-.757-.136c-.264 0-.658.087-1.033.504a1.636 1.636 0 00-.428 1.145c0 .508.258.943.747 1.234 1.524.824 3.278 1.24 5.212 1.24 1.906 0 3.407-.575 4.464-1.716 1.035-1.119 1.561-3.357 1.561-5.4v-9.984a1.6 1.6 0 00-.499-1.173c-.657-.64-1.765-.635-2.4.007zm-25.849 7.468c-.487 1.273-1.4 1.865-2.87 1.865-1.122 0-2.096-.423-2.97-1.292v-4.189c.874-.871 1.848-1.295 2.97-1.295.955 0 1.686.267 2.226.805.59.616.878 1.461.878 2.583 0 .581-.08 1.096-.234 1.523zm33.134-3.41c0-.585.239-1.056.715-1.417.477-.358 1.037-.538 1.679-.538.676 0 1.25.185 1.716.553.468.365.703.842.703 1.425 0 .267-.062.447-.181.539-.12.093-.326.138-.619.138H101.6v-.7zm5.582 2.74c.385 0 .696-.02.935-.054.237-.035.499-.124.782-.265.284-.143.494-.386.632-.73.138-.347.207-.785.207-1.316 0-1.455-.555-2.663-1.665-3.625-1.108-.96-2.44-1.44-3.997-1.44-1.668 0-3.09.527-4.26 1.582-1.173 1.055-1.76 2.314-1.76 3.782v2.279c0 1.646.617 2.973 1.856 3.986 1.236 1.009 2.836 1.514 4.796 1.514 1.374 0 2.524-.245 3.45-.737.924-.492 1.388-.988 1.388-1.49 0-.323-.13-.658-.387-1.006-.255-.35-.576-.523-.96-.523-.204 0-.642.171-1.321.508a4.523 4.523 0 01-2.06.51c-.972 0-1.75-.236-2.337-.709-.586-.472-.881-1.096-.881-1.863v-.403h5.582zm12.615-.141c-.321-.513-.723-.892-1.199-1.135a10.804 10.804 0 00-1.548-.64 15.82 15.82 0 00-1.564-.43 4.18 4.18 0 01-1.222-.443c-.33-.192-.497-.436-.497-.73 0-.298.167-.568.497-.81.328-.245.805-.366 1.428-.366.569 0 1.178.112 1.829.335.65.225 1.049.334 1.194.334.368 0 .674-.199.923-.601.246-.403.37-.757.37-1.061 0-.483-.446-.892-1.333-1.234-.89-.34-1.901-.508-3.036-.508-1.705 0-2.95.4-3.74 1.2-.787.8-1.183 1.755-1.183 2.864 0 .802.225 1.46.675 1.972.449.513.992.878 1.634 1.096.644.218 1.278.405 1.91.56a6.881 6.881 0 011.624.602c.449.24.671.573.671.99 0 .75-.676 1.122-2.03 1.122-.686 0-1.279-.094-1.78-.279-.5-.19-.903-.372-1.21-.55-.304-.18-.562-.27-.766-.27-.313 0-.592.174-.833.523-.239.349-.36.684-.36 1.004 0 .609.484 1.146 1.455 1.612.972.463 2.146.697 3.52.697 1.595 0 2.834-.356 3.723-1.065.89-.71 1.332-1.684 1.332-2.925 0-.728-.16-1.35-.484-1.864z"/></svg>