<svg enable-background="new 0 0 480.73 357.41" viewBox="0 0 480.73 357.41" xmlns="http://www.w3.org/2000/svg" xmlns:xlink="http://www.w3.org/1999/xlink"><clipPath id="a"><path d="m388.94 306 .52-1.47 32.62 11.64-.52 1.47c-3.21 9.01-13.12 13.71-22.13 10.49-9-3.21-13.7-13.12-10.49-22.13zm20.4-28.61 14.34 5.11 3.83-10.75-4.89-8.62-9.45 3.5z"/></clipPath><clipPath id="b"><path d="m162.84 254.53h92.67c4.15 0 7.52-3.37 7.52-7.52v-59.62c0-4.15-3.37-7.52-7.52-7.52h-92.67c-4.15 0-7.52 3.37-7.52 7.52v59.61c0 4.16 3.37 7.53 7.52 7.53z"/></clipPath><path d="m142.43 246.97c-8.83-8.83-23.16-8.83-31.99 0l-3.62 3.62-14.92-14.92c-13.39-13.39-35.1-13.39-48.49 0l-33.2 33.2h78.34 36.57 39.23z" fill="#f1f6f8"/><path d="m80.87 198.34h2.43v36.8h-2.43z" fill="#f1f6f8"/><path d="m82 199.41c1.95 0 3.53-1.58 3.53-3.53v-11.6h-7.05v11.6c0 1.95 1.57 3.53 3.52 3.53z" fill="#f1f6f8"/><path d="m82.09 186.71h-23.41c4.85-3.16 10.51-4.84 16.3-4.84h7.12v4.84z" fill="#f1f6f8"/><path d="m82.98 185.94-17.94 15.05c1.68-5.54 4.94-10.47 9.37-14.19l5.45-4.57z" fill="#f1f6f8"/><path d="m82.65 186.28-18.08-14.88c5.75.64 11.19 2.94 15.66 6.62l5.49 4.52z" fill="#f1f6f8"/><path d="m82 186.71h23.41c-4.85-3.16-10.51-4.84-16.3-4.84h-7.11z" fill="#f1f6f8"/><path d="m81.12 185.94 17.94 15.05c-1.68-5.54-4.94-10.47-9.37-14.19l-5.45-4.57z" fill="#f1f6f8"/><path d="m81.45 186.28 18.08-14.88c-5.75.64-11.19 2.94-15.66 6.62l-5.49 4.52z" fill="#f1f6f8"/><path d="m37.14 216.85h2.43v36.8h-2.43z" fill="#f1f6f8"/><path d="m38.27 217.92c1.95 0 3.53-1.58 3.53-3.53v-11.6h-7.05v11.6c-.01 1.95 1.57 3.53 3.52 3.53z" fill="#f1f6f8"/><path d="m38.36 205.22h-23.42c4.85-3.16 10.51-4.84 16.3-4.84h7.12z" fill="#f1f6f8"/><path d="m39.24 204.45-17.93 15.05c1.68-5.54 4.94-10.47 9.37-14.19l5.45-4.57z" fill="#f1f6f8"/><path d="m38.91 204.79-18.08-14.88c5.75.64 11.19 2.94 15.66 6.62l5.49 4.52z" fill="#f1f6f8"/><path d="m38.27 205.22h23.41c-4.85-3.16-10.51-4.84-16.3-4.84h-7.12v4.84z" fill="#f1f6f8"/><path d="m37.38 204.45 17.94 15.05c-1.68-5.54-4.94-10.47-9.37-14.19l-5.45-4.57z" fill="#f1f6f8"/><path d="m37.71 204.79 18.08-14.88c-5.75.64-11.19 2.94-15.66 6.62l-5.49 4.52z" fill="#f1f6f8"/><path d="m255.09 267.85c-1.25.07-2.58.11-4.02.11-19.69 0-19.69-7.12-39.38-7.12s-19.69 7.12-39.38 7.12-19.69-7.12-39.38-7.12-19.69 7.12-39.38 7.12-19.69-7.12-39.38-7.12-19.69 7.12-39.38 7.12c-6.69 0-11.11-.82-14.8-1.91v15.13h255.09v-13.33z" fill="#fff"/><path d="m198.3 57.45 41.56-12.49c1.16-.35 1.82-1.57 1.47-2.74l-5.98-19.89-26.53 7.98c-10.62 3.19-16.65 14.4-13.45 25.02l.2.66c.34 1.15 1.57 1.81 2.73 1.46z" fill="#ecf3f6" stroke="#97b1b2" stroke-miterlimit="10" stroke-width="1.769"/><circle cx="340.64" cy="133.81" fill="#f1f6f8" r="101.08"/><path d="m309.94 148.78h49.16c8.38 0 15.18 6.8 15.18 15.18v19.02h-62.2z" fill="#ecf3f6" stroke="#97b1b2" stroke-miterlimit="10" stroke-width="2.0639"/><path d="m304.35 154.43h52.02c6.81 0 12.33 5.52 12.33 12.33v21.87h-62.2z" fill="#ecf3f6" stroke="#97b1b2" stroke-miterlimit="10" stroke-width=".7448"/><path d="m304.35 154.43h51.41c7.14 0 12.94 5.79 12.94 12.94v21.26h-62.2z" fill="#baccd3" opacity=".4"/><path d="m309.94 149.73v-4.78c0-.72-.59-1.31-1.31-1.31h-167.26c-8.68 0-15.72 7.04-15.72 15.72v135.38h255.09v-110.92c0-.47-.38-.85-.85-.85h-36.7c-18.37 0-33.25-14.88-33.25-33.24z" fill="#ecf3f6" stroke="#97b1b2" stroke-miterlimit="10" stroke-width="2.0639"/><path d="m343.18 182.97c-12.81 0-23.92-7.25-29.47-17.87h-173.21v129.64h226.3v-111.77z" fill="#fff" stroke="#97b1b2" stroke-miterlimit="10" stroke-width="2.0639"/><path d="m192.7 130.75h-80.27v86.42" fill="none" stroke="#ff8288" stroke-miterlimit="10" stroke-width="1.3852"/><path d="m110.19 128.51h4.49v4.49h-4.49z" fill="#ff8288" transform="matrix(0 -1 1 0 -18.3195 243.1865)"/><path d="m112.43 219.38 2.56-4.43h-5.11z" fill="#ff8288"/><path d="m195.55 130.75-4.42-2.55v5.11z" fill="#ff8288"/><g stroke-miterlimit="10"><path d="m162.84 254.77h92.67c4.15 0 7.52-3.37 7.52-7.52v-59.62c0-4.15-3.37-7.52-7.52-7.52h-92.67c-4.15 0-7.52 3.37-7.52 7.52v59.62c0 4.15 3.37 7.52 7.52 7.52z" fill="#ecf3f6" stroke="#97b1b2" stroke-width="2.0639"/><path d="m279.15 254.77h69.92c2.7 0 4.89-2.19 4.89-4.89v-50.72c0-2.7-2.19-4.89-4.89-4.89h-69.92c-2.7 0-4.89 2.19-4.89 4.89v50.72c0 2.7 2.19 4.89 4.89 4.89z" fill="none" stroke="#ff8288" stroke-dasharray="3.5381" stroke-linecap="round" stroke-width="1.769"/><path d="m222.32 109.31v-58.91" fill="none" stroke="#97b1b2" stroke-width="1.769"/><path d="m243.81 51.15-44.29 13.32c-1.47.44-3.06.28-4.41-.45l-1.8-.97" fill="none" stroke="#97b1b2" stroke-linecap="round" stroke-width="1.769"/><path d="m259.21 6.47-76.91 23.12" fill="none" stroke="#ff8288" stroke-linecap="round" stroke-width="1.769"/><path d="m235.35 22.33 40.42-12.15 1.41 4.66-37.53 21.78z" fill="#ecf3f6" stroke="#97b1b2" stroke-width="1.769"/><path d="m264.97 13.42 6.02-11.18 3.63-1.09 1.15 9.03" fill="none" stroke="#97b1b2" stroke-width="1.769"/><path d="m268.23 20.38 9.04 4.08 3.64-1.09-3.73-8.53" fill="none" stroke="#97b1b2" stroke-width="1.769"/><path d="m215.07 52.41-.34 7.48" fill="none" stroke="#97b1b2" stroke-width="1.769"/><path d="m230.12 47.89-.34 7.47" fill="none" stroke="#97b1b2" stroke-width="1.769"/><circle cx="225.32" cy="34.71" fill="none" r="4.34" stroke="#ff8288" stroke-width="1.769"/><path d="m218.58 21.92h5.72v4.49h-5.72z" fill="none" stroke="#97b1b2" stroke-width="1.769" transform="matrix(.9577 -.2879 .2879 .9577 2.4176 64.7752)"/><path d="m220.79 22.02-1.69-5.62" fill="none" stroke="#97b1b2" stroke-width="1.769"/><path d="m252.07 17.3 3.03 10.09" fill="none" stroke="#97b1b2" stroke-width="1.1794"/><path d="m338.04 169.39h9.83c2.37 0 4.28-1.92 4.28-4.28 0-2.37-1.92-4.28-4.28-4.28h-9.83c-2.37 0-4.28 1.92-4.28 4.28 0 2.36 1.92 4.28 4.28 4.28z" fill="#ecf3f6" stroke="#97b1b2" stroke-width=".7448"/><path d="m344.74 160.82v22.15" fill="#ecf3f6" stroke="#97b1b2" stroke-width=".7448"/><path d="m341.18 160.82v22.15" fill="#ecf3f6" stroke="#97b1b2" stroke-width=".7448"/><path d="m333.26 165.27h-19.55" fill="#ecf3f6" stroke="#97b1b2" stroke-width=".7448"/><path d="m352.16 165.11h6.18c1.32 0 2.39 1.07 2.39 2.39v15.18" fill="none" stroke="#97b1b2" stroke-width=".7448"/><path d="m304.1 217.19-7.16 7.16 7.16 7.15" fill="none" stroke="#ff8288" stroke-width="1.3852"/><path d="m322.92 231.5 7.16-7.15-7.16-7.16" fill="none" stroke="#ff8288" stroke-width="1.3852"/><path d="m318.43 214.39-10.04 20.26" fill="none" stroke="#ff8288" stroke-width="1.3852"/><path d="m210.38 148h-67.53c-7.07 0-12.8 5.73-12.8 12.8v128.68" fill="none" stroke="#fff" stroke-dasharray="1.7875" stroke-linecap="round" stroke-width=".7448"/><path d="m162.47 248.52 95.82-63.48" fill="none" stroke="#fff" stroke-width=".7448"/><path d="m258.29 248.52-95.82-63.48" fill="none" stroke="#fff" stroke-width=".7448"/><path d="m215.23 43.32-4.11-13.67-2.35.71c-9.22 2.77-14.97 11.57-14.24 20.79l19.7-5.96c.79-.24 1.24-1.08 1-1.87z" fill="#fff" stroke="#97b1b2" stroke-width="1.1794"/><path d="m394.91 258.9v-71.23" fill="none" stroke="#ff8288" stroke-width="1.3852"/></g><path d="m394.91 262.24 2.56-4.42h-5.11z" fill="#ff8288"/><path d="m394.91 184.66-2.55 4.42h5.11z" fill="#ff8288"/><path d="m240.72 141.17-20.85-21.4-25.13 31.01" fill="none" stroke="#97b1b2" stroke-miterlimit="10" stroke-width="1.769"/><path d="m380.73 284.49c-1.25.04-2.58.06-4.02.06-19.69 0-19.69-3.99-39.38-3.99s-19.69 3.99-39.38 3.99-19.69-3.99-39.38-3.99-19.69 3.99-39.38 3.99-19.69-3.99-39.38-3.99c-19.75 0-19.63 3.99-39.38 3.99-6.69 0-11.11-.46-14.8-1.07v8.48h255.09v-7.47z" fill="#baccd3" opacity=".4"/><path d="m101.07 287.96c19.69 0 19.69 3.99 39.38 3.99s19.69-3.99 39.38-3.99 19.69 3.99 39.38 3.99 19.69-3.99 39.38-3.99 19.69 3.99 39.38 3.99 19.69-3.99 39.38-3.99v44.83h-235.82z" fill="#fff"/><path d="m101.07 287.96c19.69 0 19.69 3.99 39.38 3.99s19.69-3.99 39.38-3.99 19.69 3.99 39.38 3.99 19.69-3.99 39.38-3.99 19.69 3.99 39.38 3.99 19.69-3.99 39.38-3.99" fill="none" stroke="#97b1b2" stroke-linecap="round" stroke-miterlimit="10" stroke-width="1.769"/><path d="m416.09 287.96c-19.69 0-19.69 3.99-39.38 3.99s-19.69-3.99-39.38-3.99l.46 44.83" fill="#fff"/><path d="m416.09 287.96c-19.69 0-19.69 3.99-39.38 3.99s-19.69-3.99-39.38-3.99" fill="none" stroke="#97b1b2" stroke-miterlimit="10" stroke-width="2.0639"/><path d="m181.41 318.75c.21.21.44.37.68.5-.25.13-.48.29-.68.5-.86.86-1.03 2.16-.51 3.19l3.57-3.57 2.03 1.51c3.85 2.86 9.11 2.86 12.96 0l2.18-1.62-2.18-1.62c-3.85-2.86-9.11-2.86-12.96 0l-2.03 1.51-3.57-3.57c-.52 1.01-.35 2.3.51 3.17z" fill="#baccd3" opacity=".3"/><path d="m279.63 307.02c.21.21.45.38.7.51-.25.13-.49.3-.7.51-.89.89-1.06 2.22-.52 3.29l3.69-3.69 2.1 1.56c3.97 2.95 9.4 2.95 13.37 0l2.25-1.67-2.25-1.67c-3.97-2.95-9.4-2.95-13.37 0l-2.1 1.56-3.69-3.69c-.55 1.07-.37 2.4.52 3.29z" fill="#baccd3" opacity=".3"/><path d="m153.85 307.02c.21.21.45.38.7.51-.25.13-.49.3-.7.51-.89.89-1.06 2.22-.52 3.29l3.69-3.69 2.1 1.56c3.97 2.95 9.4 2.95 13.37 0l2.25-1.67-2.25-1.67c-3.97-2.95-9.4-2.95-13.37 0l-2.1 1.56-3.69-3.69c-.54 1.07-.37 2.4.52 3.29z" fill="#baccd3" opacity=".3"/><path d="m398.82 328.13c9.01 3.21 18.92-1.49 22.13-10.49l.52-1.47-32.62-11.64-.52 1.47c-3.22 9.01 1.48 18.92 10.49 22.13z" fill="#ecf3f6" stroke="#97b1b2" stroke-miterlimit="10" stroke-width="1.769"/><path d="m392.39 305.89 25.48 9.09 5.18-32.48-14.12-5.04z" fill="#fff" stroke="#97b1b2" stroke-miterlimit="10" stroke-width="1.769"/><path d="m412.55 266.64 9.45-3.51 4.89 8.62-3.84 10.75-14.34-5.11z" fill="#ecf3f6" stroke="#97b1b2" stroke-miterlimit="10" stroke-width="1.769"/><g clip-path="url(#a)" fill="#bad8db"><circle cx="383.69" cy="315.54" r=".54"/><circle cx="385.88" cy="317.73" r=".54"/><circle cx="388.07" cy="319.93" r=".54"/><circle cx="390.26" cy="322.12" r=".54"/><circle cx="392.45" cy="324.31" r=".54"/><circle cx="394.64" cy="326.5" r=".54"/><circle cx="396.83" cy="328.69" r=".54"/><circle cx="399.02" cy="330.88" r=".54"/><circle cx="401.21" cy="333.07" r=".54"/><circle cx="403.4" cy="335.26" r=".54"/><circle cx="405.59" cy="337.45" r=".54"/><circle cx="407.79" cy="339.64" r=".54"/><circle cx="409.98" cy="341.83" r=".54"/><circle cx="412.17" cy="344.02" r=".54"/><circle cx="414.36" cy="346.21" r=".54"/><circle cx="385.27" cy="320.4" r=".54"/><circle cx="387.46" cy="322.59" r=".54"/><circle cx="389.65" cy="324.78" r=".54"/><circle cx="391.84" cy="326.97" r=".54"/><circle cx="394.03" cy="329.16" r=".54"/><circle cx="396.22" cy="331.35" r=".54"/><circle cx="398.41" cy="333.54" r=".54"/><circle cx="400.6" cy="335.73" r=".54"/><circle cx="402.79" cy="337.92" r=".54"/><circle cx="404.98" cy="340.11" r=".54"/><circle cx="407.18" cy="342.3" r=".54"/><circle cx="409.37" cy="344.49" r=".54"/><circle cx="411.56" cy="346.69" r=".54"/></g><g clip-path="url(#a)" fill="#bad8db"><circle cx="384.47" cy="323.52" r=".54"/><circle cx="386.66" cy="325.71" r=".54"/><circle cx="388.85" cy="327.9" r=".54"/><circle cx="391.04" cy="330.09" r=".54"/><circle cx="393.23" cy="332.29" r=".54"/><circle cx="395.43" cy="334.48" r=".54"/><circle cx="397.62" cy="336.67" r=".54"/><circle cx="399.81" cy="338.86" r=".54"/><circle cx="402" cy="341.05" r=".54"/><circle cx="404.19" cy="343.24" r=".54"/><circle cx="406.38" cy="345.43" r=".54"/><circle cx="408.57" cy="347.62" r=".54"/><circle cx="383.86" cy="326.19" r=".54"/><circle cx="386.05" cy="328.38" r=".54"/><circle cx="388.24" cy="330.57" r=".54"/><circle cx="390.43" cy="332.76" r=".54"/><circle cx="392.62" cy="334.95" r=".54"/><circle cx="394.82" cy="337.14" r=".54"/><circle cx="397.01" cy="339.33" r=".54"/><circle cx="399.2" cy="341.52" r=".54"/><circle cx="401.39" cy="343.71" r=".54"/><circle cx="403.58" cy="345.9" r=".54"/></g><g clip-path="url(#a)" fill="#bad8db"><circle cx="385.26" cy="331.5" r=".54"/><circle cx="387.45" cy="333.69" r=".54"/><circle cx="389.64" cy="335.88" r=".54"/><circle cx="391.83" cy="338.07" r=".54"/><circle cx="394.02" cy="340.26" r=".54"/><circle cx="396.21" cy="342.45" r=".54"/><circle cx="398.4" cy="344.65" r=".54"/><circle cx="400.59" cy="346.84" r=".54"/><circle cx="384.65" cy="334.17" r=".54"/><circle cx="386.84" cy="336.36" r=".54"/><circle cx="389.03" cy="338.55" r=".54"/><circle cx="391.22" cy="340.74" r=".54"/><circle cx="393.41" cy="342.93" r=".54"/><circle cx="395.6" cy="345.12" r=".54"/><circle cx="397.79" cy="347.31" r=".54"/></g><g clip-path="url(#a)" fill="#bad8db"><circle cx="383.85" cy="337.29" r=".54"/><circle cx="386.04" cy="339.48" r=".54"/><circle cx="388.23" cy="341.67" r=".54"/><circle cx="390.42" cy="343.86" r=".54"/><circle cx="392.61" cy="346.05" r=".54"/><circle cx="385.43" cy="342.14" r=".54"/><circle cx="387.62" cy="344.33" r=".54"/><circle cx="389.81" cy="346.53" r=".54"/></g><g clip-path="url(#a)" fill="#bad8db"><circle cx="384.63" cy="345.27" r=".54"/><circle cx="386.82" cy="347.46" r=".54"/></g><g clip-path="url(#a)" fill="#bad8db"><circle cx="384.15" cy="280.03" r=".54"/><circle cx="386.34" cy="282.22" r=".54"/><circle cx="388.53" cy="284.41" r=".54"/><circle cx="390.72" cy="286.6" r=".54"/><circle cx="392.91" cy="288.79" r=".54"/><circle cx="395.11" cy="290.98" r=".54"/><circle cx="397.3" cy="293.17" r=".54"/><circle cx="399.49" cy="295.37" r=".54"/><circle cx="401.68" cy="297.56" r=".54"/><circle cx="403.87" cy="299.75" r=".54"/><circle cx="406.06" cy="301.94" r=".54"/><circle cx="408.25" cy="304.13" r=".54"/><circle cx="410.44" cy="306.32" r=".54"/><circle cx="412.63" cy="308.51" r=".54"/><circle cx="414.82" cy="310.7" r=".54"/><circle cx="417.01" cy="312.89" r=".54"/><circle cx="419.2" cy="315.08" r=".54"/><circle cx="421.39" cy="317.27" r=".54"/><circle cx="423.58" cy="319.46" r=".54"/><circle cx="425.77" cy="321.65" r=".54"/><circle cx="427.96" cy="323.84" r=".54"/><circle cx="430.15" cy="326.03" r=".54"/><circle cx="432.35" cy="328.22" r=".54"/><circle cx="434.54" cy="330.41" r=".54"/><circle cx="383.54" cy="282.69" r=".54"/><circle cx="385.73" cy="284.88" r=".54"/><circle cx="387.92" cy="287.08" r=".54"/><circle cx="390.11" cy="289.27" r=".54"/><circle cx="392.3" cy="291.46" r=".54"/><circle cx="394.5" cy="293.65" r=".54"/><circle cx="396.69" cy="295.84" r=".54"/><circle cx="398.88" cy="298.03" r=".54"/><circle cx="401.07" cy="300.22" r=".54"/><circle cx="403.26" cy="302.41" r=".54"/><circle cx="405.45" cy="304.6" r=".54"/><circle cx="407.64" cy="306.79" r=".54"/><circle cx="409.83" cy="308.98" r=".54"/><circle cx="412.02" cy="311.17" r=".54"/><circle cx="414.21" cy="313.36" r=".54"/><circle cx="416.4" cy="315.55" r=".54"/><circle cx="418.59" cy="317.74" r=".54"/><circle cx="420.78" cy="319.93" r=".54"/><circle cx="422.97" cy="322.13" r=".54"/><circle cx="425.16" cy="324.32" r=".54"/><circle cx="427.35" cy="326.51" r=".54"/><circle cx="429.55" cy="328.7" r=".54"/><circle cx="431.74" cy="330.89" r=".54"/><circle cx="433.93" cy="333.08" r=".54"/><circle cx="436.12" cy="335.27" r=".54"/></g><g clip-path="url(#a)" fill="#bad8db"><circle cx="384.94" cy="288.01" r=".54"/><circle cx="387.13" cy="290.2" r=".54"/><circle cx="389.32" cy="292.39" r=".54"/><circle cx="391.51" cy="294.58" r=".54"/><circle cx="393.7" cy="296.77" r=".54"/><circle cx="395.89" cy="298.96" r=".54"/><circle cx="398.08" cy="301.15" r=".54"/><circle cx="400.27" cy="303.34" r=".54"/><circle cx="402.46" cy="305.53" r=".54"/><circle cx="404.65" cy="307.73" r=".54"/><circle cx="406.84" cy="309.92" r=".54"/><circle cx="409.03" cy="312.11" r=".54"/><circle cx="411.22" cy="314.3" r=".54"/><circle cx="413.41" cy="316.49" r=".54"/><circle cx="415.6" cy="318.68" r=".54"/><circle cx="417.79" cy="320.87" r=".54"/><circle cx="419.99" cy="323.06" r=".54"/><circle cx="422.18" cy="325.25" r=".54"/><circle cx="424.37" cy="327.44" r=".54"/><circle cx="426.56" cy="329.63" r=".54"/><circle cx="428.75" cy="331.82" r=".54"/><circle cx="430.94" cy="334.01" r=".54"/><circle cx="433.13" cy="336.2" r=".54"/><circle cx="435.32" cy="338.39" r=".54"/><circle cx="384.33" cy="290.67" r=".54"/><circle cx="386.52" cy="292.86" r=".54"/><circle cx="388.71" cy="295.05" r=".54"/><circle cx="390.9" cy="297.24" r=".54"/><circle cx="393.09" cy="299.44" r=".54"/><circle cx="395.28" cy="301.63" r=".54"/><circle cx="397.47" cy="303.82" r=".54"/><circle cx="399.66" cy="306.01" r=".54"/><circle cx="401.85" cy="308.2" r=".54"/><circle cx="404.04" cy="310.39" r=".54"/><circle cx="406.23" cy="312.58" r=".54"/><circle cx="408.42" cy="314.77" r=".54"/><circle cx="410.61" cy="316.96" r=".54"/><circle cx="412.8" cy="319.15" r=".54"/><circle cx="414.99" cy="321.34" r=".54"/><circle cx="417.18" cy="323.53" r=".54"/><circle cx="419.38" cy="325.72" r=".54"/><circle cx="421.57" cy="327.91" r=".54"/><circle cx="423.76" cy="330.1" r=".54"/><circle cx="425.95" cy="332.29" r=".54"/><circle cx="428.14" cy="334.49" r=".54"/><circle cx="430.33" cy="336.68" r=".54"/><circle cx="432.52" cy="338.87" r=".54"/><circle cx="434.71" cy="341.06" r=".54"/></g><g clip-path="url(#a)" fill="#bad8db"><circle cx="383.53" cy="293.8" r=".54"/><circle cx="385.72" cy="295.99" r=".54"/><circle cx="387.91" cy="298.18" r=".54"/><circle cx="390.1" cy="300.37" r=".54"/><circle cx="392.29" cy="302.56" r=".54"/><circle cx="394.48" cy="304.75" r=".54"/><circle cx="396.67" cy="306.94" r=".54"/><circle cx="398.86" cy="309.13" r=".54"/><circle cx="401.05" cy="311.32" r=".54"/><circle cx="403.24" cy="313.51" r=".54"/><circle cx="405.43" cy="315.7" r=".54"/><circle cx="407.63" cy="317.89" r=".54"/><circle cx="409.82" cy="320.09" r=".54"/><circle cx="412.01" cy="322.28" r=".54"/><circle cx="414.2" cy="324.47" r=".54"/><circle cx="416.39" cy="326.66" r=".54"/><circle cx="418.58" cy="328.85" r=".54"/><circle cx="420.77" cy="331.04" r=".54"/><circle cx="422.96" cy="333.23" r=".54"/><circle cx="425.15" cy="335.42" r=".54"/><circle cx="427.34" cy="337.61" r=".54"/><circle cx="429.53" cy="339.8" r=".54"/><circle cx="431.72" cy="341.99" r=".54"/><circle cx="433.91" cy="344.18" r=".54"/><circle cx="436.1" cy="346.37" r=".54"/><circle cx="385.11" cy="298.65" r=".54"/><circle cx="387.3" cy="300.84" r=".54"/><circle cx="389.49" cy="303.03" r=".54"/><circle cx="391.68" cy="305.22" r=".54"/><circle cx="393.87" cy="307.41" r=".54"/><circle cx="396.06" cy="309.6" r=".54"/><circle cx="398.25" cy="311.8" r=".54"/><circle cx="400.44" cy="313.99" r=".54"/><circle cx="402.63" cy="316.18" r=".54"/><circle cx="404.82" cy="318.37" r=".54"/><circle cx="407.02" cy="320.56" r=".54"/><circle cx="409.21" cy="322.75" r=".54"/><circle cx="411.4" cy="324.94" r=".54"/><circle cx="413.59" cy="327.13" r=".54"/><circle cx="415.78" cy="329.32" r=".54"/><circle cx="417.97" cy="331.51" r=".54"/><circle cx="420.16" cy="333.7" r=".54"/><circle cx="422.35" cy="335.89" r=".54"/><circle cx="424.54" cy="338.08" r=".54"/><circle cx="426.73" cy="340.27" r=".54"/><circle cx="428.92" cy="342.46" r=".54"/><circle cx="431.11" cy="344.65" r=".54"/><circle cx="433.3" cy="346.85" r=".54"/></g><g clip-path="url(#a)" fill="#bad8db"><circle cx="384.31" cy="301.78" r=".54"/><circle cx="386.5" cy="303.97" r=".54"/><circle cx="388.69" cy="306.16" r=".54"/><circle cx="390.88" cy="308.35" r=".54"/><circle cx="393.07" cy="310.54" r=".54"/><circle cx="395.27" cy="312.73" r=".54"/><circle cx="397.46" cy="314.92" r=".54"/><circle cx="399.65" cy="317.11" r=".54"/><circle cx="401.84" cy="319.3" r=".54"/><circle cx="404.03" cy="321.49" r=".54"/><circle cx="406.22" cy="323.68" r=".54"/><circle cx="408.41" cy="325.87" r=".54"/><circle cx="410.6" cy="328.06" r=".54"/><circle cx="412.79" cy="330.25" r=".54"/><circle cx="414.98" cy="332.45" r=".54"/><circle cx="417.17" cy="334.64" r=".54"/><circle cx="419.36" cy="336.83" r=".54"/><circle cx="421.55" cy="339.02" r=".54"/><circle cx="423.74" cy="341.21" r=".54"/><circle cx="425.93" cy="343.4" r=".54"/><circle cx="428.12" cy="345.59" r=".54"/><circle cx="383.7" cy="304.44" r=".54"/><circle cx="385.89" cy="306.63" r=".54"/><circle cx="388.08" cy="308.82" r=".54"/><circle cx="390.27" cy="311.01" r=".54"/><circle cx="392.46" cy="313.2" r=".54"/><circle cx="394.66" cy="315.39" r=".54"/><circle cx="396.85" cy="317.58" r=".54"/><circle cx="399.04" cy="319.77" r=".54"/><circle cx="401.23" cy="321.97" r=".54"/><circle cx="403.42" cy="324.16" r=".54"/><circle cx="405.61" cy="326.35" r=".54"/><circle cx="407.8" cy="328.54" r=".54"/><circle cx="409.99" cy="330.73" r=".54"/><circle cx="412.18" cy="332.92" r=".54"/><circle cx="414.37" cy="335.11" r=".54"/><circle cx="416.56" cy="337.3" r=".54"/><circle cx="418.75" cy="339.49" r=".54"/><circle cx="420.94" cy="341.68" r=".54"/><circle cx="423.13" cy="343.87" r=".54"/><circle cx="425.32" cy="346.06" r=".54"/></g><g clip-path="url(#a)" fill="#bad8db"><circle cx="385.1" cy="309.76" r=".54"/><circle cx="387.29" cy="311.95" r=".54"/><circle cx="389.48" cy="314.14" r=".54"/><circle cx="391.67" cy="316.33" r=".54"/><circle cx="393.86" cy="318.52" r=".54"/><circle cx="396.05" cy="320.71" r=".54"/><circle cx="398.24" cy="322.9" r=".54"/><circle cx="400.43" cy="325.09" r=".54"/><circle cx="402.62" cy="327.28" r=".54"/><circle cx="404.81" cy="329.47" r=".54"/><circle cx="407" cy="331.66" r=".54"/><circle cx="409.19" cy="333.85" r=".54"/><circle cx="411.38" cy="336.04" r=".54"/><circle cx="413.57" cy="338.23" r=".54"/><circle cx="415.76" cy="340.42" r=".54"/><circle cx="417.95" cy="342.61" r=".54"/><circle cx="420.15" cy="344.81" r=".54"/><circle cx="422.34" cy="347" r=".54"/><circle cx="384.49" cy="312.42" r=".54"/><circle cx="386.68" cy="314.61" r=".54"/><circle cx="388.87" cy="316.8" r=".54"/><circle cx="391.06" cy="318.99" r=".54"/><circle cx="393.25" cy="321.18" r=".54"/><circle cx="395.44" cy="323.37" r=".54"/><circle cx="397.63" cy="325.56" r=".54"/><circle cx="399.82" cy="327.75" r=".54"/><circle cx="402.01" cy="329.94" r=".54"/><circle cx="404.2" cy="332.13" r=".54"/><circle cx="406.39" cy="334.33" r=".54"/><circle cx="408.58" cy="336.52" r=".54"/><circle cx="410.77" cy="338.71" r=".54"/><circle cx="412.96" cy="340.9" r=".54"/><circle cx="415.15" cy="343.09" r=".54"/><circle cx="417.34" cy="345.28" r=".54"/><circle cx="419.54" cy="347.47" r=".54"/></g><g clip-path="url(#a)" fill="#bad8db"><circle cx="393.38" cy="253.28" r=".54"/><circle cx="395.57" cy="255.47" r=".54"/><circle cx="397.76" cy="257.66" r=".54"/><circle cx="399.95" cy="259.85" r=".54"/><circle cx="402.14" cy="262.04" r=".54"/><circle cx="404.33" cy="264.23" r=".54"/><circle cx="406.52" cy="266.42" r=".54"/><circle cx="408.71" cy="268.61" r=".54"/><circle cx="410.9" cy="270.8" r=".54"/><circle cx="413.09" cy="273" r=".54"/><circle cx="415.28" cy="275.19" r=".54"/><circle cx="417.47" cy="277.38" r=".54"/><circle cx="419.67" cy="279.57" r=".54"/><circle cx="421.86" cy="281.76" r=".54"/><circle cx="424.05" cy="283.95" r=".54"/><circle cx="426.24" cy="286.14" r=".54"/><circle cx="428.43" cy="288.33" r=".54"/><circle cx="430.62" cy="290.52" r=".54"/><circle cx="432.81" cy="292.71" r=".54"/><circle cx="435" cy="294.9" r=".54"/><circle cx="390.58" cy="253.75" r=".54"/><circle cx="392.77" cy="255.94" r=".54"/><circle cx="394.96" cy="258.13" r=".54"/><circle cx="397.15" cy="260.32" r=".54"/><circle cx="399.34" cy="262.52" r=".54"/><circle cx="401.53" cy="264.71" r=".54"/><circle cx="403.72" cy="266.9" r=".54"/><circle cx="405.91" cy="269.09" r=".54"/><circle cx="408.1" cy="271.28" r=".54"/><circle cx="410.29" cy="273.47" r=".54"/><circle cx="412.48" cy="275.66" r=".54"/><circle cx="414.67" cy="277.85" r=".54"/><circle cx="416.87" cy="280.04" r=".54"/><circle cx="419.06" cy="282.23" r=".54"/><circle cx="421.25" cy="284.42" r=".54"/><circle cx="423.44" cy="286.61" r=".54"/><circle cx="425.63" cy="288.8" r=".54"/><circle cx="427.82" cy="290.99" r=".54"/><circle cx="430.01" cy="293.18" r=".54"/><circle cx="432.2" cy="295.37" r=".54"/><circle cx="434.39" cy="297.56" r=".54"/></g><g clip-path="url(#a)" fill="#bad8db"><circle cx="387.59" cy="254.69" r=".54"/><circle cx="389.78" cy="256.88" r=".54"/><circle cx="391.97" cy="259.07" r=".54"/><circle cx="394.16" cy="261.26" r=".54"/><circle cx="396.35" cy="263.45" r=".54"/><circle cx="398.54" cy="265.64" r=".54"/><circle cx="400.73" cy="267.83" r=".54"/><circle cx="402.92" cy="270.02" r=".54"/><circle cx="405.11" cy="272.21" r=".54"/><circle cx="407.31" cy="274.4" r=".54"/><circle cx="409.5" cy="276.59" r=".54"/><circle cx="411.69" cy="278.78" r=".54"/><circle cx="413.88" cy="280.97" r=".54"/><circle cx="416.07" cy="283.16" r=".54"/><circle cx="418.26" cy="285.36" r=".54"/><circle cx="420.45" cy="287.55" r=".54"/><circle cx="422.64" cy="289.74" r=".54"/><circle cx="424.83" cy="291.93" r=".54"/><circle cx="427.02" cy="294.12" r=".54"/><circle cx="429.21" cy="296.31" r=".54"/><circle cx="431.4" cy="298.5" r=".54"/><circle cx="433.59" cy="300.69" r=".54"/><circle cx="435.78" cy="302.88" r=".54"/><circle cx="384.79" cy="255.16" r=".54"/><circle cx="386.98" cy="257.35" r=".54"/><circle cx="389.17" cy="259.54" r=".54"/><circle cx="391.36" cy="261.73" r=".54"/><circle cx="393.55" cy="263.92" r=".54"/><circle cx="395.74" cy="266.11" r=".54"/><circle cx="397.93" cy="268.3" r=".54"/><circle cx="400.12" cy="270.49" r=".54"/><circle cx="402.31" cy="272.68" r=".54"/><circle cx="404.51" cy="274.88" r=".54"/><circle cx="406.7" cy="277.07" r=".54"/><circle cx="408.89" cy="279.26" r=".54"/><circle cx="411.08" cy="281.45" r=".54"/><circle cx="413.27" cy="283.64" r=".54"/><circle cx="415.46" cy="285.83" r=".54"/><circle cx="417.65" cy="288.02" r=".54"/><circle cx="419.84" cy="290.21" r=".54"/><circle cx="422.03" cy="292.4" r=".54"/><circle cx="424.22" cy="294.59" r=".54"/><circle cx="426.41" cy="296.78" r=".54"/><circle cx="428.6" cy="298.97" r=".54"/><circle cx="430.79" cy="301.16" r=".54"/><circle cx="432.98" cy="303.35" r=".54"/><circle cx="435.17" cy="305.54" r=".54"/></g><g clip-path="url(#a)" fill="#bad8db"><circle cx="383.99" cy="258.28" r=".54"/><circle cx="386.18" cy="260.48" r=".54"/><circle cx="388.37" cy="262.67" r=".54"/><circle cx="390.56" cy="264.86" r=".54"/><circle cx="392.75" cy="267.05" r=".54"/><circle cx="394.95" cy="269.24" r=".54"/><circle cx="397.14" cy="271.43" r=".54"/><circle cx="399.33" cy="273.62" r=".54"/><circle cx="401.52" cy="275.81" r=".54"/><circle cx="403.71" cy="278" r=".54"/><circle cx="405.9" cy="280.19" r=".54"/><circle cx="408.09" cy="282.38" r=".54"/><circle cx="410.28" cy="284.57" r=".54"/><circle cx="412.47" cy="286.76" r=".54"/><circle cx="414.66" cy="288.95" r=".54"/><circle cx="416.85" cy="291.14" r=".54"/><circle cx="419.04" cy="293.33" r=".54"/><circle cx="421.23" cy="295.52" r=".54"/><circle cx="423.42" cy="297.72" r=".54"/><circle cx="425.61" cy="299.91" r=".54"/><circle cx="427.8" cy="302.1" r=".54"/><circle cx="429.99" cy="304.29" r=".54"/><circle cx="432.19" cy="306.48" r=".54"/><circle cx="434.38" cy="308.67" r=".54"/><circle cx="383.38" cy="260.95" r=".54"/><circle cx="385.57" cy="263.14" r=".54"/><circle cx="387.76" cy="265.33" r=".54"/><circle cx="389.95" cy="267.52" r=".54"/><circle cx="392.14" cy="269.71" r=".54"/><circle cx="394.34" cy="271.9" r=".54"/><circle cx="396.53" cy="274.09" r=".54"/><circle cx="398.72" cy="276.28" r=".54"/><circle cx="400.91" cy="278.47" r=".54"/><circle cx="403.1" cy="280.66" r=".54"/><circle cx="405.29" cy="282.85" r=".54"/><circle cx="407.48" cy="285.04" r=".54"/><circle cx="409.67" cy="287.24" r=".54"/><circle cx="411.86" cy="289.43" r=".54"/><circle cx="414.05" cy="291.62" r=".54"/><circle cx="416.24" cy="293.81" r=".54"/><circle cx="418.43" cy="296" r=".54"/><circle cx="420.62" cy="298.19" r=".54"/><circle cx="422.81" cy="300.38" r=".54"/><circle cx="425" cy="302.57" r=".54"/><circle cx="427.19" cy="304.76" r=".54"/><circle cx="429.39" cy="306.95" r=".54"/><circle cx="431.58" cy="309.14" r=".54"/><circle cx="433.77" cy="311.33" r=".54"/><circle cx="435.96" cy="313.52" r=".54"/></g><g clip-path="url(#a)" fill="#bad8db"><circle cx="384.78" cy="266.26" r=".54"/><circle cx="386.97" cy="268.45" r=".54"/><circle cx="389.16" cy="270.64" r=".54"/><circle cx="391.35" cy="272.84" r=".54"/><circle cx="393.54" cy="275.03" r=".54"/><circle cx="395.73" cy="277.22" r=".54"/><circle cx="397.92" cy="279.41" r=".54"/><circle cx="400.11" cy="281.6" r=".54"/><circle cx="402.3" cy="283.79" r=".54"/><circle cx="404.49" cy="285.98" r=".54"/><circle cx="406.68" cy="288.17" r=".54"/><circle cx="408.87" cy="290.36" r=".54"/><circle cx="411.06" cy="292.55" r=".54"/><circle cx="413.25" cy="294.74" r=".54"/><circle cx="415.44" cy="296.93" r=".54"/><circle cx="417.63" cy="299.12" r=".54"/><circle cx="419.83" cy="301.31" r=".54"/><circle cx="422.02" cy="303.5" r=".54"/><circle cx="424.21" cy="305.69" r=".54"/><circle cx="426.4" cy="307.89" r=".54"/><circle cx="428.59" cy="310.08" r=".54"/><circle cx="430.78" cy="312.27" r=".54"/><circle cx="432.97" cy="314.46" r=".54"/><circle cx="435.16" cy="316.65" r=".54"/><circle cx="384.17" cy="268.93" r=".54"/><circle cx="386.36" cy="271.12" r=".54"/><circle cx="388.55" cy="273.31" r=".54"/><circle cx="390.74" cy="275.5" r=".54"/><circle cx="392.93" cy="277.69" r=".54"/><circle cx="395.12" cy="279.88" r=".54"/><circle cx="397.31" cy="282.07" r=".54"/><circle cx="399.5" cy="284.26" r=".54"/><circle cx="401.69" cy="286.45" r=".54"/><circle cx="403.88" cy="288.64" r=".54"/><circle cx="406.07" cy="290.83" r=".54"/><circle cx="408.26" cy="293.02" r=".54"/><circle cx="410.45" cy="295.21" r=".54"/><circle cx="412.64" cy="297.4" r=".54"/><circle cx="414.83" cy="299.6" r=".54"/><circle cx="417.03" cy="301.79" r=".54"/><circle cx="419.22" cy="303.98" r=".54"/><circle cx="421.41" cy="306.17" r=".54"/><circle cx="423.6" cy="308.36" r=".54"/><circle cx="425.79" cy="310.55" r=".54"/><circle cx="427.98" cy="312.74" r=".54"/><circle cx="430.17" cy="314.93" r=".54"/><circle cx="432.36" cy="317.12" r=".54"/><circle cx="434.55" cy="319.31" r=".54"/></g><g clip-path="url(#a)" fill="#bad8db"><circle cx="383.37" cy="272.05" r=".54"/><circle cx="385.56" cy="274.24" r=".54"/><circle cx="387.75" cy="276.43" r=".54"/><circle cx="389.94" cy="278.62" r=".54"/><circle cx="392.13" cy="280.81" r=".54"/><circle cx="394.32" cy="283" r=".54"/><circle cx="396.51" cy="285.2" r=".54"/><circle cx="398.7" cy="287.39" r=".54"/><circle cx="400.89" cy="289.58" r=".54"/><circle cx="403.08" cy="291.77" r=".54"/><circle cx="405.27" cy="293.96" r=".54"/><circle cx="407.47" cy="296.15" r=".54"/><circle cx="409.66" cy="298.34" r=".54"/><circle cx="411.85" cy="300.53" r=".54"/><circle cx="414.04" cy="302.72" r=".54"/><circle cx="416.23" cy="304.91" r=".54"/><circle cx="418.42" cy="307.1" r=".54"/><circle cx="420.61" cy="309.29" r=".54"/><circle cx="422.8" cy="311.48" r=".54"/><circle cx="424.99" cy="313.67" r=".54"/><circle cx="427.18" cy="315.86" r=".54"/><circle cx="429.37" cy="318.05" r=".54"/><circle cx="431.56" cy="320.25" r=".54"/><circle cx="433.75" cy="322.44" r=".54"/><circle cx="435.94" cy="324.63" r=".54"/><circle cx="384.95" cy="276.91" r=".54"/><circle cx="387.14" cy="279.1" r=".54"/><circle cx="389.33" cy="281.29" r=".54"/><circle cx="391.52" cy="283.48" r=".54"/><circle cx="393.71" cy="285.67" r=".54"/><circle cx="395.9" cy="287.86" r=".54"/><circle cx="398.09" cy="290.05" r=".54"/><circle cx="400.28" cy="292.24" r=".54"/><circle cx="402.47" cy="294.43" r=".54"/><circle cx="404.66" cy="296.62" r=".54"/><circle cx="406.86" cy="298.81" r=".54"/><circle cx="409.05" cy="301" r=".54"/><circle cx="411.24" cy="303.19" r=".54"/><circle cx="413.43" cy="305.38" r=".54"/><circle cx="415.62" cy="307.57" r=".54"/><circle cx="417.81" cy="309.76" r=".54"/><circle cx="420" cy="311.96" r=".54"/><circle cx="422.19" cy="314.15" r=".54"/><circle cx="424.38" cy="316.34" r=".54"/><circle cx="426.57" cy="318.53" r=".54"/><circle cx="428.76" cy="320.72" r=".54"/><circle cx="430.95" cy="322.91" r=".54"/><circle cx="433.14" cy="325.1" r=".54"/><circle cx="435.33" cy="327.29" r=".54"/></g><g clip-path="url(#a)" fill="#bad8db"><circle cx="431.08" cy="255.01" r=".54"/><circle cx="433.27" cy="257.2" r=".54"/><circle cx="435.46" cy="259.39" r=".54"/><circle cx="426.09" cy="253.29" r=".54"/><circle cx="428.28" cy="255.48" r=".54"/><circle cx="430.47" cy="257.67" r=".54"/><circle cx="432.66" cy="259.86" r=".54"/><circle cx="434.85" cy="262.05" r=".54"/></g><g clip-path="url(#a)" fill="#bad8db"><circle cx="423.1" cy="254.22" r=".54"/><circle cx="425.29" cy="256.41" r=".54"/><circle cx="427.48" cy="258.6" r=".54"/><circle cx="429.67" cy="260.8" r=".54"/><circle cx="431.87" cy="262.99" r=".54"/><circle cx="434.06" cy="265.18" r=".54"/><circle cx="436.25" cy="267.37" r=".54"/><circle cx="420.3" cy="254.7" r=".54"/><circle cx="422.49" cy="256.89" r=".54"/><circle cx="424.68" cy="259.08" r=".54"/><circle cx="426.87" cy="261.27" r=".54"/><circle cx="429.07" cy="263.46" r=".54"/><circle cx="431.26" cy="265.65" r=".54"/><circle cx="433.45" cy="267.84" r=".54"/><circle cx="435.64" cy="270.03" r=".54"/></g><g clip-path="url(#a)" fill="#bad8db"><circle cx="415.12" cy="253.44" r=".54"/><circle cx="417.31" cy="255.63" r=".54"/><circle cx="419.51" cy="257.82" r=".54"/><circle cx="421.7" cy="260.01" r=".54"/><circle cx="423.89" cy="262.2" r=".54"/><circle cx="426.08" cy="264.39" r=".54"/><circle cx="428.27" cy="266.58" r=".54"/><circle cx="430.46" cy="268.77" r=".54"/><circle cx="432.65" cy="270.96" r=".54"/><circle cx="434.84" cy="273.16" r=".54"/><circle cx="412.32" cy="253.91" r=".54"/><circle cx="414.51" cy="256.1" r=".54"/><circle cx="416.71" cy="258.29" r=".54"/><circle cx="418.9" cy="260.48" r=".54"/><circle cx="421.09" cy="262.68" r=".54"/><circle cx="423.28" cy="264.87" r=".54"/><circle cx="425.47" cy="267.06" r=".54"/><circle cx="427.66" cy="269.25" r=".54"/><circle cx="429.85" cy="271.44" r=".54"/><circle cx="432.04" cy="273.63" r=".54"/><circle cx="434.23" cy="275.82" r=".54"/><circle cx="436.42" cy="278.01" r=".54"/></g><g clip-path="url(#a)" fill="#bad8db"><circle cx="409.34" cy="254.85" r=".54"/><circle cx="411.53" cy="257.04" r=".54"/><circle cx="413.72" cy="259.23" r=".54"/><circle cx="415.91" cy="261.42" r=".54"/><circle cx="418.1" cy="263.61" r=".54"/><circle cx="420.29" cy="265.8" r=".54"/><circle cx="422.48" cy="267.99" r=".54"/><circle cx="424.67" cy="270.18" r=".54"/><circle cx="426.86" cy="272.37" r=".54"/><circle cx="429.05" cy="274.56" r=".54"/><circle cx="431.24" cy="276.75" r=".54"/><circle cx="433.43" cy="278.94" r=".54"/><circle cx="435.62" cy="281.13" r=".54"/><circle cx="406.54" cy="255.32" r=".54"/><circle cx="408.73" cy="257.51" r=".54"/><circle cx="410.92" cy="259.7" r=".54"/><circle cx="413.11" cy="261.89" r=".54"/><circle cx="415.3" cy="264.08" r=".54"/><circle cx="417.49" cy="266.27" r=".54"/><circle cx="419.68" cy="268.46" r=".54"/><circle cx="421.87" cy="270.65" r=".54"/><circle cx="424.06" cy="272.84" r=".54"/><circle cx="426.25" cy="275.04" r=".54"/><circle cx="428.44" cy="277.23" r=".54"/><circle cx="430.63" cy="279.42" r=".54"/><circle cx="432.82" cy="281.61" r=".54"/><circle cx="435.01" cy="283.8" r=".54"/></g><g clip-path="url(#a)" fill="#bad8db"><circle cx="401.36" cy="254.06" r=".54"/><circle cx="403.55" cy="256.25" r=".54"/><circle cx="405.74" cy="258.44" r=".54"/><circle cx="407.93" cy="260.64" r=".54"/><circle cx="410.12" cy="262.83" r=".54"/><circle cx="412.31" cy="265.02" r=".54"/><circle cx="414.5" cy="267.21" r=".54"/><circle cx="416.69" cy="269.4" r=".54"/><circle cx="418.88" cy="271.59" r=".54"/><circle cx="421.07" cy="273.78" r=".54"/><circle cx="423.26" cy="275.97" r=".54"/><circle cx="425.45" cy="278.16" r=".54"/><circle cx="427.64" cy="280.35" r=".54"/><circle cx="429.83" cy="282.54" r=".54"/><circle cx="432.03" cy="284.73" r=".54"/><circle cx="434.22" cy="286.92" r=".54"/><circle cx="436.41" cy="289.11" r=".54"/><circle cx="398.56" cy="254.54" r=".54"/><circle cx="400.75" cy="256.73" r=".54"/><circle cx="402.94" cy="258.92" r=".54"/><circle cx="405.13" cy="261.11" r=".54"/><circle cx="407.32" cy="263.3" r=".54"/><circle cx="409.51" cy="265.49" r=".54"/><circle cx="411.7" cy="267.68" r=".54"/><circle cx="413.89" cy="269.87" r=".54"/><circle cx="416.08" cy="272.06" r=".54"/><circle cx="418.27" cy="274.25" r=".54"/><circle cx="420.46" cy="276.44" r=".54"/><circle cx="422.65" cy="278.63" r=".54"/><circle cx="424.84" cy="280.82" r=".54"/><circle cx="427.03" cy="283.01" r=".54"/><circle cx="429.23" cy="285.2" r=".54"/><circle cx="431.42" cy="287.4" r=".54"/><circle cx="433.61" cy="289.59" r=".54"/><circle cx="435.8" cy="291.78" r=".54"/></g><g clip-path="url(#a)" fill="#bad8db"><circle cx="434.07" cy="254.07" r=".54"/><circle cx="436.26" cy="256.26" r=".54"/></g><path d="m426.89 271.75-14.34-5.11" fill="#fff" stroke="#97b1b2" stroke-miterlimit="10" stroke-width=".7448"/><path d="m422 289.08-19.94.19" fill="none" stroke="#ff8288" stroke-miterlimit="10" stroke-width="1.769"/><path d="m420.37 299.31-24.28.22" fill="none" stroke="#ff8288" stroke-miterlimit="10" stroke-width="1.769"/><path d="m317.9 321.54c19.69 0 19.69 5.23 39.38 5.23s19.69-5.23 39.38-5.23 19.69 5.23 39.38 5.23 19.69-5.23 39.38-5.23v35.87h-157.52z" fill="#fff"/><path d="m317.9 321.54c19.69 0 19.69 3.43 39.38 3.43s19.69-3.43 39.38-3.43 19.69 3.43 39.38 3.43 19.69-3.43 39.38-3.43" fill="none" stroke="#97b1b2" stroke-linecap="round" stroke-miterlimit="10" stroke-width="2.0639"/><path d="m419.72 269.19-3.55 10.63" fill="none" stroke="#97b1b2" stroke-miterlimit="10" stroke-width="1.769"/><path d="m387.38 310.26 32.34 11.28" fill="#ecf3f6" stroke="#97b1b2" stroke-miterlimit="10" stroke-width="1.769"/><path d="m410.18 265.67 19.66 7.15" fill="none" stroke="#97b1b2" stroke-miterlimit="10" stroke-width="1.769"/><path d="m406.34 276.4 19.66 7.15" fill="none" stroke="#97b1b2" stroke-miterlimit="10" stroke-width="1.769"/><circle cx="249.97" cy="21.2" fill="#aac6ca" r=".53"/><circle cx="251.81" cy="26.47" fill="#aac6ca" r=".53"/><circle cx="222.02" cy="110.88" fill="#fff" r="2.74" stroke="#97b1b2" stroke-miterlimit="10" stroke-width="1.769"/><path d="m223.05 113.62c.13 1.1.19 2.21.22 3.32l.01.41c0 .15.01.24 0 .5-.02.44-.14.87-.34 1.27-.39.79-1.08 1.42-1.92 1.69-.83.28-1.75.22-2.53-.16-.77-.39-1.36-1.08-1.62-1.87-.13-.39-.19-.83-.16-1.2.02-.28.07-.55.15-.83.17-.55.39-1.11.88-1.66.49.55.71 1.1.88 1.66.07.28.12.55.15.83.02.19.06.29.13.42.27.49.87.66 1.29.46.2-.1.39-.26.48-.46.05-.1.07-.21.08-.32.01-.02.01-.2.01-.33l.01-.41c.03-1.1.08-2.21.22-3.32z" fill="#97b1b2"/><path d="m480.73 125.89c-2.99-16.99-20.25-30.02-41.09-30.02-15.33 0-28.71 7.06-35.92 17.55-3.18-1.37-6.77-2.16-10.58-2.16-10.23 0-18.9 5.57-22.1 13.33-.26.62.21 1.31.88 1.31h108.81z" fill="#fff"/><path d="m157.24 79.27 9.32-9.32c-2.4-.05-4.82.84-6.65 2.67s-2.72 4.25-2.67 6.65z" fill="#ff8288"/><path d="m157.24 79.27-9.32-9.32c2.4-.05 4.82.84 6.65 2.67s2.72 4.25 2.67 6.65z" fill="#ff8288"/><path d="m136.09 102.94 9.32-9.32c-2.4-.05-4.82.84-6.65 2.67s-2.72 4.25-2.67 6.65z" fill="#ff8288"/><path d="m136.09 102.94-9.32-9.32c2.4-.05 4.82.84 6.65 2.67s2.72 4.25 2.67 6.65z" fill="#ff8288"/><path d="m313.41 98.28 9.32-9.32c-2.4-.05-4.82.84-6.65 2.67s-2.72 4.25-2.67 6.65z" fill="#ff8288"/><path d="m313.41 98.28-9.32-9.32c2.4-.05 4.82.84 6.65 2.67s2.72 4.25 2.67 6.65z" fill="#ff8288"/><g clip-path="url(#b)" fill="#bad8db"><circle cx="152.13" cy="236.46" r=".54"/><circle cx="154.32" cy="238.65" r=".54"/><circle cx="156.51" cy="240.84" r=".54"/><circle cx="158.7" cy="243.03" r=".54"/><circle cx="160.89" cy="245.22" r=".54"/><circle cx="163.08" cy="247.41" r=".54"/><circle cx="165.27" cy="249.6" r=".54"/><circle cx="167.46" cy="251.79" r=".54"/><circle cx="169.65" cy="253.98" r=".54"/><circle cx="171.84" cy="256.17" r=".54"/><circle cx="174.04" cy="258.37" r=".54"/><circle cx="151.52" cy="239.12" r=".54"/><circle cx="153.71" cy="241.31" r=".54"/><circle cx="155.9" cy="243.5" r=".54"/><circle cx="158.09" cy="245.69" r=".54"/><circle cx="160.28" cy="247.88" r=".54"/><circle cx="162.47" cy="250.08" r=".54"/><circle cx="164.66" cy="252.27" r=".54"/><circle cx="166.85" cy="254.46" r=".54"/><circle cx="169.04" cy="256.65" r=".54"/><circle cx="171.24" cy="258.84" r=".54"/><circle cx="152.91" cy="244.44" r=".54"/><circle cx="155.1" cy="246.63" r=".54"/><circle cx="157.29" cy="248.82" r=".54"/><circle cx="159.48" cy="251.01" r=".54"/><circle cx="161.68" cy="253.2" r=".54"/><circle cx="163.87" cy="255.39" r=".54"/><circle cx="166.06" cy="257.58" r=".54"/><circle cx="152.3" cy="247.1" r=".54"/><circle cx="154.49" cy="249.29" r=".54"/><circle cx="156.68" cy="251.48" r=".54"/><circle cx="158.87" cy="253.67" r=".54"/><circle cx="161.07" cy="255.86" r=".54"/><circle cx="163.26" cy="258.05" r=".54"/><circle cx="151.51" cy="250.23" r=".54"/><circle cx="153.7" cy="252.42" r=".54"/><circle cx="155.89" cy="254.61" r=".54"/><circle cx="158.08" cy="256.8" r=".54"/><circle cx="160.27" cy="258.99" r=".54"/><circle cx="153.09" cy="255.08" r=".54"/><circle cx="155.28" cy="257.27" r=".54"/><circle cx="157.47" cy="259.46" r=".54"/><circle cx="152.29" cy="258.21" r=".54"/><circle cx="152.59" cy="200.95" r=".54"/><circle cx="154.78" cy="203.14" r=".54"/><circle cx="156.97" cy="205.33" r=".54"/><circle cx="159.16" cy="207.52" r=".54"/><circle cx="161.36" cy="209.71" r=".54"/><circle cx="163.55" cy="211.9" r=".54"/><circle cx="165.74" cy="214.09" r=".54"/><circle cx="167.93" cy="216.28" r=".54"/><circle cx="170.12" cy="218.47" r=".54"/><circle cx="172.31" cy="220.66" r=".54"/><circle cx="174.5" cy="222.85" r=".54"/><circle cx="176.69" cy="225.04" r=".54"/><circle cx="178.88" cy="227.23" r=".54"/><circle cx="181.07" cy="229.42" r=".54"/><circle cx="183.26" cy="231.61" r=".54"/><circle cx="185.45" cy="233.8" r=".54"/><circle cx="187.64" cy="236" r=".54"/><circle cx="189.83" cy="238.19" r=".54"/><circle cx="192.02" cy="240.38" r=".54"/><circle cx="194.21" cy="242.57" r=".54"/><circle cx="196.4" cy="244.76" r=".54"/><circle cx="198.6" cy="246.95" r=".54"/><circle cx="200.79" cy="249.14" r=".54"/><circle cx="202.98" cy="251.33" r=".54"/><circle cx="205.17" cy="253.52" r=".54"/><circle cx="207.36" cy="255.71" r=".54"/><circle cx="209.55" cy="257.9" r=".54"/><circle cx="151.98" cy="203.61" r=".54"/><circle cx="154.17" cy="205.8" r=".54"/><circle cx="156.36" cy="207.99" r=".54"/><circle cx="158.56" cy="210.18" r=".54"/><circle cx="160.75" cy="212.37" r=".54"/><circle cx="162.94" cy="214.56" r=".54"/><circle cx="165.13" cy="216.75" r=".54"/><circle cx="167.32" cy="218.94" r=".54"/><circle cx="169.51" cy="221.13" r=".54"/><circle cx="171.7" cy="223.32" r=".54"/><circle cx="173.89" cy="225.52" r=".54"/><circle cx="176.08" cy="227.71" r=".54"/><circle cx="178.27" cy="229.9" r=".54"/><circle cx="180.46" cy="232.09" r=".54"/><circle cx="182.65" cy="234.28" r=".54"/><circle cx="184.84" cy="236.47" r=".54"/><circle cx="187.03" cy="238.66" r=".54"/><circle cx="189.22" cy="240.85" r=".54"/><circle cx="191.41" cy="243.04" r=".54"/><circle cx="193.6" cy="245.23" r=".54"/><circle cx="195.8" cy="247.42" r=".54"/><circle cx="197.99" cy="249.61" r=".54"/><circle cx="200.18" cy="251.8" r=".54"/><circle cx="202.37" cy="253.99" r=".54"/><circle cx="204.56" cy="256.18" r=".54"/><circle cx="206.75" cy="258.37" r=".54"/><circle cx="151.19" cy="206.73" r=".54"/><circle cx="153.38" cy="208.92" r=".54"/><circle cx="155.57" cy="211.12" r=".54"/><circle cx="157.76" cy="213.31" r=".54"/><circle cx="159.95" cy="215.5" r=".54"/><circle cx="162.14" cy="217.69" r=".54"/><circle cx="164.33" cy="219.88" r=".54"/><circle cx="166.52" cy="222.07" r=".54"/><circle cx="168.71" cy="224.26" r=".54"/><circle cx="170.9" cy="226.45" r=".54"/><circle cx="173.09" cy="228.64" r=".54"/><circle cx="175.28" cy="230.83" r=".54"/><circle cx="177.47" cy="233.02" r=".54"/><circle cx="179.66" cy="235.21" r=".54"/><circle cx="181.85" cy="237.4" r=".54"/><circle cx="184.04" cy="239.59" r=".54"/><circle cx="186.24" cy="241.78" r=".54"/><circle cx="188.43" cy="243.97" r=".54"/><circle cx="190.62" cy="246.17" r=".54"/><circle cx="192.81" cy="248.36" r=".54"/><circle cx="195" cy="250.55" r=".54"/><circle cx="197.19" cy="252.74" r=".54"/><circle cx="199.38" cy="254.93" r=".54"/><circle cx="201.57" cy="257.12" r=".54"/><circle cx="203.76" cy="259.31" r=".54"/><circle cx="152.77" cy="211.59" r=".54"/><circle cx="154.96" cy="213.78" r=".54"/><circle cx="157.15" cy="215.97" r=".54"/><circle cx="159.34" cy="218.16" r=".54"/><circle cx="161.53" cy="220.35" r=".54"/><circle cx="163.72" cy="222.54" r=".54"/><circle cx="165.91" cy="224.73" r=".54"/><circle cx="168.1" cy="226.92" r=".54"/><circle cx="170.29" cy="229.11" r=".54"/><circle cx="172.48" cy="231.3" r=".54"/><circle cx="174.67" cy="233.49" r=".54"/><circle cx="176.86" cy="235.68" r=".54"/><circle cx="179.05" cy="237.88" r=".54"/><circle cx="181.24" cy="240.07" r=".54"/><circle cx="183.44" cy="242.26" r=".54"/><circle cx="185.63" cy="244.45" r=".54"/><circle cx="187.82" cy="246.64" r=".54"/><circle cx="190.01" cy="248.83" r=".54"/><circle cx="192.2" cy="251.02" r=".54"/><circle cx="194.39" cy="253.21" r=".54"/><circle cx="196.58" cy="255.4" r=".54"/><circle cx="198.77" cy="257.59" r=".54"/><circle cx="151.97" cy="214.71" r=".54"/><circle cx="154.16" cy="216.9" r=".54"/><circle cx="156.35" cy="219.09" r=".54"/><circle cx="158.54" cy="221.28" r=".54"/><circle cx="160.73" cy="223.48" r=".54"/><circle cx="162.92" cy="225.67" r=".54"/><circle cx="165.11" cy="227.86" r=".54"/><circle cx="167.3" cy="230.05" r=".54"/><circle cx="169.49" cy="232.24" r=".54"/><circle cx="171.68" cy="234.43" r=".54"/><circle cx="173.88" cy="236.62" r=".54"/><circle cx="176.07" cy="238.81" r=".54"/><circle cx="178.26" cy="241" r=".54"/><circle cx="180.45" cy="243.19" r=".54"/><circle cx="182.64" cy="245.38" r=".54"/><circle cx="184.83" cy="247.57" r=".54"/><circle cx="187.02" cy="249.76" r=".54"/><circle cx="189.21" cy="251.95" r=".54"/><circle cx="191.4" cy="254.14" r=".54"/><circle cx="193.59" cy="256.33" r=".54"/><circle cx="195.78" cy="258.53" r=".54"/><circle cx="151.36" cy="217.38" r=".54"/><circle cx="153.55" cy="219.57" r=".54"/><circle cx="155.74" cy="221.76" r=".54"/><circle cx="157.93" cy="223.95" r=".54"/><circle cx="160.12" cy="226.14" r=".54"/><circle cx="162.31" cy="228.33" r=".54"/><circle cx="164.5" cy="230.52" r=".54"/><circle cx="166.69" cy="232.71" r=".54"/><circle cx="168.88" cy="234.9" r=".54"/><circle cx="171.08" cy="237.09" r=".54"/><circle cx="173.27" cy="239.28" r=".54"/><circle cx="175.46" cy="241.47" r=".54"/><circle cx="177.65" cy="243.66" r=".54"/><circle cx="179.84" cy="245.85" r=".54"/><circle cx="182.03" cy="248.04" r=".54"/><circle cx="184.22" cy="250.24" r=".54"/><circle cx="186.41" cy="252.43" r=".54"/><circle cx="188.6" cy="254.62" r=".54"/><circle cx="190.79" cy="256.81" r=".54"/><circle cx="192.98" cy="259" r=".54"/><circle cx="152.75" cy="222.69" r=".54"/><circle cx="154.94" cy="224.88" r=".54"/><circle cx="157.13" cy="227.07" r=".54"/><circle cx="159.32" cy="229.26" r=".54"/><circle cx="161.52" cy="231.45" r=".54"/><circle cx="163.71" cy="233.64" r=".54"/><circle cx="165.9" cy="235.84" r=".54"/><circle cx="168.09" cy="238.03" r=".54"/><circle cx="170.28" cy="240.22" r=".54"/><circle cx="172.47" cy="242.41" r=".54"/><circle cx="174.66" cy="244.6" r=".54"/><circle cx="176.85" cy="246.79" r=".54"/><circle cx="179.04" cy="248.98" r=".54"/><circle cx="181.23" cy="251.17" r=".54"/><circle cx="183.42" cy="253.36" r=".54"/><circle cx="185.61" cy="255.55" r=".54"/><circle cx="187.8" cy="257.74" r=".54"/><circle cx="152.14" cy="225.36" r=".54"/><circle cx="154.33" cy="227.55" r=".54"/><circle cx="156.52" cy="229.74" r=".54"/><circle cx="158.71" cy="231.93" r=".54"/><circle cx="160.91" cy="234.12" r=".54"/><circle cx="163.1" cy="236.31" r=".54"/><circle cx="165.29" cy="238.5" r=".54"/><circle cx="167.48" cy="240.69" r=".54"/><circle cx="169.67" cy="242.88" r=".54"/><circle cx="171.86" cy="245.07" r=".54"/><circle cx="174.05" cy="247.26" r=".54"/><circle cx="176.24" cy="249.45" r=".54"/><circle cx="178.43" cy="251.64" r=".54"/><circle cx="180.62" cy="253.83" r=".54"/><circle cx="182.81" cy="256.02" r=".54"/><circle cx="185" cy="258.21" r=".54"/><circle cx="151.35" cy="228.48" r=".54"/><circle cx="153.54" cy="230.67" r=".54"/><circle cx="155.73" cy="232.86" r=".54"/><circle cx="157.92" cy="235.05" r=".54"/><circle cx="160.11" cy="237.24" r=".54"/><circle cx="162.3" cy="239.43" r=".54"/><circle cx="164.49" cy="241.62" r=".54"/><circle cx="166.68" cy="243.81" r=".54"/><circle cx="168.87" cy="246.01" r=".54"/><circle cx="171.06" cy="248.2" r=".54"/><circle cx="173.25" cy="250.39" r=".54"/><circle cx="175.44" cy="252.58" r=".54"/><circle cx="177.63" cy="254.77" r=".54"/><circle cx="179.82" cy="256.96" r=".54"/><circle cx="182.01" cy="259.15" r=".54"/><circle cx="152.93" cy="233.33" r=".54"/><circle cx="155.12" cy="235.52" r=".54"/><circle cx="157.31" cy="237.72" r=".54"/><circle cx="159.5" cy="239.91" r=".54"/><circle cx="161.69" cy="242.1" r=".54"/><circle cx="163.88" cy="244.29" r=".54"/><circle cx="166.07" cy="246.48" r=".54"/><circle cx="168.26" cy="248.67" r=".54"/><circle cx="170.45" cy="250.86" r=".54"/><circle cx="172.64" cy="253.05" r=".54"/><circle cx="174.83" cy="255.24" r=".54"/><circle cx="177.02" cy="257.43" r=".54"/><circle cx="159.63" cy="172" r=".54"/><circle cx="161.82" cy="174.2" r=".54"/><circle cx="164.01" cy="176.39" r=".54"/><circle cx="166.2" cy="178.58" r=".54"/><circle cx="168.39" cy="180.77" r=".54"/><circle cx="170.58" cy="182.96" r=".54"/><circle cx="172.77" cy="185.15" r=".54"/><circle cx="174.96" cy="187.34" r=".54"/><circle cx="177.15" cy="189.53" r=".54"/><circle cx="179.34" cy="191.72" r=".54"/><circle cx="181.53" cy="193.91" r=".54"/><circle cx="183.72" cy="196.1" r=".54"/><circle cx="185.92" cy="198.29" r=".54"/><circle cx="188.11" cy="200.48" r=".54"/><circle cx="190.3" cy="202.67" r=".54"/><circle cx="192.49" cy="204.86" r=".54"/><circle cx="194.68" cy="207.05" r=".54"/><circle cx="196.87" cy="209.24" r=".54"/><circle cx="199.06" cy="211.44" r=".54"/><circle cx="201.25" cy="213.63" r=".54"/><circle cx="203.44" cy="215.82" r=".54"/><circle cx="205.63" cy="218.01" r=".54"/><circle cx="207.82" cy="220.2" r=".54"/><circle cx="210.01" cy="222.39" r=".54"/><circle cx="212.2" cy="224.58" r=".54"/><circle cx="214.39" cy="226.77" r=".54"/><circle cx="216.58" cy="228.96" r=".54"/><circle cx="218.77" cy="231.15" r=".54"/><circle cx="220.97" cy="233.34" r=".54"/><circle cx="223.16" cy="235.53" r=".54"/><circle cx="225.35" cy="237.72" r=".54"/><circle cx="227.54" cy="239.91" r=".54"/><circle cx="229.73" cy="242.1" r=".54"/><circle cx="231.92" cy="244.29" r=".54"/><circle cx="234.11" cy="246.48" r=".54"/><circle cx="236.3" cy="248.68" r=".54"/><circle cx="238.49" cy="250.87" r=".54"/><circle cx="240.68" cy="253.06" r=".54"/><circle cx="242.87" cy="255.25" r=".54"/><circle cx="245.06" cy="257.44" r=".54"/><circle cx="156.83" cy="172.48" r=".54"/><circle cx="159.02" cy="174.67" r=".54"/><circle cx="161.21" cy="176.86" r=".54"/><circle cx="163.4" cy="179.05" r=".54"/><circle cx="165.59" cy="181.24" r=".54"/><circle cx="167.78" cy="183.43" r=".54"/><circle cx="169.97" cy="185.62" r=".54"/><circle cx="172.16" cy="187.81" r=".54"/><circle cx="174.35" cy="190" r=".54"/><circle cx="176.54" cy="192.19" r=".54"/><circle cx="178.73" cy="194.38" r=".54"/><circle cx="180.92" cy="196.57" r=".54"/><circle cx="183.12" cy="198.76" r=".54"/><circle cx="185.31" cy="200.96" r=".54"/><circle cx="187.5" cy="203.15" r=".54"/><circle cx="189.69" cy="205.34" r=".54"/><circle cx="191.88" cy="207.53" r=".54"/><circle cx="194.07" cy="209.72" r=".54"/><circle cx="196.26" cy="211.91" r=".54"/><circle cx="198.45" cy="214.1" r=".54"/><circle cx="200.64" cy="216.29" r=".54"/><circle cx="202.83" cy="218.48" r=".54"/><circle cx="205.02" cy="220.67" r=".54"/><circle cx="207.21" cy="222.86" r=".54"/><circle cx="209.4" cy="225.05" r=".54"/><circle cx="211.59" cy="227.24" r=".54"/><circle cx="213.78" cy="229.43" r=".54"/><circle cx="215.97" cy="231.62" r=".54"/><circle cx="218.16" cy="233.81" r=".54"/><circle cx="220.36" cy="236" r=".54"/><circle cx="222.55" cy="238.2" r=".54"/><circle cx="224.74" cy="240.39" r=".54"/><circle cx="226.93" cy="242.58" r=".54"/><circle cx="229.12" cy="244.77" r=".54"/><circle cx="231.31" cy="246.96" r=".54"/><circle cx="233.5" cy="249.15" r=".54"/><circle cx="235.69" cy="251.34" r=".54"/><circle cx="237.88" cy="253.53" r=".54"/><circle cx="240.07" cy="255.72" r=".54"/><circle cx="242.26" cy="257.91" r=".54"/><circle cx="153.84" cy="173.41" r=".54"/><circle cx="156.03" cy="175.6" r=".54"/><circle cx="158.22" cy="177.79" r=".54"/><circle cx="160.41" cy="179.98" r=".54"/><circle cx="162.6" cy="182.17" r=".54"/><circle cx="164.79" cy="184.36" r=".54"/><circle cx="166.98" cy="186.56" r=".54"/><circle cx="169.17" cy="188.75" r=".54"/><circle cx="171.36" cy="190.94" r=".54"/><circle cx="173.56" cy="193.13" r=".54"/><circle cx="175.75" cy="195.32" r=".54"/><circle cx="177.94" cy="197.51" r=".54"/><circle cx="180.13" cy="199.7" r=".54"/><circle cx="182.32" cy="201.89" r=".54"/><circle cx="184.51" cy="204.08" r=".54"/><circle cx="186.7" cy="206.27" r=".54"/><circle cx="188.89" cy="208.46" r=".54"/><circle cx="191.08" cy="210.65" r=".54"/><circle cx="193.27" cy="212.84" r=".54"/><circle cx="195.46" cy="215.03" r=".54"/><circle cx="197.65" cy="217.22" r=".54"/><circle cx="199.84" cy="219.41" r=".54"/><circle cx="202.03" cy="221.6" r=".54"/><circle cx="204.22" cy="223.8" r=".54"/><circle cx="206.41" cy="225.99" r=".54"/><circle cx="208.61" cy="228.18" r=".54"/><circle cx="210.8" cy="230.37" r=".54"/><circle cx="212.99" cy="232.56" r=".54"/><circle cx="215.18" cy="234.75" r=".54"/><circle cx="217.37" cy="236.94" r=".54"/><circle cx="219.56" cy="239.13" r=".54"/><circle cx="221.75" cy="241.32" r=".54"/><circle cx="223.94" cy="243.51" r=".54"/><circle cx="226.13" cy="245.7" r=".54"/><circle cx="228.32" cy="247.89" r=".54"/><circle cx="230.51" cy="250.08" r=".54"/><circle cx="232.7" cy="252.27" r=".54"/><circle cx="234.89" cy="254.46" r=".54"/><circle cx="237.08" cy="256.65" r=".54"/><circle cx="239.27" cy="258.85" r=".54"/><circle cx="151.04" cy="173.88" r=".54"/><circle cx="153.23" cy="176.07" r=".54"/><circle cx="155.42" cy="178.27" r=".54"/><circle cx="157.61" cy="180.46" r=".54"/><circle cx="159.8" cy="182.65" r=".54"/><circle cx="161.99" cy="184.84" r=".54"/><circle cx="164.18" cy="187.03" r=".54"/><circle cx="166.37" cy="189.22" r=".54"/><circle cx="168.56" cy="191.41" r=".54"/><circle cx="170.76" cy="193.6" r=".54"/><circle cx="172.95" cy="195.79" r=".54"/><circle cx="175.14" cy="197.98" r=".54"/><circle cx="177.33" cy="200.17" r=".54"/><circle cx="179.52" cy="202.36" r=".54"/><circle cx="181.71" cy="204.55" r=".54"/><circle cx="183.9" cy="206.74" r=".54"/><circle cx="186.09" cy="208.93" r=".54"/><circle cx="188.28" cy="211.12" r=".54"/><circle cx="190.47" cy="213.32" r=".54"/><circle cx="192.66" cy="215.51" r=".54"/><circle cx="194.85" cy="217.7" r=".54"/><circle cx="197.04" cy="219.89" r=".54"/><circle cx="199.23" cy="222.08" r=".54"/><circle cx="201.42" cy="224.27" r=".54"/><circle cx="203.61" cy="226.46" r=".54"/><circle cx="205.8" cy="228.65" r=".54"/><circle cx="208" cy="230.84" r=".54"/><circle cx="210.19" cy="233.03" r=".54"/><circle cx="212.38" cy="235.22" r=".54"/><circle cx="214.57" cy="237.41" r=".54"/><circle cx="216.76" cy="239.6" r=".54"/><circle cx="218.95" cy="241.79" r=".54"/><circle cx="221.14" cy="243.98" r=".54"/><circle cx="223.33" cy="246.17" r=".54"/><circle cx="225.52" cy="248.36" r=".54"/><circle cx="227.71" cy="250.56" r=".54"/><circle cx="229.9" cy="252.75" r=".54"/><circle cx="232.09" cy="254.94" r=".54"/><circle cx="234.28" cy="257.13" r=".54"/><circle cx="236.47" cy="259.32" r=".54"/><circle cx="152.43" cy="179.2" r=".54"/><circle cx="154.62" cy="181.39" r=".54"/><circle cx="156.81" cy="183.58" r=".54"/><circle cx="159" cy="185.77" r=".54"/><circle cx="161.2" cy="187.96" r=".54"/><circle cx="163.39" cy="190.15" r=".54"/><circle cx="165.58" cy="192.34" r=".54"/><circle cx="167.77" cy="194.53" r=".54"/><circle cx="169.96" cy="196.72" r=".54"/><circle cx="172.15" cy="198.92" r=".54"/><circle cx="174.34" cy="201.11" r=".54"/><circle cx="176.53" cy="203.3" r=".54"/><circle cx="178.72" cy="205.49" r=".54"/><circle cx="180.91" cy="207.68" r=".54"/><circle cx="183.1" cy="209.87" r=".54"/><circle cx="185.29" cy="212.06" r=".54"/><circle cx="187.48" cy="214.25" r=".54"/><circle cx="189.67" cy="216.44" r=".54"/><circle cx="191.86" cy="218.63" r=".54"/><circle cx="194.05" cy="220.82" r=".54"/><circle cx="196.24" cy="223.01" r=".54"/><circle cx="198.44" cy="225.2" r=".54"/><circle cx="200.63" cy="227.39" r=".54"/><circle cx="202.82" cy="229.58" r=".54"/><circle cx="205.01" cy="231.77" r=".54"/><circle cx="207.2" cy="233.96" r=".54"/><circle cx="209.39" cy="236.16" r=".54"/><circle cx="211.58" cy="238.35" r=".54"/><circle cx="213.77" cy="240.54" r=".54"/><circle cx="215.96" cy="242.73" r=".54"/><circle cx="218.15" cy="244.92" r=".54"/><circle cx="220.34" cy="247.11" r=".54"/><circle cx="222.53" cy="249.3" r=".54"/><circle cx="224.72" cy="251.49" r=".54"/><circle cx="226.91" cy="253.68" r=".54"/><circle cx="229.1" cy="255.87" r=".54"/><circle cx="231.29" cy="258.06" r=".54"/><circle cx="151.82" cy="181.86" r=".54"/><circle cx="154.01" cy="184.05" r=".54"/><circle cx="156.2" cy="186.24" r=".54"/><circle cx="158.4" cy="188.44" r=".54"/><circle cx="160.59" cy="190.63" r=".54"/><circle cx="162.78" cy="192.82" r=".54"/><circle cx="164.97" cy="195.01" r=".54"/><circle cx="167.16" cy="197.2" r=".54"/><circle cx="169.35" cy="199.39" r=".54"/><circle cx="171.54" cy="201.58" r=".54"/><circle cx="173.73" cy="203.77" r=".54"/><circle cx="175.92" cy="205.96" r=".54"/><circle cx="178.11" cy="208.15" r=".54"/><circle cx="180.3" cy="210.34" r=".54"/><circle cx="182.49" cy="212.53" r=".54"/><circle cx="184.68" cy="214.72" r=".54"/><circle cx="186.87" cy="216.91" r=".54"/><circle cx="189.06" cy="219.1" r=".54"/><circle cx="191.25" cy="221.29" r=".54"/><circle cx="193.44" cy="223.48" r=".54"/><circle cx="195.64" cy="225.68" r=".54"/><circle cx="197.83" cy="227.87" r=".54"/><circle cx="200.02" cy="230.06" r=".54"/><circle cx="202.21" cy="232.25" r=".54"/><circle cx="204.4" cy="234.44" r=".54"/><circle cx="206.59" cy="236.63" r=".54"/><circle cx="208.78" cy="238.82" r=".54"/><circle cx="210.97" cy="241.01" r=".54"/><circle cx="213.16" cy="243.2" r=".54"/><circle cx="215.35" cy="245.39" r=".54"/><circle cx="217.54" cy="247.58" r=".54"/><circle cx="219.73" cy="249.77" r=".54"/><circle cx="221.92" cy="251.96" r=".54"/><circle cx="224.11" cy="254.15" r=".54"/><circle cx="226.3" cy="256.34" r=".54"/><circle cx="228.49" cy="258.53" r=".54"/><circle cx="151.03" cy="184.99" r=".54"/><circle cx="153.22" cy="187.18" r=".54"/><circle cx="155.41" cy="189.37" r=".54"/><circle cx="157.6" cy="191.56" r=".54"/><circle cx="159.79" cy="193.75" r=".54"/><circle cx="161.98" cy="195.94" r=".54"/><circle cx="164.17" cy="198.13" r=".54"/><circle cx="166.36" cy="200.32" r=".54"/><circle cx="168.55" cy="202.51" r=".54"/><circle cx="170.74" cy="204.7" r=".54"/><circle cx="172.93" cy="206.89" r=".54"/><circle cx="175.12" cy="209.08" r=".54"/><circle cx="177.31" cy="211.28" r=".54"/><circle cx="179.5" cy="213.47" r=".54"/><circle cx="181.69" cy="215.66" r=".54"/><circle cx="183.88" cy="217.85" r=".54"/><circle cx="186.08" cy="220.04" r=".54"/><circle cx="188.27" cy="222.23" r=".54"/><circle cx="190.46" cy="224.42" r=".54"/><circle cx="192.65" cy="226.61" r=".54"/><circle cx="194.84" cy="228.8" r=".54"/><circle cx="197.03" cy="230.99" r=".54"/><circle cx="199.22" cy="233.18" r=".54"/><circle cx="201.41" cy="235.37" r=".54"/><circle cx="203.6" cy="237.56" r=".54"/><circle cx="205.79" cy="239.75" r=".54"/><circle cx="207.98" cy="241.94" r=".54"/><circle cx="210.17" cy="244.13" r=".54"/><circle cx="212.36" cy="246.32" r=".54"/><circle cx="214.55" cy="248.52" r=".54"/><circle cx="216.74" cy="250.71" r=".54"/><circle cx="218.93" cy="252.9" r=".54"/><circle cx="221.13" cy="255.09" r=".54"/><circle cx="223.32" cy="257.28" r=".54"/><circle cx="225.51" cy="259.47" r=".54"/><circle cx="152.61" cy="189.84" r=".54"/><circle cx="154.8" cy="192.03" r=".54"/><circle cx="156.99" cy="194.22" r=".54"/><circle cx="159.18" cy="196.41" r=".54"/><circle cx="161.37" cy="198.6" r=".54"/><circle cx="163.56" cy="200.8" r=".54"/><circle cx="165.75" cy="202.99" r=".54"/><circle cx="167.94" cy="205.18" r=".54"/><circle cx="170.13" cy="207.37" r=".54"/><circle cx="172.32" cy="209.56" r=".54"/><circle cx="174.51" cy="211.75" r=".54"/><circle cx="176.7" cy="213.94" r=".54"/><circle cx="178.89" cy="216.13" r=".54"/><circle cx="181.08" cy="218.32" r=".54"/><circle cx="183.28" cy="220.51" r=".54"/><circle cx="185.47" cy="222.7" r=".54"/><circle cx="187.66" cy="224.89" r=".54"/><circle cx="189.85" cy="227.08" r=".54"/><circle cx="192.04" cy="229.27" r=".54"/><circle cx="194.23" cy="231.46" r=".54"/><circle cx="196.42" cy="233.65" r=".54"/><circle cx="198.61" cy="235.84" r=".54"/><circle cx="200.8" cy="238.04" r=".54"/><circle cx="202.99" cy="240.23" r=".54"/><circle cx="205.18" cy="242.42" r=".54"/><circle cx="207.37" cy="244.61" r=".54"/><circle cx="209.56" cy="246.8" r=".54"/><circle cx="211.75" cy="248.99" r=".54"/><circle cx="213.94" cy="251.18" r=".54"/><circle cx="216.13" cy="253.37" r=".54"/><circle cx="218.32" cy="255.56" r=".54"/><circle cx="220.52" cy="257.75" r=".54"/><circle cx="151.81" cy="192.97" r=".54"/><circle cx="154" cy="195.16" r=".54"/><circle cx="156.19" cy="197.35" r=".54"/><circle cx="158.38" cy="199.54" r=".54"/><circle cx="160.57" cy="201.73" r=".54"/><circle cx="162.76" cy="203.92" r=".54"/><circle cx="164.95" cy="206.11" r=".54"/><circle cx="167.14" cy="208.3" r=".54"/><circle cx="169.33" cy="210.49" r=".54"/><circle cx="171.52" cy="212.68" r=".54"/><circle cx="173.72" cy="214.87" r=".54"/><circle cx="175.91" cy="217.06" r=".54"/><circle cx="178.1" cy="219.25" r=".54"/><circle cx="180.29" cy="221.44" r=".54"/><circle cx="182.48" cy="223.64" r=".54"/><circle cx="184.67" cy="225.83" r=".54"/><circle cx="186.86" cy="228.02" r=".54"/><circle cx="189.05" cy="230.21" r=".54"/><circle cx="191.24" cy="232.4" r=".54"/><circle cx="193.43" cy="234.59" r=".54"/><circle cx="195.62" cy="236.78" r=".54"/><circle cx="197.81" cy="238.97" r=".54"/><circle cx="200" cy="241.16" r=".54"/><circle cx="202.19" cy="243.35" r=".54"/><circle cx="204.38" cy="245.54" r=".54"/><circle cx="206.57" cy="247.73" r=".54"/><circle cx="208.77" cy="249.92" r=".54"/><circle cx="210.96" cy="252.11" r=".54"/><circle cx="213.15" cy="254.3" r=".54"/><circle cx="215.34" cy="256.49" r=".54"/><circle cx="217.53" cy="258.69" r=".54"/><circle cx="151.2" cy="195.63" r=".54"/><circle cx="153.39" cy="197.82" r=".54"/><circle cx="155.58" cy="200.01" r=".54"/><circle cx="157.77" cy="202.2" r=".54"/><circle cx="159.96" cy="204.39" r=".54"/><circle cx="162.15" cy="206.58" r=".54"/><circle cx="164.34" cy="208.77" r=".54"/><circle cx="166.53" cy="210.96" r=".54"/><circle cx="168.72" cy="213.16" r=".54"/><circle cx="170.92" cy="215.35" r=".54"/><circle cx="173.11" cy="217.54" r=".54"/><circle cx="175.3" cy="219.73" r=".54"/><circle cx="177.49" cy="221.92" r=".54"/><circle cx="179.68" cy="224.11" r=".54"/><circle cx="181.87" cy="226.3" r=".54"/><circle cx="184.06" cy="228.49" r=".54"/><circle cx="186.25" cy="230.68" r=".54"/><circle cx="188.44" cy="232.87" r=".54"/><circle cx="190.63" cy="235.06" r=".54"/><circle cx="192.82" cy="237.25" r=".54"/><circle cx="195.01" cy="239.44" r=".54"/><circle cx="197.2" cy="241.63" r=".54"/><circle cx="199.39" cy="243.82" r=".54"/><circle cx="201.58" cy="246.01" r=".54"/><circle cx="203.77" cy="248.2" r=".54"/><circle cx="205.96" cy="250.4" r=".54"/><circle cx="208.16" cy="252.59" r=".54"/><circle cx="210.35" cy="254.78" r=".54"/><circle cx="212.54" cy="256.97" r=".54"/><circle cx="214.73" cy="259.16" r=".54"/><circle cx="197.33" cy="173.73" r=".54"/><circle cx="199.52" cy="175.92" r=".54"/><circle cx="201.71" cy="178.11" r=".54"/><circle cx="203.9" cy="180.3" r=".54"/><circle cx="206.09" cy="182.49" r=".54"/><circle cx="208.29" cy="184.68" r=".54"/><circle cx="210.48" cy="186.88" r=".54"/><circle cx="212.67" cy="189.07" r=".54"/><circle cx="214.86" cy="191.26" r=".54"/><circle cx="217.05" cy="193.45" r=".54"/><circle cx="219.24" cy="195.64" r=".54"/><circle cx="221.43" cy="197.83" r=".54"/><circle cx="223.62" cy="200.02" r=".54"/><circle cx="225.81" cy="202.21" r=".54"/><circle cx="228" cy="204.4" r=".54"/><circle cx="230.19" cy="206.59" r=".54"/><circle cx="232.38" cy="208.78" r=".54"/><circle cx="234.57" cy="210.97" r=".54"/><circle cx="236.76" cy="213.16" r=".54"/><circle cx="238.95" cy="215.35" r=".54"/><circle cx="241.14" cy="217.54" r=".54"/><circle cx="243.33" cy="219.73" r=".54"/><circle cx="245.53" cy="221.92" r=".54"/><circle cx="247.72" cy="224.12" r=".54"/><circle cx="249.91" cy="226.31" r=".54"/><circle cx="252.1" cy="228.5" r=".54"/><circle cx="254.29" cy="230.69" r=".54"/><circle cx="256.48" cy="232.88" r=".54"/><circle cx="258.67" cy="235.07" r=".54"/><circle cx="260.86" cy="237.26" r=".54"/><circle cx="263.05" cy="239.45" r=".54"/><circle cx="265.24" cy="241.64" r=".54"/><circle cx="192.34" cy="172.01" r=".54"/><circle cx="194.53" cy="174.2" r=".54"/><circle cx="196.72" cy="176.39" r=".54"/><circle cx="198.91" cy="178.59" r=".54"/><circle cx="201.1" cy="180.78" r=".54"/><circle cx="203.29" cy="182.97" r=".54"/><circle cx="205.48" cy="185.16" r=".54"/><circle cx="207.68" cy="187.35" r=".54"/><circle cx="209.87" cy="189.54" r=".54"/><circle cx="212.06" cy="191.73" r=".54"/><circle cx="214.25" cy="193.92" r=".54"/><circle cx="216.44" cy="196.11" r=".54"/><circle cx="218.63" cy="198.3" r=".54"/><circle cx="220.82" cy="200.49" r=".54"/><circle cx="223.01" cy="202.68" r=".54"/><circle cx="225.2" cy="204.87" r=".54"/><circle cx="227.39" cy="207.06" r=".54"/><circle cx="229.58" cy="209.25" r=".54"/><circle cx="231.77" cy="211.44" r=".54"/><circle cx="233.96" cy="213.64" r=".54"/><circle cx="236.15" cy="215.83" r=".54"/><circle cx="238.34" cy="218.02" r=".54"/><circle cx="240.53" cy="220.21" r=".54"/><circle cx="242.73" cy="222.4" r=".54"/><circle cx="244.92" cy="224.59" r=".54"/><circle cx="247.11" cy="226.78" r=".54"/><circle cx="249.3" cy="228.97" r=".54"/><circle cx="251.49" cy="231.16" r=".54"/><circle cx="253.68" cy="233.35" r=".54"/><circle cx="255.87" cy="235.54" r=".54"/><circle cx="258.06" cy="237.73" r=".54"/><circle cx="260.25" cy="239.92" r=".54"/><circle cx="262.44" cy="242.11" r=".54"/><circle cx="264.63" cy="244.3" r=".54"/><circle cx="266.82" cy="246.49" r=".54"/><circle cx="189.35" cy="172.95" r=".54"/><circle cx="191.54" cy="175.14" r=".54"/><circle cx="193.73" cy="177.33" r=".54"/><circle cx="195.93" cy="179.52" r=".54"/><circle cx="198.12" cy="181.71" r=".54"/><circle cx="200.31" cy="183.9" r=".54"/><circle cx="202.5" cy="186.09" r=".54"/><circle cx="204.69" cy="188.28" r=".54"/><circle cx="206.88" cy="190.47" r=".54"/><circle cx="209.07" cy="192.66" r=".54"/><circle cx="211.26" cy="194.85" r=".54"/><circle cx="213.45" cy="197.04" r=".54"/><circle cx="215.64" cy="199.24" r=".54"/><circle cx="217.83" cy="201.43" r=".54"/><circle cx="220.02" cy="203.62" r=".54"/><circle cx="222.21" cy="205.81" r=".54"/><circle cx="224.4" cy="208" r=".54"/><circle cx="226.59" cy="210.19" r=".54"/><circle cx="228.78" cy="212.38" r=".54"/><circle cx="230.97" cy="214.57" r=".54"/><circle cx="233.17" cy="216.76" r=".54"/><circle cx="235.36" cy="218.95" r=".54"/><circle cx="237.55" cy="221.14" r=".54"/><circle cx="239.74" cy="223.33" r=".54"/><circle cx="241.93" cy="225.52" r=".54"/><circle cx="244.12" cy="227.71" r=".54"/><circle cx="246.31" cy="229.9" r=".54"/><circle cx="248.5" cy="232.09" r=".54"/><circle cx="250.69" cy="234.28" r=".54"/><circle cx="252.88" cy="236.48" r=".54"/><circle cx="255.07" cy="238.67" r=".54"/><circle cx="257.26" cy="240.86" r=".54"/><circle cx="259.45" cy="243.05" r=".54"/><circle cx="261.64" cy="245.24" r=".54"/><circle cx="263.83" cy="247.43" r=".54"/><circle cx="266.02" cy="249.62" r=".54"/><circle cx="186.55" cy="173.42" r=".54"/><circle cx="188.74" cy="175.61" r=".54"/><circle cx="190.93" cy="177.8" r=".54"/><circle cx="193.12" cy="179.99" r=".54"/><circle cx="195.32" cy="182.18" r=".54"/><circle cx="197.51" cy="184.37" r=".54"/><circle cx="199.7" cy="186.56" r=".54"/><circle cx="201.89" cy="188.75" r=".54"/><circle cx="204.08" cy="190.95" r=".54"/><circle cx="206.27" cy="193.14" r=".54"/><circle cx="208.46" cy="195.33" r=".54"/><circle cx="210.65" cy="197.52" r=".54"/><circle cx="212.84" cy="199.71" r=".54"/><circle cx="215.03" cy="201.9" r=".54"/><circle cx="217.22" cy="204.09" r=".54"/><circle cx="219.41" cy="206.28" r=".54"/><circle cx="221.6" cy="208.47" r=".54"/><circle cx="223.79" cy="210.66" r=".54"/><circle cx="225.98" cy="212.85" r=".54"/><circle cx="228.17" cy="215.04" r=".54"/><circle cx="230.37" cy="217.23" r=".54"/><circle cx="232.56" cy="219.42" r=".54"/><circle cx="234.75" cy="221.61" r=".54"/><circle cx="236.94" cy="223.8" r=".54"/><circle cx="239.13" cy="226" r=".54"/><circle cx="241.32" cy="228.19" r=".54"/><circle cx="243.51" cy="230.38" r=".54"/><circle cx="245.7" cy="232.57" r=".54"/><circle cx="247.89" cy="234.76" r=".54"/><circle cx="250.08" cy="236.95" r=".54"/><circle cx="252.27" cy="239.14" r=".54"/><circle cx="254.46" cy="241.33" r=".54"/><circle cx="256.65" cy="243.52" r=".54"/><circle cx="258.84" cy="245.71" r=".54"/><circle cx="261.03" cy="247.9" r=".54"/><circle cx="263.22" cy="250.09" r=".54"/><circle cx="265.41" cy="252.28" r=".54"/><circle cx="181.37" cy="172.16" r=".54"/><circle cx="183.57" cy="174.36" r=".54"/><circle cx="185.76" cy="176.55" r=".54"/><circle cx="187.95" cy="178.74" r=".54"/><circle cx="190.14" cy="180.93" r=".54"/><circle cx="192.33" cy="183.12" r=".54"/><circle cx="194.52" cy="185.31" r=".54"/><circle cx="196.71" cy="187.5" r=".54"/><circle cx="198.9" cy="189.69" r=".54"/><circle cx="201.09" cy="191.88" r=".54"/><circle cx="203.28" cy="194.07" r=".54"/><circle cx="205.47" cy="196.26" r=".54"/><circle cx="207.66" cy="198.45" r=".54"/><circle cx="209.85" cy="200.64" r=".54"/><circle cx="212.04" cy="202.83" r=".54"/><circle cx="214.23" cy="205.02" r=".54"/><circle cx="216.42" cy="207.21" r=".54"/><circle cx="218.61" cy="209.4" r=".54"/><circle cx="220.81" cy="211.6" r=".54"/><circle cx="223" cy="213.79" r=".54"/><circle cx="225.19" cy="215.98" r=".54"/><circle cx="227.38" cy="218.17" r=".54"/><circle cx="229.57" cy="220.36" r=".54"/><circle cx="231.76" cy="222.55" r=".54"/><circle cx="233.95" cy="224.74" r=".54"/><circle cx="236.14" cy="226.93" r=".54"/><circle cx="238.33" cy="229.12" r=".54"/><circle cx="240.52" cy="231.31" r=".54"/><circle cx="242.71" cy="233.5" r=".54"/><circle cx="244.9" cy="235.69" r=".54"/><circle cx="247.09" cy="237.88" r=".54"/><circle cx="249.28" cy="240.07" r=".54"/><circle cx="251.47" cy="242.26" r=".54"/><circle cx="253.66" cy="244.45" r=".54"/><circle cx="255.85" cy="246.64" r=".54"/><circle cx="258.05" cy="248.84" r=".54"/><circle cx="260.24" cy="251.03" r=".54"/><circle cx="262.43" cy="253.22" r=".54"/><circle cx="264.62" cy="255.41" r=".54"/><circle cx="266.81" cy="257.6" r=".54"/><circle cx="178.57" cy="172.64" r=".54"/><circle cx="180.76" cy="174.83" r=".54"/><circle cx="182.96" cy="177.02" r=".54"/><circle cx="185.15" cy="179.21" r=".54"/><circle cx="187.34" cy="181.4" r=".54"/><circle cx="189.53" cy="183.59" r=".54"/><circle cx="191.72" cy="185.78" r=".54"/><circle cx="193.91" cy="187.97" r=".54"/><circle cx="196.1" cy="190.16" r=".54"/><circle cx="198.29" cy="192.35" r=".54"/><circle cx="200.48" cy="194.54" r=".54"/><circle cx="202.67" cy="196.73" r=".54"/><circle cx="204.86" cy="198.92" r=".54"/><circle cx="207.05" cy="201.12" r=".54"/><circle cx="209.24" cy="203.31" r=".54"/><circle cx="211.43" cy="205.5" r=".54"/><circle cx="213.62" cy="207.69" r=".54"/><circle cx="215.81" cy="209.88" r=".54"/><circle cx="218" cy="212.07" r=".54"/><circle cx="220.2" cy="214.26" r=".54"/><circle cx="222.39" cy="216.45" r=".54"/><circle cx="224.58" cy="218.64" r=".54"/><circle cx="226.77" cy="220.83" r=".54"/><circle cx="228.96" cy="223.02" r=".54"/><circle cx="231.15" cy="225.21" r=".54"/><circle cx="233.34" cy="227.4" r=".54"/><circle cx="235.53" cy="229.59" r=".54"/><circle cx="237.72" cy="231.78" r=".54"/><circle cx="239.91" cy="233.97" r=".54"/><circle cx="242.1" cy="236.16" r=".54"/><circle cx="244.29" cy="238.36" r=".54"/><circle cx="246.48" cy="240.55" r=".54"/><circle cx="248.67" cy="242.74" r=".54"/><circle cx="250.86" cy="244.93" r=".54"/><circle cx="253.05" cy="247.12" r=".54"/><circle cx="255.25" cy="249.31" r=".54"/><circle cx="257.44" cy="251.5" r=".54"/><circle cx="259.63" cy="253.69" r=".54"/><circle cx="261.82" cy="255.88" r=".54"/><circle cx="264.01" cy="258.07" r=".54"/><circle cx="175.59" cy="173.57" r=".54"/><circle cx="177.78" cy="175.76" r=".54"/><circle cx="179.97" cy="177.95" r=".54"/><circle cx="182.16" cy="180.14" r=".54"/><circle cx="184.35" cy="182.33" r=".54"/><circle cx="186.54" cy="184.52" r=".54"/><circle cx="188.73" cy="186.72" r=".54"/><circle cx="190.92" cy="188.91" r=".54"/><circle cx="193.11" cy="191.1" r=".54"/><circle cx="195.3" cy="193.29" r=".54"/><circle cx="197.49" cy="195.48" r=".54"/><circle cx="199.68" cy="197.67" r=".54"/><circle cx="201.87" cy="199.86" r=".54"/><circle cx="204.06" cy="202.05" r=".54"/><circle cx="206.25" cy="204.24" r=".54"/><circle cx="208.45" cy="206.43" r=".54"/><circle cx="210.64" cy="208.62" r=".54"/><circle cx="212.83" cy="210.81" r=".54"/><circle cx="215.02" cy="213" r=".54"/><circle cx="217.21" cy="215.19" r=".54"/><circle cx="219.4" cy="217.38" r=".54"/><circle cx="221.59" cy="219.57" r=".54"/><circle cx="223.78" cy="221.76" r=".54"/><circle cx="225.97" cy="223.96" r=".54"/><circle cx="228.16" cy="226.15" r=".54"/><circle cx="230.35" cy="228.34" r=".54"/><circle cx="232.54" cy="230.53" r=".54"/><circle cx="234.73" cy="232.72" r=".54"/><circle cx="236.92" cy="234.91" r=".54"/><circle cx="239.11" cy="237.1" r=".54"/><circle cx="241.3" cy="239.29" r=".54"/><circle cx="243.49" cy="241.48" r=".54"/><circle cx="245.69" cy="243.67" r=".54"/><circle cx="247.88" cy="245.86" r=".54"/><circle cx="250.07" cy="248.05" r=".54"/><circle cx="252.26" cy="250.24" r=".54"/><circle cx="254.45" cy="252.43" r=".54"/><circle cx="256.64" cy="254.62" r=".54"/><circle cx="258.83" cy="256.81" r=".54"/><circle cx="261.02" cy="259" r=".54"/><circle cx="170.6" cy="171.85" r=".54"/><circle cx="172.79" cy="174.04" r=".54"/><circle cx="174.98" cy="176.23" r=".54"/><circle cx="177.17" cy="178.43" r=".54"/><circle cx="179.36" cy="180.62" r=".54"/><circle cx="181.55" cy="182.81" r=".54"/><circle cx="183.74" cy="185" r=".54"/><circle cx="185.93" cy="187.19" r=".54"/><circle cx="188.12" cy="189.38" r=".54"/><circle cx="190.31" cy="191.57" r=".54"/><circle cx="192.5" cy="193.76" r=".54"/><circle cx="194.69" cy="195.95" r=".54"/><circle cx="196.88" cy="198.14" r=".54"/><circle cx="199.07" cy="200.33" r=".54"/><circle cx="201.26" cy="202.52" r=".54"/><circle cx="203.45" cy="204.71" r=".54"/><circle cx="205.64" cy="206.9" r=".54"/><circle cx="207.84" cy="209.09" r=".54"/><circle cx="210.03" cy="211.28" r=".54"/><circle cx="212.22" cy="213.48" r=".54"/><circle cx="214.41" cy="215.67" r=".54"/><circle cx="216.6" cy="217.86" r=".54"/><circle cx="218.79" cy="220.05" r=".54"/><circle cx="220.98" cy="222.24" r=".54"/><circle cx="223.17" cy="224.43" r=".54"/><circle cx="225.36" cy="226.62" r=".54"/><circle cx="227.55" cy="228.81" r=".54"/><circle cx="229.74" cy="231" r=".54"/><circle cx="231.93" cy="233.19" r=".54"/><circle cx="234.12" cy="235.38" r=".54"/><circle cx="236.31" cy="237.57" r=".54"/><circle cx="238.5" cy="239.76" r=".54"/><circle cx="240.69" cy="241.95" r=".54"/><circle cx="242.89" cy="244.14" r=".54"/><circle cx="245.08" cy="246.33" r=".54"/><circle cx="247.27" cy="248.52" r=".54"/><circle cx="249.46" cy="250.72" r=".54"/><circle cx="251.65" cy="252.91" r=".54"/><circle cx="253.84" cy="255.1" r=".54"/><circle cx="256.03" cy="257.29" r=".54"/><circle cx="258.22" cy="259.48" r=".54"/><circle cx="167.61" cy="172.79" r=".54"/><circle cx="169.8" cy="174.98" r=".54"/><circle cx="171.99" cy="177.17" r=".54"/><circle cx="174.18" cy="179.36" r=".54"/><circle cx="176.37" cy="181.55" r=".54"/><circle cx="178.56" cy="183.74" r=".54"/><circle cx="180.75" cy="185.93" r=".54"/><circle cx="182.94" cy="188.12" r=".54"/><circle cx="185.13" cy="190.31" r=".54"/><circle cx="187.32" cy="192.5" r=".54"/><circle cx="189.51" cy="194.69" r=".54"/><circle cx="191.7" cy="196.88" r=".54"/><circle cx="193.89" cy="199.08" r=".54"/><circle cx="196.09" cy="201.27" r=".54"/><circle cx="198.28" cy="203.46" r=".54"/><circle cx="200.47" cy="205.65" r=".54"/><circle cx="202.66" cy="207.84" r=".54"/><circle cx="204.85" cy="210.03" r=".54"/><circle cx="207.04" cy="212.22" r=".54"/><circle cx="209.23" cy="214.41" r=".54"/><circle cx="211.42" cy="216.6" r=".54"/><circle cx="213.61" cy="218.79" r=".54"/><circle cx="215.8" cy="220.98" r=".54"/><circle cx="217.99" cy="223.17" r=".54"/><circle cx="220.18" cy="225.36" r=".54"/><circle cx="222.37" cy="227.55" r=".54"/><circle cx="224.56" cy="229.74" r=".54"/><circle cx="226.75" cy="231.93" r=".54"/><circle cx="228.94" cy="234.12" r=".54"/><circle cx="231.13" cy="236.32" r=".54"/><circle cx="233.33" cy="238.51" r=".54"/><circle cx="235.52" cy="240.7" r=".54"/><circle cx="237.71" cy="242.89" r=".54"/><circle cx="239.9" cy="245.08" r=".54"/><circle cx="242.09" cy="247.27" r=".54"/><circle cx="244.28" cy="249.46" r=".54"/><circle cx="246.47" cy="251.65" r=".54"/><circle cx="248.66" cy="253.84" r=".54"/><circle cx="250.85" cy="256.03" r=".54"/><circle cx="253.04" cy="258.22" r=".54"/><circle cx="164.81" cy="173.26" r=".54"/><circle cx="167" cy="175.45" r=".54"/><circle cx="169.19" cy="177.64" r=".54"/><circle cx="171.38" cy="179.83" r=".54"/><circle cx="173.57" cy="182.02" r=".54"/><circle cx="175.76" cy="184.21" r=".54"/><circle cx="177.95" cy="186.4" r=".54"/><circle cx="180.14" cy="188.59" r=".54"/><circle cx="182.33" cy="190.79" r=".54"/><circle cx="184.52" cy="192.98" r=".54"/><circle cx="186.71" cy="195.17" r=".54"/><circle cx="188.9" cy="197.36" r=".54"/><circle cx="191.09" cy="199.55" r=".54"/><circle cx="193.28" cy="201.74" r=".54"/><circle cx="195.48" cy="203.93" r=".54"/><circle cx="197.67" cy="206.12" r=".54"/><circle cx="199.86" cy="208.31" r=".54"/><circle cx="202.05" cy="210.5" r=".54"/><circle cx="204.24" cy="212.69" r=".54"/><circle cx="206.43" cy="214.88" r=".54"/><circle cx="208.62" cy="217.07" r=".54"/><circle cx="210.81" cy="219.26" r=".54"/><circle cx="213" cy="221.45" r=".54"/><circle cx="215.19" cy="223.64" r=".54"/><circle cx="217.38" cy="225.84" r=".54"/><circle cx="219.57" cy="228.03" r=".54"/><circle cx="221.76" cy="230.22" r=".54"/><circle cx="223.95" cy="232.41" r=".54"/><circle cx="226.14" cy="234.6" r=".54"/><circle cx="228.33" cy="236.79" r=".54"/><circle cx="230.52" cy="238.98" r=".54"/><circle cx="232.72" cy="241.17" r=".54"/><circle cx="234.91" cy="243.36" r=".54"/><circle cx="237.1" cy="245.55" r=".54"/><circle cx="239.29" cy="247.74" r=".54"/><circle cx="241.48" cy="249.93" r=".54"/><circle cx="243.67" cy="252.12" r=".54"/><circle cx="245.86" cy="254.31" r=".54"/><circle cx="248.05" cy="256.5" r=".54"/><circle cx="250.24" cy="258.69" r=".54"/><circle cx="232.85" cy="173.27" r=".54"/><circle cx="235.04" cy="175.46" r=".54"/><circle cx="237.23" cy="177.65" r=".54"/><circle cx="239.42" cy="179.84" r=".54"/><circle cx="241.61" cy="182.03" r=".54"/><circle cx="243.8" cy="184.22" r=".54"/><circle cx="245.99" cy="186.41" r=".54"/><circle cx="248.18" cy="188.6" r=".54"/><circle cx="250.37" cy="190.79" r=".54"/><circle cx="252.56" cy="192.98" r=".54"/><circle cx="254.75" cy="195.17" r=".54"/><circle cx="256.94" cy="197.36" r=".54"/><circle cx="259.13" cy="199.56" r=".54"/><circle cx="261.32" cy="201.75" r=".54"/><circle cx="263.51" cy="203.94" r=".54"/><circle cx="265.7" cy="206.13" r=".54"/><circle cx="230.05" cy="173.74" r=".54"/><circle cx="232.24" cy="175.93" r=".54"/><circle cx="234.43" cy="178.12" r=".54"/><circle cx="236.62" cy="180.31" r=".54"/><circle cx="238.81" cy="182.5" r=".54"/><circle cx="241" cy="184.69" r=".54"/><circle cx="243.19" cy="186.88" r=".54"/><circle cx="245.38" cy="189.07" r=".54"/><circle cx="247.57" cy="191.27" r=".54"/><circle cx="249.76" cy="193.46" r=".54"/><circle cx="251.95" cy="195.65" r=".54"/><circle cx="254.14" cy="197.84" r=".54"/><circle cx="256.33" cy="200.03" r=".54"/><circle cx="258.52" cy="202.22" r=".54"/><circle cx="260.71" cy="204.41" r=".54"/><circle cx="262.9" cy="206.6" r=".54"/><circle cx="265.09" cy="208.79" r=".54"/><circle cx="224.87" cy="172.48" r=".54"/><circle cx="227.06" cy="174.67" r=".54"/><circle cx="229.25" cy="176.87" r=".54"/><circle cx="231.44" cy="179.06" r=".54"/><circle cx="233.63" cy="181.25" r=".54"/><circle cx="235.82" cy="183.44" r=".54"/><circle cx="238.01" cy="185.63" r=".54"/><circle cx="240.2" cy="187.82" r=".54"/><circle cx="242.39" cy="190.01" r=".54"/><circle cx="244.58" cy="192.2" r=".54"/><circle cx="246.77" cy="194.39" r=".54"/><circle cx="248.96" cy="196.58" r=".54"/><circle cx="251.15" cy="198.77" r=".54"/><circle cx="253.34" cy="200.96" r=".54"/><circle cx="255.53" cy="203.15" r=".54"/><circle cx="257.73" cy="205.34" r=".54"/><circle cx="259.92" cy="207.53" r=".54"/><circle cx="262.11" cy="209.72" r=".54"/><circle cx="264.3" cy="211.92" r=".54"/><circle cx="266.49" cy="214.11" r=".54"/><circle cx="222.07" cy="172.96" r=".54"/><circle cx="224.26" cy="175.15" r=".54"/><circle cx="226.45" cy="177.34" r=".54"/><circle cx="228.64" cy="179.53" r=".54"/><circle cx="230.83" cy="181.72" r=".54"/><circle cx="233.02" cy="183.91" r=".54"/><circle cx="235.21" cy="186.1" r=".54"/><circle cx="237.4" cy="188.29" r=".54"/><circle cx="239.59" cy="190.48" r=".54"/><circle cx="241.78" cy="192.67" r=".54"/><circle cx="243.97" cy="194.86" r=".54"/><circle cx="246.16" cy="197.05" r=".54"/><circle cx="248.35" cy="199.24" r=".54"/><circle cx="250.54" cy="201.43" r=".54"/><circle cx="252.73" cy="203.63" r=".54"/><circle cx="254.93" cy="205.82" r=".54"/><circle cx="257.12" cy="208.01" r=".54"/><circle cx="259.31" cy="210.2" r=".54"/><circle cx="261.5" cy="212.39" r=".54"/><circle cx="263.69" cy="214.58" r=".54"/><circle cx="265.88" cy="216.77" r=".54"/><circle cx="219.08" cy="173.89" r=".54"/><circle cx="221.27" cy="176.08" r=".54"/><circle cx="223.46" cy="178.27" r=".54"/><circle cx="225.65" cy="180.46" r=".54"/><circle cx="227.84" cy="182.65" r=".54"/><circle cx="230.03" cy="184.84" r=".54"/><circle cx="232.22" cy="187.04" r=".54"/><circle cx="234.41" cy="189.23" r=".54"/><circle cx="236.6" cy="191.42" r=".54"/><circle cx="238.79" cy="193.61" r=".54"/><circle cx="240.98" cy="195.8" r=".54"/><circle cx="243.17" cy="197.99" r=".54"/><circle cx="245.37" cy="200.18" r=".54"/><circle cx="247.56" cy="202.37" r=".54"/><circle cx="249.75" cy="204.56" r=".54"/><circle cx="251.94" cy="206.75" r=".54"/><circle cx="254.13" cy="208.94" r=".54"/><circle cx="256.32" cy="211.13" r=".54"/><circle cx="258.51" cy="213.32" r=".54"/><circle cx="260.7" cy="215.51" r=".54"/><circle cx="262.89" cy="217.7" r=".54"/><circle cx="265.08" cy="219.89" r=".54"/><circle cx="214.09" cy="172.17" r=".54"/><circle cx="216.28" cy="174.36" r=".54"/><circle cx="218.47" cy="176.55" r=".54"/><circle cx="220.66" cy="178.75" r=".54"/><circle cx="222.85" cy="180.94" r=".54"/><circle cx="225.04" cy="183.13" r=".54"/><circle cx="227.23" cy="185.32" r=".54"/><circle cx="229.42" cy="187.51" r=".54"/><circle cx="231.61" cy="189.7" r=".54"/><circle cx="233.8" cy="191.89" r=".54"/><circle cx="235.99" cy="194.08" r=".54"/><circle cx="238.18" cy="196.27" r=".54"/><circle cx="240.37" cy="198.46" r=".54"/><circle cx="242.57" cy="200.65" r=".54"/><circle cx="244.76" cy="202.84" r=".54"/><circle cx="246.95" cy="205.03" r=".54"/><circle cx="249.14" cy="207.22" r=".54"/><circle cx="251.33" cy="209.41" r=".54"/><circle cx="253.52" cy="211.6" r=".54"/><circle cx="255.71" cy="213.79" r=".54"/><circle cx="257.9" cy="215.99" r=".54"/><circle cx="260.09" cy="218.18" r=".54"/><circle cx="262.28" cy="220.37" r=".54"/><circle cx="264.47" cy="222.56" r=".54"/><circle cx="266.66" cy="224.75" r=".54"/><circle cx="211.1" cy="173.11" r=".54"/><circle cx="213.29" cy="175.3" r=".54"/><circle cx="215.48" cy="177.49" r=".54"/><circle cx="217.67" cy="179.68" r=".54"/><circle cx="219.86" cy="181.87" r=".54"/><circle cx="222.05" cy="184.06" r=".54"/><circle cx="224.24" cy="186.25" r=".54"/><circle cx="226.43" cy="188.44" r=".54"/><circle cx="228.62" cy="190.63" r=".54"/><circle cx="230.81" cy="192.82" r=".54"/><circle cx="233.01" cy="195.01" r=".54"/><circle cx="235.2" cy="197.2" r=".54"/><circle cx="237.39" cy="199.4" r=".54"/><circle cx="239.58" cy="201.59" r=".54"/><circle cx="241.77" cy="203.78" r=".54"/><circle cx="243.96" cy="205.97" r=".54"/><circle cx="246.15" cy="208.16" r=".54"/><circle cx="248.34" cy="210.35" r=".54"/><circle cx="250.53" cy="212.54" r=".54"/><circle cx="252.72" cy="214.73" r=".54"/><circle cx="254.91" cy="216.92" r=".54"/><circle cx="257.1" cy="219.11" r=".54"/><circle cx="259.29" cy="221.3" r=".54"/><circle cx="261.48" cy="223.49" r=".54"/><circle cx="263.67" cy="225.68" r=".54"/><circle cx="265.86" cy="227.87" r=".54"/><circle cx="208.3" cy="173.58" r=".54"/><circle cx="210.49" cy="175.77" r=".54"/><circle cx="212.68" cy="177.96" r=".54"/><circle cx="214.87" cy="180.15" r=".54"/><circle cx="217.06" cy="182.34" r=".54"/><circle cx="219.25" cy="184.53" r=".54"/><circle cx="221.44" cy="186.72" r=".54"/><circle cx="223.63" cy="188.91" r=".54"/><circle cx="225.82" cy="191.11" r=".54"/><circle cx="228.01" cy="193.3" r=".54"/><circle cx="230.21" cy="195.49" r=".54"/><circle cx="232.4" cy="197.68" r=".54"/><circle cx="234.59" cy="199.87" r=".54"/><circle cx="236.78" cy="202.06" r=".54"/><circle cx="238.97" cy="204.25" r=".54"/><circle cx="241.16" cy="206.44" r=".54"/><circle cx="243.35" cy="208.63" r=".54"/><circle cx="245.54" cy="210.82" r=".54"/><circle cx="247.73" cy="213.01" r=".54"/><circle cx="249.92" cy="215.2" r=".54"/><circle cx="252.11" cy="217.39" r=".54"/><circle cx="254.3" cy="219.58" r=".54"/><circle cx="256.49" cy="221.77" r=".54"/><circle cx="258.68" cy="223.96" r=".54"/><circle cx="260.87" cy="226.16" r=".54"/><circle cx="263.06" cy="228.35" r=".54"/><circle cx="265.25" cy="230.54" r=".54"/><circle cx="203.12" cy="172.32" r=".54"/><circle cx="205.31" cy="174.51" r=".54"/><circle cx="207.5" cy="176.71" r=".54"/><circle cx="209.69" cy="178.9" r=".54"/><circle cx="211.88" cy="181.09" r=".54"/><circle cx="214.07" cy="183.28" r=".54"/><circle cx="216.26" cy="185.47" r=".54"/><circle cx="218.45" cy="187.66" r=".54"/><circle cx="220.65" cy="189.85" r=".54"/><circle cx="222.84" cy="192.04" r=".54"/><circle cx="225.03" cy="194.23" r=".54"/><circle cx="227.22" cy="196.42" r=".54"/><circle cx="229.41" cy="198.61" r=".54"/><circle cx="231.6" cy="200.8" r=".54"/><circle cx="233.79" cy="202.99" r=".54"/><circle cx="235.98" cy="205.18" r=".54"/><circle cx="238.17" cy="207.37" r=".54"/><circle cx="240.36" cy="209.56" r=".54"/><circle cx="242.55" cy="211.76" r=".54"/><circle cx="244.74" cy="213.95" r=".54"/><circle cx="246.93" cy="216.14" r=".54"/><circle cx="249.12" cy="218.33" r=".54"/><circle cx="251.31" cy="220.52" r=".54"/><circle cx="253.5" cy="222.71" r=".54"/><circle cx="255.69" cy="224.9" r=".54"/><circle cx="257.89" cy="227.09" r=".54"/><circle cx="260.08" cy="229.28" r=".54"/><circle cx="262.27" cy="231.47" r=".54"/><circle cx="264.46" cy="233.66" r=".54"/><circle cx="266.65" cy="235.85" r=".54"/><circle cx="200.32" cy="172.8" r=".54"/><circle cx="202.51" cy="174.99" r=".54"/><circle cx="204.7" cy="177.18" r=".54"/><circle cx="206.89" cy="179.37" r=".54"/><circle cx="209.08" cy="181.56" r=".54"/><circle cx="211.27" cy="183.75" r=".54"/><circle cx="213.46" cy="185.94" r=".54"/><circle cx="215.65" cy="188.13" r=".54"/><circle cx="217.84" cy="190.32" r=".54"/><circle cx="220.04" cy="192.51" r=".54"/><circle cx="222.23" cy="194.7" r=".54"/><circle cx="224.42" cy="196.89" r=".54"/><circle cx="226.61" cy="199.08" r=".54"/><circle cx="228.8" cy="201.27" r=".54"/><circle cx="230.99" cy="203.47" r=".54"/><circle cx="233.18" cy="205.66" r=".54"/><circle cx="235.37" cy="207.85" r=".54"/><circle cx="237.56" cy="210.04" r=".54"/><circle cx="239.75" cy="212.23" r=".54"/><circle cx="241.94" cy="214.42" r=".54"/><circle cx="244.13" cy="216.61" r=".54"/><circle cx="246.32" cy="218.8" r=".54"/><circle cx="248.51" cy="220.99" r=".54"/><circle cx="250.7" cy="223.18" r=".54"/><circle cx="252.89" cy="225.37" r=".54"/><circle cx="255.09" cy="227.56" r=".54"/><circle cx="257.28" cy="229.75" r=".54"/><circle cx="259.47" cy="231.94" r=".54"/><circle cx="261.66" cy="234.13" r=".54"/><circle cx="263.85" cy="236.32" r=".54"/><circle cx="266.04" cy="238.52" r=".54"/><circle cx="238.63" cy="171.86" r=".54"/><circle cx="240.82" cy="174.05" r=".54"/><circle cx="243.01" cy="176.24" r=".54"/><circle cx="245.21" cy="178.43" r=".54"/><circle cx="247.4" cy="180.62" r=".54"/><circle cx="249.59" cy="182.81" r=".54"/><circle cx="251.78" cy="185" r=".54"/><circle cx="253.97" cy="187.19" r=".54"/><circle cx="256.16" cy="189.39" r=".54"/><circle cx="258.35" cy="191.58" r=".54"/><circle cx="260.54" cy="193.77" r=".54"/><circle cx="262.73" cy="195.96" r=".54"/><circle cx="264.92" cy="198.15" r=".54"/><circle cx="267.11" cy="200.34" r=".54"/><circle cx="235.83" cy="172.33" r=".54"/><circle cx="238.02" cy="174.52" r=".54"/><circle cx="240.21" cy="176.71" r=".54"/><circle cx="242.41" cy="178.91" r=".54"/><circle cx="244.6" cy="181.1" r=".54"/><circle cx="246.79" cy="183.29" r=".54"/><circle cx="248.98" cy="185.48" r=".54"/><circle cx="251.17" cy="187.67" r=".54"/><circle cx="253.36" cy="189.86" r=".54"/><circle cx="255.55" cy="192.05" r=".54"/><circle cx="257.74" cy="194.24" r=".54"/><circle cx="259.93" cy="196.43" r=".54"/><circle cx="262.12" cy="198.62" r=".54"/><circle cx="264.31" cy="200.81" r=".54"/><circle cx="266.5" cy="203" r=".54"/><circle cx="265.56" cy="173.28" r=".54"/><circle cx="260.38" cy="172.02" r=".54"/><circle cx="262.57" cy="174.21" r=".54"/><circle cx="264.76" cy="176.4" r=".54"/><circle cx="266.95" cy="178.59" r=".54"/><circle cx="257.58" cy="172.49" r=".54"/><circle cx="259.77" cy="174.68" r=".54"/><circle cx="261.96" cy="176.87" r=".54"/><circle cx="264.15" cy="179.07" r=".54"/><circle cx="266.34" cy="181.26" r=".54"/><circle cx="254.59" cy="173.43" r=".54"/><circle cx="256.78" cy="175.62" r=".54"/><circle cx="258.97" cy="177.81" r=".54"/><circle cx="261.16" cy="180" r=".54"/><circle cx="263.35" cy="182.19" r=".54"/><circle cx="265.54" cy="184.38" r=".54"/><circle cx="251.79" cy="173.9" r=".54"/><circle cx="253.98" cy="176.09" r=".54"/><circle cx="256.17" cy="178.28" r=".54"/><circle cx="258.36" cy="180.47" r=".54"/><circle cx="260.55" cy="182.66" r=".54"/><circle cx="262.74" cy="184.85" r=".54"/><circle cx="264.93" cy="187.04" r=".54"/><circle cx="267.13" cy="189.23" r=".54"/><circle cx="246.61" cy="172.64" r=".54"/><circle cx="248.8" cy="174.83" r=".54"/><circle cx="250.99" cy="177.03" r=".54"/><circle cx="253.18" cy="179.22" r=".54"/><circle cx="255.37" cy="181.41" r=".54"/><circle cx="257.57" cy="183.6" r=".54"/><circle cx="259.76" cy="185.79" r=".54"/><circle cx="261.95" cy="187.98" r=".54"/><circle cx="264.14" cy="190.17" r=".54"/><circle cx="266.33" cy="192.36" r=".54"/><circle cx="243.81" cy="173.12" r=".54"/><circle cx="246" cy="175.31" r=".54"/><circle cx="248.19" cy="177.5" r=".54"/><circle cx="250.38" cy="179.69" r=".54"/><circle cx="252.57" cy="181.88" r=".54"/><circle cx="254.77" cy="184.07" r=".54"/><circle cx="256.96" cy="186.26" r=".54"/><circle cx="259.15" cy="188.45" r=".54"/><circle cx="261.34" cy="190.64" r=".54"/><circle cx="263.53" cy="192.83" r=".54"/><circle cx="265.72" cy="195.02" r=".54"/></g><path d="m260.48 180.1h-95.18-3.48c-3.58 0-6.49 2.91-6.49 6.49v4.46c0-1.41 1.14-2.55 2.55-2.55h9.18l8.46 40.47c1.1 5.27 6.26 8.64 11.53 7.54l75.99-15.88v-29.58-8.4c-.01-1.4-1.15-2.55-2.56-2.55z" fill="#baccd3" opacity=".4"/><path d="m189.86 228.08 91.1-19.04c3.96-.83 6.5-4.71 5.67-8.67l-12.28-58.75c-.83-3.96-4.71-6.5-8.67-5.67l-91.1 19.05c-3.96.83-6.5 4.71-5.67 8.67l12.28 58.75c.83 3.95 4.71 6.49 8.67 5.66z" fill="#fff" stroke="#97b1b2" stroke-miterlimit="10" stroke-width="2.0639"/><path d="m242.81 158.41-53.78 11.85c-.69.15-1.38-.28-1.53-.98-.15-.69.28-1.38.98-1.53l53.78-11.85c.69-.15 1.38.28 1.53.98.15.69-.29 1.38-.98 1.53z" fill="#ecf3f6"/><path d="m254.54 162.66-53.78 11.85c-.69.15-1.38-.28-1.53-.98-.15-.69.28-1.38.98-1.53l53.78-11.85c.69-.15 1.38.28 1.53.98.15.69-.29 1.37-.98 1.53z" fill="#ecf3f6"/><path d="m259.89 186.91-53.78 11.85c-.69.15-1.38-.28-1.53-.98-.15-.69.28-1.38.98-1.53l53.78-11.85c.69-.15 1.38.28 1.53.98.15.69-.29 1.38-.98 1.53z" fill="#ecf3f6"/><path d="m271.88 190.3-53.78 11.85c-.69.15-1.38-.28-1.53-.98-.15-.69.28-1.38.98-1.53l53.78-11.85c.69-.15 1.38.28 1.53.98.15.7-.29 1.38-.98 1.53z" fill="#ecf3f6"/><path d="m247.74 170.99-27.7 6.1c-.69.15-1.38-.28-1.53-.98-.15-.69.28-1.38.98-1.53l27.7-6.1c.69-.15 1.38.28 1.53.98.15.69-.29 1.38-.98 1.53z" fill="#ecf3f6"/><path d="m244.7 184.36-27.7 6.1c-.69.15-1.38-.28-1.53-.98-.15-.69.28-1.38.98-1.53l27.7-6.1c.69-.15 1.38.28 1.53.98.15.69-.29 1.38-.98 1.53z" fill="#ecf3f6"/><path d="m248.58 201.95-49.69 11.07c-.69.15-1.38-.28-1.53-.98-.15-.69.28-1.38.97-1.53l49.69-11.07c.69-.15 1.38.28 1.53.98.15.69-.28 1.37-.97 1.53z" fill="#ecf3f6"/><path d="m255.41 175.33-39.33 8.67c-.69.15-1.38-.28-1.53-.98-.15-.69.28-1.38.98-1.53l39.33-8.67c.69-.15 1.38.28 1.53.98.15.7-.29 1.38-.98 1.53z" fill="#ecf3f6"/></svg>