<svg enable-background="new 0 0 454.69 374.83" viewBox="0 0 454.69 374.83" xmlns="http://www.w3.org/2000/svg"><path d="m189.46 236.74-152.12-100.68" fill="none" stroke="#ecf3f6" stroke-miterlimit="10" stroke-width="1.769"/><circle cx="290.48" cy="112.16" fill="#f1f6f8" r="112.16"/><path d="m140.52 119.49c3.36-18.85 22.75-33.31 46.16-33.31 17.22 0 32.26 7.83 40.34 19.47 3.57-1.52 7.6-2.4 11.88-2.4 12.09 0 22.24 6.84 25.33 16.15.01.04-.02.08-.06.08h-123.65z" fill="#fff"/><path d="m129.3 133.86h185.29c5.46 0 9.88 4.42 9.88 9.88v117.98h-205.05v-117.98c0-5.46 4.43-9.88 9.88-9.88z" fill="#fff" stroke="#97b1b2" stroke-miterlimit="10" stroke-width="2.0639"/><path d="m119.42 261.72v-132.35c0-5.46 4.42-9.88 9.88-9.88h185.29c5.46 0 9.88 4.42 9.88 9.88v132.35" fill="#fff"/><path d="m120.28 149.15h204.19" fill="#fff" stroke="#97b1b2" stroke-miterlimit="10" stroke-width="2.0639"/><path d="m137.01 134.78h60.68 126.78v-9.48l-4.35-4.12-5.53-1.69-187.81.33-6.18 3.44-1.18 6.11.86 5.41z" fill="#ecf3f6"/><path d="m119.42 261.72v-132.35c0-5.46 4.42-9.88 9.88-9.88h185.29c5.46 0 9.88 4.42 9.88 9.88v132.35" fill="none" stroke="#97b1b2" stroke-miterlimit="10" stroke-width="2.0639"/><path d="m120.28 134.78h204.19" fill="#fff" stroke="#97b1b2" stroke-miterlimit="10" stroke-width="2.0639"/><path d="m119.39 149.15h102.99v112.57h-102.99z" fill="#ecf3f6" stroke="#97b1b2" stroke-miterlimit="10" stroke-width="2.0639"/><path d="m211.73 150.02h-91.45v7.85h93.28v102.92h7.85v-98.55-12.22z" fill="#baccd3" opacity=".4"/><circle cx="129.04" cy="127.56" fill="#baccd3" opacity=".3" r="2.26"/><circle cx="135.91" cy="127.56" fill="#baccd3" opacity=".3" r="2.26"/><circle cx="142.79" cy="127.56" fill="#baccd3" opacity=".3" r="2.26"/><path d="m183.02 149.15h141.45" fill="#ecf3f6" stroke="#97b1b2" stroke-miterlimit="10" stroke-width="2.0639"/><path d="m412.77 60.71c-2.94-18.52-19.9-32.73-40.39-32.73-15.07 0-28.23 7.69-35.3 19.13-3.13-1.49-6.65-2.36-10.4-2.36-8.96 0-16.71 4.82-20.51 11.86-1 1.85.39 4.09 2.49 4.09h104.11z" fill="#fff"/><path d="m222.38 149.15v112.57" fill="#fff" stroke="#97b1b2" stroke-miterlimit="10" stroke-width="2.3587"/><path d="m140.34 171.26h49.33c.43 0 .78-.35.78-.78v-.12c0-.43-.35-.78-.78-.78h-49.33c-.43 0-.78.35-.78.78v.12c0 .43.35.78.78.78z" fill="#ff8288"/><path d="m262.45 142.81h53.63c.46 0 .84-.38.84-.84 0-.46-.38-.84-.84-.84h-53.63c-.46 0-.84.38-.84.84 0 .46.37.84.84.84z" fill="#ff8288"/><path d="m140.34 206.64h49.33c.43 0 .78-.35.78-.78v-.12c0-.43-.35-.78-.78-.78h-49.33c-.43 0-.78.35-.78.78v.12c0 .43.35.78.78.78z" fill="#ff8288"/><path d="m149.11 189.02h49.98c.43 0 .78-.35.78-.78v-.12c0-.43-.35-.78-.78-.78h-49.98c-.43 0-.78.35-.78.78v.12c-.01.43.34.78.78.78z" fill="#bad8db"/><path d="m149.11 197.79h49.98c.43 0 .78-.35.78-.78v-.12c0-.43-.35-.78-.78-.78h-49.98c-.43 0-.78.35-.78.78v.12c-.01.43.34.78.78.78z" fill="#bad8db"/><path d="m149.11 180.33h49.98c.43 0 .78-.35.78-.78v-.12c0-.43-.35-.78-.78-.78h-49.98c-.43 0-.78.35-.78.78v.12c-.01.43.34.78.78.78z" fill="#bad8db"/><path d="m149.11 224.17h49.98c.43 0 .78-.35.78-.78v-.12c0-.43-.35-.78-.78-.78h-49.98c-.43 0-.78.35-.78.78v.12c-.01.43.34.78.78.78z" fill="#bad8db"/><path d="m149.11 232.94h49.98c.43 0 .78-.35.78-.78v-.12c0-.43-.35-.78-.78-.78h-49.98c-.43 0-.78.35-.78.78v.12c-.01.43.34.78.78.78z" fill="#bad8db"/><path d="m149.11 215.48h49.98c.43 0 .78-.35.78-.78v-.12c0-.43-.35-.78-.78-.78h-49.98c-.43 0-.78.35-.78.78v.12c-.01.43.34.78.78.78z" fill="#bad8db"/><circle cx="272.78" cy="196.11" fill="#ecf3f6" r="34.94"/><path d="m267.11 243.76h79.07v18.07h-79.07z" fill="#ecf3f6" stroke="#97b1b2" stroke-miterlimit="10" stroke-width="2.0639"/><path d="m283.38 217.3h56.18v26.45h-56.18z" fill="#ecf3f6" stroke="#97b1b2" stroke-miterlimit="10" stroke-width="2.0639"/><path d="m339.56 243.76v-26.46h-56.18" fill="#baccd3" opacity=".4"/><path d="m445.78 130.7 8.91-8.91c-2.29-.05-4.61.8-6.36 2.55-1.75 1.76-2.6 4.07-2.55 6.36z" fill="#ff8288"/><path d="m445.78 130.7-8.91-8.91c2.29-.05 4.61.8 6.36 2.55 1.75 1.76 2.6 4.07 2.55 6.36z" fill="#ff8288"/><path d="m425.56 153.34 8.91-8.91c-2.29-.05-4.61.8-6.36 2.55s-2.6 4.06-2.55 6.36z" fill="#ff8288"/><path d="m425.56 153.34-8.91-8.91c2.29-.05 4.61.8 6.36 2.55s2.6 4.06 2.55 6.36z" fill="#ff8288"/><g stroke-miterlimit="10"><path d="m296.38 262.31h22.17v22.17h-22.17z" fill="#fff" stroke="#97b1b2" stroke-width="1.3852" transform="matrix(-1 0 0 -1 614.9376 546.8004)"/><path d="m318.56 262.31h22.17v22.17h-22.17z" fill="#fff" stroke="#97b1b2" stroke-width="1.3852" transform="matrix(-1 0 0 -1 659.2875 546.8004)"/><path d="m252.03 262.09h22.17v22.17h-22.17z" fill="#ecf3f6" stroke="#97b1b2" stroke-width="1.3852"/><path d="m274.21 262.09h22.17v22.17h-22.17z" fill="#ecf3f6" stroke="#97b1b2" stroke-width="1.3852"/><path d="m207.68 262.09h22.17v22.17h-22.17z" fill="#ecf3f6" stroke="#97b1b2" stroke-width="1.3852"/><path d="m229.86 262.09h22.17v22.17h-22.17z" fill="#ecf3f6" stroke="#97b1b2" stroke-width="1.3852"/><path d="m185.51 262.09h22.17v22.17h-22.17z" fill="#ecf3f6" stroke="#97b1b2" stroke-width="1.3852"/><path d="m162.61 260.67-123.9-123.11-5.24 4.67 111.42 140.91h17.83z" fill="#fff" stroke="#97b1b2" stroke-width="1.769"/><path d="m36.45 139.68 126.27 143.46h-17.83l-111.42-140.91z" fill="#ecf3f6" stroke="#97b1b2" stroke-width="1.769"/><path d="m33.47 142.23v49.01" fill="none" stroke="#97b1b2" stroke-width="1.769"/><path d="m42.05 199.91-8.66-8.67-8.67 8.67" fill="none" stroke="#97b1b2" stroke-width="1.769"/><path d="m422.27 233.3v-33.38h-11.3l-12.02 33.38z" fill="#ecf3f6" stroke="#97b1b2" stroke-width="1.769"/></g><path d="m339.74 233.3v-42.7l-5.95-14.17v-5.7h51.13v19.87l22.9 42.7z" fill="#ecf3f6"/><path d="m364.56 176.43h-22.33-8.44l5.95 14.17h45.18v-14.17z" fill="#fff"/><path d="m422.27 275.34v27.2l-11.3 6.19-12.05-36.65z" fill="#ecf3f6" stroke="#97b1b2" stroke-miterlimit="10" stroke-width="1.769"/><path d="m411.6 278.59c-13.23 0-23.95 10.72-23.95 23.95h-296.02l26.19-12.62c3.87-1.87 6.34-5.79 6.34-10.09 0-4.94-2.74-9.47-7.12-11.76l-19.39-10.15c-8.66-5.18-13.96-14.54-13.96-24.63h77.13c1.46 0 2.65 1.19 2.65 2.65v7.8c0 10.11 8.19 18.3 18.3 18.3h139.69c10.11 0 18.3-8.19 18.3-18.3v-10.44h104.51v13.05c-.01 17.97-14.7 32.47-32.67 32.24z" fill="#ecf3f6" stroke="#97b1b2" stroke-miterlimit="10" stroke-width="1.769"/><path d="m339.74 233.3v-42.7l-5.95-14.17v-5.7h51.13v19.87l22.9 42.7z" fill="none" stroke="#97b1b2" stroke-miterlimit="10" stroke-width="1.769"/><path d="m401.5 280.83h-277.66" fill="#ecf3f6" stroke="#97b1b2" stroke-miterlimit="10" stroke-width="1.769"/><path d="m333.79 176.43h51.13" fill="#ecf3f6" stroke="#97b1b2" stroke-miterlimit="10" stroke-width="1.769"/><path d="m384.92 190.6h-45.63" fill="#ecf3f6" stroke="#97b1b2" stroke-miterlimit="10" stroke-width="1.769"/><path d="m351.36 176.43v14.17" fill="#ecf3f6" stroke="#97b1b2" stroke-miterlimit="10" stroke-width="1.769"/><path d="m369.7 176.43v14.17" fill="#ecf3f6" stroke="#97b1b2" stroke-miterlimit="10" stroke-width="1.769"/><path d="m339.29 240.85h104.97" fill="#ecf3f6" stroke="#97b1b2" stroke-miterlimit="10" stroke-width="1.769"/><path d="m84.73 240.85h78.73" fill="#ecf3f6" stroke="#97b1b2" stroke-miterlimit="10" stroke-width="1.769"/><circle cx="352.68" cy="205.17" fill="#fff" r="4.2"/><circle cx="367.89" cy="205.17" fill="#fff" r="4.2"/><circle cx="352.68" cy="220.11" fill="#fff" r="4.2"/><circle cx="367.89" cy="220.11" fill="#fff" r="4.2"/><circle cx="382.52" cy="220.11" fill="#fff" r="4.2"/><path d="m369.7 170.73v-14.76" fill="none" stroke="#ff8288" stroke-linecap="round" stroke-miterlimit="10" stroke-width="1.769"/><path d="m363.69 170.73v-8.43" fill="none" stroke="#ff8288" stroke-linecap="round" stroke-miterlimit="10" stroke-width="1.769"/><path d="m409.56 204.2h12.71" fill="none" stroke="#ff8288" stroke-miterlimit="10" stroke-width="1.769"/><circle cx="95.72" cy="254.59" fill="none" r="2.09" stroke="#ff8288" stroke-miterlimit="10" stroke-width="1.3852"/><path d="m95.72 256.8v22.47" fill="none" stroke="#ff8288" stroke-miterlimit="10" stroke-width="1.769"/><path d="m101.02 264.83h-10.61" fill="none" stroke="#ff8288" stroke-linecap="round" stroke-miterlimit="10" stroke-width="1.769"/><path d="m83.81 273.46c3.25 3.1 7.43 4.89 11.71 4.92 2.13.04 4.26-.35 6.27-1.13s3.88-1.95 5.57-3.42c.09-.08.23-.07.31.02.07.08.07.19.02.26-1.3 1.91-3.16 3.47-5.29 4.5-2.12 1.05-4.52 1.56-6.9 1.52-2.38-.05-4.76-.65-6.83-1.79-2.09-1.11-3.86-2.75-5.1-4.69-.05-.08-.03-.18.05-.23.05-.02.14-.01.19.04z" fill="#ff8288"/><path clip-rule="evenodd" d="m363.65 250.7c.12.13.2.31.19.5v9.72c0 .2-.07.41-.21.56s-.34.23-.55.23c-.12 0-.24-.02-.36-.06-.1-.03-.18-.09-.25-.17l-6.3-8.2v7.72c.01.38-.28.69-.65.7-.02 0-.04 0-.06 0-.18 0-.36-.07-.48-.2-.13-.13-.2-.31-.2-.49v-9.75c0-.2.08-.41.24-.55.14-.14.32-.22.51-.21.12 0 .25.02.36.07.12.04.21.12.29.2l6.26 8.22v-7.79c-.01-.38.28-.69.65-.7h.06c.18 0 .36.06.48.2zm12.97.02c.13.16.21.36.2.55v6.16c.01.79-.18 1.58-.56 2.27-.36.67-.89 1.22-1.55 1.59-.67.39-1.43.6-2.22.58-.78 0-1.55-.19-2.24-.57-.65-.37-1.19-.92-1.55-1.58-.38-.7-.57-1.48-.56-2.28v-6.16c0-.2.07-.41.24-.55.31-.3.8-.3 1.11 0 .14.14.23.33.23.55v6.13c-.01.52.12 1.04.38 1.5.49.86 1.41 1.39 2.4 1.4 1.58.01 2.87-1.27 2.88-2.85 0-.02 0-.03 0-.05v-6.13c0-.2.06-.41.19-.56.14-.16.33-.24.54-.23.19.01.38.09.51.23zm12.4 9.76c.09.13.14.29.13.45.01.2-.07.41-.23.55-.14.13-.32.2-.51.2-.25.01-.49-.12-.63-.32l-3.1-4.15-3.05 4.15c-.14.21-.37.33-.62.33-.19 0-.36-.07-.49-.2-.12-.12-.2-.29-.2-.45 0-.19.07-.38.19-.52l3.29-4.47-3.31-4.44c-.24-.3-.22-.73.06-1 .23-.24.59-.29.88-.14.11.05.21.14.29.24l3.08 4.13 3.03-4.09c.13-.2.36-.33.61-.36.19 0 .38.1.51.24.13.12.21.3.23.48 0 .18-.06.33-.17.48l-3.34 4.44 3.34 4.47h.01zm11.51-9.78c.14.13.24.33.23.54 0 .2-.08.39-.24.52-.14.13-.35.2-.55.19h-2.84v9c0 .2-.07.39-.23.54-.33.3-.84.3-1.17 0-.15-.14-.24-.33-.24-.54v-9h-2.84c-.2 0-.39-.06-.55-.2-.15-.14-.23-.33-.23-.54 0-.19.07-.38.21-.51.16-.14.36-.21.55-.2h7.33c.21 0 .41.06.57.2z" fill="#aac6ca" fill-rule="evenodd"/><path clip-rule="evenodd" d="m404.01 261.43c-.51-.29-.95-.72-1.25-1.23-.08-.12-.13-.27-.14-.43 0-.2.08-.39.24-.53.13-.14.31-.21.5-.24.29.04.55.18.72.41.36.6 1 .95 1.68.93 1.13.03 2.08-.86 2.11-1.99 0-.02 0-.04 0-.06v-7.02c0-.21.08-.41.24-.55s.36-.23.56-.23c.21 0 .42.07.57.21.14.15.22.34.21.55v7.04c.03 1.29-.66 2.48-1.79 3.1-1.13.64-2.5.65-3.64.02h-.01zm11.04.04c-.63-.24-1.22-.6-1.72-1.07-.2-.15-.32-.39-.33-.64 0-.2.09-.39.24-.52.13-.14.32-.22.51-.23.18 0 .33.06.47.18.38.36.84.66 1.31.87.5.19 1.03.29 1.55.29.6.01 1.19-.14 1.71-.48.42-.24.69-.68.69-1.17.01-.51-.25-1-.69-1.29-.64-.37-1.34-.63-2.08-.75-1.1-.24-1.94-.6-2.54-1.11s-.88-1.23-.88-2.14c-.01-.6.16-1.18.5-1.67.35-.48.81-.86 1.36-1.1 1.24-.49 2.61-.51 3.87-.06.53.18 1.02.47 1.43.85.21.17.36.42.36.68 0 .19-.08.38-.21.51-.13.15-.32.24-.53.24-.12 0-.26-.05-.36-.13-.7-.63-1.61-.98-2.55-.98-.6-.04-1.19.12-1.71.43-.65.44-.83 1.32-.39 1.97.1.16.24.29.39.39.58.34 1.22.59 1.89.72.7.13 1.38.36 2.04.63.5.23.93.57 1.23 1.03.31.52.45 1.11.43 1.72.01.6-.17 1.17-.51 1.65-.36.5-.86.88-1.43 1.12-1.3.5-2.73.52-4.04.07h-.01z" fill="#aac6ca" fill-rule="evenodd"/><circle cx="36.5" cy="139.44" fill="#ecf3f6" r="5.71" stroke="#97b1b2" stroke-miterlimit="10" stroke-width="1.769"/><path d="m46.85 293.54c18.91 0 18.91 3.8 37.81 3.8 18.91 0 18.91-3.8 37.81-3.8 18.91 0 18.91 3.8 37.81 3.8 18.91 0 18.91-3.8 37.81-3.8 18.91 0 18.91 3.8 37.82 3.8s18.91-3.8 37.82-3.8v42.63h-226.44z" fill="#fff"/><path d="m47.42 293.18c18.91 0 18.91 3.8 37.81 3.8 18.91 0 18.91-3.8 37.81-3.8 18.91 0 18.91 3.8 37.81 3.8 18.91 0 18.91-3.8 37.81-3.8 18.91 0 18.91 3.8 37.82 3.8s18.91-3.8 37.82-3.8" fill="none" stroke="#97b1b2" stroke-linecap="round" stroke-miterlimit="10" stroke-width="1.769"/><path d="m273 293.54c18.91 0 18.91 3.8 37.81 3.8 18.91 0 18.91-3.8 37.81-3.8 18.91 0 18.91 3.8 37.81 3.8 18.91 0 18.91-3.8 37.81-3.8 18.91 0 18.91 3.8 37.82 3.8s18.91-3.8 37.82-3.8v42.63h-226.44z" fill="#fff"/><path d="m273.57 293.18c18.91 0 18.91 3.8 37.81 3.8 18.91 0 18.91-3.8 37.81-3.8 18.91 0 18.91 3.8 37.81 3.8 18.91 0 18.91-3.8 37.81-3.8 18.91 0 18.91 3.8 37.82 3.8s18.91-3.8 37.82-3.8" fill="none" stroke="#97b1b2" stroke-linecap="round" stroke-miterlimit="10" stroke-width="1.769"/><path d="m173.01 334.82c.24.24.5.42.78.57-.28.15-.54.33-.78.57-.99.99-1.18 2.47-.58 3.65l4.09-4.09 2.33 1.73c4.41 3.27 10.43 3.27 14.84 0l2.5-1.86-2.5-1.86c-4.41-3.27-10.43-3.27-14.84 0l-2.33 1.73-4.09-4.09c-.6 1.19-.4 2.67.58 3.65z" fill="#baccd3" opacity=".3"/><path d="m153.05 319.33c.24.24.5.42.78.57-.28.15-.54.33-.78.57-.99.99-1.18 2.47-.58 3.65l4.09-4.09 2.33 1.73c4.41 3.27 10.43 3.27 14.84 0l2.5-1.86-2.5-1.86c-4.41-3.27-10.43-3.27-14.84 0l-2.33 1.73-4.09-4.09c-.6 1.18-.41 2.66.58 3.65z" fill="#baccd3" opacity=".3"/><path d="m418.89 328.51c.24.24.5.42.78.57-.28.15-.54.33-.78.57-.99.99-1.18 2.47-.58 3.65l4.09-4.09 2.33 1.73c4.41 3.27 10.43 3.27 14.84 0l2.5-1.86-2.5-1.86c-4.41-3.27-10.43-3.27-14.84 0l-2.33 1.73-4.09-4.09c-.61 1.18-.41 2.66.58 3.65z" fill="#baccd3" opacity=".3"/><path d="m164.02 234.43 48.02 27.13h-30.44c-10.04 0-18.1-8.28-17.83-18.32z" fill="#baccd3" opacity=".4"/><path d="m44.99 233.3h-28.28c-1.31 0-2.37-1.06-2.37-2.37v-29.24c0-1.31 1.06-2.37 2.37-2.37h28.28c1.31 0 2.37 1.06 2.37 2.37v29.24c0 1.31-1.06 2.37-2.37 2.37z" fill="#ecf3f6" stroke="#97b1b2" stroke-miterlimit="10" stroke-width="2.0639"/><path d="m50.23 233.3h-28.28c-1.31 0-2.37-1.06-2.37-2.37v-29.24c0-1.31 1.06-2.37 2.37-2.37h28.28c1.31 0 2.37 1.06 2.37 2.37v29.24c0 1.31-1.06 2.37-2.37 2.37z" fill="#ecf3f6" stroke="#97b1b2" stroke-miterlimit="10" stroke-width="2.0639"/><path d="m322.91 332.16 4.61-5.33c3.32-3.84 8.14-6.04 13.21-6.04h9.6c1.54 0 2.8 1.25 2.8 2.8v8.58" fill="#ecf3f6" stroke="#97b1b2" stroke-miterlimit="10" stroke-width="1.769"/><path d="m340.08 320.78v-12.91" fill="none" stroke="#ff8288" stroke-linecap="round" stroke-miterlimit="10" stroke-width="1.769"/><path d="m346.4 320.78v-13.37c0-3.46 2.81-6.27 6.27-6.27" fill="none" stroke="#ff8288" stroke-linecap="round" stroke-miterlimit="10" stroke-width="1.769"/><path d="m288.89 363.5 14.26 7.25h53.35c10.66 0 19.3-8.64 19.3-19.3s-8.64-19.3-19.3-19.3h-53.35l-14.26 7.25" fill="#ecf3f6" stroke="#97b1b2" stroke-miterlimit="10" stroke-width="1.769"/><circle cx="317.39" cy="348.63" fill="#fff" r="7.43" stroke="#97b1b2" stroke-miterlimit="10" stroke-width="1.1794"/><path d="m303.14 332.16s-7.97 14.02 0 38.59" fill="#ecf3f6" stroke="#97b1b2" stroke-miterlimit="10" stroke-width="1.769"/><path d="m336.73 332.16s-7.97 14.02 0 38.59" fill="#ecf3f6" stroke="#97b1b2" stroke-miterlimit="10" stroke-width="1.769"/><circle cx="353.23" cy="348.63" fill="#fff" r="7.43" stroke="#97b1b2" stroke-miterlimit="10" stroke-width="1.1794"/><path d="m288.89 339.41-6.89-2.76h-5.72v29.61h5.72l6.89-2.76" fill="#ecf3f6" stroke="#97b1b2" stroke-miterlimit="10" stroke-width="1.769"/><path d="m289.25 338.66s-5.39 9.49 0 26.11" fill="none" stroke="#97b1b2" stroke-miterlimit="10" stroke-width="1.769"/><path d="m249.45 357.69c18.83 0 18.83 5 37.65 5 18.83 0 18.83-5 37.65-5 18.83 0 18.83 5 37.66 5s18.83-5 37.66-5v34.3h-150.62z" fill="#fff"/><path d="m248.88 358.81c18.83 0 18.83 3.28 37.65 3.28 18.83 0 18.83-3.28 37.65-3.28 18.83 0 18.83 3.28 37.66 3.28s18.83-3.28 37.66-3.28" fill="none" stroke="#97b1b2" stroke-linecap="round" stroke-miterlimit="10" stroke-width="2.0639"/></svg>