<svg xmlns="http://www.w3.org/2000/svg" viewBox="0 0 653.19 575.51"><defs><style>.cls-1a356{isolation:isolate;}.cls-1a3561,.cls-2a356,.cls-7a356{fill:#ecf3f6;}.cls-1a3561,.cls-1a3566,.cls-1a3568,.cls-2a356,.cls-4a356,.cls-7a356{stroke:#aac6ca;}.cls-1a3561,.cls-1a3562,.cls-1a3563,.cls-1a3564,.cls-1a3566,.cls-1a3568,.cls-2a356,.cls-4a356,.cls-7a356,.cls-8a356,.cls-9a356{stroke-miterlimit:10;}.cls-2a356,.cls-4a356{stroke-width:2.17px;}.cls-1a3565,.cls-1a3567,.cls-3a356{fill:#baccd3;}.cls-3a356{opacity:0.4;}.cls-1a3568,.cls-4a356,.cls-6a356,.cls-9a356{fill:#fff;}.cls-5a356{fill:#f1f6f8;}.cls-7a356{stroke-width:1.91px;}.cls-1a3562,.cls-1a3563,.cls-1a3564,.cls-1a3566,.cls-8a356{fill:none;}.cls-1a3562,.cls-8a356,.cls-9a356{stroke:#ff8288;}.cls-1a3561,.cls-1a3563,.cls-1a3564,.cls-1a3566,.cls-1a3568,.cls-8a356,.cls-9a356{stroke-width:1.83px;}.cls-1a3560{fill:#ff8288;}.cls-1a3562{stroke-linecap:round;stroke-width:2.03px;stroke-dasharray:4.87;}.cls-1a3563{stroke:#baccd3;}.cls-1a3564{stroke:#fff;}.cls-1a3565{opacity:0.2;}.cls-1a3565,.cls-1a3567{mix-blend-mode:multiply;}.cls-1a3567{opacity:0.3;}</style></defs><g class="cls-1a356"><g id="Layer_1" data-name="Layer 1"><circle class="cls-2a356" cx="238.76" cy="176.57" r="111.92"/><path class="cls-3a356" d="M238.76,64.65A111.92,111.92,0,0,0,126.84,176.57H238.76Z"/><path class="cls-4a356" d="M222.79,49.28A111.91,111.91,0,0,0,110.87,161.19H222.79Z"/><path class="cls-5a356" d="M208.82,369.48a33.17,33.17,0,0,0-46.9,0l-5.31,5.31-21.88-21.88a50.28,50.28,0,0,0-71.1,0L15,401.6h226Z"/><rect class="cls-5a356" x="118.58" y="298.19" width="3.57" height="53.95"/><path class="cls-5a356" d="M115.06,277.58H125.4a0,0,0,0,1,0,0v18.6a3.58,3.58,0,0,1-3.58,3.58h-3.19a3.58,3.58,0,0,1-3.58-3.58v-18.6A0,0,0,0,1,115.06,277.58Z"/><path class="cls-5a356" d="M120.36,281.13H86a43.72,43.72,0,0,1,23.9-7.11h10.43Z"/><path class="cls-5a356" d="M121.66,280l-26.3,22.07h0a43.76,43.76,0,0,1,13.74-20.8l8-6.71Z"/><path class="cls-5a356" d="M121.17,280.5l-26.5-21.82h0a43.77,43.77,0,0,1,23,9.7l8.06,6.63Z"/><path class="cls-5a356" d="M120.23,281.13h34.33a43.72,43.72,0,0,0-23.9-7.11H120.23Z"/><path class="cls-5a356" d="M118.93,280l26.3,22.07h0a43.76,43.76,0,0,0-13.74-20.8l-8-6.71Z"/><path class="cls-5a356" d="M119.41,280.5l26.51-21.82h0a43.8,43.8,0,0,0-23,9.7l-8,6.63Z"/><rect class="cls-5a356" x="54.45" y="325.33" width="3.57" height="53.95"/><path class="cls-5a356" d="M50.94,304.72H61.28a0,0,0,0,1,0,0v18.6a3.58,3.58,0,0,1-3.58,3.58H54.51a3.58,3.58,0,0,1-3.58-3.58v-18.6A0,0,0,0,1,50.94,304.72Z"/><path class="cls-5a356" d="M56.24,308.27H21.91a43.7,43.7,0,0,1,23.89-7.1H56.24Z"/><path class="cls-5a356" d="M57.54,307.14l-26.3,22.07h0A43.68,43.68,0,0,1,45,308.41l8-6.71Z"/><path class="cls-5a356" d="M57.05,307.64l-26.5-21.82h0a43.77,43.77,0,0,1,23,9.7l8.06,6.63Z"/><path class="cls-5a356" d="M56.11,308.27H90.44a43.74,43.74,0,0,0-23.9-7.1H56.11Z"/><path class="cls-5a356" d="M54.81,307.14,81.1,329.21h0a43.68,43.68,0,0,0-13.74-20.8l-8-6.71Z"/><path class="cls-5a356" d="M55.29,307.64l26.5-21.82h0a43.77,43.77,0,0,0-23,9.7l-8,6.63Z"/><path class="cls-6a356" d="M374,400.1c-1.83.1-3.78.16-5.9.16-28.86,0-28.86-10.43-57.73-10.43s-28.87,10.43-57.74,10.43-28.87-10.43-57.74-10.43S166,400.26,137.17,400.26s-28.87-10.43-57.74-10.43S50.57,400.26,21.7,400.26c-9.82,0-16.29-1.2-21.7-2.8v22.18H374Z"/><path class="cls-7a356" d="M589.54,210.23v238h-402v-238a9,9,0,0,1,9-9h384A9,9,0,0,1,589.54,210.23Z"/><path class="cls-4a356" d="M579.62,210.23v238h-402v-238a9,9,0,0,1,9-9h384A9,9,0,0,1,579.62,210.23Z"/><path class="cls-2a356" d="M570.58,201.19h-384a9,9,0,0,0-9,9v16.41H579.62V210.23A9,9,0,0,0,570.58,201.19Z"/><polyline class="cls-8a356" points="649.15 208.56 649.15 4.04 499.67 4.04"/><rect class="cls-9a356" x="646.01" y="0.91" width="6.26" height="6.26"/><polygon class="cls-1a3560" points="496.59 4.04 502.75 7.61 502.75 0.48 496.59 4.04"/><polygon class="cls-1a3560" points="649.15 212.55 652.71 206.38 645.59 206.38 649.15 212.55"/><rect class="cls-1a3561" x="228.09" y="266.08" width="164.79" height="114.23" rx="2.7"/><rect class="cls-1a3562" x="410.06" y="266.08" width="121.93" height="114.23" rx="2.09"/><polyline class="cls-1a3563" points="455.7 315.32 444.75 326.27 455.7 337.21"/><polyline class="cls-1a3563" points="484.5 337.21 495.45 326.27 484.5 315.32"/><line class="cls-1a3563" x1="477.63" y1="311.03" x2="462.27" y2="342.02"/><line class="cls-1a3564" x1="239.03" y1="370.74" x2="385.62" y2="273.63"/><line class="cls-1a3564" x1="385.62" y1="370.74" x2="239.03" y2="273.63"/><line class="cls-8a356" x1="158.16" y1="395.38" x2="158.16" y2="211.34"/><polygon class="cls-1a3560" points="158.16 400.66 162.07 393.89 154.26 393.89 158.16 400.66"/><polygon class="cls-1a3560" points="158.16 206.73 154.26 213.49 162.07 213.49 158.16 206.73"/><path class="cls-1a3565" d="M579.24,417.5c-1.91.11-3.94.18-6.15.18-30.12,0-30.12-10.89-60.24-10.89s-30.13,10.89-60.25,10.89-30.13-10.89-60.25-10.89-30.12,10.89-60.24,10.89S302,406.79,271.86,406.79s-30.12,10.89-60.24,10.89c-10.24,0-28.41-1.26-34.05-2.93v23.14H579.24Z"/><path class="cls-6a356" d="M148.49,417.12c30.12,0,30.12,10.89,60.24,10.89s30.12-10.89,60.24-10.89S299.09,428,329.21,428s30.12-10.89,60.25-10.89S419.58,428,449.71,428s30.12-10.89,60.25-10.89V539.4H149.2Z"/><path class="cls-1a3566" d="M148.49,417.12c30.12,0,30.12,10.89,60.24,10.89s30.12-10.89,60.24-10.89S299.09,428,329.21,428s30.12-10.89,60.25-10.89S419.58,428,449.71,428s30.12-10.89,60.25-10.89"/><path class="cls-6a356" d="M630.44,417.12c-30.12,0-30.12,10.89-60.24,10.89S540.08,417.12,510,417.12l.7,122.28"/><path class="cls-1a3566" d="M630.44,417.12c-30.12,0-30.12,10.89-60.24,10.89S540.08,417.12,510,417.12"/><path class="cls-1a3567" d="M486.35,525.34a4.28,4.28,0,0,0,1.08.79,4.49,4.49,0,0,0-1.08.78,4.35,4.35,0,0,0-.8,5l5.65-5.64,3.21,2.39a17.19,17.19,0,0,0,20.46,0l3.45-2.56-3.45-2.56a17.16,17.16,0,0,0-20.46,0L491.2,526l-5.65-5.64A4.35,4.35,0,0,0,486.35,525.34Z"/><path class="cls-1a3567" d="M589.11,474.71a4.23,4.23,0,0,0,1.07.79,4.44,4.44,0,0,0-1.07.78,4.34,4.34,0,0,0-.81,5l5.65-5.64,3.21,2.39a17.19,17.19,0,0,0,20.46,0l3.45-2.56-3.45-2.56a17.16,17.16,0,0,0-20.46,0L594,475.32l-5.65-5.64A4.34,4.34,0,0,0,589.11,474.71Z"/><path class="cls-1a3567" d="M437.5,485.89a4.54,4.54,0,0,0,1.08.79,4.49,4.49,0,0,0-1.08.78,4.33,4.33,0,0,0-.8,5l5.64-5.64,3.22,2.39a17.18,17.18,0,0,0,20.45,0l3.45-2.56L466,484.12a17.15,17.15,0,0,0-20.45,0l-3.22,2.38-5.64-5.64A4.33,4.33,0,0,0,437.5,485.89Z"/><path class="cls-1a3561" d="M222.6,482.85h16.34a18.32,18.32,0,0,1,18.32,18.32v10.56a0,0,0,0,1,0,0h-53a0,0,0,0,1,0,0V501.18a18.32,18.32,0,0,1,18.32-18.32Z" transform="translate(615.19 888.17) rotate(160.37)"/><polygon class="cls-1a3568" points="245.46 476.87 206.48 490.77 198.55 441.09 220.16 433.38 245.46 476.87"/><polygon class="cls-1a3561" points="214.62 416.81 200.16 411.46 192.68 424.64 198.55 441.09 220.48 433.26 214.62 416.81"/><line class="cls-1a3568" x1="192.68" y1="424.64" x2="214.62" y2="416.82"/><line class="cls-8a356" x1="200.16" y1="451.16" x2="230.66" y2="451.44"/><line class="cls-8a356" x1="202.66" y1="466.8" x2="239.8" y2="467.15"/><path class="cls-6a356" d="M359.42,500.81c-30.12,0-30.12,10.89-60.24,10.89s-30.12-10.89-60.25-10.89-30.12,10.89-60.25,10.89-30.12-10.89-60.25-10.89v74.7h241Z"/><path class="cls-1a3566" d="M359.42,500.81c-30.12,0-30.12,10.89-60.24,10.89s-30.12-10.89-60.25-10.89-30.12,10.89-60.25,10.89-30.12-10.89-60.25-10.89"/><line class="cls-1a3566" x1="203.65" y1="420.73" x2="209.08" y2="436.99"/><line class="cls-1a3561" x1="253.12" y1="483.56" x2="203.65" y2="500.81"/><line class="cls-1a3566" x1="218.24" y1="415.33" x2="188.16" y2="426.27"/><line class="cls-1a3566" x1="224.11" y1="431.75" x2="194.04" y2="442.69"/><path class="cls-3a356" d="M516.73,37.91h72.82a0,0,0,0,1,0,0V272.48a0,0,0,0,1,0,0H516.73a8.4,8.4,0,0,1-8.4-8.4V46.31A8.4,8.4,0,0,1,516.73,37.91Z"/><rect class="cls-7a356" x="508.32" y="24.11" width="121.15" height="234.57" rx="8.4"/><rect class="cls-7a356" x="499.3" y="24.11" width="121.15" height="234.57" rx="8.4"/><line class="cls-7a356" x1="499.3" y1="44.06" x2="620.45" y2="44.06"/><line class="cls-7a356" x1="499.3" y1="232.73" x2="620.45" y2="232.73"/><line class="cls-1a3566" x1="583.58" y1="245.9" x2="537.44" y2="245.9"/><rect class="cls-1a3568" x="440.51" y="83.45" width="77.55" height="77.55" rx="2.02"/><path class="cls-8a356" d="M366.39,60a10.19,10.19,0,0,1,10.19,10.19"/><path class="cls-8a356" d="M387.21,60A10.19,10.19,0,0,0,377,70.15"/><path class="cls-8a356" d="M397.17,33.84A10.19,10.19,0,0,1,407.36,44"/><path class="cls-8a356" d="M418,33.84A10.19,10.19,0,0,0,407.79,44"/><rect class="cls-1a3568" x="529.12" y="83.45" width="77.55" height="77.55" rx="2.02"/><rect class="cls-3a356" x="581.47" y="110.8" width="6.35" height="33.21" transform="translate(1169.29 254.82) rotate(-180)"/><rect class="cls-3a356" x="570.3" y="118.31" width="6.35" height="25.7" transform="translate(1146.96 262.33) rotate(-180)"/><rect class="cls-3a356" x="559.14" y="124.74" width="6.35" height="19.27" transform="translate(1124.62 268.76) rotate(-180)"/><rect class="cls-3a356" x="547.97" y="132.25" width="6.35" height="11.76" transform="translate(1102.28 276.27) rotate(-180)"/><line class="cls-8a356" x1="560.01" y1="115.33" x2="552.65" y2="119.7"/><circle class="cls-8a356" cx="585.12" cy="100.09" r="2.69"/><circle class="cls-8a356" cx="573.48" cy="107.06" r="2.69"/><circle class="cls-8a356" cx="562.31" cy="113.95" r="2.69"/><circle class="cls-8a356" cx="550.65" cy="120.88" r="2.69"/><line class="cls-8a356" x1="582.95" y1="101.66" x2="575.79" y2="105.72"/><line class="cls-8a356" x1="571.44" y1="108.48" x2="564.29" y2="112.54"/><line class="cls-8a356" x1="473.56" y1="111.9" x2="448.79" y2="111.9"/><line class="cls-8a356" x1="466.18" y1="118.32" x2="453.2" y2="118.32"/><line class="cls-8a356" x1="464.21" y1="124.74" x2="457.6" y2="124.74"/><circle class="cls-1a3568" cx="480.07" cy="126.36" r="15.86"/><line class="cls-1a3568" x1="480.07" y1="109.93" x2="480.07" y2="104.68"/><line class="cls-1a3568" x1="490.74" y1="114.75" x2="494.22" y2="111.27"/><line class="cls-1a3568" x1="491.74" y1="108.78" x2="496.79" y2="113.83"/><circle class="cls-1a3568" cx="480.07" cy="104.75" r="3.08"/><polyline class="cls-1a3568" points="476.6 120.52 480 126.36 486.98 126.41"/></g></g></svg>