<svg viewBox="0 0 103.06 73.37" xmlns="http://www.w3.org/2000/svg"><path d="m19.28 44.9h-17.08a.7.7 0 0 1 -.7-.7v-20.2h17.78v-1.5h-17.78v-20.3a.71.71 0 0 1 .7-.7h20.25v19.24h1.55v-19.24h20.2a.7.7 0 0 1 .7.7v18.54h1.5v-18.54a2.21 2.21 0 0 0 -2.2-2.2h-42a2.21 2.21 0 0 0 -2.2 2.2v42a2.2 2.2 0 0 0 2.2 2.2h17.08z" fill="#ff7c6c"/><circle cx="26.41" cy="26.2" fill="#ff7c6c" r="1.39"/><path d="m99.36 54.75h-20.91a3.7 3.7 0 0 1 -3.7-3.7v-40.71a3.7 3.7 0 0 1 3.7-3.7h20.91a3.7 3.7 0 0 1 3.7 3.7v40.71a3.7 3.7 0 0 1 -3.7 3.7zm-20.91-46.61a2.21 2.21 0 0 0 -2.2 2.2v40.71a2.21 2.21 0 0 0 2.2 2.2h20.91a2.21 2.21 0 0 0 2.2-2.2v-40.71a2.21 2.21 0 0 0 -2.2-2.2z" fill="#c4c4c4"/><path d="m90 54v17.87h-70v-39.42h55.5v-1.45h-55.5v-9.51h55.5v-1.49h-55.64a1.32 1.32 0 0 0 -1.33 1.32v50.73a1.32 1.32 0 0 0 1.33 1.32h70.33a1.33 1.33 0 0 0 1.33-1.32v-18.05z" fill="#c4c4c4"/><path d="m99.36 54.75h-20.91a3.7 3.7 0 0 1 -3.7-3.7v-40.71a3.7 3.7 0 0 1 3.7-3.7h20.91a3.7 3.7 0 0 1 3.7 3.7v40.71a3.7 3.7 0 0 1 -3.7 3.7zm-20.91-46.61a2.21 2.21 0 0 0 -2.2 2.2v40.71a2.21 2.21 0 0 0 2.2 2.2h20.91a2.21 2.21 0 0 0 2.2-2.2v-40.71a2.21 2.21 0 0 0 -2.2-2.2z" fill="#c4c4c4"/><g fill="#ff7c6c"><path d="m94.56 13.59h-11.31a.75.75 0 0 1 0-1.5h11.31a.75.75 0 0 1 0 1.5z"/><path d="m59.57 55.77a.79.79 0 0 1 -.53-.22.75.75 0 0 1 0-1.06l4.05-4.06-4.05-4a.75.75 0 0 1 1.06-1.06l5.11 5.11-5.11 5.07a.79.79 0 0 1 -.53.22z"/><path d="m47.49 55.77a.75.75 0 0 1 -.53-.22l-5.12-5.12 5.16-5.11a.75.75 0 0 1 1 1.06l-4.06 4 4.06 4.11a.75.75 0 0 1 0 1.06.79.79 0 0 1 -.51.22z"/><path d="m51.1 58.82a1 1 0 0 1 -.24 0 .76.76 0 0 1 -.48-1l4.8-14.66a.75.75 0 1 1 1.42.46l-4.79 14.68a.76.76 0 0 1 -.71.52z"/></g></svg>