<svg id="Layer_1" data-name="Layer 1" xmlns="http://www.w3.org/2000/svg" viewBox="0 0 103.06 73.37"><defs><style>.cls-1{fill:#ff7c6c;}.cls-2{fill:#c4c4c4;}</style></defs><title>sspws</title><path class="cls-1" d="M19.28,44.9H2.2a.7.7,0,0,1-.7-.7V24H19.28v-1.5H1.5V2.2a.71.71,0,0,1,.7-.7H22.45V20.74H24V1.5H44.2a.7.7,0,0,1,.7.7V20.74h1.5V2.2A2.21,2.21,0,0,0,44.2,0H2.2A2.21,2.21,0,0,0,0,2.2v42a2.2,2.2,0,0,0,2.2,2.2H19.28Z"/><circle class="cls-1" cx="26.41" cy="26.2" r="1.39"/><path class="cls-2" d="M99.36,54.75H78.45a3.7,3.7,0,0,1-3.7-3.7V10.34a3.7,3.7,0,0,1,3.7-3.7H99.36a3.7,3.7,0,0,1,3.7,3.7V51.05A3.7,3.7,0,0,1,99.36,54.75ZM78.45,8.14a2.21,2.21,0,0,0-2.2,2.2V51.05a2.21,2.21,0,0,0,2.2,2.2H99.36a2.21,2.21,0,0,0,2.2-2.2V10.34a2.21,2.21,0,0,0-2.2-2.2Z"/><path class="cls-2" d="M90,54V71.87H20V32.45H75.5V31H20V21.49H75.5V20H19.86a1.32,1.32,0,0,0-1.33,1.32V72.05a1.32,1.32,0,0,0,1.33,1.32H90.19a1.33,1.33,0,0,0,1.33-1.32V54Z"/><path class="cls-2" d="M99.36,54.75H78.45a3.7,3.7,0,0,1-3.7-3.7V10.34a3.7,3.7,0,0,1,3.7-3.7H99.36a3.7,3.7,0,0,1,3.7,3.7V51.05A3.7,3.7,0,0,1,99.36,54.75ZM78.45,8.14a2.21,2.21,0,0,0-2.2,2.2V51.05a2.21,2.21,0,0,0,2.2,2.2H99.36a2.21,2.21,0,0,0,2.2-2.2V10.34a2.21,2.21,0,0,0-2.2-2.2Z"/><path class="cls-1" d="M94.56,13.59H83.25a.75.75,0,0,1,0-1.5H94.56a.75.75,0,0,1,0,1.5Z"/><path class="cls-1" d="M59.57,55.77a.79.79,0,0,1-.53-.22.75.75,0,0,1,0-1.06l4.05-4.06-4.05-4a.75.75,0,0,1,1.06-1.06l5.11,5.11L60.1,55.55A.79.79,0,0,1,59.57,55.77Z"/><path class="cls-1" d="M47.49,55.77a.75.75,0,0,1-.53-.22l-5.12-5.12L47,45.32A.75.75,0,0,1,48,46.38l-4.06,4L48,54.49a.75.75,0,0,1,0,1.06A.79.79,0,0,1,47.49,55.77Z"/><path class="cls-1" d="M51.1,58.82a1,1,0,0,1-.24,0,.76.76,0,0,1-.48-1l4.8-14.66a.75.75,0,1,1,1.42.46L51.81,58.3A.76.76,0,0,1,51.1,58.82Z"/></svg>