<svg id="Layer_1" data-name="Layer 1" xmlns="http://www.w3.org/2000/svg" viewBox="0 0 106.77 70.97"><defs><style>.cls-1{fill:#ff7c6c;}.cls-2{fill:#c4c4c4;}</style></defs><path class="cls-1" d="M47.06,4.11H.75a.75.75,0,0,1,0-1.5H47.06a.75.75,0,0,1,0,1.5Z"/><path class="cls-1" d="M33.26,16.12H9a.75.75,0,0,1,0-1.5H33.26a.75.75,0,1,1,0,1.5Z"/><path class="cls-1" d="M29.58,28.13H17.22a.75.75,0,0,1,0-1.5H29.58a.75.75,0,0,1,0,1.5Z"/><path class="cls-2" d="M72.16,31.26h0l-13.48-.11L52.09,19.86a.75.75,0,0,1,.28-1,.74.74,0,0,1,1,.27l6.15,10.55,12.62.1a.75.75,0,0,1,0,1.5Z"/><path class="cls-2" d="M68.2,57.89A28.91,28.91,0,1,1,88.14,30.41c0,.28,0,.55,0,.83.51,0,1,.08,1.5.15,0-.33,0-.65,0-1A30.44,30.44,0,1,0,68.76,59.28C68.56,58.82,68.37,58.36,68.2,57.89Z"/><path class="cls-2" d="M59.23,6.79a23.62,23.62,0,1,0,7.83,45.9c0-.52-.08-1-.08-1.57a21.88,21.88,0,0,1-7.75,1.4A22.12,22.12,0,1,1,81.35,30.41c0,.53,0,1.06-.06,1.58.5-.15,1-.29,1.53-.4,0-.39,0-.78,0-1.18A23.65,23.65,0,0,0,59.23,6.79Z"/><path class="cls-1" d="M86.87,67.44a16.37,16.37,0,1,1,16.37-16.36A16.38,16.38,0,0,1,86.87,67.44Zm0-31.23a14.87,14.87,0,1,0,14.87,14.87A14.88,14.88,0,0,0,86.87,36.21Z"/><path class="cls-1" d="M86.87,67.44a16.37,16.37,0,1,1,16.37-16.36A16.38,16.38,0,0,1,86.87,67.44Zm0-31.23a14.87,14.87,0,1,0,14.87,14.87A14.88,14.88,0,0,0,86.87,36.21Z"/><path class="cls-1" d="M86.25,56.88a3.29,3.29,0,0,1-2.9-3.15.88.88,0,0,0,0-.23h1.26a2.16,2.16,0,0,0,2.32,2.34,2.07,2.07,0,0,0,2.21-2.26c0-1.78-1.58-2.17-2.38-2.38s-3-.74-3.05-3.11A3,3,0,0,1,86.25,45V43.59h1.26V45a3.11,3.11,0,0,1,2.77,3.16H89a2,2,0,0,0-2.12-2.06,1.85,1.85,0,0,0-1.94,2c.07,1.41,1.18,1.74,2.21,2,.83.22,3.23.85,3.23,3.48a3.26,3.26,0,0,1-2.89,3.3v1.68H86.25Z"/></svg>