<svg enable-background="new 0 0 431.58 298.5" viewBox="0 0 431.58 298.5" xmlns="http://www.w3.org/2000/svg" xmlns:xlink="http://www.w3.org/1999/xlink"><clipPath id="a"><path d="m136.3 129.77h45.12v45.21h-45.12z"/></clipPath><path d="m142.64 25.65h-111.4v133.44" fill="none" stroke="#ff8288" stroke-linecap="round" stroke-miterlimit="10" stroke-width="1.769"/><path d="m28.58 22.99h5.32v5.32h-5.32z" fill="#fe8288" transform="matrix(0 -1 1 0 5.5941 56.8926)"/><path d="m146.4 25.65-4.3-2.48v4.96z" fill="#ff8288"/><path d="m31.24 161.95 2.48-4.29h-4.96z" fill="#ff8288"/><path d="m319.18 15.96 8.43-8.43c-2.17-.05-4.36.76-6.01 2.41-1.66 1.66-2.47 3.84-2.42 6.02z" fill="#ff8288"/><path d="m319.18 15.96-8.43-8.43c2.17-.05 4.36.76 6.01 2.41 1.66 1.66 2.46 3.84 2.42 6.02z" fill="#ff8288"/><path d="m300.05 37.37 8.43-8.43c-2.17-.05-4.36.76-6.01 2.41-1.66 1.66-2.47 3.85-2.42 6.02z" fill="#ff8288"/><path d="m300.05 37.37-8.43-8.43c2.17-.05 4.36.76 6.01 2.41 1.66 1.66 2.46 3.85 2.42 6.02z" fill="#ff8288"/><path d="m45.47 175.31h133.82c1.16 0 2.1-.94 2.1-2.1v-132.08c0-1.16-.94-2.1-2.1-2.1h-133.82c-1.16 0-2.1.94-2.1 2.1v132.08c0 1.16.94 2.1 2.1 2.1z" fill="#ecf3f6" stroke="#97b1b2" stroke-miterlimit="10" stroke-width="1.769"/><g clip-path="url(#a)" fill="#baccd3"><circle cx="92.74" cy="130.47" r=".47"/><circle cx="96.25" cy="130.47" r=".47"/><circle cx="99.76" cy="130.47" r=".47"/><circle cx="103.28" cy="130.47" r=".47"/><circle cx="106.79" cy="130.47" r=".47"/><circle cx="110.3" cy="130.47" r=".47"/><circle cx="113.81" cy="130.47" r=".47"/><circle cx="117.33" cy="130.47" r=".47"/><circle cx="120.84" cy="130.47" r=".47"/><circle cx="124.35" cy="130.47" r=".47"/><circle cx="127.86" cy="130.47" r=".47"/><circle cx="131.37" cy="130.47" r=".47"/><circle cx="134.89" cy="130.47" r=".47"/><circle cx="138.4" cy="130.47" r=".47"/><circle cx="141.91" cy="130.47" r=".47"/><circle cx="145.42" cy="130.47" r=".47"/><circle cx="148.94" cy="130.47" r=".47"/><circle cx="152.45" cy="130.47" r=".47"/><circle cx="155.96" cy="130.47" r=".47"/><circle cx="159.47" cy="130.47" r=".47"/><circle cx="162.99" cy="130.47" r=".47"/><circle cx="166.5" cy="130.47" r=".47"/><circle cx="170.01" cy="130.47" r=".47"/><circle cx="173.52" cy="130.47" r=".47"/><circle cx="94.55" cy="132.28" r=".47"/><circle cx="98.06" cy="132.28" r=".47"/><circle cx="101.57" cy="132.28" r=".47"/><circle cx="105.09" cy="132.28" r=".47"/><circle cx="108.6" cy="132.28" r=".47"/><circle cx="112.11" cy="132.28" r=".47"/><circle cx="115.62" cy="132.28" r=".47"/><circle cx="119.14" cy="132.28" r=".47"/><circle cx="122.65" cy="132.28" r=".47"/><circle cx="126.16" cy="132.28" r=".47"/><circle cx="129.67" cy="132.28" r=".47"/><circle cx="133.18" cy="132.28" r=".47"/><circle cx="136.7" cy="132.28" r=".47"/><circle cx="140.21" cy="132.28" r=".47"/><circle cx="143.72" cy="132.28" r=".47"/><circle cx="147.23" cy="132.28" r=".47"/><circle cx="150.75" cy="132.28" r=".47"/><circle cx="154.26" cy="132.28" r=".47"/><circle cx="157.77" cy="132.28" r=".47"/><circle cx="161.28" cy="132.28" r=".47"/><circle cx="164.8" cy="132.28" r=".47"/><circle cx="168.31" cy="132.28" r=".47"/><circle cx="171.82" cy="132.28" r=".47"/><circle cx="175.33" cy="132.28" r=".47"/><circle cx="96.36" cy="134.09" r=".47"/><circle cx="99.87" cy="134.09" r=".47"/><circle cx="103.38" cy="134.09" r=".47"/><circle cx="106.9" cy="134.09" r=".47"/><circle cx="110.41" cy="134.09" r=".47"/><circle cx="113.92" cy="134.09" r=".47"/><circle cx="117.43" cy="134.09" r=".47"/><circle cx="120.95" cy="134.09" r=".47"/><circle cx="124.46" cy="134.09" r=".47"/><circle cx="127.97" cy="134.09" r=".47"/><circle cx="131.48" cy="134.09" r=".47"/><circle cx="135" cy="134.09" r=".47"/><circle cx="138.51" cy="134.09" r=".47"/><circle cx="142.02" cy="134.09" r=".47"/><circle cx="145.53" cy="134.09" r=".47"/><circle cx="149.04" cy="134.09" r=".47"/><circle cx="152.56" cy="134.09" r=".47"/><circle cx="156.07" cy="134.09" r=".47"/><circle cx="159.58" cy="134.09" r=".47"/><circle cx="163.09" cy="134.09" r=".47"/><circle cx="166.61" cy="134.09" r=".47"/><circle cx="170.12" cy="134.09" r=".47"/><circle cx="173.63" cy="134.09" r=".47"/><circle cx="177.14" cy="134.09" r=".47"/><circle cx="98.17" cy="135.9" r=".47"/><circle cx="101.68" cy="135.9" r=".47"/><circle cx="105.19" cy="135.9" r=".47"/><circle cx="108.71" cy="135.9" r=".47"/><circle cx="112.22" cy="135.9" r=".47"/><circle cx="115.73" cy="135.9" r=".47"/><circle cx="119.24" cy="135.9" r=".47"/><circle cx="122.76" cy="135.9" r=".47"/><circle cx="126.27" cy="135.9" r=".47"/><circle cx="129.78" cy="135.9" r=".47"/><circle cx="133.29" cy="135.9" r=".47"/><circle cx="136.81" cy="135.9" r=".47"/><circle cx="140.32" cy="135.9" r=".47"/><circle cx="143.83" cy="135.9" r=".47"/><circle cx="147.34" cy="135.9" r=".47"/><circle cx="150.85" cy="135.9" r=".47"/><circle cx="154.37" cy="135.9" r=".47"/><circle cx="157.88" cy="135.9" r=".47"/><circle cx="161.39" cy="135.9" r=".47"/><circle cx="164.9" cy="135.9" r=".47"/><circle cx="168.42" cy="135.9" r=".47"/><circle cx="171.93" cy="135.9" r=".47"/><circle cx="175.44" cy="135.9" r=".47"/><circle cx="178.95" cy="135.9" r=".47"/><circle cx="99.98" cy="137.71" r=".47"/><circle cx="103.49" cy="137.71" r=".47"/><circle cx="107" cy="137.71" r=".47"/><circle cx="110.52" cy="137.71" r=".47"/><circle cx="114.03" cy="137.71" r=".47"/><circle cx="117.54" cy="137.71" r=".47"/><circle cx="121.05" cy="137.71" r=".47"/><circle cx="124.57" cy="137.71" r=".47"/><circle cx="128.08" cy="137.71" r=".47"/><circle cx="131.59" cy="137.71" r=".47"/><circle cx="135.1" cy="137.71" r=".47"/><circle cx="138.62" cy="137.71" r=".47"/><circle cx="142.13" cy="137.71" r=".47"/><circle cx="145.64" cy="137.71" r=".47"/><circle cx="149.15" cy="137.71" r=".47"/><circle cx="152.66" cy="137.71" r=".47"/><circle cx="156.18" cy="137.71" r=".47"/><circle cx="159.69" cy="137.71" r=".47"/><circle cx="163.2" cy="137.71" r=".47"/><circle cx="166.71" cy="137.71" r=".47"/><circle cx="170.23" cy="137.71" r=".47"/><circle cx="173.74" cy="137.71" r=".47"/><circle cx="177.25" cy="137.71" r=".47"/><circle cx="180.76" cy="137.71" r=".47"/><circle cx="101.79" cy="139.52" r=".47"/><circle cx="105.3" cy="139.52" r=".47"/><circle cx="108.81" cy="139.52" r=".47"/><circle cx="112.33" cy="139.52" r=".47"/><circle cx="115.84" cy="139.52" r=".47"/><circle cx="119.35" cy="139.52" r=".47"/><circle cx="122.86" cy="139.52" r=".47"/><circle cx="126.38" cy="139.52" r=".47"/><circle cx="129.89" cy="139.52" r=".47"/><circle cx="133.4" cy="139.52" r=".47"/><circle cx="136.91" cy="139.52" r=".47"/><circle cx="140.43" cy="139.52" r=".47"/><circle cx="143.94" cy="139.52" r=".47"/><circle cx="147.45" cy="139.52" r=".47"/><circle cx="150.96" cy="139.52" r=".47"/><circle cx="154.47" cy="139.52" r=".47"/><circle cx="157.99" cy="139.52" r=".47"/><circle cx="161.5" cy="139.52" r=".47"/><circle cx="165.01" cy="139.52" r=".47"/><circle cx="168.52" cy="139.52" r=".47"/><circle cx="172.04" cy="139.52" r=".47"/><circle cx="175.55" cy="139.52" r=".47"/><circle cx="179.06" cy="139.52" r=".47"/><circle cx="182.57" cy="139.52" r=".47"/><circle cx="103.6" cy="141.33" r=".47"/><circle cx="107.11" cy="141.33" r=".47"/><circle cx="110.62" cy="141.33" r=".47"/><circle cx="114.14" cy="141.33" r=".47"/><circle cx="117.65" cy="141.33" r=".47"/><circle cx="121.16" cy="141.33" r=".47"/><circle cx="124.67" cy="141.33" r=".47"/><circle cx="128.19" cy="141.33" r=".47"/><circle cx="131.7" cy="141.33" r=".47"/><circle cx="135.21" cy="141.33" r=".47"/><circle cx="138.72" cy="141.33" r=".47"/><circle cx="142.24" cy="141.33" r=".47"/><circle cx="145.75" cy="141.33" r=".47"/><circle cx="149.26" cy="141.33" r=".47"/><circle cx="152.77" cy="141.33" r=".47"/><circle cx="156.29" cy="141.33" r=".47"/><circle cx="159.8" cy="141.33" r=".47"/><circle cx="163.31" cy="141.33" r=".47"/><circle cx="166.82" cy="141.33" r=".47"/><circle cx="170.33" cy="141.33" r=".47"/><circle cx="173.85" cy="141.33" r=".47"/><circle cx="177.36" cy="141.33" r=".47"/><circle cx="180.87" cy="141.33" r=".47"/><circle cx="184.38" cy="141.33" r=".47"/><circle cx="105.41" cy="143.14" r=".47"/><circle cx="108.92" cy="143.14" r=".47"/><circle cx="112.43" cy="143.14" r=".47"/><circle cx="115.95" cy="143.14" r=".47"/><circle cx="119.46" cy="143.14" r=".47"/><circle cx="122.97" cy="143.14" r=".47"/><circle cx="126.48" cy="143.14" r=".47"/><circle cx="130" cy="143.14" r=".47"/><circle cx="133.51" cy="143.14" r=".47"/><circle cx="137.02" cy="143.14" r=".47"/><circle cx="140.53" cy="143.14" r=".47"/><circle cx="144.05" cy="143.14" r=".47"/><circle cx="147.56" cy="143.14" r=".47"/><circle cx="151.07" cy="143.14" r=".47"/><circle cx="154.58" cy="143.14" r=".47"/><circle cx="158.1" cy="143.14" r=".47"/><circle cx="161.61" cy="143.14" r=".47"/><circle cx="165.12" cy="143.14" r=".47"/><circle cx="168.63" cy="143.14" r=".47"/><circle cx="172.14" cy="143.14" r=".47"/><circle cx="175.66" cy="143.14" r=".47"/><circle cx="179.17" cy="143.14" r=".47"/><circle cx="182.68" cy="143.14" r=".47"/><circle cx="186.19" cy="143.14" r=".47"/><circle cx="107.22" cy="144.95" r=".47"/><circle cx="110.73" cy="144.95" r=".47"/><circle cx="114.24" cy="144.95" r=".47"/><circle cx="117.76" cy="144.95" r=".47"/><circle cx="121.27" cy="144.95" r=".47"/><circle cx="124.78" cy="144.95" r=".47"/><circle cx="128.29" cy="144.95" r=".47"/><circle cx="131.81" cy="144.95" r=".47"/><circle cx="135.32" cy="144.95" r=".47"/><circle cx="138.83" cy="144.95" r=".47"/><circle cx="142.34" cy="144.95" r=".47"/><circle cx="145.86" cy="144.95" r=".47"/><circle cx="149.37" cy="144.95" r=".47"/><circle cx="152.88" cy="144.95" r=".47"/><circle cx="156.39" cy="144.95" r=".47"/><circle cx="159.91" cy="144.95" r=".47"/><circle cx="163.42" cy="144.95" r=".47"/><circle cx="166.93" cy="144.95" r=".47"/><circle cx="170.44" cy="144.95" r=".47"/><circle cx="173.95" cy="144.95" r=".47"/><circle cx="177.47" cy="144.95" r=".47"/><circle cx="180.98" cy="144.95" r=".47"/><circle cx="184.49" cy="144.95" r=".47"/><circle cx="188" cy="144.95" r=".47"/><circle cx="109.03" cy="146.76" r=".47"/><circle cx="112.54" cy="146.76" r=".47"/><circle cx="116.05" cy="146.76" r=".47"/><circle cx="119.57" cy="146.76" r=".47"/><circle cx="123.08" cy="146.76" r=".47"/><circle cx="126.59" cy="146.76" r=".47"/><circle cx="130.1" cy="146.76" r=".47"/><circle cx="133.62" cy="146.76" r=".47"/><circle cx="137.13" cy="146.76" r=".47"/><circle cx="140.64" cy="146.76" r=".47"/><circle cx="144.15" cy="146.76" r=".47"/><circle cx="147.67" cy="146.76" r=".47"/><circle cx="151.18" cy="146.76" r=".47"/><circle cx="154.69" cy="146.76" r=".47"/><circle cx="158.2" cy="146.76" r=".47"/><circle cx="161.72" cy="146.76" r=".47"/><circle cx="165.23" cy="146.76" r=".47"/><circle cx="168.74" cy="146.76" r=".47"/><circle cx="172.25" cy="146.76" r=".47"/><circle cx="175.76" cy="146.76" r=".47"/><circle cx="179.28" cy="146.76" r=".47"/><circle cx="182.79" cy="146.76" r=".47"/><circle cx="186.3" cy="146.76" r=".47"/><circle cx="189.81" cy="146.76" r=".47"/><circle cx="110.84" cy="148.57" r=".47"/><circle cx="114.35" cy="148.57" r=".47"/><circle cx="117.86" cy="148.57" r=".47"/><circle cx="121.38" cy="148.57" r=".47"/><circle cx="124.89" cy="148.57" r=".47"/><circle cx="128.4" cy="148.57" r=".47"/><circle cx="131.91" cy="148.57" r=".47"/><circle cx="135.43" cy="148.57" r=".47"/><circle cx="138.94" cy="148.57" r=".47"/><circle cx="142.45" cy="148.57" r=".47"/><circle cx="145.96" cy="148.57" r=".47"/><circle cx="149.48" cy="148.57" r=".47"/><circle cx="152.99" cy="148.57" r=".47"/><circle cx="156.5" cy="148.57" r=".47"/><circle cx="160.01" cy="148.57" r=".47"/><circle cx="163.53" cy="148.57" r=".47"/><circle cx="167.04" cy="148.57" r=".47"/><circle cx="170.55" cy="148.57" r=".47"/><circle cx="174.06" cy="148.57" r=".47"/><circle cx="177.58" cy="148.57" r=".47"/><circle cx="181.09" cy="148.57" r=".47"/><circle cx="184.6" cy="148.57" r=".47"/><circle cx="188.11" cy="148.57" r=".47"/><circle cx="191.62" cy="148.57" r=".47"/><circle cx="112.65" cy="150.38" r=".47"/><circle cx="116.16" cy="150.38" r=".47"/><circle cx="119.67" cy="150.38" r=".47"/><circle cx="123.19" cy="150.38" r=".47"/><circle cx="126.7" cy="150.38" r=".47"/><circle cx="130.21" cy="150.38" r=".47"/><circle cx="133.72" cy="150.38" r=".47"/><circle cx="137.24" cy="150.38" r=".47"/><circle cx="140.75" cy="150.38" r=".47"/><circle cx="144.26" cy="150.38" r=".47"/><circle cx="147.77" cy="150.38" r=".47"/><circle cx="151.29" cy="150.38" r=".47"/><circle cx="154.8" cy="150.38" r=".47"/><circle cx="158.31" cy="150.38" r=".47"/><circle cx="161.82" cy="150.38" r=".47"/><circle cx="165.34" cy="150.38" r=".47"/><circle cx="168.85" cy="150.38" r=".47"/><circle cx="172.36" cy="150.38" r=".47"/><circle cx="175.87" cy="150.38" r=".47"/><circle cx="179.39" cy="150.38" r=".47"/><circle cx="182.9" cy="150.38" r=".47"/><circle cx="186.41" cy="150.38" r=".47"/><circle cx="189.92" cy="150.38" r=".47"/><circle cx="193.43" cy="150.38" r=".47"/><circle cx="114.46" cy="152.19" r=".47"/><circle cx="117.97" cy="152.19" r=".47"/><circle cx="121.48" cy="152.19" r=".47"/><circle cx="125" cy="152.19" r=".47"/><circle cx="128.51" cy="152.19" r=".47"/><circle cx="132.02" cy="152.19" r=".47"/><circle cx="135.53" cy="152.19" r=".47"/><circle cx="139.05" cy="152.19" r=".47"/><circle cx="142.56" cy="152.19" r=".47"/><circle cx="146.07" cy="152.19" r=".47"/><circle cx="149.58" cy="152.19" r=".47"/><circle cx="153.1" cy="152.19" r=".47"/><circle cx="156.61" cy="152.19" r=".47"/><circle cx="160.12" cy="152.19" r=".47"/><circle cx="163.63" cy="152.19" r=".47"/><circle cx="167.15" cy="152.19" r=".47"/><circle cx="170.66" cy="152.19" r=".47"/><circle cx="174.17" cy="152.19" r=".47"/><circle cx="177.68" cy="152.19" r=".47"/><circle cx="181.2" cy="152.19" r=".47"/><circle cx="184.71" cy="152.19" r=".47"/><circle cx="188.22" cy="152.19" r=".47"/><circle cx="191.73" cy="152.19" r=".47"/><circle cx="195.24" cy="152.19" r=".47"/><circle cx="116.27" cy="154" r=".47"/><circle cx="119.78" cy="154" r=".47"/><circle cx="123.29" cy="154" r=".47"/><circle cx="126.81" cy="154" r=".47"/><circle cx="130.32" cy="154" r=".47"/><circle cx="133.83" cy="154" r=".47"/><circle cx="137.34" cy="154" r=".47"/><circle cx="140.86" cy="154" r=".47"/><circle cx="144.37" cy="154" r=".47"/><circle cx="147.88" cy="154" r=".47"/><circle cx="151.39" cy="154" r=".47"/><circle cx="154.91" cy="154" r=".47"/><circle cx="158.42" cy="154" r=".47"/><circle cx="161.93" cy="154" r=".47"/><circle cx="165.44" cy="154" r=".47"/><circle cx="168.96" cy="154" r=".47"/><circle cx="172.47" cy="154" r=".47"/><circle cx="175.98" cy="154" r=".47"/><circle cx="179.49" cy="154" r=".47"/><circle cx="183.01" cy="154" r=".47"/><circle cx="186.52" cy="154" r=".47"/><circle cx="190.03" cy="154" r=".47"/><circle cx="193.54" cy="154" r=".47"/><circle cx="197.06" cy="154" r=".47"/><circle cx="118.08" cy="155.82" r=".47"/><circle cx="121.59" cy="155.82" r=".47"/><circle cx="125.1" cy="155.82" r=".47"/><circle cx="128.62" cy="155.82" r=".47"/><circle cx="132.13" cy="155.82" r=".47"/><circle cx="135.64" cy="155.82" r=".47"/><circle cx="139.15" cy="155.82" r=".47"/><circle cx="142.67" cy="155.82" r=".47"/><circle cx="146.18" cy="155.82" r=".47"/><circle cx="149.69" cy="155.82" r=".47"/><circle cx="153.2" cy="155.82" r=".47"/><circle cx="156.72" cy="155.82" r=".47"/><circle cx="160.23" cy="155.82" r=".47"/><circle cx="163.74" cy="155.82" r=".47"/><circle cx="167.25" cy="155.82" r=".47"/><circle cx="170.77" cy="155.82" r=".47"/><circle cx="174.28" cy="155.82" r=".47"/><circle cx="177.79" cy="155.82" r=".47"/><circle cx="181.3" cy="155.82" r=".47"/><circle cx="184.82" cy="155.82" r=".47"/><circle cx="188.33" cy="155.82" r=".47"/><circle cx="191.84" cy="155.82" r=".47"/><circle cx="195.35" cy="155.82" r=".47"/><circle cx="198.87" cy="155.82" r=".47"/><circle cx="119.89" cy="157.63" r=".47"/><circle cx="123.4" cy="157.63" r=".47"/><circle cx="126.91" cy="157.63" r=".47"/><circle cx="130.43" cy="157.63" r=".47"/><circle cx="133.94" cy="157.63" r=".47"/><circle cx="137.45" cy="157.63" r=".47"/><circle cx="140.96" cy="157.63" r=".47"/><circle cx="144.48" cy="157.63" r=".47"/><circle cx="147.99" cy="157.63" r=".47"/><circle cx="151.5" cy="157.63" r=".47"/><circle cx="155.01" cy="157.63" r=".47"/><circle cx="158.53" cy="157.63" r=".47"/><circle cx="162.04" cy="157.63" r=".47"/><circle cx="165.55" cy="157.63" r=".47"/><circle cx="169.06" cy="157.63" r=".47"/><circle cx="172.58" cy="157.63" r=".47"/><circle cx="176.09" cy="157.63" r=".47"/><circle cx="179.6" cy="157.63" r=".47"/><circle cx="183.11" cy="157.63" r=".47"/><circle cx="186.63" cy="157.63" r=".47"/><circle cx="190.14" cy="157.63" r=".47"/><circle cx="193.65" cy="157.63" r=".47"/><circle cx="197.16" cy="157.63" r=".47"/><circle cx="200.68" cy="157.63" r=".47"/><circle cx="121.7" cy="159.44" r=".47"/><circle cx="125.21" cy="159.44" r=".47"/><circle cx="128.72" cy="159.44" r=".47"/><circle cx="132.24" cy="159.44" r=".47"/><circle cx="135.75" cy="159.44" r=".47"/><circle cx="139.26" cy="159.44" r=".47"/><circle cx="142.77" cy="159.44" r=".47"/><circle cx="146.29" cy="159.44" r=".47"/><circle cx="149.8" cy="159.44" r=".47"/><circle cx="153.31" cy="159.44" r=".47"/><circle cx="156.82" cy="159.44" r=".47"/><circle cx="160.34" cy="159.44" r=".47"/><circle cx="163.85" cy="159.44" r=".47"/><circle cx="167.36" cy="159.44" r=".47"/><circle cx="170.87" cy="159.44" r=".47"/><circle cx="174.39" cy="159.44" r=".47"/><circle cx="177.9" cy="159.44" r=".47"/><circle cx="181.41" cy="159.44" r=".47"/><circle cx="184.92" cy="159.44" r=".47"/><circle cx="188.44" cy="159.44" r=".47"/><circle cx="191.95" cy="159.44" r=".47"/><circle cx="195.46" cy="159.44" r=".47"/><circle cx="198.97" cy="159.44" r=".47"/><circle cx="202.49" cy="159.44" r=".47"/><circle cx="123.51" cy="161.25" r=".47"/><circle cx="127.02" cy="161.25" r=".47"/><circle cx="130.54" cy="161.25" r=".47"/><circle cx="134.05" cy="161.25" r=".47"/><circle cx="137.56" cy="161.25" r=".47"/><circle cx="141.07" cy="161.25" r=".47"/><circle cx="144.58" cy="161.25" r=".47"/><circle cx="148.1" cy="161.25" r=".47"/><circle cx="151.61" cy="161.25" r=".47"/><circle cx="155.12" cy="161.25" r=".47"/><circle cx="158.63" cy="161.25" r=".47"/><circle cx="162.15" cy="161.25" r=".47"/><circle cx="165.66" cy="161.25" r=".47"/><circle cx="169.17" cy="161.25" r=".47"/><circle cx="172.68" cy="161.25" r=".47"/><circle cx="176.2" cy="161.25" r=".47"/><circle cx="179.71" cy="161.25" r=".47"/><circle cx="183.22" cy="161.25" r=".47"/><circle cx="186.73" cy="161.25" r=".47"/><circle cx="190.25" cy="161.25" r=".47"/><circle cx="193.76" cy="161.25" r=".47"/><circle cx="197.27" cy="161.25" r=".47"/><circle cx="200.78" cy="161.25" r=".47"/><circle cx="204.3" cy="161.25" r=".47"/><circle cx="125.32" cy="163.06" r=".47"/><circle cx="128.83" cy="163.06" r=".47"/><circle cx="132.35" cy="163.06" r=".47"/><circle cx="135.86" cy="163.06" r=".47"/><circle cx="139.37" cy="163.06" r=".47"/><circle cx="142.88" cy="163.06" r=".47"/><circle cx="146.39" cy="163.06" r=".47"/><circle cx="149.91" cy="163.06" r=".47"/><circle cx="153.42" cy="163.06" r=".47"/><circle cx="156.93" cy="163.06" r=".47"/><circle cx="160.44" cy="163.06" r=".47"/><circle cx="163.96" cy="163.06" r=".47"/><circle cx="167.47" cy="163.06" r=".47"/><circle cx="170.98" cy="163.06" r=".47"/><circle cx="174.49" cy="163.06" r=".47"/><circle cx="178.01" cy="163.06" r=".47"/><circle cx="181.52" cy="163.06" r=".47"/><circle cx="185.03" cy="163.06" r=".47"/><circle cx="188.54" cy="163.06" r=".47"/><circle cx="192.06" cy="163.06" r=".47"/><circle cx="195.57" cy="163.06" r=".47"/><circle cx="199.08" cy="163.06" r=".47"/><circle cx="202.59" cy="163.06" r=".47"/><circle cx="206.11" cy="163.06" r=".47"/><circle cx="127.13" cy="164.87" r=".47"/><circle cx="130.64" cy="164.87" r=".47"/><circle cx="134.16" cy="164.87" r=".47"/><circle cx="137.67" cy="164.87" r=".47"/><circle cx="141.18" cy="164.87" r=".47"/><circle cx="144.69" cy="164.87" r=".47"/><circle cx="148.2" cy="164.87" r=".47"/><circle cx="151.72" cy="164.87" r=".47"/><circle cx="155.23" cy="164.87" r=".47"/><circle cx="158.74" cy="164.87" r=".47"/><circle cx="162.25" cy="164.87" r=".47"/><circle cx="165.77" cy="164.87" r=".47"/><circle cx="169.28" cy="164.87" r=".47"/><circle cx="172.79" cy="164.87" r=".47"/><circle cx="176.3" cy="164.87" r=".47"/><circle cx="179.82" cy="164.87" r=".47"/><circle cx="183.33" cy="164.87" r=".47"/><circle cx="186.84" cy="164.87" r=".47"/><circle cx="190.35" cy="164.87" r=".47"/><circle cx="193.87" cy="164.87" r=".47"/><circle cx="197.38" cy="164.87" r=".47"/><circle cx="200.89" cy="164.87" r=".47"/><circle cx="204.4" cy="164.87" r=".47"/><circle cx="207.92" cy="164.87" r=".47"/><circle cx="128.94" cy="166.68" r=".47"/><circle cx="132.45" cy="166.68" r=".47"/><circle cx="135.97" cy="166.68" r=".47"/><circle cx="139.48" cy="166.68" r=".47"/><circle cx="142.99" cy="166.68" r=".47"/><circle cx="146.5" cy="166.68" r=".47"/><circle cx="150.02" cy="166.68" r=".47"/><circle cx="153.53" cy="166.68" r=".47"/><circle cx="157.04" cy="166.68" r=".47"/><circle cx="160.55" cy="166.68" r=".47"/><circle cx="164.06" cy="166.68" r=".47"/><circle cx="167.58" cy="166.68" r=".47"/><circle cx="171.09" cy="166.68" r=".47"/><circle cx="174.6" cy="166.68" r=".47"/><circle cx="178.11" cy="166.68" r=".47"/><circle cx="181.63" cy="166.68" r=".47"/><circle cx="185.14" cy="166.68" r=".47"/><circle cx="188.65" cy="166.68" r=".47"/><circle cx="192.16" cy="166.68" r=".47"/><circle cx="195.68" cy="166.68" r=".47"/><circle cx="199.19" cy="166.68" r=".47"/><circle cx="202.7" cy="166.68" r=".47"/><circle cx="206.21" cy="166.68" r=".47"/><circle cx="209.73" cy="166.68" r=".47"/><circle cx="130.75" cy="168.49" r=".47"/><circle cx="134.26" cy="168.49" r=".47"/><circle cx="137.78" cy="168.49" r=".47"/><circle cx="141.29" cy="168.49" r=".47"/><circle cx="144.8" cy="168.49" r=".47"/><circle cx="148.31" cy="168.49" r=".47"/><circle cx="151.83" cy="168.49" r=".47"/><circle cx="155.34" cy="168.49" r=".47"/><circle cx="158.85" cy="168.49" r=".47"/><circle cx="162.36" cy="168.49" r=".47"/><circle cx="165.87" cy="168.49" r=".47"/><circle cx="169.39" cy="168.49" r=".47"/><circle cx="172.9" cy="168.49" r=".47"/><circle cx="176.41" cy="168.49" r=".47"/><circle cx="179.92" cy="168.49" r=".47"/><circle cx="183.44" cy="168.49" r=".47"/><circle cx="186.95" cy="168.49" r=".47"/><circle cx="190.46" cy="168.49" r=".47"/><circle cx="193.97" cy="168.49" r=".47"/><circle cx="197.49" cy="168.49" r=".47"/><circle cx="201" cy="168.49" r=".47"/><circle cx="204.51" cy="168.49" r=".47"/><circle cx="208.02" cy="168.49" r=".47"/><circle cx="211.54" cy="168.49" r=".47"/><circle cx="132.56" cy="170.3" r=".47"/><circle cx="136.07" cy="170.3" r=".47"/><circle cx="139.59" cy="170.3" r=".47"/><circle cx="143.1" cy="170.3" r=".47"/><circle cx="146.61" cy="170.3" r=".47"/><circle cx="150.12" cy="170.3" r=".47"/><circle cx="153.64" cy="170.3" r=".47"/><circle cx="157.15" cy="170.3" r=".47"/><circle cx="160.66" cy="170.3" r=".47"/><circle cx="164.17" cy="170.3" r=".47"/><circle cx="167.68" cy="170.3" r=".47"/><circle cx="171.2" cy="170.3" r=".47"/><circle cx="174.71" cy="170.3" r=".47"/><circle cx="178.22" cy="170.3" r=".47"/><circle cx="181.73" cy="170.3" r=".47"/><circle cx="185.25" cy="170.3" r=".47"/><circle cx="188.76" cy="170.3" r=".47"/><circle cx="192.27" cy="170.3" r=".47"/><circle cx="195.78" cy="170.3" r=".47"/><circle cx="199.3" cy="170.3" r=".47"/><circle cx="202.81" cy="170.3" r=".47"/><circle cx="206.32" cy="170.3" r=".47"/><circle cx="209.83" cy="170.3" r=".47"/><circle cx="213.35" cy="170.3" r=".47"/><circle cx="134.37" cy="172.11" r=".47"/><circle cx="137.88" cy="172.11" r=".47"/><circle cx="141.4" cy="172.11" r=".47"/><circle cx="144.91" cy="172.11" r=".47"/><circle cx="148.42" cy="172.11" r=".47"/><circle cx="151.93" cy="172.11" r=".47"/><circle cx="155.45" cy="172.11" r=".47"/><circle cx="158.96" cy="172.11" r=".47"/><circle cx="162.47" cy="172.11" r=".47"/><circle cx="165.98" cy="172.11" r=".47"/><circle cx="169.49" cy="172.11" r=".47"/><circle cx="173.01" cy="172.11" r=".47"/><circle cx="176.52" cy="172.11" r=".47"/><circle cx="180.03" cy="172.11" r=".47"/><circle cx="183.54" cy="172.11" r=".47"/><circle cx="187.06" cy="172.11" r=".47"/><circle cx="190.57" cy="172.11" r=".47"/><circle cx="194.08" cy="172.11" r=".47"/><circle cx="197.59" cy="172.11" r=".47"/><circle cx="201.11" cy="172.11" r=".47"/><circle cx="204.62" cy="172.11" r=".47"/><circle cx="208.13" cy="172.11" r=".47"/><circle cx="211.64" cy="172.11" r=".47"/><circle cx="215.16" cy="172.11" r=".47"/><circle cx="136.18" cy="173.92" r=".47"/><circle cx="139.69" cy="173.92" r=".47"/><circle cx="143.21" cy="173.92" r=".47"/><circle cx="146.72" cy="173.92" r=".47"/><circle cx="150.23" cy="173.92" r=".47"/><circle cx="153.74" cy="173.92" r=".47"/><circle cx="157.26" cy="173.92" r=".47"/><circle cx="160.77" cy="173.92" r=".47"/><circle cx="164.28" cy="173.92" r=".47"/><circle cx="167.79" cy="173.92" r=".47"/><circle cx="171.31" cy="173.92" r=".47"/><circle cx="174.82" cy="173.92" r=".47"/><circle cx="178.33" cy="173.92" r=".47"/><circle cx="181.84" cy="173.92" r=".47"/><circle cx="185.35" cy="173.92" r=".47"/><circle cx="188.87" cy="173.92" r=".47"/><circle cx="192.38" cy="173.92" r=".47"/><circle cx="195.89" cy="173.92" r=".47"/><circle cx="199.4" cy="173.92" r=".47"/><circle cx="202.92" cy="173.92" r=".47"/><circle cx="206.43" cy="173.92" r=".47"/><circle cx="209.94" cy="173.92" r=".47"/><circle cx="213.45" cy="173.92" r=".47"/><circle cx="216.97" cy="173.92" r=".47"/><circle cx="137.99" cy="175.73" r=".47"/><circle cx="141.5" cy="175.73" r=".47"/><circle cx="145.02" cy="175.73" r=".47"/><circle cx="148.53" cy="175.73" r=".47"/><circle cx="152.04" cy="175.73" r=".47"/><circle cx="155.55" cy="175.73" r=".47"/><circle cx="159.07" cy="175.73" r=".47"/><circle cx="162.58" cy="175.73" r=".47"/><circle cx="166.09" cy="175.73" r=".47"/><circle cx="169.6" cy="175.73" r=".47"/><circle cx="173.12" cy="175.73" r=".47"/><circle cx="176.63" cy="175.73" r=".47"/><circle cx="180.14" cy="175.73" r=".47"/><circle cx="183.65" cy="175.73" r=".47"/><circle cx="187.16" cy="175.73" r=".47"/><circle cx="190.68" cy="175.73" r=".47"/><circle cx="194.19" cy="175.73" r=".47"/><circle cx="197.7" cy="175.73" r=".47"/><circle cx="201.21" cy="175.73" r=".47"/><circle cx="204.73" cy="175.73" r=".47"/><circle cx="208.24" cy="175.73" r=".47"/><circle cx="211.75" cy="175.73" r=".47"/><circle cx="215.26" cy="175.73" r=".47"/><circle cx="218.78" cy="175.73" r=".47"/><circle cx="139.8" cy="177.54" r=".47"/><circle cx="143.31" cy="177.54" r=".47"/><circle cx="146.83" cy="177.54" r=".47"/><circle cx="150.34" cy="177.54" r=".47"/><circle cx="153.85" cy="177.54" r=".47"/><circle cx="157.36" cy="177.54" r=".47"/><circle cx="160.88" cy="177.54" r=".47"/><circle cx="164.39" cy="177.54" r=".47"/><circle cx="167.9" cy="177.54" r=".47"/><circle cx="171.41" cy="177.54" r=".47"/><circle cx="174.93" cy="177.54" r=".47"/><circle cx="178.44" cy="177.54" r=".47"/><circle cx="181.95" cy="177.54" r=".47"/><circle cx="185.46" cy="177.54" r=".47"/><circle cx="188.97" cy="177.54" r=".47"/><circle cx="192.49" cy="177.54" r=".47"/><circle cx="196" cy="177.54" r=".47"/><circle cx="199.51" cy="177.54" r=".47"/><circle cx="203.02" cy="177.54" r=".47"/><circle cx="206.54" cy="177.54" r=".47"/><circle cx="210.05" cy="177.54" r=".47"/><circle cx="213.56" cy="177.54" r=".47"/><circle cx="217.07" cy="177.54" r=".47"/><circle cx="220.59" cy="177.54" r=".47"/><circle cx="173.52" cy="130.47" r=".47"/><circle cx="177.04" cy="130.47" r=".47"/><circle cx="180.55" cy="130.47" r=".47"/><circle cx="184.06" cy="130.47" r=".47"/><circle cx="187.57" cy="130.47" r=".47"/><circle cx="191.09" cy="130.47" r=".47"/><circle cx="194.6" cy="130.47" r=".47"/><circle cx="198.11" cy="130.47" r=".47"/><circle cx="201.62" cy="130.47" r=".47"/><circle cx="205.14" cy="130.47" r=".47"/><circle cx="208.65" cy="130.47" r=".47"/><circle cx="212.16" cy="130.47" r=".47"/><circle cx="215.67" cy="130.47" r=".47"/><circle cx="219.18" cy="130.47" r=".47"/><circle cx="222.7" cy="130.47" r=".47"/><circle cx="226.21" cy="130.47" r=".47"/><circle cx="229.72" cy="130.47" r=".47"/><circle cx="233.23" cy="130.47" r=".47"/><circle cx="236.75" cy="130.47" r=".47"/><circle cx="240.26" cy="130.47" r=".47"/><circle cx="243.77" cy="130.47" r=".47"/><circle cx="247.28" cy="130.47" r=".47"/><circle cx="250.8" cy="130.47" r=".47"/><circle cx="254.31" cy="130.47" r=".47"/><circle cx="175.33" cy="132.28" r=".47"/><circle cx="178.85" cy="132.28" r=".47"/><circle cx="182.36" cy="132.28" r=".47"/><circle cx="185.87" cy="132.28" r=".47"/><circle cx="189.38" cy="132.28" r=".47"/><circle cx="192.9" cy="132.28" r=".47"/><circle cx="196.41" cy="132.28" r=".47"/><circle cx="199.92" cy="132.28" r=".47"/><circle cx="203.43" cy="132.28" r=".47"/><circle cx="206.95" cy="132.28" r=".47"/><circle cx="210.46" cy="132.28" r=".47"/><circle cx="213.97" cy="132.28" r=".47"/><circle cx="217.48" cy="132.28" r=".47"/><circle cx="220.99" cy="132.28" r=".47"/><circle cx="224.51" cy="132.28" r=".47"/><circle cx="228.02" cy="132.28" r=".47"/><circle cx="231.53" cy="132.28" r=".47"/><circle cx="235.04" cy="132.28" r=".47"/><circle cx="238.56" cy="132.28" r=".47"/><circle cx="242.07" cy="132.28" r=".47"/><circle cx="245.58" cy="132.28" r=".47"/><circle cx="249.09" cy="132.28" r=".47"/><circle cx="252.61" cy="132.28" r=".47"/><circle cx="256.12" cy="132.28" r=".47"/><circle cx="177.14" cy="134.09" r=".47"/><circle cx="180.66" cy="134.09" r=".47"/><circle cx="184.17" cy="134.09" r=".47"/><circle cx="187.68" cy="134.09" r=".47"/><circle cx="191.19" cy="134.09" r=".47"/><circle cx="194.71" cy="134.09" r=".47"/><circle cx="198.22" cy="134.09" r=".47"/><circle cx="201.73" cy="134.09" r=".47"/><circle cx="205.24" cy="134.09" r=".47"/><circle cx="208.76" cy="134.09" r=".47"/><circle cx="212.27" cy="134.09" r=".47"/><circle cx="215.78" cy="134.09" r=".47"/><circle cx="219.29" cy="134.09" r=".47"/><circle cx="222.8" cy="134.09" r=".47"/><circle cx="226.32" cy="134.09" r=".47"/><circle cx="229.83" cy="134.09" r=".47"/><circle cx="233.34" cy="134.09" r=".47"/><circle cx="236.85" cy="134.09" r=".47"/><circle cx="240.37" cy="134.09" r=".47"/><circle cx="243.88" cy="134.09" r=".47"/><circle cx="247.39" cy="134.09" r=".47"/><circle cx="250.9" cy="134.09" r=".47"/><circle cx="254.42" cy="134.09" r=".47"/><circle cx="257.93" cy="134.09" r=".47"/><circle cx="178.95" cy="135.9" r=".47"/><circle cx="182.47" cy="135.9" r=".47"/><circle cx="185.98" cy="135.9" r=".47"/><circle cx="189.49" cy="135.9" r=".47"/><circle cx="193" cy="135.9" r=".47"/><circle cx="196.52" cy="135.9" r=".47"/><circle cx="200.03" cy="135.9" r=".47"/><circle cx="203.54" cy="135.9" r=".47"/><circle cx="207.05" cy="135.9" r=".47"/><circle cx="210.57" cy="135.9" r=".47"/><circle cx="214.08" cy="135.9" r=".47"/><circle cx="217.59" cy="135.9" r=".47"/><circle cx="221.1" cy="135.9" r=".47"/><circle cx="224.62" cy="135.9" r=".47"/><circle cx="228.13" cy="135.9" r=".47"/><circle cx="231.64" cy="135.9" r=".47"/><circle cx="235.15" cy="135.9" r=".47"/><circle cx="238.66" cy="135.9" r=".47"/><circle cx="242.18" cy="135.9" r=".47"/><circle cx="245.69" cy="135.9" r=".47"/><circle cx="249.2" cy="135.9" r=".47"/><circle cx="252.71" cy="135.9" r=".47"/><circle cx="256.23" cy="135.9" r=".47"/><circle cx="259.74" cy="135.9" r=".47"/><circle cx="180.76" cy="137.71" r=".47"/><circle cx="184.28" cy="137.71" r=".47"/><circle cx="187.79" cy="137.71" r=".47"/><circle cx="191.3" cy="137.71" r=".47"/><circle cx="194.81" cy="137.71" r=".47"/><circle cx="198.33" cy="137.71" r=".47"/><circle cx="201.84" cy="137.71" r=".47"/><circle cx="205.35" cy="137.71" r=".47"/><circle cx="208.86" cy="137.71" r=".47"/><circle cx="212.38" cy="137.71" r=".47"/><circle cx="215.89" cy="137.71" r=".47"/><circle cx="219.4" cy="137.71" r=".47"/><circle cx="222.91" cy="137.71" r=".47"/><circle cx="226.43" cy="137.71" r=".47"/><circle cx="229.94" cy="137.71" r=".47"/><circle cx="233.45" cy="137.71" r=".47"/><circle cx="236.96" cy="137.71" r=".47"/><circle cx="240.47" cy="137.71" r=".47"/><circle cx="243.99" cy="137.71" r=".47"/><circle cx="247.5" cy="137.71" r=".47"/><circle cx="251.01" cy="137.71" r=".47"/><circle cx="254.52" cy="137.71" r=".47"/><circle cx="258.04" cy="137.71" r=".47"/><circle cx="261.55" cy="137.71" r=".47"/><circle cx="182.57" cy="139.52" r=".47"/><circle cx="186.09" cy="139.52" r=".47"/><circle cx="189.6" cy="139.52" r=".47"/><circle cx="193.11" cy="139.52" r=".47"/><circle cx="196.62" cy="139.52" r=".47"/><circle cx="200.14" cy="139.52" r=".47"/><circle cx="203.65" cy="139.52" r=".47"/><circle cx="207.16" cy="139.52" r=".47"/><circle cx="210.67" cy="139.52" r=".47"/><circle cx="214.19" cy="139.52" r=".47"/><circle cx="217.7" cy="139.52" r=".47"/><circle cx="221.21" cy="139.52" r=".47"/><circle cx="224.72" cy="139.52" r=".47"/><circle cx="228.24" cy="139.52" r=".47"/><circle cx="231.75" cy="139.52" r=".47"/><circle cx="235.26" cy="139.52" r=".47"/><circle cx="238.77" cy="139.52" r=".47"/><circle cx="242.28" cy="139.52" r=".47"/><circle cx="245.8" cy="139.52" r=".47"/><circle cx="249.31" cy="139.52" r=".47"/><circle cx="252.82" cy="139.52" r=".47"/><circle cx="256.33" cy="139.52" r=".47"/><circle cx="259.85" cy="139.52" r=".47"/><circle cx="263.36" cy="139.52" r=".47"/><circle cx="184.38" cy="141.33" r=".47"/><circle cx="187.9" cy="141.33" r=".47"/><circle cx="191.41" cy="141.33" r=".47"/><circle cx="194.92" cy="141.33" r=".47"/><circle cx="198.43" cy="141.33" r=".47"/><circle cx="201.95" cy="141.33" r=".47"/><circle cx="205.46" cy="141.33" r=".47"/><circle cx="208.97" cy="141.33" r=".47"/><circle cx="212.48" cy="141.33" r=".47"/><circle cx="216" cy="141.33" r=".47"/><circle cx="219.51" cy="141.33" r=".47"/><circle cx="223.02" cy="141.33" r=".47"/><circle cx="226.53" cy="141.33" r=".47"/><circle cx="230.05" cy="141.33" r=".47"/><circle cx="233.56" cy="141.33" r=".47"/><circle cx="237.07" cy="141.33" r=".47"/><circle cx="240.58" cy="141.33" r=".47"/><circle cx="244.1" cy="141.33" r=".47"/><circle cx="247.61" cy="141.33" r=".47"/><circle cx="251.12" cy="141.33" r=".47"/><circle cx="254.63" cy="141.33" r=".47"/><circle cx="258.14" cy="141.33" r=".47"/><circle cx="261.66" cy="141.33" r=".47"/><circle cx="265.17" cy="141.33" r=".47"/><circle cx="186.19" cy="143.14" r=".47"/><circle cx="189.71" cy="143.14" r=".47"/><circle cx="193.22" cy="143.14" r=".47"/><circle cx="196.73" cy="143.14" r=".47"/><circle cx="200.24" cy="143.14" r=".47"/><circle cx="203.76" cy="143.14" r=".47"/><circle cx="207.27" cy="143.14" r=".47"/><circle cx="210.78" cy="143.14" r=".47"/><circle cx="214.29" cy="143.14" r=".47"/><circle cx="217.81" cy="143.14" r=".47"/><circle cx="221.32" cy="143.14" r=".47"/><circle cx="224.83" cy="143.14" r=".47"/><circle cx="228.34" cy="143.14" r=".47"/><circle cx="231.86" cy="143.14" r=".47"/><circle cx="235.37" cy="143.14" r=".47"/><circle cx="238.88" cy="143.14" r=".47"/><circle cx="242.39" cy="143.14" r=".47"/><circle cx="245.91" cy="143.14" r=".47"/><circle cx="249.42" cy="143.14" r=".47"/><circle cx="252.93" cy="143.14" r=".47"/><circle cx="256.44" cy="143.14" r=".47"/><circle cx="259.95" cy="143.14" r=".47"/><circle cx="263.47" cy="143.14" r=".47"/><circle cx="266.98" cy="143.14" r=".47"/><circle cx="188" cy="144.95" r=".47"/><circle cx="191.52" cy="144.95" r=".47"/><circle cx="195.03" cy="144.95" r=".47"/><circle cx="198.54" cy="144.95" r=".47"/><circle cx="202.05" cy="144.95" r=".47"/><circle cx="205.57" cy="144.95" r=".47"/><circle cx="209.08" cy="144.95" r=".47"/><circle cx="212.59" cy="144.95" r=".47"/><circle cx="216.1" cy="144.95" r=".47"/><circle cx="219.62" cy="144.95" r=".47"/><circle cx="223.13" cy="144.95" r=".47"/><circle cx="226.64" cy="144.95" r=".47"/><circle cx="230.15" cy="144.95" r=".47"/><circle cx="233.67" cy="144.95" r=".47"/><circle cx="237.18" cy="144.95" r=".47"/><circle cx="240.69" cy="144.95" r=".47"/><circle cx="244.2" cy="144.95" r=".47"/><circle cx="247.72" cy="144.95" r=".47"/><circle cx="251.23" cy="144.95" r=".47"/><circle cx="254.74" cy="144.95" r=".47"/><circle cx="258.25" cy="144.95" r=".47"/><circle cx="261.76" cy="144.95" r=".47"/><circle cx="265.28" cy="144.95" r=".47"/><circle cx="268.79" cy="144.95" r=".47"/><circle cx="189.81" cy="146.76" r=".47"/><circle cx="193.33" cy="146.76" r=".47"/><circle cx="196.84" cy="146.76" r=".47"/><circle cx="200.35" cy="146.76" r=".47"/><circle cx="203.86" cy="146.76" r=".47"/><circle cx="207.38" cy="146.76" r=".47"/><circle cx="210.89" cy="146.76" r=".47"/><circle cx="214.4" cy="146.76" r=".47"/><circle cx="217.91" cy="146.76" r=".47"/><circle cx="221.43" cy="146.76" r=".47"/><circle cx="224.94" cy="146.76" r=".47"/><circle cx="228.45" cy="146.76" r=".47"/><circle cx="231.96" cy="146.76" r=".47"/><circle cx="235.48" cy="146.76" r=".47"/><circle cx="238.99" cy="146.76" r=".47"/><circle cx="242.5" cy="146.76" r=".47"/><circle cx="246.01" cy="146.76" r=".47"/><circle cx="249.53" cy="146.76" r=".47"/><circle cx="253.04" cy="146.76" r=".47"/><circle cx="256.55" cy="146.76" r=".47"/><circle cx="260.06" cy="146.76" r=".47"/><circle cx="263.57" cy="146.76" r=".47"/><circle cx="267.09" cy="146.76" r=".47"/><circle cx="270.6" cy="146.76" r=".47"/><circle cx="191.62" cy="148.57" r=".47"/><circle cx="195.14" cy="148.57" r=".47"/><circle cx="198.65" cy="148.57" r=".47"/><circle cx="202.16" cy="148.57" r=".47"/><circle cx="205.67" cy="148.57" r=".47"/><circle cx="209.19" cy="148.57" r=".47"/><circle cx="212.7" cy="148.57" r=".47"/><circle cx="216.21" cy="148.57" r=".47"/><circle cx="219.72" cy="148.57" r=".47"/><circle cx="223.24" cy="148.57" r=".47"/><circle cx="226.75" cy="148.57" r=".47"/><circle cx="230.26" cy="148.57" r=".47"/><circle cx="233.77" cy="148.57" r=".47"/><circle cx="237.29" cy="148.57" r=".47"/><circle cx="240.8" cy="148.57" r=".47"/><circle cx="244.31" cy="148.57" r=".47"/><circle cx="247.82" cy="148.57" r=".47"/><circle cx="251.34" cy="148.57" r=".47"/><circle cx="254.85" cy="148.57" r=".47"/><circle cx="258.36" cy="148.57" r=".47"/><circle cx="261.87" cy="148.57" r=".47"/><circle cx="265.39" cy="148.57" r=".47"/><circle cx="268.9" cy="148.57" r=".47"/><circle cx="272.41" cy="148.57" r=".47"/><circle cx="193.43" cy="150.38" r=".47"/><circle cx="196.95" cy="150.38" r=".47"/><circle cx="200.46" cy="150.38" r=".47"/><circle cx="203.97" cy="150.38" r=".47"/><circle cx="207.48" cy="150.38" r=".47"/><circle cx="211" cy="150.38" r=".47"/><circle cx="214.51" cy="150.38" r=".47"/><circle cx="218.02" cy="150.38" r=".47"/><circle cx="221.53" cy="150.38" r=".47"/><circle cx="225.05" cy="150.38" r=".47"/><circle cx="228.56" cy="150.38" r=".47"/><circle cx="232.07" cy="150.38" r=".47"/><circle cx="235.58" cy="150.38" r=".47"/><circle cx="239.1" cy="150.38" r=".47"/><circle cx="242.61" cy="150.38" r=".47"/><circle cx="246.12" cy="150.38" r=".47"/><circle cx="249.63" cy="150.38" r=".47"/><circle cx="253.15" cy="150.38" r=".47"/><circle cx="256.66" cy="150.38" r=".47"/><circle cx="260.17" cy="150.38" r=".47"/><circle cx="263.68" cy="150.38" r=".47"/><circle cx="267.2" cy="150.38" r=".47"/><circle cx="270.71" cy="150.38" r=".47"/><circle cx="274.22" cy="150.38" r=".47"/><circle cx="195.24" cy="152.19" r=".47"/><circle cx="198.76" cy="152.19" r=".47"/><circle cx="202.27" cy="152.19" r=".47"/><circle cx="205.78" cy="152.19" r=".47"/><circle cx="209.29" cy="152.19" r=".47"/><circle cx="212.81" cy="152.19" r=".47"/><circle cx="216.32" cy="152.19" r=".47"/><circle cx="219.83" cy="152.19" r=".47"/><circle cx="223.34" cy="152.19" r=".47"/><circle cx="226.86" cy="152.19" r=".47"/><circle cx="230.37" cy="152.19" r=".47"/><circle cx="233.88" cy="152.19" r=".47"/><circle cx="237.39" cy="152.19" r=".47"/><circle cx="240.91" cy="152.19" r=".47"/><circle cx="244.42" cy="152.19" r=".47"/><circle cx="247.93" cy="152.19" r=".47"/><circle cx="251.44" cy="152.19" r=".47"/><circle cx="254.96" cy="152.19" r=".47"/><circle cx="258.47" cy="152.19" r=".47"/><circle cx="261.98" cy="152.19" r=".47"/><circle cx="265.49" cy="152.19" r=".47"/><circle cx="269.01" cy="152.19" r=".47"/><circle cx="272.52" cy="152.19" r=".47"/><circle cx="276.03" cy="152.19" r=".47"/><circle cx="197.06" cy="154" r=".47"/><circle cx="200.57" cy="154" r=".47"/><circle cx="204.08" cy="154" r=".47"/><circle cx="207.59" cy="154" r=".47"/><circle cx="211.1" cy="154" r=".47"/><circle cx="214.62" cy="154" r=".47"/><circle cx="218.13" cy="154" r=".47"/><circle cx="221.64" cy="154" r=".47"/><circle cx="225.15" cy="154" r=".47"/><circle cx="228.67" cy="154" r=".47"/><circle cx="232.18" cy="154" r=".47"/><circle cx="235.69" cy="154" r=".47"/><circle cx="239.2" cy="154" r=".47"/><circle cx="242.72" cy="154" r=".47"/><circle cx="246.23" cy="154" r=".47"/><circle cx="249.74" cy="154" r=".47"/><circle cx="253.25" cy="154" r=".47"/><circle cx="256.77" cy="154" r=".47"/><circle cx="260.28" cy="154" r=".47"/><circle cx="263.79" cy="154" r=".47"/><circle cx="267.3" cy="154" r=".47"/><circle cx="270.82" cy="154" r=".47"/><circle cx="274.33" cy="154" r=".47"/><circle cx="277.84" cy="154" r=".47"/><circle cx="198.87" cy="155.82" r=".47"/><circle cx="202.38" cy="155.82" r=".47"/><circle cx="205.89" cy="155.82" r=".47"/><circle cx="209.4" cy="155.82" r=".47"/><circle cx="212.91" cy="155.82" r=".47"/><circle cx="216.43" cy="155.82" r=".47"/><circle cx="219.94" cy="155.82" r=".47"/><circle cx="223.45" cy="155.82" r=".47"/><circle cx="226.96" cy="155.82" r=".47"/><circle cx="230.48" cy="155.82" r=".47"/><circle cx="233.99" cy="155.82" r=".47"/><circle cx="237.5" cy="155.82" r=".47"/><circle cx="241.01" cy="155.82" r=".47"/><circle cx="244.53" cy="155.82" r=".47"/><circle cx="248.04" cy="155.82" r=".47"/><circle cx="251.55" cy="155.82" r=".47"/><circle cx="255.06" cy="155.82" r=".47"/><circle cx="258.58" cy="155.82" r=".47"/><circle cx="262.09" cy="155.82" r=".47"/><circle cx="265.6" cy="155.82" r=".47"/><circle cx="269.11" cy="155.82" r=".47"/><circle cx="272.63" cy="155.82" r=".47"/><circle cx="276.14" cy="155.82" r=".47"/><circle cx="279.65" cy="155.82" r=".47"/><circle cx="200.68" cy="157.63" r=".47"/><circle cx="204.19" cy="157.63" r=".47"/><circle cx="207.7" cy="157.63" r=".47"/><circle cx="211.21" cy="157.63" r=".47"/><circle cx="214.72" cy="157.63" r=".47"/><circle cx="218.24" cy="157.63" r=".47"/><circle cx="221.75" cy="157.63" r=".47"/><circle cx="225.26" cy="157.63" r=".47"/><circle cx="228.77" cy="157.63" r=".47"/><circle cx="232.29" cy="157.63" r=".47"/><circle cx="235.8" cy="157.63" r=".47"/><circle cx="239.31" cy="157.63" r=".47"/><circle cx="242.82" cy="157.63" r=".47"/><circle cx="246.34" cy="157.63" r=".47"/><circle cx="249.85" cy="157.63" r=".47"/><circle cx="253.36" cy="157.63" r=".47"/><circle cx="256.87" cy="157.63" r=".47"/><circle cx="260.39" cy="157.63" r=".47"/><circle cx="263.9" cy="157.63" r=".47"/><circle cx="267.41" cy="157.63" r=".47"/><circle cx="270.92" cy="157.63" r=".47"/><circle cx="274.44" cy="157.63" r=".47"/><circle cx="277.95" cy="157.63" r=".47"/><circle cx="281.46" cy="157.63" r=".47"/><circle cx="202.49" cy="159.44" r=".47"/><circle cx="206" cy="159.44" r=".47"/><circle cx="209.51" cy="159.44" r=".47"/><circle cx="213.02" cy="159.44" r=".47"/><circle cx="216.53" cy="159.44" r=".47"/><circle cx="220.05" cy="159.44" r=".47"/><circle cx="223.56" cy="159.44" r=".47"/><circle cx="227.07" cy="159.44" r=".47"/><circle cx="230.58" cy="159.44" r=".47"/><circle cx="234.1" cy="159.44" r=".47"/><circle cx="237.61" cy="159.44" r=".47"/><circle cx="241.12" cy="159.44" r=".47"/><circle cx="244.63" cy="159.44" r=".47"/><circle cx="248.15" cy="159.44" r=".47"/><circle cx="251.66" cy="159.44" r=".47"/><circle cx="255.17" cy="159.44" r=".47"/><circle cx="258.68" cy="159.44" r=".47"/><circle cx="262.2" cy="159.44" r=".47"/><circle cx="265.71" cy="159.44" r=".47"/><circle cx="269.22" cy="159.44" r=".47"/><circle cx="272.73" cy="159.44" r=".47"/><circle cx="276.25" cy="159.44" r=".47"/><circle cx="279.76" cy="159.44" r=".47"/><circle cx="283.27" cy="159.44" r=".47"/><circle cx="204.3" cy="161.25" r=".47"/><circle cx="207.81" cy="161.25" r=".47"/><circle cx="211.32" cy="161.25" r=".47"/><circle cx="214.83" cy="161.25" r=".47"/><circle cx="218.35" cy="161.25" r=".47"/><circle cx="221.86" cy="161.25" r=".47"/><circle cx="225.37" cy="161.25" r=".47"/><circle cx="228.88" cy="161.25" r=".47"/><circle cx="232.39" cy="161.25" r=".47"/><circle cx="235.91" cy="161.25" r=".47"/><circle cx="239.42" cy="161.25" r=".47"/><circle cx="242.93" cy="161.25" r=".47"/><circle cx="246.44" cy="161.25" r=".47"/><circle cx="249.96" cy="161.25" r=".47"/><circle cx="253.47" cy="161.25" r=".47"/><circle cx="256.98" cy="161.25" r=".47"/><circle cx="260.49" cy="161.25" r=".47"/><circle cx="264.01" cy="161.25" r=".47"/><circle cx="267.52" cy="161.25" r=".47"/><circle cx="271.03" cy="161.25" r=".47"/><circle cx="274.54" cy="161.25" r=".47"/><circle cx="278.06" cy="161.25" r=".47"/><circle cx="281.57" cy="161.25" r=".47"/><circle cx="285.08" cy="161.25" r=".47"/><circle cx="206.11" cy="163.06" r=".47"/><circle cx="209.62" cy="163.06" r=".47"/><circle cx="213.13" cy="163.06" r=".47"/><circle cx="216.64" cy="163.06" r=".47"/><circle cx="220.16" cy="163.06" r=".47"/><circle cx="223.67" cy="163.06" r=".47"/><circle cx="227.18" cy="163.06" r=".47"/><circle cx="230.69" cy="163.06" r=".47"/><circle cx="234.2" cy="163.06" r=".47"/><circle cx="237.72" cy="163.06" r=".47"/><circle cx="241.23" cy="163.06" r=".47"/><circle cx="244.74" cy="163.06" r=".47"/><circle cx="248.25" cy="163.06" r=".47"/><circle cx="251.77" cy="163.06" r=".47"/><circle cx="255.28" cy="163.06" r=".47"/><circle cx="258.79" cy="163.06" r=".47"/><circle cx="262.3" cy="163.06" r=".47"/><circle cx="265.82" cy="163.06" r=".47"/><circle cx="269.33" cy="163.06" r=".47"/><circle cx="272.84" cy="163.06" r=".47"/><circle cx="276.35" cy="163.06" r=".47"/><circle cx="279.87" cy="163.06" r=".47"/><circle cx="283.38" cy="163.06" r=".47"/><circle cx="286.89" cy="163.06" r=".47"/><circle cx="207.92" cy="164.87" r=".47"/><circle cx="211.43" cy="164.87" r=".47"/><circle cx="214.94" cy="164.87" r=".47"/><circle cx="218.45" cy="164.87" r=".47"/><circle cx="221.97" cy="164.87" r=".47"/><circle cx="225.48" cy="164.87" r=".47"/><circle cx="228.99" cy="164.87" r=".47"/><circle cx="232.5" cy="164.87" r=".47"/><circle cx="236.01" cy="164.87" r=".47"/><circle cx="239.53" cy="164.87" r=".47"/><circle cx="243.04" cy="164.87" r=".47"/><circle cx="246.55" cy="164.87" r=".47"/><circle cx="250.06" cy="164.87" r=".47"/><circle cx="253.58" cy="164.87" r=".47"/><circle cx="257.09" cy="164.87" r=".47"/><circle cx="260.6" cy="164.87" r=".47"/><circle cx="264.11" cy="164.87" r=".47"/><circle cx="267.63" cy="164.87" r=".47"/><circle cx="271.14" cy="164.87" r=".47"/><circle cx="274.65" cy="164.87" r=".47"/><circle cx="278.16" cy="164.87" r=".47"/><circle cx="281.68" cy="164.87" r=".47"/><circle cx="285.19" cy="164.87" r=".47"/><circle cx="288.7" cy="164.87" r=".47"/><circle cx="209.73" cy="166.68" r=".47"/><circle cx="213.24" cy="166.68" r=".47"/><circle cx="216.75" cy="166.68" r=".47"/><circle cx="220.26" cy="166.68" r=".47"/><circle cx="223.78" cy="166.68" r=".47"/><circle cx="227.29" cy="166.68" r=".47"/><circle cx="230.8" cy="166.68" r=".47"/><circle cx="234.31" cy="166.68" r=".47"/><circle cx="237.82" cy="166.68" r=".47"/><circle cx="241.34" cy="166.68" r=".47"/><circle cx="244.85" cy="166.68" r=".47"/><circle cx="248.36" cy="166.68" r=".47"/><circle cx="251.87" cy="166.68" r=".47"/><circle cx="255.39" cy="166.68" r=".47"/><circle cx="258.9" cy="166.68" r=".47"/><circle cx="262.41" cy="166.68" r=".47"/><circle cx="265.92" cy="166.68" r=".47"/><circle cx="269.44" cy="166.68" r=".47"/><circle cx="272.95" cy="166.68" r=".47"/><circle cx="276.46" cy="166.68" r=".47"/><circle cx="279.97" cy="166.68" r=".47"/><circle cx="283.49" cy="166.68" r=".47"/><circle cx="287" cy="166.68" r=".47"/><circle cx="290.51" cy="166.68" r=".47"/><circle cx="211.54" cy="168.49" r=".47"/><circle cx="215.05" cy="168.49" r=".47"/><circle cx="218.56" cy="168.49" r=".47"/><circle cx="222.07" cy="168.49" r=".47"/><circle cx="225.59" cy="168.49" r=".47"/><circle cx="229.1" cy="168.49" r=".47"/><circle cx="232.61" cy="168.49" r=".47"/><circle cx="236.12" cy="168.49" r=".47"/><circle cx="239.64" cy="168.49" r=".47"/><circle cx="243.15" cy="168.49" r=".47"/><circle cx="246.66" cy="168.49" r=".47"/><circle cx="250.17" cy="168.49" r=".47"/><circle cx="253.68" cy="168.49" r=".47"/><circle cx="257.2" cy="168.49" r=".47"/><circle cx="260.71" cy="168.49" r=".47"/><circle cx="264.22" cy="168.49" r=".47"/><circle cx="267.73" cy="168.49" r=".47"/><circle cx="271.25" cy="168.49" r=".47"/><circle cx="274.76" cy="168.49" r=".47"/><circle cx="278.27" cy="168.49" r=".47"/><circle cx="281.78" cy="168.49" r=".47"/><circle cx="285.3" cy="168.49" r=".47"/><circle cx="288.81" cy="168.49" r=".47"/><circle cx="292.32" cy="168.49" r=".47"/><circle cx="213.35" cy="170.3" r=".47"/><circle cx="216.86" cy="170.3" r=".47"/><circle cx="220.37" cy="170.3" r=".47"/><circle cx="223.88" cy="170.3" r=".47"/><circle cx="227.4" cy="170.3" r=".47"/><circle cx="230.91" cy="170.3" r=".47"/><circle cx="234.42" cy="170.3" r=".47"/><circle cx="237.93" cy="170.3" r=".47"/><circle cx="241.45" cy="170.3" r=".47"/><circle cx="244.96" cy="170.3" r=".47"/><circle cx="248.47" cy="170.3" r=".47"/><circle cx="251.98" cy="170.3" r=".47"/><circle cx="255.49" cy="170.3" r=".47"/><circle cx="259.01" cy="170.3" r=".47"/><circle cx="262.52" cy="170.3" r=".47"/><circle cx="266.03" cy="170.3" r=".47"/><circle cx="269.54" cy="170.3" r=".47"/><circle cx="273.06" cy="170.3" r=".47"/><circle cx="276.57" cy="170.3" r=".47"/><circle cx="280.08" cy="170.3" r=".47"/><circle cx="283.59" cy="170.3" r=".47"/><circle cx="287.11" cy="170.3" r=".47"/><circle cx="290.62" cy="170.3" r=".47"/><circle cx="294.13" cy="170.3" r=".47"/><circle cx="215.16" cy="172.11" r=".47"/><circle cx="218.67" cy="172.11" r=".47"/><circle cx="222.18" cy="172.11" r=".47"/><circle cx="225.69" cy="172.11" r=".47"/><circle cx="229.21" cy="172.11" r=".47"/><circle cx="232.72" cy="172.11" r=".47"/><circle cx="236.23" cy="172.11" r=".47"/><circle cx="239.74" cy="172.11" r=".47"/><circle cx="243.26" cy="172.11" r=".47"/><circle cx="246.77" cy="172.11" r=".47"/><circle cx="250.28" cy="172.11" r=".47"/><circle cx="253.79" cy="172.11" r=".47"/><circle cx="257.3" cy="172.11" r=".47"/><circle cx="260.82" cy="172.11" r=".47"/><circle cx="264.33" cy="172.11" r=".47"/><circle cx="267.84" cy="172.11" r=".47"/><circle cx="271.35" cy="172.11" r=".47"/><circle cx="274.87" cy="172.11" r=".47"/><circle cx="278.38" cy="172.11" r=".47"/><circle cx="281.89" cy="172.11" r=".47"/><circle cx="285.4" cy="172.11" r=".47"/><circle cx="288.92" cy="172.11" r=".47"/><circle cx="292.43" cy="172.11" r=".47"/><circle cx="295.94" cy="172.11" r=".47"/><circle cx="216.97" cy="173.92" r=".47"/><circle cx="220.48" cy="173.92" r=".47"/><circle cx="223.99" cy="173.92" r=".47"/><circle cx="227.5" cy="173.92" r=".47"/><circle cx="231.02" cy="173.92" r=".47"/><circle cx="234.53" cy="173.92" r=".47"/><circle cx="238.04" cy="173.92" r=".47"/><circle cx="241.55" cy="173.92" r=".47"/><circle cx="245.07" cy="173.92" r=".47"/><circle cx="248.58" cy="173.92" r=".47"/><circle cx="252.09" cy="173.92" r=".47"/><circle cx="255.6" cy="173.92" r=".47"/><circle cx="259.11" cy="173.92" r=".47"/><circle cx="262.63" cy="173.92" r=".47"/><circle cx="266.14" cy="173.92" r=".47"/><circle cx="269.65" cy="173.92" r=".47"/><circle cx="273.16" cy="173.92" r=".47"/><circle cx="276.68" cy="173.92" r=".47"/><circle cx="280.19" cy="173.92" r=".47"/><circle cx="283.7" cy="173.92" r=".47"/><circle cx="287.21" cy="173.92" r=".47"/><circle cx="290.73" cy="173.92" r=".47"/><circle cx="294.24" cy="173.92" r=".47"/><circle cx="297.75" cy="173.92" r=".47"/><circle cx="218.78" cy="175.73" r=".47"/><circle cx="222.29" cy="175.73" r=".47"/><circle cx="225.8" cy="175.73" r=".47"/><circle cx="229.31" cy="175.73" r=".47"/><circle cx="232.83" cy="175.73" r=".47"/><circle cx="236.34" cy="175.73" r=".47"/><circle cx="239.85" cy="175.73" r=".47"/><circle cx="243.36" cy="175.73" r=".47"/><circle cx="246.88" cy="175.73" r=".47"/><circle cx="250.39" cy="175.73" r=".47"/><circle cx="253.9" cy="175.73" r=".47"/><circle cx="257.41" cy="175.73" r=".47"/><circle cx="260.93" cy="175.73" r=".47"/><circle cx="264.44" cy="175.73" r=".47"/><circle cx="267.95" cy="175.73" r=".47"/><circle cx="271.46" cy="175.73" r=".47"/><circle cx="274.97" cy="175.73" r=".47"/><circle cx="278.49" cy="175.73" r=".47"/><circle cx="282" cy="175.73" r=".47"/><circle cx="285.51" cy="175.73" r=".47"/><circle cx="289.02" cy="175.73" r=".47"/><circle cx="292.54" cy="175.73" r=".47"/><circle cx="296.05" cy="175.73" r=".47"/><circle cx="299.56" cy="175.73" r=".47"/><circle cx="220.59" cy="177.54" r=".47"/><circle cx="224.1" cy="177.54" r=".47"/><circle cx="227.61" cy="177.54" r=".47"/><circle cx="231.12" cy="177.54" r=".47"/><circle cx="234.64" cy="177.54" r=".47"/><circle cx="238.15" cy="177.54" r=".47"/><circle cx="241.66" cy="177.54" r=".47"/><circle cx="245.17" cy="177.54" r=".47"/><circle cx="248.69" cy="177.54" r=".47"/><circle cx="252.2" cy="177.54" r=".47"/><circle cx="255.71" cy="177.54" r=".47"/><circle cx="259.22" cy="177.54" r=".47"/><circle cx="262.74" cy="177.54" r=".47"/><circle cx="266.25" cy="177.54" r=".47"/><circle cx="269.76" cy="177.54" r=".47"/><circle cx="273.27" cy="177.54" r=".47"/><circle cx="276.78" cy="177.54" r=".47"/><circle cx="280.3" cy="177.54" r=".47"/><circle cx="283.81" cy="177.54" r=".47"/><circle cx="287.32" cy="177.54" r=".47"/><circle cx="290.83" cy="177.54" r=".47"/><circle cx="294.35" cy="177.54" r=".47"/><circle cx="297.86" cy="177.54" r=".47"/><circle cx="301.37" cy="177.54" r=".47"/></g><path d="m178.77 39.03h-132.79c-1.44 0-2.61 1.17-2.61 2.61v10.37c0-1.44 1.17-2.61 2.61-2.61h132.79c1.44 0 2.61 1.17 2.61 2.61v-10.36c0-1.45-1.17-2.62-2.61-2.62z" fill="#baccd3" opacity=".4"/><g stroke-miterlimit="10"><path d="m89.5 84.81h45.75v45.75h-45.75z" fill="#ecf3f6" stroke="#97b1b2" stroke-width=".8446"/><path d="m135.25 39.34v136.02" fill="none" stroke="#97b1b2" stroke-width="1.769"/><path d="m89.4 39.34v136.02" fill="none" stroke="#97b1b2" stroke-width="1.769"/><path d="m44.03 84.76h137.42" fill="none" stroke="#97b1b2" stroke-width="1.769"/><path d="m44.03 130.61h136.69" fill="none" stroke="#97b1b2" stroke-width="1.769"/><path d="m210.65 28.37h49.36v49.36h-49.36z" fill="#ecf3f6" stroke="#97b1b2" stroke-width="1.769"/><path d="m201.89 20.52h49.36v49.36h-49.36z" fill="#fff" stroke="#97b1b2" stroke-width="1.769"/></g><path d="m200.38 19h3.03v3.03h-3.03z" fill="#baccd3"/><g stroke-miterlimit="10"><g stroke="#97b1b2"><path d="m249.73 19h3.03v3.03h-3.03z" fill="#fff" stroke-width="1.769"/><path d="m200.38 68.23h3.03v3.03h-3.03z" fill="#fff" stroke-width="1.769"/><path d="m249.73 68.23h3.03v3.03h-3.03z" fill="#fff" stroke-width="1.769"/><path d="m334.1 102.24v138.19h-199.38v-138.19c0-2.48 2.01-4.48 4.48-4.48h190.41c2.49 0 4.49 2.01 4.49 4.48z" fill="#fff" stroke-width="2.3587"/><path d="m329.62 97.76h-190.41c-2.48 0-4.48 2.01-4.48 4.48v10.29h199.37v-10.29c0-2.47-2-4.48-4.48-4.48z" fill="#ecf3f6" stroke-width="2.3587"/><circle cx="142.75" cy="105.33" fill="#ecf3f6" r="2.52" stroke-width="1.077"/><circle cx="151.4" cy="105.33" fill="#ecf3f6" r="2.52" stroke-width="1.077"/><path d="m217.83 218.36 93.98-.18c.88 0 1.59-.72 1.59-1.6l-.19-85.31c0-.88-.72-1.59-1.6-1.59l-93.98.18c-.88 0-1.59.72-1.59 1.6l.19 85.31c0 .88.72 1.59 1.6 1.59z" fill="#ecf3f6" stroke-width="1.769"/></g><path d="m222.68 213.4 86.26-80.01" fill="none" stroke="#fff" stroke-linecap="round" stroke-width="1.769"/><path d="m309.12 213.23-86.62-79.67" fill="none" stroke="#fff" stroke-linecap="round" stroke-width="1.769"/><path d="m151.28 218.09h50.58c.68 0 1.23-.55 1.23-1.23v-86.33c0-.68-.55-1.23-1.23-1.23h-50.58c-.68 0-1.23.55-1.23 1.23v86.33c-.01.68.54 1.23 1.23 1.23z" fill="none" stroke="#ff8288" stroke-dasharray="4.7175" stroke-linecap="round" stroke-width="1.769"/><path d="m169.11 169.84-5.45 5.45 5.45 5.46" fill="none" stroke="#97b1b2" stroke-width="1.077"/><path d="m183.47 180.75 5.45-5.46-5.45-5.45" fill="none" stroke="#97b1b2" stroke-width="1.077"/><path d="m180.04 167.7-7.65 15.44" fill="none" stroke="#97b1b2" stroke-width="1.077"/></g><path d="m333.45 137.03-39.15-13.64c-.04-.01-.08-.02-.11-.03-4.77-1.17-9.59 1.73-10.79 6.49l-14.05 55.7c-1.34 5.3 1.88 10.69 7.18 12.03l55.96 14.12c.61.15 1.21-.31 1.21-.94v-73.73" fill="#baccd3" opacity=".4"/><path d="m224.41 52.48 9.19 1.27-1.27-9.19-39.9-39.9-7.92 7.92z" fill="#ecf3f6" stroke="#97b1b2" stroke-miterlimit="10" stroke-width="1.769"/><path d="m232.02 44.67 1.2 8.69-8.69-1.2 4.12-3.37z" fill="#ecf3f6" stroke="#97b1b2" stroke-miterlimit="10" stroke-width="1.077"/><path d="m224.41 52.48 9.19 1.27-1.27-9.19-39.9-39.9-7.92 7.92z" fill="#ecf3f6" stroke="#97b1b2" stroke-miterlimit="10" stroke-width="1.769"/><path d="m181.45 9.52 4.79 4.79c.75.75 3.14-.41 5.33-2.6s3.35-4.57 2.6-5.33l-4.79-4.79z" fill="#fff" stroke="#97b1b2" stroke-miterlimit="10" stroke-width="1.769"/><ellipse cx="184.93" cy="5.08" fill="#ecf3f6" rx="5.6" ry="1.93" stroke="#97b1b2" stroke-miterlimit="10" stroke-width="1.769" transform="matrix(.7071 -.7071 .7071 .7071 50.5756 132.2513)"/><path d="m223.81 51.88c.75.75 3.14-.41 5.33-2.6s3.35-4.57 2.6-5.33" fill="none" stroke="#97b1b2" stroke-miterlimit="10" stroke-width="1.769"/><path d="m84.87 257.7c.24.24.5.43.79.58-.28.15-.55.34-.79.58-1 1-1.19 2.49-.59 3.69l4.14-4.14 2.35 1.75c4.45 3.3 10.54 3.3 14.99 0l2.53-1.88-2.53-1.88c-4.45-3.3-10.54-3.3-14.99 0l-2.35 1.75-4.14-4.14c-.6 1.19-.41 2.69.59 3.69z" fill="#baccd3" opacity=".3"/><path d="m57.5 241.97c.24.24.5.43.79.58-.28.15-.55.34-.79.58-1 1-1.19 2.49-.59 3.69l4.14-4.14 2.35 1.75c4.45 3.3 10.54 3.3 14.99 0l2.53-1.88-2.53-1.88c-4.45-3.3-10.54-3.3-14.99 0l-2.35 1.75-4.14-4.14c-.6 1.2-.41 2.7.59 3.69z" fill="#baccd3" opacity=".3"/><path d="m210.8 287.93c.24.24.5.43.79.58-.28.15-.55.34-.79.58-1 1-1.19 2.49-.59 3.69l4.14-4.14 2.35 1.75c4.45 3.3 10.54 3.3 14.99 0l2.53-1.88-2.53-1.88c-4.45-3.3-10.54-3.3-14.99 0l-2.35 1.75-4.14-4.14c-.61 1.2-.41 2.7.59 3.69z" fill="#baccd3" opacity=".3"/><path d="m119.13 234.99c19.77 0 19.77 3.97 39.54 3.97s19.77-3.97 39.54-3.97 19.77 3.97 39.55 3.97c19.77 0 19.77-3.97 39.55-3.97s19.78 3.97 39.55 3.97c19.78 0 19.78-3.97 39.55-3.97v44.58h-236.81z" fill="#fff"/><path d="m119.73 234.62c19.77 0 19.77 3.97 39.54 3.97s19.77-3.97 39.54-3.97 19.77 3.97 39.55 3.97c19.77 0 19.77-3.97 39.55-3.97s19.78 3.97 39.55 3.97c19.78 0 19.78-3.97 39.55-3.97" fill="none" stroke="#97b1b2" stroke-linecap="round" stroke-miterlimit="10" stroke-width="1.769"/><path d="m336.58 254.48s51.88-43.95 14.41-95.11l9.37-25.94s10.09 10.81 15.13 18.01c0 0 41.79 48.28 11.53 112.41z" fill="#ecf3f6"/><path d="m355.32 150s41.07 41.07 5.04 109.53l-23.78-5.04s43.95-46.12 14.41-95.11z" fill="#fff"/><path d="m389.19 259.53c30.26-79.26-28.82-126.1-28.82-126.1" fill="none" stroke="#97b1b2" stroke-miterlimit="10" stroke-width="2.3587"/><path d="m351.72 158.85c1.44 2.12 2.57 4.28 3.62 6.53 1.05 2.24 1.93 4.55 2.71 6.89 1.55 4.69 2.58 9.54 3.11 14.45.54 4.91.61 9.86.24 14.78s-1.24 9.79-2.43 14.57c-2.35 9.58-6.42 18.65-11.29 27.16-.58 1.08-1.24 2.12-1.9 3.15l-1.96 3.11c-1.36 2.04-2.79 4.03-4.18 6.05l-4.49 5.81-4.73 5.61-1.35-1.16c6.22-7.42 11.91-15.29 16.65-23.69 4.77-8.38 8.63-17.28 11.02-26.6 1.19-4.65 2.07-9.39 2.45-14.18.39-4.78.35-9.6-.15-14.37-.48-4.77-1.49-9.48-2.92-14.06-.72-2.29-1.54-4.54-2.51-6.73-.96-2.18-2.07-4.35-3.34-6.28z" fill="#97b1b2"/><path d="m286.23 190.81 51.84 13.08c2.65.67 5.35-.94 6.02-3.59l27.59-109.37c.67-2.65-.94-5.35-3.59-6.02l-51.84-13.08c-2.65-.67-5.35.94-6.02 3.59l-27.59 109.38c-.67 2.65.94 5.34 3.59 6.01z" fill="#ecf3f6" stroke="#97b1b2" stroke-miterlimit="10" stroke-width="2.0639"/><path d="m281.66 189.66 51.84 13.08c2.65.67 5.35-.94 6.02-3.59l27.59-109.37c.67-2.65-.94-5.35-3.59-6.02l-51.84-13.08c-2.65-.67-5.35.94-6.02 3.59l-27.59 109.37c-.67 2.66.94 5.35 3.59 6.02z" fill="#ecf3f6" stroke="#97b1b2" stroke-miterlimit="10" stroke-width="2.0639"/><path d="m304.32 79.59 61.45 15.5" fill="#ecf3f6" stroke="#97b1b2" stroke-miterlimit="10" stroke-width="2.0639"/><path d="m349.87 109.63-20.21 19.98" fill="none" stroke="#fff" stroke-linecap="round" stroke-miterlimit="10" stroke-width="1.769"/><path d="m326.04 133.2-5.26 5.19" fill="none" stroke="#fff" stroke-linecap="round" stroke-miterlimit="10" stroke-width="1.769"/><path d="m349.8 122.33-29.58 29.25" fill="none" stroke="#fff" stroke-linecap="round" stroke-miterlimit="10" stroke-width="1.769"/><path d="m293.35 121.18 2.88 7.93 4.32 8.65 5.76 7.93-.72 1.44-2.16.72-10.09-5.76-4.32-2.88s-9.37-7.93-9.37-16.57 5.04-15.85 18.01-15.13z" fill="#ecf3f6"/><path d="m296.59 109.29s-10.81.72-10.09 12.97c.5 8.42 9.41 14.61 16.59 19.56l-5.06-6.59-4.1-14.15z" fill="#fff"/><path d="m292.63 113.97c.83 4.23 1.83 8.31 3.23 12.29 1.45 3.95 3.27 7.76 5.54 11.3 1.13 1.77 2.36 3.48 3.69 5.1.33.41.68.8 1.02 1.21.19.23.29.32.58.72.24.34.41.77.47 1.21.24 1.8-1.38 3.43-3.2 3.17-.43-.04-.87-.26-1.06-.34l-.74-.34c-.5-.22-.98-.46-1.48-.7-.98-.48-1.95-.97-2.9-1.5-1.9-1.06-3.75-2.23-5.54-3.5-3.58-2.52-6.79-5.59-9.47-9.11-.64-.9-1.28-1.8-1.85-2.77l-.45-.75c-.14-.28-.25-.53-.36-.79-.22-.52-.42-1.05-.6-1.58-.71-2.12-1.16-4.36-1.14-6.65.01-2.28.55-4.62 1.74-6.64 1.17-2.02 2.93-3.62 4.87-4.77 1.94-1.16 4.05-1.91 6.18-2.46 1.06-.28 2.14-.48 3.22-.65 1.08-.15 2.15-.38 3.26-.22l.11 1.12c-1.02.39-2.08.4-3.11.62-1.03.19-2.06.41-3.06.7-2 .56-3.95 1.32-5.66 2.41-1.71 1.08-3.18 2.5-4.11 4.22-.95 1.71-1.36 3.69-1.35 5.68.01 2 .44 4.02 1.12 5.93.17.48.36.95.56 1.41.1.23.21.46.31.66l.39.62c.52.87 1.14 1.71 1.74 2.55 2.53 3.28 5.64 6.12 9.04 8.56 1.7 1.22 3.47 2.35 5.3 3.38.92.52 1.84 1.02 2.78 1.5.47.23.94.48 1.41.7.44.21 1.08.53 1.16.51.19.04.37-.03.55-.18.16-.16.25-.38.23-.56-.01-.09-.03-.18-.1-.27-.02-.05-.28-.35-.43-.53-.35-.42-.71-.83-1.04-1.26-1.37-1.7-2.63-3.48-3.79-5.33-2.31-3.69-4.21-7.66-5.48-11.83-1.3-4.13-2.17-8.5-1.58-12.84z" fill="#97b1b2"/><path d="m298.65 102.07-4.97 19.7" fill="none" stroke="#97b1b2" stroke-miterlimit="10" stroke-width="1.769"/><path d="m272.38 298.5-.46-44.58c19.77 0 19.77 3.97 39.54 3.97s19.77-3.97 39.54-3.97 19.77 3.97 39.55 3.97c19.77 0 19.77-3.97 39.55-3.97" fill="#fff"/><path d="m312.06 257.52c19.77 0 19.77-3.97 39.54-3.97s19.77 3.97 39.55 3.97c19.77 0 19.77-3.97 39.55-3.97" fill="none" stroke="#97b1b2" stroke-linecap="round" stroke-miterlimit="10" stroke-width="1.769"/><path d="m135.13 39.34h46.32v45.54h-46.32z" fill="#baccd3" opacity=".4"/><path d="m43.37 39.34h46.32v45.54h-46.32z" fill="#baccd3" opacity=".4"/><path d="m89.21 85.12h46.32v45.54h-46.32z" fill="#baccd3" opacity=".4"/><path d="m43.37 129.61h46.32v45.54h-46.32z" fill="#baccd3" opacity=".4"/><path d="m43.31 138.47 73.54-12.62c1.76-.31 2.93-1.98 2.62-3.74l-8.45-48.23c-.31-1.76-1.98-2.93-3.74-2.62l-66.48 10.02c-1.76.31-2.93 1.98-2.62 3.74z" fill="#baccd3" opacity=".4"/><path d="m39.35 132.78 67.66-11.85c3.28-.57 5.47-3.7 4.89-6.97l-8.24-47c-.57-3.28-3.7-5.47-6.97-4.89l-67.65 11.84c-3.28.57-5.47 3.7-4.89 6.97l8.24 47c.56 3.28 3.68 5.47 6.96 4.9z" fill="#fff" stroke="#97b1b2" stroke-miterlimit="10" stroke-width="1.769"/><path d="m47.94 86.3 11.11-1.95c.6-.11 1-.68.9-1.28l-.17-.97c-.11-.6-.68-1-1.28-.9l-11.11 1.95c-.6.11-1 .68-.9 1.28l.17.97c.11.6.68 1 1.28.9z" fill="#baccd3" opacity=".4"/><path d="m53.68 119 11.11-1.95c.6-.11 1-.68.9-1.28l-.17-.97c-.11-.6-.68-1-1.28-.9l-11.11 1.95c-.6.11-1 .68-.9 1.28l.17.97c.1.61.67 1.01 1.28.9z" fill="#baccd3" opacity=".4"/><path d="m56.63 91.32 22.64-3.97c.6-.11 1-.68.9-1.28l-.17-.97c-.11-.6-.68-1-1.28-.9l-22.64 3.97c-.6.11-1 .68-.9 1.28l.17.97c.1.61.67 1.01 1.28.9z" fill="#baccd3" opacity=".4"/><path d="m60.15 111.45 22.64-3.97c.6-.11 1-.68.9-1.28l-.17-.97c-.11-.6-.68-1-1.28-.9l-22.64 3.97c-.6.11-1 .68-.9 1.28l.17.97c.11.6.68 1 1.28.9z" fill="#baccd3" opacity=".4"/><path d="m64.81 103.66 22.64-3.97c.6-.11 1-.68.9-1.28l-.17-.97c-.11-.6-.68-1-1.28-.9l-22.64 3.97c-.6.11-1 .68-.9 1.28l.17.97c.11.6.68 1.01 1.28.9z" fill="#baccd3" opacity=".4"/><path d="m63.65 97.05 22.64-3.97c.6-.11 1-.68.9-1.28l-.17-.97c-.11-.6-.68-1-1.28-.9l-22.64 3.97c-.6.11-1 .68-.9 1.28l.17.97c.11.6.68 1 1.28.9z" fill="#baccd3" opacity=".4"/></svg>