<svg enable-background="new 0 0 412.47 290.45" viewBox="0 0 412.47 290.45" xmlns="http://www.w3.org/2000/svg"><circle cx="154.22" cy="70.48" fill="#f1f6f8" r="70.48"/><path d="m64.04 73.35c1.76-11.78 11.92-20.81 24.19-20.81 9.03 0 16.91 4.89 21.15 12.17 1.87-.95 3.99-1.5 6.23-1.5 6.35 0 11.69 4.3 13.29 10.14z" fill="#fff"/><path d="m279.23 84.8v131.29h-220.15v-131.29" fill="#ecf3f6" stroke="#97b1b2" stroke-miterlimit="10" stroke-width="2.0639"/><path d="m68.32 74.51h201.68c5.01 0 9.08 4.07 9.08 9.08v4.42h-219.84v-4.42c0-5.02 4.07-9.08 9.08-9.08z" fill="#ecf3f6" stroke="#97b1b2" stroke-miterlimit="10" stroke-width="2.0639"/><path d="m83.28 190.23h69.17c4.32 0 7.82-3.5 7.82-7.82v-38.93c0-4.32-3.5-7.82-7.82-7.82h-69.17c-4.32 0-7.82 3.5-7.82 7.82v38.93c0 4.32 3.5 7.82 7.82 7.82z" fill="#baccd3" opacity=".4"/><circle cx="70.46" cy="81.68" fill="#baccd3" opacity=".3" r="2.13"/><circle cx="76.94" cy="81.68" fill="#baccd3" opacity=".3" r="2.13"/><circle cx="83.42" cy="81.68" fill="#baccd3" opacity=".3" r="2.13"/><path d="m47.13 208.49c19.77 0 19.77 3.97 39.54 3.97s19.77-3.97 39.54-3.97 19.77 3.97 39.55 3.97c19.77 0 19.77-3.97 39.55-3.97s19.78 3.97 39.55 3.97 19.78-3.97 39.55-3.97v44.58h-236.81z" fill="#fff"/><path d="m47.73 208.12c19.77 0 19.77 3.97 39.54 3.97s19.77-3.97 39.54-3.97 19.77 3.97 39.55 3.97c19.77 0 19.77-3.97 39.55-3.97s19.78 3.97 39.55 3.97 19.78-3.97 39.55-3.97" fill="none" stroke="#97b1b2" stroke-linecap="round" stroke-miterlimit="10" stroke-width="2.3587"/><path d="m231.17 42.86c-1.76-11.78-11.92-20.81-24.19-20.81-9.03 0-16.91 4.89-21.15 12.17-1.87-.95-3.99-1.5-6.23-1.5-6.35 0-11.69 4.3-13.29 10.14z" fill="#fff"/><path d="m371.24 120.15v140.28h-183.6v-145.07" fill="#fff" stroke="#97b1b2" stroke-miterlimit="10" stroke-width="2.0639"/><path d="m196.72 110.5h165.44c5.01 0 9.08 4.07 9.08 9.08v4.42h-183.6v-4.42c0-5.02 4.07-9.08 9.08-9.08z" fill="#ecf3f6" stroke="#97b1b2" stroke-miterlimit="10" stroke-width="2.0639"/><path d="m342.3 134.04h-124.1c-4.71 0-8.53 3.82-8.53 8.53v73.41c0 4.71 3.82 8.53 8.53 8.53h124.1c4.71 0 8.53-3.82 8.53-8.53v-73.41c0-4.71-3.82-8.53-8.53-8.53z" fill="#ecf3f6"/><path d="m342.3 134.04h-124.1c-4.71 0-8.53 3.82-8.53 8.53v73.41c0 4.71 3.82 8.53 8.53 8.53h124.1c4.71 0 8.53-3.82 8.53-8.53v-73.41c0-4.71-3.82-8.53-8.53-8.53z" fill="none" stroke="#97b1b2" stroke-miterlimit="10" stroke-width="2.0639"/><path d="m157.48 59.5h-111.39v114.42" fill="none" stroke="#ff8288" stroke-linecap="round" stroke-miterlimit="10" stroke-width="1.769"/><path d="m43.43 56.84h5.32v5.32h-5.32z" fill="#fe8288" transform="matrix(0 -1 1 0 -13.415 105.5867)"/><path d="m161.24 59.5-4.3-2.48v4.96z" fill="#ff8288"/><path d="m46.09 177.12 2.48-4.29h-4.96z" fill="#ff8288"/><path d="m346.26 142.4h-6.96c-1.92 0-3.47 1.57-3.45 3.5.12 8-.6 27.74-9.97 38.06-1.43 1.58-1.02 4.07.79 5.21 6.22 3.9 17.43 13.33 18.97 31.24.17 2-1.43 3.7-3.44 3.7h-4.11c-.73 0-1.44-.23-2.03-.66l-25-18.26c-1.66-1.21-4-.71-5.02 1.07l-9.22 16.12c-.61 1.07-1.74 1.73-2.98 1.73l-73.96.34c-5.63.03-10.21-4.53-10.21-10.17v-72.05c0-4.31 3.48-7.8 7.79-7.81l124.28-.39c.37 0 .73.06 1.08.17l4.51 1.47c1.09.36 1.93 1.23 2.25 2.33.62 2.21-1.03 4.4-3.32 4.4z" fill="#baccd3" opacity=".4"/><path d="m271.48 101.4s-35.55.99-46.8 36.48c0 0-8.71 26.23 7.66 44.32l-5.23 1.2-5.24-11.47-3.7-10.93v-10.85s.13-13.26 11.11-29.47 42.2-19.28 42.2-19.28z" fill="#fff"/><path d="m190.28 111.5-22.42-6.87" fill="#ecf3f6" stroke="#97b1b2" stroke-miterlimit="10" stroke-width="1.3852"/><path d="m105.47 254.69c.26.26.55.47.86.63-.31.16-.6.37-.86.63-1.09 1.09-1.3 2.73-.64 4.03l4.52-4.52 2.57 1.91c4.86 3.61 11.52 3.61 16.38 0l2.76-2.05-2.76-2.05c-4.86-3.61-11.52-3.61-16.38 0l-2.57 1.91-4.52-4.52c-.67 1.3-.46 2.94.64 4.03z" fill="#baccd3" opacity=".3"/><path d="m77.06 236.16c.26.26.55.47.86.63-.31.16-.6.37-.86.63-1.09 1.09-1.3 2.73-.64 4.03l4.52-4.52 2.57 1.91c4.86 3.61 11.52 3.61 16.38 0l2.76-2.05-2.76-2.05c-4.86-3.61-11.52-3.61-16.38 0l-2.57 1.91-4.52-4.52c-.66 1.3-.45 2.94.64 4.03z" fill="#baccd3" opacity=".3"/><path d="m299.06 190.87s17.62-1.16 30.35 18.7c0 0 9.85 16.24-2.62 24.37s-27.73-6.68-27.73-6.68l13.51 10.23 10.52 1.27 10.02-4.55 4-6.68-.56-10.48-4.94-11.33-9.24-9.62-11.38-5.69-7.95-1.31c-.01-.02-2.99-.02-3.98 1.77z" fill="#fff"/><path d="m346.02 51.19h-32.23c-8.07 0-14.62 6.55-14.62 14.62 0 8.07 6.55 14.62 14.62 14.62h1.41v10.65c0 .28.33.42.53.23l11.61-10.88h18.67c8.07 0 14.62-6.55 14.62-14.62.01-8.07-6.54-14.62-14.61-14.62z" fill="#ecf3f6" stroke="#97b1b2" stroke-miterlimit="10" stroke-width="1.9165"/><path d="m341.72 29.96h32.23c8.07 0 14.62 6.55 14.62 14.62 0 8.07-6.55 14.62-14.62 14.62h-1.41v10.65c0 .28-.33.42-.53.23l-11.61-10.88h-18.67c-8.07 0-14.62-6.55-14.62-14.62-.01-8.08 6.54-14.62 14.61-14.62z" fill="#fff" stroke="#97b1b2" stroke-miterlimit="10" stroke-width="1.9165"/><g fill="#baccd3" opacity=".4"><path d="m356.2 37.26h-4.1c-.49 0-.89-.4-.89-.89v-.14c0-.49.4-.89.89-.89h4.1c.49 0 .89.4.89.89v.14c0 .49-.4.89-.89.89z"/><path d="m356.2 51.99h-4.1c-.49 0-.89-.4-.89-.89v-.14c0-.49.4-.89.89-.89h4.1c.49 0 .89.4.89.89v.14c0 .49-.4.89-.89.89z"/><path d="m364.5 40.95h-9.83c-.49 0-.89-.4-.89-.89v-.14c0-.49.4-.89.89-.89h9.83c.49 0 .89.4.89.89v.14c.01.49-.39.89-.89.89z"/><path d="m364.5 48.31h-9.83c-.49 0-.89-.4-.89-.89v-.14c0-.49.4-.89.89-.89h9.83c.49 0 .89.4.89.89v.14c.01.49-.39.89-.89.89z"/><path d="m369.92 44.63h-9.83c-.49 0-.89-.4-.89-.89v-.14c0-.49.4-.89.89-.89h9.83c.49 0 .89.4.89.89v.14c0 .49-.4.89-.89.89z"/></g><path d="m244.18 19.67-8.43-8.43c2.17-.05 4.36.76 6.01 2.41 1.67 1.67 2.47 3.85 2.42 6.02z" fill="#ff8288"/><path d="m244.19 19.67 8.43-8.43c-2.17-.05-4.36.76-6.01 2.41-1.67 1.67-2.47 3.85-2.42 6.02z" fill="#ff8288"/><path d="m260.16 37.26-8.43-8.43c2.17-.05 4.36.76 6.01 2.41 1.66 1.67 2.47 3.85 2.42 6.02z" fill="#ff8288"/><path d="m260.16 37.26 8.43-8.43c-2.17-.05-4.36.76-6.01 2.41-1.66 1.67-2.46 3.85-2.42 6.02z" fill="#ff8288"/><path d="m157.82 136.25h-73.66c-4.8 0-8.7 3.89-8.7 8.7v.31c0-1.35 1.09-2.44 2.44-2.44h27.7l-3.03 10.14c-.3 1.01.27 2.07 1.28 2.37l56.41 17.27v-27.34-6.57c0-1.35-1.09-2.44-2.44-2.44z" fill="#baccd3" opacity=".4"/><path d="m83.28 190.23h69.17c4.32 0 7.82-3.5 7.82-7.82v-38.93c0-4.32-3.5-7.82-7.82-7.82h-69.17c-4.32 0-7.82 3.5-7.82 7.82v38.93c.01 4.32 3.51 7.82 7.82 7.82z" fill="none" stroke="#97b1b2" stroke-miterlimit="10" stroke-width="1.769"/><path d="m314.14 116.34s-3.15-2.72-8.39-5.87c-9.01-5.4-24.22-12.03-40.36-8.29 0 0-40.14 2-47.21 47.97 0 0-3.21 15.79 6.7 28.26 0 0 11.31 11.92 1.6 23.09 0 0-5.44 15.35 4.69 23l64.67-.39s13.65 16.81 26.18 14.84c0 0 13.62-2.77 14.96-14.84 0 0 3.69-25.32-28.72-34.26 0 0 12.77-15.42 16-26.42 3.21-10.99 8.65-34.66-10.12-47.09z" fill="#ecf3f6"/><path d="m282.63 103.3s-36.54-5.4-53.57 26.27 1.96 48.51 3.39 59.51l-2.41 5.59.51-5.59-5.66-12.17-5.56-10.98-1.14-18.17 5.79-18.18 7.2-9.94 13.95-12.31 16.32-6.24 12.96.01z" fill="#fff"/><path d="m181.69 171.21s2.52 31.14 43.6 34.49l1.19-4.2 3.55-6.83.65-4.82-4.44-10.55-4.95-.82s-20.77-2.66-25.85-27.9c-5.1-25.23-16.79 10.44-13.75 20.63z" fill="#ecf3f6"/><path d="m195.74 163.44s10.16 20.28 31.21 18.5l-1.6-2.98s-21.4-2.78-26.95-20.61z" fill="#fff"/><g fill="#97b1b2"><path d="m193.5 136.23c.32 1.19.5 2.38.68 3.58s.42 2.38.63 3.57c.46 2.37 1.05 4.71 1.67 7.03.3 1.16.7 2.3 1.05 3.45.41 1.13.8 2.26 1.26 3.36.89 2.22 1.92 4.38 3.12 6.43 2.43 4.07 5.6 7.73 9.56 10.28 1.98 1.26 4.13 2.28 6.39 2.91 2.25.68 4.65.86 6.94.96l.17 1.21c-1.31.31-2.56.28-3.83.16-1.26-.12-2.51-.34-3.73-.66-2.45-.62-4.8-1.65-6.96-2.96-4.37-2.62-7.77-6.55-10.38-10.8-1.29-2.15-2.39-4.4-3.33-6.71-.46-1.16-.85-2.34-1.26-3.51-.34-1.19-.74-2.37-1.03-3.57-.64-2.39-1.08-4.83-1.47-7.26-.35-2.44-.73-4.88-.7-7.35z"/><path d="m225.26 205.09c.07 2.45.01.68.02 1.23h-.02-.05l-.1.01-.19.02-.39.02-.77.03c-.51 0-1.03 0-1.54-.02-1.02-.05-2.05-.13-3.06-.25-2.03-.25-4.05-.62-6.05-1.1-3.98-.97-7.89-2.37-11.51-4.36-3.62-1.98-6.98-4.48-9.86-7.46-2.87-2.99-5.25-6.44-7.08-10.15-3.67-7.43-5.17-15.7-5.35-23.83-.1-4.08.11-8.15.54-12.19.21-2.02.48-4.03.8-6.03s.69-4 1.25-5.95l1.2.24c-.22 2-.54 3.98-.82 5.96s-.52 3.97-.7 5.96c-.36 3.98-.51 7.98-.35 11.96.33 7.93 1.81 15.89 5.35 22.94 3.5 7.04 9.15 12.92 16.04 16.72 3.44 1.9 7.12 3.39 10.95 4.41 1.91.51 3.85.91 5.82 1.2.98.15 1.96.28 2.95.38.49.06.98.11 1.48.15l.74.07.37.03.18.02.09.01h.05l.01-.02c.02.54-.03-1.22.06 1.22z"/><ellipse cx="277.76" cy="174.24" rx="4.21" ry="6.48" transform="matrix(.9968 -.0798 .0798 .9968 -13.0178 22.7202)"/><ellipse cx="231.83" cy="175.74" rx="4.21" ry="6.48" transform="matrix(.9968 -.0798 .0798 .9968 -13.2845 19.0595)"/><path d="m287.89 182.83c-2.96-.87-5.8-1.47-8.65-1.42-1.42.02-2.82.19-4.2.55-1.41.3-2.73.9-4.22 1.44.98-1.19 2.23-2.26 3.72-2.86.36-.19.73-.33 1.12-.43.39-.11.77-.25 1.16-.33.79-.13 1.6-.25 2.4-.22 1.6.01 3.2.29 4.67.85 1.48.57 2.87 1.34 4 2.42z"/><path d="m240.92 183.84c-3.02-.61-5.91-.96-8.74-.66-1.41.14-2.79.43-4.14.91-1.38.42-2.65 1.13-4.07 1.8.88-1.27 2.03-2.44 3.45-3.18.34-.22.7-.39 1.08-.53s.75-.31 1.13-.43c.78-.19 1.57-.39 2.37-.43 1.6-.13 3.21.01 4.73.44 1.51.45 2.97 1.09 4.19 2.08z"/><path d="m274.4 154.72c1.31-.67 2.79-.95 4.27-.99 1.48-.03 3 .22 4.4.79.71.27 1.37.65 2.01 1.05.59.48 1.23.9 1.7 1.5 1.05 1.08 1.72 2.46 2.12 3.84-1.06-1.02-1.97-2.03-3.08-2.78-1.07-.79-2.2-1.44-3.43-1.88-1.22-.46-2.49-.81-3.83-1.04-1.33-.23-2.7-.38-4.16-.49z"/><path d="m235.14 153.26c-1.45.39-2.81.83-4.09 1.36s-2.45 1.21-3.5 2.02c-1.06.8-1.96 1.8-2.68 2.96-.41.56-.68 1.2-1.02 1.83-.33.64-.53 1.33-.89 2.01-.04-.74-.07-1.51.03-2.26.15-.74.26-1.52.6-2.23.24-.75.7-1.4 1.13-2.07.5-.61 1.03-1.21 1.66-1.7 1.23-1.01 2.71-1.66 4.22-1.98 1.52-.31 3.08-.35 4.54.06z"/></g><circle cx="264.18" cy="181.5" fill="#bad8db" r="1.2"/><circle cx="257.74" cy="178.11" fill="#bad8db" r="1.2"/><circle cx="245.12" cy="178.11" fill="#bad8db" r="1.2"/><circle cx="251.24" cy="182.17" fill="#bad8db" r="1.2"/><path d="m229.77 224.89c-1.8-2.07-3.32-4.43-4.33-7.02-1-2.59-1.5-5.39-1.44-8.18.03-2.79.6-5.55 1.49-8.17.91-2.63 2.09-5.1 3.71-7.47l-.16.31c.38-1.21.65-2.43.64-3.6 0-1.17-.33-2.29-.86-3.42-1.09-2.25-2.64-4.5-3.98-6.82-1.37-2.32-2.66-4.7-3.84-7.12-.58-1.21-1.18-2.42-1.69-3.74-.5-1.3-.9-2.62-1.22-3.96-1.27-5.38-1.33-10.93-.66-16.33.68-5.41 2.09-10.71 4.16-15.74 4.12-10.03 10.86-19.21 20.05-25.28 2.28-1.51 4.72-2.81 7.25-3.88 2.54-1.07 5.17-1.85 7.8-2.5 5.29-1.27 10.74-1.84 16.17-1.79 10.85.13 21.71 2.69 31.33 7.81 4.8 2.56 9.28 5.79 13.12 9.7 3.84 3.9 7.01 8.5 9.16 13.56 1.06 2.53 1.93 5.16 2.4 7.9.48 2.73.6 5.51.43 8.26-.33 5.5-1.76 10.83-3.7 15.89-1.94 5.07-4.52 9.85-7.37 14.43-2.93 4.53-6.13 8.86-9.84 12.79l-.88-.78c3.2-4.2 6.18-8.62 8.85-13.16 2.72-4.52 5.08-9.26 7-14.14 1.88-4.89 3.23-10 3.54-15.17.16-2.58.05-5.17-.4-7.69-.43-2.52-1.25-4.99-2.25-7.38-2.02-4.77-5.01-9.11-8.66-12.81-3.65-3.71-7.93-6.8-12.54-9.26-9.24-4.92-19.75-7.4-30.22-7.52-5.24-.05-10.49.51-15.58 1.73-2.55.62-5.05 1.37-7.43 2.38-2.39 1-4.69 2.23-6.85 3.66-8.69 5.74-15.17 14.53-19.13 24.18-1.98 4.84-3.38 9.93-4.06 15.11-.67 5.17-.64 10.47.52 15.5.29 1.25.66 2.49 1.11 3.69.44 1.18 1.02 2.37 1.59 3.57 1.14 2.38 2.38 4.71 3.71 6.99 1.31 2.31 2.81 4.47 4.03 7.03.6 1.28 1.05 2.78 1.03 4.29.01 1.51-.34 2.92-.76 4.25l-.05.16-.11.15c-1.47 2.03-2.71 4.42-3.61 6.84-.89 2.44-1.49 5-1.58 7.59-.12 2.59.25 5.19 1.11 7.64s2.23 4.72 3.89 6.76z" fill="#97b1b2"/><ellipse cx="282.41" cy="190.87" fill="#fff" rx="6.65" ry="3.01"/><ellipse cx="309.98" cy="132.32" fill="#fff" rx="6.18" ry="9.02" transform="matrix(.9968 -.0798 .0798 .9968 -9.5705 25.1574)"/><ellipse cx="316.18" cy="152" fill="#fff" rx="4.59" ry="6.58" transform="matrix(.9968 -.0798 .0798 .9968 -11.1209 25.7147)"/><path d="m268.38 107.33c-2.54 1.22-4.76 2.86-6.71 4.72-1.95 1.87-3.57 4.02-4.92 6.35l-.92 1.8c-.16.29-.31.6-.42.92l-.39.94c-.58 1.23-.9 2.55-1.34 3.85-.4 1.31-.64 2.67-.99 4.01-.24 1.36-.45 2.74-.75 4.13-.11-1.4-.16-2.81-.17-4.23l.18-2.12c.07-.71.11-1.42.28-2.12.29-1.4.56-2.81 1.09-4.16.4-1.39 1.1-2.66 1.73-3.97 1.43-2.52 3.31-4.81 5.59-6.59 2.27-1.78 4.93-3.12 7.74-3.53z" fill="#97b1b2"/><path d="m271.1 223.9c.64-3.11 1.72-6.17 3.29-9 .77-1.43 1.72-2.76 2.81-3.98 1.07-1.24 2.31-2.34 3.66-3.27 2.7-1.89 5.86-3.09 9.08-3.52 1.61-.23 3.24-.29 4.86-.22.81.04 1.62.11 2.42.24.4.06.8.13 1.2.22l.61.14.31.08c.14.06.12-.01.59.24l-.29-.14c.53.19.85.36 1.26.55.38.19.75.38 1.12.58.73.4 1.46.8 2.15 1.26.7.44 1.36.94 2 1.47.63.54 1.24 1.12 1.78 1.8-.85-.18-1.63-.47-2.4-.76-.76-.31-1.51-.63-2.23-1l-2.16-1.08c-.36-.17-.72-.34-1.08-.5-.34-.15-.76-.32-1-.4l-.29-.14c.28.17.07.05.03.06l-.25-.06-.53-.1c-.36-.06-.73-.12-1.09-.16-.74-.09-1.48-.14-2.22-.17-1.49-.05-2.98.04-4.44.27-2.92.47-5.73 1.5-8.13 3.18-2.42 1.65-4.37 3.94-5.87 6.5-1.52 2.56-2.57 5.41-3.36 8.35z" fill="#97b1b2"/><path d="m298.29 228.25s9.41 20.49 29.88 16.71c15.5-2.87 10.66-20.21 10.66-20.21l-1.85-.63-3.18 7.4-4.76 5.49-5.95 1.74-6.13.18z" fill="#baccd3" opacity=".4"/><path d="m288.01 213.94c1.92 1.9 3.61 3.92 5.29 5.94s3.45 3.98 5.29 5.83c3.68 3.71 7.69 7.14 12.18 9.6 2.24 1.21 4.63 2.12 7.08 2.47 1.22.16 2.45.19 3.65.03.61-.09 1.18-.19 1.8-.37.61-.15 1.22-.34 1.81-.55 2.38-.79 4.57-2.05 6.34-3.74 1.75-1.7 3.03-3.86 3.73-6.23.71-2.35.92-4.94.63-7.37-.38-2.5-1.04-5.01-2.01-7.37-1.92-4.73-5.03-8.96-8.94-12.32-3.89-3.38-8.44-6.06-13.28-7.98-1.21-.48-2.44-.92-3.68-1.29s-2.45-.65-3.73-.77c-2.52-.26-5.13-.08-7.53 1.13 1.94-1.93 4.89-2.64 7.62-2.57 1.37.02 2.78.27 4.08.63 1.31.35 2.59.77 3.86 1.24 5.05 1.87 9.87 4.49 14.05 7.99 4.17 3.49 7.64 7.96 9.73 13.05 1.05 2.55 1.75 5.2 2.18 7.94.34 2.84.11 5.65-.69 8.38-.79 2.72-2.29 5.28-4.34 7.27-2.06 1.99-4.59 3.42-7.23 4.31-.66.24-1.33.43-2 .59-.65.19-1.39.32-2.1.41-1.43.18-2.88.13-4.28-.06-2.82-.42-5.44-1.46-7.85-2.78s-4.63-2.92-6.68-4.69c-2.05-1.76-3.99-3.64-5.78-5.63-1.8-1.99-3.5-4.06-5.12-6.19-1.61-2.12-3.09-4.37-4.08-6.9z" fill="#97b1b2"/><path d="m241.87 193.44s-3.96 19.69 2.41 30.67l-2.41.33s-9.98-15.61 0-31z" fill="#fff"/><path d="m259.59 194.61s-4.34 18.52 2.02 29.5l-2.41.33s-9.6-14.44.39-29.83z" fill="#fff"/><path d="m241.87 191.62c-.85 2.75-1.58 5.46-2.16 8.19-.59 2.73-.98 5.48-1.06 8.25-.12 2.76.12 5.52.66 8.22.45 2.73 1.46 5.3 2.51 7.86l-1.47.76c-.33-.65-.66-1.3-.98-1.96l-.48-.99c-.15-.33-.26-.68-.39-1.03l-.74-2.07c-.2-.71-.35-1.43-.52-2.14l-.25-1.07-.14-1.09c-.09-.73-.21-1.45-.26-2.18-.07-1.46-.13-2.93-.02-4.39.18-2.91.64-5.81 1.49-8.59.87-2.78 2.07-5.46 3.81-7.77z" fill="#97b1b2"/><path d="m258.29 224.95c-.6-1.2-1.24-2.39-1.76-3.63l-.71-1.89c-.11-.32-.25-.63-.35-.95l-.25-.98-.5-1.97-.31-2.01c-.12-.67-.17-1.34-.2-2.02-.02-.68-.12-1.35-.07-2.03.01-2.72.49-5.42 1.3-7.99.41-1.29.9-2.55 1.52-3.75.67-1.17 1.48-2.29 2.6-3.11-.76 2.62-1.85 4.85-2.49 7.33-.62 2.46-.99 4.98-.92 7.51-.02.63.07 1.26.09 1.89.03.63.08 1.26.2 1.88l.3 1.87.48 1.84c.27 1.24.78 2.41 1.17 3.62.46 1.18 1.04 2.33 1.53 3.51z" fill="#97b1b2"/><path d="m82.04 142.71 73.35 42.43" fill="none" stroke="#fff" stroke-miterlimit="10" stroke-width="1.2806"/><path d="m155.39 142.71-73.35 42.43" fill="none" stroke="#fff" stroke-miterlimit="10" stroke-width="1.2806"/><path d="m191.66 174.26-78.71-24.1c-1.01-.3-1.58-1.36-1.28-2.37l15.98-53.46c.3-1.01 1.36-1.58 2.37-1.28l78.71 24.1c1.01.3 1.58 1.36 1.28 2.37l-15.98 53.46c-.3 1.01-1.36 1.58-2.37 1.28z" fill="#fff" stroke="#97b1b2" stroke-miterlimit="10" stroke-width="2.0639"/><path d="m176.93 97.94s-18.98-8.76-25.78 13.34h1.57l11.32-5.92 3.82-.73 13.2 3.78s.45-7.26-4.13-10.47z" fill="#ecf3f6"/><path d="m152.3 124.55-8.76 4.94 4.94 8.75" fill="none" stroke="#ff8288" stroke-linecap="round" stroke-miterlimit="10" stroke-width="1.769"/><path d="m166.49 143.26 8.75-4.94-4.94-8.75" fill="none" stroke="#ff8288" stroke-linecap="round" stroke-miterlimit="10" stroke-width="1.769"/><path d="m166.75 125.69-15 16.7" fill="none" stroke="#ff8288" stroke-linecap="round" stroke-miterlimit="10" stroke-width="1.769"/><path d="m177.64 106.92s2.44-7.48-9.03-7.89-17.46 12.25-17.46 12.25.84-13.68 18.01-15.93c0 0 11.22-1.42 11.89 13.07z" fill="#fff"/><path d="m180.04 108.36c-.29-2.7-1.08-5.58-2.56-7.79-.74-1.11-1.68-2.02-2.78-2.62-.29-.12-.55-.3-.85-.39l-.9-.26c-.66-.11-1.35-.25-2.04-.27-5.52-.4-11.37 1.61-14.84 5.93-1.76 2.12-2.91 4.72-3.57 7.46l-.22 1.04-.11.52-.05.26c-.04.24.04-.22-.11-.42-.13-.23-.34-.38-.59-.42-.26-.05-.59.08-.72.25l.45-.44c.3-.26.6-.53.91-.76 1.22-.96 2.5-1.78 3.82-2.55 2.64-1.51 5.47-2.67 8.4-3.41 2.92-.76 5.99-1.12 8.96-.63-2.94.56-5.76 1.21-8.5 2.15-1.37.46-2.69 1.05-4 1.64-1.3.63-2.57 1.31-3.81 2.04-1.22.75-2.42 1.56-3.5 2.45-.28.22-.52.45-.77.68l-.34.34c-.26.3-.78.51-1.22.43-.44-.07-.81-.33-1.03-.73-.24-.37-.14-1.02-.13-.96l.06-.28.11-.57.23-1.14c.69-3 1.96-5.95 3.96-8.41 1.98-2.46 4.64-4.38 7.58-5.48 2.94-1.11 6.09-1.59 9.22-1.34.79.04 1.56.18 2.35.32l1.23.36c.4.13.77.36 1.16.54 1.5.82 2.7 2.06 3.58 3.41.89 1.36 1.51 2.83 1.96 4.32.44 1.51.74 2.99.88 4.6z" fill="#97b1b2"/><path d="m218.2 224.44h77.63" fill="#ecf3f6" stroke="#97b1b2" stroke-miterlimit="10" stroke-width="1.3852"/><ellipse cx="312.87" cy="198.68" fill="#fff" rx="2.44" ry="3.83" transform="matrix(.187 -.9824 .9824 .187 59.1887 468.8704)"/><ellipse cx="307.17" cy="194.75" fill="#fff" rx="1.11" ry="1.75" transform="matrix(.187 -.9824 .9824 .187 58.4072 460.0774)"/><path d="m357.22 253.77c-19.78 0-19.78-3.97-39.55-3.97s-19.77 3.97-39.55 3.97c-19.77 0-19.77-3.97-39.55-3.97-19.77 0-19.77 3.97-39.55 3.97-4.76 0-8.37-.23-11.39-.58v15.5h183.6v-15.85c-3.53.54-7.79.93-14.01.93z" fill="#baccd3" opacity=".4"/><path d="m159.49 256.85c19.77 0 19.77 3.97 39.54 3.97s19.77-3.97 39.54-3.97 19.77 3.97 39.55 3.97c19.77 0 19.77-3.97 39.55-3.97s19.78 3.97 39.55 3.97c19.78 0 19.78-3.97 39.55-3.97v44.58h-236.81z" fill="#fff"/><path d="m160.09 256.48c19.77 0 19.77 3.97 39.54 3.97s19.77-3.97 39.54-3.97 19.77 3.97 39.55 3.97c19.77 0 19.77-3.97 39.55-3.97s19.78 3.97 39.55 3.97 19.78-3.97 39.55-3.97" fill="none" stroke="#97b1b2" stroke-linecap="round" stroke-miterlimit="10" stroke-width="2.3587"/></svg>