<svg viewBox="0 0 980 150" xmlns="http://www.w3.org/2000/svg"><g fill="#ffffff" fill-rule="evenodd"><path d="m3.34 85h53.926c1.534 0 2.832-1.298 2.832-2.832s-1.298-2.832-2.832-2.832h-50.858v-33.158h44.958c1.534 0 2.832-1.298 2.832-2.832s-1.298-2.832-2.832-2.832h-44.958v-32.45h50.268c1.534 0 2.832-1.298 2.832-2.832s-1.298-2.832-2.832-2.832h-53.336c-1.652 0-3.068 1.416-3.068 3.068v76.464c0 1.652 1.416 3.068 3.068 3.068zm94.1977076-3.068c0 1.652 1.416 3.068 3.0680004 3.068h49.206c1.534 0 2.832-1.298 2.832-2.832s-1.298-2.832-2.832-2.832h-46.138v-74.34c0-1.652-1.416-3.068-3.068-3.068-1.6520004 0-3.0680004 1.416-3.0680004 3.068zm94.3157074 3.068h53.926c1.534 0 2.832-1.298 2.832-2.832s-1.298-2.832-2.832-2.832h-50.858v-33.158h44.958c1.534 0 2.832-1.298 2.832-2.832s-1.298-2.832-2.832-2.832h-44.958v-32.45h50.268c1.534 0 2.832-1.298 2.832-2.832s-1.298-2.832-2.832-2.832h-53.336c-1.652 0-3.068 1.416-3.068 3.068v76.464c0 1.652 1.416 3.068 3.068 3.068zm131.603708 1.416c13.806 0 22.892-5.074 31.27-12.862.472-.472.944-1.18.944-2.124 0-1.534-1.416-2.95-2.95-2.95-.944 0-1.652.472-2.124.944-7.788 7.434-15.694 11.446-26.904 11.446-19.706 0-34.928-16.284-34.928-37.17v-.236c0-20.768 14.986-36.934 34.81-36.934 11.564 0 19.47 4.484 26.314 10.738.472.472 1.298.826 2.124.826 1.652 0 3.186-1.416 3.186-3.068 0-1.062-.59-1.888-1.18-2.478-8.024-6.844-16.638-11.564-30.326-11.564-23.836 0-41.3 19.352-41.3 42.716v.236c0 23.718 17.464 42.48 41.064 42.48zm90.775707-4.012c0 1.652 1.416 3.068 3.068 3.068s3.068-1.416 3.068-3.068v-74.34h26.432c1.534 0 2.832-1.298 2.832-2.832s-1.298-2.832-2.832-2.832h-59c-1.534 0-2.832 1.298-2.832 2.832s1.298 2.832 2.832 2.832h26.432zm71.777708 0c0 1.652 1.416 3.068 3.068 3.068s3.068-1.416 3.068-3.068v-31.624h27.022l25.37 33.04c.708.944 1.534 1.652 2.714 1.652 1.652 0 3.186-1.534 3.186-3.186 0-.708-.354-1.416-.944-2.124l-23.482-30.444c13.924-1.888 24.19-9.794 24.19-23.6v-.236c0-5.9-2.36-11.446-6.254-15.34-4.956-4.956-13.098-8.142-23.246-8.142h-31.624c-1.652 0-3.068 1.416-3.068 3.068zm6.136-37.17v-37.17h28.202c14.986 0 23.718 6.962 23.718 18.054v.236c0 11.918-10.266 18.88-24.072 18.88zm135.143707 41.182c25.016 0 41.654-20.178 41.654-42.716v-.236c0-22.538-16.402-42.48-41.418-42.48s-41.654 20.178-41.654 42.716v.236c0 22.538 16.402 42.48 41.418 42.48zm.236-5.546c-20.414 0-35.282-16.756-35.282-37.17v-.236c0-20.414 14.632-36.934 35.046-36.934s35.282 16.756 35.282 37.17v.236c0 20.414-14.632 36.934-35.046 36.934zm80.509708 1.652c0 1.652 1.298 2.95 2.95 2.95s2.95-1.298 2.95-2.95v-71.154l56.758 71.98c.944 1.18 1.888 2.006 3.068 2.006h.472c1.416 0 2.478-1.18 2.478-2.596v-77.88c0-1.652-1.298-2.95-2.95-2.95s-2.95 1.298-2.95 2.95v69.62l-55.696-70.682c-.826-1.062-1.77-1.77-3.068-1.77h-.944c-1.652 0-3.068 1.416-3.068 3.068z" transform="translate(203 35)"/><g transform="translate(-.300003 -.599998)"><path d="m49.1266117 32.7678207c-19.5041093-3.5523497-34.9252358.1656622-41.07136482 10.8110699-4.58637913 7.9438417-3.27539986 18.4760522 3.17938652 29.7343384.5493976.9582463 1.7715845 1.2896837 2.7298308.7402861s1.2896837-1.7715845.7402861-2.7298309c-5.81454541-10.141593-6.94597104-19.2312966-3.1854018-25.7447936 5.1056156-8.8431857 18.8609932-12.1595878 36.8905207-8.8758087 1.0866924.1979229 2.1280789-.522567 2.3260018-1.6092594.197923-1.0866923-.5225669-2.1280788-1.6092593-2.3260018zm-27.7491925 54.2297775c7.886374 8.6665406 18.1320907 16.7953198 29.8167544 23.5414638 28.2925639 16.334719 58.4119964 20.700792 73.2561024 10.579234.912609-.622269 1.147976-1.866533.525708-2.779142-.622269-.912609-1.866534-1.147977-2.779143-.525708-13.285299 9.058675-41.8965793 4.911222-69.0026674-10.738486-11.3354374-6.544517-21.2566568-14.4158462-28.8583029-22.7694919-.7434112-.8169539-2.008337-.876572-2.8252908-.1331607-.8169538.7434112-.8765719 2.0083369-.1331607 2.8252908z"/><path d="m119.715028 84.5645564c12.770819-15.0867285 17.229947-30.2605841 11.096474-40.8840713-4.513125-7.8169624-14.054-11.9439905-26.733672-12.1088908-1.104476-.0143638-2.011475.8693468-2.025839 1.9738229s.869347 2.0114751 1.973823 2.0258389c11.403766.148307 19.623426 3.7038267 23.321586 10.109229 5.094583 8.8240759 1.118033 22.3557782-10.685406 36.2996979-.713655.843072-.608742 2.1050485.23433 2.8187035s2.105049.6087418 2.818704-.2343301zm-32.8208551-51.1307603c-11.5469253 2.4739792-23.8375857 7.311107-35.6413436 14.1260098-29.2067296 16.8625132-48.25894177 41.7268933-45.61290784 59.7558221.16039498 1.092862 1.17636046 1.848776 2.26922241 1.688381 1.09286194-.160395 1.84877576-1.176361 1.68838078-2.269223-2.34939906-16.0077869 15.71023125-39.5767828 43.65530465-55.7108785 11.4505831-6.6109972 23.3512246-11.2946287 34.4793427-13.6788767 1.0800577-.231407 1.7680249-1.2945593 1.5366179-2.3746169-.2314071-1.0800577-1.2945593-1.7680249-2.374617-1.5366178z"/><path d="m39.5781566 119.814969c6.6771799 18.645088 17.6010409 30.124754 29.8845457 30.124754 8.95859 0 17.2470421-6.106796 23.7103287-16.858263.5690993-.946678.2630112-2.175459-.6836671-2.744558-.9466782-.569099-2.1754587-.263011-2.7445581.683667-5.8085457 9.662327-12.9433773 14.919154-20.2821035 14.919154-10.2036 0-19.9467201-10.238849-26.1187451-27.473363-.372408-1.039897-1.5173075-1.581004-2.5572047-1.208596-1.0398971.372408-1.5810039 1.517308-1.2085959 2.557205zm60.9911474-3.647187c3.456648-11.046139 5.313144-23.7888764 5.313144-37.0675508 0-33.134077-11.5967732-61.696897-28.1148435-69.0314223-1.0095235-.44825905-2.1912897.0067356-2.6395488 1.016259-.4482591 1.0095235.0067356 2.1912897 1.016259 2.6395488 14.7321219 6.5415098 25.7381333 33.6492853 25.7381333 65.3756145 0 12.8824763-1.797873 25.2228328-5.1305981 35.8729618-.3298766 1.054161.2572718 2.176145 1.3114327 2.506021 1.0541609.329877 2.1761454-.257271 2.5060214-1.311432z"/><path d="m138.23701 114.208372c0-5.286659-4.285685-9.572344-9.572344-9.572344-5.28666 0-9.572345 4.285685-9.572345 9.572344 0 5.28666 4.285685 9.572344 9.572345 9.572344 5.286659 0 9.572344-4.285684 9.572344-9.572344zm-4 0c0 3.077521-2.494824 5.572344-5.572344 5.572344-3.077521 0-5.572345-2.494823-5.572345-5.572344 0-3.07752 2.494824-5.572344 5.572345-5.572344 3.07752 0 5.572344 2.494824 5.572344 5.572344z"/><path d="m10.1230622 123.780716c5.2866597 0 9.5723441-4.285684 9.5723441-9.572344 0-5.286659-4.2856844-9.572344-9.5723441-9.572344-5.28665971 0-9.57234416 4.285685-9.57234416 9.572344 0 5.28666 4.28568445 9.572344 9.57234416 9.572344zm0-4c-3.07752071 0-5.57234416-2.494823-5.57234416-5.572344 0-3.07752 2.49482345-5.572344 5.57234416-5.572344 3.0775207 0 5.5723441 2.494824 5.5723441 5.572344 0 3.077521-2.4948234 5.572344-5.5723441 5.572344z"/><path d="m69.4627023 19.8330832c5.2866597 0 9.5723441-4.2856845 9.5723441-9.5723441 0-5.28665973-4.2856844-9.57234418-9.5723441-9.57234418s-9.5723441 4.28568445-9.5723441 9.57234418c0 5.2866596 4.2856844 9.5723441 9.5723441 9.5723441zm0-4c-3.0775207 0-5.5723441-2.4948235-5.5723441-5.5723441 0-3.07752073 2.4948234-5.57234418 5.5723441-5.57234418s5.5723441 2.49482345 5.5723441 5.57234418c0 3.0775206-2.4948234 5.5723441-5.5723441 5.5723441z"/><path d="m70.9248064 85.8696781c-3.7388468.8078439-7.4223618-1.5682605-8.2317865-5.3071072-.806263-3.7388468 1.5682604-7.4223618 5.3071072-8.2317866 3.7388468-.8078438 7.4223618 1.5682605 8.2317866 5.3071073.8078438 3.7388467-1.5682605 7.4223617-5.3071073 8.2317865z"/></g></g></svg>