<svg fill="none" height="78" viewBox="0 0 414 78" width="414" pointer-events="none" xmlns="http://www.w3.org/2000/svg"><title id="title" lang="en">Nuxt</title><g fill="#fff"><path d="m144.516 17.7285h12.162l25.776 42.0486v-42.0486h11.227v59.581h-12.08l-25.858-41.9613v41.9613h-11.227z"/><path d="m243.864 77.3095h-10.462v-6.6553c-2.382 4.6837-7.229 7.3208-13.351 7.3208-9.698 0-15.995-6.9797-15.995-17.0249v-26.542h10.462v24.3457c0 5.8733 3.575 9.9579 8.933 9.9579 5.869 0 9.951-4.5962 9.951-10.8938v-23.4098h10.462z"/><path d="m280.272 77.3095-10.038-14.3005-10.039 14.3005h-11.143l15.483-22.3866-14.291-20.5148h11.398l8.592 12.3455 8.504-12.3455h11.485l-14.378 20.5148 15.484 22.3866z"/><path d="m312.593 21.472v12.9361h11.908v8.7683h-11.908v21.2967c0 .7153.283 1.4013.788 1.9074.505.5062 1.19.7911 1.905.7922h9.215v10.1201h-6.891c-9.357 0-15.48-5.449-15.48-14.9743v-19.1338h-8.421v-8.7766h5.283c2.465 0 3.899-1.4683 3.899-3.8975v-9.0386z"/><path d="m350.876 63.816v-46.0875h11.223v42.556c0 11.4928-5.529 17.025-14.885 17.025h-13.065v-10.1201h13.356c.894 0 1.751-.3555 2.383-.9881.633-.6326.988-1.4906.988-2.3853z"/><path d="m368.822 57.3064h10.807c.598 6.6552 5.021 10.8938 12.166 10.8938 6.381 0 10.808-2.5498 10.808-7.8282 0-12.7698-32.007-3.9183-32.007-26.7291.009-9.7874 8.43-16.5882 20.53-16.5882 12.591 0 21.095 7.2334 21.615 18.3851h-10.749c-.508-5.1911-4.573-8.6809-10.887-8.6809-5.869 0-9.527 2.7244-9.527 6.8923 0 13.194 32.422 3.3276 32.422 26.5585 0 11.0644-9.103 17.7903-22.201 17.7903-13.525 0-22.371-8.1734-22.965-20.6853"/><path d="m64.3666 77.2305h42.6514c1.355.0001 2.685-.3567 3.859-1.0346 1.173-.6779 2.147-1.6529 2.824-2.8271s1.033-2.5061 1.033-3.8618c-.001-1.3556-.358-2.6872-1.036-3.8608l-28.6438-49.6481c-.677-1.1739-1.651-2.1488-2.8239-2.8265-1.1729-.6778-2.5035-1.0347-3.8579-1.0347-1.3545 0-2.685.3569-3.8579 1.0347-1.173.6777-2.1469 1.6526-2.8239 2.8265l-7.324 12.7032-14.3197-24.84069c-.6776-1.17382-1.6519-2.14853-2.8252-2.82619-1.1732-.677667-2.504-1.03442-3.8586-1.03442-1.3547 0-2.6855.356753-3.8587 1.03442-1.1733.67766-2.1476 1.65237-2.8252 2.82619l-35.64322 61.78559c-.678084 1.1736-1.03538984 2.5052-1.03597927 3.8608-.00058943 1.3557.35555827 2.6876 1.03261927 3.8618.67706 1.1742 1.65117 2.1492 2.82434 2.8271s2.50403 1.0347 3.85874 1.0346h26.7729c10.6078 0 18.4306-4.6629 23.8134-13.7598l13.0685-22.6486 6.9998-12.1208 21.0077 36.4083h-28.0075zm-30.3144-12.1334-18.6841-.0041 28.0074-48.5417 13.9747 24.2708-9.3566 16.2222c-3.5748 5.9024-7.6358 8.0528-13.9414 8.0528z"/></g></svg>