<svg height="31" viewBox="0 0 204 31" width="204" xmlns="http://www.w3.org/2000/svg"><g fill="#fff" transform="translate(0 -4)"><path d="m67.28 27.5328c.576-.5472 1.2384-1.6128 1.152-3.2544-.1728-3.5424-3.6288-3.9456-5.9328-4.2336-2.88-.3168-3.3408-.6336-3.3696-1.4976 0-1.0944 1.4976-1.6416 2.8512-1.584 2.5632.0864 4.8672.9504 4.8672.9504l.9216-2.8512c-.1152-.0288-2.7072-.8352-5.7024-.9216-3.1104-.0864-5.9616 1.3536-5.8752 4.464.0576 3.744 3.6288 4.1472 5.9616 4.4064 2.6496.3168 3.3696.6048 3.4272 1.4112.0288.6048 0 2.2176-3.744 1.9296-2.4768-.2016-4.6944-1.3248-4.7232-1.3536l-1.2384 2.592c.144.0576 2.8512 1.3824 6.0192 1.4688 1.6128.0576 3.9168-.0288 5.3856-1.5264zm10.764 1.4976c2.8224 0 5.616-1.152 5.616-1.152l-.7488-2.5632s-2.4768.9792-4.752.9792c-2.9088 0-4.3776-1.8432-4.3776-3.6h10.656l.0006771-1.7052542c.0063729-.5267958-.0522771-6.8483458-6.5382771-6.8483458-6.0116677 0-7.1651401 5.1932433-7.1992086 7.3049045l-.0007914.0966955c0 1.9296.7488 7.488 7.344 7.488zm3.4848-8.8992h-7.7184s.3456-3.1392 4.0896-3.1392c3.8304 0 3.6288 3.1392 3.6288 3.1392zm9.4968 8.6688v-9.0144c0-1.008 1.296-2.3616 2.592-2.3616h5.0112v-3.024h-4.5792c-2.592 0-3.2544 2.3616-3.2544 2.7936l-.1728-2.7936h-2.8224v14.4zm18.9432 0 4.5792-14.4h-3.0816l-3.8016 11.6064-3.3984-11.6064h-3.2544l4.3776 14.4zm13.6152.2304c2.8224 0 5.616-1.152 5.616-1.152l-.7488-2.5632s-2.4768.9792-4.752.9792c-2.9088 0-4.3776-1.8432-4.3776-3.6h10.656l.000677-1.7052542c.006373-.5267958-.052277-6.8483458-6.538277-6.8483458-6.011668 0-7.16514 5.1932433-7.199209 7.3049045l-.000791.0966955c0 1.9296.7488 7.488 7.344 7.488zm3.4848-8.8992h-7.7184s.3456-3.1392 4.0896-3.1392c3.8304 0 3.6288 3.1392 3.6288 3.1392zm9.4968 8.6688v-9.0144c0-1.008 1.296-2.3616 2.592-2.3616h5.0112v-3.024h-4.5792c-2.592 0-3.2544 2.3616-3.2544 2.7936l-.1728-2.7936h-2.8224v14.4zm21.2472 0v-3.024h-5.9328v-17.136h-7.6896v2.6496h4.608v17.5104zm9.2952.2304c2.8224 0 5.616-1.152 5.616-1.152l-.7488-2.5632s-2.4768.9792-4.752.9792c-2.9088 0-4.3776-1.8432-4.3776-3.6h10.656l.000677-1.7052542c.006373-.5267958-.052277-6.8483458-6.538277-6.8483458-6.011668 0-7.16514 5.1932433-7.199209 7.3049045l-.000791.0966955c0 1.9296.7488 7.488 7.344 7.488zm3.4848-8.8992h-7.7184s.3456-3.1392 4.0896-3.1392c3.8304 0 3.6288 3.1392 3.6288 3.1392zm16.4952 7.4016c.576-.5472 1.2384-1.6128 1.152-3.2544-.1728-3.5424-3.6288-3.9456-5.9328-4.2336-2.88-.3168-3.3408-.6336-3.3696-1.4976 0-1.0944 1.4976-1.6416 2.8512-1.584 2.5632.0864 4.8672.9504 4.8672.9504l.9216-2.8512c-.1152-.0288-2.7072-.8352-5.7024-.9216-3.1104-.0864-5.9616 1.3536-5.8752 4.464.0576 3.744 3.6288 4.1472 5.9616 4.4064 2.6496.3168 3.3696.6048 3.4272 1.4112.0288.6048 0 2.2176-3.744 1.9296-2.4768-.2016-4.6944-1.3248-4.7232-1.3536l-1.2384 2.592c.144.0576 2.8512 1.3824 6.0192 1.4688 1.6128.0576 3.9168-.0288 5.3856-1.5264zm14.7888 0c.576-.5472 1.2384-1.6128 1.152-3.2544-.1728-3.5424-3.6288-3.9456-5.9328-4.2336-2.88-.3168-3.3408-.6336-3.3696-1.4976 0-1.0944 1.4976-1.6416 2.8512-1.584 2.5632.0864 4.8672.9504 4.8672.9504l.9216-2.8512c-.1152-.0288-2.7072-.8352-5.7024-.9216-3.1104-.0864-5.9616 1.3536-5.8752 4.464.0576 3.744 3.6288 4.1472 5.9616 4.4064 2.6496.3168 3.3696.6048 3.4272 1.4112.0288.6048 0 2.2176-3.744 1.9296-2.4768-.2016-4.6944-1.3248-4.7232-1.3536l-1.2384 2.592c.144.0576 2.8512 1.3824 6.0192 1.4688 1.6128.0576 3.9168-.0288 5.3856-1.5264z"/><path d="m12.2197183 11.2 2.1802817-6.4h-14.4v6.4zm25.3802817 0v-6.4h-16.3274725l-2.0725275 6.4zm-29.1184466 11.2 1.9184466-6.4h-10.4v6.4zm29.1184466 0v-6.4h-20.456621l-1.943379 6.4zm-33.1 12 1.9-6.4h-6.4v6.4zm33.1 0v-6.4h-24.306383l-2.093617 6.4z"/></g></svg>