<svg fill="none" height="82" viewBox="0 0 72 82" width="72" xmlns="http://www.w3.org/2000/svg"><path d="m29.3796 74h-11.24v-31h11.24zm-9.74-1.5h8.24v-28.04h-8.24z" fill="#bad8db"/><path d="m12.24 74h-11.24v-19.52h11.24zm-9.74-1.47h8.24v-16.53h-8.24z" fill="#bad8db"/><g fill="#ed6a5e"><path d="m8.55762 35.2944 11.29178-6.6963.765 1.29-11.29178 6.6963z"/><path d="m58.7901 10.7398c-.2645.0003-.5286-.0197-.79-.06-.6297-.1043-1.2327-.3317-1.7745-.6691-.5419-.33738-1.0119-.77822-1.3834-1.29731-.3714-.51909-.637-1.10627-.7815-1.72801-.1445-.62173-.1651-1.26583-.0606-1.89553.1042-.63535.335-1.2433.6785-1.78782.3436-.54453.7929-1.01454 1.3215-1.38218.7813-.56489 1.7127-.88518 2.6761-.920282.9635-.035103 1.9157.216562 2.736.723102s1.4719 1.24517 1.872 2.12231c.4002.87714.531 1.85332.3759 2.80487-.1048.63517-.3357 1.24292-.6792 1.78737-.3436.54445-.7926 1.01458-1.3208 1.38263-.8318.60945-1.8389.93225-2.87.91995zm0-8.23995c-.7996-.00049-1.5732.28421-2.1817.80293-.6086.51872-1.0122 1.23746-1.1383 2.02707-.0809.43268-.0757.87706.0152 1.30774.091.43068.2659.83922.5148 1.20226.5234.72552 1.313 1.21397 2.1959 1.35831.8828.14433 1.7869-.06722 2.5141-.58831.3597-.25881.6643-.58661.8961-.96432.2318-.3777.3861-.79775.4539-1.23568.0752-.43656.0616-.88378-.0397-1.31501-.1014-.43122-.2885-.83763-.5503-1.19499-.3094-.42808-.7148-.77771-1.1836-1.02084-.4689-.24313-.9883-.37298-1.5164-.37916z"/><path d="m40.9103 21.4398c-1.0333.0069-2.0418-.3156-2.8793-.9208s-1.4603-1.4616-1.778-2.4448-.3138-2.0421.0112-3.0229.9541-1.8325 1.7961-2.4315c.515-.3786 1.1008-.6498 1.7227-.7975.6218-.1478 1.2671-.169 1.8973-.0625.6297.1043 1.2327.3317 1.7745.6691.5419.3374 1.0119.7782 1.3834 1.2973.3714.5191.637 1.1063.7815 1.728.1444.6218.1651 1.2659.0606 1.8956-.185 1.1402-.7693 2.1776-1.6486 2.9268s-1.9962 1.1615-3.1514 1.1632zm0-8.24c-.7164-.006-1.4164.2145-2 .63-.7124.5194-1.1905 1.2995-1.33 2.17-.0752.4365-.0617.8838.0397 1.315s.2885.8376.5503 1.195c.3244.4492.7547.8114 1.2526 1.0547.4978.2432 1.048.36 1.6018.3398.5538-.0201 1.094-.1765 1.5729-.4553s.8817-.6713 1.1726-1.1429c.291-.4716.4612-1.0077.4955-1.5608.0343-.553-.0682-1.106-.2986-1.61-.2304-.5039-.5816-.9433-1.0223-1.2792-.4407-.3358-.9575-.5578-1.5045-.6463-.1794-.0182-.36-.0216-.54-.01z"/><path d="m23.7706 31.9998c-.9996.0032-1.9761-.3007-2.7975-.8706-.8213-.5698-1.4478-1.3782-1.7947-2.3157-.347-.9375-.3977-1.9589-.1452-2.9262.2525-.9672.7959-1.8336 1.5568-2.4819.7609-.6484 1.7025-1.0474 2.6976-1.1432.995-.0957 1.9955.1164 2.8661.6078.8705.4914 1.5692 1.2382 2.0015 2.1396.4322.9013.5773 1.9137.4154 2.9002-.185 1.1402-.7693 2.1776-1.6486 2.9268-.8792.7492-1.9962 1.1615-3.1514 1.1632zm0-8.24c-.8013-.0029-1.5773.2807-2.1879.7996-.6106.519-1.0157 1.2391-1.1421 2.0304-.0709.4373-.055.8843.0469 1.3154.1018.4312.2876.838.5466 1.1974.5233.7258 1.3134 1.214 2.1965 1.3572.8832.1432 1.7871-.0703 2.5129-.5935.7257-.5233 1.2139-1.3134 1.3571-2.1965.0714-.4374.0559-.8845-.0458-1.3159-.1016-.4313-.2873-.8383-.5465-1.1978-.2591-.3595-.5866-.6643-.9637-.897-.3772-.2328-.7965-.3889-1.234-.4593-.1821-.0255-.3661-.0355-.55-.03z"/><path d="m5.88016 42.6397c-1.03582.0135-2.04884-.3044-2.89129-.9072s-1.47023-1.4591-1.79178-2.4438-.320034-2.0465.00432-3.0303c.32436-.9838.95459-1.8382 1.79875-2.4387.52279-.3735 1.11512-.6385 1.74202-.7793.6269-.1409 1.27566-.1547 1.90798-.0407 1.19845.2051 2.27686.851 3.02324 1.8108.7464.9598 1.1067 2.1641 1.0102 3.3761s-.6429 2.3441-1.53174 3.1737c-.88887.8296-2.05591 1.2967-3.2717 1.3094zm0-8.24c-.71813-.0072-1.41948.2172-2 .64-.5397.3906-.95153.9324-1.18343 1.557-.23191.6246-.2735 1.3038-.11951 1.952s.49664 1.2362.98467 1.6897c.48802.4535 1.09952.7522 1.75724.8583.65771.1062 1.33212.015 1.93803-.262.6059-.277 1.1161-.7274 1.46615-1.2943.35004-.5668.52422-1.2247.50052-1.8905s-.24421-1.3096-.63367-1.8502c-.25881-.3597-.58661-.6643-.96432-.8961-.3777-.2317-.79775-.386-1.23568-.4539-.17173-.0304-.34561-.0471-.52-.05z"/><path d="m44.085 13.857 10.9762-6.22785.7403 1.30463-10.9763 6.22782z"/><path d="m26.4219 24.3184 10.9763-6.2278.7402 1.3046-10.9763 6.2278z"/></g><path d="m53.9199 45.4098v-22.35h8.24v23.7c.52.21 1 .43 1.5.68v-25.88h-11.24v24c.5-.1 1-.13 1.5-.15z" fill="#bad8db"/><path d="m36.7803 56.9998v-22.42h8.22v13.42c.49-.28 1-.53 1.5-.77v-14.15h-11.22v28.67c.2972-1.6404.8012-3.2364 1.5-4.75z" fill="#bad8db"/><path d="m54.8505 81.6199c-3.2381 0-6.4035-.9603-9.0958-2.7595-2.6922-1.7992-4.7904-4.3565-6.0291-7.3483s-1.5623-6.2838-.9298-9.4595c.6324-3.1757 2.1925-6.0926 4.4829-8.3816 2.2904-2.2889 5.2082-3.8473 8.3843-4.4778s6.4679-.3049 9.4589.9357c2.9911 1.2405 5.547 3.3403 7.3446 6.0336 1.7975 2.6934 2.756 5.8593 2.754 9.0974-.0053 4.3391-1.732 8.4987-4.8011 11.566-3.0692 3.0672-7.2299 4.7914-11.5689 4.794zm0-31.23c-2.941 0-5.816.8721-8.2614 2.5061-2.4453 1.6339-4.3512 3.9563-5.4767 6.6734s-1.42 5.707-.8462 8.5915 1.99 5.5341 4.0696 7.6137 4.7292 3.4958 7.6137 4.0696 5.8743.2793 8.5915-.8462c2.7171-1.1255 5.0395-3.0314 6.6734-5.4768 1.634-2.4453 2.5061-5.3203 2.5061-8.2613-.0027-3.9429-1.5702-7.7236-4.3583-10.5117s-6.5688-4.3556-10.5117-4.3583z" fill="#ed6a5e"/><path d="m54.8505 81.6199c-3.2381 0-6.4035-.9603-9.0958-2.7595-2.6922-1.7992-4.7904-4.3565-6.0291-7.3483s-1.5623-6.2838-.9298-9.4595c.6324-3.1757 2.1925-6.0926 4.4829-8.3816 2.2904-2.2889 5.2082-3.8473 8.3843-4.4778s6.4679-.3049 9.4589.9357c2.9911 1.2405 5.547 3.3403 7.3446 6.0336 1.7975 2.6934 2.756 5.8593 2.754 9.0974-.0053 4.3391-1.732 8.4987-4.8011 11.566-3.0692 3.0672-7.2299 4.7914-11.5689 4.794zm0-31.23c-2.941 0-5.816.8721-8.2614 2.5061-2.4453 1.6339-4.3512 3.9563-5.4767 6.6734s-1.42 5.707-.8462 8.5915 1.99 5.5341 4.0696 7.6137 4.7292 3.4958 7.6137 4.0696 5.8743.2793 8.5915-.8462c2.7171-1.1255 5.0395-3.0314 6.6734-5.4768 1.634-2.4453 2.5061-5.3203 2.5061-8.2613-.0027-3.9429-1.5702-7.7236-4.3583-10.5117s-6.5688-4.3556-10.5117-4.3583z" fill="#ed6a5e"/><path d="m52.0003 71-4.32-4.3001c-.1405-.1406-.2194-.3312-.2194-.5299 0-.1988.0789-.3894.2194-.53.0689-.0708.1513-.127.2424-.1654.091-.0384.1888-.0583.2876-.0583s.1966.0199.2876.0583.1734.0946.2424.1654l3.12 3.11 7.78-9.24c.1283-.1522.3113-.2479.5095-.2666.1983-.0187.3959.0411.5505.1666.1485.1312.2407.3145.2575.5119.0167.1975-.0433.3938-.1675.5481z" fill="#ed6a5e"/></svg>