<svg fill="none" height="68" viewBox="0 0 97 68" width="97" xmlns="http://www.w3.org/2000/svg"><path d="m46.89 56.9199c-.4849-.0029-.9555-.1645-1.34-.46l-.29-.23c-9.11-7-14.6-11.3-17.74-16.87-2.94-5.2-2.6-9.26-1.8-11.76.4888-1.4955 1.2861-2.8718 2.3403-4.0397s2.3419-2.1015 3.7797-2.7403c2.5893-1.1455 5.4919-1.3735 8.2283-.6462s5.1428 2.3663 6.8217 4.6462c1.683-2.2778 4.0912-3.9149 6.8283-4.6419 2.7372-.727 5.6403-.5006 8.2317.6419 1.4378.6388 2.7255 1.5724 3.7797 2.7403 1.0543 1.1679 1.8516 2.5442 2.3403 4.0397.8 2.5 1.14 6.56-1.8 11.76-3.14 5.57-8.64 9.82-17.74 16.88l-.29.22c-.3882.2957-.862.4571-1.35.46zm-10.07-35.18c-1.4283-.0086-2.8413.2951-4.14.89-1.1863.5279-2.2491 1.2978-3.1205 2.2604-.8714.9627-1.532 2.0967-1.9395 3.3296-1 3-.4 6.54 1.64 10.15 2.94 5.22 8.32 9.39 17.22 16.28l.29.23c.0373.0241.0807.0369.125.0369.0444 0 .0878-.0128.125-.0369l.28-.22c8.91-6.9 14.29-11.07 17.23-16.29 2-3.61 2.61-7.13 1.64-10.15-.4075-1.2329-1.0681-2.3669-1.9394-3.3296-.8714-.9626-1.9343-1.7325-3.1206-2.2604-4.82-2.23-11-.12-13.25 4.52l-.27.57h-.7c-.2079.0065-.4133-.0477-.5909-.156-.1776-.1084-.3197-.2661-.4091-.454-.8743-1.6405-2.1828-3.0091-3.7824-3.9561-1.5996-.9471-3.4288-1.4362-5.2876-1.4139z" fill="#bad8db"/><g fill="#ed6a5e"><path d="m13.0598 64.18c-.2031-.0034-.3968-.0859-.54-.23-7.86984-8.0312-12.350362-18.7809-12.51416909-30.0241-.16380691-11.2431 4.00164909-22.1188 11.63416909-30.37587.139-.11688.3156-.17937.4972-.17587.1815.0035.3557.07276.49.19491.1344.12215.2199.2889.2406.4693.0208.18041-.0247.36221-.1278.51166-7.37744 7.97547-11.4033 18.48387-11.24319 29.34707s4.49391 21.2483 12.10319 29.0029c.1411.1424.2202.3346.2202.535s-.0791.3927-.2202.535c-.0709.07-.1554.1248-.2483.1609s-.1921.0528-.2917.0491z"/><path d="m22.2902 54.9999c-.1001.0012-.1995-.0176-.2923-.0554-.0927-.0378-.1769-.0937-.2477-.1646-5.5024-5.6637-8.6168-13.226-8.6987-21.1221-.0819-7.896 2.8749-15.5213 8.2587-21.2979.0607-.088.1396-.162.2313-.217.0917-.0551.1941-.0899.3003-.1021s.2139-.0015.3157.0312c.1017.0328.1953.087.2745.159.0791.0719.1419.1599.1842.2581.0424.0982.0632.2044.0611.3113-.002.1069-.0269.2121-.073.3086s-.1123.1821-.1941.2509c-5.1218 5.4938-7.9357 12.7463-7.8594 20.2569.0763 7.5107 3.037 14.7045 8.2694 20.0931.1404.1406.2193.3313.2193.53 0 .1988-.0789.3894-.2193.53-.1401.1426-.3302.225-.53.23z"/><path d="m13.7994 67.0199c1.4856 0 2.69-1.2043 2.69-2.69 0-1.4856-1.2044-2.69-2.69-2.69-1.4857 0-2.69 1.2044-2.69 2.69 0 1.4857 1.2043 2.69 2.69 2.69z"/><path d="m13.7994 5.38c1.4856 0 2.69-1.20435 2.69-2.69s-1.2044-2.69-2.69-2.69c-1.4857 0-2.69 1.20435-2.69 2.69s1.2043 2.69 2.69 2.69z"/><path d="m23.4595 57.35c1.4857 0 2.69-1.2044 2.69-2.69 0-1.4857-1.2043-2.69-2.69-2.69-1.4856 0-2.69 1.2043-2.69 2.69 0 1.4856 1.2044 2.69 2.69 2.69z"/><path d="m23.4595 14.5099c1.4857 0 2.69-1.2043 2.69-2.69 0-1.4856-1.2043-2.69002-2.69-2.69002-1.4856 0-2.69 1.20442-2.69 2.69002 0 1.4857 1.2044 2.69 2.69 2.69z"/><path d="m83.5996 64.1801c-.0963.001-.1917-.017-.281-.0531-.0892-.036-.1705-.0894-.239-.1569-.1411-.1423-.2202-.3346-.2202-.535s.0791-.3927.2202-.535c7.5998-7.7562 11.9266-18.1374 12.0848-28.9951s-3.8642-21.3606-11.2348-29.33495c-.1032-.14945-.1486-.33125-.1278-.51166.0207-.1804.1062-.34715.2405-.4693.1344-.12215.3085-.19141.4901-.19491.1815-.0035.3582.05899.4972.17587 7.64 8.25995 11.8091 19.14275 11.6435 30.39305-.1657 11.2503-4.6536 22.0056-12.5335 30.037-.1499.1277-.3435.1922-.54.18z"/><path d="m74.3802 54.9999c-.197.0004-.3867-.0747-.53-.21-.1405-.1406-.2193-.3312-.2193-.53 0-.1987.0788-.3894.2193-.53 5.2324-5.3886 8.1931-12.5824 8.2694-20.093s-2.7376-14.7632-7.8594-20.257c-.0818-.0688-.148-.1543-.1941-.2508s-.071-.2018-.073-.3087c-.0021-.1069.0187-.213.0611-.3113.0423-.0982.1051-.1862.1842-.2581.0792-.072.1727-.1261.2745-.1589s.2094-.0435.3157-.0313c.1062.0122.2086.047.3003.1021.0917.055.1706.129.2313.217 5.3838 5.7766 8.3406 13.4019 8.2587 21.298-.0819 7.896-3.1963 15.4583-8.6987 21.122-.0717.0682-.1566.1211-.2494.1555-.0929.0344-.1917.0495-.2906.0445z"/><path d="m82.8599 67.0199c1.4857 0 2.69-1.2043 2.69-2.69 0-1.4856-1.2043-2.69-2.69-2.69-1.4856 0-2.69 1.2044-2.69 2.69 0 1.4857 1.2044 2.69 2.69 2.69z"/><path d="m82.8599 5.38c1.4857 0 2.69-1.20435 2.69-2.69s-1.2043-2.69-2.69-2.69c-1.4856 0-2.69 1.20435-2.69 2.69s1.2044 2.69 2.69 2.69z"/><path d="m73.1998 57.35c1.4856 0 2.69-1.2044 2.69-2.69 0-1.4857-1.2044-2.69-2.69-2.69-1.4857 0-2.69 1.2043-2.69 2.69 0 1.4856 1.2043 2.69 2.69 2.69z"/><path d="m73.1998 14.5099c1.4856 0 2.69-1.2043 2.69-2.69 0-1.4856-1.2044-2.69002-2.69-2.69002-1.4857 0-2.69 1.20442-2.69 2.69002 0 1.4857 1.2043 2.69 2.69 2.69z"/></g></svg>