<svg fill="none" height="91" viewBox="0 0 85 91" width="85" xmlns="http://www.w3.org/2000/svg"><path d="m47.7301 30.87c-.1107.0019-.2203-.0221-.32-.07-.0904-.0408-.1716-.0994-.2389-.1722s-.1193-.1583-.1528-.2516c-.0336-.0933-.0481-.1924-.0427-.2913.0055-.099.0308-.1959.0744-.2849.4017-.8491 1.0252-1.5741 1.8045-2.0985.7794-.5244 1.6859-.8287 2.6238-.8809s1.8725.1496 2.7053.5842 1.5328 1.0859 2.0264 1.8852c.0651.0832.1119.1792.1373.2817.0254.1026.0289.2093.0101.3133-.0187.1039-.0591.2028-.1187.29-.0595.0873-.1369.161-.2269.2162-.09.0553-.1907.091-.2954.1046-.1048.0137-.2112.0051-.3124-.0252-.1012-.0304-.1949-.0817-.2748-.1508-.08-.069-.1445-.1541-.1892-.2498-.3521-.5699-.8516-1.0342-1.4456-1.3437-.5941-.3096-1.2607-.453-1.9296-.4151-.6688.0379-1.3149.2557-1.8702.6304s-.9992.8924-1.2846 1.4984c-.0618.1281-.1583.2363-.2785.3123s-.2593.1168-.4015.1177z" fill="#bad8db"/><path d="m74.07 30.87c-.1422-.0009-.2814-.0417-.4016-.1177s-.2166-.1842-.2784-.3123c-.2879-.6034-.7327-1.1184-1.2878-1.491s-1.2002-.5891-1.8677-.6269-1.3329.1044-1.9265.4119c-.5937.3075-1.0938.7689-1.448 1.336-.0448.0957-.1092.1808-.1892.2498-.08.0691-.1736.1204-.2748.1508-.1012.0303-.2076.0389-.3124.0252-.1048-.0136-.2054-.0493-.2954-.1046-.0901-.0552-.1674-.1289-.2269-.2162-.0596-.0872-.1001-.1861-.1188-.29-.0187-.104-.0152-.2107.0102-.3133.0254-.1025.0722-.1985.1373-.2817.4935-.7993 1.1936-1.4506 2.0264-1.8852.8327-.4346 1.7674-.6364 2.7053-.5842s1.8443.3565 2.6237.8809 1.4028 1.2494 1.8046 2.0985c.0436.089.0689.1859.0743.2849.0055.0989-.009.198-.0426.2913s-.0855.1788-.1528.2516-.1486.1314-.2389.1722c-.0998.0479-.2093.0719-.32.07z" fill="#bad8db"/><path d="m81.0002 15.73h-40.17c-.9619.0026-1.8837.3859-2.5639 1.0661s-1.0635 1.602-1.0661 2.5639v27.14c.51.31 1 .64 1.5 1v-28.14c0-.5649.2244-1.1067.6239-1.5062.3994-.3994.9412-.6238 1.5061-.6238h40.17c.5649 0 1.1067.2244 1.5061.6238.3995.3995.6239.9413.6239 1.5062v40.12c0 .5649-.2244 1.1067-.6239 1.5061-.3994.3995-.9412.6239-1.5061.6239h-33c.1.5.19 1 .26 1.5h32.74c.9619-.0027 1.8837-.3859 2.5639-1.0661s1.0635-1.602 1.0661-2.5639v-40.12c-.0026-.9619-.3859-1.8837-1.0661-2.5639s-1.602-1.0635-2.5639-1.0661z" fill="#bad8db"/><path d="m60.8901 53.5499c-2.978-.0044-5.8724-.9847-8.2402-2.7908-2.3678-1.806-4.0783-4.3384-4.8698-7.2092-.0493-.188-.0551-.3848-.017-.5754.0382-.1906.1192-.37.237-.5246.1194-.1528.2708-.2776.4435-.3657.1728-.0881.3627-.1373.5565-.1443h23.75c.1942.0049.3848.0532.5578.1415.1731.0883.3242.2142.4422.3685.128.1532.2176.3348.2611.5296.0435.1949.0397.3973-.0111.5904-.7952 2.8671-2.5074 5.395-4.8748 7.1972s-5.2599 2.7796-8.2352 2.7828zm-11.59-10.11c.7533 2.4873 2.2869 4.6662 4.374 6.2148 2.0872 1.5486 4.6171 2.3846 7.216 2.3846 2.5988 0 5.1288-.836 7.2159-2.3846s3.6207-3.7275 4.3741-6.2148z" fill="#bad8db"/><g fill="#ed6a5e"><path d="m36.4 64.2999c1.0714 0 1.94-.8685 1.94-1.94 0-1.0714-.8686-1.94-1.94-1.94-1.0715 0-1.94.8686-1.94 1.94 0 1.0715.8685 1.94 1.94 1.94z"/><path d="m14.1392 64.2999c1.0715 0 1.94-.8685 1.94-1.94 0-1.0714-.8685-1.94-1.94-1.94-1.0714 0-1.94.8686-1.94 1.94 0 1.0715.8686 1.94 1.94 1.94z"/><path d="m25.3495 80.5699c-2.7192-.009-5.3795-.7926-7.6695-2.259-2.2899-1.4664-4.1146-3.5549-5.2605-6.021-.0835-.1816-.0915-.3891-.0221-.5766s.2105-.3398.3921-.4234c.1817-.0835.3891-.0915.5767-.0221.1875.0694.3398.2105.4233.3921 1.0174 2.2117 2.6477 4.0852 4.6974 5.3985 2.0498 1.3134 4.4332 2.0114 6.8676 2.0114 2.4345 0 4.8179-.698 6.8676-2.0114 2.0498-1.3133 3.68-3.1868 4.6974-5.3985.0866-.1788.2397-.3166.4266-.3838.187-.0673.3928-.0588.5734.0238.0903.041.1716.0994.2392.172s.1201.1578.1545.2508.05.1919.046.291c-.0041.0991-.0278.1964-.0697.2862-1.1479 2.4657-2.9748 4.5532-5.2666 6.0179s-4.9535 2.2459-7.6734 2.2521z"/><path d="m39.2597 74c-.1349.0004-.2674-.0356-.3836-.1043-.1162-.0686-.2117-.1673-.2764-.2857-.2512-.5381-.6289-1.0074-1.1008-1.3678-.4719-.3605-1.024-.6014-1.6092-.7022-.1974-.0178-.3797-.1129-.5071-.2647s-.1896-.3478-.1729-.5453c-.0004-.1011.0203-.2012.0607-.2939s.0996-.1761.1739-.2447c.0742-.0686.162-.1211.2576-.154.0956-.033.197-.0457.2978-.0374.8351.1227 1.6281.4461 2.3108.9425s1.2349 1.1509 1.6092 1.9075c.0872.1735.1047.3737.0489.5597-.0558.1859-.1806.3435-.3489.4403-.1058.079-.2295.1305-.36.15z"/><path d="m11.3101 74c-.1091-.0117-.2146-.0458-.31-.1-.1683-.0968-.2931-.2544-.3489-.4403-.0558-.186-.0383-.3862.0489-.5597.3591-.7627.8996-1.4259 1.5742-1.9314.6747-.5056 1.4629-.8381 2.2958-.9686.1873.0029.3668.0758.5031.2043.1363.1286.2195.3035.2333.4904s-.0428.3721-.1588.5193c-.1159.1472-.2827.2456-.4676.276-.5807.1138-1.1263.3633-1.5921.7283s-.8386.835-1.0879 1.3717c-.0653.1259-.1645.2311-.2865.3035-.1219.0725-.2617.1094-.4035.1065z"/><path d="m25.3596 42.49c-1.2829.0008-2.5637.1044-3.83.3099l1.76 1c-.0114.091-.0281.1811-.05.27.7-.06 1.41-.0999 2.12-.0999 4.4239-.002 8.7491 1.3078 12.4287 3.7637 3.6796 2.456 6.5484 5.9478 8.2436 10.0341 1.6953 4.0862 2.1409 8.5834 1.2805 12.9228-.8604 4.3395-2.9882 8.3264-6.1143 11.4567s-7.1101 5.2634-11.4484 6.1296c-4.3384.8663-8.8361.4267-12.9246-1.2631s-7.58421-4.5538-10.0451-8.2302c-2.4609-3.6763-3.77649-7.9997-3.78044-12.4236-.00557-2.5058.4137-4.9944 1.24-7.3601-.41.07-.81.15-1.23.21l-.08-1c-1.73313 4.7711-1.90021 9.9703-.47698 14.8428 1.42323 4.8724 4.36266 9.1643 8.39142 12.2522 4.0287 3.088 8.9369 4.8113 14.0118 4.9196s10.0522-1.404 14.209-4.3173 7.2766-7.0758 8.9065-11.8831c1.6298-4.8073 1.6847-10.0089.1567-14.8495s-4.5594-9.0681-8.6537-12.0685c-4.0944-3.0003-9.0387-4.6173-14.1147-4.6161z"/><path d="m2.32964 60.07-2.33000428-28.49c-.00644023-.1973.03801568-.3929.12908828-.568.091073-.1752.225696-.3239.390912-.432.17493-.1059.375514-.1618.580004-.1618.20448 0 .40506.0559.58.1618l22.39996 12.89v.48c-.08.05-1.63 13.13-20.95996 16.05zm-.77-27.89 2.13 26.16c15.57996-2.6 18.30996-11.89 18.76996-14.13z"/><path d="m2.53003 54.0801c-.12227-.001-.24247-.0316-.35041-.0891-.10793-.0574-.20041-.1401-.26959-.2409-.10127-.1605-.13698-.3538-.09976-.5399s.14454-.3508.29976-.4601c9.05997-6.2 9.99997-14.88 9.99997-15 .0227-.1972.1207-.378.2735-.5047.1527-.1267.3486-.1895.5465-.1753.1975.0202.3789.1179.5045.2716s.1851.3509.1655.5484c0 .38-1 9.44-10.65997 16-.11313.1051-.25668.1717-.41.19z"/></g><path d="m66.6599 51.8001c-.1806.0065-.3566-.0581-.49-.18-1.5089-1.2908-3.4293-2.0001-5.415-2.0001s-3.9061.7093-5.415 2.0001c-.0742.0659-.1608.1161-.2548.1478-.0939.0317-.1933.0442-.2922.0367-.0988-.0075-.1952-.0347-.2834-.0801-.0881-.0455-.1662-.1082-.2296-.1844-.1279-.152-.1911-.3482-.1762-.5463.015-.1981.1069-.3825.2562-.5137 1.7806-1.5232 4.0467-2.3602 6.39-2.3602 2.3432 0 4.6094.837 6.39 2.3602.0757.0635.1382.1414.1837.2292.0456.0877.0734.1836.0817.2821.0084.0985-.0028.1977-.0329.2919s-.0786.1814-.1425.2568c-.0711.0814-.1587.1467-.257.1915s-.205.0682-.313.0685z" fill="#bad8db"/><path d="m60.8701 8c-.1989 0-.3897-.07902-.5303-.21967-.1407-.14065-.2197-.33142-.2197-.53033v-6.5c0-.198912.079-.389678.2197-.53033.1406-.1406524.3314-.21967.5303-.21967s.3897.0790176.5303.21967c.1407.140652.2197.331418.2197.53033v6.5c-.0026.19811-.0824.38737-.2225.52747-.1401.14009-.3294.21994-.5275.22253z" fill="#bad8db"/><path d="m67.07 9.33996c-.0988.00223-.197-.01618-.2882-.05406-.0913-.03789-.1737-.0944-.2418-.16594-.0708-.06894-.127-.15136-.1654-.24238-.0384-.09103-.0582-.18882-.0582-.28762 0-.09879.0198-.19658.0582-.28761.0384-.09102.0946-.17344.1654-.24238l4.22-4.22001c.1422-.13248.3302-.2046.5245-.20117s.3797.08214.5171.21955c.1374.13742.2161.3228.2195.5171.0035.1943-.0686.38235-.2011.52452l-4.22 4.22c-.0693.07012-.1518.12569-.2428.16347s-.1887.057-.2872.05653z" fill="#bad8db"/><path d="m54.8398 9.33991c-.0987.00103-.1965-.01793-.2876-.05574-.091-.03781-.1735-.09369-.2424-.16426l-4.11-4.12c-.123-.13751-.191-.31552-.191-.5s.068-.36249.191-.5c.1435-.1387.3354-.21622.535-.21622s.3914.07752.535.21622l4.1 4.1c.1404.14063.2193.33125.2193.53s-.0789.38937-.2193.53c-.1463.12708-.3366.19171-.53.18z" fill="#bad8db"/></svg>