<svg fill="none" height="81" viewBox="0 0 83 81" width="83" xmlns="http://www.w3.org/2000/svg"><path d="m35.3966 34.1091c.9979 0 1.8068-.8089 1.8068-1.8067 0-.9979-.8089-1.8068-1.8068-1.8068-.9977 0-1.8068.8089-1.8068 1.8068 0 .9978.8091 1.8067 1.8068 1.8067z" fill="#ed6a5e"/><path d="m39.5704 43.0258c-.0056.2574-.1077.5033-.286.6889-.1827.1826-.4306.2852-.6889.2852-.2584 0-.5061-.1026-.6889-.2852l-5.2773-5.2643-5.1993 5.2643c-.1848.1722-.4292.2661-.6817.2615-.2526-.0044-.4936-.1067-.6722-.2853s-.281-.4195-.2854-.6721.0893-.4971.2615-.6819l6.6421-6.6421 6.5901 6.6421c.1783.1858.2804.4317.286.6889z" fill="#ed6a5e"/><path d="m49.9688 40.4262c-.0056.2573-.1076.5033-.286.6889-.1827.1826-.4306.2852-.6889.2852-.2584 0-.5061-.1026-.6889-.2852l-5.2773-5.2643-5.1992 5.2643c-.1849.1722-.4293.2661-.6818.2615-.2526-.0044-.4935-.1067-.6721-.2853s-.2811-.4196-.2855-.6721c-.0044-.2526.0893-.4971.2615-.6819l6.6421-6.6421 6.5901 6.6421c.1784.1857.2804.4316.286.6889z" fill="#ed6a5e"/><path d="m62.0711 11.7251h-48.041c-.8008 0-1.45.6492-1.45 1.45v57.1612c0 .8008.6492 1.45 1.45 1.45h48.041c.8008 0 1.45-.6492 1.45-1.45v-57.1612c0-.8008-.6492-1.45-1.45-1.45z" stroke="#bad8db" stroke-width="1.5"/><path d="m56.3711 17.4253h-36.6408c-.8008 0-1.45.6492-1.45 1.45v36.6408c0 .8008.6492 1.45 1.45 1.45h36.6408c.8008 0 1.45-.6492 1.45-1.45v-36.6408c0-.8008-.6492-1.45-1.45-1.45z" stroke="#bad8db" stroke-width="1.5"/><path clip-rule="evenodd" d="m66.2828 64.9229-2.0113-.3653v-1.5245l2.2794.4139c.3803.0691.7447-.1832.8138-.5636l6.5473-36.0511c.0691-.3804-.1832-.7447-.5636-.8138l-9.0769-1.6485v-1.5245l9.3449 1.6971c1.1955.2171 1.9886 1.3623 1.7715 2.5577l-6.5474 36.0511c-.2171 1.1955-1.3622 1.9886-2.5577 1.7715z" fill="#bad8db" fill-rule="evenodd"/><path clip-rule="evenodd" d="m69.2424 80.5231-43.9768-7.9868h8.3944l35.8505 6.511c.3804.069.7447-.1833.8138-.5637l10.2142-56.2412c.069-.3804-.1833-.7447-.5637-.8138l-15.7038-2.852v-1.5246l15.9718 2.9007c1.1955.2171 1.9886 1.3623 1.7715 2.5577l-10.2141 56.2412c-.2172 1.1955-1.3623 1.9886-2.5578 1.7715z" fill="#bad8db" fill-rule="evenodd"/><g fill="#ed6a5e"><path d="m3.13529 27.6456c.47221 0 .85501-.3828.85501-.855v-24.51053c0-.47221-.3828-.85502-.85501-.85502-.47222 0-.85502.38281-.85502.85502v24.51053c0 .4722.3828.855.85502.855z"/><path d="m2.28027 2.28006c0 .47222.38281.85502.85502.85502h24.51051c.4722 0 .855-.3828.855-.85502 0-.47221-.3828-.85501-.855-.85501h-24.51051c-.47221 0-.85502.3828-.85502.85501z"/><path d="m1.13525 26.8486 3.94915-.0097-1.9662 3.4249z"/><path d="m30.2108 2.28001-3.416 1.98164-.0082-3.94915z"/></g></svg>