<svg fill="none" height="93" viewBox="0 0 68 93" width="68" xmlns="http://www.w3.org/2000/svg"><g fill="#bad8db"><path d="m40.4497 23.8301h-11.62l-1.37-4.83c-.053-.1923-.0275-.3977.0709-.5712.0985-.1735.2618-.3007.4541-.3538.1923-.053.3978-.0275.5712.071.1735.0984.3008.2617.3538.454l1.09 3.73h9.34l1.06-3.76c.053-.1923.1803-.3556.3538-.454.1734-.0985.3789-.124.5712-.071.1923.0531.3556.1803.4541.3538.0984.1735.1239.3789.0709.5712z"/><path d="m34.4001 19.5201c-7.63 0-13.94-.85-18.25-2.44-5.63-2.09-6.82002-5-6.82002-7 0-2.36002 1.78002-10.0000219 24.60002-10.0000219 1.23 0 2.51 0 3.82.0699999 11.33.42 29.37 5.150002 29.37 10.000022 0 4.41-16.57 9.05-29.42 9.42-1.13-.07-2.24-.05-3.3-.05zm-.47-18.00002c-17 0-23.1 4.6-23.1 8.55002 0 2.26 2 4.2 5.85 5.62 4.14 1.52 10.32 2.31 17.72 2.31 1.05 0 2.14 0 3.26-.05 13.87-.4 28-5.37 28-7.92 0-2.88002-15.25-8.00002-27.93-8.48002-1.33-.03-2.59-.05-3.8-.05z"/><path d="m35 32.3601c-.1981-.0026-.3874-.0824-.5275-.2225s-.2199-.3294-.2225-.5275v-8.53c0-.1989.079-.3897.2197-.5303.1406-.1407.3314-.2197.5303-.2197s.3897.079.5303.2197c.1407.1406.2197.3314.2197.5303v8.53c-.0026.1981-.0824.3874-.2225.5275s-.3294.2199-.5275.2225z"/><path d="m39.14 36.4901c-.1985-.0023-.3883-.0812-.53-.22l-3.61-3.6001-3.6 3.6001c-.1422.1325-.3303.2045-.5246.2011-.1943-.0035-.3796-.0822-.5171-.2196-.1374-.1374-.2161-.3227-.2195-.517s.0687-.3824.2012-.5246l4.66-4.66 4.66 4.66c.1404.1406.2193.3313.2193.5301 0 .1987-.0789.3893-.2193.53-.1403.1349-.3255.2132-.52.22z"/><path d="m34.5795 19.5201c-7.62 0-13.93-.85-18.24-2.44-5.64-2.09-6.81997-5-6.81997-7 0-2.36002 1.76997-10.0000219 24.59997-10.0000219 1.22 0 2.51 0 3.81.0699999 7.7733.351484 15.4463 1.896202 22.75 4.580002l3.18-3.18h2.91v7c.3301.44011.5185.97026.54 1.52002-.0227.5312-.2116 1.0419-.54 1.46v7.47h-2.91l-3.64-3.64c-7.195 2.4838-14.7223 3.8726-22.33 4.12-1.14.02-2.24.04-3.31.04zm-.46-18.00002c-17 0-23.1 4.6-23.1 8.55002 0 2.26 2 4.2 5.84 5.62 4.14 1.52 10.27 2.31 17.72 2.31 1.05 0 2.14 0 3.27-.05 7.6013-.2419 15.1198-1.6552 22.29-4.19l.45-.18 3.89 3.89h.79v-6.47l.17-.21c.1992-.1928.3292-.4458.37-.72-.0367-.30079-.1701-.5815-.38-.80002l-.16-.2v-6h-.79l-3.48 3.43-.46-.19c-7.262-2.74482-14.9066-4.34392-22.66-4.74-1.29-.05-2.56-.07-3.76-.07z"/><path d="m66.3701 10.8001h-56.29c-.19893 0-.3897-.079-.53035-.2197-.14065-.1406-.21967-.3314-.21967-.5303 0-.19896.07902-.38973.21967-.53038.14065-.14066.33142-.21967.53035-.21967h56.29c.1989 0 .3897.07901.5303.21967.1407.14065.2197.33142.2197.53038 0 .1989-.079.3897-.2197.5303-.1406.1407-.3314.2197-.5303.2197z"/><path d="m16.33 92.54h-16.33v-16.33h16.33zm-14.83-1.54h13.33v-13.29h-13.33z"/><path d="m31.1601 92.54h-16.33v-16.33h16.33zm-14.83-1.54h13.33v-13.29h-13.33z"/><path d="m46.0002 92.54h-16.34v-16.33h16.34zm-14.84-1.54h13.34v-13.29h-13.34z"/><path d="m16.33 77.7101h-16.33v-16.33h16.33zm-14.83-1.5h13.33v-13.33h-13.33z"/></g><path d="m57.2502 51.32h-16.34v-16.32h16.34zm-14.84-1.5h13.34v-13.33h-13.34z" fill="#ed6a5e"/><path d="m27.58 51.32h-16.33v-16.32h16.33zm-14.83-1.5h13.33v-13.33h-13.33z" fill="#ed6a5e"/><path d="m42.4101 51.32h-16.33v-16.32h16.33zm-14.83-1.5h13.33v-13.33h-13.33z" fill="#ed6a5e"/><path d="m42.4101 66.55h-16.33v-16.33h16.33zm-14.83-1.5h13.33v-13.33h-13.33z" fill="#ed6a5e"/></svg>