<svg width="90" height="74" viewBox="0 0 90 74" fill="none" xmlns="http://www.w3.org/2000/svg">
<path d="M80.1954 53.9967H79.4454V54.7467H80.1954V53.9967ZM88.0959 53.9967L88.6866 54.4587L89.6345 53.2467H88.0959V53.9967ZM82.2698 61.4925L82.8627 61.9519L82.2698 61.4925ZM65.4465 62.9228L64.8537 63.3823L65.4465 62.9228ZM58.4691 53.9967V53.2467H56.9123L57.8826 54.4641L58.4691 53.9967ZM66.3695 53.9967V54.7467H67.1195V53.9967H66.3695ZM79.6884 36.25H66.8766V37.75H79.6884V36.25ZM80.9454 37.7466C80.9454 37.4102 80.8541 37.0724 80.6673 36.7974C80.4833 36.5264 80.1507 36.25 79.6884 36.25V37.75C79.6038 37.75 79.5347 37.7236 79.4892 37.6953C79.4467 37.6688 79.4291 37.644 79.4264 37.64C79.4231 37.6352 79.4454 37.6707 79.4454 37.7466H80.9454ZM80.9454 53.9967V37.7466H79.4454V53.9967H80.9454ZM88.0959 53.2467H80.1954V54.7467H88.0959V53.2467ZM82.8627 61.9519C84.6882 59.5955 86.6692 57.0385 88.6866 54.4587L87.5051 53.5347C85.4852 56.1175 83.5021 58.6772 81.6769 61.0332L82.8627 61.9519ZM73.2825 73.3796C73.4782 73.3796 73.6242 73.3062 73.6755 73.2791C73.7447 73.2427 73.8028 73.2014 73.8448 73.1693C73.93 73.1041 74.017 73.0236 74.0991 72.9425C74.2667 72.7769 74.477 72.5455 74.7201 72.2648C75.2093 71.6999 75.8726 70.8874 76.6703 69.8868C78.2672 67.8836 80.428 65.0945 82.8627 61.9519L81.6769 61.0332C79.2395 64.1793 77.0862 66.9587 75.4973 68.9518C74.702 69.9494 74.0545 70.7421 73.5862 71.2828C73.3505 71.5549 73.1704 71.7514 73.0448 71.8755C72.9802 71.9393 72.945 71.9691 72.9334 71.9779C72.9269 71.9829 72.943 71.9696 72.9766 71.9519C72.9924 71.9436 73.1092 71.8796 73.2825 71.8796V73.3796ZM64.8537 63.3823C66.866 65.9788 68.7503 68.4102 70.1707 70.1923C70.8801 71.0823 71.4797 71.8179 71.9243 72.3335C72.1451 72.5895 72.3374 72.8026 72.4906 72.9559C72.5654 73.0308 72.6457 73.1063 72.7246 73.1681C72.7633 73.1984 72.8183 73.2387 72.8845 73.2748C72.9296 73.2994 73.0792 73.3796 73.2825 73.3796V71.8796C73.4662 71.8796 73.59 71.951 73.6032 71.9582C73.6376 71.9769 73.6547 71.9913 73.6496 71.9872C73.6409 71.9804 73.61 71.954 73.5514 71.8954C73.4378 71.7817 73.2741 71.6018 73.0602 71.3538C72.6355 70.8613 72.0507 70.1445 71.3437 69.2574C69.9312 67.4851 68.0541 65.0632 66.0394 62.4634L64.8537 63.3823ZM57.8826 54.4641C60.0436 57.1756 62.5347 60.3899 64.8537 63.3823L66.0394 62.4634C63.722 59.4732 61.2243 56.2503 59.0556 53.5293L57.8826 54.4641ZM66.3695 53.2467H58.4691V54.7467H66.3695V53.2467ZM65.6195 37.7466V53.9967H67.1195V37.7466H65.6195ZM66.8766 36.25C66.4142 36.25 66.0816 36.5264 65.8976 36.7974C65.7108 37.0724 65.6195 37.4102 65.6195 37.7466H67.1195C67.1195 37.6707 67.1418 37.6352 67.1385 37.64C67.1358 37.644 67.1182 37.6688 67.0757 37.6953C67.0302 37.7236 66.9611 37.75 66.8766 37.75V36.25Z" fill="#BAD8DB"/>
<path fill-rule="evenodd" clip-rule="evenodd" d="M37 72.5C46.1119 72.5 54.422 69.067 60.7075 63.424C61.0195 63.8264 61.3272 64.2231 61.6292 64.6122C55.0877 70.4511 46.4583 74 37 74C16.5655 74 0 57.4345 0 37C0 16.5655 16.5655 0 37 0C56.0449 0 71.7291 14.3891 73.7742 32.8889H72.2645C70.2269 15.2194 55.2156 1.5 37 1.5C17.3939 1.5 1.5 17.3939 1.5 37C1.5 56.6061 17.3939 72.5 37 72.5Z" fill="#ED6A5E"/>
<path fill-rule="evenodd" clip-rule="evenodd" d="M37.4408 36.1069C37.4797 36.1138 37.5185 36.1236 37.5569 36.1364C37.8016 36.218 38.1236 36.3068 38.4992 36.4104H38.4993C39.7119 36.745 41.483 37.2337 43.0157 38.1288C45.1168 39.356 46.9086 41.3924 46.9085 44.8978C46.9085 48.5424 43.8034 51.3446 40.0808 52.4301C36.325 53.5253 31.7206 52.9589 28.4421 49.696C28.1509 49.4062 28.1702 48.9491 28.4852 48.6751C28.8002 48.401 29.2917 48.4138 29.5829 48.7037C32.3946 51.502 36.3498 52.0091 39.6311 51.0523C42.9455 50.0858 45.3549 47.7105 45.3549 44.914C45.355 41.9784 43.908 40.3645 42.1787 39.3544C40.845 38.5755 39.4137 38.1796 38.2199 37.8494C37.8645 37.7511 37.5302 37.6586 37.2258 37.5636C37.1869 37.5567 37.1481 37.5469 37.1097 37.5341C36.865 37.4526 36.543 37.3637 36.1675 37.2601H36.1673C34.9547 36.9255 33.1836 36.4368 31.651 35.5417C29.5499 34.3145 27.7581 32.2781 27.7581 28.7727C27.7581 25.1281 30.8633 22.3259 34.5859 21.2404C38.3417 20.1452 42.9461 20.7117 46.2245 23.9745C46.5158 24.2643 46.4965 24.7214 46.1814 24.9954C45.8664 25.2695 45.3749 25.2567 45.0837 24.9668C42.272 22.1685 38.3168 21.6614 35.0356 22.6182C31.7211 23.5847 29.3117 25.9601 29.3117 28.7565C29.3117 31.6921 30.7586 33.3061 32.488 34.3161C33.8216 35.095 35.253 35.4909 36.4468 35.8211L36.4469 35.8212C36.8022 35.9194 37.1365 36.0119 37.4408 36.1069Z" fill="#ED6A5E"/>
<path d="M37.6097 15.5498V21.0611" stroke="#ED6A5E" stroke-width="1.5" stroke-linecap="round"/>
<path d="M37.6097 52.6099V58.1212" stroke="#ED6A5E" stroke-width="1.5" stroke-linecap="round"/>
</svg>
