<svg fill="none" height="74" viewBox="0 0 104 74" width="104" xmlns="http://www.w3.org/2000/svg"><path d="m19.28 44.9h-17.08c-.18565 0-.3637-.0738-.49497-.205-.13128-.1313-.20503-.3093-.20503-.495v-20.2h17.78v-1.5h-17.78v-20.3c.00259-.18485.07717-.3614.20788-.49212.13072-.13071.30727-.20529.49212-.20788h20.25v19.24h1.55v-19.24h20.2c.0919 0 .183.01811.2679.05328.0849.03518.1621.08674.2271.15175.065.065.1165.14216.1517.22709s.0533.17595.0533.26788v18.54h1.5v-18.54c-.0026-.58267-.2353-1.14072-.6473-1.552728-.412-.412012-.97-.64464141-1.5527-.647272h-42c-.58267.00263059-1.14072.23526-1.552728.647272-.412012.412008-.64464141.970058-.647272 1.552728v42c0 .5835.231785 1.1431.644365 1.5556.204289.2043.446815.3664.713735.4769.26691.1106.55299.1675.8419.1675h17.08z" fill="#ed6a5e"/><path d="m26.4095 27.5901c.7677 0 1.39-.6223 1.39-1.39s-.6223-1.39-1.39-1.39c-.7676 0-1.39.6223-1.39 1.39s.6224 1.39 1.39 1.39z" fill="#ed6a5e"/><path d="m99.36 54.7499h-20.91c-.9813 0-1.9224-.3898-2.6163-1.0837s-1.0837-1.635-1.0837-2.6163v-40.71c0-.98131.3898-1.92242 1.0837-2.6163.6939-.69389 1.635-1.08371 2.6163-1.08371h20.91c.981 0 1.922.38982 2.616 1.08371.694.69388 1.084 1.63499 1.084 2.6163v40.71c0 .9813-.39 1.9224-1.084 2.6163s-1.635 1.0837-2.616 1.0837zm-20.91-46.61c-.5827.00263-1.1407.23526-1.5527.64727s-.6447.97006-.6473 1.55273v40.71c.0026.5827.2353 1.1407.6473 1.5527.412.4121.97.6447 1.5527.6473h20.91c.5827-.0026 1.141-.2352 1.553-.6473.412-.412.644-.97.647-1.5527v-40.71c-.003-.58267-.235-1.14072-.647-1.55273s-.9703-.64464-1.553-.64727z" fill="#bad8db"/><path d="m90.0003 54v17.87h-70v-39.42h55.5v-1.45h-55.5v-9.51h55.5v-1.49h-55.64c-.1742-.0013-.3469.0319-.5082.0976-.1613.0658-.308.1628-.4317.2855-.1236.1227-.2217.2687-.2887.4295s-.1014.3332-.1014.5074v50.73c0 .1742.0344.3467.1014.5075s.1651.3068.2887.4295c.1237.1227.2704.2197.4317.2854.1613.0658.334.099.5082.0976h70.33c.351.0001.6878-.1387.9369-.386.2492-.2472.3904-.583.3931-.934v-18.05z" fill="#bad8db"/><path d="m99.36 54.7499h-20.91c-.9813 0-1.9224-.3898-2.6163-1.0837s-1.0837-1.635-1.0837-2.6163v-40.71c0-.98131.3898-1.92242 1.0837-2.6163.6939-.69389 1.635-1.08371 2.6163-1.08371h20.91c.981 0 1.922.38982 2.616 1.08371.694.69388 1.084 1.63499 1.084 2.6163v40.71c0 .9813-.39 1.9224-1.084 2.6163s-1.635 1.0837-2.616 1.0837zm-20.91-46.61c-.5827.00263-1.1407.23526-1.5527.64727s-.6447.97006-.6473 1.55273v40.71c.0026.5827.2353 1.1407.6473 1.5527.412.4121.97.6447 1.5527.6473h20.91c.5827-.0026 1.141-.2352 1.553-.6473.412-.412.644-.97.647-1.5527v-40.71c-.003-.58267-.235-1.14072-.647-1.55273s-.9703-.64464-1.553-.64727z" fill="#bad8db"/><g fill="#ed6a5e"><path d="m94.56 13.5901h-11.31c-.1989 0-.3897-.079-.5303-.2196-.1407-.1407-.2197-.3315-.2197-.5304s.079-.3897.2197-.5303c.1406-.1407.3314-.2197.5303-.2197h11.31c.1989 0 .3897.079.5303.2197.1407.1406.2197.3314.2197.5303s-.079.3897-.2197.5304c-.1406.1406-.3314.2196-.5303.2196z"/><path d="m59.5697 55.77c-.198-.0043-.3872-.0828-.53-.22-.1405-.1406-.2194-.3313-.2194-.53 0-.1988.0789-.3894.2194-.53l4.05-4.06-4.05-4c-.1325-.1422-.2047-.3302-.2012-.5245.0034-.1943.0821-.3797.2195-.5171s.3228-.2162.5171-.2196.3824.0687.5246.2012l5.11 5.11-5.11 5.07c-.1429.1372-.3321.2157-.53.22z"/><path d="m47.4898 55.7699c-.1988-.0002-.3894-.0793-.53-.22l-5.12-5.12 5.16-5.11c.1461-.083.3158-.1146.4819-.0897s.3191.1048.4344.227.1862.2796.2014.4469-.0263.3348-.1177.4758l-4.06 4 4.06 4.11c.1405.1406.2194.3312.2194.53s-.0789.3894-.2194.53c-.1377.1326-.3189.2108-.51.22z"/><path d="m51.0997 58.8199c-.0797.0096-.1603.0096-.24 0-.0992-.0312-.1909-.0825-.2694-.1506-.0786-.0681-.1423-.1516-.1873-.2454-.045-.0937-.0703-.1957-.0743-.2996s.0133-.2075.051-.3044l4.8-14.66c.0222-.1023.0657-.1989.1276-.2834.0618-.0846.1407-.1552.2315-.2074s.1916-.0848.2957-.0957c.1042-.0109.2095.0002.3092.0325.0996.0322.1914.085.2694.1549.078.07.1405.1554.1835.251.0429.0955.0654.199.0659.3037.0006.1047-.0208.2084-.0628.3044l-4.79 14.68c-.0498.1496-.1449.2801-.2721.3732-.1272.0932-.2803.1445-.4379.1468z"/></g></svg>