<svg fill="none" height="89" viewBox="0 0 89 89" width="89" xmlns="http://www.w3.org/2000/svg"><path d="m75.3403 73.7499c-.2014-.0018-.3946-.0805-.54-.22-.1404-.1406-.2193-.3313-.2193-.53 0-.1988.0789-.3894.2193-.53 6.7115-6.6899 10.9359-15.4721 11.9732-24.8914s-1.1748-18.9103-6.2696-26.9004c-5.0949-7.9901-12.7668-13.99964-21.7445-17.03289-8.9777-3.033241-18.7222-2.908111-27.6191.35466-2.3258.8806-4.5709 1.96132-6.71 3.23-.0785.08584-.1759.15223-.2845.19393s-.2255.05757-.3412.04634c-.1158-.01124-.2274-.04925-.326-.11104-.0986-.0618-.1814-.14568-.242-.24501s-.0972-.21138-.107-.32731.0075-.23254.0506-.34063c.043-.10808.1106-.20467.1974-.28213.0868-.07745.1905-.13365.3027-.16415 2.2272-1.32609 4.5702-2.44735 7-3.35 9.2036-3.332304 19.2677-3.430264 28.5344-.27774 9.2667 3.15252 17.1831 9.36747 22.4452 17.62097s7.5559 18.0532 6.5035 27.7848c-1.0524 9.7315-5.3882 18.8142-12.2931 25.752-.1428.1372-.332.2157-.53.22z" fill="#ed6a5e"/><path d="m44.1405 88.3699c-8.5264.0195-16.8665-2.4934-23.9629-7.2199-7.0964-4.7266-12.62938-11.454-15.8975-19.3291-3.26811-7.8752-4.124105-16.5435-2.45945-24.9058 1.66465-8.3623 5.77497-16.0419 11.80985-22.0652.1406-.1404.3312-.2193.53-.2193.1987 0 .3893.0789.53.2193.0707.069.1269.1514.1653.2424s.0582.1888.0582.2876-.0198.1966-.0582.2876c-.0384.0911-.0946.1735-.1653.2424-6.70767 6.6904-10.92816 15.4717-11.96224 24.8889s1.18034 18.9051 6.27633 26.8915c5.09601 7.9865 12.76771 13.9922 21.74391 17.0221 8.9763 3.0298 18.7183 2.9019 27.612-.3625 2.323-.8796 4.5649-1.9603 6.6999-3.23.1724-.1008.3778-.1289.571-.0783.1931.0506.3583.1759.459.3483.1008.1724.129.3778.0784.5709-.0507.1932-.176.3583-.3484.4591-2.2138 1.3184-4.5395 2.4394-6.9499 3.35-4.72 1.7224-9.7057 2.6024-14.73 2.6z" fill="#ed6a5e"/><path d="m83.3103 74.7998h-9.49v-9.48c0-.1989.079-.3897.2197-.5303.1406-.1407.3314-.2197.5303-.2197s.3897.079.5303.2197c.1407.1406.2197.3314.2197.5303v8h8c.1989 0 .3897.079.5303.2197.1407.1406.2197.3314.2197.5303s-.079.3897-.2197.5303c-.1406.1407-.3314.2197-.5303.2197z" fill="#ed6a5e"/><path d="m15 24.4099c-.1989 0-.3897-.079-.5303-.2197-.1407-.1406-.2197-.3314-.2197-.5303v-8h-8c-.19891 0-.38968-.079-.53033-.2197-.14065-.1406-.21967-.3314-.21967-.5303s.07902-.3897.21967-.5304c.14065-.1406.33142-.2196.53033-.2196h9.48v9.48c.004.0988-.0118.1974-.0466.2901-.0347.0926-.0877.1773-.1558.2491-.068.0717-.1498.1292-.2404.1688s-.1883.0607-.2872.062z" fill="#ed6a5e"/><g fill="#bad8db"><path d="m61.2501 54.6398c-1.4783-.0003-2.9304-.3906-4.2095-1.1317s-2.3401-1.8066-3.0756-3.089c-.7355-1.2823-1.1196-2.7361-1.1134-4.2144.0061-1.4783.4023-2.9288 1.1485-4.2049l.38-.74c1.016-1.7495 1.552-3.7362 1.5539-5.7593s-.5304-4.0109-1.5431-5.7623-2.4698-3.2043-4.2241-4.212c-1.7543-1.0076-3.7436-1.5342-5.7667-1.5264h-.4c-1.9861.063-3.9218.64-5.6183 1.6747-1.6965 1.0346-3.0956 2.4915-4.0608 4.2285-.9652 1.7369-1.4634 3.6944-1.446 5.6814.0173 1.9871.5497 3.9356 1.5451 5.6554l.37.73c.0857.1727.1034.3713.0497.5564-.0537.1852-.1749.3435-.3397.4436-.0823.05-.1739.083-.2692.097s-.1925.0087-.2858-.0156c-.0932-.0242-.1806-.0669-.2571-.1256-.0764-.0586-.1403-.132-.1879-.2158 0 0 0-.08 0-.09l-.36-.7c-1.1114-1.9732-1.6881-4.2024-1.673-6.467s.6215-4.4859 1.7592-6.444c1.1377-1.9582 2.7672-3.5851 4.7271-4.7198 1.9598-1.1346 4.1821-1.7376 6.4467-1.7492h.75c2.2122.1293 4.3545.8219 6.2237 2.0121 1.8692 1.1901 3.4031 2.8383 4.4561 4.7881 1.053 1.9497 1.5902 4.1362 1.5604 6.3519-.0297 2.2157-.6253 4.3871-1.7302 6.3079l-.41.77c-.7219 1.2226-1.0491 2.6381-.9369 4.0535s.6583 2.7617 1.5638 3.8554c.9055 1.0936 2.1263 1.8812 3.496 2.2554 1.3696.3743 2.8213.3169 4.1571-.1643.0933-.0329.1921-.047.2908-.0416.0987.0053.1954.03.2845.0728.0891.0427.169.1025.235.1761s.1169.1594.1497.2527c.0329.0932.047.192.0416.2907-.0053.0987-.03.1954-.0727.2845-.0428.0892-.1026.169-.1762.2351-.0736.066-.1594.1168-.2527.1497-.8946.3059-1.8345.4581-2.78.45z"/><path d="m27.5399 54.64c-.9401.0025-1.8737-.1565-2.76-.47-.0994-.0273-.1921-.0748-.2723-.1395-.0803-.0648-.1463-.1453-.194-.2367s-.076-.1917-.0832-.2945c-.0073-.1028.0068-.206.0412-.3032.0345-.0972.0886-.1862.159-.2615s.1556-.1353.2502-.1762.1966-.0619.2997-.0616c.1031.0002.205.0218.2994.0632 1.3341.4688 2.7798.5169 4.1422.1381 1.3623-.3789 2.5756-1.1666 3.4761-2.2568s1.4449-2.4304 1.5596-3.8398c.1148-1.4093-.2056-2.82-.9179-4.0415-.0994-.1724-.1263-.3772-.0748-.5695.0516-.1922.1774-.356.3498-.4555s.3773-.1264.5695-.0748.3561.1774.4555.3498c.7384 1.2788 1.1265 2.7297 1.1254 4.2064-.0011 1.4766-.3914 2.9269-1.1317 4.2046s-1.8043 2.3377-3.0848 3.0732c-1.2805.7354-2.7322 1.1203-4.2089 1.1158z"/><path d="m61.18 60.6799c-3.0783-.0139-6.0993-.8335-8.7625-2.3774s-4.8758-3.7582-6.4175-6.4226c-.0948-.1689-.1196-.3682-.0691-.5551.0504-.187.1722-.3467.3391-.4449.1694-.0922.3679-.1157.5541-.0654s.3459.1704.4459.3354c1.419 2.4356 3.4523 4.4562 5.8967 5.8601 2.4445 1.4038 5.2144 2.1417 8.0333 2.1399.1989 0 .3897.079.5303.2197.1407.1406.2197.3314.2197.5303s-.079.3897-.2197.5303c-.1406.1407-.3314.2197-.5303.2197z"/><path d="m39.2998 63.5399c-.1657.0013-.3271-.0523-.4591-.1525-.132-.1001-.2272-.2412-.2706-.4011s-.0326-.3296.0307-.4828c.0632-.1531.1754-.281.319-.3636 2.3518-1.4046 4.4206-3.236 6.1-5.4.122-.1578.3017-.2607.4996-.286.1978-.0254.3976.029.5554.151s.2607.3017.286.4995c.0253.1979-.029.3977-.151.5555-1.7977 2.3101-4.0084 4.2665-6.52 5.77-.1182.0699-.2526.1078-.39.11z"/><path d="m27.6396 60.6798c-.1989 0-.3896-.0789-.5303-.2197-.1406-.1406-.2197-.3314-.2197-.5303s.0791-.3897.2197-.5303c.1407-.1407.3314-.2197.5303-.2197 2.8189.0018 5.5889-.7361 8.0333-2.1399s4.4777-3.4245 5.8967-5.8601c.1-.165.2597-.2851.446-.3353.1862-.0503.3846-.0269.554.0653.1669.0982.2887.2579.3392.4449s.0256.3862-.0692.5551c-1.5472 2.6618-3.7645 4.8719-6.4313 6.4106-2.6667 1.5386-5.6899 2.3521-8.7687 2.3594z"/><path d="m49.2701 40.6398c.7953 0 1.44-.6447 1.44-1.4399 0-.7953-.6447-1.4401-1.44-1.4401s-1.44.6448-1.44 1.4401c0 .7952.6447 1.4399 1.44 1.4399z"/><path d="m39.7701 40.6398c.7953 0 1.44-.6447 1.44-1.4399 0-.7953-.6447-1.4401-1.44-1.4401s-1.44.6448-1.44 1.4401c0 .7952.6447 1.4399 1.44 1.4399z"/></g></svg>