<svg fill="none" height="79" viewBox="0 0 103 79" width="103" xmlns="http://www.w3.org/2000/svg"><g fill="#bad8db"><path d="m88.64 47.0601h-33.64v-44.68998zm-32.14-1.5h29.13l-29.13-38.70998z"/><path d="m36.2803 45.5601h53.11v1.5h-53.11z"/><path d="m56.5007 47.0599h-19.24l19.24-37.66zm-16.79-1.5h15.29v-29.92z"/><path d="m37.7203 63.1c-.4583-.7726-.7065-1.6517-.72-2.55v-5.63h50.4l-3.4 6.24c-.5104.6725-1.0902 1.2893-1.73 1.84.75 0 1.44 0 2.09.06.2991-.3168.5795-.6507.84-1l4-7.24c.0764-.1402.1149-.298.1118-.4577-.003-.1597-.0476-.3158-.1293-.453-.0818-.1373-.1978-.2509-.3368-.3296-.1389-.0788-.296-.12-.4557-.1197h-52.86v7.13c-.0016.9515.1996 1.8924.59 2.76.5-.12 1.03-.19 1.6-.25z"/><path d="m61.6202 66.6601c2.4274.0446 4.8496-.2414 7.2-.85h-14.41c2.3537.6086 4.7792.8945 7.21.85z"/></g><path d="m102.7 67.4101c-3.6022.0785-7.1831-.5677-10.5304-1.9-3.1735-1.285-6.5772-1.9045-10-1.82-3.4228-.0845-6.8265.535-10 1.82-3.3437 1.3326-6.9214 1.9788-10.52 1.9-3.6018.0785-7.1827-.5677-10.53-1.9-3.1735-1.285-6.5772-1.9045-10-1.82-3.4227-.0828-6.826.5366-10 1.82-3.3434 1.3337-6.9213 1.9798-10.52 1.9v-1.5c3.4215.0801 6.8236-.5357 10-1.81 3.341-1.3429 6.9201-1.9928 10.52-1.91 3.5865-.0773 7.1514.5724 10.48 1.91 3.1764 1.2743 6.5785 1.8901 10 1.81 3.4217.0829 6.8244-.533 10-1.81 3.3449-1.3416 6.927-1.9913 10.53-1.91 3.6098-.0857 7.1994.5641 10.55 1.91 3.1761 1.2754 6.5784 1.8912 10.0004 1.81z" fill="#ed6a5e"/><path d="m61.62 78.32c-3.6022.0837-7.1842-.5626-10.53-1.9-3.1756-1.277-6.5783-1.8929-10-1.81-3.4215-.0801-6.8236.5357-10 1.81-3.342 1.3385-6.9209 1.9848-10.52 1.9-3.6158.0916-7.2124-.5549-10.57-1.9-3.17637-1.2743-6.57849-1.8901-10-1.81v-1.5c3.59802-.083 7.17588.5598 10.52 1.89 3.1764 1.2743 6.5785 1.8901 10 1.81 3.4217.0829 6.8244-.533 10-1.81 3.3473-1.3323 6.9282-1.9784 10.53-1.9 3.6088-.0839 7.1973.5624 10.55 1.9 3.1764 1.2743 6.5785 1.8901 10 1.81z" fill="#ed6a5e"/><path d="m55 0h1.5v54.51h-1.5z" fill="#bad8db"/></svg>