<svg fill="none" height="72" viewBox="0 0 97 72" width="97" xmlns="http://www.w3.org/2000/svg"><path d="m84.67 14.3601h-83.92c-.198912 0-.389678-.079-.53033-.2197-.1406524-.1406-.21967-.3314-.21967-.5303s.0790176-.3897.21967-.5303c.140652-.1407.331418-.2197.53033-.2197h83.92c.1989 0 .3897.079.5303.2197.1407.1406.2197.3314.2197.5303s-.079.3897-.2197.5303c-.1406.1407-.3314.2197-.5303.2197z" fill="#bad8db"/><path d="m8.21008 8.79003c.90022 0 1.63-.72978 1.63-1.63 0-.90023-.72978-1.63-1.63-1.63-.90023 0-1.63.72977-1.63 1.63 0 .90022.72977 1.63 1.63 1.63z" fill="#ed6a5e"/><path d="m54 60.9001h-52.49996v-59.40006h82.41996v21.25006c.5.13 1 .26 1.5.41v-21.83006c0-.35274-.1401-.69103-.3895-.940454-.2494-.249423-.5877-.38954783-.9405-.38954783h-82.75996c-.17503-.00133107-.348577.03216153-.510541.09852893-.161965.0663669-.309112.1642839-.43288.2880519s-.221685.270915-.2880519.43288c-.0663674.161964-.09986001.335511-.09852893.510541v59.75006c-.000005.1742.03446633.3466.10142683.5074.066961.1608.165087.3068.288721.4295.123635.1227.270333.2197.431639.2855.161305.0657.334025.0989.508215.0976h53.52996c-.3-.49-.57-.99-.86-1.5z" fill="#bad8db"/><g fill="#ed6a5e"><path d="m78 71.13c-.1989 0-.3897-.0789-.5303-.2196-.1407-.1406-.2197-.3315-.2197-.5304v-41.83c0-.1989.079-.3897.2197-.5303.1406-.1407.3314-.2197.5303-.2197s.3897.079.5303.2197c.1407.1406.2197.3314.2197.5303v41.83c0 .1989-.079.3898-.2197.5304-.1406.1407-.3314.2196-.5303.2196z"/><path d="m77.9996 37.6001-5.54-5.35c-.1405-.1406-.2194-.3312-.2194-.53 0-.1987.0789-.3894.2194-.53.1419-.1381.332-.2153.53-.2153.1979 0 .3881.0772.53.2153l4.48 4.29 4.29-4.48c.1404-.1024.3121-.1528.4856-.1426.1736.0101.3382.0803.4657.1984s.2101.2768.2336.449c.0235.1723-.0136.3473-.1049.4952z"/><path d="m73.0001 67.9399c-.0963.001-.1917-.017-.281-.0531-.0892-.036-.1705-.0893-.239-.1569-.1405-.1406-.2194-.3312-.2194-.53 0-.1987.0789-.3894.2194-.53l5.35-5.54 5.54 5.35c.1404.1406.2193.3313.2193.53 0 .1988-.0789.3894-.2193.53-.1406.1405-.3313.2193-.53.2193-.1988 0-.3894-.0788-.53-.2193l-4.46-4.31-4.31 4.46c-.0674.0773-.1503.1394-.2434.1825-.093.0431-.1941.0661-.2966.0675z"/><path d="m96.0802 60.5799c-.13-.0003-.2576-.0348-.37-.1l-36.23-20.92c-.0956-.0432-.1811-.1061-.251-.1844-.0698-.0783-.1224-.1704-.1544-.2704-.032-.0999-.0427-.2055-.0313-.3098.0113-.1043.0444-.2051.0972-.2958.0527-.0908.1239-.1694.209-.2309.085-.0615.182-.1044.2847-.1261.1027-.0216.2088-.0214.3114.0005s.1995.0651.2844.1269l36.23 20.91c.1436.0826.2558.2105.319.3636.0633.1532.0741.323.0307.4829s-.1386.3009-.2706.401c-.132.1002-.2934.1538-.4591.1525z"/><path d="m60.0796 45.6001c-.1627-.0038-.3201-.0591-.4494-.1579-.1294-.0988-.2241-.2361-.2706-.3921-.0522-.1909-.0269-.3948.0705-.5671.0974-.1724.259-.2992.4495-.3529l6-1.71-1.71-6c-.0275-.0946-.0362-.1936-.0255-.2915s.0406-.1928.0879-.2791c.0474-.0864.1113-.1626.1881-.2242.0768-.0617.165-.1076.2595-.1352.1923-.0526.3975-.0275.5714.0697.174.0973.3028.259.3586.4503l2.13 7.4-7.41 2.13c-.0793.034-.1638.0543-.25.06z"/><path d="m90.81 63.3401c-.1636-.0006-.3225-.0547-.4524-.154-.13-.0993-.224-.2383-.2676-.396l-2.09-7.4 7.41-2.13c.1922-.0526.3974-.0275.5714.0697.1739.0973.3027.259.3586.4503.0523.1909.027.3948-.0704.5672-.0975.1723-.2591.2991-.4496.3528l-6 1.72 1.71 6c.053.1909.0293.395-.0659.5687-.0953.1737-.2546.3034-.4441.3613z"/><path d="m59.75 60.58c-.1657.0013-.3271-.0523-.4591-.1524-.132-.1002-.2272-.2412-.2706-.4011s-.0326-.3297.0307-.4828c.0632-.1532.1754-.2811.319-.3637l36.23-20.91c.1694-.0922.3679-.1156.5541-.0654.1862.0503.3459.1704.4459.3354.094.1701.1173.3703.0649.5574s-.1763.346-.3449.4426l-36.2 20.94c-.1118.0666-.2398.1012-.37.1z"/><path d="m65.0001 63.3501h-.18c-.1925-.0496-.3578-.1727-.4606-.3428s-.1349-.3737-.0894-.5672l1.5-6-6-1.5c-.1936-.0477-.3603-.1704-.4635-.3411-.1031-.1707-.1342-.3753-.0865-.5689s.1704-.3603.3411-.4635c.1707-.1031.3753-.1342.5689-.0865l7.48 1.86-1.86 7.48c-.0501.1581-.1505.2954-.2859.3911s-.2984.1445-.4641.1389z"/><path d="m95.7303 45.6099h-.19l-7.47-1.86 1.86-7.48c.0237-.0959.0659-.1862.1245-.2657.0585-.0795.1321-.1467.2166-.1978s.1782-.085.2758-.0998c.0977-.0149.1972-.0104.2931.0133.0959.0236.1862.0659.2657.1244.0795.0586.1467.1322.1978.2167s.085.1782.0998.2758c.0149.0976.0104.1972-.0133.2931l-1.5 6 6 1.5c.1797.0423.3375.1494.4432.3008s.1518.3365.1295.5198-.1114.3519-.2503.4736c-.1389.1216-.3178.1878-.5024.1858z"/></g></svg>