<svg width="81" height="67" viewBox="0 0 81 67" fill="none" xmlns="http://www.w3.org/2000/svg">
<path d="M12.1899 13.8625C13.1135 13.8625 13.8623 13.1138 13.8623 12.1903C13.8623 11.2667 13.1135 10.5178 12.1899 10.5178C11.2663 10.5178 10.5176 11.2667 10.5176 12.1903C10.5176 13.1138 11.2663 13.8625 12.1899 13.8625Z" fill="#ED6A5E"/>
<path d="M20.3194 13.8626C21.243 13.8626 21.9917 13.1139 21.9917 12.1904C21.9917 11.2668 21.243 10.5179 20.3194 10.5179C19.3958 10.5179 18.647 11.2668 18.647 12.1904C18.647 13.1139 19.3958 13.8626 20.3194 13.8626Z" fill="#ED6A5E"/>
<line x1="27.5264" y1="12.3811" x2="42.2853" y2="12.3811" stroke="#ED6A5E" stroke-width="1.5" stroke-linecap="round"/>
<path d="M12.1899 55.2727C13.1135 55.2727 13.8623 54.5239 13.8623 53.6004C13.8623 52.6768 13.1135 51.928 12.1899 51.928C11.2663 51.928 10.5176 52.6768 10.5176 53.6004C10.5176 54.5239 11.2663 55.2727 12.1899 55.2727Z" fill="#ED6A5E"/>
<path d="M20.3194 55.2728C21.243 55.2728 21.9917 54.5241 21.9917 53.6006C21.9917 52.6769 21.243 51.9281 20.3194 51.9281C19.3958 51.9281 18.647 52.6769 18.647 53.6006C18.647 54.5241 19.3958 55.2728 20.3194 55.2728Z" fill="#ED6A5E"/>
<line x1="27.5264" y1="53.7914" x2="42.2853" y2="53.7914" stroke="#ED6A5E" stroke-width="1.5" stroke-linecap="round"/>
<path fill-rule="evenodd" clip-rule="evenodd" d="M2.70352 0C1.97122 0 1.30169 0.358601 0.830146 0.830146C0.358601 1.30169 0 1.97122 0 2.70352V22.2388C0 22.9711 0.358601 23.6406 0.830146 24.1121C1.30169 24.5837 1.97122 24.9423 2.70352 24.9423H55.3362V23.4423H2.70352C2.45907 23.4423 2.15183 23.3125 1.89081 23.0515C1.62978 22.7905 1.5 22.4832 1.5 22.2388V2.70352C1.5 2.45907 1.62978 2.15183 1.89081 1.89081C2.15183 1.62978 2.45907 1.5 2.70352 1.5H77.9142C78.1587 1.5 78.4659 1.62978 78.7269 1.89081C78.9879 2.15183 79.1177 2.45907 79.1177 2.70352V22.2388C79.1177 22.4832 78.9879 22.7905 78.7269 23.0515C78.4659 23.3125 78.1587 23.4423 77.9142 23.4423H71.6493V24.9423H77.9142C78.6465 24.9423 79.316 24.5837 79.7876 24.1121C80.2591 23.6406 80.6177 22.9711 80.6177 22.2388V2.70352C80.6177 1.97122 80.2591 1.30169 79.7876 0.830146C79.316 0.358601 78.6465 0 77.9142 0H2.70352Z" fill="#ED6A5E"/>
<path fill-rule="evenodd" clip-rule="evenodd" d="M77.9142 42.9103H71.6493V41.4103H77.9142C78.6465 41.4103 79.316 41.7689 79.7876 42.2404C80.2591 42.712 80.6177 43.3815 80.6177 44.1138V63.649C80.6177 64.3813 80.2591 65.0509 79.7876 65.5224C79.316 65.994 78.6465 66.3526 77.9142 66.3526H2.70352C1.97122 66.3526 1.30169 65.994 0.830146 65.5224C0.358601 65.0509 0 64.3813 0 63.649V44.1138C0 43.3815 0.358601 42.712 0.830146 42.2404C1.30169 41.7689 1.97122 41.4103 2.70352 41.4103H55.3362V42.9103H2.70352C2.45907 42.9103 2.15183 43.0401 1.89081 43.3011C1.62978 43.5621 1.5 43.8693 1.5 44.1138V63.649C1.5 63.8935 1.62978 64.2007 1.89081 64.4618C2.15183 64.7228 2.45907 64.8526 2.70352 64.8526H77.9142C78.1587 64.8526 78.4659 64.7228 78.7269 64.4618C78.9879 64.2007 79.1177 63.8935 79.1177 63.649V44.1138C79.1177 43.8693 78.9879 43.5621 78.7269 43.3011C78.4659 43.0401 78.1587 42.9103 77.9142 42.9103Z" fill="#ED6A5E"/>
<path d="M60.3556 30.2391V30.9891H61.1056V30.2391H60.3556ZM66.6299 30.2391H65.8799V30.9891H66.6299V30.2391ZM66.6299 36.5134V35.7634H65.8799V36.5134H66.6299ZM60.3556 36.5134H61.1056V35.7634H60.3556V36.5134ZM59.6056 20.2545V30.2391H61.1056V20.2545H59.6056ZM60.8785 18.8229C60.425 18.8229 60.0986 19.1016 59.9239 19.3294C59.7363 19.574 59.6056 19.902 59.6056 20.2545H61.1056C61.1056 20.2641 61.104 20.2644 61.1067 20.257C61.1093 20.2495 61.113 20.2438 61.1141 20.2424C61.1161 20.2398 61.1065 20.2538 61.0763 20.2722C61.0459 20.2907 60.9779 20.3229 60.8785 20.3229V18.8229ZM66.107 18.8229H60.8785V20.3229H66.107V18.8229ZM67.3799 20.2545C67.3799 19.902 67.2492 19.574 67.0616 19.3294C66.8868 19.1016 66.5605 18.8229 66.107 18.8229V20.3229C66.0075 20.3229 65.9396 20.2907 65.9092 20.2722C65.879 20.2538 65.8694 20.2398 65.8714 20.2424C65.8725 20.2438 65.8761 20.2495 65.8788 20.257C65.8815 20.2644 65.8799 20.2641 65.8799 20.2545H67.3799ZM67.3799 30.2391V20.2545H65.8799V30.2391H67.3799ZM76.6145 29.4891H66.6299V30.9891H76.6145V29.4891ZM78.0461 30.762C78.0461 30.3085 77.7674 29.9822 77.5396 29.8074C77.2951 29.6199 76.967 29.4891 76.6145 29.4891V30.9891C76.6049 30.9891 76.6047 30.9876 76.612 30.9902C76.6195 30.9929 76.6252 30.9965 76.6267 30.9976C76.6293 30.9996 76.6152 30.99 76.5968 30.9598C76.5783 30.9294 76.5461 30.8615 76.5461 30.762H78.0461ZM78.0461 35.9906V30.762H76.5461V35.9906H78.0461ZM76.6145 37.2634C76.967 37.2634 77.2951 37.1327 77.5396 36.9451C77.7674 36.7704 78.0461 36.444 78.0461 35.9906H76.5461C76.5461 35.8911 76.5783 35.8231 76.5968 35.7927C76.6152 35.7626 76.6293 35.7529 76.6267 35.7549C76.6252 35.7561 76.6195 35.7597 76.612 35.7624C76.6047 35.765 76.6049 35.7634 76.6145 35.7634V37.2634ZM66.6299 37.2634H76.6145V35.7634H66.6299V37.2634ZM67.3799 46.498V36.5134H65.8799V46.498H67.3799ZM66.107 47.9297C66.5605 47.9297 66.8868 47.651 67.0616 47.4231C67.2492 47.1786 67.3799 46.8506 67.3799 46.498H65.8799C65.8799 46.4884 65.8815 46.4882 65.8788 46.4956C65.8761 46.503 65.8725 46.5087 65.8714 46.5102C65.8694 46.5128 65.879 46.4987 65.9092 46.4804C65.9396 46.4619 66.0075 46.4297 66.107 46.4297V47.9297ZM60.8785 47.9297H66.107V46.4297H60.8785V47.9297ZM59.6056 46.498C59.6056 46.8506 59.7363 47.1786 59.9239 47.4231C60.0986 47.651 60.425 47.9297 60.8785 47.9297V46.4297C60.9779 46.4297 61.0459 46.4619 61.0763 46.4804C61.1065 46.4987 61.1161 46.5128 61.1141 46.5102C61.113 46.5087 61.1093 46.503 61.1067 46.4956C61.104 46.4882 61.1056 46.4884 61.1056 46.498H59.6056ZM59.6056 36.5134V46.498H61.1056V36.5134H59.6056ZM50.371 37.2634H60.3556V35.7634H50.371V37.2634ZM48.9393 35.9906C48.9393 36.444 49.2181 36.7704 49.4459 36.9451C49.6904 37.1327 50.0184 37.2634 50.371 37.2634V35.7634C50.3806 35.7634 50.3808 35.765 50.3734 35.7624C50.366 35.7597 50.3603 35.7561 50.3588 35.7549C50.3562 35.7529 50.3703 35.7626 50.3886 35.7927C50.4072 35.8231 50.4393 35.8911 50.4393 35.9906H48.9393ZM48.9393 30.762V35.9906H50.4393V30.762H48.9393ZM50.371 29.4891C50.0184 29.4891 49.6904 29.6199 49.4459 29.8074C49.2181 29.9822 48.9393 30.3085 48.9393 30.762H50.4393C50.4393 30.8615 50.4072 30.9294 50.3886 30.9598C50.3703 30.99 50.3562 30.9996 50.3588 30.9976C50.3603 30.9965 50.366 30.9929 50.3734 30.9902C50.3808 30.9876 50.3806 30.9891 50.371 30.9891V29.4891ZM60.3556 29.4891H50.371V30.9891H60.3556V29.4891Z" fill="#BAD8DB"/>
</svg>
