<svg width="71" height="81" viewBox="0 0 71 81" fill="none" xmlns="http://www.w3.org/2000/svg">
<g clip-path="url(#clip0)">
<path d="M28.3796 73H17.1396V42H28.3796V73ZM18.6396 71.5H26.8796V43.46H18.6396V71.5Z" fill="#BAD8DB"/>
<path d="M11.24 73H0V53.48H11.24V73ZM1.5 71.53H9.74V55H1.5V71.53Z" fill="#BAD8DB"/>
<path d="M7.55762 34.2945L18.8494 27.5982L19.6144 28.8882L8.32262 35.5845L7.55762 34.2945Z" fill="#ED6A5E"/>
<path d="M57.7901 9.73997C57.5256 9.74025 57.2615 9.72019 57.0001 9.67997C56.3704 9.57563 55.7674 9.34826 55.2256 9.01085C54.6837 8.67344 54.2137 8.2326 53.8422 7.71351C53.4708 7.19442 53.2052 6.60724 53.0607 5.9855C52.9162 5.36377 52.8956 4.71967 53.0001 4.08997C53.1043 3.45462 53.3351 2.84667 53.6786 2.30215C54.0222 1.75762 54.4715 1.28761 55.0001 0.919972C55.7814 0.355078 56.7128 0.0347924 57.6762 -0.000310048C58.6397 -0.0354125 59.5919 0.216248 60.4122 0.72279C61.2325 1.22933 61.8841 1.96796 62.2842 2.8451C62.6844 3.72224 62.8152 4.69842 62.6601 5.64997C62.5553 6.28514 62.3244 6.89289 61.9809 7.43734C61.6373 7.98179 61.1883 8.45192 60.6601 8.81997C59.8283 9.4294 58.8212 9.75226 57.7901 9.73997ZM57.7901 1.49997C56.9905 1.49948 56.2169 1.78418 55.6084 2.3029C54.9998 2.82162 54.5962 3.54036 54.4701 4.32997C54.3892 4.76265 54.3944 5.20703 54.4853 5.63771C54.5763 6.06839 54.7512 6.47693 55.0001 6.83997C55.5235 7.56549 56.3131 8.05394 57.196 8.19828C58.0788 8.34261 58.9829 8.13106 59.7101 7.60997C60.0698 7.35116 60.3744 7.02336 60.6062 6.64565C60.838 6.26795 60.9923 5.8479 61.0601 5.40997C61.1353 4.97341 61.1217 4.52619 61.0204 4.09496C60.919 3.66374 60.7319 3.25733 60.4701 2.89997C60.1607 2.47189 59.7553 2.12226 59.2865 1.87913C58.8176 1.636 58.2982 1.50615 57.7701 1.49997H57.7901Z" fill="#ED6A5E"/>
<path d="M39.9103 20.44C38.877 20.4469 37.8685 20.1244 37.031 19.5192C36.1935 18.914 35.5707 18.0576 35.253 17.0744C34.9353 16.0912 34.9392 15.0323 35.2642 14.0515C35.5892 13.0707 36.2183 12.219 37.0603 11.62C37.5753 11.2414 38.1611 10.9702 38.783 10.8225C39.4048 10.6747 40.0501 10.6535 40.6803 10.76C41.31 10.8643 41.913 11.0917 42.4548 11.4291C42.9967 11.7665 43.4667 12.2073 43.8382 12.7264C44.2096 13.2455 44.4752 13.8327 44.6197 14.4544C44.7641 15.0762 44.7848 15.7203 44.6803 16.35C44.4953 17.4902 43.911 18.5276 43.0317 19.2768C42.1524 20.026 41.0355 20.4383 39.8803 20.44H39.9103ZM39.9103 12.2C39.1939 12.194 38.4939 12.4145 37.9103 12.83C37.1979 13.3494 36.7198 14.1295 36.5803 15C36.5051 15.4365 36.5186 15.8838 36.62 16.315C36.7214 16.7462 36.9085 17.1526 37.1703 17.51C37.4947 17.9592 37.925 18.3214 38.4229 18.5647C38.9207 18.8079 39.4709 18.9247 40.0247 18.9045C40.5785 18.8844 41.1187 18.728 41.5976 18.4492C42.0765 18.1704 42.4793 17.7779 42.7702 17.3063C43.0612 16.8347 43.2314 16.2986 43.2657 15.7455C43.3 15.1925 43.1975 14.6395 42.9671 14.1355C42.7367 13.6316 42.3855 13.1922 41.9448 12.8563C41.5041 12.5205 40.9873 12.2985 40.4403 12.21C40.2609 12.1918 40.0803 12.1884 39.9003 12.2H39.9103Z" fill="#ED6A5E"/>
<path d="M22.7706 31C21.771 31.0032 20.7945 30.6993 19.9731 30.1294C19.1518 29.5596 18.5253 28.7512 18.1784 27.8137C17.8314 26.8762 17.7807 25.8548 18.0332 24.8875C18.2857 23.9203 18.8291 23.0539 19.59 22.4056C20.3509 21.7572 21.2925 21.3582 22.2876 21.2624C23.2826 21.1667 24.2831 21.3788 25.1537 21.8702C26.0242 22.3616 26.7229 23.1084 27.1552 24.0098C27.5874 24.9111 27.7325 25.9235 27.5706 26.91C27.3856 28.0502 26.8013 29.0876 25.922 29.8368C25.0428 30.586 23.9258 30.9983 22.7706 31ZM22.7706 22.76C21.9693 22.7571 21.1933 23.0407 20.5827 23.5596C19.9721 24.0786 19.567 24.7987 19.4406 25.59C19.3697 26.0273 19.3856 26.4743 19.4875 26.9054C19.5893 27.3366 19.7751 27.7434 20.0341 28.1028C20.5574 28.8286 21.3475 29.3168 22.2306 29.46C23.1138 29.6032 24.0177 29.3897 24.7435 28.8665C25.4692 28.3432 25.9574 27.5531 26.1006 26.67C26.172 26.2326 26.1565 25.7855 26.0548 25.3541C25.9532 24.9228 25.7675 24.5158 25.5083 24.1563C25.2492 23.7968 24.9217 23.492 24.5446 23.2593C24.1674 23.0265 23.7481 22.8704 23.3106 22.8C23.1285 22.7745 22.9445 22.7645 22.7606 22.77L22.7706 22.76Z" fill="#ED6A5E"/>
<path d="M4.88016 41.6399C3.84434 41.6534 2.83132 41.3355 1.98887 40.7327C1.14642 40.1299 0.518637 39.2736 0.197089 38.2889C-0.12446 37.3042 -0.122944 36.2424 0.201413 35.2586C0.525771 34.2748 1.156 33.4204 2.00016 32.8199C2.52295 32.4464 3.11528 32.1814 3.74218 32.0406C4.36908 31.8997 5.01784 31.8859 5.65016 31.9999C6.84861 32.205 7.92702 32.8509 8.6734 33.8107C9.41978 34.7705 9.78014 35.9748 9.68363 37.1868C9.58712 38.3988 9.04072 39.5309 8.15186 40.3605C7.26299 41.1901 6.09595 41.6572 4.88016 41.6699V41.6399ZM4.88016 33.3999C4.16203 33.3927 3.46068 33.6171 2.88016 34.0399C2.34046 34.4305 1.92863 34.9723 1.69673 35.5969C1.46482 36.2215 1.42323 36.9007 1.57722 37.5489C1.73121 38.1971 2.07386 38.7851 2.56189 39.2386C3.04991 39.6921 3.66141 39.9908 4.31913 40.0969C4.97684 40.2031 5.65125 40.1119 6.25716 39.8349C6.86306 39.5579 7.37326 39.1075 7.72331 38.5406C8.07335 37.9738 8.24753 37.3159 8.22383 36.6501C8.20013 35.9843 7.97962 35.3405 7.59016 34.7999C7.33135 34.4402 7.00355 34.1356 6.62584 33.9038C6.24814 33.6721 5.82809 33.5178 5.39016 33.4499C5.21843 33.4195 5.04455 33.4028 4.87016 33.3999H4.88016Z" fill="#ED6A5E"/>
<path d="M43.085 12.8571L54.0612 6.62926L54.8015 7.93389L43.8252 14.1617L43.085 12.8571Z" fill="#ED6A5E"/>
<path d="M25.4219 23.3184L36.3982 17.0906L37.1384 18.3952L26.1621 24.623L25.4219 23.3184Z" fill="#ED6A5E"/>
<path d="M52.9199 44.41V22.06H61.1599V45.76C61.6799 45.97 62.1599 46.19 62.6599 46.44V20.56H51.4199V44.56C51.9199 44.46 52.4199 44.43 52.9199 44.41V44.41Z" fill="#BAD8DB"/>
<path d="M35.7803 56V33.58H44.0003V47C44.4903 46.72 45.0003 46.47 45.5003 46.23V32.08H34.2803V60.75C34.5775 59.1096 35.0815 57.5136 35.7803 56Z" fill="#BAD8DB"/>
<path d="M53.8505 80.62C50.6124 80.62 47.447 79.6597 44.7547 77.8605C42.0625 76.0613 39.9643 73.504 38.7256 70.5122C37.4869 67.5204 37.1633 64.2284 37.7958 61.0527C38.4282 57.877 39.9883 54.9601 42.2787 52.6711C44.5691 50.3822 47.4869 48.8238 50.663 48.1933C53.8391 47.5628 57.1309 47.8884 60.1219 49.129C63.113 50.3695 65.6689 52.4693 67.4665 55.1626C69.264 57.856 70.2225 61.0219 70.2205 64.26C70.2152 68.5991 68.4885 72.7587 65.4194 75.826C62.3502 78.8932 58.1895 80.6174 53.8505 80.62V80.62ZM53.8505 49.39C50.9095 49.39 48.0345 50.2621 45.5891 51.8961C43.1438 53.53 41.2379 55.8524 40.1124 58.5695C38.9869 61.2866 38.6924 64.2765 39.2662 67.161C39.84 70.0455 41.2562 72.6951 43.3358 74.7747C45.4154 76.8543 48.065 78.2705 50.9495 78.8443C53.834 79.4181 56.8238 79.1236 59.541 77.9981C62.2581 76.8726 64.5805 74.9667 66.2144 72.5213C67.8484 70.076 68.7205 67.201 68.7205 64.26C68.7178 60.3171 67.1503 56.5364 64.3622 53.7483C61.5741 50.9602 57.7934 49.3927 53.8505 49.39V49.39Z" fill="#ED6A5E"/>
<path d="M53.8505 80.62C50.6124 80.62 47.447 79.6597 44.7547 77.8605C42.0625 76.0613 39.9643 73.504 38.7256 70.5122C37.4869 67.5204 37.1633 64.2284 37.7958 61.0527C38.4282 57.877 39.9883 54.9601 42.2787 52.6711C44.5691 50.3822 47.4869 48.8238 50.663 48.1933C53.8391 47.5628 57.1309 47.8884 60.1219 49.129C63.113 50.3695 65.6689 52.4693 67.4665 55.1626C69.264 57.856 70.2225 61.0219 70.2205 64.26C70.2152 68.5991 68.4885 72.7587 65.4194 75.826C62.3502 78.8932 58.1895 80.6174 53.8505 80.62V80.62ZM53.8505 49.39C50.9095 49.39 48.0345 50.2621 45.5891 51.8961C43.1438 53.53 41.2379 55.8524 40.1124 58.5695C38.9869 61.2866 38.6924 64.2765 39.2662 67.161C39.84 70.0455 41.2562 72.6951 43.3358 74.7747C45.4154 76.8543 48.065 78.2705 50.9495 78.8443C53.834 79.4181 56.8238 79.1236 59.541 77.9981C62.2581 76.8726 64.5805 74.9667 66.2144 72.5213C67.8484 70.076 68.7205 67.201 68.7205 64.26C68.7178 60.3171 67.1503 56.5364 64.3622 53.7483C61.5741 50.9602 57.7934 49.3927 53.8505 49.39V49.39Z" fill="#ED6A5E"/>
<path d="M51.0003 70L46.6803 65.7C46.5398 65.5594 46.4609 65.3687 46.4609 65.17C46.4609 64.9712 46.5398 64.7806 46.6803 64.64C46.7492 64.5692 46.8316 64.513 46.9227 64.4746C47.0137 64.4362 47.1115 64.4164 47.2103 64.4164C47.3091 64.4164 47.4069 64.4362 47.4979 64.4746C47.5889 64.513 47.6713 64.5692 47.7403 64.64L50.8603 67.75L58.6403 58.51C58.7686 58.3578 58.9516 58.2621 59.1498 58.2434C59.3481 58.2247 59.5457 58.2845 59.7003 58.41C59.8488 58.5412 59.941 58.7245 59.9578 58.9219C59.9745 59.1194 59.9145 59.3157 59.7903 59.47L51.0003 70Z" fill="#ED6A5E"/>
</g>
<defs>
<clipPath id="clip0">
<rect width="70.22" height="80.62" fill="white"/>
</clipPath>
</defs>
</svg>
