<svg fill="none" height="59" viewBox="0 0 93 59" width="93" xmlns="http://www.w3.org/2000/svg"><g fill="#ed6a5e"><path d="m74.6498 46.9301c-1.1635.0027-2.2917-.4004-3.19-1.14l-17.52-15.79 1-1.12 17.5 15.81c.7293.5338 1.6356.7675 2.5321.653s1.715-.5685 2.2867-1.2684c.5718-.6999.8533-1.5925.7865-2.4938-.0667-.9014-.4766-1.7427-1.1453-2.3508l-27.31-24.51 1-1.12 27.29 24.45c.8068.6554 1.3892 1.546 1.6662 2.5478.2771 1.0018.235 2.0651-.1203 3.0419s-1.0062 1.8186-1.8621 2.4083c-.856.5897-1.8745.898-2.9138.882z"/><path d="m66.3804 51.0001c-1.1602.0004-2.2844-.4026-3.18-1.14l-1.3-1.09 1-1.15 1.29 1.08c.3574.3021.7717.5296 1.2184.6693.4467.1396.9168.1885 1.3827.1438.4659-.0448.9181-.1822 1.3301-.4043.4119-.222.7753-.5243 1.0688-.8888.2995-.3586.5249-.7732.663-1.2195.1381-.4464.1863-.9157.1416-1.3808-.0446-.4651-.1812-.9167-.4017-1.3287-.2205-.4119-.5206-.776-.8829-1.071l-10.31-9.22 1-1.11 10.2 9.21c.7864.6246 1.3665 1.4716 1.6647 2.4305.2982.959.3007 1.9856.0071 2.946-.2935.9605-.8694 1.8103-1.6528 2.4387-.7833.6285-1.7378 1.0065-2.739 1.0848-.1665.0099-.3335.0099-.5 0z"/><path d="m58.5603 55.12c-1.1602.0026-2.2862-.3927-3.19-1.12l-13.84-12.53 1-1.11 13.82 12.48c.728.564 1.6477.8211 2.5627.7164.915-.1046 1.7528-.5627 2.3348-1.2764.582-.7138.8619-1.6267.7802-2.544s-.5187-1.7664-1.2177-2.366l-11.46-10.51 1-1.11 11.44 10.49c1.015.8443 1.6548 2.0557 1.78 3.37.0716.6982-.0046 1.4036-.2236 2.0704-.219.6667-.576 1.28-1.0476 1.7997s-1.0474.9343-1.6898 1.2169c-.6425.2825-1.3372.4267-2.039.423z"/><path d="m49.6499 58.4601c-1.1601.0004-2.2843-.4026-3.18-1.14l-3.2-2.75 1-1.14 3.18 2.74c.3496.2992.7548.5265 1.1924.6689.4375.1424.8989.1972 1.3576.1611.695-.0676 1.3542-.3399 1.8945-.7822.5402-.4424.9371-1.035 1.1405-1.703.2033-.6679.2041-1.3812.002-2.0495-.202-.6684-.5977-1.2618-1.137-1.7053l-10.23-9.28 1-1.11 10.2 9.21c.7727.6288 1.3399 1.474 1.629 2.4273.289.9533.2868 1.9712-.0066 2.9232-.2933.952-.8643 1.7947-1.6398 2.42-.7755.6252-1.72 1.0046-2.7126 1.0895-.1628.0162-.3264.0229-.49.02z"/></g><path d="m24.2805 51.8802c-.8828.0015-1.7461-.2595-2.4801-.75-.9897-.6597-1.6772-1.6852-1.9116-2.8514-.2343-1.1662.0036-2.3777.6616-3.3686l3.09-4.5c.6595-.9874 1.684-1.6727 2.8484-1.9052s2.3735.0067 3.3616.6652c.9891.6579 1.6765 1.6817 1.9109 2.8462s-.0033 2.3745-.6609 3.3638l-3.1 4.51c-.4076.613-.9607 1.1155-1.6098 1.4627s-1.374.5284-2.1101.5273zm-1.6501-2c.6602.4352 1.4655.5921 2.2408.4367.7753-.1555 1.4578-.6107 1.8993-1.2667l3.0899-4.51c.3721-.6619.4793-1.4404.2999-2.1782-.1793-.7379-.6317-1.3803-1.2661-1.7977-.6343-.4174-1.4034-.5787-2.152-.4514s-1.421.5337-1.8817 1.1373l-3.0901 4.5c-.431.6606-.5845 1.4644-.4273 2.2374.1572.7729.6125 1.4529 1.2674 1.8926z" fill="#bad8db"/><path d="m31.5304 55.92c-.8166.0048-1.6191-.2138-2.3205-.6321s-1.2752-1.0203-1.6592-1.741c-.3841-.7208-.5638-1.5328-.5198-2.3483.044-.8154.3101-1.6034.7695-2.2786l3.09-4.51c.6659-.9804 1.6924-1.6579 2.8557-1.8845 1.1633-.2267 2.3691.0158 3.3543.6745.9898.6598 1.6773 1.6853 1.9117 2.8514.2343 1.1662-.0036 2.3777-.6617 3.3686l-3.09 4.5c-.3239.4901-.7416.9111-1.229 1.239-.4875.3278-1.035.5559-1.611.671-.293.0591-.5911.0893-.89.09zm3.09-12c-.4923.0004-.9769.1219-1.4112.3538-.4342.232-.8047.5672-1.0788.9762l-3.13 4.54c-.317.4932-.4825 1.0685-.4761 1.6547.0064.5863.1844 1.1578.5121 1.644.3276.4862.7906.8657 1.3316 1.0916.541.226 1.1363.2884 1.7124.1797.3898-.0728.7609-.2238 1.0908-.4437.33-.22.6121-.5045.8292-.8363l3.09-4.5c.2782-.4486.4331-.9627.4491-1.4903.0159-.5276-.1076-1.0501-.3582-1.5148-.2505-.4646-.6193-.8548-1.0689-1.1314-.4496-.2765-.9643-.4295-1.492-.4435z" fill="#bad8db"/><path d="m39.0997 58.5199c-.7475-.0032-1.4777-.2258-2.1-.64-.4185-.2764-.7781-.6329-1.0582-1.049-.28-.4161-.4749-.8835-.5735-1.3752-.0985-.4918-.0987-.9982-.0006-1.4901.0981-.4918.2926-.9594.5723-1.3757l2.53-3.7c.4196-.6272 1.0155-1.1161 1.7126-1.405s1.4642-.3649 2.2044-.2184c.7403.1466 1.4205.5091 1.955 1.0418.5344.5328.8991 1.2118 1.048 1.9516.0997.4917.1016.9983.0055 1.4907-.0961.4925-.2882.9611-.5655 1.3793l-2.54 3.7c-.2766.4163-.6329.7737-1.0482 1.0517-.4153.2781-.8815.4712-1.3718.5683-.2537.0487-.5116.0722-.77.07zm2.54-9.82c-.153-.0148-.307-.0148-.46 0-.2991.0608-.5831.1805-.8355.3522s-.4681.3919-.6345.6478l-2.54 3.7c-.3352.5114-.455 1.1345-.3333 1.7337.1217.5993.4751 1.1262.9833 1.4663.2519.1717.5357.2912.8346.3513.2988.0601.6067.0597.9054-.0013.5819-.1254 1.0957-.4644 1.44-.95l2.53-3.7c.3358-.5129.4558-1.1376.3342-1.7385-.1217-.6008-.4753-1.1296-.9842-1.4715-.3687-.2435-.7983-.3786-1.24-.39z" fill="#bad8db"/><path d="m15.6397 48.6901c-.873.0156-1.7315-.2242-2.47-.69-.9877-.6615-1.6734-1.6869-1.9076-2.8522-.2342-1.1654.0022-2.3761.6576-3.3678l3.08-4.56c.663-.9906 1.6924-1.6772 2.8617-1.9088s2.3827.0108 3.3733.6738c.9905.6631 1.6772 1.6924 1.9088 2.8617s-.0108 2.3827-.6738 3.3733l-3.09 4.5c-.4132.6108-.9707 1.1102-1.6231 1.4539-.6524.3436-1.3796.5209-2.1169.5161zm-1.64-1.99c.6614.4342 1.4675.5895 2.2429.4322s1.4572-.6146 1.8971-1.2722l3.08-4.5c.3864-.6625.5044-1.4478.3298-2.1946s-.6286-1.3983-1.2687-1.8208-1.4176-.5837-2.173-.4507c-.7553.1331-1.4309.5503-1.8881 1.1661l-3.08 4.51c-.4292.663-.5796 1.4685-.4186 2.2417s.6204 1.4517 1.2786 1.8883z" fill="#bad8db"/><path d="m13.85 39.08c-5.18-4.08-13-7.31-13.07-7.34l-.78-.32 15.35-28.42.64.28c4.9201 2.16923 10.1988 3.41008 15.57 3.66l2.23.11-.07 1.5-2.23-.11c-5.3306-.25015-10.5748-1.44186-15.49-3.52l-13.89 25.75c4.49163 1.9102 8.744 4.3401 12.67 7.24z" fill="#ed6a5e"/><path d="m78.2303 38.8601c-.1657.0013-.3272-.0523-.4592-.1524-.132-.1002-.2271-.2412-.2705-.4011s-.0326-.3297.0306-.4828c.0633-.1532.1755-.281.3191-.3637l12.58-7.28-11.84-25.18003-2.27 1.14c-1.6257.93124-3.4448 1.47361-5.315 1.58464-1.8701.11103-3.7406-.21229-5.465-.94464l-11.09-4.7c-.9013-.38342-1.8706-.58105-2.85-.58105-.9795 0-1.9488.19763-2.85.58105l-12.75 5.45c-1.2764.54012-2.3334 1.4949-3 2.71003l-7.85 11.07c-.021.0383-.0321.0813-.0321.125s.0111.0867.0321.125c.0117.0404.0335.0771.0632.1068s.0664.0514.1068.0632c2.64.83 7.06 2.22 14.08-6l.16-.19 12.44-2.71c.1949-.0424.3987-.0057.5666.1022.1678.1078.2859.2779.3284.4728.0424.1949.0057.3988-.1022.5666-.1078.1678-.2779.286-.4728.3284l-12 2.61c-7.57 8.74-12.72 7.12-15.5 6.25-.2672-.0836-.5107-.2294-.7106-.4255-.1998-.196-.3503-.4366-.4391-.7021-.0889-.2654-.1134-.5482-.0718-.825.0417-.2768.1484-.5398.3115-.7674l7.83-11.00003c.8177-1.47743 2.106-2.63901 3.66-3.3l12.76-5.429997c1.0816-.458684 2.2441-.6958948 3.419-.6976124 1.1748-.0017176 2.338.2320924 3.421.6876124l11.13 4.699997c1.5157.64257 3.1599.92463 4.8032.82398 1.6433-.10064 3.2407-.58124 4.6668-1.40398l3.68-1.88 13.09 27.84003-13.77 8c-.1135.0606-.2417.0884-.37.08z" fill="#bad8db"/></svg>