<svg width="93" height="59" viewBox="0 0 93 59" fill="none" xmlns="http://www.w3.org/2000/svg">
<g clip-path="url(#clip0)">
<path d="M74.6498 46.93C73.4863 46.9327 72.3581 46.5296 71.4598 45.79L53.9398 30L54.9398 28.88L72.4398 44.69C73.1691 45.2238 74.0754 45.4575 74.9719 45.343C75.8684 45.2285 76.6869 44.7745 77.2586 44.0746C77.8304 43.3747 78.1119 42.4821 78.0451 41.5808C77.9784 40.6794 77.5685 39.8381 76.8998 39.23L49.5898 14.72L50.5898 13.6L77.8798 38.05C78.6866 38.7054 79.269 39.596 79.546 40.5978C79.8231 41.5996 79.781 42.6629 79.4257 43.6397C79.0704 44.6165 78.4195 45.4583 77.5636 46.048C76.7076 46.6377 75.6891 46.946 74.6498 46.93V46.93Z" fill="#ED6A5E"/>
<path d="M66.3804 51C65.2202 51.0004 64.096 50.5974 63.2004 49.86L61.9004 48.77L62.9004 47.62L64.1904 48.7C64.5478 49.0021 64.9621 49.2296 65.4088 49.3693C65.8555 49.5089 66.3256 49.5578 66.7915 49.5131C67.2574 49.4683 67.7096 49.3309 68.1216 49.1088C68.5335 48.8868 68.8969 48.5845 69.1904 48.22C69.4899 47.8614 69.7153 47.4468 69.8534 47.0005C69.9915 46.5541 70.0397 46.0848 69.995 45.6197C69.9504 45.1546 69.8138 44.703 69.5933 44.291C69.3728 43.8791 69.0727 43.515 68.7104 43.22L58.4004 34L59.4004 32.89L69.6004 42.1C70.3868 42.7246 70.9669 43.5716 71.2651 44.5305C71.5633 45.4895 71.5658 46.5161 71.2722 47.4765C70.9787 48.437 70.4028 49.2868 69.6194 49.9152C68.8361 50.5437 67.8816 50.9217 66.8804 51C66.7139 51.0099 66.5469 51.0099 66.3804 51Z" fill="#ED6A5E"/>
<path d="M58.5603 55.12C57.4001 55.1226 56.2741 54.7273 55.3703 54L41.5303 41.47L42.5303 40.36L56.3503 52.84C57.0783 53.404 57.998 53.6611 58.913 53.5564C59.828 53.4518 60.6658 52.9937 61.2478 52.28C61.8298 51.5662 62.1097 50.6533 62.028 49.736C61.9463 48.8187 61.5093 47.9696 60.8103 47.37L49.3503 36.86L50.3503 35.75L61.7903 46.24C62.8053 47.0843 63.4451 48.2957 63.5703 49.61C63.6419 50.3082 63.5657 51.0136 63.3467 51.6804C63.1277 52.3471 62.7707 52.9604 62.2991 53.4801C61.8275 53.9998 61.2517 54.4144 60.6093 54.697C59.9668 54.9795 59.2721 55.1237 58.5703 55.12H58.5603Z" fill="#ED6A5E"/>
<path d="M49.6499 58.46C48.4898 58.4604 47.3656 58.0574 46.4699 57.32L43.2699 54.57L44.2699 53.43L47.4499 56.17C47.7995 56.4692 48.2047 56.6965 48.6423 56.8389C49.0798 56.9813 49.5412 57.0361 49.9999 57C50.6949 56.9324 51.3541 56.6601 51.8944 56.2178C52.4346 55.7754 52.8315 55.1828 53.0349 54.5148C53.2382 53.8469 53.239 53.1336 53.0369 52.4653C52.8349 51.7969 52.4392 51.2035 51.8999 50.76L41.6699 41.48L42.6699 40.37L52.8699 49.58C53.6426 50.2088 54.2098 51.054 54.4989 52.0073C54.7879 52.9606 54.7857 53.9785 54.4923 54.9305C54.199 55.8825 53.628 56.7252 52.8525 57.3505C52.077 57.9757 51.1325 58.3551 50.1399 58.44C49.9771 58.4562 49.8135 58.4629 49.6499 58.46V58.46Z" fill="#ED6A5E"/>
<path d="M24.2805 51.88C23.3977 51.8815 22.5344 51.6205 21.8004 51.13C20.8107 50.4703 20.1232 49.4448 19.8888 48.2786C19.6545 47.1124 19.8924 45.9009 20.5504 44.91L23.6404 40.41C24.2999 39.4226 25.3244 38.7373 26.4888 38.5048C27.6532 38.2723 28.8623 38.5115 29.8504 39.17C30.8395 39.8279 31.5269 40.8517 31.7613 42.0162C31.9957 43.1807 31.758 44.3907 31.1004 45.38L28.0004 49.89C27.5928 50.503 27.0397 51.0055 26.3906 51.3527C25.7415 51.6999 25.0166 51.8811 24.2805 51.88V51.88ZM22.6304 49.88C23.2906 50.3152 24.0959 50.4721 24.8712 50.3167C25.6465 50.1612 26.329 49.706 26.7705 49.05L29.8604 44.54C30.2325 43.8781 30.3397 43.0996 30.1603 42.3618C29.981 41.6239 29.5286 40.9815 28.8942 40.5641C28.2599 40.1467 27.4908 39.9854 26.7422 40.1127C25.9936 40.24 25.3212 40.6464 24.8605 41.25L21.7704 45.75C21.3394 46.4106 21.1859 47.2144 21.3431 47.9874C21.5003 48.7603 21.9556 49.4403 22.6105 49.88H22.6304Z" fill="#BAD8DB"/>
<path d="M31.5304 55.92C30.7138 55.9248 29.9113 55.7062 29.2099 55.2879C28.5085 54.8696 27.9347 54.2676 27.5507 53.5469C27.1666 52.8261 26.9869 52.0141 27.0309 51.1986C27.0749 50.3832 27.341 49.5952 27.8004 48.92L30.8904 44.41C31.5563 43.4296 32.5828 42.7521 33.7461 42.5255C34.9094 42.2988 36.1152 42.5413 37.1004 43.2C38.0902 43.8598 38.7777 44.8853 39.0121 46.0514C39.2464 47.2176 39.0085 48.4291 38.3504 49.42L35.2604 53.92C34.9365 54.4101 34.5188 54.8311 34.0314 55.159C33.5439 55.4868 32.9964 55.7149 32.4204 55.83C32.1274 55.8891 31.8293 55.9193 31.5304 55.92V55.92ZM34.6204 43.92C34.1281 43.9204 33.6435 44.0419 33.2092 44.2738C32.775 44.5058 32.4045 44.841 32.1304 45.25L29.0004 49.79C28.6834 50.2832 28.5179 50.8585 28.5243 51.4447C28.5307 52.031 28.7087 52.6025 29.0364 53.0887C29.364 53.5749 29.827 53.9544 30.368 54.1803C30.909 54.4063 31.5043 54.4687 32.0804 54.36C32.4702 54.2872 32.8413 54.1362 33.1712 53.9163C33.5012 53.6963 33.7833 53.4118 34.0004 53.08L37.0904 48.58C37.3686 48.1314 37.5235 47.6173 37.5395 47.0897C37.5554 46.5621 37.4319 46.0396 37.1813 45.5749C36.9308 45.1103 36.562 44.7201 36.1124 44.4435C35.6628 44.167 35.1481 44.014 34.6204 44V43.92Z" fill="#BAD8DB"/>
<path d="M39.0997 58.52C38.3522 58.5168 37.622 58.2942 36.9997 57.88C36.5812 57.6036 36.2216 57.2471 35.9415 56.831C35.6615 56.4149 35.4666 55.9475 35.368 55.4558C35.2695 54.964 35.2693 54.4576 35.3674 53.9657C35.4655 53.4739 35.66 53.0063 35.9397 52.59L38.4697 48.89C38.8893 48.2628 39.4852 47.7739 40.1823 47.485C40.8794 47.1961 41.6465 47.1201 42.3867 47.2666C43.127 47.4132 43.8072 47.7757 44.3417 48.3084C44.8761 48.8412 45.2408 49.5202 45.3897 50.26C45.4894 50.7517 45.4913 51.2583 45.3952 51.7507C45.2991 52.2432 45.107 52.7118 44.8297 53.13L42.2897 56.83C42.0131 57.2463 41.6568 57.6037 41.2415 57.8817C40.8262 58.1598 40.36 58.3529 39.8697 58.45C39.616 58.4987 39.3581 58.5222 39.0997 58.52V58.52ZM41.6397 48.7C41.4867 48.6852 41.3327 48.6852 41.1797 48.7C40.8806 48.7608 40.5966 48.8805 40.3442 49.0522C40.0918 49.2239 39.8761 49.4441 39.7097 49.7L37.1697 53.4C36.8345 53.9114 36.7147 54.5345 36.8364 55.1337C36.9581 55.733 37.3115 56.2599 37.8197 56.6C38.0716 56.7717 38.3554 56.8912 38.6543 56.9513C38.9531 57.0114 39.261 57.011 39.5597 56.95C40.1416 56.8246 40.6554 56.4856 40.9997 56L43.5297 52.3C43.8655 51.7871 43.9855 51.1624 43.8639 50.5615C43.7422 49.9607 43.3886 49.4319 42.8797 49.09C42.511 48.8465 42.0814 48.7114 41.6397 48.7V48.7Z" fill="#BAD8DB"/>
<path d="M15.6397 48.69C14.7667 48.7056 13.9082 48.4658 13.1697 48C12.182 47.3385 11.4963 46.3131 11.2621 45.1478C11.0279 43.9824 11.2643 42.7717 11.9197 41.78L14.9997 37.22C15.6627 36.2294 16.6921 35.5428 17.8614 35.3112C19.0307 35.0796 20.2441 35.322 21.2347 35.985C22.2252 36.6481 22.9119 37.6774 23.1435 38.8467C23.3751 40.016 23.1327 41.2294 22.4697 42.22L19.3797 46.72C18.9665 47.3308 18.409 47.8302 17.7566 48.1739C17.1042 48.5175 16.377 48.6948 15.6397 48.69V48.69ZM13.9997 46.7C14.6611 47.1342 15.4672 47.2895 16.2426 47.1322C17.018 46.9749 17.6998 46.5176 18.1397 45.86L21.2197 41.36C21.6061 40.6975 21.7241 39.9122 21.5495 39.1654C21.3749 38.4186 20.9209 37.7671 20.2808 37.3446C19.6407 36.9221 18.8632 36.7609 18.1078 36.8939C17.3525 37.027 16.6769 37.4442 16.2197 38.06L13.1397 42.57C12.7105 43.233 12.5601 44.0385 12.7211 44.8117C12.8821 45.5849 13.3415 46.2634 13.9997 46.7V46.7Z" fill="#BAD8DB"/>
<path d="M13.85 39.08C8.67 35 0.85 31.77 0.78 31.74L0 31.42L15.35 3L15.99 3.28C20.9101 5.44923 26.1888 6.69008 31.56 6.94L33.79 7.05L33.72 8.55L31.49 8.44C26.1594 8.18985 20.9152 6.99814 16 4.92L2.11 30.67C6.60163 32.5802 10.854 35.0101 14.78 37.91L13.85 39.08Z" fill="#ED6A5E"/>
<path d="M78.2303 38.86C78.0646 38.8613 77.9031 38.8077 77.7711 38.7076C77.6391 38.6074 77.544 38.4664 77.5006 38.3065C77.4572 38.1466 77.468 37.9768 77.5312 37.8237C77.5945 37.6705 77.7067 37.5427 77.8503 37.46L90.4303 30.18L78.5903 5.00001L76.3203 6.14001C74.6946 7.07125 72.8755 7.61362 71.0053 7.72465C69.1352 7.83568 67.2647 7.51236 65.5403 6.78001L54.4503 2.08001C53.549 1.69659 52.5797 1.49896 51.6003 1.49896C50.6208 1.49896 49.6515 1.69659 48.7503 2.08001L36.0003 7.53001C34.7239 8.07013 33.6669 9.02491 33.0003 10.24L25.1503 21.31C25.1293 21.3483 25.1182 21.3913 25.1182 21.435C25.1182 21.4787 25.1293 21.5217 25.1503 21.56C25.162 21.6004 25.1838 21.6371 25.2135 21.6668C25.2432 21.6965 25.2799 21.7182 25.3203 21.73C27.9603 22.56 32.3803 23.95 39.4003 15.73L39.5603 15.54L52.0003 12.83C52.1952 12.7876 52.399 12.8243 52.5669 12.9322C52.7347 13.04 52.8528 13.2101 52.8953 13.405C52.9377 13.5999 52.901 13.8038 52.7931 13.9716C52.6853 14.1394 52.5152 14.2576 52.3203 14.3L40.3203 16.91C32.7503 25.65 27.6003 24.03 24.8203 23.16C24.5531 23.0764 24.3096 22.9306 24.1097 22.7345C23.9099 22.5385 23.7594 22.2979 23.6706 22.0324C23.5817 21.767 23.5572 21.4842 23.5988 21.2074C23.6405 20.9306 23.7472 20.6676 23.9103 20.44L31.7403 9.44001C32.558 7.96258 33.8463 6.801 35.4003 6.14001L48.1603 0.710012C49.2419 0.251328 50.4044 0.0141171 51.5793 0.0123995C52.7541 0.0106819 53.9173 0.244492 55.0003 0.700012L66.1303 5.40001C67.646 6.04258 69.2902 6.32464 70.9335 6.22399C72.5768 6.12335 74.1742 5.64275 75.6003 4.82001L79.2803 2.94001L92.3703 30.78L78.6003 38.78C78.4868 38.8406 78.3586 38.8684 78.2303 38.86V38.86Z" fill="#BAD8DB"/>
</g>
<defs>
<clipPath id="clip0">
<rect width="92.37" height="58.52" fill="white"/>
</clipPath>
</defs>
</svg>
