<svg width="89" height="75" viewBox="0 0 89 75" fill="none" xmlns="http://www.w3.org/2000/svg">
<path d="M1.60828 47.9827H81.1083" stroke="#BAD8DB" stroke-width="1.5" stroke-linecap="round"/>
<path d="M13.2872 62.7043C14.2328 62.7043 14.9993 61.9375 14.9993 60.9917C14.9993 60.0457 14.2328 59.2788 13.2872 59.2788C12.3416 59.2788 11.5751 60.0457 11.5751 60.9917C11.5751 61.9375 12.3416 62.7043 13.2872 62.7043Z" fill="#BAD8DB"/>
<path d="M21.6101 62.7043C22.5557 62.7043 23.3221 61.9375 23.3221 60.9917C23.3221 60.0457 22.5557 59.2788 21.6101 59.2788C20.6645 59.2788 19.8979 60.0457 19.8979 60.9917C19.8979 61.9375 20.6645 62.7043 21.6101 62.7043Z" fill="#BAD8DB"/>
<path d="M28.9708 60.5833H44.1164" stroke="#BAD8DB" stroke-width="1.5" stroke-linecap="round"/>
<path fill-rule="evenodd" clip-rule="evenodd" d="M77.6589 41.0125L80.9247 49.5066V71.1728C80.9247 71.3749 80.7743 71.8009 80.4233 72.2021C80.081 72.5934 79.6878 72.8016 79.3468 72.8016H3.25219C2.89763 72.8016 2.4542 72.5798 2.06373 72.1752C1.65879 71.7556 1.5 71.3388 1.5 71.1728V49.5066L15.6474 12.7103L15.6973 12.5804V12.4412C15.6973 12.429 15.7087 12.3334 15.8291 12.1591C15.9427 11.9947 16.1192 11.8111 16.3456 11.6379C16.8142 11.2795 17.3675 11.0608 17.7868 11.0608H38.1897C38.3952 10.5477 38.6251 10.0472 38.8781 9.56079H17.7868C16.9339 9.56079 16.0675 9.96222 15.4343 10.4465C15.1099 10.6947 14.8151 10.988 14.595 11.3065C14.4086 11.5763 14.2441 11.9109 14.2057 12.28L0.0499584 49.0983L0 49.2282V49.3674V71.1728C0 71.8969 0.45623 72.6695 0.98435 73.2168C1.52694 73.7791 2.33461 74.3016 3.25219 74.3016H79.3468C80.2779 74.3016 81.0486 73.7655 81.5522 73.1898C82.0471 72.6242 82.4247 71.8607 82.4247 71.1728V49.3674V49.2282L82.3747 49.0983L79.1594 40.7354C78.6697 40.8569 78.1689 40.9499 77.6589 41.0125Z" fill="#BAD8DB"/>
<mask id="mask0_1051:19441" style="mask-type:alpha" maskUnits="userSpaceOnUse" x="24" y="0" width="65" height="37">
<path fill-rule="evenodd" clip-rule="evenodd" d="M76.2519 36.7266C83.227 36.6475 88.8583 30.9107 88.8583 23.8458C88.8583 16.7314 83.1482 10.964 76.1057 10.964C75.1663 10.964 74.2506 11.0666 73.369 11.2612C70.9631 5.02156 64.9572 0.599854 57.928 0.599854C49.1703 0.599854 41.9998 7.46654 41.4051 16.1611C39.7305 15.1194 37.7582 14.5184 35.6468 14.5184C29.5755 14.5184 24.6538 19.4902 24.6538 25.6234C24.6538 31.7565 29.5755 36.7283 35.6468 36.7283C35.696 36.7283 35.7451 36.7279 35.7942 36.7273H76.0496C76.0683 36.7274 76.087 36.7274 76.1057 36.7274C76.1245 36.7274 76.1432 36.7274 76.1618 36.7273H76.2519V36.7266Z" fill="white"/>
</mask>
<g mask="url(#mask0_1051:19441)">
<path d="M76.2519 36.7266L76.2349 35.2267L74.7519 35.2435V36.7266H76.2519ZM73.369 11.2612L71.9694 11.8009L72.4333 13.004L73.6924 12.726L73.369 11.2612ZM41.4051 16.1611L40.6128 17.4348L42.7314 18.7526L42.9016 16.2634L41.4051 16.1611ZM35.7942 36.7273V35.2273H35.7842L35.7743 35.2274L35.7942 36.7273ZM76.0496 36.7273L76.056 35.2273H76.0496V36.7273ZM76.1618 36.7273V35.2273H76.1554L76.1618 36.7273ZM76.2519 36.7273V38.2273H77.7519V36.7273H76.2519ZM76.2689 38.2265C84.0787 38.1379 90.3583 31.7195 90.3583 23.8458H87.3583C87.3583 30.102 82.3752 35.157 76.2349 35.2267L76.2689 38.2265ZM90.3583 23.8458C90.3583 15.9172 83.9908 9.46399 76.1057 9.46399V12.464C82.3056 12.464 87.3583 17.5456 87.3583 23.8458H90.3583ZM76.1057 9.46399C75.0567 9.46399 74.0326 9.57857 73.0455 9.79654L73.6924 12.726C74.4685 12.5546 75.2758 12.464 76.1057 12.464V9.46399ZM74.7685 10.7216C72.1497 3.92955 65.6051 -0.900146 57.928 -0.900146V2.09985C64.3093 2.09985 69.7765 6.11357 71.9694 11.8009L74.7685 10.7216ZM57.928 -0.900146C48.3632 -0.900146 40.5558 6.59572 39.9086 16.0587L42.9016 16.2634C43.4437 8.33736 49.9773 2.09985 57.928 2.09985V-0.900146ZM42.1974 14.8874C40.2925 13.7024 38.047 13.0184 35.6468 13.0184V16.0184C37.4695 16.0184 39.1685 16.5363 40.6128 17.4348L42.1974 14.8874ZM35.6468 13.0184C28.7328 13.0184 23.1538 18.6762 23.1538 25.6234H26.1538C26.1538 20.3043 30.4182 16.0184 35.6468 16.0184V13.0184ZM23.1538 25.6234C23.1538 32.5705 28.7328 38.2283 35.6468 38.2283V35.2283C30.4182 35.2283 26.1538 30.9424 26.1538 25.6234H23.1538ZM35.6468 38.2283C35.7027 38.2283 35.7584 38.2279 35.814 38.2272L35.7743 35.2274C35.7318 35.228 35.6893 35.2283 35.6468 35.2283V38.2283ZM35.7942 38.2273H76.0496V35.2273H35.7942V38.2273ZM76.0432 38.2273C76.0639 38.2274 76.0848 38.2274 76.1057 38.2274V35.2274C76.0893 35.2274 76.0727 35.2274 76.056 35.2273L76.0432 38.2273ZM76.1057 38.2274C76.1267 38.2274 76.1475 38.2274 76.1683 38.2273L76.1554 35.2273C76.1388 35.2274 76.1222 35.2274 76.1057 35.2274V38.2274ZM76.1618 38.2273H76.2519V35.2273H76.1618V38.2273ZM77.7519 36.7273V36.7266H74.7519V36.7273H77.7519Z" fill="#ED6A5E"/>
</g>
</svg>
