<svg width="97" height="68" viewBox="0 0 97 68" fill="none" xmlns="http://www.w3.org/2000/svg">
<g clip-path="url(#clip0)">
<path d="M46.89 56.92C46.4051 56.9171 45.9345 56.7555 45.55 56.46L45.26 56.23C36.15 49.23 30.66 44.93 27.52 39.36C24.58 34.16 24.92 30.1 25.72 27.6C26.2088 26.1045 27.0061 24.7282 28.0603 23.5603C29.1145 22.3924 30.4022 21.4588 31.84 20.82C34.4293 19.6745 37.3319 19.4465 40.0683 20.1738C42.8047 20.9011 45.2111 22.5401 46.89 24.82C48.573 22.5422 50.9812 20.9051 53.7183 20.1781C56.4555 19.4511 59.3586 19.6775 61.95 20.82C63.3878 21.4588 64.6755 22.3924 65.7297 23.5603C66.784 24.7282 67.5813 26.1045 68.07 27.6C68.87 30.1 69.21 34.16 66.27 39.36C63.13 44.93 57.63 49.18 48.53 56.24L48.24 56.46C47.8518 56.7557 47.378 56.9171 46.89 56.92V56.92ZM36.82 21.74C35.3917 21.7314 33.9787 22.0351 32.68 22.63C31.4937 23.1579 30.4309 23.9278 29.5595 24.8904C28.6881 25.8531 28.0275 26.9871 27.62 28.22C26.62 31.22 27.22 34.76 29.26 38.37C32.2 43.59 37.58 47.76 46.48 54.65L46.77 54.88C46.8073 54.9041 46.8507 54.9169 46.895 54.9169C46.9394 54.9169 46.9828 54.9041 47.02 54.88L47.3 54.66C56.21 47.76 61.59 43.59 64.53 38.37C66.53 34.76 67.14 31.24 66.17 28.22C65.7625 26.9871 65.1019 25.8531 64.2306 24.8904C63.3592 23.9278 62.2963 23.1579 61.11 22.63C56.29 20.4 50.11 22.51 47.86 27.15L47.59 27.72H46.89C46.6821 27.7265 46.4767 27.6723 46.2991 27.564C46.1215 27.4556 45.9794 27.2979 45.89 27.11C45.0157 25.4695 43.7072 24.1009 42.1076 23.1539C40.508 22.2068 38.6788 21.7177 36.82 21.74V21.74Z" fill="#BAD8DB"/>
<path d="M13.0598 64.18C12.8567 64.1766 12.663 64.0941 12.5198 63.95C4.64996 55.9188 0.169438 45.1691 0.00563093 33.9259C-0.158176 22.6828 4.00728 11.8071 11.6398 3.55003C11.7788 3.43315 11.9554 3.37066 12.137 3.37416C12.3185 3.37766 12.4927 3.44692 12.627 3.56907C12.7614 3.69122 12.8469 3.85797 12.8676 4.03837C12.8884 4.21878 12.8429 4.40058 12.7398 4.55003C5.36236 12.5255 1.3365 23.0339 1.49661 33.8971C1.65672 44.7603 5.99052 55.1454 13.5998 62.9C13.7409 63.0424 13.82 63.2346 13.82 63.435C13.82 63.6354 13.7409 63.8277 13.5998 63.97C13.5289 64.04 13.4444 64.0948 13.3515 64.1309C13.2586 64.167 13.1594 64.1837 13.0598 64.18V64.18Z" fill="#ED6A5E"/>
<path d="M22.2902 55C22.1901 55.0012 22.0907 54.9824 21.9979 54.9446C21.9052 54.9068 21.821 54.8509 21.7502 54.78C16.2478 49.1163 13.1334 41.554 13.0515 33.6579C12.9696 25.7619 15.9264 18.1366 21.3102 12.36C21.3709 12.272 21.4498 12.198 21.5415 12.143C21.6332 12.0879 21.7356 12.0531 21.8418 12.0409C21.948 12.0287 22.0557 12.0394 22.1575 12.0721C22.2592 12.1049 22.3528 12.1591 22.432 12.2311C22.5111 12.303 22.5739 12.391 22.6162 12.4892C22.6586 12.5874 22.6794 12.6936 22.6773 12.8005C22.6753 12.9074 22.6504 13.0126 22.6043 13.1091C22.5582 13.2056 22.492 13.2912 22.4102 13.36C17.2884 18.8538 14.4745 26.1063 14.5508 33.6169C14.6271 41.1276 17.5878 48.3214 22.8202 53.71C22.9606 53.8506 23.0395 54.0413 23.0395 54.24C23.0395 54.4388 22.9606 54.6294 22.8202 54.77C22.6801 54.9126 22.49 54.995 22.2902 55V55Z" fill="#ED6A5E"/>
<path d="M13.7994 67.02C15.285 67.02 16.4894 65.8157 16.4894 64.33C16.4894 62.8444 15.285 61.64 13.7994 61.64C12.3137 61.64 11.1094 62.8444 11.1094 64.33C11.1094 65.8157 12.3137 67.02 13.7994 67.02Z" fill="#ED6A5E"/>
<path d="M13.7994 5.38C15.285 5.38 16.4894 4.17565 16.4894 2.69C16.4894 1.20435 15.285 0 13.7994 0C12.3137 0 11.1094 1.20435 11.1094 2.69C11.1094 4.17565 12.3137 5.38 13.7994 5.38Z" fill="#ED6A5E"/>
<path d="M23.4595 57.35C24.9452 57.35 26.1495 56.1456 26.1495 54.66C26.1495 53.1743 24.9452 51.97 23.4595 51.97C21.9739 51.97 20.7695 53.1743 20.7695 54.66C20.7695 56.1456 21.9739 57.35 23.4595 57.35Z" fill="#ED6A5E"/>
<path d="M23.4595 14.51C24.9452 14.51 26.1495 13.3057 26.1495 11.82C26.1495 10.3344 24.9452 9.13 23.4595 9.13C21.9739 9.13 20.7695 10.3344 20.7695 11.82C20.7695 13.3057 21.9739 14.51 23.4595 14.51Z" fill="#ED6A5E"/>
<path d="M83.5996 64.18C83.5033 64.181 83.4079 64.163 83.3186 64.1269C83.2294 64.0909 83.1481 64.0375 83.0796 63.97C82.9385 63.8277 82.8594 63.6354 82.8594 63.435C82.8594 63.2346 82.9385 63.0423 83.0796 62.9C90.6794 55.1438 95.0062 44.7626 95.1644 33.9049C95.3226 23.0472 91.3002 12.5443 83.9296 4.56999C83.8264 4.42054 83.781 4.23874 83.8018 4.05833C83.8225 3.87793 83.908 3.71118 84.0423 3.58903C84.1767 3.46688 84.3508 3.39762 84.5324 3.39412C84.7139 3.39062 84.8906 3.45311 85.0296 3.56999C92.6696 11.8299 96.8387 22.7127 96.6731 33.963C96.5074 45.2133 92.0195 55.9686 84.1396 64C83.9897 64.1277 83.7961 64.1922 83.5996 64.18V64.18Z" fill="#ED6A5E"/>
<path d="M74.3802 55C74.1832 55.0004 73.9935 54.9253 73.8502 54.79C73.7097 54.6494 73.6309 54.4588 73.6309 54.26C73.6309 54.0613 73.7097 53.8706 73.8502 53.73C79.0826 48.3414 82.0433 41.1476 82.1196 33.637C82.1959 26.1264 79.382 18.8738 74.2602 13.38C74.1784 13.3112 74.1122 13.2257 74.0661 13.1292C74.02 13.0327 73.9951 12.9274 73.9931 12.8205C73.991 12.7136 74.0118 12.6075 74.0542 12.5092C74.0965 12.411 74.1593 12.323 74.2384 12.2511C74.3176 12.1791 74.4111 12.125 74.5129 12.0922C74.6147 12.0594 74.7223 12.0487 74.8286 12.0609C74.9348 12.0731 75.0372 12.1079 75.1289 12.163C75.2206 12.218 75.2995 12.292 75.3602 12.38C80.744 18.1566 83.7008 25.7819 83.6189 33.678C83.537 41.574 80.4226 49.1363 74.9202 54.8C74.8485 54.8682 74.7636 54.9211 74.6708 54.9555C74.5779 54.9899 74.4791 55.005 74.3802 55V55Z" fill="#ED6A5E"/>
<path d="M82.8599 67.02C84.3456 67.02 85.5499 65.8157 85.5499 64.33C85.5499 62.8444 84.3456 61.64 82.8599 61.64C81.3743 61.64 80.1699 62.8444 80.1699 64.33C80.1699 65.8157 81.3743 67.02 82.8599 67.02Z" fill="#ED6A5E"/>
<path d="M82.8599 5.38C84.3456 5.38 85.5499 4.17565 85.5499 2.69C85.5499 1.20435 84.3456 0 82.8599 0C81.3743 0 80.1699 1.20435 80.1699 2.69C80.1699 4.17565 81.3743 5.38 82.8599 5.38Z" fill="#ED6A5E"/>
<path d="M73.1998 57.35C74.6854 57.35 75.8898 56.1456 75.8898 54.66C75.8898 53.1743 74.6854 51.97 73.1998 51.97C71.7141 51.97 70.5098 53.1743 70.5098 54.66C70.5098 56.1456 71.7141 57.35 73.1998 57.35Z" fill="#ED6A5E"/>
<path d="M73.1998 14.51C74.6854 14.51 75.8898 13.3057 75.8898 11.82C75.8898 10.3344 74.6854 9.13 73.1998 9.13C71.7141 9.13 70.5098 10.3344 70.5098 11.82C70.5098 13.3057 71.7141 14.51 73.1998 14.51Z" fill="#ED6A5E"/>
</g>
<defs>
<clipPath id="clip0">
<rect width="96.66" height="67.02" fill="white"/>
</clipPath>
</defs>
</svg>
