<svg width="85" height="91" viewBox="0 0 85 91" fill="none" xmlns="http://www.w3.org/2000/svg">
<g clip-path="url(#clip0)">
<path d="M47.7301 30.87C47.6194 30.8719 47.5098 30.8479 47.4101 30.8C47.3197 30.7592 47.2385 30.7006 47.1712 30.6278C47.1039 30.555 47.0519 30.4695 47.0184 30.3762C46.9848 30.2829 46.9703 30.1838 46.9757 30.0849C46.9812 29.9859 47.0065 29.889 47.0501 29.8C47.4518 28.9509 48.0753 28.2259 48.8546 27.7015C49.634 27.1771 50.5405 26.8728 51.4784 26.8206C52.4163 26.7684 53.3509 26.9702 54.1837 27.4048C55.0165 27.8394 55.7165 28.4907 56.2101 29.29C56.2752 29.3732 56.322 29.4692 56.3474 29.5717C56.3728 29.6743 56.3763 29.781 56.3575 29.885C56.3388 29.9889 56.2984 30.0878 56.2388 30.175C56.1793 30.2623 56.1019 30.336 56.0119 30.3912C55.9219 30.4465 55.8212 30.4822 55.7165 30.4958C55.6117 30.5095 55.5053 30.5009 55.4041 30.4706C55.3029 30.4402 55.2092 30.3889 55.1293 30.3198C55.0493 30.2508 54.9848 30.1657 54.9401 30.07C54.588 29.5001 54.0885 29.0358 53.4945 28.7263C52.9004 28.4167 52.2338 28.2733 51.5649 28.3112C50.8961 28.3491 50.25 28.5669 49.6947 28.9416C49.1394 29.3163 48.6955 29.834 48.4101 30.44C48.3483 30.5681 48.2518 30.6763 48.1316 30.7523C48.0114 30.8283 47.8723 30.8691 47.7301 30.87V30.87Z" fill="#BAD8DB"/>
<path d="M74.07 30.87C73.9278 30.8691 73.7886 30.8283 73.6684 30.7523C73.5482 30.6763 73.4518 30.5681 73.39 30.44C73.1021 29.8366 72.6573 29.3216 72.1022 28.949C71.5471 28.5764 70.902 28.3599 70.2345 28.3221C69.567 28.2843 68.9016 28.4265 68.308 28.734C67.7143 29.0415 67.2142 29.5029 66.86 30.07C66.8152 30.1657 66.7508 30.2508 66.6708 30.3198C66.5908 30.3889 66.4972 30.4402 66.396 30.4706C66.2948 30.5009 66.1884 30.5095 66.0836 30.4958C65.9788 30.4822 65.8782 30.4465 65.7882 30.3912C65.6981 30.336 65.6208 30.2623 65.5613 30.175C65.5017 30.0878 65.4612 29.9889 65.4425 29.885C65.4238 29.781 65.4273 29.6743 65.4527 29.5717C65.4781 29.4692 65.5249 29.3732 65.59 29.29C66.0835 28.4907 66.7836 27.8394 67.6164 27.4048C68.4491 26.9702 69.3838 26.7684 70.3217 26.8206C71.2596 26.8728 72.166 27.1771 72.9454 27.7015C73.7248 28.2259 74.3482 28.9509 74.75 29.8C74.7936 29.889 74.8189 29.9859 74.8243 30.0849C74.8298 30.1838 74.8153 30.2829 74.7817 30.3762C74.7481 30.4695 74.6962 30.555 74.6289 30.6278C74.5616 30.7006 74.4803 30.7592 74.39 30.8C74.2902 30.8479 74.1807 30.8719 74.07 30.87V30.87Z" fill="#BAD8DB"/>
<path d="M81.0002 15.73H40.8302C39.8683 15.7326 38.9465 16.1159 38.2663 16.7961C37.5861 17.4763 37.2028 18.3981 37.2002 19.36V46.5C37.7102 46.81 38.2002 47.14 38.7002 47.5V19.36C38.7002 18.7951 38.9246 18.2533 39.3241 17.8538C39.7235 17.4544 40.2653 17.23 40.8302 17.23H81.0002C81.5651 17.23 82.1069 17.4544 82.5063 17.8538C82.9058 18.2533 83.1302 18.7951 83.1302 19.36V59.48C83.1302 60.0449 82.9058 60.5867 82.5063 60.9861C82.1069 61.3856 81.5651 61.61 81.0002 61.61H48.0002C48.1002 62.11 48.1902 62.61 48.2602 63.11H81.0002C81.9621 63.1073 82.8839 62.7241 83.5641 62.0439C84.2443 61.3637 84.6276 60.4419 84.6302 59.48V19.36C84.6276 18.3981 84.2443 17.4763 83.5641 16.7961C82.8839 16.1159 81.9621 15.7326 81.0002 15.73V15.73Z" fill="#BAD8DB"/>
<path d="M60.8901 53.55C57.9121 53.5456 55.0177 52.5653 52.6499 50.7592C50.2821 48.9532 48.5716 46.4208 47.7801 43.55C47.7308 43.362 47.725 43.1652 47.7631 42.9746C47.8013 42.784 47.8823 42.6046 48.0001 42.45C48.1195 42.2972 48.2709 42.1724 48.4436 42.0843C48.6164 41.9962 48.8063 41.947 49.0001 41.94H72.7501C72.9443 41.9449 73.1349 41.9932 73.3079 42.0815C73.481 42.1698 73.6321 42.2957 73.7501 42.45C73.8781 42.6032 73.9677 42.7848 74.0112 42.9796C74.0547 43.1745 74.0509 43.3769 74.0001 43.57C73.2049 46.4371 71.4927 48.965 69.1253 50.7672C66.7579 52.5694 63.8654 53.5468 60.8901 53.55V53.55ZM49.3001 43.44C50.0534 45.9273 51.587 48.1062 53.6741 49.6548C55.7613 51.2034 58.2912 52.0394 60.8901 52.0394C63.4889 52.0394 66.0189 51.2034 68.106 49.6548C70.1931 48.1062 71.7267 45.9273 72.4801 43.44H49.3001Z" fill="#BAD8DB"/>
<path d="M36.4 64.3C37.4714 64.3 38.34 63.4315 38.34 62.36C38.34 61.2886 37.4714 60.42 36.4 60.42C35.3285 60.42 34.46 61.2886 34.46 62.36C34.46 63.4315 35.3285 64.3 36.4 64.3Z" fill="#ED6A5E"/>
<path d="M14.1392 64.3C15.2107 64.3 16.0792 63.4315 16.0792 62.36C16.0792 61.2886 15.2107 60.42 14.1392 60.42C13.0678 60.42 12.1992 61.2886 12.1992 62.36C12.1992 63.4315 13.0678 64.3 14.1392 64.3Z" fill="#ED6A5E"/>
<path d="M25.3495 80.57C22.6303 80.561 19.97 79.7774 17.68 78.311C15.3901 76.8446 13.5654 74.7561 12.4195 72.29C12.336 72.1084 12.328 71.9009 12.3974 71.7134C12.4668 71.5259 12.6079 71.3736 12.7895 71.29C12.9712 71.2065 13.1786 71.1985 13.3662 71.2679C13.5537 71.3373 13.706 71.4784 13.7895 71.66C14.8069 73.8717 16.4372 75.7452 18.4869 77.0585C20.5367 78.3719 22.9201 79.0699 25.3545 79.0699C27.789 79.0699 30.1724 78.3719 32.2221 77.0585C34.2719 75.7452 35.9021 73.8717 36.9195 71.66C37.0061 71.4812 37.1592 71.3434 37.3461 71.2762C37.5331 71.2089 37.7389 71.2174 37.9195 71.3C38.0098 71.341 38.0911 71.3994 38.1587 71.472C38.2263 71.5446 38.2788 71.6298 38.3132 71.7228C38.3476 71.8158 38.3632 71.9147 38.3592 72.0138C38.3551 72.1129 38.3314 72.2102 38.2895 72.3C37.1416 74.7657 35.3147 76.8532 33.0229 78.3179C30.7311 79.7826 28.0694 80.5638 25.3495 80.57V80.57Z" fill="#ED6A5E"/>
<path d="M39.2597 74C39.1248 74.0004 38.9923 73.9644 38.8761 73.8957C38.7599 73.8271 38.6644 73.7284 38.5997 73.61C38.3485 73.0719 37.9708 72.6026 37.4989 72.2422C37.027 71.8817 36.4749 71.6408 35.8897 71.54C35.6923 71.5222 35.51 71.4271 35.3826 71.2753C35.2552 71.1235 35.193 70.9275 35.2097 70.73C35.2093 70.6289 35.23 70.5288 35.2704 70.4361C35.3108 70.3434 35.37 70.26 35.4443 70.1914C35.5185 70.1228 35.6063 70.0703 35.7019 70.0374C35.7975 70.0044 35.8989 69.9917 35.9997 70C36.8348 70.1227 37.6278 70.4461 38.3105 70.9425C38.9932 71.4389 39.5454 72.0934 39.9197 72.85C40.0069 73.0235 40.0244 73.2237 39.9686 73.4097C39.9128 73.5956 39.788 73.7532 39.6197 73.85C39.5139 73.929 39.3902 73.9805 39.2597 74V74Z" fill="#ED6A5E"/>
<path d="M11.3101 74C11.201 73.9883 11.0955 73.9542 11.0001 73.9C10.8318 73.8032 10.707 73.6456 10.6512 73.4597C10.5954 73.2737 10.6129 73.0735 10.7001 72.9C11.0592 72.1373 11.5997 71.4741 12.2743 70.9686C12.949 70.463 13.7372 70.1305 14.5701 70C14.7574 70.0029 14.9369 70.0758 15.0732 70.2043C15.2095 70.3329 15.2927 70.5078 15.3065 70.6947C15.3203 70.8816 15.2637 71.0668 15.1477 71.214C15.0318 71.3612 14.865 71.4596 14.6801 71.49C14.0994 71.6038 13.5538 71.8533 13.088 72.2183C12.6222 72.5833 12.2494 73.0533 12.0001 73.59C11.9348 73.7159 11.8356 73.8211 11.7136 73.8935C11.5917 73.966 11.4519 74.0029 11.3101 74V74Z" fill="#ED6A5E"/>
<path d="M25.3596 42.4901C24.0767 42.4909 22.7959 42.5945 21.5296 42.8L23.2896 43.8C23.2782 43.891 23.2615 43.9811 23.2396 44.07C23.9396 44.01 24.6496 43.9701 25.3596 43.9701C29.7835 43.9681 34.1087 45.2779 37.7883 47.7338C41.4679 50.1898 44.3367 53.6816 46.0319 57.7679C47.7272 61.8541 48.1728 66.3513 47.3124 70.6907C46.452 75.0302 44.3242 79.0171 41.1981 82.1474C38.072 85.2777 34.088 87.4108 29.7497 88.277C25.4113 89.1433 20.9136 88.7037 16.8251 87.0139C12.7366 85.3241 9.24089 82.4601 6.78 78.7837C4.3191 75.1074 3.00351 70.784 2.99956 66.3601C2.99399 63.8543 3.41326 61.3657 4.23956 59C3.82956 59.07 3.42956 59.15 3.00956 59.21L2.92956 58.21C1.19643 62.9811 1.02935 68.1803 2.45258 73.0528C3.87581 77.9252 6.81524 82.2171 10.844 85.305C14.8727 88.393 19.7809 90.1163 24.8558 90.2246C29.9307 90.3329 34.908 88.8206 39.0648 85.9073C43.2216 82.994 46.3414 78.8315 47.9713 74.0242C49.6011 69.2169 49.656 64.0153 48.128 59.1747C46.6 54.3341 43.5686 50.1066 39.4743 47.1062C35.3799 44.1059 30.4356 42.4889 25.3596 42.4901V42.4901Z" fill="#ED6A5E"/>
<path d="M2.32964 60.07L-0.00036428 31.58C-0.00680451 31.3827 0.0376514 31.1871 0.128724 31.012C0.219797 30.8368 0.35442 30.6881 0.519636 30.58C0.694566 30.4741 0.89515 30.4182 1.09964 30.4182C1.30412 30.4182 1.5047 30.4741 1.67964 30.58L24.0796 43.47V43.95C23.9996 44 22.4496 57.08 3.11964 60L2.32964 60.07ZM1.55964 32.18L3.68964 58.34C19.2696 55.74 21.9996 46.45 22.4596 44.21L1.55964 32.18Z" fill="#ED6A5E"/>
<path d="M2.53003 54.08C2.40776 54.079 2.28756 54.0484 2.17962 53.9909C2.07169 53.9335 1.97921 53.8508 1.91003 53.75C1.80876 53.5895 1.77305 53.3962 1.81027 53.2101C1.84749 53.024 1.95481 52.8593 2.11003 52.75C11.17 46.55 12.11 37.87 12.11 37.75C12.1327 37.5528 12.2307 37.372 12.3835 37.2453C12.5362 37.1186 12.7321 37.0558 12.93 37.07C13.1275 37.0902 13.3089 37.1879 13.4345 37.3416C13.5601 37.4953 13.6196 37.6925 13.6 37.89C13.6 38.27 12.6 47.33 2.94003 53.89C2.8269 53.9951 2.68335 54.0617 2.53003 54.08V54.08Z" fill="#ED6A5E"/>
<path d="M66.6599 51.8C66.4793 51.8065 66.3033 51.7419 66.1699 51.62C64.661 50.3292 62.7406 49.6199 60.7549 49.6199C58.7692 49.6199 56.8488 50.3292 55.3399 51.62C55.2657 51.6859 55.1791 51.7361 55.0851 51.7678C54.9912 51.7995 54.8918 51.812 54.7929 51.8045C54.6941 51.797 54.5977 51.7698 54.5095 51.7244C54.4214 51.6789 54.3433 51.6162 54.2799 51.54C54.152 51.388 54.0888 51.1918 54.1037 50.9937C54.1187 50.7956 54.2106 50.6112 54.3599 50.48C56.1405 48.9568 58.4066 48.1198 60.7499 48.1198C63.0931 48.1198 65.3593 48.9568 67.1399 50.48C67.2156 50.5435 67.2781 50.6214 67.3236 50.7092C67.3692 50.7969 67.397 50.8928 67.4053 50.9913C67.4137 51.0898 67.4025 51.189 67.3724 51.2832C67.3423 51.3774 67.2938 51.4646 67.2299 51.54C67.1588 51.6214 67.0712 51.6867 66.9729 51.7315C66.8746 51.7763 66.7679 51.7997 66.6599 51.8Z" fill="#BAD8DB"/>
<path d="M60.8701 8C60.6712 8 60.4804 7.92098 60.3398 7.78033C60.1991 7.63968 60.1201 7.44891 60.1201 7.25V0.75C60.1201 0.551088 60.1991 0.360322 60.3398 0.21967C60.4804 0.0790176 60.6712 0 60.8701 0C61.069 0 61.2598 0.0790176 61.4004 0.21967C61.5411 0.360322 61.6201 0.551088 61.6201 0.75V7.25C61.6175 7.44811 61.5377 7.63737 61.3976 7.77747C61.2575 7.91756 61.0682 7.99741 60.8701 8V8Z" fill="#BAD8DB"/>
<path d="M67.07 9.34002C66.9712 9.34225 66.873 9.32384 66.7818 9.28596C66.6905 9.24807 66.6081 9.19156 66.54 9.12002C66.4692 9.05108 66.413 8.96866 66.3746 8.87764C66.3362 8.78661 66.3164 8.68882 66.3164 8.59002C66.3164 8.49123 66.3362 8.39344 66.3746 8.30241C66.413 8.21139 66.4692 8.12897 66.54 8.06003L70.76 3.84002C70.9022 3.70754 71.0902 3.63542 71.2845 3.63885C71.4788 3.64228 71.6642 3.72099 71.8016 3.8584C71.939 3.99582 72.0177 4.1812 72.0211 4.3755C72.0246 4.5698 71.9525 4.75785 71.82 4.90002L67.6 9.12002C67.5307 9.19014 67.4482 9.24571 67.3572 9.28349C67.2662 9.32127 67.1685 9.34049 67.07 9.34002V9.34002Z" fill="#BAD8DB"/>
<path d="M54.8398 9.33997C54.7411 9.341 54.6433 9.32204 54.5522 9.28423C54.4612 9.24642 54.3787 9.19054 54.3098 9.11997L50.1998 4.99997C50.0768 4.86246 50.0088 4.68445 50.0088 4.49997C50.0088 4.31549 50.0768 4.13748 50.1998 3.99997C50.3433 3.86127 50.5352 3.78375 50.7348 3.78375C50.9344 3.78375 51.1262 3.86127 51.2698 3.99997L55.3698 8.09997C55.5102 8.2406 55.5891 8.43122 55.5891 8.62997C55.5891 8.82872 55.5102 9.01934 55.3698 9.15997C55.2235 9.28705 55.0332 9.35168 54.8398 9.33997V9.33997Z" fill="#BAD8DB"/>
</g>
<defs>
<clipPath id="clip0">
<rect width="84.58" height="90.23" fill="white"/>
</clipPath>
</defs>
</svg>
