<svg width="83" height="81" viewBox="0 0 83 81" fill="none" xmlns="http://www.w3.org/2000/svg">
<path d="M35.3966 34.1091C36.3945 34.1091 37.2034 33.3002 37.2034 32.3024C37.2034 31.3045 36.3945 30.4956 35.3966 30.4956C34.3989 30.4956 33.5898 31.3045 33.5898 32.3024C33.5898 33.3002 34.3989 34.1091 35.3966 34.1091Z" fill="#ED6A5E"/>
<path d="M39.5704 43.0259C39.5648 43.2833 39.4627 43.5292 39.2844 43.7148C39.1017 43.8974 38.8538 44 38.5955 44C38.3371 44 38.0894 43.8974 37.9066 43.7148L32.6293 38.4505L27.43 43.7148C27.2452 43.887 27.0008 43.9809 26.7483 43.9763C26.4957 43.9719 26.2547 43.8696 26.0761 43.691C25.8975 43.5124 25.7951 43.2715 25.7907 43.0189C25.7863 42.7663 25.88 42.5218 26.0522 42.337L32.6943 35.6949L39.2844 42.337C39.4627 42.5228 39.5648 42.7687 39.5704 43.0259Z" fill="#ED6A5E"/>
<path d="M49.9688 40.4262C49.9632 40.6835 49.8612 40.9295 49.6828 41.1151C49.5001 41.2977 49.2522 41.4003 48.9939 41.4003C48.7355 41.4003 48.4878 41.2977 48.305 41.1151L43.0277 35.8508L37.8285 41.1151C37.6436 41.2873 37.3992 41.3812 37.1467 41.3766C36.8941 41.3722 36.6532 41.2699 36.4746 41.0913C36.296 40.9127 36.1935 40.6717 36.1891 40.4192C36.1847 40.1666 36.2784 39.9221 36.4506 39.7373L43.0927 33.0952L49.6828 39.7373C49.8612 39.923 49.9632 40.1689 49.9688 40.4262Z" fill="#ED6A5E"/>
<rect x="12.5801" y="11.7252" width="50.941" height="60.0612" rx="1.45" stroke="#BAD8DB" stroke-width="1.5"/>
<rect x="18.2803" y="17.4253" width="39.5408" height="39.5408" rx="1.45" stroke="#BAD8DB" stroke-width="1.5"/>
<path fill-rule="evenodd" clip-rule="evenodd" d="M66.2828 64.9229L64.2715 64.5576V63.0331L66.5509 63.447C66.9312 63.5161 67.2956 63.2638 67.3647 62.8834L73.912 26.8323C73.9811 26.4519 73.7288 26.0876 73.3484 26.0185L64.2715 24.37V22.8455L73.6164 24.5426C74.8119 24.7597 75.605 25.9049 75.3879 27.1003L68.8405 63.1514C68.6234 64.3469 67.4783 65.14 66.2828 64.9229Z" fill="#BAD8DB"/>
<path fill-rule="evenodd" clip-rule="evenodd" d="M69.2424 80.5232L25.2656 72.5364H33.66L69.5105 79.0474C69.8909 79.1164 70.2552 78.8641 70.3243 78.4837L80.5385 22.2425C80.6075 21.8621 80.3552 21.4978 79.9748 21.4287L64.271 18.5767V17.0521L80.2428 19.9528C81.4383 20.1699 82.2314 21.3151 82.0143 22.5105L71.8002 78.7517C71.583 79.9472 70.4379 80.7403 69.2424 80.5232Z" fill="#BAD8DB"/>
<path d="M3.13522 27.6455C3.60743 27.6455 3.99023 27.2627 3.99023 26.7905L3.99023 2.28001C3.99023 1.8078 3.60743 1.42499 3.13522 1.42499V1.42499C2.663 1.42499 2.2802 1.8078 2.2802 2.28001L2.2802 26.7905C2.2802 27.2627 2.663 27.6455 3.13522 27.6455V27.6455Z" fill="#ED6A5E"/>
<path d="M2.28027 2.27999C2.28027 2.75221 2.66308 3.13501 3.13529 3.13501L27.6458 3.13501C28.118 3.13501 28.5008 2.75221 28.5008 2.27999V2.27999C28.5008 1.80778 28.118 1.42498 27.6458 1.42498L3.13529 1.42498C2.66308 1.42498 2.28027 1.80778 2.28027 2.27999V2.27999Z" fill="#ED6A5E"/>
<path d="M1.13518 26.8486L5.08433 26.8389L3.11813 30.2638L1.13518 26.8486Z" fill="#ED6A5E"/>
<path d="M30.2108 2.28004L26.7948 4.26168L26.7866 0.312532L30.2108 2.28004Z" fill="#ED6A5E"/>
</svg>
