<svg width="111" height="88" viewBox="0 0 111 88" fill="none" xmlns="http://www.w3.org/2000/svg">
<g clip-path="url(#clip0)">
<path d="M105.52 48C109.628 41.4984 111.195 33.7113 109.923 26.1269C108.651 18.5426 104.629 11.6929 98.6254 6.88696C92.6218 2.08107 85.0577 -0.343962 77.3788 0.0753588C69.7 0.49468 62.4449 3.72894 57.0003 9.16C54.1292 12.0229 51.8463 15.4201 50.2803 19.16C50.7403 19.37 51.2003 19.59 51.6503 19.82C53.1374 16.2427 55.3156 12.994 58.0603 10.26C63.2695 5.1057 70.1967 2.05385 77.5158 1.68874C84.8349 1.32363 92.0315 3.67092 97.7278 8.2812C103.424 12.8915 107.22 19.4408 108.388 26.6752C109.557 33.9097 108.016 41.3209 104.06 47.49L103.9 47.75L106.17 58.4L95.5503 56.09L95.2903 56.26C91.6232 58.6158 87.484 60.1385 83.1645 60.7208C78.8449 61.3031 74.4503 60.9307 70.2903 59.63C70.1803 60.13 70.0503 60.63 69.9203 61.1C72.9261 62.0283 76.0543 62.5002 79.2003 62.5C85.1055 62.5122 90.8917 60.8401 95.8803 57.68L106.38 59.92C106.576 59.9635 106.779 59.9569 106.971 59.901C107.164 59.845 107.339 59.7414 107.48 59.5998C107.622 59.4583 107.725 59.2832 107.781 59.091C107.837 58.8987 107.844 58.6955 107.8 58.5L105.52 48Z" fill="#ED6A5E"/>
<path d="M35.85 82.77C29.9503 82.7927 24.1656 81.1384 19.17 78L8.67997 80.2C8.48209 80.2412 8.27707 80.2327 8.08332 80.1751C7.88957 80.1175 7.71317 80.0126 7.56997 79.87C7.4276 79.7289 7.32351 79.5539 7.26752 79.3614C7.21153 79.169 7.20549 78.9654 7.24997 78.77L9.48997 68.28C5.38324 61.7795 3.81554 53.9937 5.08641 46.4104C6.35728 38.827 10.3776 31.9778 16.3792 27.1713C22.3809 22.3648 29.943 19.938 37.6208 20.3547C45.2986 20.7714 52.5537 24.0022 58 29.43C62.3809 33.8002 65.3649 39.3734 66.5731 45.4423C67.7814 51.5112 67.1595 57.8022 64.7863 63.5171C62.4132 69.232 58.3957 74.113 53.2439 77.5408C48.092 80.9686 42.038 82.7887 35.85 82.77V82.77ZM19.46 76.36L19.72 76.53C25.8918 80.5326 33.3267 82.1093 40.592 80.9563C47.8572 79.8032 54.4386 76.0019 59.0678 70.285C63.697 64.5681 66.0465 57.3401 65.6635 49.9939C65.2806 42.6477 62.1922 35.7033 56.9935 30.4987C51.7949 25.2942 44.8539 22.1979 37.5082 21.8066C30.1624 21.4152 22.9318 23.7565 17.2096 28.3793C11.4875 33.002 7.67872 39.5791 6.51739 46.843C5.35606 54.1069 6.92433 61.5436 10.92 67.72L11.09 67.98L8.80997 78.63L19.46 76.36Z" fill="#BAD8DB"/>
<path d="M42.2707 57.28C42.1721 57.2805 42.0745 57.2612 41.9835 57.2235C41.8925 57.1857 41.8099 57.1301 41.7407 57.06C41.6002 56.9194 41.5213 56.7288 41.5213 56.53C41.5213 56.3313 41.6002 56.1406 41.7407 56L46.7407 51L41.7407 45.94C41.667 45.8713 41.6079 45.7885 41.5669 45.6965C41.5259 45.6045 41.5038 45.5052 41.5021 45.4045C41.5003 45.3038 41.5188 45.2038 41.5565 45.1104C41.5943 45.017 41.6504 44.9322 41.7216 44.861C41.7928 44.7897 41.8777 44.7336 41.9711 44.6959C42.0645 44.6582 42.1645 44.6396 42.2652 44.6414C42.3659 44.6432 42.4652 44.6652 42.5572 44.7062C42.6492 44.7472 42.732 44.8063 42.8007 44.88L48.9107 51L42.8007 57.06C42.7314 57.1301 42.6489 57.1857 42.5579 57.2235C42.4668 57.2612 42.3692 57.2805 42.2707 57.28V57.28Z" fill="#ED6A5E"/>
<path d="M27.5404 57.28C27.4419 57.2805 27.3442 57.2612 27.2532 57.2235C27.1622 57.1857 27.0796 57.1301 27.0104 57.06L20.9004 51L27.0004 44.83C27.141 44.6895 27.3316 44.6107 27.5304 44.6107C27.7291 44.6107 27.9198 44.6895 28.0604 44.83C28.1311 44.8989 28.1874 44.9814 28.2258 45.0724C28.2642 45.1634 28.284 45.2612 28.284 45.36C28.284 45.4588 28.2642 45.5566 28.2258 45.6476C28.1874 45.7386 28.1311 45.821 28.0604 45.89L23.0004 51L28.0504 56C28.1211 56.0689 28.1774 56.1514 28.2158 56.2424C28.2542 56.3334 28.274 56.4312 28.274 56.53C28.274 56.6288 28.2542 56.7266 28.2158 56.8176C28.1774 56.9086 28.1211 56.9911 28.0504 57.06C27.9845 57.1291 27.9054 57.1841 27.8178 57.2219C27.7302 57.2597 27.6358 57.2795 27.5404 57.28V57.28Z" fill="#ED6A5E"/>
<path d="M31.9406 61C31.8642 61.0088 31.787 61.0088 31.7106 61C31.6106 60.97 31.5179 60.9195 31.4385 60.8517C31.3592 60.7839 31.2948 60.7002 31.2496 60.6061C31.2045 60.5119 31.1794 60.4094 31.1762 60.305C31.1729 60.2007 31.1914 60.0968 31.2306 60L37.0706 42.13C37.133 41.9404 37.2681 41.7833 37.4462 41.6932C37.5344 41.6487 37.6306 41.6219 37.7291 41.6145C37.8277 41.6071 37.9267 41.6191 38.0206 41.65C38.1145 41.6809 38.2014 41.7299 38.2764 41.7944C38.3513 41.8588 38.4128 41.9374 38.4574 42.0256C38.5019 42.1138 38.5287 42.2099 38.5361 42.3085C38.5435 42.407 38.5315 42.5061 38.5006 42.6L32.6606 60.48C32.609 60.6304 32.5121 60.7612 32.3832 60.8543C32.2542 60.9474 32.0996 60.9983 31.9406 61V61Z" fill="#ED6A5E"/>
</g>
<defs>
<clipPath id="clip0">
<rect width="110.37" height="87.13" fill="white"/>
</clipPath>
</defs>
</svg>
