<svg fill="none" height="88" viewBox="0 0 111 88" width="111" xmlns="http://www.w3.org/2000/svg"><path d="m105.52 48c4.108-6.5016 5.675-14.2887 4.403-21.8731-1.272-7.5843-5.294-14.434-11.2976-19.23994-6.0036-4.80589-13.5677-7.230922-21.2466-6.8116012-7.6788.4193212-14.9339 3.6535812-20.3785 9.0846412-2.8711 2.8629-5.154 6.2601-6.72 10 .46.21.92.43 1.37.66 1.4871-3.5773 3.6653-6.826 6.41-9.56 5.2092-5.1543 12.1364-8.20615 19.4555-8.57126s14.5157 1.98218 20.212 6.59246c5.6962 4.6103 9.4922 11.1596 10.6602 18.394 1.169 7.2345-.372 14.6457-4.328 20.8148l-.16.26 2.27 10.65-10.6197-2.31-.26.17c-3.6671 2.3558-7.8063 3.8785-12.1258 4.4608-4.3196.5823-8.7142.2099-12.8742-1.0908-.11.5-.24 1-.37 1.47 3.0058.9283 6.134 1.4002 9.28 1.4 5.9052.0122 11.6914-1.6599 16.68-4.82l10.4997 2.24c.196.0435.399.0369.591-.019.193-.056.368-.1596.509-.3012.142-.1415.245-.3166.301-.5088.056-.1923.063-.3955.019-.591z" fill="#ed6a5e"/><path d="m35.85 82.7701c-5.8997.0227-11.6844-1.6316-16.68-4.77l-10.49003 2.2c-.19788.0412-.4029.0327-.59665-.0249s-.37015-.1625-.51335-.3051c-.14237-.1411-.24646-.3161-.30245-.5086-.05599-.1924-.06203-.396-.01755-.5914l2.24-10.49c-4.10673-6.5005-5.67443-14.2863-4.40356-21.8696 1.27087-7.5834 5.29119-14.4326 11.29279-19.2391 6.0017-4.8065 13.5638-7.2333 21.2416-6.8166s14.9329 3.6475 20.3792 9.0753c4.3809 4.3702 7.3649 9.9434 8.5731 16.0123 1.2083 6.0689.5864 12.3599-1.7868 18.0748-2.3731 5.7149-6.3906 10.5959-11.5424 14.0237-5.1519 3.4278-11.2059 5.2479-17.3939 5.2292zm-16.39-6.41.26.17c6.1718 4.0026 13.6067 5.5793 20.872 4.4263 7.2652-1.1531 13.8466-4.9544 18.4758-10.6713s6.9787-12.9449 6.5957-20.2911c-.3829-7.3462-3.4713-14.2906-8.67-19.4952-5.1986-5.2045-12.1396-8.3008-19.4853-8.6921-7.3458-.3914-14.5764 1.9499-20.2986 6.5727-5.7221 4.6227-9.53088 11.1998-10.69221 18.4637s.40694 14.7006 4.40261 20.877l.17.26-2.28003 10.65z" fill="#bad8db"/><g fill="#ed6a5e"><path d="m42.2707 57.2801c-.0986.0005-.1962-.0188-.2872-.0565-.091-.0378-.1736-.0934-.2428-.1635-.1405-.1406-.2194-.3312-.2194-.53 0-.1987.0789-.3894.2194-.53l5-5-5-5.06c-.0737-.0687-.1328-.1515-.1738-.2435s-.0631-.1913-.0648-.292c-.0018-.1007.0167-.2007.0544-.2941.0378-.0934.0939-.1782.1651-.2494.0712-.0713.1561-.1274.2495-.1651s.1934-.0563.2941-.0545.2.0238.292.0648.1748.1001.2435.1738l6.11 6.12-6.11 6.06c-.0693.0701-.1518.1257-.2428.1635-.0911.0377-.1887.057-.2872.0565z"/><path d="m27.5404 57.2799c-.0985.0005-.1962-.0188-.2872-.0565-.091-.0378-.1736-.0934-.2428-.1635l-6.11-6.06 6.1-6.17c.1406-.1405.3312-.2193.53-.2193.1987 0 .3894.0788.53.2193.0707.0689.127.1514.1654.2424s.0582.1888.0582.2876-.0198.1966-.0582.2876-.0947.1734-.1654.2424l-5.06 5.11 5.05 5c.0707.0689.127.1514.1654.2424s.0582.1888.0582.2876-.0198.1966-.0582.2876-.0947.1735-.1654.2424c-.0659.0691-.145.1241-.2326.1619s-.182.0576-.2774.0581z"/><path d="m31.9406 60.9999c-.0764.0088-.1536.0088-.23 0-.1-.03-.1927-.0805-.2721-.1483-.0793-.0678-.1437-.1515-.1889-.2456-.0451-.0942-.0702-.1967-.0734-.3011-.0033-.1043.0152-.2082.0544-.305l5.84-17.87c.0624-.1896.1975-.3467.3756-.4368.0882-.0445.1844-.0713.2829-.0787.0986-.0074.1976.0046.2915.0355s.1808.0799.2558.1444c.0749.0644.1364.143.181.2312.0445.0882.0713.1843.0787.2829.0074.0985-.0046.1976-.0355.2915l-5.84 17.88c-.0516.1504-.1485.2812-.2774.3743-.129.0931-.2836.144-.4426.1457z"/></g></svg>