<svg width="68" height="93" viewBox="0 0 68 93" fill="none" xmlns="http://www.w3.org/2000/svg">
<g clip-path="url(#clip0)">
<path d="M40.4497 23.83H28.8297L27.4597 19C27.4067 18.8077 27.4322 18.6023 27.5306 18.4288C27.6291 18.2553 27.7924 18.1281 27.9847 18.075C28.177 18.022 28.3825 18.0475 28.5559 18.146C28.7294 18.2444 28.8567 18.4077 28.9097 18.6L29.9997 22.33H39.3397L40.3997 18.57C40.4527 18.3777 40.58 18.2144 40.7535 18.116C40.9269 18.0175 41.1324 17.992 41.3247 18.045C41.517 18.0981 41.6803 18.2253 41.7788 18.3988C41.8772 18.5723 41.9027 18.7777 41.8497 18.97L40.4497 23.83Z" fill="#BAD8DB"/>
<path d="M34.4001 19.52C26.7701 19.52 20.4601 18.67 16.1501 17.08C10.5201 14.99 9.33008 12.08 9.33008 10.08C9.33008 7.72002 11.1101 0.0800171 33.9301 0.0800171C35.1601 0.0800171 36.4401 0.0800171 37.7501 0.150017C49.0801 0.570017 67.1201 5.30002 67.1201 10.15C67.1201 14.56 50.5501 19.2 37.7001 19.57C36.5701 19.5 35.4601 19.52 34.4001 19.52V19.52ZM33.9301 1.52002C16.9301 1.52002 10.8301 6.12002 10.8301 10.07C10.8301 12.33 12.8301 14.27 16.6801 15.69C20.8201 17.21 27.0001 18 34.4001 18C35.4501 18 36.5401 18 37.6601 17.95C51.5301 17.55 65.6601 12.58 65.6601 10.03C65.6601 7.15002 50.4101 2.03002 37.7301 1.55002C36.4001 1.52002 35.1401 1.50002 33.9301 1.50002V1.52002Z" fill="#BAD8DB"/>
<path d="M35 32.36C34.8019 32.3574 34.6126 32.2776 34.4725 32.1375C34.3324 31.9974 34.2526 31.8081 34.25 31.61V23.08C34.25 22.8811 34.329 22.6903 34.4697 22.5497C34.6103 22.409 34.8011 22.33 35 22.33C35.1989 22.33 35.3897 22.409 35.5303 22.5497C35.671 22.6903 35.75 22.8811 35.75 23.08V31.61C35.7474 31.8081 35.6676 31.9974 35.5275 32.1375C35.3874 32.2776 35.1981 32.3574 35 32.36V32.36Z" fill="#BAD8DB"/>
<path d="M39.14 36.49C38.9415 36.4877 38.7517 36.4089 38.61 36.27L35 32.67L31.4 36.27C31.2578 36.4025 31.0697 36.4746 30.8754 36.4712C30.6811 36.4677 30.4958 36.389 30.3583 36.2516C30.2209 36.1142 30.1422 35.9288 30.1388 35.7345C30.1354 35.5402 30.2075 35.3522 30.34 35.21L35 30.55L39.66 35.21C39.8004 35.3506 39.8793 35.5412 39.8793 35.74C39.8793 35.9387 39.8004 36.1294 39.66 36.27C39.5197 36.4049 39.3345 36.4832 39.14 36.49V36.49Z" fill="#BAD8DB"/>
<path d="M34.5795 19.52C26.9595 19.52 20.6495 18.67 16.3395 17.08C10.6995 14.99 9.51953 12.08 9.51953 10.08C9.51953 7.72002 11.2895 0.0800171 34.1195 0.0800171C35.3395 0.0800171 36.6295 0.0800171 37.9295 0.150017C45.7028 0.501501 53.3758 2.04622 60.6795 4.73002L63.8595 1.55002H66.7695V8.55002C67.0996 8.99013 67.288 9.52028 67.3095 10.07C67.2868 10.6012 67.0979 11.1119 66.7695 11.53V19H63.8595L60.2195 15.36C53.0245 17.8438 45.4972 19.2326 37.8895 19.48C36.7495 19.5 35.6495 19.52 34.5795 19.52V19.52ZM34.1195 1.52002C17.1195 1.52002 11.0195 6.12002 11.0195 10.07C11.0195 12.33 13.0195 14.27 16.8595 15.69C20.9995 17.21 27.1295 18 34.5795 18C35.6295 18 36.7195 18 37.8495 17.95C45.4508 17.7081 52.9693 16.2948 60.1395 13.76L60.5895 13.58L64.4795 17.47H65.2695V11L65.4395 10.79C65.6387 10.5972 65.7687 10.3442 65.8095 10.07C65.7728 9.76925 65.6394 9.48854 65.4295 9.27002L65.2695 9.07002V3.07002H64.4795L60.9995 6.50002L60.5395 6.31002C53.2775 3.5652 45.6329 1.9661 37.8795 1.57002C36.5895 1.52002 35.3195 1.50002 34.1195 1.50002V1.52002Z" fill="#BAD8DB"/>
<path d="M66.3701 10.8H10.0801C9.88117 10.8 9.6904 10.721 9.54975 10.5803C9.4091 10.4397 9.33008 10.2489 9.33008 10.05C9.33008 9.85108 9.4091 9.66031 9.54975 9.51966C9.6904 9.379 9.88117 9.29999 10.0801 9.29999H66.3701C66.569 9.29999 66.7598 9.379 66.9004 9.51966C67.0411 9.66031 67.1201 9.85108 67.1201 10.05C67.1201 10.2489 67.0411 10.4397 66.9004 10.5803C66.7598 10.721 66.569 10.8 66.3701 10.8Z" fill="#BAD8DB"/>
<path d="M16.33 92.54H0V76.21H16.33V92.54ZM1.5 91H14.83V77.71H1.5V91Z" fill="#BAD8DB"/>
<path d="M31.1601 92.54H14.8301V76.21H31.1601V92.54ZM16.3301 91H29.6601V77.71H16.3301V91Z" fill="#BAD8DB"/>
<path d="M46.0002 92.54H29.6602V76.21H46.0002V92.54ZM31.1602 91H44.5002V77.71H31.1602V91Z" fill="#BAD8DB"/>
<path d="M16.33 77.71H0V61.38H16.33V77.71ZM1.5 76.21H14.83V62.88H1.5V76.21Z" fill="#BAD8DB"/>
<path d="M57.2502 51.32H40.9102V35H57.2502V51.32ZM42.4102 49.82H55.7502V36.49H42.4102V49.82Z" fill="#ED6A5E"/>
<path d="M27.58 51.32H11.25V35H27.58V51.32ZM12.75 49.82H26.08V36.49H12.75V49.82Z" fill="#ED6A5E"/>
<path d="M42.4101 51.32H26.0801V35H42.4101V51.32ZM27.5801 49.82H40.9101V36.49H27.5801V49.82Z" fill="#ED6A5E"/>
<path d="M42.4101 66.55H26.0801V50.22H42.4101V66.55ZM27.5801 65.05H40.9101V51.72H27.5801V65.05Z" fill="#ED6A5E"/>
</g>
<defs>
<clipPath id="clip0">
<rect width="67.31" height="92.54" fill="white"/>
</clipPath>
</defs>
</svg>
