<svg width="93" height="69" viewBox="0 0 93 69" fill="none" xmlns="http://www.w3.org/2000/svg">
<g clip-path="url(#clip0)">
<path d="M91.93 61H0.75C0.75 62.9016 1.50541 64.7253 2.85004 66.07C4.19468 67.4146 6.0184 68.17 7.92 68.17H84.75C86.6525 68.17 88.4773 67.4149 89.8235 66.0706C91.1697 64.7262 91.9274 62.9025 91.93 61V61Z" stroke="#ED6A5E" stroke-width="1.5" stroke-miterlimit="10"/>
<path d="M66.6799 16.12H11.2099C11.0667 16.12 10.9294 16.1769 10.8281 16.2782C10.7268 16.3794 10.6699 16.5168 10.6699 16.66V60.43C10.6699 60.5741 10.7265 60.7125 10.8275 60.8154C10.9285 60.9183 11.0658 60.9774 11.2099 60.98H81.4699C81.6141 60.9774 81.7514 60.9183 81.8524 60.8154C81.9534 60.7125 82.0099 60.5741 82.0099 60.43V46.28" stroke="#ED6A5E" stroke-width="1.5" stroke-miterlimit="10"/>
<path d="M89.5397 0.75H69.0797C67.7542 0.75 66.6797 1.82452 66.6797 3.15V43.88C66.6797 45.2055 67.7542 46.28 69.0797 46.28H89.5397C90.8652 46.28 91.9397 45.2055 91.9397 43.88V3.15C91.9397 1.82452 90.8652 0.75 89.5397 0.75Z" stroke="#BAD8DB" stroke-width="1.5" stroke-miterlimit="10"/>
<path d="M84.6098 6.95001H74.0098" stroke="#ED6A5E" stroke-width="1.5" stroke-miterlimit="10" stroke-linecap="round"/>
<path d="M34.5401 51.84C41.6977 51.84 47.5001 46.0376 47.5001 38.88C47.5001 31.7224 41.6977 25.92 34.5401 25.92C27.3825 25.92 21.5801 31.7224 21.5801 38.88C21.5801 46.0376 27.3825 51.84 34.5401 51.84Z" stroke="#BAD8DB" stroke-width="1.5" stroke-miterlimit="10"/>
</g>
<defs>
<clipPath id="clip0">
<rect width="92.69" height="68.9" fill="white"/>
</clipPath>
</defs>
</svg>
