<svg fill="none" height="69" viewBox="0 0 93 69" width="93" xmlns="http://www.w3.org/2000/svg"><g stroke-miterlimit="10" stroke-width="1.5"><path d="m91.93 61h-91.18c0 1.9016.75541 3.7253 2.10004 5.07 1.34464 1.3446 3.16836 2.1 5.06996 2.1h76.83c1.9025 0 3.7273-.7551 5.0735-2.0994 1.3462-1.3444 2.1039-3.1681 2.1065-5.0706z" stroke="#ed6a5e"/><path d="m66.6799 16.1201h-55.47c-.1432 0-.2805.0569-.3818.1582-.1013.1012-.1582.2386-.1582.3818v43.77c0 .1441.0566.2825.1576.3854s.2383.162.3824.1646h70.26c.1442-.0026.2815-.0617.3825-.1646s.1575-.2413.1575-.3854v-14.15" stroke="#ed6a5e"/><path d="m89.5397.75h-20.46c-1.3255 0-2.4 1.07452-2.4 2.4v40.73c0 1.3255 1.0745 2.4 2.4 2.4h20.46c1.3255 0 2.4-1.0745 2.4-2.4v-40.73c0-1.32548-1.0745-2.4-2.4-2.4z" stroke="#bad8db"/><path d="m84.6098 6.94995h-10.6" stroke="#ed6a5e" stroke-linecap="round"/><path d="m34.5401 51.8399c7.1576 0 12.96-5.8024 12.96-12.96s-5.8024-12.96-12.96-12.96-12.96 5.8024-12.96 12.96 5.8024 12.96 12.96 12.96z" stroke="#bad8db"/></g></svg>