<svg width="104" height="74" viewBox="0 0 104 74" fill="none" xmlns="http://www.w3.org/2000/svg">
<g clip-path="url(#clip0)">
<path d="M19.28 44.9H2.2C2.01435 44.9 1.8363 44.8262 1.70503 44.695C1.57375 44.5637 1.5 44.3857 1.5 44.2V24H19.28V22.5H1.5V2.2C1.50259 2.01515 1.57717 1.8386 1.70788 1.70788C1.8386 1.57717 2.01515 1.50259 2.2 1.5H22.45V20.74H24V1.5H44.2C44.2919 1.5 44.383 1.51811 44.4679 1.55328C44.5528 1.58846 44.63 1.64002 44.695 1.70503C44.76 1.77003 44.8115 1.84719 44.8467 1.93212C44.8819 2.01705 44.9 2.10807 44.9 2.2V20.74H46.4V2.2C46.3974 1.61733 46.1647 1.05928 45.7527 0.647272C45.3407 0.23526 44.7827 0.00263059 44.2 0L2.2 0C1.61733 0.00263059 1.05928 0.23526 0.647272 0.647272C0.23526 1.05928 0.00263059 1.61733 0 2.2L0 44.2C0 44.7835 0.231785 45.3431 0.644365 45.7556C0.848654 45.9599 1.09118 46.122 1.3581 46.2325C1.62501 46.3431 1.91109 46.4 2.2 46.4H19.28V44.9Z" fill="#ED6A5E"/>
<path d="M26.4095 27.59C27.1772 27.59 27.7995 26.9677 27.7995 26.2C27.7995 25.4323 27.1772 24.81 26.4095 24.81C25.6419 24.81 25.0195 25.4323 25.0195 26.2C25.0195 26.9677 25.6419 27.59 26.4095 27.59Z" fill="#ED6A5E"/>
<path d="M99.36 54.75H78.45C77.4687 54.75 76.5276 54.3602 75.8337 53.6663C75.1398 52.9724 74.75 52.0313 74.75 51.05V10.34C74.75 9.35871 75.1398 8.4176 75.8337 7.72372C76.5276 7.02983 77.4687 6.64001 78.45 6.64001H99.36C100.341 6.64001 101.282 7.02983 101.976 7.72372C102.67 8.4176 103.06 9.35871 103.06 10.34V51.05C103.06 52.0313 102.67 52.9724 101.976 53.6663C101.282 54.3602 100.341 54.75 99.36 54.75V54.75ZM78.45 8.14002C77.8673 8.14265 77.3093 8.37528 76.8973 8.78729C76.4853 9.1993 76.2526 9.75735 76.25 10.34V51.05C76.2526 51.6327 76.4853 52.1907 76.8973 52.6027C77.3093 53.0148 77.8673 53.2474 78.45 53.25H99.36C99.9427 53.2474 100.501 53.0148 100.913 52.6027C101.325 52.1907 101.557 51.6327 101.56 51.05V10.34C101.557 9.75735 101.325 9.1993 100.913 8.78729C100.501 8.37528 99.9427 8.14265 99.36 8.14002H78.45Z" fill="#BAD8DB"/>
<path d="M90.0003 54V71.87H20.0003V32.45H75.5003V31H20.0003V21.49H75.5003V20H19.8603C19.6861 19.9987 19.5134 20.0319 19.3521 20.0976C19.1908 20.1634 19.0441 20.2604 18.9204 20.3831C18.7968 20.5058 18.6987 20.6518 18.6317 20.8126C18.5647 20.9734 18.5303 21.1458 18.5303 21.32V72.05C18.5303 72.2242 18.5647 72.3967 18.6317 72.5575C18.6987 72.7183 18.7968 72.8643 18.9204 72.987C19.0441 73.1097 19.1908 73.2067 19.3521 73.2724C19.5134 73.3382 19.6861 73.3714 19.8603 73.37H90.1903C90.5413 73.3701 90.8781 73.2313 91.1272 72.984C91.3764 72.7368 91.5176 72.401 91.5203 72.05V54H90.0003Z" fill="#BAD8DB"/>
<path d="M99.36 54.75H78.45C77.4687 54.75 76.5276 54.3602 75.8337 53.6663C75.1398 52.9724 74.75 52.0313 74.75 51.05V10.34C74.75 9.35871 75.1398 8.4176 75.8337 7.72372C76.5276 7.02983 77.4687 6.64001 78.45 6.64001H99.36C100.341 6.64001 101.282 7.02983 101.976 7.72372C102.67 8.4176 103.06 9.35871 103.06 10.34V51.05C103.06 52.0313 102.67 52.9724 101.976 53.6663C101.282 54.3602 100.341 54.75 99.36 54.75V54.75ZM78.45 8.14002C77.8673 8.14265 77.3093 8.37528 76.8973 8.78729C76.4853 9.1993 76.2526 9.75735 76.25 10.34V51.05C76.2526 51.6327 76.4853 52.1907 76.8973 52.6027C77.3093 53.0148 77.8673 53.2474 78.45 53.25H99.36C99.9427 53.2474 100.501 53.0148 100.913 52.6027C101.325 52.1907 101.557 51.6327 101.56 51.05V10.34C101.557 9.75735 101.325 9.1993 100.913 8.78729C100.501 8.37528 99.9427 8.14265 99.36 8.14002H78.45Z" fill="#BAD8DB"/>
<path d="M94.56 13.59H83.25C83.0511 13.59 82.8603 13.511 82.7197 13.3704C82.579 13.2297 82.5 13.0389 82.5 12.84C82.5 12.6411 82.579 12.4503 82.7197 12.3097C82.8603 12.169 83.0511 12.09 83.25 12.09H94.56C94.7589 12.09 94.9497 12.169 95.0903 12.3097C95.231 12.4503 95.31 12.6411 95.31 12.84C95.31 13.0389 95.231 13.2297 95.0903 13.3704C94.9497 13.511 94.7589 13.59 94.56 13.59V13.59Z" fill="#ED6A5E"/>
<path d="M59.5697 55.77C59.3717 55.7657 59.1825 55.6872 59.0397 55.55C58.8992 55.4094 58.8203 55.2187 58.8203 55.02C58.8203 54.8212 58.8992 54.6306 59.0397 54.49L63.0897 50.43L59.0397 46.43C58.9072 46.2878 58.835 46.0998 58.8385 45.9055C58.8419 45.7112 58.9206 45.5258 59.058 45.3884C59.1954 45.251 59.3808 45.1722 59.5751 45.1688C59.7694 45.1654 59.9575 45.2375 60.0997 45.37L65.2097 50.48L60.0997 55.55C59.9568 55.6872 59.7676 55.7657 59.5697 55.77V55.77Z" fill="#ED6A5E"/>
<path d="M47.4898 55.77C47.291 55.7698 47.1004 55.6907 46.9598 55.55L41.8398 50.43L46.9998 45.32C47.1459 45.237 47.3156 45.2054 47.4817 45.2303C47.6478 45.2552 47.8008 45.3351 47.9161 45.4573C48.0314 45.5795 48.1023 45.7369 48.1175 45.9042C48.1327 46.0715 48.0912 46.239 47.9998 46.38L43.9398 50.38L47.9998 54.49C48.1403 54.6306 48.2192 54.8212 48.2192 55.02C48.2192 55.2188 48.1403 55.4094 47.9998 55.55C47.8621 55.6826 47.6809 55.7608 47.4898 55.77V55.77Z" fill="#ED6A5E"/>
<path d="M51.0997 58.82C51.02 58.8296 50.9394 58.8296 50.8597 58.82C50.7605 58.7888 50.6688 58.7375 50.5903 58.6694C50.5117 58.6013 50.448 58.5178 50.403 58.424C50.358 58.3303 50.3327 58.2283 50.3287 58.1244C50.3247 58.0205 50.342 57.9169 50.3797 57.82L55.1797 43.16C55.2019 43.0577 55.2454 42.9611 55.3073 42.8766C55.3691 42.792 55.448 42.7214 55.5388 42.6692C55.6296 42.617 55.7304 42.5844 55.8345 42.5735C55.9387 42.5626 56.044 42.5737 56.1437 42.606C56.2433 42.6382 56.3351 42.691 56.4131 42.7609C56.4911 42.8309 56.5536 42.9163 56.5966 43.0119C56.6395 43.1074 56.662 43.2109 56.6625 43.3156C56.6631 43.4203 56.6417 43.524 56.5997 43.62L51.8097 58.3C51.7599 58.4496 51.6648 58.5801 51.5376 58.6732C51.4104 58.7664 51.2573 58.8177 51.0997 58.82V58.82Z" fill="#ED6A5E"/>
</g>
<defs>
<clipPath id="clip0">
<rect width="103.06" height="73.37" fill="white"/>
</clipPath>
</defs>
</svg>
