<svg width="88" height="89" viewBox="0 0 88 89" fill="none" xmlns="http://www.w3.org/2000/svg">
<g clip-path="url(#clip0)">
<path d="M74.3403 73.75C74.1389 73.7482 73.9457 73.6695 73.8003 73.53C73.6599 73.3894 73.581 73.1987 73.581 73C73.581 72.8012 73.6599 72.6106 73.8003 72.47C80.5118 65.7801 84.7362 56.9979 85.7735 47.5786C86.8108 38.1593 84.5987 28.6683 79.5039 20.6782C74.409 12.6881 66.7371 6.67858 57.7594 3.64533C48.7817 0.612091 39.0372 0.737221 30.1403 3.99999C27.8145 4.88059 25.5694 5.96131 23.4303 7.22999C23.3518 7.31583 23.2544 7.38222 23.1458 7.42392C23.0372 7.46562 22.9203 7.48149 22.8046 7.47026C22.6888 7.45902 22.5772 7.42101 22.4786 7.35922C22.38 7.29742 22.2972 7.21354 22.2366 7.11421C22.176 7.01488 22.1394 6.90283 22.1296 6.7869C22.1198 6.67097 22.1371 6.55436 22.1802 6.44627C22.2232 6.33819 22.2908 6.2416 22.3776 6.16414C22.4644 6.08669 22.5681 6.03049 22.6803 5.99999C24.9075 4.6739 27.2505 3.55264 29.6803 2.64999C38.8839 -0.682312 48.948 -0.780272 58.2147 2.37225C67.4814 5.52477 75.3978 11.7397 80.6599 19.9932C85.922 28.2467 88.2158 38.0464 87.1634 47.778C86.111 57.5095 81.7752 66.5922 74.8703 73.53C74.7275 73.6672 74.5383 73.7457 74.3403 73.75Z" fill="#ED6A5E"/>
<path d="M43.1405 88.37C34.6141 88.3895 26.274 85.8766 19.1776 81.1501C12.0812 76.4235 6.54822 69.6961 3.2801 61.821C0.0119925 53.9458 -0.844005 45.2775 0.820647 36.9152C2.4853 28.5529 6.59562 20.8733 12.6305 14.85C12.7711 14.7096 12.9617 14.6307 13.1605 14.6307C13.3592 14.6307 13.5498 14.7096 13.6905 14.85C13.7612 14.919 13.8174 15.0014 13.8558 15.0924C13.8942 15.1834 13.914 15.2812 13.914 15.38C13.914 15.4788 13.8942 15.5766 13.8558 15.6676C13.8174 15.7587 13.7612 15.8411 13.6905 15.91C6.98283 22.6004 2.76234 31.3817 1.72826 40.7989C0.694184 50.2161 2.9086 59.704 8.00459 67.6904C13.1006 75.6769 20.7723 81.6826 29.7485 84.7125C38.7248 87.7423 48.4668 87.6144 57.3605 84.35C59.6835 83.4704 61.9254 82.3897 64.0604 81.12C64.2328 81.0192 64.4382 80.9911 64.6314 81.0417C64.8245 81.0923 64.9897 81.2176 65.0904 81.39C65.1912 81.5624 65.2194 81.7678 65.1688 81.9609C65.1181 82.1541 64.9928 82.3192 64.8204 82.42C62.6066 83.7384 60.2809 84.8594 57.8705 85.77C53.1505 87.4924 48.1648 88.3724 43.1405 88.37V88.37Z" fill="#ED6A5E"/>
<path d="M82.3103 74.8H72.8203V65.32C72.8203 65.1211 72.8993 64.9303 73.04 64.7897C73.1806 64.649 73.3714 64.57 73.5703 64.57C73.7692 64.57 73.96 64.649 74.1006 64.7897C74.2413 64.9303 74.3203 65.1211 74.3203 65.32V73.32H82.3203C82.5192 73.32 82.71 73.399 82.8506 73.5397C82.9913 73.6803 83.0703 73.8711 83.0703 74.07C83.0703 74.2689 82.9913 74.4597 82.8506 74.6003C82.71 74.741 82.5192 74.82 82.3203 74.82L82.3103 74.8Z" fill="#ED6A5E"/>
<path d="M14 24.41C13.8011 24.41 13.6103 24.331 13.4697 24.1903C13.329 24.0497 13.25 23.8589 13.25 23.66V15.66H5.25C5.05109 15.66 4.86032 15.581 4.71967 15.4403C4.57902 15.2997 4.5 15.1089 4.5 14.91C4.5 14.7111 4.57902 14.5203 4.71967 14.3796C4.86032 14.239 5.05109 14.16 5.25 14.16H14.73V23.64C14.734 23.7388 14.7182 23.8374 14.6834 23.9301C14.6487 24.0227 14.5957 24.1074 14.5276 24.1792C14.4596 24.2509 14.3778 24.3084 14.2872 24.348C14.1966 24.3876 14.0989 24.4087 14 24.41V24.41Z" fill="#ED6A5E"/>
<path d="M60.2501 54.64C58.7718 54.6397 57.3197 54.2494 56.0406 53.5083C54.7615 52.7672 53.7005 51.7017 52.965 50.4193C52.2295 49.137 51.8454 47.6832 51.8516 46.2049C51.8577 44.7266 52.2539 43.2761 53.0001 42L53.3801 41.26C54.3961 39.5105 54.9321 37.5238 54.934 35.5007C54.9359 33.4776 54.4036 31.4898 53.3909 29.7384C52.3782 27.987 50.9211 26.5341 49.1668 25.5264C47.4125 24.5188 45.4232 23.9922 43.4001 24H43.0001C41.014 24.063 39.0783 24.64 37.3818 25.6747C35.6853 26.7093 34.2862 28.1662 33.321 29.9032C32.3558 31.6401 31.8576 33.5976 31.875 35.5846C31.8923 37.5717 32.4247 39.5202 33.4201 41.24L33.7901 41.97C33.8758 42.1427 33.8935 42.3413 33.8398 42.5264C33.7861 42.7116 33.6649 42.8699 33.5001 42.97C33.4178 43.02 33.3262 43.053 33.2309 43.067C33.1356 43.081 33.0384 43.0757 32.9451 43.0514C32.8519 43.0272 32.7645 42.9845 32.688 42.9258C32.6116 42.8672 32.5477 42.7938 32.5001 42.71C32.5001 42.71 32.5001 42.63 32.5001 42.62L32.1401 41.92C31.0287 39.9468 30.452 37.7176 30.4671 35.453C30.4822 33.1884 31.0886 30.9671 32.2263 29.009C33.364 27.0508 34.9935 25.4239 36.9534 24.2892C38.9132 23.1546 41.1355 22.5516 43.4001 22.54H44.1501C46.3623 22.6693 48.5046 23.3619 50.3738 24.5521C52.243 25.7422 53.7769 27.3904 54.8299 29.3402C55.8829 31.2899 56.4201 33.4764 56.3903 35.6921C56.3606 37.9078 55.765 40.0792 54.6601 42L54.2501 42.77C53.5282 43.9926 53.201 45.4081 53.3132 46.8235C53.4254 48.2389 53.9715 49.5852 54.877 50.6789C55.7825 51.7725 57.0033 52.5601 58.373 52.9343C59.7426 53.3086 61.1943 53.2512 62.5301 52.77C62.6234 52.7371 62.7222 52.723 62.8209 52.7284C62.9196 52.7337 63.0163 52.7584 63.1054 52.8012C63.1945 52.8439 63.2744 52.9037 63.3404 52.9773C63.4064 53.0509 63.4573 53.1367 63.4901 53.23C63.523 53.3232 63.5371 53.422 63.5317 53.5207C63.5264 53.6194 63.5017 53.7161 63.459 53.8052C63.4162 53.8944 63.3564 53.9742 63.2828 54.0403C63.2092 54.1063 63.1234 54.1571 63.0301 54.19C62.1355 54.4959 61.1956 54.6481 60.2501 54.64V54.64Z" fill="#BAD8DB"/>
<path d="M26.5399 54.64C25.5998 54.6425 24.6662 54.4835 23.7799 54.17C23.6805 54.1427 23.5878 54.0952 23.5076 54.0305C23.4273 53.9657 23.3613 53.8852 23.3136 53.7938C23.2659 53.7024 23.2376 53.6021 23.2304 53.4993C23.2231 53.3965 23.2372 53.2933 23.2716 53.1961C23.3061 53.0989 23.3602 53.0099 23.4306 52.9346C23.501 52.8593 23.5862 52.7993 23.6808 52.7584C23.7754 52.7175 23.8774 52.6965 23.9805 52.6968C24.0836 52.697 24.1855 52.7186 24.2799 52.76C25.614 53.2288 27.0597 53.2769 28.4221 52.8981C29.7844 52.5192 30.9977 51.7315 31.8982 50.6413C32.7987 49.5511 33.3431 48.2109 33.4578 46.8015C33.5726 45.3922 33.2522 43.9815 32.5399 42.76C32.4405 42.5876 32.4136 42.3828 32.4651 42.1905C32.5167 41.9983 32.6425 41.8345 32.8149 41.735C32.9873 41.6355 33.1922 41.6086 33.3844 41.6602C33.5766 41.7118 33.7405 41.8376 33.8399 42.01C34.5783 43.2888 34.9664 44.7397 34.9653 46.2164C34.9642 47.693 34.5739 49.1433 33.8336 50.421C33.0933 51.6987 32.0293 52.7587 30.7488 53.4942C29.4683 54.2296 28.0166 54.6145 26.5399 54.61V54.64Z" fill="#BAD8DB"/>
<path d="M60.18 60.68C57.1017 60.6661 54.0807 59.8465 51.4175 58.3026C48.7543 56.7587 46.5417 54.5444 45 51.88C44.9052 51.7111 44.8804 51.5118 44.9309 51.3249C44.9813 51.1379 45.1031 50.9782 45.27 50.88C45.4394 50.7878 45.6379 50.7643 45.8241 50.8146C46.0103 50.8649 46.17 50.985 46.27 51.15C47.689 53.5856 49.7223 55.6062 52.1667 57.0101C54.6112 58.4139 57.3811 59.1518 60.2 59.15C60.3989 59.15 60.5897 59.229 60.7303 59.3697C60.871 59.5103 60.95 59.7011 60.95 59.9C60.95 60.0989 60.871 60.2897 60.7303 60.4303C60.5897 60.571 60.3989 60.65 60.2 60.65L60.18 60.68Z" fill="#BAD8DB"/>
<path d="M38.2998 63.54C38.1341 63.5413 37.9727 63.4877 37.8407 63.3875C37.7087 63.2874 37.6135 63.1463 37.5701 62.9864C37.5267 62.8265 37.5375 62.6568 37.6008 62.5036C37.664 62.3505 37.7762 62.2226 37.9198 62.14C40.2716 60.7354 42.3404 58.904 44.0198 56.74C44.1418 56.5822 44.3215 56.4793 44.5194 56.454C44.7172 56.4286 44.917 56.483 45.0748 56.605C45.2326 56.727 45.3355 56.9067 45.3608 57.1045C45.3861 57.3024 45.3318 57.5022 45.2098 57.66C43.4121 59.9701 41.2014 61.9265 38.6898 63.43C38.5716 63.4999 38.4372 63.5378 38.2998 63.54V63.54Z" fill="#BAD8DB"/>
<path d="M26.6396 60.68C26.4407 60.68 26.25 60.601 26.1093 60.4603C25.9687 60.3197 25.8896 60.1289 25.8896 59.93C25.8896 59.7311 25.9687 59.5403 26.1093 59.3997C26.25 59.259 26.4407 59.18 26.6396 59.18C29.4585 59.1818 32.2285 58.4439 34.6729 57.0401C37.1173 55.6363 39.1506 53.6156 40.5696 51.18C40.6696 51.015 40.8293 50.8949 41.0156 50.8447C41.2018 50.7944 41.4002 50.8178 41.5696 50.91C41.7365 51.0082 41.8583 51.1679 41.9088 51.3549C41.9593 51.5419 41.9344 51.7411 41.8396 51.91C40.2924 54.5718 38.0751 56.7819 35.4083 58.3206C32.7416 59.8592 29.7184 60.6727 26.6396 60.68V60.68Z" fill="#BAD8DB"/>
<path d="M48.2701 40.6399C49.0654 40.6399 49.7101 39.9952 49.7101 39.2C49.7101 38.4047 49.0654 37.7599 48.2701 37.7599C47.4748 37.7599 46.8301 38.4047 46.8301 39.2C46.8301 39.9952 47.4748 40.6399 48.2701 40.6399Z" fill="#BAD8DB"/>
<path d="M38.7701 40.6399C39.5654 40.6399 40.2101 39.9952 40.2101 39.2C40.2101 38.4047 39.5654 37.7599 38.7701 37.7599C37.9748 37.7599 37.3301 38.4047 37.3301 39.2C37.3301 39.9952 37.9748 40.6399 38.7701 40.6399Z" fill="#BAD8DB"/>
</g>
<defs>
<clipPath id="clip0">
<rect width="87.5" height="88.38" fill="white"/>
</clipPath>
</defs>
</svg>
