<svg width="103" height="79" viewBox="0 0 103 79" fill="none" xmlns="http://www.w3.org/2000/svg">
<g clip-path="url(#clip0)">
<path d="M88.64 47.06H55V2.37L88.64 47.06ZM56.5 45.56H85.63L56.5 6.85V45.56Z" fill="#BAD8DB"/>
<path d="M36.2803 45.5601H89.3903V47.0601H36.2803V45.5601Z" fill="#BAD8DB"/>
<path d="M56.5007 47.06H37.2607L56.5007 9.40002V47.06ZM39.7107 45.56H55.0007V15.64L39.7107 45.56Z" fill="#BAD8DB"/>
<path d="M37.7203 63.1C37.262 62.3274 37.0138 61.4483 37.0003 60.55V54.92H87.4003L84.0003 61.16C83.4899 61.8325 82.9101 62.4493 82.2703 63C83.0203 63 83.7103 63 84.3603 63.06C84.6594 62.7432 84.9398 62.4093 85.2003 62.06L89.2003 54.82C89.2767 54.6798 89.3152 54.522 89.3121 54.3623C89.3091 54.2026 89.2645 54.0465 89.1828 53.9093C89.101 53.772 88.985 53.6584 88.846 53.5797C88.7071 53.5009 88.55 53.4597 88.3903 53.46H35.5303V60.59C35.5287 61.5415 35.7299 62.4824 36.1203 63.35C36.6203 63.23 37.1503 63.16 37.7203 63.1V63.1Z" fill="#BAD8DB"/>
<path d="M61.6202 66.66C64.0476 66.7046 66.4698 66.4186 68.8202 65.81H54.4102C56.7639 66.4186 59.1894 66.7045 61.6202 66.66V66.66Z" fill="#BAD8DB"/>
<path d="M102.7 67.41C99.0978 67.4885 95.5169 66.8423 92.1696 65.51C88.9961 64.225 85.5924 63.6055 82.1696 63.69C78.7468 63.6055 75.3431 64.225 72.1696 65.51C68.8259 66.8426 65.2482 67.4888 61.6496 67.41C58.0478 67.4885 54.4669 66.8423 51.1196 65.51C47.9461 64.225 44.5424 63.6055 41.1196 63.69C37.6969 63.6072 34.2936 64.2266 31.1196 65.51C27.7762 66.8437 24.1983 67.4898 20.5996 67.41V65.91C24.0211 65.9901 27.4232 65.3743 30.5996 64.1C33.9406 62.7571 37.5197 62.1072 41.1196 62.19C44.7061 62.1127 48.271 62.7624 51.5996 64.1C54.776 65.3743 58.1781 65.9901 61.5996 65.91C65.0213 65.9929 68.424 65.377 71.5996 64.1C74.9445 62.7584 78.5266 62.1087 82.1296 62.19C85.7394 62.1043 89.329 62.7541 92.6796 64.1C95.8557 65.3754 99.258 65.9912 102.68 65.91L102.7 67.41Z" fill="#ED6A5E"/>
<path d="M61.62 78.32C58.0178 78.4037 54.4358 77.7574 51.09 76.42C47.9144 75.143 44.5117 74.5271 41.09 74.61C37.6685 74.5299 34.2664 75.1457 31.09 76.42C27.748 77.7585 24.1691 78.4048 20.57 78.32C16.9542 78.4116 13.3576 77.7651 10 76.42C6.82363 75.1457 3.42151 74.5299 0 74.61L0 73.11C3.59802 73.027 7.17588 73.6698 10.52 75C13.6964 76.2743 17.0985 76.8901 20.52 76.81C23.9417 76.8929 27.3444 76.277 30.52 75C33.8673 73.6677 37.4482 73.0216 41.05 73.1C44.6588 73.0161 48.2473 73.6624 51.6 75C54.7764 76.2743 58.1785 76.8901 61.6 76.81L61.62 78.32Z" fill="#ED6A5E"/>
<path d="M55 0H56.5V54.51H55V0Z" fill="#BAD8DB"/>
</g>
<defs>
<clipPath id="clip0">
<rect width="102.7" height="78.32" fill="white"/>
</clipPath>
</defs>
</svg>
