<svg width="79" height="83" viewBox="0 0 79 83" fill="none" xmlns="http://www.w3.org/2000/svg">
<path d="M24.25 34V21C24.25 21 23.8842 1 47.5671 1C71.25 1 70.8843 21 70.8843 21V34" stroke="#BAD8DB" stroke-width="1.5"/>
<path d="M30.9999 34V23.7576C30.9999 23.7576 30.7411 8 47.4996 8C64.2582 8 63.9994 23.7576 63.9994 23.7576V34" stroke="#BAD8DB" stroke-width="1.5"/>
<path fill-rule="evenodd" clip-rule="evenodd" d="M51.4996 58.3621C53.0281 57.078 53.9996 55.1525 53.9996 53C53.9996 49.134 50.8656 46 46.9996 46C43.1336 46 39.9996 49.134 39.9996 53C39.9996 55.1525 40.9712 57.078 42.4996 58.3621V63.988C42.4996 66.4733 44.5144 68.488 46.9996 68.488C49.4849 68.488 51.4996 66.4733 51.4996 63.988V58.3621ZM42.6432 56.3578C42.6439 56.3552 42.6445 56.3526 42.6452 56.3501C43.0229 56.8388 43.481 57.2621 43.9996 57.6003V58.8144V59.3161V63.988C43.9996 65.6448 45.3428 66.988 46.9996 66.988C48.6565 66.988 49.9996 65.6448 49.9996 63.988V59.3161V58.8144V57.6003C50.5183 57.2621 50.9764 56.8388 51.3541 56.3501C51.3547 56.3526 51.3554 56.3552 51.3561 56.3578C52.0731 55.4288 52.4996 54.2642 52.4996 53C52.4996 49.9624 50.0372 47.5 46.9996 47.5C43.9621 47.5 41.4996 49.9624 41.4996 53C41.4996 54.2642 41.9262 55.4288 42.6432 56.3578Z" fill="#BAD8DB"/>
<path fill-rule="evenodd" clip-rule="evenodd" d="M18.736 33.25C18.132 33.25 17.5508 33.4086 17.0979 33.7045C16.6517 33.9961 16.2496 34.4855 16.2496 35.1347V36.8607C16.5116 36.7886 16.7915 36.7499 17.0965 36.75C17.3312 36.7501 17.5477 36.7731 17.7496 36.8166V35.1347L17.7497 35.1338C17.7498 35.1335 17.75 35.1323 17.7506 35.1301C17.7519 35.126 17.7557 35.116 17.7657 35.1005C17.7867 35.0682 17.8323 35.0165 17.9185 34.9602C18.094 34.8454 18.3809 34.75 18.736 34.75H76.2633C76.6183 34.75 76.9052 34.8454 77.0808 34.9602C77.167 35.0165 77.2126 35.0682 77.2336 35.1005C77.2436 35.116 77.2473 35.126 77.2486 35.1301C77.249 35.1313 77.2492 35.1322 77.2494 35.1328C77.2495 35.1333 77.2495 35.1337 77.2496 35.1338L77.2496 35.1347V79.8653L77.2496 79.8662C77.2495 79.8666 77.2493 79.8677 77.2486 79.8699C77.2479 79.8721 77.2465 79.876 77.2438 79.8816C77.2415 79.8863 77.2382 79.8923 77.2336 79.8995C77.2126 79.9318 77.167 79.9835 77.0808 80.0398C76.9052 80.1546 76.6183 80.25 76.2633 80.25H25.2622C24.5213 80.7925 23.7846 81.2928 23.0712 81.75H76.2633C76.8672 81.75 77.4485 81.5914 77.9014 81.2955C78.3475 81.0039 78.7496 80.5145 78.7496 79.8653V35.1347C78.7496 34.4855 78.3475 33.9961 77.9014 33.7045C77.4485 33.4086 76.8672 33.25 76.2633 33.25H18.736Z" fill="#BAD8DB"/>
<path d="M16.9998 40C15.9997 39.9997 13.9997 47 1 47C1 50.5366 1.00005 64.2308 1.00005 64.2308C0.999986 75.5385 16.5 82 16.5 82C16.5 82 32 75.5385 32 64.2308C32 63.1538 31.9997 50.5366 31.9997 47C18.9997 47 17.9999 40.0003 16.9998 40Z" stroke="#ED6A5E" stroke-width="1.5"/>
<path d="M14.5394 66.76L10.2194 62.4599C10.0789 62.3193 10 62.1287 10 61.93C10 61.7312 10.0789 61.5406 10.2194 61.4C10.2883 61.3292 10.3707 61.273 10.4618 61.2346C10.5528 61.1962 10.6506 61.1763 10.7494 61.1763C10.8482 61.1763 10.946 61.1962 11.037 61.2346C11.128 61.273 11.2104 61.3292 11.2794 61.4L14.3994 64.51L22.1794 55.27C22.3077 55.1178 22.4907 55.0221 22.6889 55.0034C22.8872 54.9847 23.0848 55.0445 23.2394 55.17C23.3879 55.3012 23.4801 55.4845 23.4969 55.6819C23.5136 55.8794 23.4536 56.0757 23.3294 56.23L14.5394 66.76Z" fill="#ED6A5E"/>
</svg>
