<svg fill="none" height="72" viewBox="0 0 107 72" width="107" xmlns="http://www.w3.org/2000/svg"><g fill="#ed6a5e"><path d="m47.06 5.11011h-46.31c-.198912 0-.389678-.07902-.53033-.21967-.1406524-.14066-.21967-.33142-.21967-.53033 0-.19892.0790176-.38968.21967-.53033.140652-.14066.331418-.21967.53033-.21967h46.31c.1989 0 .3897.07901.5303.21967.1407.14065.2197.33141.2197.53033 0 .19891-.079.38967-.2197.53033-.1406.14065-.3314.21967-.5303.21967z"/><path d="m33.26 17.1201h-24.26c-.19891 0-.38968-.079-.53033-.2197-.14065-.1406-.21967-.3314-.21967-.5303s.07902-.3897.21967-.5303c.14065-.1407.33142-.2197.53033-.2197h24.26c.1989 0 .3897.079.5303.2197.1407.1406.2197.3314.2197.5303s-.079.3897-.2197.5303c-.1406.1407-.3314.2197-.5303.2197z"/><path d="m29.5797 29.1299h-12.36c-.1989 0-.3896-.079-.5303-.2197-.1407-.1406-.2197-.3314-.2197-.5303s.079-.3897.2197-.5303c.1407-.1407.3314-.2197.5303-.2197h12.36c.1989 0 .3897.079.5304.2197.1406.1406.2196.3314.2196.5303s-.079.3897-.2196.5303c-.1407.1407-.3315.2197-.5304.2197z"/></g><path d="m72.1598 32.2601-13.48-.11-6.59-11.29c-.0913-.1706-.1132-.37-.061-.5563.0521-.1864.1743-.3454.341-.4437.1689-.0948.3682-.1196.5551-.0692.187.0505.3467.1723.4449.3392l6.15 10.55 12.62.1c.1989 0 .3897.079.5304.2196.1406.1407.2196.3315.2196.5304s-.079.3897-.2196.5303c-.1407.1407-.3315.2197-.5304.2197z" fill="#bad8db"/><path d="m68.1998 58.89c-5.8056 1.8948-12.0621 1.9025-17.8723.022s-10.8757-5.5526-14.47-10.4898c-3.5944-4.9372-5.5329-10.8858-5.5377-16.9927-.0048-6.107 1.9244-12.0586 5.511-17.0014 3.5866-4.94283 8.6463-8.62291 14.4536-10.51254 5.8072-1.88963 12.0637-1.89173 17.8723-.00601 5.8085 1.88572 10.8707 5.5624 14.4606 10.50275 3.5899 4.9404 5.5231 10.8908 5.5225 16.9977v.83c.51 0 1 .08 1.5.15 0-.33 0-.65 0-1 .002-6.4356-2.0356-12.7063-5.8204-17.9114-3.7847-5.20506-9.1218-9.07669-15.2446-11.05876-6.1228-1.982077-12.7162-1.972604-18.8333.02706-6.117 1.99965-11.443 5.8866-15.2127 11.1025-3.7698 5.216-5.7894 11.4925-5.7689 17.9281.0206 6.4356 2.0803 12.699 5.8834 17.8908 3.803 5.1917 9.1536 9.0445 15.2834 11.005 6.1297 1.9606 12.7231 1.9279 18.8331-.0933-.2-.46-.39-.92-.56-1.39z" fill="#bad8db"/><path d="m59.2302 7.79004c-3.439-.00183-6.837.74734-9.9564 2.19516-3.1194 1.4479-5.8851 3.5594-8.1037 6.1871s-3.8366 5.7082-4.741 9.0262-1.0734 6.7934-.4951 10.1835 1.8899 6.613 3.8432 9.4435 4.5011 5.2003 7.4653 6.9439c2.9643 1.7435 6.2736 2.8188 9.6966 3.1505 3.423.3318 6.8772-.088 10.1211-1.2298 0-.52-.08-1-.08-1.57-2.4774.9316-5.1032 1.4059-7.75 1.4-4.3753 0-8.6524-1.2976-12.2902-3.7286-3.6379-2.431-6.473-5.8863-8.1469-9.9288-1.674-4.0425-2.1114-8.4906-1.2571-12.7817s2.962-8.2325 6.0566-11.3257c3.0945-3.0931 7.0368-5.1991 11.3284-6.05145 4.2915-.85237 8.7394-.4129 12.7811 1.26285 4.0417 1.6758 7.4957 4.5125 9.9251 8.1514 2.4294 3.639 3.725 7.9166 3.723 12.292 0 .53 0 1.06-.06 1.58.5-.15 1-.29 1.53-.4 0-.39 0-.78 0-1.18-.0079-6.2568-2.4948-12.2555-6.9163-16.6825-4.4214-4.4271-10.4169-6.92169-16.6737-6.93756z" fill="#bad8db"/><path d="m86.87 68.44c-3.2381 0-6.4035-.9603-9.0957-2.7595-2.6923-1.7992-4.7904-4.3565-6.0292-7.3483-1.2387-2.9918-1.5623-6.2837-.9298-9.4595.6324-3.1757 2.1925-6.0926 4.4829-8.3816 2.2904-2.2889 5.2082-3.8472 8.3843-4.4778 3.1761-.6305 6.4679-.3049 9.459.9357 2.991 1.2405 5.547 3.3403 7.3445 6.0336 1.798 2.6934 2.756 5.8593 2.754 9.0974-.005 4.3391-1.732 8.4987-4.8011 11.566-3.0691 3.0672-7.2298 4.7914-11.5689 4.794zm0-31.23c-2.941 0-5.816.8721-8.2613 2.5061-2.4454 1.6339-4.3513 3.9563-5.4768 6.6734-1.1255 2.7172-1.4199 5.707-.8462 8.5915.5738 2.8845 1.99 5.5341 4.0696 7.6137s4.7292 3.4958 7.6137 4.0696 5.8744.2793 8.5915-.8462 5.0395-3.0314 6.6735-5.4768c1.634-2.4453 2.506-5.3203 2.506-8.2613-.003-3.9429-1.57-7.7236-4.3582-10.5117-2.7881-2.7881-6.5688-4.3556-10.5118-4.3583z" fill="#ed6a5e"/><path d="m86.87 68.44c-3.2381 0-6.4035-.9603-9.0957-2.7595-2.6923-1.7992-4.7904-4.3565-6.0292-7.3483-1.2387-2.9918-1.5623-6.2837-.9298-9.4595.6324-3.1757 2.1925-6.0926 4.4829-8.3816 2.2904-2.2889 5.2082-3.8472 8.3843-4.4778 3.1761-.6305 6.4679-.3049 9.459.9357 2.991 1.2405 5.547 3.3403 7.3445 6.0336 1.798 2.6934 2.756 5.8593 2.754 9.0974-.005 4.3391-1.732 8.4987-4.8011 11.566-3.0691 3.0672-7.2298 4.7914-11.5689 4.794zm0-31.23c-2.941 0-5.816.8721-8.2613 2.5061-2.4454 1.6339-4.3513 3.9563-5.4768 6.6734-1.1255 2.7172-1.4199 5.707-.8462 8.5915.5738 2.8845 1.99 5.5341 4.0696 7.6137s4.7292 3.4958 7.6137 4.0696 5.8744.2793 8.5915-.8462 5.0395-3.0314 6.6735-5.4768c1.634-2.4453 2.506-5.3203 2.506-8.2613-.003-3.9429-1.57-7.7236-4.3582-10.5117-2.7881-2.7881-6.5688-4.3556-10.5118-4.3583z" fill="#ed6a5e"/><path d="m86.2496 57.8801c-.7797-.0926-1.5007-.461-2.0325-1.0387-.5319-.5777-.8396-1.3265-.8675-2.1113.0101-.0763.0101-.1536 0-.23h1.26c-.0271.3124.0142.627.1209.9218s.2764.5629.4971.7856c.2208.2226.4874.3946.7813.5038.2939.1093.6081.1532.9207.1288.3001.0217.6014-.0223.8827-.1289.2814-.1066.5362-.2733.7465-.4884.2104-.2152.3714-.4736.4717-.7573s.1375-.5858.1091-.8854c0-1.78-1.58-2.17-2.38-2.38s-3-.74-3.05-3.11c-.0308-.7373.2113-1.46.6799-2.0301.4686-.57 1.1308-.9474 1.8601-1.0599v-1.41h1.26v1.41c.7733.0849 1.4867.4564 1.9994 1.0414.5128.585.7878 1.3409.7706 2.1186h-1.28c.0089-.278-.0404-.5549-.1446-.8128-.1042-.258-.2611-.4913-.4606-.6852s-.4373-.344-.6981-.4408c-.2609-.0967-.539-.138-.8167-.1212-.2636-.0137-.527.0291-.7726.1256-.2457.0965-.4678.2444-.6516.4338-.1838.1895-.3248.416-.4138.6645s-.1237.5131-.102.7761c.07 1.41 1.18 1.74 2.21 2 .83.22 3.23.85 3.23 3.48.0152.811-.2725 1.5986-.8069 2.2088s-1.2772.9993-2.0831 1.0912v1.68h-1.24z" fill="#ed6a5e"/></svg>