<svg width="107" height="71" viewBox="0 0 107 71" fill="none" xmlns="http://www.w3.org/2000/svg">
<g clip-path="url(#clip0)">
<path d="M47.06 4.10999H0.75C0.551088 4.10999 0.360322 4.03097 0.21967 3.89032C0.0790176 3.74966 0 3.5589 0 3.35999C0 3.16107 0.0790176 2.97031 0.21967 2.82966C0.360322 2.689 0.551088 2.60999 0.75 2.60999H47.06C47.2589 2.60999 47.4497 2.689 47.5903 2.82966C47.731 2.97031 47.81 3.16107 47.81 3.35999C47.81 3.5589 47.731 3.74966 47.5903 3.89032C47.4497 4.03097 47.2589 4.10999 47.06 4.10999V4.10999Z" fill="#ED6A5E"/>
<path d="M33.26 16.12H9C8.80109 16.12 8.61032 16.041 8.46967 15.9003C8.32902 15.7597 8.25 15.5689 8.25 15.37C8.25 15.1711 8.32902 14.9803 8.46967 14.8397C8.61032 14.699 8.80109 14.62 9 14.62H33.26C33.4589 14.62 33.6497 14.699 33.7903 14.8397C33.931 14.9803 34.01 15.1711 34.01 15.37C34.01 15.5689 33.931 15.7597 33.7903 15.9003C33.6497 16.041 33.4589 16.12 33.26 16.12Z" fill="#ED6A5E"/>
<path d="M29.5797 28.13H17.2197C17.0208 28.13 16.8301 28.051 16.6894 27.9103C16.5487 27.7697 16.4697 27.5789 16.4697 27.38C16.4697 27.1811 16.5487 26.9903 16.6894 26.8497C16.8301 26.709 17.0208 26.63 17.2197 26.63H29.5797C29.7786 26.63 29.9694 26.709 30.1101 26.8497C30.2507 26.9903 30.3297 27.1811 30.3297 27.38C30.3297 27.5789 30.2507 27.7697 30.1101 27.9103C29.9694 28.051 29.7786 28.13 29.5797 28.13V28.13Z" fill="#ED6A5E"/>
<path d="M72.1598 31.26L58.6798 31.15L52.0898 19.86C51.9985 19.6894 51.9766 19.49 52.0288 19.3037C52.0809 19.1173 52.2031 18.9583 52.3698 18.86C52.5387 18.7652 52.738 18.7404 52.9249 18.7908C53.1119 18.8413 53.2716 18.9631 53.3698 19.13L59.5198 29.68L72.1398 29.78C72.3387 29.78 72.5295 29.859 72.6702 29.9996C72.8108 30.1403 72.8898 30.3311 72.8898 30.53C72.8898 30.7289 72.8108 30.9197 72.6702 31.0603C72.5295 31.201 72.3387 31.28 72.1398 31.28L72.1598 31.26Z" fill="#BAD8DB"/>
<path d="M68.1998 57.89C62.3942 59.7848 56.1377 59.7925 50.3275 57.912C44.5173 56.0315 39.4518 52.3594 35.8575 47.4222C32.2631 42.485 30.3246 36.5364 30.3198 30.4295C30.315 24.3225 32.2442 18.3709 35.8308 13.4281C39.4174 8.48527 44.4771 4.80519 50.2844 2.91556C56.0916 1.02593 62.3481 1.02383 68.1567 2.90955C73.9652 4.79527 79.0274 8.47195 82.6173 13.4123C86.2072 18.3527 88.1404 24.3031 88.1398 30.41V31.24C88.6498 31.24 89.1398 31.32 89.6398 31.39C89.6398 31.06 89.6398 30.74 89.6398 30.39C89.6418 23.9544 87.6042 17.6837 83.8194 12.4786C80.0347 7.27354 74.6976 3.40191 68.5748 1.41984C62.452 -0.562236 55.8586 -0.552763 49.7415 1.4469C43.6245 3.44655 38.2985 7.3335 34.5288 12.5494C30.759 17.7654 28.7394 24.0419 28.7599 30.4775C28.7805 36.9131 30.8402 43.1765 34.6433 48.3683C38.4463 53.56 43.7969 57.4128 49.9267 59.3733C56.0564 61.3339 62.6498 61.3012 68.7598 59.28C68.5598 58.82 68.3698 58.36 68.1998 57.89Z" fill="#BAD8DB"/>
<path d="M59.2302 6.78998C55.7912 6.78815 52.3932 7.53732 49.2738 8.98514C46.1544 10.433 43.3887 12.5445 41.1701 15.1722C38.9515 17.7999 37.3335 20.8804 36.4291 24.1984C35.5247 27.5164 35.3557 30.9918 35.934 34.3819C36.5123 37.772 37.8239 40.9949 39.7772 43.8254C41.7305 46.6559 44.2783 49.0257 47.2425 50.7693C50.2068 52.5128 53.5161 53.5881 56.9391 53.9198C60.3621 54.2516 63.8163 53.8318 67.0602 52.69C67.0602 52.17 66.9802 51.69 66.9802 51.12C64.5028 52.0516 61.877 52.5259 59.2302 52.52C54.8549 52.52 50.5778 51.2224 46.94 48.7914C43.3021 46.3604 40.467 42.9051 38.7931 38.8626C37.1191 34.8201 36.6817 30.372 37.536 26.0809C38.3903 21.7898 40.498 17.8484 43.5926 14.7552C46.6871 11.6621 50.6294 9.55617 54.921 8.70379C59.2125 7.85142 63.6604 8.29089 67.7021 9.96664C71.7438 11.6424 75.1978 14.4791 77.6272 18.118C80.0566 21.757 81.3522 26.0346 81.3502 30.41C81.3502 30.94 81.3502 31.47 81.2902 31.99C81.7902 31.84 82.2902 31.7 82.8202 31.59C82.8202 31.2 82.8202 30.81 82.8202 30.41C82.8123 24.1532 80.3254 18.1545 75.9039 13.7275C71.4825 9.30043 65.487 6.80585 59.2302 6.78998V6.78998Z" fill="#BAD8DB"/>
<path d="M86.87 67.44C83.6319 67.44 80.4665 66.4797 77.7743 64.6805C75.082 62.8813 72.9839 60.324 71.7451 57.3322C70.5064 54.3404 70.1828 51.0485 70.8153 47.8727C71.4477 44.697 73.0078 41.7801 75.2982 39.4911C77.5886 37.2022 80.5064 35.6439 83.6825 35.0133C86.8586 34.3828 90.1504 34.7084 93.1415 35.949C96.1325 37.1895 98.6885 39.2893 100.486 41.9826C102.284 44.676 103.242 47.8419 103.24 51.08C103.235 55.4191 101.508 59.5787 98.4389 62.646C95.3698 65.7132 91.2091 67.4374 86.87 67.44V67.44ZM86.87 36.21C83.929 36.21 81.054 37.0821 78.6087 38.7161C76.1633 40.35 74.2574 42.6724 73.1319 45.3895C72.0064 48.1067 71.712 51.0965 72.2857 53.981C72.8595 56.8655 74.2757 59.5151 76.3553 61.5947C78.4349 63.6743 81.0845 65.0905 83.969 65.6643C86.8535 66.2381 89.8434 65.9436 92.5605 64.8181C95.2776 63.6926 97.6 61.7867 99.234 59.3413C100.868 56.896 101.74 54.021 101.74 51.08C101.737 47.1371 100.17 43.3564 97.3818 40.5683C94.5937 37.7802 90.813 36.2127 86.87 36.21V36.21Z" fill="#ED6A5E"/>
<path d="M86.87 67.44C83.6319 67.44 80.4665 66.4797 77.7743 64.6805C75.082 62.8813 72.9839 60.324 71.7451 57.3322C70.5064 54.3404 70.1828 51.0485 70.8153 47.8727C71.4477 44.697 73.0078 41.7801 75.2982 39.4911C77.5886 37.2022 80.5064 35.6439 83.6825 35.0133C86.8586 34.3828 90.1504 34.7084 93.1415 35.949C96.1325 37.1895 98.6885 39.2893 100.486 41.9826C102.284 44.676 103.242 47.8419 103.24 51.08C103.235 55.4191 101.508 59.5787 98.4389 62.646C95.3698 65.7132 91.2091 67.4374 86.87 67.44V67.44ZM86.87 36.21C83.929 36.21 81.054 37.0821 78.6087 38.7161C76.1633 40.35 74.2574 42.6724 73.1319 45.3895C72.0064 48.1067 71.712 51.0965 72.2857 53.981C72.8595 56.8655 74.2757 59.5151 76.3553 61.5947C78.4349 63.6743 81.0845 65.0905 83.969 65.6643C86.8535 66.2381 89.8434 65.9436 92.5605 64.8181C95.2776 63.6926 97.6 61.7867 99.234 59.3413C100.868 56.896 101.74 54.021 101.74 51.08C101.737 47.1371 100.17 43.3564 97.3818 40.5683C94.5937 37.7802 90.813 36.2127 86.87 36.21V36.21Z" fill="#ED6A5E"/>
<path d="M86.2496 56.88C85.4699 56.7874 84.7489 56.419 84.2171 55.8413C83.6852 55.2636 83.3775 54.5148 83.3496 53.73C83.3597 53.6537 83.3597 53.5764 83.3496 53.5H84.6096C84.5825 53.8124 84.6238 54.127 84.7305 54.4218C84.8372 54.7166 85.0069 54.9847 85.2276 55.2074C85.4484 55.43 85.715 55.602 86.0089 55.7112C86.3028 55.8205 86.617 55.8644 86.9296 55.84C87.2297 55.8617 87.531 55.8177 87.8123 55.7111C88.0937 55.6045 88.3485 55.4378 88.5588 55.2227C88.7692 55.0075 88.9302 54.7491 89.0305 54.4654C89.1308 54.1817 89.168 53.8796 89.1396 53.58C89.1396 51.8 87.5596 51.41 86.7596 51.2C85.9596 50.99 83.7596 50.46 83.7096 48.09C83.6788 47.3527 83.9209 46.63 84.3895 46.0599C84.8581 45.4899 85.5203 45.1125 86.2496 45V43.59H87.5096V45C88.2829 45.0849 88.9963 45.4564 89.509 46.0414C90.0218 46.6264 90.2968 47.3823 90.2796 48.16H88.9996C89.0085 47.882 88.9592 47.6051 88.855 47.3472C88.7508 47.0892 88.5939 46.8559 88.3944 46.662C88.1949 46.4681 87.9571 46.318 87.6963 46.2212C87.4354 46.1245 87.1573 46.0832 86.8796 46.1C86.616 46.0863 86.3526 46.1291 86.107 46.2256C85.8613 46.3221 85.6392 46.47 85.4554 46.6594C85.2716 46.8489 85.1306 47.0754 85.0416 47.3239C84.9526 47.5724 84.9179 47.837 84.9396 48.1C85.0096 49.51 86.1196 49.84 87.1496 50.1C87.9796 50.32 90.3796 50.95 90.3796 53.58C90.3948 54.391 90.1071 55.1786 89.5727 55.7888C89.0383 56.399 88.2955 56.7881 87.4896 56.88V58.56H86.2496V56.88Z" fill="#ED6A5E"/>
</g>
<defs>
<clipPath id="clip0">
<rect width="106.77" height="70.97" fill="white"/>
</clipPath>
</defs>
</svg>
