<svg width="95" height="95" viewBox="0 0 95 95" fill="none" xmlns="http://www.w3.org/2000/svg">
<g clip-path="url(#clip0)">
<path d="M76.4401 94.39C72.9157 94.39 69.4704 93.3449 66.5399 91.3868C63.6094 89.4287 61.3253 86.6456 59.9766 83.3894C58.6278 80.1332 58.2749 76.5502 58.9625 73.0935C59.6501 69.6368 61.3473 66.4615 63.8395 63.9694C66.3317 61.4772 69.5069 59.78 72.9636 59.0924C76.4204 58.4048 80.0034 58.7577 83.2595 60.1065C86.5157 61.4552 89.2988 63.7393 91.2569 66.6697C93.215 69.6002 94.2601 73.0455 94.2601 76.57C94.2548 81.2945 92.3757 85.8241 89.0349 89.1648C85.6942 92.5056 81.1647 94.3847 76.4401 94.39ZM76.4401 60.25C73.2123 60.25 70.057 61.2072 67.3732 63.0004C64.6894 64.7937 62.5976 67.3425 61.3624 70.3246C60.1272 73.3067 59.804 76.5881 60.4337 79.7539C61.0634 82.9197 62.6177 85.8276 64.9001 88.11C67.1825 90.3924 70.0905 91.9467 73.2563 92.5764C76.422 93.2061 79.7034 92.8829 82.6855 91.6477C85.6676 90.4125 88.2164 88.3207 90.0097 85.6369C91.803 82.9531 92.7601 79.7978 92.7601 76.57C92.7548 72.2433 91.0337 68.0953 87.9743 65.0359C84.9148 61.9764 80.7668 60.2553 76.4401 60.25V60.25Z" fill="#BAD8DB"/>
<path d="M76.4404 82.36C75.2537 82.36 74.0937 82.0081 73.107 81.3488C72.1203 80.6895 71.3513 79.7524 70.8972 78.6561C70.443 77.5597 70.3242 76.3533 70.5557 75.1894C70.7872 74.0256 71.3587 72.9565 72.1978 72.1174C73.0369 71.2782 74.106 70.7068 75.2699 70.4753C76.4338 70.2438 77.6402 70.3626 78.7365 70.8167C79.8329 71.2708 80.77 72.0399 81.4292 73.0266C82.0885 74.0133 82.4404 75.1733 82.4404 76.36C82.4404 77.9513 81.8083 79.4774 80.6831 80.6026C79.5579 81.7278 78.0317 82.36 76.4404 82.36ZM76.4404 71.85C75.5476 71.848 74.6742 72.1111 73.931 72.6059C73.1879 73.1007 72.6082 73.805 72.2657 74.6295C71.9231 75.454 71.8329 76.3616 72.0066 77.2374C72.1803 78.1132 72.6101 78.9177 73.2414 79.549C73.8727 80.1804 74.6773 80.6101 75.553 80.7838C76.4288 80.9575 77.3365 80.8674 78.161 80.5248C78.9855 80.1822 79.6897 79.6026 80.1845 78.8594C80.6793 78.1162 80.9424 77.2428 80.9404 76.35C80.9378 75.1573 80.4628 74.0143 79.6195 73.1709C78.7762 72.3276 77.6331 71.8526 76.4404 71.85V71.85Z" fill="#ED6A5E"/>
<path d="M87.5701 90.26C87.4145 90.2606 87.2626 90.2128 87.1353 90.1232C87.0081 90.0336 86.9119 89.9067 86.8601 89.76C86.0876 87.6144 84.6719 85.7593 82.8062 84.448C80.9404 83.1368 78.7155 82.4331 76.4351 82.4331C74.1546 82.4331 71.9297 83.1368 70.064 84.448C68.1982 85.7593 66.7825 87.6144 66.0101 89.76C65.9786 89.8552 65.9284 89.9432 65.8624 90.0187C65.7964 90.0942 65.7159 90.1556 65.6258 90.1995C65.5356 90.2433 65.4375 90.2686 65.3374 90.2739C65.2372 90.2792 65.137 90.2643 65.0427 90.2302C64.9484 90.1961 64.862 90.1435 64.7884 90.0753C64.7148 90.0072 64.6556 89.925 64.6143 89.8336C64.573 89.7422 64.5505 89.6435 64.5481 89.5433C64.5456 89.443 64.5633 89.3433 64.6001 89.25C65.4776 86.8148 67.085 84.7096 69.203 83.2215C71.3211 81.7334 73.8466 80.9349 76.4351 80.9349C79.0236 80.9349 81.5491 81.7334 83.6671 83.2215C85.7851 84.7096 87.3925 86.8148 88.2701 89.25C88.3098 89.3448 88.3297 89.4469 88.3283 89.5497C88.327 89.6525 88.3045 89.754 88.2623 89.8478C88.2201 89.9416 88.1591 90.0257 88.083 90.0949C88.0069 90.1641 87.9174 90.2169 87.8201 90.25C87.7379 90.2675 87.6534 90.2709 87.5701 90.26V90.26Z" fill="#ED6A5E"/>
<path d="M76.4401 94.39C72.9157 94.39 69.4704 93.3449 66.5399 91.3868C63.6094 89.4287 61.3253 86.6456 59.9766 83.3894C58.6278 80.1332 58.2749 76.5502 58.9625 73.0935C59.6501 69.6368 61.3473 66.4615 63.8395 63.9694C66.3317 61.4772 69.5069 59.78 72.9636 59.0924C76.4204 58.4048 80.0034 58.7577 83.2595 60.1065C86.5157 61.4552 89.2988 63.7393 91.2569 66.6697C93.215 69.6002 94.2601 73.0455 94.2601 76.57C94.2548 81.2945 92.3757 85.8241 89.0349 89.1648C85.6942 92.5056 81.1647 94.3847 76.4401 94.39ZM76.4401 60.25C73.2123 60.25 70.057 61.2072 67.3732 63.0004C64.6894 64.7937 62.5976 67.3425 61.3624 70.3246C60.1272 73.3067 59.804 76.5881 60.4337 79.7539C61.0634 82.9197 62.6177 85.8276 64.9001 88.11C67.1825 90.3924 70.0905 91.9467 73.2563 92.5764C76.422 93.2061 79.7034 92.8829 82.6855 91.6477C85.6676 90.4125 88.2164 88.3207 90.0097 85.6369C91.803 82.9531 92.7601 79.7978 92.7601 76.57C92.7548 72.2433 91.0337 68.0953 87.9743 65.0359C84.9148 61.9764 80.7668 60.2553 76.4401 60.25V60.25Z" fill="#BAD8DB"/>
<path d="M17.82 94.39C14.2955 94.39 10.8502 93.3449 7.91975 91.3868C4.98926 89.4287 2.70523 86.6456 1.35647 83.3894C0.00772119 80.1332 -0.345174 76.5502 0.342414 73.0935C1.03 69.6368 2.72719 66.4615 5.21937 63.9694C7.71154 61.4772 10.8868 59.78 14.3435 59.0924C17.8002 58.4048 21.3832 58.7577 24.6394 60.1065C27.8956 61.4552 30.6787 63.7393 32.6368 66.6697C34.5949 69.6002 35.64 73.0455 35.64 76.57C35.6347 81.2945 33.7556 85.8241 30.4148 89.1648C27.0741 92.5056 22.5445 94.3847 17.82 94.39ZM17.82 60.25C14.5922 60.25 11.4369 61.2072 8.7531 63.0004C6.06929 64.7937 3.97752 67.3425 2.74229 70.3246C1.50707 73.3067 1.18388 76.5881 1.81359 79.7539C2.4433 82.9197 3.99763 85.8276 6.28003 88.11C8.56242 90.3924 11.4704 91.9467 14.6361 92.5764C17.8019 93.2061 21.0833 92.8829 24.0654 91.6477C27.0475 90.4125 29.5963 88.3207 31.3896 85.6369C33.1829 82.9531 34.14 79.7978 34.14 76.57C34.1347 72.2433 32.4136 68.0953 29.3541 65.0359C26.2947 61.9764 22.1467 60.2553 17.82 60.25V60.25Z" fill="#BAD8DB"/>
<path d="M17.8203 82.36C16.6336 82.36 15.4736 82.0081 14.4869 81.3488C13.5002 80.6895 12.7312 79.7524 12.277 78.6561C11.8229 77.5597 11.7041 76.3533 11.9356 75.1894C12.1671 74.0256 12.7386 72.9565 13.5777 72.1174C14.4168 71.2782 15.4859 70.7068 16.6498 70.4753C17.8137 70.2438 19.0201 70.3626 20.1164 70.8167C21.2128 71.2708 22.1498 72.0399 22.8091 73.0266C23.4684 74.0133 23.8203 75.1733 23.8203 76.36C23.8203 77.9513 23.1882 79.4774 22.063 80.6026C20.9377 81.7278 19.4116 82.36 17.8203 82.36ZM17.8203 71.85C16.9275 71.848 16.0541 72.1111 15.3109 72.6059C14.5677 73.1007 13.9881 73.805 13.6455 74.6295C13.303 75.454 13.2128 76.3616 13.3865 77.2374C13.5602 78.1132 13.9899 78.9177 14.6213 79.549C15.2526 80.1804 16.0571 80.6101 16.9329 80.7838C17.8087 80.9575 18.7163 80.8674 19.5408 80.5248C20.3653 80.1822 21.0696 79.6026 21.5644 78.8594C22.0592 78.1162 22.3223 77.2428 22.3203 76.35C22.3177 75.1573 21.8427 74.0143 20.9994 73.1709C20.156 72.3276 19.013 71.8526 17.8203 71.85V71.85Z" fill="#ED6A5E"/>
<path d="M28.9996 90.26C28.8457 90.2586 28.696 90.2098 28.5708 90.1203C28.4456 90.0309 28.3509 89.9051 28.2996 89.76C27.5271 87.6144 26.1114 85.7593 24.2457 84.4481C22.38 83.1368 20.155 82.4331 17.8746 82.4331C15.5941 82.4331 13.3692 83.1368 11.5035 84.4481C9.63774 85.7593 8.22205 87.6144 7.44959 89.76C7.38196 89.9523 7.24072 90.1098 7.05693 90.198C6.87315 90.2861 6.66187 90.2976 6.46959 90.23C6.27731 90.1624 6.11977 90.0211 6.03163 89.8374C5.94349 89.6536 5.93196 89.4423 5.99959 89.25C6.87961 86.8159 8.48848 84.7121 10.6071 83.2252C12.7258 81.7383 15.2512 80.9405 17.8396 80.9405C20.4279 80.9405 22.9534 81.7383 25.072 83.2252C27.1907 84.7121 28.7996 86.8159 29.6796 89.25C29.7194 89.3449 29.7392 89.4469 29.7379 89.5497C29.7365 89.6525 29.7141 89.754 29.6719 89.8478C29.6297 89.9416 29.5686 90.0257 29.4925 90.0949C29.4165 90.1641 29.327 90.2169 29.2296 90.25C29.1538 90.2644 29.0763 90.2678 28.9996 90.26V90.26Z" fill="#ED6A5E"/>
<path d="M17.82 94.39C14.2955 94.39 10.8502 93.3449 7.91975 91.3868C4.98926 89.4287 2.70523 86.6456 1.35647 83.3894C0.00772119 80.1332 -0.345174 76.5502 0.342414 73.0935C1.03 69.6368 2.72719 66.4615 5.21937 63.9694C7.71154 61.4772 10.8868 59.78 14.3435 59.0924C17.8002 58.4048 21.3832 58.7577 24.6394 60.1065C27.8956 61.4552 30.6787 63.7393 32.6368 66.6697C34.5949 69.6002 35.64 73.0455 35.64 76.57C35.6347 81.2945 33.7556 85.8241 30.4148 89.1648C27.0741 92.5056 22.5445 94.3847 17.82 94.39ZM17.82 60.25C14.5922 60.25 11.4369 61.2072 8.7531 63.0004C6.06929 64.7937 3.97752 67.3425 2.74229 70.3246C1.50707 73.3067 1.18388 76.5881 1.81359 79.7539C2.4433 82.9197 3.99763 85.8276 6.28003 88.11C8.56242 90.3924 11.4704 91.9467 14.6361 92.5764C17.8019 93.2061 21.0833 92.8829 24.0654 91.6477C27.0475 90.4125 29.5963 88.3207 31.3896 85.6369C33.1829 82.9531 34.14 79.7978 34.14 76.57C34.1347 72.2433 32.4136 68.0953 29.3541 65.0359C26.2947 61.9764 22.1467 60.2553 17.82 60.25V60.25Z" fill="#BAD8DB"/>
<path d="M46.5397 35.64C43.0153 35.64 39.57 34.5949 36.6395 32.6368C33.709 30.6787 31.425 27.8956 30.0762 24.6394C28.7274 21.3832 28.3746 17.8002 29.0621 14.3435C29.7497 10.8868 31.4469 7.71154 33.9391 5.21937C36.4313 2.72719 39.6065 1.03 43.0632 0.342414C46.52 -0.345174 50.103 0.00772119 53.3592 1.35647C56.6153 2.70523 59.3984 4.98926 61.3565 7.91975C63.3146 10.8502 64.3597 14.2955 64.3597 17.82C64.3544 22.5445 62.4753 27.0741 59.1345 30.4148C55.7938 33.7556 51.2643 35.6347 46.5397 35.64V35.64ZM46.5397 1.50001C43.3119 1.50001 40.1566 2.45716 37.4728 4.25042C34.789 6.04369 32.6972 8.59252 31.462 11.5746C30.2268 14.5567 29.9036 17.8381 30.5333 21.0039C31.163 24.1697 32.7174 27.0776 34.9998 29.36C37.2821 31.6424 40.1901 33.1967 43.3559 33.8264C46.5216 34.4561 49.803 34.1329 52.7851 32.8977C55.7672 31.6625 58.3161 29.5707 60.1093 26.8869C61.9026 24.2031 62.8597 21.0478 62.8597 17.82C62.8544 13.4933 61.1333 9.34532 58.0739 6.28587C55.0144 3.22642 50.8664 1.5053 46.5397 1.50001V1.50001Z" fill="#BAD8DB"/>
<path d="M46.54 23.61C45.3534 23.61 44.1933 23.2581 43.2066 22.5988C42.2199 21.9395 41.4509 21.0024 40.9968 19.9061C40.5426 18.8097 40.4238 17.6033 40.6553 16.4394C40.8868 15.2756 41.4583 14.2065 42.2974 13.3673C43.1365 12.5282 44.2056 11.9568 45.3695 11.7253C46.5334 11.4938 47.7398 11.6126 48.8361 12.0667C49.9325 12.5208 50.8696 13.2899 51.5289 14.2766C52.1881 15.2633 52.54 16.4233 52.54 17.61C52.54 19.2013 51.9079 20.7274 50.7827 21.8526C49.6575 22.9778 48.1313 23.61 46.54 23.61V23.61ZM46.54 13.1C45.6456 13.0901 44.7683 13.3464 44.0199 13.8363C43.2715 14.3263 42.6856 15.0277 42.3369 15.8515C41.9882 16.6752 41.8923 17.5841 42.0614 18.4625C42.2306 19.3409 42.6571 20.1491 43.2868 20.7845C43.9165 21.4198 44.7209 21.8536 45.5978 22.0306C46.4746 22.2075 47.3843 22.1198 48.2111 21.7784C49.038 21.437 49.7446 20.8575 50.2412 20.1135C50.7378 19.3694 51.002 18.4945 51 17.6C50.9975 16.4142 50.528 15.2771 49.6933 14.4349C48.8586 13.5927 47.7258 13.1131 46.54 13.1V13.1Z" fill="#ED6A5E"/>
<path d="M57.6697 31.51C57.5198 31.5018 57.3758 31.4488 57.2564 31.3579C57.1369 31.267 57.0475 31.1423 56.9997 31C56.2273 28.8544 54.8116 26.9993 52.9458 25.688C51.0801 24.3768 48.8552 23.6731 46.5747 23.6731C44.2943 23.6731 42.0694 24.3768 40.2036 25.688C38.3379 26.9993 36.9222 28.8544 36.1497 31C36.1183 31.0952 36.0681 31.1832 36.0021 31.2587C35.9361 31.3342 35.8556 31.3956 35.7654 31.4395C35.6752 31.4833 35.5772 31.5086 35.477 31.5139C35.3769 31.5192 35.2767 31.5043 35.1824 31.4702C35.0881 31.4361 35.0016 31.3835 34.928 31.3153C34.8544 31.2472 34.7952 31.165 34.754 31.0736C34.7127 30.9822 34.6902 30.8835 34.6877 30.7833C34.6853 30.683 34.703 30.5833 34.7397 30.49C35.6197 28.0558 37.2286 25.9521 39.3473 24.4652C41.4659 22.9783 43.9914 22.1805 46.5797 22.1805C49.1681 22.1805 51.6935 22.9783 53.8122 24.4652C55.9308 25.9521 57.5397 28.0558 58.4197 30.49C58.4593 30.5855 58.4787 30.6881 58.4767 30.7915C58.4747 30.8948 58.4514 30.9966 58.4082 31.0905C58.365 31.1844 58.3029 31.2684 58.2257 31.3371C58.1485 31.4059 58.058 31.4579 57.9597 31.49C57.8653 31.5158 57.7668 31.5226 57.6697 31.51V31.51Z" fill="#ED6A5E"/>
<path d="M46.5397 35.64C43.0153 35.64 39.57 34.5949 36.6395 32.6368C33.709 30.6787 31.425 27.8956 30.0762 24.6394C28.7274 21.3832 28.3746 17.8002 29.0621 14.3435C29.7497 10.8868 31.4469 7.71154 33.9391 5.21937C36.4313 2.72719 39.6065 1.03 43.0632 0.342414C46.52 -0.345174 50.103 0.00772119 53.3592 1.35647C56.6153 2.70523 59.3984 4.98926 61.3565 7.91975C63.3146 10.8502 64.3597 14.2955 64.3597 17.82C64.3544 22.5445 62.4753 27.0741 59.1345 30.4148C55.7938 33.7556 51.2643 35.6347 46.5397 35.64V35.64ZM46.5397 1.50001C43.3119 1.50001 40.1566 2.45716 37.4728 4.25042C34.789 6.04369 32.6972 8.59252 31.462 11.5746C30.2268 14.5567 29.9036 17.8381 30.5333 21.0039C31.163 24.1697 32.7174 27.0776 34.9998 29.36C37.2821 31.6424 40.1901 33.1967 43.3559 33.8264C46.5216 34.4561 49.803 34.1329 52.7851 32.8977C55.7672 31.6625 58.3161 29.5707 60.1093 26.8869C61.9026 24.2031 62.8597 21.0478 62.8597 17.82C62.8544 13.4933 61.1333 9.34532 58.0739 6.28587C55.0144 3.22642 50.8664 1.5053 46.5397 1.50001V1.50001Z" fill="#BAD8DB"/>
<path d="M56.4201 64C56.3215 64.001 56.2237 63.9821 56.1326 63.9443C56.0415 63.9064 55.959 63.8506 55.8901 63.78L46.0001 53.93C45.8676 53.7878 45.7955 53.5998 45.7989 53.4055C45.8024 53.2112 45.8811 53.0258 46.0185 52.8884C46.1559 52.751 46.3413 52.6722 46.5356 52.6688C46.7299 52.6654 46.9179 52.7375 47.0601 52.87L57.0001 62.75C57.1406 62.8906 57.2195 63.0812 57.2195 63.28C57.2195 63.4787 57.1406 63.6694 57.0001 63.81C56.9225 63.8811 56.8306 63.9348 56.7306 63.9676C56.6306 64.0003 56.5247 64.0114 56.4201 64V64Z" fill="#ED6A5E"/>
<path d="M36.6605 64C36.5619 64.0005 36.4643 63.9812 36.3733 63.9435C36.2823 63.9057 36.1997 63.8501 36.1305 63.78C35.99 63.6394 35.9111 63.4487 35.9111 63.25C35.9111 63.0512 35.99 62.8606 36.1305 62.72L45.7905 53.06V41.17C45.7905 40.9711 45.8695 40.7803 46.0101 40.6397C46.1508 40.499 46.3416 40.42 46.5405 40.42C46.7394 40.42 46.9302 40.499 47.0708 40.6397C47.2115 40.7803 47.2905 40.9711 47.2905 41.17V53.71L37.1905 63.81C37.0457 63.9407 36.8553 64.009 36.6605 64Z" fill="#ED6A5E"/>
</g>
<defs>
<clipPath id="clip0">
<rect width="94.26" height="94.39" fill="white"/>
</clipPath>
</defs>
</svg>
