<svg width="95" height="95" viewBox="0 0 95 95" fill="none" xmlns="http://www.w3.org/2000/svg">
<path d="M76.4401 94.39C72.9157 94.39 69.4704 93.3449 66.5399 91.3868C63.6094 89.4287 61.3253 86.6456 59.9766 83.3894C58.6278 80.1332 58.2749 76.5502 58.9625 73.0935C59.6501 69.6368 61.3473 66.4615 63.8395 63.9694C66.3317 61.4772 69.5069 59.78 72.9636 59.0924C76.4204 58.4048 80.0034 58.7577 83.2595 60.1065C86.5157 61.4552 89.2988 63.7393 91.2569 66.6697C93.215 69.6002 94.2601 73.0455 94.2601 76.57C94.2548 81.2945 92.3757 85.8241 89.0349 89.1648C85.6942 92.5056 81.1647 94.3847 76.4401 94.39ZM76.4401 60.25C73.2123 60.25 70.057 61.2072 67.3732 63.0004C64.6894 64.7937 62.5976 67.3425 61.3624 70.3246C60.1272 73.3067 59.804 76.5881 60.4337 79.7539C61.0634 82.9197 62.6177 85.8276 64.9001 88.11C67.1825 90.3924 70.0905 91.9467 73.2563 92.5764C76.422 93.2061 79.7034 92.8829 82.6855 91.6477C85.6676 90.4125 88.2164 88.3207 90.0097 85.6369C91.803 82.9531 92.7601 79.7978 92.7601 76.57C92.7548 72.2433 91.0337 68.0953 87.9743 65.0359C84.9148 61.9764 80.7668 60.2553 76.4401 60.25Z" fill="#BAD8DB"/>
<path d="M76.4404 82.3601C75.2537 82.3601 74.0937 82.0082 73.107 81.3489C72.1203 80.6896 71.3513 79.7525 70.8972 78.6562C70.443 77.5598 70.3242 76.3534 70.5557 75.1895C70.7872 74.0257 71.3587 72.9566 72.1978 72.1175C73.0369 71.2783 74.106 70.7069 75.2699 70.4754C76.4338 70.2439 77.6402 70.3627 78.7365 70.8168C79.8329 71.2709 80.77 72.04 81.4292 73.0267C82.0885 74.0134 82.4404 75.1734 82.4404 76.3601C82.4404 77.9514 81.8083 79.4775 80.6831 80.6027C79.5579 81.7279 78.0317 82.3601 76.4404 82.3601ZM76.4404 71.8501C75.5476 71.8481 74.6742 72.1112 73.931 72.606C73.1879 73.1008 72.6082 73.8051 72.2657 74.6296C71.9231 75.4541 71.8329 76.3617 72.0066 77.2375C72.1803 78.1133 72.6101 78.9178 73.2414 79.5491C73.8727 80.1805 74.6773 80.6102 75.553 80.7839C76.4288 80.9576 77.3365 80.8675 78.161 80.5249C78.9855 80.1823 79.6897 79.6027 80.1845 78.8595C80.6793 78.1163 80.9424 77.2429 80.9404 76.3501C80.9378 75.1574 80.4628 74.0144 79.6195 73.171C78.7762 72.3277 77.6331 71.8527 76.4404 71.8501Z" fill="#ED6A5E"/>
<path d="M87.5701 90.2602C87.4145 90.2608 87.2626 90.213 87.1353 90.1234C87.0081 90.0338 86.9119 89.9069 86.8601 89.7602C86.0876 87.6146 84.6719 85.7595 82.8062 84.4482C80.9404 83.137 78.7155 82.4333 76.4351 82.4333C74.1546 82.4333 71.9297 83.137 70.064 84.4482C68.1982 85.7595 66.7825 87.6146 66.0101 89.7602C65.9786 89.8554 65.9284 89.9434 65.8624 90.0189C65.7964 90.0944 65.7159 90.1558 65.6258 90.1997C65.5356 90.2435 65.4375 90.2688 65.3374 90.2741C65.2372 90.2794 65.137 90.2645 65.0427 90.2304C64.9484 90.1963 64.862 90.1437 64.7884 90.0755C64.7148 90.0074 64.6556 89.9252 64.6143 89.8338C64.573 89.7424 64.5505 89.6437 64.5481 89.5435C64.5456 89.4432 64.5633 89.3435 64.6001 89.2502C65.4776 86.815 67.085 84.7098 69.203 83.2217C71.3211 81.7336 73.8466 80.9351 76.4351 80.9351C79.0236 80.9351 81.5491 81.7336 83.6671 83.2217C85.7851 84.7098 87.3925 86.815 88.2701 89.2502C88.3098 89.345 88.3297 89.4471 88.3283 89.5499C88.327 89.6527 88.3045 89.7542 88.2623 89.848C88.2201 89.9418 88.1591 90.0259 88.083 90.0951C88.0069 90.1643 87.9174 90.2171 87.8201 90.2502C87.7379 90.2677 87.6534 90.2711 87.5701 90.2602Z" fill="#ED6A5E"/>
<path d="M76.4401 94.39C72.9157 94.39 69.4704 93.3449 66.5399 91.3868C63.6094 89.4287 61.3253 86.6456 59.9766 83.3894C58.6278 80.1332 58.2749 76.5502 58.9625 73.0935C59.6501 69.6368 61.3473 66.4615 63.8395 63.9694C66.3317 61.4772 69.5069 59.78 72.9636 59.0924C76.4204 58.4048 80.0034 58.7577 83.2595 60.1065C86.5157 61.4552 89.2988 63.7393 91.2569 66.6697C93.215 69.6002 94.2601 73.0455 94.2601 76.57C94.2548 81.2945 92.3757 85.8241 89.0349 89.1648C85.6942 92.5056 81.1647 94.3847 76.4401 94.39ZM76.4401 60.25C73.2123 60.25 70.057 61.2072 67.3732 63.0004C64.6894 64.7937 62.5976 67.3425 61.3624 70.3246C60.1272 73.3067 59.804 76.5881 60.4337 79.7539C61.0634 82.9197 62.6177 85.8276 64.9001 88.11C67.1825 90.3924 70.0905 91.9467 73.2563 92.5764C76.422 93.2061 79.7034 92.8829 82.6855 91.6477C85.6676 90.4125 88.2164 88.3207 90.0097 85.6369C91.803 82.9531 92.7601 79.7978 92.7601 76.57C92.7548 72.2433 91.0337 68.0953 87.9743 65.0359C84.9148 61.9764 80.7668 60.2553 76.4401 60.25Z" fill="#BAD8DB"/>
<path d="M17.82 94.39C14.2955 94.39 10.8502 93.3449 7.91975 91.3868C4.98926 89.4287 2.70523 86.6456 1.35647 83.3894C0.0077213 80.1332 -0.345174 76.5502 0.342414 73.0935C1.03 69.6368 2.72719 66.4615 5.21937 63.9694C7.71154 61.4772 10.8868 59.78 14.3435 59.0924C17.8002 58.4048 21.3832 58.7577 24.6394 60.1065C27.8956 61.4552 30.6787 63.7393 32.6368 66.6697C34.5949 69.6002 35.64 73.0455 35.64 76.57C35.6347 81.2945 33.7556 85.8241 30.4148 89.1648C27.0741 92.5056 22.5445 94.3847 17.82 94.39ZM17.82 60.25C14.5922 60.25 11.4369 61.2072 8.7531 63.0004C6.06929 64.7937 3.97752 67.3425 2.74229 70.3246C1.50707 73.3067 1.18388 76.5881 1.81359 79.7539C2.4433 82.9197 3.99763 85.8276 6.28003 88.11C8.56242 90.3924 11.4704 91.9467 14.6361 92.5764C17.8019 93.2061 21.0833 92.8829 24.0654 91.6477C27.0475 90.4125 29.5963 88.3207 31.3896 85.6369C33.1829 82.9531 34.14 79.7978 34.14 76.57C34.1347 72.2433 32.4136 68.0953 29.3541 65.0359C26.2947 61.9764 22.1467 60.2553 17.82 60.25Z" fill="#BAD8DB"/>
<path d="M17.8203 82.3601C16.6336 82.3601 15.4736 82.0082 14.4869 81.3489C13.5002 80.6896 12.7312 79.7525 12.277 78.6562C11.8229 77.5598 11.7041 76.3534 11.9356 75.1895C12.1671 74.0257 12.7386 72.9566 13.5777 72.1175C14.4168 71.2783 15.4859 70.7069 16.6498 70.4754C17.8137 70.2439 19.0201 70.3627 20.1164 70.8168C21.2128 71.2709 22.1498 72.04 22.8091 73.0267C23.4684 74.0134 23.8203 75.1734 23.8203 76.3601C23.8203 77.9514 23.1882 79.4775 22.063 80.6027C20.9377 81.7279 19.4116 82.3601 17.8203 82.3601ZM17.8203 71.8501C16.9275 71.8481 16.0541 72.1112 15.3109 72.606C14.5677 73.1008 13.9881 73.8051 13.6455 74.6296C13.303 75.4541 13.2128 76.3617 13.3865 77.2375C13.5602 78.1133 13.9899 78.9178 14.6213 79.5491C15.2526 80.1805 16.0571 80.6102 16.9329 80.7839C17.8087 80.9576 18.7163 80.8675 19.5408 80.5249C20.3653 80.1823 21.0696 79.6027 21.5644 78.8595C22.0592 78.1163 22.3223 77.2429 22.3203 76.3501C22.3177 75.1574 21.8427 74.0144 20.9994 73.171C20.156 72.3277 19.013 71.8527 17.8203 71.8501Z" fill="#ED6A5E"/>
<path d="M28.9996 90.2599C28.8457 90.2585 28.696 90.2097 28.5708 90.1202C28.4456 90.0308 28.3509 89.905 28.2996 89.7599C27.5271 87.6143 26.1114 85.7592 24.2457 84.448C22.38 83.1367 20.155 82.433 17.8746 82.433C15.5941 82.433 13.3692 83.1367 11.5035 84.448C9.63774 85.7592 8.22205 87.6143 7.44959 89.7599C7.38196 89.9522 7.24072 90.1097 7.05693 90.1979C6.87315 90.286 6.66187 90.2975 6.46959 90.2299C6.27731 90.1623 6.11977 90.021 6.03163 89.8373C5.94349 89.6535 5.93196 89.4422 5.99959 89.2499C6.87961 86.8158 8.48848 84.712 10.6071 83.2251C12.7258 81.7382 15.2512 80.9404 17.8396 80.9404C20.4279 80.9404 22.9534 81.7382 25.072 83.2251C27.1907 84.712 28.7996 86.8158 29.6796 89.2499C29.7194 89.3448 29.7392 89.4468 29.7379 89.5496C29.7365 89.6524 29.7141 89.7539 29.6719 89.8477C29.6297 89.9415 29.5686 90.0256 29.4925 90.0948C29.4165 90.164 29.327 90.2168 29.2296 90.2499C29.1538 90.2643 29.0763 90.2677 28.9996 90.2599Z" fill="#ED6A5E"/>
<path d="M17.82 94.39C14.2955 94.39 10.8502 93.3449 7.91975 91.3868C4.98926 89.4287 2.70523 86.6456 1.35647 83.3894C0.0077213 80.1332 -0.345174 76.5502 0.342414 73.0935C1.03 69.6368 2.72719 66.4615 5.21937 63.9694C7.71154 61.4772 10.8868 59.78 14.3435 59.0924C17.8002 58.4048 21.3832 58.7577 24.6394 60.1065C27.8956 61.4552 30.6787 63.7393 32.6368 66.6697C34.5949 69.6002 35.64 73.0455 35.64 76.57C35.6347 81.2945 33.7556 85.8241 30.4148 89.1648C27.0741 92.5056 22.5445 94.3847 17.82 94.39ZM17.82 60.25C14.5922 60.25 11.4369 61.2072 8.7531 63.0004C6.06929 64.7937 3.97752 67.3425 2.74229 70.3246C1.50707 73.3067 1.18388 76.5881 1.81359 79.7539C2.4433 82.9197 3.99763 85.8276 6.28003 88.11C8.56242 90.3924 11.4704 91.9467 14.6361 92.5764C17.8019 93.2061 21.0833 92.8829 24.0654 91.6477C27.0475 90.4125 29.5963 88.3207 31.3896 85.6369C33.1829 82.9531 34.14 79.7978 34.14 76.57C34.1347 72.2433 32.4136 68.0953 29.3541 65.0359C26.2947 61.9764 22.1467 60.2553 17.82 60.25Z" fill="#BAD8DB"/>
<path d="M46.5397 35.64C43.0153 35.64 39.57 34.5949 36.6395 32.6368C33.709 30.6787 31.425 27.8956 30.0762 24.6394C28.7274 21.3832 28.3746 17.8002 29.0621 14.3435C29.7497 10.8868 31.4469 7.71154 33.9391 5.21937C36.4313 2.72719 39.6065 1.03 43.0632 0.342414C46.52 -0.345174 50.103 0.0077213 53.3592 1.35647C56.6153 2.70523 59.3984 4.98926 61.3565 7.91975C63.3146 10.8502 64.3597 14.2955 64.3597 17.82C64.3544 22.5445 62.4753 27.0741 59.1345 30.4148C55.7938 33.7556 51.2643 35.6347 46.5397 35.64ZM46.5397 1.50001C43.3119 1.50001 40.1566 2.45716 37.4728 4.25042C34.789 6.04369 32.6972 8.59252 31.462 11.5746C30.2268 14.5567 29.9036 17.8381 30.5333 21.0039C31.163 24.1697 32.7174 27.0776 34.9998 29.36C37.2821 31.6424 40.1901 33.1967 43.3559 33.8264C46.5216 34.4561 49.803 34.1329 52.7851 32.8977C55.7672 31.6625 58.3161 29.5707 60.1093 26.8869C61.9026 24.2031 62.8597 21.0478 62.8597 17.82C62.8544 13.4933 61.1333 9.34532 58.0739 6.28587C55.0144 3.22642 50.8664 1.5053 46.5397 1.50001Z" fill="#BAD8DB"/>
<path d="M46.54 23.6101C45.3534 23.6101 44.1933 23.2582 43.2066 22.5989C42.2199 21.9396 41.4509 21.0025 40.9968 19.9062C40.5426 18.8098 40.4238 17.6034 40.6553 16.4395C40.8868 15.2757 41.4583 14.2066 42.2974 13.3674C43.1365 12.5283 44.2056 11.9569 45.3695 11.7254C46.5334 11.4939 47.7398 11.6127 48.8361 12.0668C49.9325 12.5209 50.8696 13.29 51.5289 14.2767C52.1881 15.2634 52.54 16.4234 52.54 17.6101C52.54 19.2014 51.9079 20.7275 50.7827 21.8527C49.6575 22.9779 48.1313 23.6101 46.54 23.6101ZM46.54 13.1001C45.6456 13.0902 44.7683 13.3465 44.0199 13.8364C43.2715 14.3264 42.6856 15.0278 42.3369 15.8516C41.9882 16.6753 41.8923 17.5842 42.0614 18.4626C42.2306 19.341 42.6571 20.1492 43.2868 20.7846C43.9165 21.4199 44.7209 21.8537 45.5978 22.0307C46.4746 22.2076 47.3843 22.1199 48.2111 21.7785C49.038 21.4371 49.7446 20.8576 50.2412 20.1136C50.7378 19.3695 51.002 18.4946 51 17.6001C50.9975 16.4143 50.528 15.2772 49.6933 14.435C48.8586 13.5928 47.7258 13.1132 46.54 13.1001Z" fill="#ED6A5E"/>
<path d="M57.6697 31.5099C57.5198 31.5017 57.3758 31.4487 57.2564 31.3578C57.1369 31.2669 57.0475 31.1422 56.9997 30.9999C56.2273 28.8543 54.8116 26.9992 52.9458 25.6879C51.0801 24.3767 48.8552 23.673 46.5747 23.673C44.2943 23.673 42.0694 24.3767 40.2036 25.6879C38.3379 26.9992 36.9222 28.8543 36.1497 30.9999C36.1183 31.0951 36.0681 31.1831 36.0021 31.2586C35.9361 31.3341 35.8556 31.3955 35.7654 31.4394C35.6752 31.4832 35.5772 31.5085 35.477 31.5138C35.3769 31.5191 35.2767 31.5042 35.1824 31.4701C35.0881 31.436 35.0016 31.3834 34.928 31.3152C34.8544 31.2471 34.7952 31.1649 34.754 31.0735C34.7127 30.9821 34.6902 30.8834 34.6877 30.7832C34.6853 30.6829 34.703 30.5832 34.7397 30.4899C35.6197 28.0557 37.2286 25.952 39.3473 24.4651C41.4659 22.9782 43.9914 22.1804 46.5797 22.1804C49.1681 22.1804 51.6935 22.9782 53.8122 24.4651C55.9308 25.952 57.5397 28.0557 58.4197 30.4899C58.4593 30.5854 58.4787 30.688 58.4767 30.7914C58.4747 30.8947 58.4514 30.9965 58.4082 31.0904C58.365 31.1843 58.3029 31.2683 58.2257 31.337C58.1485 31.4058 58.058 31.4578 57.9597 31.4899C57.8653 31.5157 57.7668 31.5225 57.6697 31.5099Z" fill="#ED6A5E"/>
<path d="M46.5397 35.64C43.0153 35.64 39.57 34.5949 36.6395 32.6368C33.709 30.6787 31.425 27.8956 30.0762 24.6394C28.7274 21.3832 28.3746 17.8002 29.0621 14.3435C29.7497 10.8868 31.4469 7.71154 33.9391 5.21937C36.4313 2.72719 39.6065 1.03 43.0632 0.342414C46.52 -0.345174 50.103 0.0077213 53.3592 1.35647C56.6153 2.70523 59.3984 4.98926 61.3565 7.91975C63.3146 10.8502 64.3597 14.2955 64.3597 17.82C64.3544 22.5445 62.4753 27.0741 59.1345 30.4148C55.7938 33.7556 51.2643 35.6347 46.5397 35.64ZM46.5397 1.50001C43.3119 1.50001 40.1566 2.45716 37.4728 4.25042C34.789 6.04369 32.6972 8.59252 31.462 11.5746C30.2268 14.5567 29.9036 17.8381 30.5333 21.0039C31.163 24.1697 32.7174 27.0776 34.9998 29.36C37.2821 31.6424 40.1901 33.1967 43.3559 33.8264C46.5216 34.4561 49.803 34.1329 52.7851 32.8977C55.7672 31.6625 58.3161 29.5707 60.1093 26.8869C61.9026 24.2031 62.8597 21.0478 62.8597 17.82C62.8544 13.4933 61.1333 9.34532 58.0739 6.28587C55.0144 3.22642 50.8664 1.5053 46.5397 1.50001Z" fill="#BAD8DB"/>
<path d="M56.4201 64C56.3215 64.001 56.2237 63.9821 56.1326 63.9443C56.0415 63.9064 55.959 63.8506 55.8901 63.78L46.0001 53.93C45.8676 53.7878 45.7955 53.5998 45.7989 53.4055C45.8024 53.2112 45.8811 53.0258 46.0185 52.8884C46.1559 52.751 46.3413 52.6722 46.5356 52.6688C46.7299 52.6654 46.9179 52.7375 47.0601 52.87L57.0001 62.75C57.1406 62.8906 57.2195 63.0812 57.2195 63.28C57.2195 63.4787 57.1406 63.6694 57.0001 63.81C56.9225 63.8811 56.8306 63.9348 56.7306 63.9676C56.6306 64.0003 56.5247 64.0114 56.4201 64Z" fill="#ED6A5E"/>
<path d="M36.6605 63.9999C36.5619 64.0004 36.4643 63.9811 36.3733 63.9434C36.2823 63.9056 36.1997 63.85 36.1305 63.7799C35.99 63.6393 35.9111 63.4486 35.9111 63.2499C35.9111 63.0511 35.99 62.8605 36.1305 62.7199L45.7905 53.0599V41.1699C45.7905 40.971 45.8695 40.7802 46.0101 40.6396C46.1508 40.4989 46.3416 40.4199 46.5405 40.4199C46.7394 40.4199 46.9302 40.4989 47.0708 40.6396C47.2115 40.7802 47.2905 40.971 47.2905 41.1699V53.7099L37.1905 63.8099C37.0457 63.9406 36.8553 64.0089 36.6605 63.9999Z" fill="#ED6A5E"/>
</svg>
