<svg fill="none" height="95" viewBox="0 0 95 95" width="95" xmlns="http://www.w3.org/2000/svg"><path d="m76.4401 94.39c-3.5244 0-6.9697-1.0451-9.9002-3.0032s-5.2146-4.7412-6.5633-7.9974c-1.3488-3.2562-1.7017-6.8392-1.0141-10.2959s2.3848-6.632 4.877-9.1241c2.4922-2.4922 5.6674-4.1894 9.1241-4.877 3.4568-.6876 7.0398-.3347 10.2959 1.0141 3.2562 1.3487 6.0393 3.6328 7.9974 6.5632 1.9581 2.9305 3.0032 6.3758 3.0032 9.9003-.0053 4.7245-1.8844 9.2541-5.2252 12.5948-3.3407 3.3408-7.8702 5.2199-12.5948 5.2252zm0-34.14c-3.2278 0-6.3831.9572-9.0669 2.7504-2.6838 1.7933-4.7756 4.3421-6.0108 7.3242s-1.5584 6.2635-.9287 9.4293 2.184 6.0737 4.4664 8.3561 5.1904 3.8367 8.3562 4.4664c3.1657.6297 6.4471.3065 9.4292-.9287s5.5309-3.327 7.3242-6.0108 2.7504-5.8391 2.7504-9.0669c-.0053-4.3267-1.7264-8.4747-4.7858-11.5341-3.0595-3.0595-7.2075-4.7806-11.5342-4.7859z" fill="#bad8db"/><path d="m76.4404 82.3601c-1.1867 0-2.3467-.3519-3.3334-1.0112s-1.7557-1.5964-2.2098-2.6927c-.4542-1.0964-.573-2.3028-.3415-3.4667.2315-1.1638.803-2.2329 1.6421-3.072.8391-.8392 1.9082-1.4106 3.0721-1.6421s2.3703-.1127 3.4666.3414c1.0964.4541 2.0335 1.2232 2.6927 2.2099.6593.9867 1.0112 2.1467 1.0112 3.3334 0 1.5913-.6321 3.1174-1.7573 4.2426s-2.6514 1.7574-4.2427 1.7574zm0-10.51c-.8928-.002-1.7662.2611-2.5094.7559-.7431.4948-1.3228 1.1991-1.6653 2.0236-.3426.8245-.4328 1.7321-.2591 2.6079s.6035 1.6803 1.2348 2.3116c.6313.6314 1.4359 1.0611 2.3116 1.2348.8758.1737 1.7835.0836 2.608-.259s1.5287-.9222 2.0235-1.6654.7579-1.6166.7559-2.5094c-.0026-1.1927-.4776-2.3357-1.3209-3.1791-.8433-.8433-1.9864-1.3183-3.1791-1.3209z" fill="#ed6a5e"/><path d="m87.5701 90.2602c-.1556.0006-.3075-.0472-.4348-.1368-.1272-.0896-.2234-.2165-.2752-.3632-.7725-2.1456-2.1882-4.0007-4.0539-5.312-1.8658-1.3112-4.0907-2.0149-6.3711-2.0149-2.2805 0-4.5054.7037-6.3711 2.0149-1.8658 1.3113-3.2815 3.1664-4.0539 5.312-.0315.0952-.0817.1832-.1477.2587s-.1465.1369-.2366.1808c-.0902.0438-.1883.0691-.2884.0744-.1002.0053-.2004-.0096-.2947-.0437s-.1807-.0867-.2543-.1549c-.0736-.0681-.1328-.1503-.1741-.2417s-.0638-.1901-.0662-.2903c-.0025-.1003.0152-.2.052-.2933.8775-2.4352 2.4849-4.5404 4.6029-6.0285 2.1181-1.4881 4.6436-2.2866 7.2321-2.2866s5.114.7985 7.232 2.2866 3.7254 3.5933 4.603 6.0285c.0397.0948.0596.1969.0582.2997-.0013.1028-.0238.2043-.066.2981s-.1032.1779-.1793.2471-.1656.122-.2629.1551c-.0822.0175-.1667.0209-.25.01z" fill="#ed6a5e"/><path d="m76.4401 94.39c-3.5244 0-6.9697-1.0451-9.9002-3.0032s-5.2146-4.7412-6.5633-7.9974c-1.3488-3.2562-1.7017-6.8392-1.0141-10.2959s2.3848-6.632 4.877-9.1241c2.4922-2.4922 5.6674-4.1894 9.1241-4.877 3.4568-.6876 7.0398-.3347 10.2959 1.0141 3.2562 1.3487 6.0393 3.6328 7.9974 6.5632 1.9581 2.9305 3.0032 6.3758 3.0032 9.9003-.0053 4.7245-1.8844 9.2541-5.2252 12.5948-3.3407 3.3408-7.8702 5.2199-12.5948 5.2252zm0-34.14c-3.2278 0-6.3831.9572-9.0669 2.7504-2.6838 1.7933-4.7756 4.3421-6.0108 7.3242s-1.5584 6.2635-.9287 9.4293 2.184 6.0737 4.4664 8.3561 5.1904 3.8367 8.3562 4.4664c3.1657.6297 6.4471.3065 9.4292-.9287s5.5309-3.327 7.3242-6.0108 2.7504-5.8391 2.7504-9.0669c-.0053-4.3267-1.7264-8.4747-4.7858-11.5341-3.0595-3.0595-7.2075-4.7806-11.5342-4.7859z" fill="#bad8db"/><path d="m17.82 94.39c-3.5245 0-6.9698-1.0451-9.90025-3.0032-2.93049-1.9581-5.21452-4.7412-6.56328-7.9974-1.3487487-3.2562-1.701644-6.8392-1.014056-10.2959.687586-3.4567 2.384776-6.632 4.876956-9.1241 2.49217-2.4922 5.66743-4.1894 9.12413-4.877s7.0397-.3347 10.2959 1.0141c3.2562 1.3487 6.0393 3.6328 7.9974 6.5632 1.9581 2.9305 3.0032 6.3758 3.0032 9.9003-.0053 4.7245-1.8844 9.2541-5.2252 12.5948-3.3407 3.3408-7.8703 5.2199-12.5948 5.2252zm0-34.14c-3.2278 0-6.3831.9572-9.0669 2.7504-2.68381 1.7933-4.77558 4.3421-6.01081 7.3242-1.23522 2.9821-1.55841 6.2635-.9287 9.4293s2.18404 6.0737 4.46644 8.3561c2.28239 2.2824 5.19037 3.8367 8.35607 4.4664 3.1658.6297 6.4472.3065 9.4293-.9287s5.5309-3.327 7.3242-6.0108 2.7504-5.8391 2.7504-9.0669c-.0053-4.3267-1.7264-8.4747-4.7859-11.5341-3.0594-3.0595-7.2074-4.7806-11.5341-4.7859z" fill="#bad8db"/><path d="m17.8203 82.3601c-1.1867 0-2.3467-.3519-3.3334-1.0112s-1.7557-1.5964-2.2099-2.6927c-.4541-1.0964-.5729-2.3028-.3414-3.4667.2315-1.1638.803-2.2329 1.6421-3.072.8391-.8392 1.9082-1.4106 3.0721-1.6421s2.3703-.1127 3.4666.3414c1.0964.4541 2.0334 1.2232 2.6927 2.2099s1.0112 2.1467 1.0112 3.3334c0 1.5913-.6321 3.1174-1.7573 4.2426-1.1253 1.1252-2.6514 1.7574-4.2427 1.7574zm0-10.51c-.8928-.002-1.7662.2611-2.5094.7559s-1.3228 1.1991-1.6654 2.0236c-.3425.8245-.4327 1.7321-.259 2.6079s.6034 1.6803 1.2348 2.3116c.6313.6314 1.4358 1.0611 2.3116 1.2348s1.7834.0836 2.6079-.259 1.5288-.9222 2.0236-1.6654.7579-1.6166.7559-2.5094c-.0026-1.1927-.4776-2.3357-1.3209-3.1791-.8434-.8433-1.9864-1.3183-3.1791-1.3209z" fill="#ed6a5e"/><path d="m28.9996 90.2599c-.1539-.0014-.3036-.0502-.4288-.1397-.1252-.0894-.2199-.2152-.2712-.3603-.7725-2.1456-2.1882-4.0007-4.0539-5.3119-1.8657-1.3113-4.0907-2.015-6.3711-2.015-2.2805 0-4.5054.7037-6.3711 2.015-1.86576 1.3112-3.28145 3.1663-4.05391 5.3119-.06763.1923-.20887.3498-.39266.438-.18378.0881-.39506.0996-.58734.032s-.34982-.2089-.43796-.3926c-.08814-.1838-.09967-.3951-.03204-.5874.88002-2.4341 2.48889-4.5379 4.60751-6.0248 2.1187-1.4869 4.6441-2.2847 7.2325-2.2847 2.5883 0 5.1138.7978 7.2324 2.2847 2.1187 1.4869 3.7276 3.5907 4.6076 6.0248.0398.0949.0596.1969.0583.2997-.0014.1028-.0238.2043-.066.2981s-.1033.1779-.1794.2471c-.076.0692-.1655.122-.2629.1551-.0758.0144-.1533.0178-.23.01z" fill="#ed6a5e"/><path d="m17.82 94.39c-3.5245 0-6.9698-1.0451-9.90025-3.0032-2.93049-1.9581-5.21452-4.7412-6.56328-7.9974-1.3487487-3.2562-1.701644-6.8392-1.014056-10.2959.687586-3.4567 2.384776-6.632 4.876956-9.1241 2.49217-2.4922 5.66743-4.1894 9.12413-4.877s7.0397-.3347 10.2959 1.0141c3.2562 1.3487 6.0393 3.6328 7.9974 6.5632 1.9581 2.9305 3.0032 6.3758 3.0032 9.9003-.0053 4.7245-1.8844 9.2541-5.2252 12.5948-3.3407 3.3408-7.8703 5.2199-12.5948 5.2252zm0-34.14c-3.2278 0-6.3831.9572-9.0669 2.7504-2.68381 1.7933-4.77558 4.3421-6.01081 7.3242-1.23522 2.9821-1.55841 6.2635-.9287 9.4293s2.18404 6.0737 4.46644 8.3561c2.28239 2.2824 5.19037 3.8367 8.35607 4.4664 3.1658.6297 6.4472.3065 9.4293-.9287s5.5309-3.327 7.3242-6.0108 2.7504-5.8391 2.7504-9.0669c-.0053-4.3267-1.7264-8.4747-4.7859-11.5341-3.0594-3.0595-7.2074-4.7806-11.5341-4.7859z" fill="#bad8db"/><path d="m46.5397 35.64c-3.5244 0-6.9697-1.0451-9.9002-3.0032s-5.2145-4.7412-6.5633-7.9974-1.7016-6.8392-1.0141-10.2959c.6876-3.4567 2.3848-6.63196 4.877-9.12413 2.4922-2.49218 5.6674-4.18937 9.1241-4.876956 3.4568-.687588 7.0398-.3346927 10.296 1.014056 3.2561 1.34876 6.0392 3.63279 7.9973 6.56328 1.9581 2.93045 3.0032 6.37575 3.0032 9.90025-.0053 4.7245-1.8844 9.2541-5.2252 12.5948-3.3407 3.3408-7.8702 5.2199-12.5948 5.2252zm0-34.13999c-3.2278 0-6.3831.95715-9.0669 2.75041-2.6838 1.79327-4.7756 4.3421-6.0108 7.32418-1.2352 2.9821-1.5584 6.2635-.9287 9.4293s2.1841 6.0737 4.4665 8.3561c2.2823 2.2824 5.1903 3.8367 8.3561 4.4664 3.1657.6297 6.4471.3065 9.4292-.9287s5.531-3.327 7.3242-6.0108c1.7933-2.6838 2.7504-5.8391 2.7504-9.0669-.0053-4.3267-1.7264-8.47468-4.7858-11.53413-3.0595-3.05945-7.2075-4.78057-11.5342-4.78586z" fill="#bad8db"/><path d="m46.54 23.6101c-1.1866 0-2.3467-.3519-3.3334-1.0112s-1.7557-1.5964-2.2098-2.6927c-.4542-1.0964-.573-2.3028-.3415-3.4667.2315-1.1638.803-2.2329 1.6421-3.0721.8391-.8391 1.9082-1.4105 3.0721-1.642s2.3703-.1127 3.4666.3414c1.0964.4541 2.0335 1.2232 2.6928 2.2099.6592.9867 1.0111 2.1467 1.0111 3.3334 0 1.5913-.6321 3.1174-1.7573 4.2426s-2.6514 1.7574-4.2427 1.7574zm0-10.51c-.8944-.0099-1.7717.2464-2.5201.7363-.7484.49-1.3343 1.1914-1.683 2.0152-.3487.8237-.4446 1.7326-.2755 2.611.1692.8784.5957 1.6866 1.2254 2.322.6297.6353 1.4341 1.0691 2.311 1.2461.8768.1769 1.7865.0892 2.6133-.2522.8269-.3414 1.5335-.9209 2.0301-1.6649.4966-.7441.7608-1.619.7588-2.5135-.0025-1.1858-.472-2.3229-1.3067-3.1651s-1.9675-1.3218-3.1533-1.3349z" fill="#ed6a5e"/><path d="m57.6697 31.5099c-.1499-.0082-.2939-.0612-.4133-.1521-.1195-.0909-.2089-.2156-.2567-.3579-.7724-2.1456-2.1881-4.0007-4.0539-5.312-1.8657-1.3112-4.0906-2.0149-6.3711-2.0149-2.2804 0-4.5053.7037-6.3711 2.0149-1.8657 1.3113-3.2814 3.1664-4.0539 5.312-.0314.0952-.0816.1832-.1476.2587s-.1465.1369-.2367.1808c-.0902.0438-.1882.0691-.2884.0744-.1001.0053-.2003-.0096-.2946-.0437s-.1808-.0867-.2544-.1549c-.0736-.0681-.1328-.1503-.174-.2417-.0413-.0914-.0638-.1901-.0663-.2903-.0024-.1003.0153-.2.052-.2933.88-2.4342 2.4889-4.5379 4.6076-6.0248 2.1186-1.4869 4.6441-2.2847 7.2324-2.2847 2.5884 0 5.1138.7978 7.2325 2.2847 2.1186 1.4869 3.7275 3.5906 4.6075 6.0248.0396.0955.059.1981.057.3015-.002.1033-.0253.2051-.0685.299s-.1053.1779-.1825.2466c-.0772.0688-.1677.1208-.266.1529-.0944.0258-.1929.0326-.29.02z" fill="#ed6a5e"/><path d="m46.5397 35.64c-3.5244 0-6.9697-1.0451-9.9002-3.0032s-5.2145-4.7412-6.5633-7.9974-1.7016-6.8392-1.0141-10.2959c.6876-3.4567 2.3848-6.63196 4.877-9.12413 2.4922-2.49218 5.6674-4.18937 9.1241-4.876956 3.4568-.687588 7.0398-.3346927 10.296 1.014056 3.2561 1.34876 6.0392 3.63279 7.9973 6.56328 1.9581 2.93045 3.0032 6.37575 3.0032 9.90025-.0053 4.7245-1.8844 9.2541-5.2252 12.5948-3.3407 3.3408-7.8702 5.2199-12.5948 5.2252zm0-34.13999c-3.2278 0-6.3831.95715-9.0669 2.75041-2.6838 1.79327-4.7756 4.3421-6.0108 7.32418-1.2352 2.9821-1.5584 6.2635-.9287 9.4293s2.1841 6.0737 4.4665 8.3561c2.2823 2.2824 5.1903 3.8367 8.3561 4.4664 3.1657.6297 6.4471.3065 9.4292-.9287s5.531-3.327 7.3242-6.0108c1.7933-2.6838 2.7504-5.8391 2.7504-9.0669-.0053-4.3267-1.7264-8.47468-4.7858-11.53413-3.0595-3.05945-7.2075-4.78057-11.5342-4.78586z" fill="#bad8db"/><g fill="#ed6a5e"><path d="m56.4201 64c-.0986.001-.1964-.0179-.2875-.0557-.0911-.0379-.1736-.0937-.2425-.1643l-9.89-9.85c-.1325-.1422-.2046-.3302-.2012-.5245.0035-.1943.0822-.3797.2196-.5171s.3228-.2162.5171-.2196.3823.0687.5245.2012l9.94 9.88c.1405.1406.2194.3312.2194.53 0 .1987-.0789.3894-.2194.53-.0776.0711-.1695.1248-.2695.1576-.1.0327-.2059.0438-.3105.0324z"/><path d="m36.6605 63.9999c-.0986.0005-.1962-.0188-.2872-.0565-.091-.0378-.1736-.0934-.2428-.1635-.1405-.1406-.2194-.3313-.2194-.53 0-.1988.0789-.3894.2194-.53l9.66-9.66v-11.89c0-.1989.079-.3897.2196-.5303.1407-.1407.3315-.2197.5304-.2197s.3897.079.5303.2197c.1407.1406.2197.3314.2197.5303v12.54l-10.1 10.1c-.1448.1307-.3352.199-.53.19z"/></g></svg>