<svg width="97" height="72" viewBox="0 0 97 72" fill="none" xmlns="http://www.w3.org/2000/svg">
<g clip-path="url(#clip0)">
<path d="M84.67 14.36H0.75C0.551088 14.36 0.360322 14.281 0.21967 14.1403C0.0790176 13.9997 0 13.8089 0 13.61C0 13.4111 0.0790176 13.2203 0.21967 13.0797C0.360322 12.939 0.551088 12.86 0.75 12.86H84.67C84.8689 12.86 85.0597 12.939 85.2003 13.0797C85.341 13.2203 85.42 13.4111 85.42 13.61C85.42 13.8089 85.341 13.9997 85.2003 14.1403C85.0597 14.281 84.8689 14.36 84.67 14.36Z" fill="#BAD8DB"/>
<path d="M8.21008 8.79003C9.1103 8.79003 9.84008 8.06025 9.84008 7.16003C9.84008 6.2598 9.1103 5.53003 8.21008 5.53003C7.30985 5.53003 6.58008 6.2598 6.58008 7.16003C6.58008 8.06025 7.30985 8.79003 8.21008 8.79003Z" fill="#ED6A5E"/>
<path d="M54 60.9H1.50004V1.49998H83.92V22.75C84.42 22.88 84.92 23.01 85.42 23.16V1.32998C85.42 0.977239 85.2799 0.638949 85.0305 0.389525C84.7811 0.140102 84.4428 -2.28628e-05 84.09 -2.28628e-05H1.33004C1.15501 -0.00135394 0.981463 0.0321387 0.819499 0.0985061C0.657534 0.164873 0.510387 0.26279 0.386619 0.386558C0.262851 0.510326 0.164934 0.657473 0.0985671 0.819438C0.0321997 0.981402 -0.00129291 1.15495 3.81723e-05 1.32998V61.08C3.31737e-05 61.2542 0.0345045 61.4266 0.101465 61.5874C0.168426 61.7482 0.266552 61.8942 0.390186 62.0169C0.513821 62.1396 0.660519 62.2366 0.821825 62.3024C0.98313 62.3681 1.15585 62.4013 1.33004 62.4H54.86C54.56 61.91 54.29 61.41 54 60.9Z" fill="#BAD8DB"/>
<path d="M78 71.13C77.8011 71.13 77.6103 71.051 77.4697 70.9103C77.329 70.7697 77.25 70.5789 77.25 70.38V28.55C77.25 28.3511 77.329 28.1603 77.4697 28.0197C77.6103 27.879 77.8011 27.8 78 27.8C78.1989 27.8 78.3897 27.879 78.5303 28.0197C78.671 28.1603 78.75 28.3511 78.75 28.55V70.38C78.75 70.5789 78.671 70.7697 78.5303 70.9103C78.3897 71.051 78.1989 71.13 78 71.13Z" fill="#ED6A5E"/>
<path d="M77.9996 37.6L72.4596 32.25C72.3191 32.1094 72.2402 31.9188 72.2402 31.72C72.2402 31.5213 72.3191 31.3306 72.4596 31.19C72.6015 31.0519 72.7916 30.9747 72.9896 30.9747C73.1875 30.9747 73.3777 31.0519 73.5196 31.19L77.9996 35.48L82.2896 31C82.43 30.8976 82.6017 30.8472 82.7752 30.8574C82.9488 30.8675 83.1134 30.9377 83.2409 31.0558C83.3684 31.1739 83.451 31.3326 83.4745 31.5048C83.498 31.6771 83.4609 31.8521 83.3696 32L77.9996 37.6Z" fill="#ED6A5E"/>
<path d="M73.0001 67.94C72.9038 67.941 72.8084 67.923 72.7191 67.8869C72.6299 67.8509 72.5486 67.7976 72.4801 67.73C72.3396 67.5894 72.2607 67.3988 72.2607 67.2C72.2607 67.0013 72.3396 66.8106 72.4801 66.67L77.8301 61.13L83.3701 66.48C83.5105 66.6206 83.5894 66.8113 83.5894 67.01C83.5894 67.2088 83.5105 67.3994 83.3701 67.54C83.2295 67.6805 83.0388 67.7593 82.8401 67.7593C82.6413 67.7593 82.4507 67.6805 82.3101 67.54L77.8501 63.23L73.5401 67.69C73.4727 67.7673 73.3898 67.8294 73.2967 67.8725C73.2037 67.9156 73.1026 67.9386 73.0001 67.94V67.94Z" fill="#ED6A5E"/>
<path d="M96.0802 60.58C95.9502 60.5797 95.8226 60.5452 95.7102 60.48L59.4802 39.56C59.3846 39.5168 59.2991 39.4539 59.2292 39.3756C59.1594 39.2973 59.1068 39.2052 59.0748 39.1052C59.0428 39.0053 59.0321 38.8997 59.0435 38.7954C59.0548 38.6911 59.0879 38.5903 59.1407 38.4996C59.1934 38.4088 59.2646 38.3302 59.3497 38.2687C59.4347 38.2072 59.5317 38.1643 59.6344 38.1426C59.7371 38.121 59.8432 38.1212 59.9458 38.1431C60.0484 38.165 60.1453 38.2082 60.2302 38.27L96.4602 59.18C96.6038 59.2626 96.716 59.3905 96.7792 59.5436C96.8425 59.6968 96.8533 59.8666 96.8099 60.0265C96.7665 60.1864 96.6713 60.3274 96.5393 60.4275C96.4073 60.5277 96.2459 60.5813 96.0802 60.58V60.58Z" fill="#ED6A5E"/>
<path d="M60.0796 45.6C59.9169 45.5962 59.7595 45.5409 59.6302 45.4421C59.5008 45.3433 59.4061 45.206 59.3596 45.05C59.3074 44.8591 59.3327 44.6552 59.4301 44.4829C59.5275 44.3105 59.6891 44.1837 59.8796 44.13L65.8796 42.42L64.1696 36.42C64.1421 36.3254 64.1334 36.2264 64.1441 36.1285C64.1548 36.0306 64.1847 35.9357 64.232 35.8494C64.2794 35.763 64.3433 35.6868 64.4201 35.6252C64.4969 35.5635 64.5851 35.5176 64.6796 35.49C64.8719 35.4374 65.0771 35.4625 65.251 35.5597C65.425 35.657 65.5538 35.8187 65.6096 36.01L67.7396 43.41L60.3296 45.54C60.2503 45.574 60.1658 45.5943 60.0796 45.6V45.6Z" fill="#ED6A5E"/>
<path d="M90.81 63.34C90.6464 63.3394 90.4875 63.2853 90.3576 63.186C90.2276 63.0867 90.1336 62.9477 90.09 62.79L88 55.39L95.41 53.26C95.6022 53.2074 95.8074 53.2325 95.9814 53.3297C96.1553 53.427 96.2841 53.5887 96.34 53.78C96.3923 53.9709 96.367 54.1748 96.2696 54.3472C96.1721 54.5195 96.0105 54.6463 95.82 54.7L89.82 56.42L91.53 62.42C91.583 62.6109 91.5593 62.815 91.4641 62.9887C91.3688 63.1624 91.2095 63.2921 91.02 63.35L90.81 63.34Z" fill="#ED6A5E"/>
<path d="M59.75 60.58C59.5843 60.5813 59.4229 60.5277 59.2909 60.4276C59.1589 60.3274 59.0637 60.1864 59.0203 60.0265C58.9769 59.8666 58.9877 59.6968 59.051 59.5437C59.1142 59.3905 59.2264 59.2626 59.37 59.18L95.6 38.27C95.7694 38.1778 95.9679 38.1544 96.1541 38.2046C96.3403 38.2549 96.5 38.375 96.6 38.54C96.694 38.7101 96.7173 38.9103 96.6649 39.0974C96.6125 39.2845 96.4886 39.4434 96.32 39.54L60.12 60.48C60.0082 60.5466 59.8802 60.5812 59.75 60.58V60.58Z" fill="#ED6A5E"/>
<path d="M65.0001 63.35H64.8201C64.6276 63.3004 64.4623 63.1773 64.3595 63.0072C64.2567 62.8371 64.2246 62.6335 64.2701 62.44L65.7701 56.44L59.7701 54.94C59.5765 54.8923 59.4098 54.7696 59.3066 54.5989C59.2035 54.4282 59.1724 54.2236 59.2201 54.03C59.2678 53.8364 59.3905 53.6697 59.5612 53.5665C59.7319 53.4634 59.9365 53.4323 60.1301 53.48L67.6101 55.34L65.7501 62.82C65.7 62.9781 65.5996 63.1154 65.4642 63.2111C65.3288 63.3068 65.1658 63.3556 65.0001 63.35Z" fill="#ED6A5E"/>
<path d="M95.7303 45.61H95.5403L88.0703 43.75L89.9303 36.27C89.954 36.1741 89.9962 36.0838 90.0548 36.0043C90.1133 35.9248 90.1869 35.8576 90.2714 35.8065C90.3559 35.7554 90.4496 35.7215 90.5472 35.7067C90.6449 35.6918 90.7444 35.6963 90.8403 35.72C90.9362 35.7436 91.0265 35.7859 91.106 35.8444C91.1855 35.903 91.2527 35.9766 91.3038 36.0611C91.3549 36.1456 91.3888 36.2393 91.4036 36.3369C91.4185 36.4345 91.414 36.5341 91.3903 36.63L89.8903 42.63L95.8903 44.13C96.07 44.1723 96.2278 44.2794 96.3335 44.4308C96.4392 44.5822 96.4853 44.7673 96.463 44.9506C96.4407 45.1339 96.3516 45.3025 96.2127 45.4242C96.0738 45.5458 95.8949 45.612 95.7103 45.61H95.7303Z" fill="#ED6A5E"/>
</g>
<defs>
<clipPath id="clip0">
<rect width="96.83" height="71.13" fill="white"/>
</clipPath>
</defs>
</svg>
