<svg id="Layer_1" data-name="Layer 1" xmlns="http://www.w3.org/2000/svg" viewBox="0 0 96.83 71.13"><defs><style>.cls-1{fill:#c4c4c4;}.cls-2{fill:#ff7c6c;}</style></defs><path class="cls-1" d="M84.67,14.36H.75a.75.75,0,0,1,0-1.5H84.67a.75.75,0,0,1,0,1.5Z"/><circle class="cls-2" cx="8.21" cy="7.16" r="1.63"/><path class="cls-1" d="M54,60.9H1.5V1.5H83.92V22.75c.5.13,1,.26,1.5.41V1.33A1.33,1.33,0,0,0,84.09,0H1.33A1.32,1.32,0,0,0,0,1.33V61.08A1.32,1.32,0,0,0,1.33,62.4H54.86C54.56,61.91,54.29,61.41,54,60.9Z"/><path class="cls-2" d="M78,71.13a.75.75,0,0,1-.75-.75V28.55a.75.75,0,1,1,1.5,0V70.38A.75.75,0,0,1,78,71.13Z"/><path class="cls-2" d="M78,37.6l-5.54-5.35a.75.75,0,0,1,0-1.06.76.76,0,0,1,1.06,0L78,35.48,82.29,31a.75.75,0,0,1,1.08,1Z"/><path class="cls-2" d="M73,67.94a.73.73,0,0,1-.52-.21.75.75,0,0,1,0-1.06l5.35-5.54,5.54,5.35a.75.75,0,0,1,0,1.06.75.75,0,0,1-1.06,0l-4.46-4.31-4.31,4.46A.73.73,0,0,1,73,67.94Z"/><path class="cls-2" d="M96.08,60.58a.74.74,0,0,1-.37-.1L59.48,39.56a.75.75,0,1,1,.75-1.29L96.46,59.18a.75.75,0,0,1-.38,1.4Z"/><path class="cls-2" d="M60.08,45.6a.77.77,0,0,1-.72-.55.75.75,0,0,1,.52-.92l6-1.71-1.71-6a.75.75,0,0,1,.51-.93.76.76,0,0,1,.93.52l2.13,7.4-7.41,2.13A.76.76,0,0,1,60.08,45.6Z"/><path class="cls-2" d="M90.81,63.34a.75.75,0,0,1-.72-.55L88,55.39l7.41-2.13a.76.76,0,0,1,.93.52.75.75,0,0,1-.52.92l-6,1.72,1.71,6a.76.76,0,0,1-.51.93Z"/><path class="cls-2" d="M59.75,60.58a.75.75,0,0,1-.38-1.4L95.6,38.27a.75.75,0,0,1,1,.27.74.74,0,0,1-.28,1L60.12,60.48A.71.71,0,0,1,59.75,60.58Z"/><path class="cls-2" d="M65,63.35l-.18,0a.76.76,0,0,1-.55-.91l1.5-6-6-1.5a.75.75,0,0,1,.36-1.46l7.48,1.86-1.86,7.48A.76.76,0,0,1,65,63.35Z"/><path class="cls-2" d="M95.73,45.61l-.19,0-7.47-1.86,1.86-7.48a.75.75,0,1,1,1.46.36l-1.5,6,6,1.5a.75.75,0,0,1-.18,1.48Z"/></svg>