<svg viewBox="0 0 92.37 58.52" xmlns="http://www.w3.org/2000/svg"><g fill="#ff7c6c"><path d="m74.65 46.93a5 5 0 0 1 -3.19-1.14l-17.52-15.79 1-1.12 17.5 15.81a3.53 3.53 0 0 0 4.46-5.46l-27.31-24.51 1-1.12 27.29 24.45a5 5 0 0 1 -3.23 8.88z"/><path d="m66.38 51a5 5 0 0 1 -3.18-1.14l-1.3-1.09 1-1.15 1.29 1.08a3.51 3.51 0 0 0 5-.48 3.53 3.53 0 0 0 -.48-5l-10.31-9.22 1-1.11 10.2 9.21a5 5 0 0 1 -2.72 8.9 4.18 4.18 0 0 1 -.5 0z"/><path d="m58.56 55.12a5.07 5.07 0 0 1 -3.19-1.12l-13.84-12.53 1-1.11 13.82 12.48a3.53 3.53 0 0 0 4.46-5.47l-11.46-10.51 1-1.11 11.44 10.49a5 5 0 0 1 1.78 3.37 5 5 0 0 1 -5 5.51z"/><path d="m49.65 58.46a5 5 0 0 1 -3.18-1.14l-3.2-2.75 1-1.14 3.18 2.74a3.5 3.5 0 0 0 2.55.83 3.53 3.53 0 0 0 1.9-6.24l-10.23-9.28 1-1.11 10.2 9.21a5 5 0 0 1 -2.73 8.86 4.18 4.18 0 0 1 -.49.02z"/></g><path d="m24.28 51.88a4.45 4.45 0 0 1 -2.48-.75 4.49 4.49 0 0 1 -1.25-6.22l3.09-4.5a4.48 4.48 0 0 1 6.21-1.24 4.48 4.48 0 0 1 1.25 6.21l-3.1 4.51a4.46 4.46 0 0 1 -3.72 1.99zm-1.65-2a3 3 0 0 0 4.14-.83l3.09-4.51a3 3 0 0 0 -5-3.29l-3.09 4.5a3 3 0 0 0 .84 4.13z" fill="#c4c4c4"/><path d="m31.53 55.92a4.48 4.48 0 0 1 -3.73-7l3.09-4.51a4.49 4.49 0 0 1 6.21-1.21 4.49 4.49 0 0 1 1.25 6.22l-3.09 4.5a4.45 4.45 0 0 1 -2.84 1.91 4.56 4.56 0 0 1 -.89.09zm3.09-12a3 3 0 0 0 -2.49 1.33l-3.13 4.54a3 3 0 0 0 3.08 4.57 2.94 2.94 0 0 0 1.92-1.28l3.09-4.5a3 3 0 0 0 -2.47-4.58z" fill="#c4c4c4"/><path d="m39.1 58.52a3.82 3.82 0 0 1 -2.1-.64 3.8 3.8 0 0 1 -1.06-5.29l2.53-3.7a3.82 3.82 0 0 1 6.92 1.37 3.82 3.82 0 0 1 -.56 2.87l-2.54 3.7a3.79 3.79 0 0 1 -2.42 1.62 3.91 3.91 0 0 1 -.77.07zm2.54-9.82a2.38 2.38 0 0 0 -.46 0 2.3 2.3 0 0 0 -1.47 1l-2.54 3.7a2.32 2.32 0 0 0 .65 3.2 2.28 2.28 0 0 0 1.74.35 2.38 2.38 0 0 0 1.44-.95l2.53-3.7a2.33 2.33 0 0 0 -.65-3.21 2.36 2.36 0 0 0 -1.24-.39z" fill="#c4c4c4"/><path d="m15.64 48.69a4.48 4.48 0 0 1 -2.47-.69 4.5 4.5 0 0 1 -1.25-6.22l3.08-4.56a4.49 4.49 0 0 1 7.47 5l-3.09 4.5a4.48 4.48 0 0 1 -3.74 1.97zm-1.64-1.99a3 3 0 0 0 4.14-.84l3.08-4.5a3 3 0 0 0 -5-3.3l-3.08 4.51a3 3 0 0 0 .86 4.13z" fill="#c4c4c4"/><path d="m13.85 39.08c-5.18-4.08-13-7.31-13.07-7.34l-.78-.32 15.35-28.42.64.28a43.62 43.62 0 0 0 15.57 3.66l2.23.11-.07 1.5-2.23-.11a45.22 45.22 0 0 1 -15.49-3.52l-13.89 25.75a62.48 62.48 0 0 1 12.67 7.24z" fill="#ff7c6c"/><path d="m78.23 38.86a.75.75 0 0 1 -.38-1.4l12.58-7.28-11.84-25.18-2.27 1.14a12.14 12.14 0 0 1 -10.78.64l-11.09-4.7a7.28 7.28 0 0 0 -5.7 0l-12.75 5.45a6.16 6.16 0 0 0 -3 2.71l-7.85 11.07a.26.26 0 0 0 0 .25.25.25 0 0 0 .17.17c2.64.83 7.06 2.22 14.08-6l.16-.19 12.44-2.71a.75.75 0 0 1 .32 1.47l-12 2.61c-7.57 8.74-12.72 7.12-15.5 6.25a1.77 1.77 0 0 1 -.91-2.72l7.83-11a7.57 7.57 0 0 1 3.66-3.3l12.76-5.43a8.79 8.79 0 0 1 6.84-.01l11.13 4.7a10.64 10.64 0 0 0 9.47-.58l3.68-1.88 13.09 27.84-13.77 8a.69.69 0 0 1 -.37.08z" fill="#c4c4c4"/></svg>