<svg viewBox="0 0 96.66 67.02" xmlns="http://www.w3.org/2000/svg"><path d="m46.89 56.92a2.22 2.22 0 0 1 -1.34-.46l-.29-.23c-9.11-7-14.6-11.3-17.74-16.87-2.94-5.2-2.6-9.26-1.8-11.76a11.24 11.24 0 0 1 6.12-6.78 12.44 12.44 0 0 1 15.05 4 12.47 12.47 0 0 1 15.06-4 11.24 11.24 0 0 1 6.12 6.78c.8 2.5 1.14 6.56-1.8 11.76-3.14 5.57-8.64 9.82-17.74 16.88l-.29.22a2.25 2.25 0 0 1 -1.35.46zm-10.07-35.18a9.8 9.8 0 0 0 -4.14.89 9.32 9.32 0 0 0 -5.06 5.59c-1 3-.4 6.54 1.64 10.15 2.94 5.22 8.32 9.39 17.22 16.28l.29.23a.23.23 0 0 0 .25 0l.28-.22c8.91-6.9 14.29-11.07 17.23-16.29 2-3.61 2.61-7.13 1.64-10.15a9.32 9.32 0 0 0 -5.06-5.59c-4.82-2.23-11-.12-13.25 4.52l-.27.57h-.7a1.07 1.07 0 0 1 -1-.61 10.14 10.14 0 0 0 -9.07-5.37z" fill="#c4c4c4"/><g fill="#ff7c6c"><path d="m13.06 64.18a.78.78 0 0 1 -.54-.23 43.81 43.81 0 0 1 -.88-60.4.75.75 0 0 1 1.1 1 42.3 42.3 0 0 0 .86 58.35.76.76 0 0 1 0 1.07.73.73 0 0 1 -.54.21z"/><path d="m22.29 55a.75.75 0 0 1 -.54-.22 30.77 30.77 0 0 1 -.44-42.42.75.75 0 1 1 1.1 1 29.27 29.27 0 0 0 .41 40.35.75.75 0 0 1 0 1.06.77.77 0 0 1 -.53.23z"/><circle cx="13.8" cy="64.33" r="2.69"/><circle cx="13.8" cy="2.69" r="2.69"/><circle cx="23.46" cy="54.66" r="2.69"/><circle cx="23.46" cy="11.82" r="2.69"/><path d="m83.6 64.18a.73.73 0 0 1 -.52-.21.76.76 0 0 1 0-1.07 42.31 42.31 0 0 0 .85-58.33.75.75 0 0 1 1.1-1 43.81 43.81 0 0 1 -.89 60.43.76.76 0 0 1 -.54.18z"/><path d="m74.38 55a.77.77 0 0 1 -.53-.21.75.75 0 0 1 0-1.06 29.27 29.27 0 0 0 .41-40.35.75.75 0 1 1 1.1-1 30.77 30.77 0 0 1 -.44 42.42.73.73 0 0 1 -.54.2z"/><circle cx="82.86" cy="64.33" r="2.69"/><circle cx="82.86" cy="2.69" r="2.69"/><circle cx="73.2" cy="54.66" r="2.69"/><circle cx="73.2" cy="11.82" r="2.69"/></g></svg>