<svg fill="none" height="41" viewBox="0 0 56 41" width="56" xmlns="http://www.w3.org/2000/svg"><path d="m.40332 28.0799c0 6.624 5.472 12.096 12.38398 12.096 6.624 0 12.096-5.472 12.096-12.096 0-4.752-2.592-8.928-6.48-10.944l5.328-16.559972h-5.904l-12.67198 16.559972c-4.176 5.616-4.752 8.208-4.752 10.944zm30.23998 0c0 6.624 5.472 12.096 12.384 12.096 6.624 0 12.096-5.472 12.096-12.096 0-4.752-2.592-8.928-6.48-10.944l5.328-16.559972h-5.904l-12.672 16.559972c-4.176 5.616-4.752 8.208-4.752 10.944z" fill="#647982"/></svg>