<svg id="logo-anvyl" viewBox="0 0 144 27">
  <g>
    <polygon fill="#8e9ba0" points="79.6,26 89,1 82.8,1 76.5,17.7 70.2,1 64,1 73.4,26 73.4,26 79.6,26 79.6,26 79.6,26 	"></polygon>
    <polygon fill="#8e9ba0" points="142.5,19.8 131.3,19.8 131.3,1 125.1,1 125.1,19.8 125.1,19.8 125.1,26 125.1,26 125.1,26 131.3,26
		131.3,26 143.9,26"></polygon>
    <polygon fill="#8e9ba0" points="56.2,1 50.5,1 50.7,17.6 39.1,1 38.5,1 32.8,1 33.1,26 38.8,26 38.6,9.4 50.2,26 56.5,26 	"></polygon>
    <polygon fill="#8e9ba0" points="113.1,1 106.9,12.1 100.6,1 94.3,1 103.7,17.7 103.7,26 110,26 110,17.7 119.4,1 	"></polygon>
    <path fill="#8e9ba0" d="M19.6,26h6.3L16.2,1H9.9L0.2,26h6.3l1.7-4.3H18L19.6,26z M9.9,17.1L13,9.1l3.1,8.1H9.9z"></path>
  </g>
</svg>
