<?xml version="1.0" encoding="UTF-8"?>
<svg width="100px" height="19px" viewBox="0 0 100 19" version="1.1" xmlns="http://www.w3.org/2000/svg" xmlns:xlink="http://www.w3.org/1999/xlink">
    <!-- Generator: Sketch 53 (72520) - https://sketchapp.com -->
    <title>Group 35</title>
    <desc>Created with Sketch.</desc>
    <defs>
        <polygon id="path-1" points="0 0.0179332011 17.7651717 0.0179332011 17.7651717 18.8330261 0 18.8330261"></polygon>
        <polygon id="path-3" points="0.0174401835 0.0179332011 18.8853786 0.0179332011 18.8853786 18.8329868 0.0174401835 18.8329868"></polygon>
        <polygon id="path-5" points="0.0453947368 0.0179332011 16.6135417 0.0179332011 16.6135417 18.8330261 0.0453947368 18.8330261"></polygon>
        <polygon id="path-7" points="0.0256779388 0.0179332011 18.8888889 0.0179332011 18.8888889 18.8330261 0.0256779388 18.8330261"></polygon>
        <polygon id="path-9" points="0.0353129308 0.0179332011 22.1817149 0.0179332011 22.1817149 18.8330374 0.0353129308 18.8330374"></polygon>
    </defs>
    <g id="Page-1" stroke="none" stroke-width="1" fill="none" fill-rule="evenodd">
        <g id="Web_Splash_NBA_2019_Minimal" transform="translate(-120.000000, -21.000000)">
            <g id="Top_Navigation">
                <g id="Group-35" transform="translate(120.000000, 21.000000)">
                    <g id="Group-3">
                        <mask id="mask-2" fill="white">
                            <use xlink:href="#path-1"></use>
                        </mask>
                        <g id="Clip-2"></g>
                        <path d="M11.4545455,9.42545999 C11.4545455,6.93521858 9.96972391,5.33039385 7.53028956,5.33039385 L5.99240404,5.33039385 L5.99240404,13.5758436 L7.53028956,13.5758436 C9.96972391,13.5205261 11.4545455,11.9710188 11.4545455,9.42545999 M17.7651717,9.42545999 C17.7651717,15.2913595 13.8939259,18.8330261 7.58335354,18.8330261 L0,18.8330261 L0,0.0178938492 L7.63636364,0.0178938492 C13.8939259,0.0178938492 17.7651717,3.61493419 17.7651717,9.42545999" id="Fill-1" fill="#8e9ba0" mask="url(#mask-2)"></path>
                    </g>
                    <g id="Group-6" transform="translate(20.000000, 0.000000)">
                        <mask id="mask-4" fill="white">
                            <use xlink:href="#path-3"></use>
                        </mask>
                        <g id="Clip-5"></g>
                        <path d="M9.01261881,9.03808598 C10.2741626,9.03808598 11.0420321,8.31867791 11.0420321,7.21193519 C11.0420321,6.10513624 10.2192789,5.38572817 9.01261881,5.38572817 L6.43470338,5.38572817 L6.43470338,9.03808598 L9.01261881,9.03808598 Z M18.8853786,18.8329868 L10.9872042,18.8329868 L9.72566044,15.3466938 C9.45140937,14.5719683 9.12233038,13.9631951 8.40928876,13.9631951 L6.43470338,13.9631951 L6.43470338,18.8329868 L0.0174401835,18.8329868 L0.0174401835,0.0179107143 L9.83537201,0.0179107143 C14.442645,0.0179107143 17.514179,2.67416071 17.514179,6.60316204 C17.5559128,8.61258003 16.5586463,10.4992202 14.8814356,11.5836448 C15.5109538,12.2929339 16.0289217,13.0954306 16.4172304,13.9631951 L18.8853786,18.8329868 Z" id="Fill-4" fill="#8e9ba0" mask="url(#mask-4)"></path>
                    </g>
                    <g id="Group-9" transform="translate(62.222222, 0.000000)">
                        <mask id="mask-6" fill="white">
                            <use xlink:href="#path-5"></use>
                        </mask>
                        <g id="Clip-8"></g>
                        <polygon id="Fill-7" fill="#8e9ba0" mask="url(#mask-6)" points="6.35964912 5.44108499 6.35964912 8.70605192 14.2929276 8.70605192 14.2929276 13.7972259 6.35964912 13.7972259 6.35964912 18.8330261 0.0453947368 18.8330261 0.0453947368 0.0178938492 16.6135417 0.0178938492 16.6135417 5.44108499"></polygon>
                    </g>
                    <g id="Group-12" transform="translate(81.111111, 0.000000)">
                        <mask id="mask-8" fill="white">
                            <use xlink:href="#path-7"></use>
                        </mask>
                        <g id="Clip-11"></g>
                        <polygon id="Fill-10" fill="#8e9ba0" mask="url(#mask-8)" points="18.8888889 5.44108499 12.5831755 5.44108499 12.5831755 18.8330261 6.27746216 18.8330261 6.27746216 5.44108499 0.0256779388 5.44108499 0.0256779388 0.0178938492 18.8888889 0.0178938492"></polygon>
                    </g>
                    <g id="Group-15" transform="translate(38.888889, 0.000000)">
                        <mask id="mask-10" fill="white">
                            <use xlink:href="#path-9"></use>
                        </mask>
                        <g id="Clip-14"></g>
                        <path d="M12.7369396,11.9710301 L10.8913923,10.9749223 L9.04584505,11.9710301 L9.37156879,9.86817956 L7.90600496,8.37404597 L9.96864626,8.09734623 L10.8913923,5.88380456 L11.8141935,8.09734623 L13.8768348,8.37404597 L12.411271,9.86817956 L12.7369396,11.9710301 Z M15.0167301,0.0179050926 L7.20035291,0.0179050926 L0.0353129308,18.8330374 L6.49470085,18.8330374 L7.41744693,16.0660962 L14.311078,16.0660962 L15.2338241,18.8330374 L22.1817149,18.8330374 L15.0167301,0.0179050926 Z" id="Fill-13" fill="#8e9ba0" mask="url(#mask-10)"></path>
                    </g>
                </g>
            </g>
        </g>
    </g>
</svg>
