<svg viewBox="0 0 100 19" xmlns="http://www.w3.org/2000/svg" xmlns:xlink="http://www.w3.org/1999/xlink"><mask id="a" fill="#fff"><path d="m0 .0179332h17.7651717v18.8150929h-17.7651717z" fill="#fff" fill-rule="evenodd"/></mask><mask id="b" fill="#fff"><path d="m.01744018.0179332h18.86793842v18.8150536h-18.86793842z" fill="#fff" fill-rule="evenodd"/></mask><mask id="c" fill="#fff"><path d="m.04539474.0179332h16.56814696v18.8150929h-16.56814696z" fill="#fff" fill-rule="evenodd"/></mask><mask id="d" fill="#fff"><path d="m.02567794.0179332h18.86321096v18.8150929h-18.86321096z" fill="#fff" fill-rule="evenodd"/></mask><mask id="e" fill="#fff"><path d="m.03531293.0179332h22.14640197v18.8151042h-22.14640197z" fill="#fff" fill-rule="evenodd"/></mask><g fill="#8e9ba0" fill-rule="evenodd"><path d="m11.4545455 9.42545999c0-2.49024141-1.48482159-4.09506614-3.92425594-4.09506614h-1.53788552v8.24544975h1.53788552c2.43943435-.0553175 3.92425594-1.6048248 3.92425594-4.15038361m6.3106262 0c0 5.86589951-3.8712458 9.40756611-10.18181816 9.40756611h-7.58335354v-18.81513225h7.63636364c6.25756226 0 10.12880806 3.59704034 10.12880806 9.40756614" mask="url(#a)"/><path d="m9.01261881 9.03808598c1.26154379 0 2.02941329-.71940807 2.02941329-1.82615079 0-1.10679895-.8227532-1.82620702-2.02941329-1.82620702h-2.57791543v3.65235781zm9.87275979 9.79490082h-7.8981744l-1.26154376-3.486293c-.27425107-.7747255-.60333006-1.3834987-1.31637168-1.3834987h-1.97458538v4.8697917h-6.4172632v-18.81507609h9.81793183c4.60727299 0 7.67880699 2.65625 7.67880699 6.58525133.0417338 2.00941799-.9555327 3.89605816-2.6327434 4.98048276.6295182.7092891 1.1474861 1.5117858 1.5357948 2.3795503z" mask="url(#b)" transform="translate(20)"/><path d="m6.35964912 5.44108499v3.26496693h7.93327848v5.09117398h-7.93327848v5.0358002h-6.31425438v-18.81513225h16.56814696v5.42319114z" mask="url(#c)" transform="translate(62.222222)"/><path d="m18.8888889 5.44108499h-6.3057134v13.39194111h-6.30571334v-13.39194111h-6.25178422v-5.42319114h18.86321096z" mask="url(#d)" transform="translate(81.111111)"/><path d="m12.7369396 11.9710301-1.8455473-.9961078-1.84554725.9961078.32572374-2.10285054-1.46556383-1.49413359 2.0626413-.27669974.92274604-2.21354167.9228012 2.21354167 2.0626413.27669974-1.4655638 1.49413359zm2.2797905-11.95312501h-7.81637719l-7.16503998 18.81513231h6.45938792l.92274608-2.7669412h6.89363107l.9227461 2.7669412h6.9478908z" mask="url(#e)" transform="translate(38.888889)"/></g></svg>