<svg width="157" height="28" viewBox="0 0 157 28" xmlns="http://www.w3.org/2000/svg"><title>logo-full</title><g fill="#8e9ba0"><path d="M37.184 23.057h3.038a.239.239 0 0 0 .24-.239v-7.071H45.9c.101 0 .19-.063.225-.158l.963-2.659a.239.239 0 0 0-.225-.32h-6.402V8.183h8.18c.101 0 .19-.063.225-.157l.973-2.659a.239.239 0 0 0-.225-.32h-12.43a.239.239 0 0 0-.239.238v17.533a.24.24 0 0 0 .239.24zM56.644 5.203l-6.377 17.534a.239.239 0 0 0 .224.32h3.156a.239.239 0 0 0 .226-.161l1.033-3.026h6.4l1.007 3.024a.239.239 0 0 0 .227.163h3.154a.239.239 0 0 0 .225-.32L59.516 5.202a.239.239 0 0 0-.224-.157h-2.423c-.1 0-.19.063-.225.157zm-.752 11.707l2.277-6.552 2.2 6.552h-4.477zM80.303 16.075L73.24 5.155a.239.239 0 0 0-.2-.109h-2.768a.239.239 0 0 0-.24.239v17.533c0 .132.108.24.24.24h3.038a.239.239 0 0 0 .239-.24V12.003l7.063 10.945c.044.068.12.11.2.11h2.768a.239.239 0 0 0 .239-.24V5.285a.239.239 0 0 0-.239-.239h-3.038a.239.239 0 0 0-.24.239v10.79zM101.046 6.766c-1.189-1.189-2.884-1.72-4.756-1.72h-7.143a.239.239 0 0 0-.235.286l.528 2.659c.022.111.12.192.234.192h6.288c1.214 0 2.023.38 2.63 1.113.658.81.76 1.948.76 4.68 0 2.732-.102 4.022-.76 4.832-.607.733-1.416 1.112-2.63 1.112h-2.656V10.55a.239.239 0 0 0-.24-.24h-3.038a.239.239 0 0 0-.238.24v12.27c0 .132.106.238.238.238h6.262c1.872 0 3.567-.53 4.756-1.72 2.024-2.023 1.821-4.654 1.821-7.361s.203-5.186-1.821-7.21zM117.716 16.758c0 2.075-1.239 3.314-3.136 3.314s-3.112-1.24-3.112-3.314V5.285a.239.239 0 0 0-.238-.239h-3.039a.239.239 0 0 0-.239.239v11.6c0 3.82 2.934 6.324 6.628 6.324 3.693 0 6.627-2.504 6.627-6.324v-11.6a.239.239 0 0 0-.239-.239h-3.013a.239.239 0 0 0-.239.239v11.473zM138.82 8.025l.959-2.659a.239.239 0 0 0-.225-.32H127.14a.239.239 0 0 0-.24.239v17.533c0 .132.108.24.24.24h12.415c.166 0 .28-.165.225-.32l-.959-2.66a.239.239 0 0 0-.225-.158h-8.18v-4.376h6.587a.239.239 0 0 0 .24-.239v-2.659a.239.239 0 0 0-.24-.239h-6.586V8.183h8.18c.1 0 .19-.063.224-.158zM154.932 19.92h-7.441V5.285a.239.239 0 0 0-.24-.239h-3.038a.239.239 0 0 0-.238.239v17.533c0 .132.107.24.238.24h11.683c.166 0 .281-.165.225-.321l-.965-2.66a.239.239 0 0 0-.224-.157z"/><g><path d="M28.04 3.994a.245.245 0 0 0-.155-.219A27.736 27.736 0 0 0 16.302.218h-.006a.244.244 0 0 0-.18.086l-.022.029a25.442 25.442 0 0 0-2.796 4.62v.002a.082.082 0 0 0 .068.113h.021a22.914 22.914 0 0 1 9.541 1.751c-.798 6.228-4.09 11.676-8.841 15.313a23.128 23.128 0 0 1-2.713-2.441l-.01-.01a.082.082 0 0 0-.136.06v.002c0 .007.002.014.003.02a25.27 25.27 0 0 0 2.774 8.134l.015.027a.15.15 0 0 0 .22.028c8.217-4.823 13.746-13.73 13.8-23.935l.002-.013-.001-.01z"/><path d="M11.28 25.987a26.953 26.953 0 0 1-1.966-8.705l.001-.01a.243.243 0 0 0-.036-.128l-.017-.024a22.941 22.941 0 0 1-1.504-2.434c.446-.212.905-.4 1.374-.568a.246.246 0 0 0 .202-.242l-.001-.01a27.01 27.01 0 0 1 .821-5.032v-.002a.082.082 0 0 0-.08-.082h-.002a19.555 19.555 0 0 0-4.157 1.36 22.852 22.852 0 0 1-.67-3.292 22.823 22.823 0 0 1 5.962-1.583l.01.001a.243.243 0 0 0 .068-.01.245.245 0 0 0 .17-.174A27.044 27.044 0 0 1 14.13.242a.082.082 0 0 0-.074-.112h-.003-.003A27.78 27.78 0 0 0 .256 3.793l-.017.01a.246.246 0 0 0-.106.194l-.001.01v.01c.049 9.005 4.36 17 11.02 22.07l.02.013a.082.082 0 0 0 .119-.09l-.01-.023z"/></g></g></svg>
