<svg xmlns="http://www.w3.org/2000/svg" xmlns:xlink="http://www.w3.org/1999/xlink" version="1.1" x="0" y="0" viewBox="0 0 300 30.3" xml:space="preserve"
     enable-background="new 0 0 300 30.3"><path class="logo logo-game" d="M33.2 12.6H19.1v6.3h3l0 4h-9.8L12.2 7.7h21l0-7 -0.6-0.4H12.1C5.3 0.3-0.1 1.8 0 9.4l0.1 12.2c0 6.3 3.4 8.7 12.2 8.7h20.6l0.4-0.4 -0.1-13.5V12.6z" fill="#8e9ba0"></path>
  <path class="logo logo-game"
        d="M54.6 0c-9.5 0-17.1 1.9-17 10.3l0.1 19.8h11.3l0-5.6h10.2l0 5.6h12.2L71.3 10C71.3 1.8 63.9 0 54.6 0zM49 17.4l-0.1-9.6h10.2l0.1 9.6H49z" fill="#8e9ba0"></path>
  <polygon class="logo logo-game"
           points="104.4 0.5 99.1 14.2 92.8 0.5 76 0.5 76.2 30.1 86.9 30.1 86.8 12.7 94 30.1 103.1 30.1 110.3 12.6 110.4 30.1 122 30.1 121.8 0.5 " fill="#8e9ba0"></polygon>
  <polygon class="logo logo-game"
           points="139 22.8 138.9 18.7 153.7 18.7 153.7 11.9 138.9 11.9 138.8 7.8 157.7 7.8 157.7 0.5 126.6 0.5 126.8 30.1 157.9 30.1 157.8 22.8 " fill="#8e9ba0"></polygon>
  <polygon class="logo logo-face" points="192.8 0.5 161.7 0.5 161.9 30.1 174.2 30.1 174.1 19.2 188.9 19.2 188.9 12.2 174 12.2 174 7.8 192.9 7.8 " fill="#8e9ba0"></polygon>
  <path class="logo logo-face"
        d="M213.6 0c-9.5 0-17.1 1.9-17 10.3l0.1 19.8h11.3l0-5.6h10.2l0 5.6h12.2L230.3 10C230.3 1.8 222.9 0 213.6 0zM208 17.4l-0.1-9.6h10.2l0.1 9.6H208z" fill="#8e9ba0"></path>
  <path class="logo logo-face"
        d="M246.9 22.9l-0.1-15.1h18l0-7 -0.6-0.4h-17.9c-9.3 0-11.7 3.8-11.7 9.4l0.1 11.2c0 6.5 3.5 9.3 12.4 9.3h17.5l0.4-0.3 0-7.1H246.9z" fill="#8e9ba0"></path>
  <polygon class="logo logo-face"
           points="300 22.8 281.1 22.8 281.1 18.7 295.9 18.7 295.8 11.9 281 11.9 281 7.8 299.8 7.8 299.8 0.5 268.7 0.5 268.9 30.1 300 30.1 " fill="#8e9ba0"></polygon></svg>
