<svg viewBox="0 0 96.83 71.13" xmlns="http://www.w3.org/2000/svg"><path d="m84.67 14.36h-83.92a.75.75 0 0 1 0-1.5h83.92a.75.75 0 0 1 0 1.5z" fill="#c4c4c4"/><circle cx="8.21" cy="7.16" fill="#ff7c6c" r="1.63"/><path d="m54 60.9h-52.5v-59.4h82.42v21.25c.5.13 1 .26 1.5.41v-21.83a1.33 1.33 0 0 0 -1.33-1.33h-82.76a1.32 1.32 0 0 0 -1.33 1.33v59.75a1.32 1.32 0 0 0 1.33 1.32h53.53c-.3-.49-.57-.99-.86-1.5z" fill="#c4c4c4"/><g fill="#ff7c6c"><path d="m78 71.13a.75.75 0 0 1 -.75-.75v-41.83a.75.75 0 1 1 1.5 0v41.83a.75.75 0 0 1 -.75.75z"/><path d="m78 37.6-5.54-5.35a.75.75 0 0 1 0-1.06.76.76 0 0 1 1.06 0l4.48 4.29 4.29-4.48a.75.75 0 0 1 1.08 1z"/><path d="m73 67.94a.73.73 0 0 1 -.52-.21.75.75 0 0 1 0-1.06l5.35-5.54 5.54 5.35a.75.75 0 0 1 0 1.06.75.75 0 0 1 -1.06 0l-4.46-4.31-4.31 4.46a.73.73 0 0 1 -.54.25z"/><path d="m96.08 60.58a.74.74 0 0 1 -.37-.1l-36.23-20.92a.75.75 0 1 1 .75-1.29l36.23 20.91a.75.75 0 0 1 -.38 1.4z"/><path d="m60.08 45.6a.77.77 0 0 1 -.72-.55.75.75 0 0 1 .52-.92l6-1.71-1.71-6a.75.75 0 0 1 .51-.93.76.76 0 0 1 .93.52l2.13 7.4-7.41 2.13a.76.76 0 0 1 -.25.06z"/><path d="m90.81 63.34a.75.75 0 0 1 -.72-.55l-2.09-7.4 7.41-2.13a.76.76 0 0 1 .93.52.75.75 0 0 1 -.52.92l-6 1.72 1.71 6a.76.76 0 0 1 -.51.93z"/><path d="m59.75 60.58a.75.75 0 0 1 -.38-1.4l36.23-20.91a.75.75 0 0 1 1 .27.74.74 0 0 1 -.28 1l-36.2 20.94a.71.71 0 0 1 -.37.1z"/><path d="m65 63.35h-.18a.76.76 0 0 1 -.55-.91l1.5-6-6-1.5a.75.75 0 0 1 .36-1.46l7.48 1.86-1.86 7.48a.76.76 0 0 1 -.75.53z"/><path d="m95.73 45.61h-.19l-7.47-1.86 1.86-7.48a.75.75 0 1 1 1.46.36l-1.5 6 6 1.5a.75.75 0 0 1 -.18 1.48z"/></g></svg>